<svg width="400" height="400" viewBox="0 0 400 400" fill="none" xmlns="http://www.w3.org/2000/svg">
<path d="M181.279 349.28C181.279 349.28 201.919 349.36 211.199 348.4C220.479 347.44 274.079 316.96 299.119 262.32C324.159 207.68 331.519 118.88 331.519 115.2C331.519 111.52 234.239 59.6804 230.559 58.8004C226.879 57.9204 198.319 55.4404 198.319 55.4404L181.279 349.28Z" fill="#000005"/>
<path d="M182.72 350.56C190.24 350.56 197.76 350.48 205.28 350.16C208.16 350 211.28 350.16 214.16 349.36C216 348.8 217.84 348.16 219.52 347.28C225.52 344.48 231.2 341.12 236.64 337.36C244.24 332.16 251.52 326.4 258.32 320.24C275.52 304.64 290.16 285.92 300 264.88C309.6 244.32 315.68 222.08 320.56 200C324.88 180.32 328.16 160.4 330.64 140.32C331.36 134.24 332.08 128.08 332.64 121.92C332.8 120.4 332.88 118.8 333.04 117.28C333.2 116.48 332.88 115.6 332.24 115.04C329.84 112.4 326.48 110.56 323.44 108.64C318.32 105.44 313.04 102.4 307.76 99.36C293.84 91.44 279.76 83.76 265.68 76.16C254.96 70.4 244.24 64.64 233.36 59.2C232.24 58.64 231.04 58.08 229.92 57.6C228.48 57.12 226.96 56.88 225.52 56.8C217.76 55.84 210 55.2 202.24 54.48C200.48 54.32 198.72 54.16 196.96 54C196.88 54 196.8 54.08 196.8 54.16L196.32 62L195.04 83.44L193.2 114.88L190.96 153.52L188.48 195.84L186 238.4L183.76 278.16L181.84 311.84L180.4 336C180.16 339.76 179.76 343.68 179.76 347.44C179.76 347.6 179.76 347.76 179.76 347.92C179.76 348.56 181.04 349.44 181.52 349.68C181.68 349.84 182.88 350.64 182.96 350.16L183.44 341.44L184.8 317.92L186.8 283.44L189.2 241.68L191.84 196.8L194.4 152.48L196.72 112.4L198.56 80.64L199.68 60.96C199.84 59.6 199.92 58.24 199.92 56.8C199.92 56.72 199.92 56.56 199.92 56.48C200 56.32 199.6 56.56 199.92 56.56C202 56.56 204.16 56.96 206.24 57.12C213.6 57.76 220.88 58.4 228.24 59.36C229.6 59.44 230.96 59.68 232.32 60.08C232.56 60.16 232.08 60 232.56 60.16L233.28 60.48C233.92 60.72 234.48 61.04 235.04 61.36C244.96 66.24 254.8 71.52 264.56 76.72C277.92 83.84 291.2 91.12 304.4 98.56C309.76 101.6 315.2 104.64 320.48 107.84C322.48 109.04 324.48 110.24 326.48 111.52L327.6 112.24L327.92 112.4L328.48 112.72L329.36 113.36C329.6 113.52 330.4 114.16 329.84 113.68L330.48 114.16C330.32 114.08 330.08 113.84 330.32 114.08C330.56 114.32 330 113.76 330.24 114C330.16 113.92 330.08 113.68 330.08 113.84C329.92 114.72 329.92 115.68 329.92 116.64C329.52 121.36 329.04 126.08 328.56 130.72C326.64 148.24 323.92 165.68 320.64 183.04C316.56 204 311.52 224.96 304.16 245.04C300.48 255.36 295.84 265.36 290.4 274.8C284.8 284.32 278.24 293.28 270.96 301.6C258.96 315.36 245.12 327.28 229.76 337.12C225.04 340.16 220.16 342.88 215.04 345.12C213.6 345.76 212.16 346.24 210.64 346.64C207.12 347.28 203.36 347.2 199.84 347.28C193.28 347.52 186.72 347.6 180.16 347.6C179.6 347.6 180.88 348.8 180.88 348.88C181.04 349.68 181.92 350.56 182.72 350.56Z" fill="#000005"/>
<path d="M181.279 349.28C181.279 349.28 261.439 307.84 287.279 250.32C313.119 192.8 318.159 121.36 318.479 115.76C318.799 110.16 209.679 56.0801 198.319 55.4401C186.959 54.8001 78.3191 95.3601 74.4791 105.6C70.6391 115.84 80.7191 299.6 181.279 349.28Z" fill="white"/>
<path d="M182.24 350.16C188.8 346.8 195.12 342.96 201.28 338.96C215.76 329.84 229.6 319.6 242.56 308.4C257.68 295.28 271.76 280.4 282.16 263.2C288 253.52 292.4 243.04 296.24 232.48C300.56 220.72 304.16 208.72 307.2 196.56C312.16 176.56 315.92 156.32 318.4 135.84C319.12 130.16 319.68 124.48 320.16 118.72C320.32 117.52 320.4 116.4 320.4 115.2C320.24 114.32 319.76 113.6 319.04 113.04C316.4 110.64 313.12 108.8 310.16 106.96C305.12 103.92 299.92 101.04 294.8 98.2398C281.28 90.8798 267.52 83.9198 253.68 77.1998C240.96 70.9598 228.16 64.9598 215.2 59.4398C211.2 57.6798 207.2 56.1598 203.04 54.7998C200.56 53.9998 197.92 53.8398 195.36 54.3198C191.04 55.1998 186.72 56.3198 182.56 57.6798C176.16 59.5998 169.76 61.7598 163.44 63.9998C148.32 69.2798 133.36 74.9598 118.56 81.0398C106.16 86.1598 93.6798 91.3598 82.0798 97.9998C79.1198 99.6798 75.5198 101.6 73.4398 104.4C72.3998 105.84 72.3198 107.6 72.1598 109.36C71.6798 116.56 72.1598 123.92 72.7198 131.12C73.5998 143.12 75.1198 155.12 77.0398 167.04C79.4398 182 82.6398 196.8 86.4798 211.44C90.7198 227.52 96.0798 243.2 102.56 258.56C109.04 274.08 117.12 288.88 126.64 302.72C136 316.08 147.12 328.32 160.16 338.24C166.4 342.96 173.04 347.12 180.08 350.56C181.44 351.28 184.64 349.04 182.8 348.08C168.4 340.96 155.68 330.88 144.88 319.12C133.76 307.04 124.48 293.28 116.72 278.88C108.96 264.16 102.4 248.88 97.1998 233.12C92.1598 218.08 87.9998 202.72 84.7998 187.12C81.9998 173.84 79.7598 160.4 78.2398 146.88C77.1198 137.2 76.2398 127.44 75.9998 117.68C75.9198 114.8 75.9198 111.84 76.0798 108.88C76.1598 108 76.2398 107.12 76.3198 106.24C76.3198 106.16 76.3198 106.08 76.3198 106C76.3998 105.68 76.2398 106.32 76.3198 106.08C76.3198 105.92 76.3998 105.84 76.3998 105.68C76.3998 105.52 76.4798 105.44 76.5598 105.28C76.3998 105.6 76.5598 105.28 76.7198 104.96C76.7998 104.88 76.8798 104.8 76.9598 104.64C76.7198 104.88 76.7998 104.88 76.9598 104.64C77.1998 104.4 77.4398 104.16 77.6798 104L78.4798 103.36C78.8798 103.04 78.3998 103.44 78.6398 103.28L79.1998 102.88C80.8798 101.68 82.6398 100.64 84.4798 99.5998C89.5198 96.7198 94.5598 94.3198 99.9198 91.8398C114 85.3598 128.4 79.5998 142.88 74.1598C156.16 69.1198 169.6 64.2398 183.04 60.1598C187.12 58.8798 191.28 57.7598 195.52 56.9598C195.76 56.9598 196.8 56.7998 196.16 56.8798C196.48 56.8798 196.72 56.7998 197.04 56.7998H197.68C198.16 56.7998 197.36 56.7198 197.92 56.7998C198.48 56.8798 198.88 56.9598 199.36 57.1198L199.84 57.2798L200 57.3598L201.12 57.6798C211.52 61.0398 221.6 65.9198 231.52 70.5598C245.6 77.0398 259.52 83.9198 273.28 90.9598C284.88 96.8798 296.48 102.96 307.68 109.76C310.56 111.52 313.44 113.12 315.92 115.44L316.4 115.92L316.56 116.08C316.64 116.16 316.72 116.32 316.72 116.4C316.72 116.08 316.72 116.24 316.64 116.48C316.48 117.76 316.48 119.12 316.32 120.48C315.12 135.52 313.04 150.48 310.4 165.36C306.24 188.72 300.48 212 292.16 234.24C288.32 244.56 284 254.8 278.16 264.24C272.88 272.64 266.8 280.56 260.08 287.84C247.28 301.92 232.64 314.24 217.28 325.28C206.96 332.72 196.24 339.6 185.2 345.84C183.6 346.72 182 347.6 180.4 348.48C179.76 348.8 179.12 349.76 179.68 350.4C180.24 351.04 181.52 350.48 182.24 350.16Z" fill="#000005"/>
<path d="M196.319 76.8799C185.599 76.8799 93.6794 111.52 90.7194 119.6C89.1194 123.84 90.5594 165.52 103.039 211.36C114.239 252.4 137.039 305.92 181.919 328.32C187.839 325.12 251.439 290.32 272.479 243.68C294.959 193.6 299.039 132.16 299.279 128.08C298.079 125.92 281.119 115.84 250.639 100.72C223.519 87.1999 200.799 77.1999 196.639 76.9599H196.319V76.8799Z" fill="#000005"/>
<path d="M195.84 76.1602C193.6 76.3202 191.36 76.6402 189.28 77.2802C185.84 78.1602 182.48 79.2002 179.12 80.2402C169.6 83.2802 160.16 86.6402 150.72 90.1602C140.32 94.0802 129.92 98.1602 119.68 102.48C111.68 105.92 103.6 109.36 95.9999 113.68C93.7599 114.8 91.6799 116.16 89.8399 117.76C88.4799 119.04 88.3999 120.48 88.2399 122.24C88.0799 126.48 88.0799 130.64 88.3999 134.88C88.7199 141.68 89.3599 148.48 90.1599 155.2C92.3199 173.76 95.9199 192.16 100.8 210.24C104.4 223.6 108.88 236.72 114.24 249.44C119.92 263.12 127.04 276.16 135.52 288.32C144 300.4 154.24 311.36 166.24 319.92C169.2 322.08 172.32 324.08 175.52 325.84C177.92 327.2 181.2 329.76 184 328.24C186 327.2 187.92 326.08 189.84 324.96C198 320.16 206 315.04 213.76 309.52C224.56 301.92 234.8 293.44 244.32 284.24C254.4 274.48 263.6 263.6 270.48 251.28C274.24 244.32 277.44 237.04 280.08 229.6C283.12 221.44 285.76 213.12 288.08 204.72C292.16 189.84 295.36 174.72 297.6 159.44C299.04 150.08 300.16 140.64 300.96 131.2C301.04 130.24 301.12 129.36 301.12 128.4C301.2 127.84 300.88 127.28 300.4 126.96C298.08 124.8 295.12 123.12 292.32 121.52C279.28 113.68 265.68 106.88 252.16 100.08C237.28 92.6402 222.24 85.2802 206.8 79.1202C203.52 77.8402 199.84 76.0802 196.24 75.9202C195.84 75.9202 194.24 75.8402 194.24 76.4802C194.24 77.1202 195.84 77.2802 196.16 77.2802C196 77.2802 196.88 77.2802 196.16 77.2802C196.24 77.2802 196.4 77.2802 196.48 77.3602C194.56 77.0402 192.72 78.2402 192.4 80.1602C192.08 82.0802 193.28 83.9202 195.2 84.2402C197.12 84.5602 198.96 83.3602 199.28 81.4402C199.6 79.6802 198.56 78.0002 196.88 77.4402C197.76 77.6802 198.16 77.8402 198.88 78.0802C201.04 78.8002 203.2 79.6802 205.28 80.5602C211.84 83.2002 218.24 86.1602 224.64 89.1202C241.04 96.7202 257.28 104.8 273.28 113.36C278.48 116.16 283.76 119.04 288.88 122.08C291.44 123.68 294.32 125.2 296.56 127.2C296.72 127.36 296.88 127.52 297.04 127.76C297.04 127.84 297.04 127.6 297.04 127.84C297.04 128 297.04 128.08 297.04 128.24C296.96 129.2 296.88 130.16 296.8 131.04C296.48 134.56 296.16 138.16 295.76 141.68C294.4 154 292.48 166.32 290.08 178.48C286.96 194.48 282.72 210.24 277.28 225.68C274.64 233.28 271.52 240.72 267.92 247.92C264.8 253.92 261.12 259.52 256.96 264.88C248.72 275.68 238.96 285.28 228.56 294.08C219.52 301.76 210 308.8 200.08 315.28C194.08 319.2 188 322.96 181.76 326.4C181.2 326.72 180.56 327.04 180 327.36H183.12C169.84 320.64 158.24 310.96 148.48 299.76C138.72 288.56 130.8 275.84 124.16 262.56C117.84 249.76 112.48 236.4 108.24 222.8C103.04 206 99.0399 188.8 96.2399 171.44C93.8399 157.52 92.3999 143.44 91.9999 129.36C91.9199 126.24 91.7599 122.96 92.3199 119.92C92.5599 118.64 93.9999 117.52 95.1199 116.72C101.2 112.56 108.16 109.52 114.88 106.56C124.64 102.16 134.64 98.1602 144.64 94.2402C154.64 90.3202 164.56 86.7202 174.64 83.2802C178.64 81.9202 182.64 80.6402 186.64 79.4402C188.16 78.9602 189.76 78.5602 191.36 78.1602C192 78.0002 192.72 77.8402 193.36 77.6802L194.24 77.5202C194.64 77.4402 194 77.5202 194.32 77.5202L194.8 77.4402C195.2 77.3602 195.68 77.2802 196.08 77.2002C196.48 77.1202 196.56 77.2002 196.24 77.2002H196.72C197.12 77.2002 198.4 77.1202 198.16 76.4002C197.92 75.6802 196.32 76.1602 195.84 76.1602Z" fill="#000005"/>
<path d="M332.159 186.88C341.519 186.48 350.799 185.04 359.759 182.48C361.279 182.08 359.039 178.8 357.759 179.2C348.799 181.76 339.519 183.2 330.159 183.6C329.279 183.6 329.839 185.12 330.079 185.44C330.399 186.24 331.199 186.8 332.159 186.88Z" fill="#2E6F40"/>
<path d="M324.24 222.72L367.28 225.84C368.08 225.92 368.8 225.36 368.88 224.56C368.88 224.4 368.88 224.32 368.88 224.16C368.56 223.2 367.68 222.48 366.64 222.48L323.6 219.36C322.8 219.28 322.08 219.84 322 220.64C322 220.8 322 220.88 322 221.04C322.32 222.08 323.2 222.72 324.24 222.72Z" fill="#2E6F40"/>
<path d="M318.56 247.28L346.24 276.96C346.8 277.52 348 278.16 348.72 277.68C349.44 277.2 348.96 276.08 348.48 275.6L320.8 245.92C320.24 245.36 319.04 244.72 318.32 245.2C317.6 245.68 318.08 246.8 318.56 247.28Z" fill="#2E6F40"/>
<path d="M72.64 187.04C64.16 186.56 55.68 185.04 47.52 182.72C46.56 182.48 45.52 182.72 44.8 183.44C44.4 183.84 44.4 184.48 44.8 184.96C44.96 185.12 45.12 185.2 45.36 185.28C53.84 187.68 62.56 189.2 71.36 189.76C72.32 189.92 73.36 189.44 73.92 188.56C74.16 187.76 73.44 187.04 72.64 187.04Z" fill="#2E6F40"/>
<path d="M73.0393 205.52C59.0393 207.2 45.1993 210.08 31.6793 214.16C30.9593 214.4 30.8793 214.88 31.5993 215.2C32.4793 215.6 33.4393 215.76 34.3993 215.52C47.5993 211.52 61.1993 208.64 74.8793 207.04C75.4393 206.96 76.3193 206.72 75.6793 206.08C75.0393 205.44 73.7593 205.44 73.0393 205.52Z" fill="#2E6F40"/>
<path d="M78.9597 224.8C73.6797 228.08 69.2797 232.56 65.9997 237.84C65.6797 238.4 67.4397 238.08 67.5997 238.08C68.4797 237.92 69.1997 237.44 69.7597 236.8C72.6397 232.08 76.5597 228 81.1997 225.04C81.5197 224.8 82.3997 224.16 81.5997 224C80.7197 224 79.7597 224.24 78.9597 224.8Z" fill="#2E6F40"/>
<path d="M240.721 154.88C240.721 154.88 246.081 95.6801 241.441 81.8401C236.801 68.0001 193.361 30.9601 156.801 64.2401C120.241 97.5201 137.121 149.84 137.121 149.84L150.081 148.88C150.081 148.88 140.321 103.28 161.281 75.5201C182.241 47.7601 225.121 63.3601 228.881 79.9201C231.921 93.4401 233.201 146.8 233.201 146.8L240.721 154.88Z" fill="white"/>
<path d="M242.322 155.76C242.722 151.36 243.042 146.96 243.362 142.64C244.002 133.2 244.562 123.84 244.802 114.4C245.042 105.68 245.282 96.8001 244.242 88.0801C244.002 85.1201 243.282 82.2401 242.002 79.6001C240.322 76.4001 238.162 73.5201 235.682 70.9601C228.722 63.6001 220.402 57.7601 211.042 53.7601C200.482 49.2801 188.722 47.6001 177.522 50.4801C164.482 53.8401 153.522 62.9601 145.762 73.6801C139.042 83.1201 134.642 94.0001 132.802 105.44C131.282 114.8 131.202 124.32 132.322 133.68C132.882 138.88 133.922 144.08 135.362 149.12L135.602 149.84C135.842 150.64 136.722 151.76 137.682 151.68L150.642 150.72C151.602 150.64 151.762 149.84 151.602 148.96C151.522 148.64 151.682 149.44 151.682 149.2C151.682 148.96 151.602 148.8 151.522 148.56C151.362 147.76 151.202 146.88 151.122 146.08C150.642 143.2 150.322 140.24 150.002 137.36C149.122 128.24 149.202 119.12 150.322 110C151.762 99.2801 154.802 88.6401 160.802 79.6001C166.162 71.2801 174.482 65.4401 184.162 63.2001C192.802 61.3601 201.842 62.0801 210.162 65.2801C212.002 65.9201 213.762 66.7201 215.522 67.6801C216.402 68.1601 217.202 68.6401 218.002 69.1201C218.722 69.5201 219.362 70.0001 220.082 70.4801C220.802 71.0401 221.522 71.5201 222.162 72.1601C222.482 72.4001 222.802 72.7201 223.122 73.0401L223.522 73.4401C223.202 73.1201 223.602 73.5201 223.682 73.6801C224.242 74.2401 224.802 74.8801 225.282 75.5201L225.602 75.9201C225.842 76.2401 225.442 75.6001 225.682 76.0801C225.922 76.5601 226.082 76.7201 226.322 77.1201C226.562 77.5201 226.642 77.6801 226.802 78.0001C227.042 78.4001 226.722 77.8401 226.882 78.1601C226.962 78.3201 227.042 78.5601 227.122 78.7201C227.362 79.2801 227.522 79.9201 227.602 80.5601C227.602 80.5601 227.522 80.2401 227.602 80.6401C227.602 80.8001 227.682 80.9601 227.682 81.1201C227.762 81.4401 227.762 81.7601 227.842 82.0801C227.922 82.8001 228.082 83.4401 228.162 84.1601C228.642 87.7601 228.962 91.3601 229.282 94.9601C230.002 103.84 230.482 112.8 230.882 121.76C231.202 128.8 231.442 135.84 231.602 142.88C231.602 144.08 231.602 145.36 231.682 146.56C231.762 147.76 232.962 148.64 233.762 149.44L237.602 153.6L239.762 155.92C240.322 156.48 241.282 157.2 242.082 156.64C242.882 156.08 242.402 154.8 241.842 154.24L234.322 146.24L234.882 147.6C234.802 143.92 234.722 140.32 234.562 136.64C234.322 128.64 234.002 120.64 233.522 112.64C233.122 104.64 232.642 96.6401 231.762 88.6401C231.522 85.8401 231.042 83.0401 230.482 80.3201C229.682 77.3601 228.242 74.6401 226.162 72.4801C221.122 66.8001 214.002 63.1201 206.802 61.0401C198.482 58.4801 189.682 58.2401 181.282 60.2401C172.002 62.6401 163.922 68.4001 158.482 76.4001C152.562 84.9601 149.282 95.0401 147.602 105.2C146.162 114.32 145.762 123.52 146.402 132.72C146.722 137.84 147.282 142.96 148.242 148.08C148.322 148.48 148.402 148.8 148.482 149.2L149.442 147.44L136.482 148.4L138.562 150.24C138.242 149.36 138.002 148.4 137.762 147.52C137.522 146.48 137.282 145.36 137.042 144.32C136.962 144 136.882 143.68 136.882 143.36C136.962 143.84 136.882 143.28 136.802 143.2C136.722 143.12 136.722 142.8 136.642 142.56C136.482 141.84 136.402 141.04 136.242 140.32C134.802 132.08 134.402 123.76 134.962 115.44C135.682 104.64 138.562 94.1601 143.602 84.5601C149.602 73.2801 159.042 63.0401 170.642 57.4401C180.962 52.5601 192.802 51.6001 203.762 54.8801C213.442 57.6801 222.322 62.6401 229.762 69.4401C230.562 70.1601 231.362 70.9601 232.162 71.6801C232.322 71.8401 232.562 72.0001 232.722 72.2401C232.802 72.3201 233.042 72.4801 232.722 72.2401L232.962 72.4801L234.002 73.5201C235.282 74.8801 236.402 76.3201 237.522 77.8401C237.602 78.0001 237.762 78.1601 237.842 78.3201C237.602 77.9201 237.842 78.3201 237.922 78.4801C238.162 78.8001 238.322 79.1201 238.482 79.4401C238.882 80.0801 239.202 80.7201 239.442 81.3601C239.442 81.3601 239.522 81.6001 239.602 81.7601C239.682 82.0001 239.762 82.3201 239.922 82.5601C240.082 83.1201 240.242 83.7601 240.402 84.3201C240.482 84.5601 240.322 84.0001 240.402 84.2401C240.402 84.3201 240.402 84.4001 240.482 84.4801C240.562 84.5601 240.562 84.8001 240.562 84.9601C240.642 85.3601 240.722 85.7601 240.722 86.1601C240.802 86.9601 240.962 87.7601 241.042 88.5601C241.202 90.4001 241.362 92.3201 241.442 94.1601C241.682 98.5601 241.682 103.04 241.602 107.44C241.522 116.88 241.042 126.32 240.402 135.76C240.002 141.68 239.602 147.52 239.122 153.44L239.042 154.32C238.962 155.28 239.522 156.24 240.402 156.72C241.122 156.72 242.242 156.72 242.322 155.76Z" fill="#2E6F40"/>
<path d="M125.12 131.52C125.12 131.52 121.84 206.56 131.6 242.56C141.36 278.56 195.84 264.16 221.92 256.96C248 249.76 254.96 155.76 253.12 150.24C251.28 144.72 240.64 129.04 234.4 126.48C228.16 123.92 125.12 131.52 125.12 131.52Z" fill="#2E6F40"/>
<path d="M123.121 131.36C122.961 134.96 122.881 138.64 122.801 142.24C122.641 151.2 122.561 160.16 122.641 169.12C122.801 180.4 123.121 191.76 123.921 203.04C124.561 213.84 125.921 224.64 127.921 235.28C128.801 239.84 129.841 244.56 131.921 248.72C133.921 252.72 136.801 256.16 140.321 258.8C147.601 264.4 157.121 266.4 166.161 266.8C176.321 267.36 186.561 266.08 196.561 264.24C205.441 262.56 214.241 260.24 222.961 257.84C228.801 256.24 232.881 251.44 235.921 246.48C240.081 239.6 242.801 231.92 245.041 224.24C247.601 215.44 249.601 206.4 251.041 197.36C252.481 188.96 253.601 180.48 254.401 172C254.961 166.16 255.441 160.32 255.441 154.4C255.521 153.04 255.441 151.68 255.121 150.32C254.641 148.8 254.001 147.36 253.121 146C251.841 143.68 250.401 141.52 248.961 139.36C245.921 135.04 242.561 130.64 238.401 127.44C236.721 126.08 234.641 125.36 232.481 125.2C227.281 124.88 222.081 124.88 216.881 125.2C208.801 125.44 200.801 125.84 192.721 126.24C183.681 126.72 174.561 127.28 165.521 127.84C157.521 128.32 149.521 128.88 141.601 129.44C136.721 129.76 131.761 130.16 126.881 130.48L124.881 130.64C124.321 130.64 123.121 130.8 123.361 131.68C123.601 132.56 125.121 132.64 125.761 132.56L133.681 132C140.321 131.52 146.881 131.04 153.521 130.64C162.161 130.08 170.721 129.52 179.361 129.04C188.081 128.56 196.721 128.08 205.441 127.68C212.321 127.36 219.201 127.04 226.081 127.04C227.281 127.04 228.481 127.04 229.601 127.04L231.121 127.12C231.441 127.12 230.561 127.12 230.961 127.12H231.281H231.921L232.961 127.2L233.361 127.28C233.921 127.36 232.881 127.12 233.281 127.28C233.361 127.28 233.521 127.36 233.601 127.36C234.001 127.44 233.201 127.12 233.441 127.28C233.921 127.6 233.681 127.36 234.161 127.6C234.641 127.84 235.041 128.16 235.441 128.48C239.441 131.52 242.721 135.92 245.521 140C247.761 143.2 250.161 146.72 251.361 150.48C251.441 150.72 251.361 150.64 251.361 150.56C251.361 150.64 251.361 150.8 251.361 150.88C251.361 151.2 251.441 151.44 251.441 151.76C251.521 152.56 251.521 153.36 251.521 154.16C251.521 156.64 251.441 159.04 251.281 161.52C250.881 168.88 250.081 176.24 249.201 183.52C248.081 192.48 246.561 201.36 244.641 210.16C242.881 218.64 240.401 227.04 237.361 235.12C234.881 241.36 231.761 247.84 226.881 252.48C225.921 253.36 224.961 254.08 223.841 254.8C223.601 254.96 223.281 255.12 223.041 255.28C222.961 255.28 222.561 255.52 222.881 255.36L222.401 255.6C221.841 255.84 221.201 256.08 220.641 256.24C216.801 257.36 212.801 258.4 209.041 259.36C199.601 261.84 190.001 263.6 180.321 264.64C178.081 264.88 175.521 265.04 173.121 265.04C170.721 265.04 168.321 265.12 166.241 264.96C161.841 264.8 157.441 264.08 153.201 262.72L152.721 262.56L152.001 262.32C151.521 262.16 150.961 261.92 150.481 261.76C147.681 260.64 145.121 259.12 142.801 257.2C139.521 254.48 137.041 250.96 135.361 247.04C133.521 242.8 132.641 238.08 131.761 233.6C130.801 228.48 130.081 223.28 129.521 218.16C128.241 206.96 127.601 195.68 127.201 184.48C126.881 174.24 126.801 164 126.881 153.84C126.961 147.44 127.041 141.04 127.281 134.56C127.281 133.68 127.361 132.8 127.361 131.92C127.201 130.4 123.201 130 123.121 131.36Z" fill="#2E6F40"/>
<path d="M173.121 216.72C173.121 216.72 174.241 192.48 172.961 189.6C171.681 186.72 164.081 175.76 172.161 168.32C180.241 160.88 191.601 161.36 192.321 172.8C193.041 184.24 183.041 186 180.881 191.84C178.721 197.68 182.241 214.48 180.401 217.6C178.561 220.72 172.961 220.32 173.121 216.72Z" fill="#000005"/>
<path d="M174.72 217.92C175.04 211.04 175.28 204.08 175.2 197.12C175.2 195.44 175.12 193.76 174.96 192.08C174.8 190.96 174.4 189.84 173.76 188.88C171.44 184.4 169.04 179.12 170.8 174.08C171.84 171.12 174.16 168.96 176.64 167.28C178.8 165.76 181.28 164.88 183.92 164.56C185.04 164.48 186.16 164.56 187.2 164.8C187.68 164.88 188.08 165.04 188.56 165.28C188.88 165.44 188.48 165.2 188.8 165.44C188.64 165.28 188.4 165.04 188.64 165.36C189.28 166.24 189.84 167.2 190.24 168.16C190.64 169.52 190.88 170.96 190.96 172.4C191.04 175.04 190.32 177.68 188.96 180C187.76 181.84 186.24 183.44 184.56 184.8C183.04 186 181.6 187.44 180.4 188.96C179.44 190.56 178.88 192.4 178.88 194.32C178.56 199.44 179.28 204.64 179.52 209.76C179.76 211.68 179.68 213.6 179.36 215.52C178.88 217.44 176.88 218.56 174.96 218.48C174.72 218.48 174.48 218.4 174.24 218.4C174.16 218.4 174.08 218.32 173.92 218.32C173.52 218.32 175.44 220 175.2 219.36C175.04 218.88 174.88 218.4 174.88 217.84C174.88 217.28 173.52 216.4 173.04 216.16C172.88 216.08 171.68 215.2 171.6 215.68C171.6 217.12 172.48 218.08 173.52 218.96C174.64 220 176.08 220.72 177.6 220.96C179.6 221.12 181.92 220.08 182.48 218C182.8 216 182.88 214 182.64 212C182.48 209.2 182.24 206.4 182.08 203.6C181.84 199.12 181.2 193.84 184.4 190.24C187.44 186.8 191.6 184.56 193.28 180C194.32 177.12 194.4 174 193.68 171.12C192.88 168.32 191.04 165.92 188.56 164.32C186.56 162.8 184.08 162.08 181.52 162.08C178.8 162.24 176.24 163.12 173.92 164.64C171.2 166.32 168.64 168.72 167.6 171.84C166.8 174.64 166.88 177.6 167.76 180.32C168.48 182.64 169.52 184.96 170.72 187.04C171.36 188.08 171.68 189.28 171.84 190.48C172.16 194.88 172.16 199.2 172 203.6C171.92 207.36 171.84 211.12 171.68 214.88V215.52C171.68 216.08 172.64 216.72 173.04 217.04C173.04 217.04 174.72 218.08 174.72 217.92Z" fill="#000005"/>
<path d="M233.602 135.68C233.842 149.44 233.282 163.2 232.082 176.88C230.882 190.56 228.322 204.08 224.482 217.28C222.242 224.72 219.522 232 216.242 238.96C216.002 239.52 217.442 239.44 217.682 239.44C218.162 239.44 219.842 239.44 220.082 238.88C225.842 226.48 230.082 213.36 232.642 199.92C235.282 186.32 236.802 172.56 237.282 158.64C237.602 150.8 237.682 143.04 237.602 135.2C237.602 134.72 233.602 134.88 233.602 135.68Z" fill="white"/>
</svg>
