<svg width="400" height="400" viewBox="0 0 400 400" fill="none" xmlns="http://www.w3.org/2000/svg">
<path d="M164.159 101.04C166.879 85.9998 172.159 71.5198 179.759 58.1598C181.679 54.5598 183.999 51.1998 186.639 48.0798L186.319 48.4798C189.039 45.4398 192.399 43.1198 196.159 41.5998C199.919 40.2398 203.759 39.1198 207.679 38.3998C211.759 37.4398 215.919 36.7998 220.079 36.3198C221.119 36.2398 222.159 36.0798 223.279 36.0798C223.119 36.0798 222.559 36.0798 223.359 36.0798H224.079C224.639 36.0798 225.279 35.9998 225.839 35.9998C226.799 35.9998 227.839 35.9998 228.799 35.9998C229.279 35.9998 229.839 35.9998 230.399 36.0798C230.639 36.0798 230.879 36.1598 231.119 36.1598C229.919 36.2398 230.959 36.1598 231.279 36.1598C232.239 36.2398 233.199 36.3998 234.159 36.5598C234.399 36.5598 235.119 36.6398 234.319 36.5598C233.519 36.4798 234.479 36.5598 234.639 36.6398L236.319 37.0398C236.719 37.1198 237.279 37.4398 235.759 36.8798C235.999 36.9598 236.239 37.0398 236.399 37.0398C236.879 37.1998 237.279 37.2798 237.759 37.4398C238.959 37.7598 236.639 37.0398 237.359 37.2798L237.999 37.5198C238.559 37.6798 239.119 37.9198 239.599 38.1598C240.319 38.4798 238.319 37.5998 239.439 38.0798L239.999 38.3198C240.399 38.4798 240.719 38.6398 241.119 38.8798C241.279 38.9598 241.439 39.1198 241.679 39.1198C241.119 39.1198 240.879 38.6398 241.519 39.0398C241.919 39.2798 242.399 39.5198 242.799 39.8398C243.519 40.3198 244.239 40.7998 244.959 41.2798C245.519 41.6798 244.959 41.2798 244.879 41.1998L245.359 41.5998C245.759 41.9198 246.159 42.2398 246.559 42.5598C251.999 47.1998 256.479 52.9598 259.519 59.3598C263.839 67.8398 266.079 77.1998 267.599 86.5598L267.519 86.0798C268.399 91.8398 269.039 97.6798 269.679 103.44C269.759 104.24 270.399 104.64 271.039 105.12C272.239 105.84 273.599 106.4 274.959 106.8C276.319 107.28 277.759 107.52 279.199 107.52C279.599 107.52 281.279 107.52 281.199 106.88C279.679 92.7198 278.159 78.1598 272.399 65.0398C267.359 53.4398 258.959 43.5198 247.599 37.7598C233.439 30.5598 217.199 30.2398 201.919 33.1998C198.559 33.8398 195.199 34.6398 191.839 35.5198C188.479 36.3198 185.199 37.5198 182.159 39.1198C176.319 42.3998 172.399 47.9998 169.119 53.6798C162.079 65.8398 156.879 78.9598 153.839 92.7198C153.439 94.3998 153.119 96.1598 152.799 97.8398C152.639 98.5598 153.759 99.1998 154.159 99.5198C156.639 100.96 159.439 101.76 162.319 101.92C162.639 101.68 164.079 101.68 164.159 101.04Z" fill="#000005"/>
<path d="M110.319 101.44C110.319 101.44 301.679 85.6 317.199 106.8C332.719 128 337.359 294.8 315.039 303.36C292.719 311.92 115.359 318.56 115.119 290.72C114.879 262.88 97.1993 102.48 110.319 101.44Z" fill="#2E6F40"/>
<path d="M111.599 102.32L115.839 102C119.759 101.68 123.679 101.44 127.599 101.12C133.439 100.72 139.359 100.32 145.279 99.9199C152.639 99.4399 160.079 99.0399 167.439 98.6399C175.759 98.2399 184.079 97.8399 192.399 97.5199C201.119 97.1999 209.919 96.9599 218.719 96.7999C227.519 96.6399 236.239 96.5599 244.959 96.6399C253.039 96.7199 261.039 96.8799 269.119 97.2799C276.159 97.5999 283.199 98.0799 290.239 98.9599L292.559 99.2799L293.039 99.3599H293.359L294.559 99.5199C295.999 99.7599 297.439 99.9199 298.879 100.24C300.319 100.56 301.519 100.72 302.799 101.04L303.599 101.2L304.079 101.28C304.399 101.36 303.599 101.12 304.159 101.28L305.839 101.76C306.399 101.92 306.879 102.08 307.439 102.24L308.159 102.48L308.559 102.64C309.439 102.96 310.319 103.28 311.199 103.68C310.799 103.52 311.599 103.84 311.199 103.68L311.439 103.84L311.999 104.16C312.159 104.24 312.399 104.32 312.559 104.48C312.719 104.64 313.199 104.8 312.959 104.72C312.719 104.64 313.199 104.88 313.279 104.96C313.359 105.04 313.599 105.2 313.759 105.28L314.159 105.6L314.319 105.76C314.079 105.52 314.399 105.84 314.319 105.76C315.279 106.64 316.079 107.68 316.639 108.88C317.519 110.64 318.239 112.48 318.799 114.32C320.479 119.68 321.759 125.12 322.639 130.64C323.919 137.92 324.799 145.2 325.599 152.48C326.479 160.96 327.119 169.52 327.599 178C328.079 187.12 328.399 196.32 328.559 205.44C328.639 214.56 328.639 223.68 328.319 232.64C328.079 241.04 327.599 249.52 326.799 257.84C326.159 265.04 325.279 272.16 323.999 279.28C323.119 284.64 321.679 289.84 319.679 294.88C318.399 297.92 316.879 301.04 313.919 302.64L313.679 302.72C313.519 302.8 313.919 302.64 313.679 302.72L313.279 302.88C312.959 302.96 312.639 303.12 312.399 303.2C311.679 303.44 310.959 303.6 310.159 303.84C308.239 304.32 306.239 304.64 304.319 305.04C301.679 305.44 299.599 305.76 297.039 306.08C293.999 306.48 291.039 306.8 287.999 307.12C280.799 307.84 273.599 308.4 266.399 308.8C258.079 309.28 249.679 309.68 241.279 309.92C232.399 310.16 223.519 310.32 214.559 310.24C205.759 310.24 196.959 310 188.159 309.6C179.839 309.2 171.519 308.72 163.199 307.92C155.919 307.2 149.359 306.4 142.079 304.96C140.559 304.64 138.959 304.32 137.439 304L136.959 303.92L136.639 303.84H136.719L135.599 303.6L133.599 303.04C132.319 302.72 131.039 302.32 129.679 301.92C129.519 301.92 128.959 301.68 129.599 301.92L129.199 301.76L128.319 301.44C127.759 301.2 127.199 301.04 126.639 300.8L125.839 300.48L125.519 300.32L125.279 300.24C125.599 300.4 125.199 300.16 125.119 300.16L124.719 300L123.999 299.6C123.519 299.36 123.119 299.12 122.639 298.88L122.319 298.72C122.399 298.72 122.799 298.96 122.319 298.72L121.679 298.32C121.279 298.08 120.959 297.84 120.559 297.52L120.079 297.12C120.399 297.36 119.919 296.96 119.839 296.88C119.279 296.4 118.799 295.84 118.319 295.2C118.479 295.44 118.239 295.04 118.159 294.96C118.079 294.88 117.999 294.64 117.919 294.48C117.439 293.68 117.199 292.72 117.119 291.76C117.039 290 117.039 288.16 116.959 286.32C116.719 280.8 116.319 275.36 115.919 269.92C115.359 262.48 114.799 255.04 114.239 247.6C113.519 238.96 112.879 230.24 112.239 221.6C111.519 212.4 110.879 203.2 110.239 193.92C109.599 184.8 109.039 175.68 108.559 166.56C108.159 158.24 107.759 150 107.599 141.68C107.439 134.88 107.439 128.08 107.679 121.36C107.759 116.72 108.239 112.08 109.199 107.52C109.439 106.24 109.919 105.04 110.479 103.84C110.639 103.44 110.879 103.2 111.199 102.96C111.279 102.48 111.439 102.4 111.599 102.32C111.519 102.32 111.279 102.48 111.599 102.32C111.919 102.32 111.439 102.32 111.599 102.32C112.319 102.24 112.399 101.84 111.839 101.36C111.039 100.8 110.079 100.56 109.119 100.56C106.559 100.8 105.759 103.92 105.279 106.08C104.319 110.72 103.839 115.36 103.759 120.08C103.439 126.96 103.519 133.84 103.679 140.64C103.839 149.04 104.239 157.44 104.639 165.84C105.119 175.04 105.679 184.32 106.319 193.52C106.959 202.72 107.679 212 108.319 221.36C108.959 230.08 109.679 238.8 110.399 247.52C110.959 254.88 111.599 262.32 112.079 269.76C112.479 275.12 112.879 280.48 113.039 285.84C113.119 287.52 113.039 289.36 113.199 291.04C113.439 292.48 113.999 293.76 114.959 294.88C117.439 298.08 121.599 300 125.279 301.44C130.799 303.52 136.559 305.12 142.399 306.16C149.599 307.6 156.959 308.48 164.319 309.2C172.639 310 181.039 310.56 189.439 310.96C198.479 311.36 207.519 311.52 216.559 311.6C225.599 311.68 234.479 311.52 243.439 311.28C251.839 311.04 260.319 310.64 268.719 310.16C275.999 309.76 283.279 309.2 290.479 308.48C296.079 307.92 301.759 307.28 307.359 306.32C309.359 306 311.279 305.6 313.199 305.12C314.639 304.8 315.999 304.4 317.359 303.76C320.399 302.24 322.079 298.64 323.359 295.76C325.359 290.72 326.799 285.44 327.679 280.08C329.039 272.96 329.919 265.68 330.559 258.4C331.359 249.92 331.759 241.44 331.999 232.88C332.319 223.68 332.319 214.48 332.239 205.28C332.159 196.08 331.759 186.88 331.279 177.68C330.799 169.12 330.159 160.48 329.279 151.92C328.479 144.64 327.599 137.36 326.319 130.08C325.439 124.64 324.159 119.2 322.399 113.92C321.359 110.72 319.999 107.36 317.359 105.12C314.239 102.56 310.079 101.28 306.239 100.24C300.639 98.7999 294.879 97.7599 289.119 97.1199C282.079 96.2399 274.959 95.7599 267.839 95.4399C259.599 95.0399 251.359 94.8799 243.119 94.7999C234.319 94.7199 225.519 94.7999 216.719 94.9599C207.919 95.1199 199.039 95.3599 190.239 95.7599C181.839 96.0799 173.439 96.4799 164.959 96.8799C157.519 97.2799 150.079 97.6799 142.639 98.1599C136.719 98.5599 130.799 98.9599 124.879 99.3599C120.959 99.5999 117.119 99.9199 113.199 100.24L109.119 100.56C108.399 100.64 108.239 101.04 108.879 101.52C109.679 102.08 110.639 102.4 111.599 102.32Z" fill="#2E6F40"/>
<path d="M195.279 203.84C195.279 203.84 159.839 169.2 187.359 153.6C214.879 138 252.799 164.32 241.359 185.68C229.919 207.04 220.319 209.28 220.319 209.28C220.319 209.28 228.559 267.52 222.879 269.2C217.199 270.88 181.119 270.48 179.679 259.92C178.239 249.36 195.279 203.84 195.279 203.84Z" fill="#000005"/>
<path d="M281.84 112C286.24 134.8 290.56 157.68 293.2 180.8C295.84 203.52 296.8 226.56 294.32 249.36C292.96 262.08 290.4 274.72 286.72 286.96C286.48 287.68 290.32 288.96 290.48 288.24C297.2 266.32 299.68 243.28 299.52 220.4C299.28 197.2 296.4 174 292.56 151.12C290.4 138.4 288 125.68 285.52 112.96C285.44 112.32 283.76 112 283.28 111.84C283.04 111.84 281.76 111.44 281.84 112Z" fill="white"/>
<path d="M53.7591 344.96L52.9591 348.08C52.9591 348.08 44.9591 354.08 43.1191 354.8C41.2791 355.52 30.1591 360 34.0791 361.12C37.9991 362.24 73.8391 363.44 74.7191 360.56C75.5991 357.68 71.1191 346.16 71.1191 346.16L53.7591 344.96Z" fill="#000005"/>
<path d="M51.9195 345.6L51.1195 348.72L52.0795 347.52C49.8395 349.2 47.5195 350.88 45.1195 352.48C44.4795 352.88 43.8395 353.28 43.1995 353.76C42.7995 354 43.4395 353.68 43.1995 353.76L42.9595 353.92C42.6395 354.08 43.0395 353.92 43.1195 353.84L42.7995 354C41.3595 354.64 39.9195 355.2 38.4795 355.84C36.8795 356.56 35.2795 357.36 33.8395 358.32C33.0395 358.88 31.0395 360.24 31.5995 361.44C32.1595 362.64 35.3595 362.64 36.4795 362.8C43.2795 363.44 50.0795 363.6 56.8795 363.6C60.3195 363.6 63.6795 363.52 67.1195 363.28C69.4395 363.28 71.7595 362.88 73.9995 362.16C75.0395 361.76 76.3995 361.04 76.6395 359.84C76.9595 358.48 76.4795 356.88 76.2395 355.6C75.4395 352.32 74.4795 349.12 73.1995 345.92C73.1195 345.68 73.0395 345.44 72.9595 345.28C72.8795 345.12 72.3995 344.96 72.1595 344.96L56.9595 343.92L54.7995 343.76C53.8395 343.76 52.8795 344.24 52.2395 345.04C51.7595 345.68 51.9995 346.16 52.7995 346.16L67.9995 347.2L70.1595 347.36L69.3595 347.04C70.3195 349.44 71.1195 351.92 71.8395 354.4C72.3995 356.08 72.7995 357.76 72.9595 359.52C72.9595 359.84 72.9595 360.16 72.9595 360.48C72.9595 360.64 72.9595 360.72 72.9595 360.88C72.9595 361.2 72.8795 361.04 72.9595 360.96C73.1195 360.8 73.2795 360.64 73.4395 360.48C73.9195 360.08 73.1995 360.64 73.6795 360.32C74.1595 360 73.3595 360.56 73.9195 360.24C74.3195 360 73.8395 360.24 73.7595 360.32C73.4395 360.48 74.1595 360.24 73.8395 360.32C73.7595 360.32 73.5995 360.4 73.5195 360.4C73.0395 360.48 72.5595 360.56 72.0795 360.64L71.6795 360.72C71.3595 360.8 71.9195 360.72 71.5995 360.72L70.6395 360.8C69.9995 360.88 69.2795 360.88 68.5595 360.96C65.1195 361.2 61.7595 361.2 58.3195 361.2C51.7595 361.2 45.1195 361.04 38.7195 360.48C37.8395 360.4 36.9595 360.32 36.0795 360.16C35.8395 360.08 35.4395 360 35.3595 360C35.2795 359.92 35.1995 359.92 35.1195 359.84C35.2795 360 35.1195 359.76 35.1195 359.76C35.1195 360 35.1995 359.76 35.0395 359.92C35.1195 359.76 35.1995 359.76 35.0395 359.92C35.1195 359.84 35.1995 359.76 35.2795 359.68C35.5195 359.52 35.0395 359.84 35.4395 359.6C35.5995 359.52 35.7595 359.36 35.9195 359.28L36.3195 359.04L36.5595 358.88C36.9595 358.72 37.2795 358.48 37.6795 358.32C38.4795 357.92 39.2795 357.52 40.0795 357.2L41.0395 356.8L41.5995 356.56C41.1995 356.72 41.5995 356.56 41.7595 356.48C44.5595 355.2 47.1195 353.68 49.5195 351.84C50.7995 350.96 51.9995 350.08 53.2795 349.12C53.6795 348.88 53.9995 348.64 54.3195 348.32C54.7195 347.68 55.0395 346.96 55.1195 346.24L55.5995 344.48C55.8395 343.68 54.1595 344 53.8395 344.08C53.0395 344.24 52.3195 344.8 51.9195 345.6Z" fill="#000005"/>
<path d="M135.84 347.76C135.84 347.76 143.92 363.6 141.44 363.92C138.96 364.24 113.68 364.88 113.92 362.08C114.16 359.28 118.88 346.88 118.88 346.88L135.84 347.76Z" fill="#000005"/>
<path d="M133.92 348C135.68 351.36 137.2 354.8 138.64 358.32C139.04 359.36 139.44 360.4 139.68 361.44C139.76 361.76 139.84 362.08 139.84 362.48C139.84 362.72 139.84 363.28 139.84 363.28C139.84 363.12 139.84 363.36 139.76 363.44C140.16 363.2 140.24 362.8 140.88 362.96H140.8C140.56 362.96 140.32 362.96 140.08 363.04H139.68C139.12 363.04 140.16 363.04 139.6 363.04L138.24 363.12C133.12 363.28 128 363.28 122.88 363.04L121.2 362.96L120.32 362.88H120.24L119.68 362.8C118.72 362.72 117.76 362.56 116.8 362.4C116.48 362.32 117.2 362.48 116.64 362.4L116.16 362.24L115.92 362.16C116 362.16 116.24 362.4 116.08 362.24C115.92 362.08 116 362.16 115.92 362.16C115.68 362 116.08 362.4 116 362.24C115.84 362.24 115.92 362.08 116 362.24C115.84 362.16 116 362.24 116 362.32C116.08 362 116.16 361.6 116.16 361.28C117.28 356.48 119.2 351.84 120.88 347.28L118.96 348L135.84 348.96C136.48 348.96 137.84 348.8 137.84 348C137.84 347.2 136.4 346.96 135.84 346.96L118.96 346C118.48 346 117.28 346.08 117.04 346.72C115.36 351.2 113.68 355.76 112.4 360.4C112.24 361.04 111.76 362 112.08 362.72C112.48 363.36 113.2 363.84 114 364C116.16 364.64 118.32 364.96 120.56 365.04C126.08 365.44 131.6 365.52 137.2 365.28C138.8 365.28 140.48 365.2 142.08 365.04C144.64 364.64 144 362.32 143.44 360.56C141.92 356.08 140.08 351.84 137.84 347.68C137.2 346.32 133.28 346.64 133.92 348Z" fill="#000005"/>
<path d="M120.799 223.92C120.799 223.92 129.359 270.4 140.239 350.64C140.239 350.64 111.519 353.28 110.879 349.76C110.239 346.24 102.159 285.28 95.5195 257.6C95.5195 257.6 74.9595 327.76 74.9595 348.88C74.9595 348.88 49.1195 350.08 47.9195 347.12C46.7195 344.16 63.1995 248.8 73.6795 224.88L120.799 223.92Z" fill="white"/>
<path d="M118.88 224.16C119.2 225.92 119.52 227.6 119.84 229.36C120.24 231.52 120.56 233.68 120.96 235.76C121.04 236.08 121.04 236.4 121.12 236.64V236.8C121.04 236.56 121.12 237.04 121.12 236.8C121.2 237.04 121.2 237.2 121.2 237.36C121.36 238.08 121.44 238.8 121.6 239.52L122.4 244.24C123.76 252.48 125.12 260.72 126.4 269.04C128.16 280.24 129.84 291.44 131.52 302.72C133.6 316.64 135.52 330.56 137.44 344.56C137.68 346.56 138 348.48 138.24 350.48L139.68 349.04C137.6 349.2 135.44 349.36 133.36 349.52C129.2 349.76 124.96 350 121.12 350C119.2 350 117.28 349.92 115.44 349.76C115.04 349.76 114.72 349.68 114.32 349.6L113.84 349.52C113.6 349.52 113.2 349.36 113.68 349.52C113.44 349.44 113.12 349.44 112.88 349.28C112.8 349.2 112.64 349.2 112.56 349.12C112.32 349.12 113.04 349.44 112.64 349.12C112.24 348.8 112.96 349.44 112.64 349.12C112.88 349.28 112.96 349.52 112.96 349.84C112.96 349.6 112.88 349.44 112.88 349.2L112.56 346.72C111.52 339.2 110.4 331.68 109.28 324.16C107.68 313.2 106 302.32 104.16 291.44C102.4 281.04 100.64 270.64 98.3201 260.4L97.6001 257.44C97.2001 255.92 94.3201 255.36 93.7601 257.04C93.0401 259.44 92.4001 261.84 91.6801 264.24C90.0001 270.16 88.4001 276.16 86.8001 282.08C84.7201 289.84 82.7201 297.6 80.8801 305.44C79.0401 313.28 77.2001 320.96 75.7601 328.8C74.4801 334.8 73.6001 340.96 73.2001 347.12C73.2001 347.68 73.2001 348.24 73.2001 348.8L74.6401 347.36C70.7201 347.52 67.2801 347.6 63.5201 347.6C60.6401 347.6 57.7601 347.52 54.8801 347.28C53.6801 347.2 52.5601 347.04 51.3601 346.88C51.2001 346.88 50.3201 346.64 50.9601 346.8L50.4001 346.64C50.2401 346.56 50.0001 346.56 49.8401 346.48C49.2001 346.32 50.0801 346.64 49.7601 346.48C49.5201 346.4 49.3601 346.08 49.8401 346.56C49.5201 346.32 50.0801 346.96 49.9201 346.64C50.1601 346.96 50.0801 347.04 50.0801 346.88C50.0801 346.96 50.0801 347.44 50.1601 347.2C50.2401 346.96 50.1601 346.64 50.1601 346.4C50.1601 345.36 50.3201 344.4 50.4001 343.36C50.5601 341.76 50.8001 340.24 51.0401 338.64C51.3601 336.4 51.6001 334.88 51.9201 332.8C53.6801 321.2 55.7601 309.68 57.9201 298.16C60.4801 284.8 63.2001 271.44 66.3201 258.16C68.7201 248 71.1201 237.68 74.8801 227.84C75.2001 227.04 75.5201 226.24 75.8401 225.44L74.4801 226.48L90.4001 226.16L115.76 225.68L121.6 225.6C122.4 225.6 123.04 224.88 123.04 224.08C123.04 224 123.04 223.84 122.96 223.76C122.56 222.8 121.6 222.24 120.56 222.4L104.64 222.72L79.2801 223.2L73.4401 223.28C72.8001 223.36 72.3201 223.76 72.0801 224.32C70.4801 228.24 69.0401 232.32 67.9201 236.4C66.2401 242 64.8001 247.6 63.4401 253.28C60.2401 266.56 57.4401 280 54.8801 293.36C52.5601 305.44 50.3201 317.52 48.4801 329.76C47.8401 333.76 47.2001 337.84 46.7201 341.92C46.5601 343.12 46.4801 344.32 46.3201 345.44C46.2401 346.08 46.2401 346.8 46.4001 347.44C47.0401 349.44 49.8401 349.84 51.6001 350.16C54.2401 350.56 56.8801 350.72 59.5201 350.8C64.6401 350.96 69.8401 350.88 75.0401 350.64H75.9201C76.7201 350.56 77.2801 350 77.3601 349.2C77.3601 343.44 78.3201 337.92 79.3601 332.4C80.7201 324.72 82.4801 317.04 84.2401 309.44C86.0801 301.6 88.0801 293.76 90.1601 285.92C91.8401 279.68 93.5201 273.44 95.2801 267.2C95.8401 265.2 96.4001 263.28 96.9601 261.28C97.2001 260.4 97.6001 259.44 97.7601 258.48V258.4L93.9201 258C96.3201 268 98.1601 278.16 99.8401 288.24C101.76 299.44 103.52 310.64 105.12 321.84C106.24 329.76 107.36 337.76 108.48 345.76L108.88 348.64C108.88 349.44 109.12 350.16 109.44 350.88C110.16 352 111.6 352.48 112.88 352.8C114.64 353.12 116.4 353.36 118.16 353.44C125.6 353.68 133.04 353.36 140.4 352.64L140.88 352.56C141.52 352.48 142.4 351.92 142.32 351.12C140.32 336.72 138.32 322.32 136.24 308C134.56 296.4 132.8 284.8 130.96 273.2C129.6 264.56 128.24 256 126.8 247.36C125.84 241.76 124.88 236.16 123.92 230.56C123.68 228.4 123.28 226.24 122.8 224.08V224C122.32 221.68 118.48 221.84 118.88 224.16Z" fill="#000005"/>
<path d="M141.599 185.999C141.599 185.999 137.759 158.719 96.8789 152.479C55.9989 146.239 51.4389 178.719 51.7589 194.799L71.3589 195.119C71.3589 195.119 69.1189 224.639 71.1989 225.679C73.2789 226.719 122.479 224.799 122.479 224.799L121.039 189.119L141.599 185.999Z" fill="#000005"/>
<path d="M143.12 186.159C142.56 182.239 140.64 178.399 138.64 175.039C133.6 166.719 125.68 160.479 116.88 156.479C110.16 153.519 103.04 151.519 95.7602 150.479C89.2802 149.519 82.4802 149.359 76.0802 150.879C71.2002 151.999 66.6402 154.239 62.8802 157.519C59.5202 160.479 56.8802 164.079 55.0402 168.079C51.6002 175.439 50.2402 183.599 50.1602 191.679C50.1602 192.479 50.1602 193.279 50.1602 194.079C50.1602 195.039 51.1202 196.479 52.1602 196.479L69.2802 196.799L71.7602 196.879L69.7602 194.479C69.3602 199.839 69.0402 205.199 68.8002 210.559C68.6402 214.079 68.5602 217.599 68.7202 221.119C68.8002 223.199 68.8802 226.559 71.2802 227.439C72.8002 227.999 74.6402 227.759 76.2402 227.839C79.3602 227.839 82.4002 227.839 85.5202 227.759C93.2002 227.599 100.88 227.359 108.56 227.119C111.76 227.039 114.96 226.879 118.16 226.799C119.76 226.719 121.36 226.799 122.96 226.639H123.2C123.76 226.639 124 225.919 124 225.519L123.52 213.519L122.72 194.319L122.56 189.919L121.76 191.039L139.76 188.319L142.4 187.919C144.24 187.599 142.48 184.079 140.8 184.319L122.8 187.039L120.16 187.439C119.68 187.599 119.28 188.079 119.36 188.559L119.84 200.639L120.64 219.839L120.8 224.239L121.52 223.119C117.68 223.279 114.32 223.359 110.56 223.519C103.12 223.759 95.6002 223.999 88.1602 224.159C82.7201 224.239 77.2002 224.559 71.8402 224.159C71.6002 224.159 71.2802 224.079 71.0402 224.079C70.8002 224.079 71.0402 224.079 71.2002 224.159C71.6002 224.319 71.9202 224.639 72.1602 224.959C72.2402 225.119 72.4002 225.439 72.2402 225.039C72.4802 225.599 72.3202 225.199 72.2402 224.879C72.1602 224.559 72.1602 224.479 72.1602 224.239C72.2402 224.799 72.1602 223.919 72.0802 223.759C71.8402 220.559 71.8402 217.359 72.0002 214.159C72.1602 208.159 72.7202 202.159 72.9602 196.159V195.839C73.0402 194.879 72.0002 193.439 70.9602 193.439L53.8402 193.119L51.3602 193.039L53.3602 195.439C53.2002 187.999 54.0002 180.799 56.7202 173.679C59.7602 165.679 65.6802 158.799 73.9202 155.759C79.4402 153.839 85.2802 153.119 91.0402 153.599C98.3202 154.079 105.52 155.519 112.32 158.079C117.6 159.999 122.56 162.639 126.96 166.079C128.64 167.439 130.24 168.879 131.68 170.399C132 170.799 132.4 171.119 132.72 171.519C132.88 171.679 133.04 171.839 133.12 171.999C132.96 171.759 133.44 172.399 133.12 171.999L133.36 172.319C133.92 173.039 134.48 173.839 135.04 174.559C135.6 175.279 136 175.999 136.48 176.719L136.72 177.199C137.04 177.679 136.56 176.879 136.8 177.439C136.96 177.759 137.12 178.079 137.28 178.399C137.92 179.599 138.4 180.799 138.88 181.999C138.96 182.239 139.04 182.479 139.12 182.719C138.88 182.159 139.12 182.799 139.2 183.039C139.28 183.439 139.44 183.839 139.52 184.239C139.6 184.639 139.76 185.199 139.84 185.679C139.84 185.759 139.84 185.839 139.84 185.839C140 186.799 140.8 187.599 141.76 187.839C143.04 187.919 143.28 186.959 143.12 186.159Z" fill="#000005"/>
<path d="M78.6387 192.8C78.6387 192.8 100.319 213.2 119.439 213.68C138.559 214.16 146.719 203.04 141.599 186L120.959 189.12L119.999 192.4C113.119 189.76 106.079 187.76 98.7987 186.48C91.4387 185.12 83.9187 187.44 78.6387 192.8Z" fill="white"/>
<path d="M77.9986 193.92C80.5586 196.24 83.1986 198.4 85.9186 200.48C91.5186 204.8 97.6786 208.48 104.159 211.44C111.199 214.56 118.559 216.08 126.239 215.2C132.239 214.48 138.319 212 141.759 206.88C145.839 200.8 145.119 192.88 143.119 186.24C142.799 185.28 141.839 184.16 140.799 184.32L122.799 187.04L120.159 187.44C119.839 187.52 119.599 187.84 119.519 188.16L118.479 191.52L119.919 190.88C114.719 188.8 109.279 187.12 103.839 186C99.2786 184.96 94.7186 184 89.9986 184.8C86.8786 185.36 83.8386 186.56 81.1986 188.32C79.7586 189.2 78.4786 190.32 77.3586 191.52C76.6386 192.08 77.5186 193.44 77.9986 193.92C78.6386 194.48 79.5186 194.8 80.0786 194.16C79.5986 194.64 79.9186 194.32 80.0786 194.16C80.2386 194 80.4786 193.76 80.7186 193.6C81.3586 192.96 82.0786 192.4 82.7986 191.92C85.1986 190.24 87.8386 189.04 90.7186 188.4C95.0386 187.44 99.1986 188.24 103.519 189.12C107.439 190 111.359 191.04 115.199 192.32C116.879 192.88 118.639 193.44 120.319 194.16C120.799 194.4 121.359 194.24 121.599 193.76C121.679 193.68 121.679 193.6 121.679 193.52L122.719 190.16L122.079 190.88L140.079 188.16L142.719 187.76L140.399 185.84C142.079 191.36 142.719 197.68 139.839 202.96C137.119 207.92 131.839 210.48 126.479 211.44C112.399 213.92 99.1186 206.64 88.0786 198.56C85.1186 196.4 82.2386 194.08 79.5186 191.6C78.9586 191.12 77.9986 190.64 77.4386 191.36C76.8786 192.08 77.4386 193.36 77.9986 193.92Z" fill="#000005"/>
<path d="M51.7598 194.72C51.7598 194.72 52.5598 207.68 62.6398 214.96C72.7198 222.24 100.64 207.76 100.64 207.76L78.6398 192.8L71.3598 195.12L51.7598 194.72Z" fill="white"/>
<path d="M49.9204 194.32C50.5604 200.88 53.1204 207.12 57.2804 212.16C59.2004 214.32 61.6004 216.56 64.2404 217.6C68.8804 219.36 74.1604 218.8 78.9604 217.76C84.0004 216.64 88.8804 214.96 93.6004 212.96C96.4004 211.84 99.1204 210.56 101.84 209.2C102.96 208.64 102.16 207.04 101.44 206.56L81.8404 193.2C81.0404 192.64 80.2404 192.08 79.4404 191.6C78.3204 190.88 77.5204 191.2 76.4004 191.52L72.8804 192.64L71.3604 193.12C71.0404 193.2 70.7204 193.28 70.4004 193.44C70.3204 193.52 71.0404 193.44 70.6404 193.36C70.4004 193.36 70.1604 193.36 70.0004 193.36L64.1604 193.28L51.2004 193.04C50.5604 193.04 49.9204 193.6 49.9204 194.32C49.9204 194.48 49.9204 194.64 50.0004 194.8C50.3204 195.76 51.2004 196.48 52.2404 196.48L63.4404 196.64L70.1604 196.72C71.2004 196.8 72.2404 196.72 73.2004 196.4L79.5204 194.32L77.6804 193.92L96.8804 207.04L99.6004 208.88L99.2004 206.24C97.2804 207.2 95.2804 208.16 93.4404 208.88C89.1204 210.8 84.6404 212.4 80.0804 213.68C77.7604 214.32 75.4404 214.8 73.0404 215.12C70.8804 215.36 68.7204 215.36 66.6404 215.04C66.1604 214.96 65.6804 214.8 65.2004 214.64C64.8804 214.56 65.3604 214.72 64.8804 214.56L64.2404 214.24C64.0004 214.16 63.8404 214 63.6004 213.92C64.0004 214.16 63.5204 213.84 63.3604 213.76C62.7204 213.28 62.0804 212.8 61.5204 212.24C59.3604 210.24 57.6804 207.84 56.4004 205.28C55.2804 203.04 54.4804 200.64 54.0004 198.16C53.9204 197.68 53.8404 197.2 53.7604 196.72C53.8404 197.12 53.7604 196.64 53.7604 196.48C53.7604 196.32 53.6804 196.16 53.6804 196C53.6804 195.68 53.6004 195.44 53.6004 195.12C53.5204 194.08 52.7204 193.28 51.7604 193.04C50.8804 192.96 49.8404 193.36 49.9204 194.32Z" fill="#000005"/>
<path d="M80.3185 133.28C80.3185 133.28 76.3185 114.24 92.5585 109.44C108.798 104.64 127.198 119.2 125.598 139.52C123.999 159.84 99.1185 159.04 99.1185 159.04L80.3185 133.28Z" fill="white"/>
<path d="M82.2399 132.48C81.1999 127.6 81.7599 122.48 83.6799 117.84C84.4799 116.08 85.5999 114.48 86.9599 113.12C88.3199 111.76 90.0799 110.72 91.9199 110.16C96.4799 108.88 101.28 109.12 105.6 110.88C115.28 114.48 122.16 123.6 123.6 133.68C124.24 138.56 123.92 143.84 121.52 148.24C120.64 149.92 119.44 151.36 118.08 152.64C116.88 153.68 115.6 154.64 114.16 155.36L113.6 155.6L113.28 155.76C113.36 155.68 113.68 155.6 113.28 155.76L112.08 156.24C111.84 156.32 112.16 156.24 112.16 156.16L111.84 156.24L111.28 156.4L110.72 156.56C110.56 156.64 110.48 156.64 110.32 156.72C109.52 156.96 108.8 157.12 108 157.28L107.76 157.36L107.2 157.6L106.08 157.76C105.44 157.84 104.88 157.92 104.24 158L103.36 158.08H103.2H102.8C102.16 158.16 101.44 158.08 100.8 158.16C100.72 158.16 100.64 158.16 100.56 158.16L100.88 158.32L84.4799 135.68L82.2399 132.48C81.6799 131.68 78.2399 133.6 78.4799 134L93.9199 155.28L96.7999 159.28C97.0399 159.6 97.1199 159.84 97.5199 159.92C97.6799 159.92 97.9199 159.92 98.0799 159.92C101.68 159.84 105.28 159.36 108.72 158.32C114.24 156.72 119.84 154.08 123.36 149.44C127.76 143.76 128.24 135.92 126.56 129.12C124.8 121.92 120.24 115.6 114 111.6C107.92 107.68 100.4 106.56 93.4399 108.48C89.6799 109.44 86.1599 111.36 83.3599 114C81.3599 116 79.8399 118.48 79.0399 121.28C77.8399 125.2 77.5999 129.28 78.2399 133.28C78.2399 133.52 78.3199 133.76 78.3999 134C78.6399 134.48 82.3999 133.36 82.2399 132.48Z" fill="#000005"/>
<path d="M78.6386 149.76C73.9186 142 82.4786 117.68 82.4786 117.68C87.4386 111.84 108.079 118.72 108.079 118.72C104.239 124.72 103.759 135.44 103.759 135.44C107.039 130 113.439 133.44 112.319 138.96C111.199 144.48 104.319 145.28 104.319 145.28C104.319 145.28 104.559 157.52 103.759 159.68C102.959 161.84 91.9986 163.68 87.2786 156.56C87.3586 156.56 82.7986 156.56 78.6386 149.76Z" fill="white"/>
<path d="M79.839 149.359C79.599 148.879 79.839 149.439 79.759 149.199C79.679 148.959 79.599 148.799 79.519 148.559C79.359 148.239 79.279 147.839 79.199 147.519C78.959 146.559 78.879 145.599 78.879 144.639C78.799 142.159 78.959 139.759 79.359 137.359C80.079 132.719 81.199 128.079 82.559 123.599C82.959 122.239 83.359 120.879 83.839 119.599C83.919 119.359 83.999 119.119 84.079 118.959C83.919 119.279 84.079 119.039 84.159 118.879L84.559 118.479C84.879 118.239 85.199 118.079 85.519 117.919C87.439 117.199 89.439 116.879 91.439 117.039C93.839 117.119 96.159 117.359 98.479 117.839C101.839 118.479 105.119 119.279 108.399 120.319L106.559 117.519C104.559 120.799 103.599 124.639 102.879 128.319C102.479 130.399 102.239 132.479 102.159 134.559C102.079 135.759 104.319 138.239 105.279 136.639C106.239 135.039 108.319 133.759 109.919 134.719C109.599 134.559 110.399 135.119 110.079 134.799C110.159 134.879 110.479 135.279 110.239 134.959C110.479 135.279 110.639 135.679 110.719 136.079C110.879 137.119 110.799 138.159 110.319 139.119C109.519 140.879 107.999 142.159 106.239 142.799C105.599 143.039 104.959 143.279 104.239 143.439C104.079 143.439 102.799 143.679 103.599 143.599C103.119 143.679 102.719 143.839 102.719 144.399C102.799 146.639 102.799 148.959 102.719 151.199C102.719 152.879 102.639 154.479 102.559 156.159C102.479 156.719 102.479 157.279 102.399 157.839C102.399 157.919 102.399 158.079 102.319 158.159C102.399 157.839 102.319 158.159 102.319 158.239C102.319 158.319 102.239 158.399 102.239 158.479C102.159 158.719 102.399 158.319 102.239 158.479C101.519 159.119 100.639 159.519 99.679 159.599C98.159 159.919 96.639 159.919 95.199 159.759C93.519 159.599 91.919 159.039 90.559 158.079C89.999 157.679 89.439 157.199 89.039 156.639C88.399 155.919 87.839 154.879 86.639 154.719H86.319C86.239 154.719 85.999 154.639 86.399 154.719L85.999 154.639C85.759 154.559 85.519 154.479 85.279 154.399C85.279 154.399 84.799 154.239 85.119 154.319C84.879 154.239 84.719 154.159 84.479 153.999C82.559 153.039 80.959 151.359 79.839 149.359C79.439 148.719 78.399 147.839 77.599 148.159C76.799 148.479 77.119 149.599 77.439 150.159C79.119 153.039 81.519 155.439 84.399 157.119C85.519 157.759 86.799 158.159 88.079 158.239L86.159 156.959C89.759 162.079 96.159 164.479 102.319 162.879C103.199 162.719 104.079 162.319 104.799 161.759C105.359 161.199 105.679 160.479 105.679 159.679C105.999 157.199 106.159 154.639 106.079 152.159C106.079 150.159 106.079 148.239 106.079 146.239L105.199 147.039C108.079 146.719 111.039 145.359 112.719 143.039C115.599 139.039 113.839 132.639 108.879 131.199C106.159 130.399 103.839 131.919 102.399 134.159L105.519 136.239C105.759 130.719 106.799 124.559 109.759 119.839C110.399 118.799 108.719 117.279 107.919 117.039C105.039 116.079 102.079 115.359 99.119 114.719C94.479 113.759 89.039 112.799 84.479 114.239C83.199 114.639 81.599 115.359 81.039 116.639C80.559 117.679 80.319 118.879 79.919 119.999C78.479 124.639 77.279 129.439 76.479 134.239C75.679 139.279 74.799 145.519 77.599 150.159C77.999 150.799 79.039 151.759 79.839 151.439C80.639 151.119 80.159 149.919 79.839 149.359Z" fill="#000005"/>
<path d="M88.4796 125.919C89.0396 126.159 89.2796 126.879 89.0396 127.439C89.0396 127.439 89.0396 127.519 88.9596 127.519C88.3196 128.559 87.0396 127.759 87.2796 126.719C87.3596 126.239 87.8396 125.839 88.3196 125.919C88.3996 125.839 88.4796 125.919 88.4796 125.919Z" fill="#000005"/>
<path d="M96.6397 127.68C97.1997 127.92 97.4397 128.64 97.1997 129.2C97.1997 129.2 97.1997 129.28 97.1197 129.28C96.4797 130.32 95.1997 129.52 95.4397 128.48C95.5197 128 95.9997 127.6 96.4797 127.68C96.4797 127.68 96.5597 127.68 96.6397 127.68Z" fill="#000005"/>
<path d="M94.559 143.999H96.159C96.399 143.999 96.719 143.999 96.959 143.919C97.199 143.839 97.439 143.759 97.679 143.599C97.919 143.439 98.079 143.279 98.239 143.039C98.399 142.879 98.479 142.639 98.559 142.399V141.919C98.559 141.599 98.399 141.279 98.239 141.039L97.919 140.719C97.679 140.559 97.359 140.399 97.039 140.399H95.439C95.199 140.399 94.879 140.399 94.639 140.479C94.399 140.559 94.159 140.639 93.919 140.799C93.679 140.959 93.519 141.119 93.359 141.359C93.199 141.519 93.119 141.759 93.039 141.999L92.959 142.479C92.959 142.799 93.119 143.119 93.279 143.359L93.599 143.679C93.919 143.839 94.159 143.999 94.559 143.999Z" fill="#000005"/>
<path d="M93.1185 125.68C93.1185 125.68 105.439 124.56 105.519 126C105.599 127.44 106.879 134.4 99.2785 134.24C91.6785 134.08 93.1185 125.68 93.1185 125.68Z" fill="#000005"/>
<path d="M89.9186 125.359C89.9186 125.359 80.1586 122.239 79.7586 123.679C79.3586 125.119 76.9586 131.679 83.1986 132.799C89.4386 133.919 89.9186 125.359 89.9186 125.359Z" fill="#000005"/>
<path d="M87.3587 140.24C87.3587 140.24 73.7587 139.76 72.6387 132.4C71.5187 125.04 81.5987 123.52 87.9987 130.64" fill="white"/>
<path d="M86.879 138.56C86.559 138.56 86.239 138.56 85.919 138.48C85.599 138.4 85.199 138.4 84.799 138.4L84.159 138.32C83.999 138.32 83.279 138.16 83.759 138.24C82.639 138.08 81.519 137.76 80.399 137.44L79.599 137.2L79.199 137.04L78.879 136.96L78.6391 136.88L78.2391 136.72C77.9191 136.56 77.679 136.4 77.359 136.32L76.959 136.08C76.639 135.84 76.799 136 76.959 136.08C76.719 135.92 76.4791 135.76 76.2391 135.52L75.9191 135.28C75.5991 135.04 75.9991 135.36 75.9191 135.28C75.7591 135.04 75.519 134.8 75.359 134.64C75.279 134.56 75.279 134.56 75.199 134.48C75.039 134.24 75.359 134.8 75.279 134.56C75.199 134.32 75.1191 134.32 75.0391 134.24L74.879 133.84C74.799 133.68 74.879 133.92 74.879 133.92C74.879 133.92 74.799 133.76 74.799 133.68C74.719 133.44 74.639 133.12 74.559 132.88C74.639 133.12 74.559 132.72 74.559 132.64C74.559 132.48 74.559 132.24 74.559 132.08C74.559 131.92 74.559 131.76 74.559 131.6V131.36C74.639 131.04 74.719 130.72 74.799 130.48C74.879 130.32 74.879 130.24 74.959 130.08C74.799 130.32 74.9591 130 75.0391 129.92C75.1991 129.68 75.439 129.44 75.599 129.2L75.759 129.04C75.839 128.96 75.999 128.88 76.079 128.8C76.319 128.64 76.639 128.48 76.879 128.32C76.959 128.32 77.2791 128.16 77.0391 128.24L77.4391 128.08C77.7591 128 78.079 127.92 78.399 127.92C78.479 127.92 78.9591 127.84 78.719 127.92C78.8791 127.92 79.119 127.92 79.279 127.92C79.679 127.92 80.079 127.92 80.479 128L80.7191 128.08C80.559 128.08 80.719 128.08 80.799 128.08L81.4391 128.24C81.7591 128.32 82.399 128.56 82.559 128.56C84.159 129.2 85.679 130.24 86.879 131.6C87.439 132.24 88.5591 132.88 89.4391 132.32C90.319 131.76 89.9991 130.64 89.4391 130.08C86.6391 127.04 82.799 124.72 78.559 124.56C75.519 124.48 72.159 125.76 71.199 128.96C70.239 132.16 71.7591 135.6 74.2391 137.68C76.6391 139.52 79.439 140.72 82.399 141.28C84.239 141.68 86.079 142 87.999 142.08C88.639 142.16 89.279 141.68 89.359 140.96C89.359 140.8 89.359 140.64 89.279 140.48C88.879 139.36 87.999 138.64 86.879 138.56Z" fill="#000005"/>
<path d="M89.4392 128.319C91.1992 128.399 92.9592 128.639 94.7192 128.959C95.1192 129.039 95.5992 128.879 95.8392 128.479C96.0792 128.159 96.2392 127.679 96.1592 127.199C96.0792 126.159 95.2792 125.359 94.3192 125.119C92.5592 124.799 90.7992 124.559 89.0392 124.479C88.6392 124.399 88.1592 124.639 87.9192 124.959C87.5992 125.279 87.5192 125.759 87.5992 126.239C87.6792 126.799 87.9192 127.279 88.2392 127.679C88.4792 127.999 88.9592 128.239 89.4392 128.319Z" fill="#000005"/>
<path d="M346.239 347.28L347.039 350.4C347.039 350.4 355.039 356.4 356.879 357.12C358.719 357.84 369.839 362.32 365.839 363.44C361.839 364.56 326.079 365.76 325.199 362.88C324.319 360 328.799 348.48 328.799 348.48L346.239 347.28Z" fill="white"/>
<path d="M344.319 347.199L344.799 348.959C344.879 349.679 345.119 350.319 345.599 350.879C346.319 351.519 347.119 352.079 347.919 352.559C350.559 354.479 353.279 356.799 356.319 358.079C357.599 358.639 358.479 358.959 359.519 359.439C360.319 359.839 361.119 360.159 361.919 360.559C362.239 360.719 362.559 360.879 362.879 361.119C363.039 361.199 363.279 361.359 363.439 361.439C363.599 361.519 363.919 361.759 363.679 361.599C363.919 361.759 364.159 361.999 364.479 362.159C364.559 362.159 364.799 362.479 364.639 362.319C364.479 362.159 364.719 362.479 364.799 362.479C364.879 362.479 364.879 362.479 364.799 362.479C364.639 362.479 364.399 362.559 364.239 362.639L363.839 362.719L363.119 362.799C356.959 363.439 350.719 363.759 344.479 363.679C341.279 363.679 337.519 363.679 334.079 363.519C332.639 363.439 331.279 363.359 329.839 363.199L328.959 363.119H328.799C329.119 363.119 328.639 363.119 328.479 363.039C327.999 362.959 327.599 362.879 327.119 362.799C326.799 362.719 327.599 362.959 327.039 362.799C326.959 362.799 326.879 362.719 326.799 362.719C326.559 362.719 327.279 362.959 326.959 362.799C326.559 362.559 327.199 362.959 326.959 362.799C327.039 362.879 327.119 362.959 327.199 363.039C327.199 362.559 327.119 362.079 327.199 361.519C327.279 360.719 327.439 359.919 327.599 359.119C328.399 355.839 329.359 352.639 330.559 349.519L330.799 348.879L329.679 349.519L344.879 348.479L347.039 348.319C347.679 348.239 348.479 347.839 347.999 347.119C347.519 346.399 346.159 346.159 345.359 346.239L330.159 347.279L327.999 347.439C327.519 347.439 327.039 347.679 326.879 348.079C325.919 350.559 325.119 353.039 324.399 355.599C323.839 357.279 323.519 359.039 323.279 360.799C323.199 361.839 323.119 362.959 323.999 363.679C325.679 365.039 328.399 365.199 330.479 365.359C333.679 365.679 336.879 365.759 340.079 365.759C347.119 365.839 354.239 365.679 361.279 365.199C363.279 365.199 365.199 364.959 367.119 364.479C368.319 364.079 369.119 363.279 368.319 362.079C367.519 360.879 365.919 360.159 364.639 359.519C363.039 358.719 361.439 357.919 359.759 357.279L357.999 356.559L357.759 356.479C357.439 356.319 358.159 356.719 357.839 356.559C357.519 356.399 357.359 356.319 357.199 356.159C355.919 355.439 354.559 354.399 353.119 353.439C351.679 352.479 350.479 351.519 349.119 350.559L348.479 350.079L348.879 350.639L348.079 347.599C347.839 346.159 343.919 345.759 344.319 347.199Z" fill="#000005"/>
<path d="M264.159 350.08C264.159 350.08 256.079 365.92 258.559 366.24C261.039 366.56 286.319 367.2 286.079 364.4C285.839 361.6 281.119 349.2 281.119 349.2L264.159 350.08Z" fill="white"/>
<path d="M262.158 350.48C260.238 354.08 258.558 357.84 257.118 361.68C256.718 362.72 256.398 363.76 256.158 364.8C256.078 365.28 255.838 366.08 256.238 366.48C256.638 366.88 257.198 366.72 257.678 366.8C258.478 366.88 259.358 366.88 260.158 366.88C265.598 367.04 271.118 367.04 276.638 366.72C279.278 366.64 281.998 366.24 284.558 365.68C285.598 365.44 288.078 365.04 287.838 363.52C287.358 360.56 286.158 357.68 285.118 354.8C284.398 352.72 283.678 350.72 282.878 348.64C282.798 348.48 282.318 348.56 282.238 348.56L265.358 349.52C264.398 349.6 263.438 349.76 262.558 350.08C261.998 350.32 261.918 350.48 262.638 350.48L279.518 349.52L278.878 349.44C280.478 353.6 281.998 357.84 283.278 362.16C283.598 362.96 283.838 363.84 283.838 364.72C283.838 364.88 283.758 364.96 283.678 365.04C283.598 365.12 283.518 365.12 283.598 365.12C283.518 365.12 283.518 365.2 283.438 365.2C283.198 365.36 283.678 365.04 283.438 365.2C283.198 365.36 283.678 365.12 283.518 365.2C283.358 365.28 283.118 365.28 283.598 365.2C283.038 365.28 283.998 365.12 283.438 365.2C283.918 365.12 283.438 365.2 283.278 365.2C282.878 365.28 283.198 365.2 283.278 365.2L282.878 365.28C281.758 365.44 280.878 365.52 279.678 365.6C274.478 365.92 269.278 365.92 264.078 365.76C263.198 365.76 262.318 365.76 261.518 365.68L260.638 365.6H260.318C260.078 365.6 260.318 365.68 260.238 365.6C259.358 364.8 260.398 362.48 260.638 361.6C262.158 357.44 263.918 353.44 265.998 349.52C265.358 349.52 264.638 349.52 263.998 349.68C263.598 349.92 262.398 350 262.158 350.48Z" fill="#000005"/>
<path d="M279.2 226.24C279.2 226.24 270.64 272.72 259.76 352.96C259.76 352.96 288.48 355.6 289.12 352.08C289.76 348.56 297.84 287.6 304.48 259.92C304.48 259.92 324.96 330.16 324.96 351.2C324.96 351.2 350.8 352.4 352 349.44C353.2 346.48 336.8 251.2 326.32 227.2L279.2 226.24Z" fill="#000005"/>
<path d="M277.6 225.28C277.28 227.04 276.96 228.8 276.64 230.48C275.76 235.6 274.88 240.64 274 245.76C272.64 254 271.28 262.24 270 270.48C268.24 281.68 266.56 292.88 264.88 304.08C262.8 318.08 260.8 332.08 258.88 346.08C258.64 348.08 258.32 350 258.08 352C258.08 353.28 258.96 354.4 260.32 354.64C266.72 355.2 273.2 355.6 279.6 355.6C281.6 355.6 283.6 355.52 285.6 355.28C286.88 355.2 288.16 354.96 289.36 354.48C290.96 353.68 290.88 351.92 291.04 350.4C292.08 343.04 293.2 335.76 294.24 328.4C295.84 317.28 297.6 306.24 299.44 295.2C301.2 284.72 303.04 274.24 305.36 263.92C305.6 262.88 305.84 261.84 306.08 260.8L303.04 259.84C303.76 262.24 304.4 264.56 305.04 266.96C306.72 272.88 308.32 278.8 309.92 284.64C311.92 292.24 313.92 299.84 315.76 307.52C317.6 315.28 319.36 323.04 320.88 330.8C322.16 336.72 322.96 342.8 323.36 348.88C323.36 349.12 323.36 349.44 323.36 349.68C323.36 349.84 323.36 350 323.36 350.08V350.16C323.36 351.36 324.32 352.72 325.6 352.8C329.52 352.96 333.36 353.04 337.28 353.04C340.24 353.04 343.12 352.96 346.08 352.72C348.08 352.56 350.4 352.48 352.32 351.6C353.2 351.28 353.76 350.48 353.68 349.52C353.68 348.48 353.6 347.44 353.52 346.48C353.12 342.96 352.64 339.44 352.08 335.92C350.32 324.24 348.24 312.64 346.08 301.12C343.52 287.6 340.8 274.08 337.68 260.72C335.28 250.24 332.8 239.6 328.96 229.6C328.64 228.8 328.32 228 328 227.2C327.68 226.4 326.88 225.44 325.92 225.36L310 225.04L284.64 224.56L278.8 224.48C276.72 224.4 278.48 227.92 280 227.92L295.92 228.24L321.28 228.72L327.12 228.8L324.96 227.04C326.56 230.88 327.92 234.88 329.12 238.96C330.72 244.32 332.16 249.84 333.44 255.12C336.64 268.24 339.36 281.52 341.92 294.72C344.24 306.72 346.4 318.8 348.32 330.8C348.96 334.8 349.6 338.88 350.08 342.88C350.24 344.16 350.4 345.44 350.48 346.72C350.48 347.12 350.56 347.52 350.56 347.92C350.56 348.32 350.56 347.92 350.56 347.76C350.56 347.84 350.56 347.92 350.56 348C350.56 348.08 350.56 348.24 350.56 348.32C350.64 348.64 350.56 347.84 350.56 348.24C350.56 347.92 350.8 348.08 350.56 348.24C350.48 348.24 350.48 348.32 350.4 348.32C350.24 348.4 350.72 348.24 350.32 348.32C349.52 348.64 348.72 348.8 347.92 348.96C345.36 349.36 342.8 349.52 340.16 349.52C335.2 349.68 330.32 349.6 325.36 349.36H324.48L326.72 352C326.72 346.16 325.76 340.32 324.72 334.64C323.36 326.88 321.6 319.28 319.84 311.6C317.92 303.6 315.92 295.68 313.84 287.76C312.16 281.44 310.48 275.12 308.72 268.8C307.92 265.84 307.2 262.88 306.24 260C306.24 260 306.24 259.92 306.24 259.84C305.92 258.8 303.6 256.96 303.2 258.88C300.8 268.72 299.04 278.64 297.36 288.64C295.44 299.76 293.68 310.88 292.08 322C290.88 330.08 289.68 338.16 288.56 346.32C288.32 347.92 288.16 349.52 287.84 351.12C287.84 351.36 287.92 350.72 287.84 351.04C287.84 351.12 288.08 350.8 287.84 350.96C287.6 351.12 287.28 351.28 287.68 351.12C287.2 351.36 286.64 351.52 286.08 351.6C284.56 351.92 282.96 352.08 281.36 352.08C274.16 352.24 267.04 352 259.84 351.28H259.44L261.68 353.92C263.6 339.52 265.68 325.12 267.76 310.8C269.44 299.2 271.2 287.68 273.04 276.08C274.4 267.44 275.76 258.88 277.2 250.24C278.08 244.72 279.04 239.28 280 233.76C280.4 231.6 280.96 229.44 281.2 227.28V227.2C281.12 225.6 278 223.28 277.6 225.28Z" fill="#000005"/>
<path d="M258.398 188.32C258.398 188.32 262.238 161.04 303.118 154.72C343.998 148.4 348.558 180.96 348.238 197.04L328.638 197.36C328.638 197.36 330.958 226.88 328.798 227.92C326.638 228.96 277.518 227.12 277.518 227.12L278.958 191.44L258.398 188.32Z" fill="white"/>
<path d="M259.599 189.679C259.759 188.719 259.999 187.759 260.319 186.799C260.399 186.559 260.479 186.399 260.559 186.159C260.719 185.759 260.639 185.999 260.799 185.519C260.959 185.039 261.199 184.399 261.519 183.839C262.079 182.479 262.799 181.199 263.519 179.919C268.159 172.079 275.519 166.319 283.679 162.479C290.079 159.599 296.879 157.599 303.839 156.559C310.239 155.599 316.799 155.359 323.119 156.719C327.759 157.679 332.159 159.759 335.759 162.799C336.559 163.439 337.279 164.159 337.919 164.879C338.239 165.199 338.559 165.599 338.879 165.999C338.959 166.079 339.199 166.319 338.959 166.079L339.199 166.319C339.359 166.559 339.519 166.799 339.679 167.039C339.999 167.439 340.319 167.839 340.559 168.319L340.959 168.879L341.119 169.119L341.279 169.359C341.839 170.239 342.319 171.199 342.799 172.159C342.879 172.399 343.039 172.639 343.119 172.879C342.959 172.479 343.199 173.119 343.279 173.279C343.519 173.759 343.679 174.239 343.919 174.799C344.319 175.759 344.639 176.719 344.879 177.679L344.959 178.079C345.039 178.319 345.119 178.559 345.119 178.799C345.279 179.279 345.359 179.839 345.519 180.319C345.759 181.279 345.919 182.319 346.159 183.279C346.479 185.039 346.639 186.559 346.879 188.559C347.039 190.319 347.119 192.079 347.119 193.839C347.119 194.639 347.119 195.359 347.119 196.159L347.679 195.279L330.559 195.599L328.079 195.679C327.599 195.679 327.519 196.159 327.519 196.559C327.919 201.759 328.239 206.959 328.399 212.159C328.559 215.679 328.639 219.199 328.479 222.719C328.479 223.759 328.319 224.799 328.159 225.759C328.159 225.919 327.919 226.319 328.079 225.999C328.079 226.159 327.999 226.239 327.919 226.319C327.679 226.319 328.079 226.159 327.919 226.319C326.239 226.559 324.559 226.639 322.799 226.559C319.679 226.559 316.559 226.559 313.439 226.479C305.839 226.319 298.319 226.079 290.719 225.839C287.759 225.759 284.719 225.679 281.759 225.519C280.239 225.439 278.639 225.279 277.119 225.359H276.879L278.799 228.159L279.279 216.159L280.079 196.959L280.239 192.559C280.239 191.599 279.359 189.919 278.319 189.759L260.319 187.039L257.679 186.639C256.799 186.479 257.199 188.079 257.359 188.399C257.599 189.119 258.239 190.159 259.039 190.239L277.039 192.959L279.679 193.359L277.759 190.559L277.279 202.639L276.479 221.839L276.319 226.239C276.319 227.119 277.199 228.959 278.239 229.039L289.839 229.439C297.439 229.679 305.039 229.919 312.719 230.079C316.079 230.159 319.439 230.159 322.719 230.159C324.719 230.239 326.719 230.159 328.719 229.999C329.199 229.999 329.759 229.839 330.079 229.439C330.479 228.639 330.719 227.839 330.719 226.959C330.959 223.679 331.039 220.479 330.879 217.199C330.799 213.439 330.559 209.599 330.399 205.839C330.239 203.519 330.239 201.039 329.919 198.719C329.919 198.639 329.919 198.479 329.919 198.399L329.359 199.279L346.479 198.959H348.959C349.439 198.959 349.519 198.479 349.519 198.079C349.679 190.159 348.719 182.159 345.839 174.799C342.399 165.919 336.079 158.319 327.039 154.799C321.359 152.719 315.359 151.919 309.359 152.319C301.839 152.719 294.399 154.239 287.359 156.799C277.759 160.239 268.799 165.999 262.879 174.479C261.119 176.959 259.679 179.679 258.639 182.479C257.999 183.919 257.599 185.439 257.279 186.959C257.279 187.039 257.279 187.119 257.279 187.119C257.199 188.079 257.599 189.039 258.239 189.679C258.479 189.999 259.439 190.559 259.599 189.679Z" fill="#000005"/>
<path d="M321.359 195.119C321.359 195.119 299.679 215.519 280.559 215.999C261.439 216.479 253.199 205.359 258.399 188.319L279.039 191.439L280.079 194.799C286.959 192.159 293.999 190.159 301.279 188.879C308.559 187.439 316.079 189.759 321.359 195.119Z" fill="white"/>
<path d="M320.159 193.439C317.919 195.519 315.519 197.519 313.039 199.359C307.839 203.439 302.159 206.959 296.159 209.839C289.679 212.879 282.719 214.719 275.439 214.159C272.319 213.999 269.359 213.199 266.479 211.999C265.279 211.439 264.159 210.799 263.199 209.919C262.399 209.199 261.599 208.399 260.959 207.519C260.239 206.559 259.679 205.439 259.279 204.319C258.799 202.959 258.479 201.519 258.399 200.079C258.159 196.479 258.639 192.799 259.839 189.359L258.799 190.079L276.799 192.799L279.439 193.199L277.439 191.279L278.479 194.639C278.719 195.359 279.839 196.959 280.799 196.559C285.679 194.559 290.719 193.039 295.919 191.919C300.239 190.879 304.719 189.839 309.199 190.479C312.159 190.879 314.959 191.999 317.439 193.599C317.919 193.919 318.399 194.319 318.879 194.639C318.959 194.719 319.359 195.039 318.959 194.719L319.279 194.959C319.439 195.119 319.599 195.279 319.759 195.439C320.079 195.679 320.399 195.999 320.639 196.319C321.119 196.879 322.239 197.279 322.719 196.559C323.199 195.839 322.479 194.639 321.999 194.079C319.039 190.719 314.479 188.559 310.239 187.519C305.759 186.399 301.439 187.039 296.959 187.999C292.799 188.879 288.719 189.999 284.639 191.279C282.799 191.919 280.959 192.479 279.119 193.279L281.439 195.199L280.399 191.839C280.159 190.879 279.359 190.159 278.399 189.919L260.399 187.199L257.759 186.799C257.279 186.719 256.799 187.039 256.719 187.519C254.879 193.759 254.319 200.639 257.279 206.639C260.159 212.399 265.679 215.839 271.759 217.199C286.639 220.559 301.039 213.119 312.799 204.639C316.159 202.239 319.359 199.679 322.399 196.879C323.119 196.239 322.719 195.199 322.239 194.559C321.999 193.839 320.879 192.879 320.159 193.439Z" fill="#000005"/>
<path d="M348.239 197.04C348.239 197.04 347.439 210 337.439 217.28C327.439 224.56 299.439 210.08 299.439 210.08L321.359 195.12L328.639 197.44L348.239 197.04Z" fill="white"/>
<path d="M346.4 196.64C346.4 196.88 346.32 197.12 346.32 197.36C346.32 197.6 346.4 197.04 346.32 197.44C346.32 197.6 346.32 197.76 346.24 197.84C346.16 198.24 346.16 198.64 346.08 198.96C345.68 201.12 345.04 203.2 344.16 205.28C343.04 207.92 341.6 210.4 339.68 212.56C338.64 213.76 337.44 214.8 336.16 215.76C335.44 216.32 334.64 216.72 333.84 216.96C329.76 218.32 325.12 217.52 320.88 216.56C316.24 215.44 311.68 213.92 307.2 212C304.72 210.96 302.24 209.84 299.76 208.64L300.64 211.6L320 198.4L322.72 196.56L321.44 196.72L327.04 198.48C327.76 198.8 328.48 198.96 329.2 199.04C329.6 199.04 329.92 199.04 330.32 199.04L344.4 198.8L348.8 198.72C349.52 198.72 350.08 198.16 350.16 197.44C350.16 197.28 350.16 197.12 350.08 196.96C349.76 196 348.88 195.28 347.84 195.28L336.72 195.44L330.08 195.52C329.52 195.52 328.96 195.52 328.4 195.52C328 195.6 328.64 195.6 328.64 195.52C328.4 195.36 328.08 195.28 327.76 195.2C325.68 194.56 323.68 193.76 321.52 193.2C320.32 192.88 319.6 193.68 318.72 194.32L307.36 202.08L298.16 208.32C296.88 209.2 298.08 210.8 299.04 211.28C305.68 214.72 312.64 217.44 319.84 219.28C324.64 220.48 329.92 221.44 334.8 220.24C337.2 219.6 339.44 218.32 341.2 216.48C343.52 214.24 345.44 211.68 346.88 208.8C348.72 205.2 349.84 201.28 350.16 197.28C350.16 195.6 346.56 194.32 346.4 196.64Z" fill="#000005"/>
<path d="M319.599 135.6C319.599 135.6 323.599 116.56 307.359 111.76C291.119 106.96 272.799 121.6 274.399 141.84C275.999 162.08 300.879 161.36 300.879 161.36L319.599 135.6Z" fill="#000005"/>
<path d="M320.959 136.96C322.879 127.84 319.599 117.28 311.439 112.32C305.359 108.56 297.599 108.4 291.039 110.96C284.159 113.68 278.639 118.96 275.519 125.76C272.399 132.56 271.759 141.04 274.639 148C277.039 153.68 281.839 157.92 287.359 160.32C291.279 161.92 295.439 162.88 299.679 163.04C300.239 163.12 301.359 163.36 301.919 163.04C302.159 162.96 302.319 162.64 302.399 162.48L303.599 160.88L320.319 137.84L320.719 137.28C321.439 136.24 318.719 133.44 318.239 134.16L303.679 154.24L300.399 158.8C300.079 159.12 299.839 159.52 299.599 159.92C299.599 160 299.519 160 299.519 160.08C299.679 159.92 299.839 160 299.599 160C298.639 159.92 297.679 159.92 296.719 159.92C294.879 159.76 293.119 159.52 291.359 159.12C289.199 158.64 287.039 157.92 285.039 156.96C283.999 156.48 282.959 155.84 281.999 155.2C281.039 154.56 280.079 153.76 279.279 152.88C278.879 152.4 279.439 153.04 279.199 152.8L278.879 152.48C278.719 152.24 278.479 152 278.319 151.68C278.479 151.92 278.079 151.28 277.999 151.12C277.839 150.88 277.679 150.56 277.519 150.32C276.879 149.04 276.399 147.76 276.079 146.4C275.279 142.8 275.279 139.04 276.079 135.36C277.439 128.32 281.439 122 287.279 117.76C292.639 113.84 299.599 111.84 306.159 113.2C307.839 113.52 309.519 114.08 311.039 114.8C312.319 115.44 313.439 116.24 314.479 117.2C314.559 117.28 315.119 117.92 314.959 117.68C315.199 117.92 315.359 118.16 315.599 118.48C315.759 118.64 315.839 118.8 315.999 119.04L316.159 119.36C316.159 119.44 316.559 120 316.399 119.76C316.959 120.8 317.439 121.92 317.759 123.04C318.719 126.56 318.879 130.24 318.319 133.84C318.319 134.08 318.239 134.24 318.239 134.48C318.079 135.28 318.799 136.24 319.359 136.72C319.599 136.64 320.799 137.68 320.959 136.96Z" fill="#000005"/>
<path d="M321.359 152.079C326.079 144.319 317.519 119.999 317.519 119.999C312.639 114.159 291.919 121.039 291.919 121.039C295.759 127.039 296.239 137.759 296.239 137.759C292.959 132.319 286.559 135.759 287.679 141.279C288.799 146.799 295.679 147.599 295.679 147.599C295.679 147.599 295.439 159.839 296.239 161.999C297.039 164.159 307.999 165.999 312.719 158.879C312.639 158.879 317.199 158.879 321.359 152.079Z" fill="white"/>
<path d="M322.879 153.28C323.839 151.44 324.319 149.439 324.319 147.359C324.399 144.799 324.239 142.159 323.839 139.599C323.119 134.639 321.919 129.759 320.479 124.959C320.079 123.519 319.599 122.079 319.119 120.639C318.559 119.119 317.359 117.92 315.919 117.28C311.599 115.12 306.079 115.919 301.519 116.719C297.839 117.359 294.319 118.239 290.799 119.439C289.919 119.759 290.319 120.879 290.639 121.439C292.479 124.399 293.279 127.92 293.919 131.28C294.159 132.639 294.319 133.999 294.479 135.439C294.479 135.679 294.479 135.919 294.559 136.159C294.559 135.999 294.559 136.559 294.559 136.159C294.559 136.239 294.559 136.319 294.559 136.399V136.879L297.359 137.359C295.999 135.199 293.679 133.199 290.959 133.28C288.879 133.44 287.039 134.719 286.319 136.639C284.399 141.359 288.079 146.319 292.319 148.159C293.599 148.719 294.879 149.12 296.319 149.28L293.999 146.719C293.839 151.119 293.919 155.52 294.319 159.84C294.319 162.079 295.839 164.079 297.999 164.719C300.399 165.599 303.039 165.839 305.519 165.359C309.039 164.879 312.159 162.959 314.159 159.999L313.359 160.48C314.479 160.4 315.599 160.079 316.559 159.519C319.119 158.079 321.359 155.92 322.879 153.28C323.599 152 320.719 149.28 319.759 150.88C317.919 153.84 315.439 156.399 311.999 157.199C311.599 157.279 312.239 157.119 311.839 157.199C311.359 157.359 310.959 157.68 310.719 158.08C310.399 158.48 309.999 158.88 309.679 159.28C308.319 160.48 306.719 161.36 304.959 161.84C303.439 162.239 301.839 162.399 300.319 162.239C299.759 162.239 299.119 162.159 298.559 161.999C298.239 161.919 297.999 161.839 297.679 161.759C297.599 161.759 297.199 161.519 297.599 161.759C297.439 161.679 297.279 161.599 297.199 161.519C296.719 161.279 297.439 161.68 297.119 161.439C297.519 161.68 297.279 161.519 297.519 161.919C297.839 162.479 297.679 162.24 297.599 162.08C297.839 162.48 297.599 162.079 297.599 161.84C297.599 161.599 297.519 161.279 297.519 161.04C297.359 159.599 297.359 158.079 297.279 156.559C297.199 153.919 297.199 151.279 297.279 148.639C297.199 147.359 296.239 146.32 294.959 146.08H294.719C295.199 146.16 294.639 146.079 294.399 145.999C293.679 145.839 293.039 145.599 292.319 145.359C290.959 144.879 289.839 143.84 289.359 142.48C288.719 140.64 289.359 138.559 290.959 137.439C292.079 136.559 293.759 136.719 294.719 137.919C294.799 138.079 294.879 138.159 294.959 138.319C295.359 138.959 295.999 139.439 296.719 139.599C297.199 139.679 297.839 139.439 297.839 138.799C297.599 132.719 296.399 126.08 293.119 120.88L292.959 122.88C295.599 122 298.319 121.279 301.039 120.719C305.279 119.839 310.319 118.879 314.479 119.919L315.119 120.08L315.519 120.239C315.279 120.159 315.759 120.319 315.519 120.239C315.759 120.319 315.919 120.399 316.079 120.559C316.479 120.719 315.919 120.479 316.319 120.719C316.399 120.799 316.479 120.88 316.559 120.88C316.159 120.56 316.399 120.719 316.479 120.799C316.799 121.359 316.079 119.759 316.079 120.159C316.079 120.239 316.159 120.319 316.159 120.399C316.239 120.799 316.399 121.199 316.559 121.599C316.719 121.999 316.719 122.239 316.879 122.559C316.959 122.719 316.959 122.879 317.039 123.039V123.199C316.959 122.959 317.119 123.359 317.119 123.439C318.479 127.839 319.599 132.319 320.399 136.879C320.879 139.52 321.119 142.239 321.119 144.959C321.199 147.119 320.719 149.2 319.759 151.04C319.039 152.16 321.919 154.88 322.879 153.28Z" fill="#000005"/>
<path d="M311.52 128.24C310.96 128.48 310.72 129.2 310.96 129.76C310.96 129.76 310.96 129.84 311.04 129.84C311.68 130.88 312.96 130.08 312.72 129.04C312.64 128.56 312.16 128.16 311.68 128.24C311.6 128.24 311.52 128.24 311.52 128.24Z" fill="#000005"/>
<path d="M303.36 130C302.8 130.24 302.56 130.959 302.8 131.519C302.8 131.519 302.8 131.6 302.88 131.6C303.52 132.64 304.8 131.84 304.56 130.8C304.48 130.32 304 129.92 303.52 130C303.52 130 303.44 130 303.36 130Z" fill="#000005"/>
<path d="M305.44 142.8H303.84C303.6 142.8 303.28 142.8 303.04 142.88C302.8 142.96 302.56 143.04 302.32 143.2C302.08 143.36 301.92 143.52 301.84 143.76C301.68 143.92 301.6 144.16 301.52 144.4V144.88C301.52 145.2 301.68 145.52 301.84 145.76L302.16 146.08C302.4 146.24 302.72 146.4 303.04 146.4H304.64C304.88 146.4 305.2 146.4 305.44 146.32C305.68 146.24 305.92 146.16 306.16 146C306.4 145.84 306.56 145.68 306.64 145.44C306.8 145.28 306.88 145.04 306.96 144.8V144.32C306.96 144 306.8 143.68 306.64 143.44L306.32 143.12C306.08 142.96 305.76 142.8 305.44 142.8Z" fill="#000005"/>
<path d="M306.878 128C306.878 128 294.558 126.88 294.478 128.32C294.398 129.76 293.118 136.72 300.718 136.56C308.318 136.4 306.878 128 306.878 128Z" fill="#000005"/>
<path d="M310.08 127.68C310.08 127.68 319.84 124.56 320.24 126C320.64 127.44 323.04 134 316.8 135.12C310.56 136.24 310.08 127.68 310.08 127.68Z" fill="#000005"/>
<path d="M312.64 142.56C312.64 142.56 326.24 142.08 327.36 134.72C328.48 127.36 318.4 125.84 312 132.96" fill="white"/>
<path d="M313.12 144.239C317.28 144.079 322.08 143.199 325.52 140.799C328.16 139.199 329.52 136.159 329.12 133.119C328.56 129.519 325.36 127.279 321.92 126.799C317.52 126.319 313.28 128.639 310.4 131.759C309.12 133.199 312.16 135.679 313.52 134.239C314.72 132.959 316.08 131.839 317.68 131.119C318.32 130.799 319.04 130.559 319.76 130.399C320.16 130.319 320.48 130.239 320.88 130.159L321.36 130.079C321.12 130.079 321.6 130.079 321.68 130.079C322 130.079 322.32 130.079 322.64 130.079L322.96 130.159L323.36 130.239L323.76 130.319C323.92 130.399 324.16 130.479 323.84 130.319L324.24 130.479C324.32 130.559 324.72 130.799 324.48 130.639C324.24 130.479 325.04 131.119 324.8 130.879C324.56 130.639 324.88 130.959 324.96 131.039C325.04 131.119 325.2 131.439 325.04 131.119L325.2 131.439C325.28 131.599 325.36 131.839 325.28 131.519C325.36 131.679 325.36 131.759 325.44 131.919C325.52 132.079 325.52 132.399 325.52 132.319C325.52 132.399 325.52 132.559 325.52 132.639C325.52 132.799 325.52 132.959 325.52 133.119C325.52 133.279 325.52 133.439 325.52 133.599C325.52 133.679 325.52 133.839 325.44 133.919C325.36 134.159 325.28 134.479 325.2 134.719C325.12 134.879 325.12 134.959 325.04 135.119C325.04 135.199 324.96 135.279 324.96 135.279C324.88 135.519 325.04 135.119 324.96 135.279C324.64 135.759 324.32 136.239 323.84 136.719L323.52 137.039L323.36 137.199C323.12 137.359 322.88 137.599 322.64 137.759C322.16 138.079 321.6 138.399 321.04 138.639C320.8 138.799 320.48 138.879 320.24 138.959C320 139.039 319.76 139.119 319.6 139.199C318.48 139.599 317.36 139.919 316.16 140.159C315.12 140.399 314.08 140.479 312.96 140.639L312.4 140.719C312.24 140.719 312.8 140.719 312.4 140.719H312.08C309.6 140.799 311.12 144.159 313.04 144.079L313.12 144.239Z" fill="#000005"/>
<path d="M310.16 126.88C308.4 126.96 306.64 127.2 304.88 127.52C304 127.76 303.6 128.72 303.84 129.52C303.84 129.6 303.92 129.6 303.92 129.68C304.24 130.56 305.12 131.44 306.08 131.28C307.84 130.96 309.6 130.72 311.36 130.64C311.76 130.56 312.16 130.24 312.32 129.84C312.48 129.36 312.48 128.88 312.32 128.4C312.16 127.92 311.84 127.44 311.44 127.12L311.04 126.88C310.72 126.88 310.48 126.88 310.16 126.88Z" fill="#000005"/>
</svg>
