<svg width="400" height="403" viewBox="0 0 400 403" fill="none" xmlns="http://www.w3.org/2000/svg">
<path d="M54.2399 280.246C54.2399 280.246 36.0798 91.9648 41.2798 90.9976C46.4798 90.0304 355.44 82.7764 357.2 90.9976C358.96 99.2188 346.16 276.297 340.4 280.246C334.64 284.196 54.6398 284.438 54.2399 280.246Z" fill="white"/>
<path d="M55.2011 281.213C54.9611 278.553 54.7211 275.974 54.4811 273.314C53.8411 266.383 53.2011 259.451 52.5611 252.439C51.6811 242.606 50.8011 232.773 49.9211 222.859C48.9611 211.494 47.9211 200.13 46.9611 188.765C46.0011 177.32 45.1211 165.875 44.2411 154.429C43.5211 144.274 42.8011 134.199 42.2411 124.043C41.8411 116.708 41.4411 109.293 41.3611 101.878C41.3611 99.6213 41.3611 97.4451 41.5211 95.2689C41.6011 94.4629 41.6811 92.6897 42.0811 92.2867C42.2411 92.1255 42.0811 92.2061 42.4811 92.1255C42.8811 92.0449 43.1211 92.0449 43.5211 92.0449C44.8011 91.9643 46.0811 91.8837 47.3611 91.8837C52.0011 91.7225 56.7211 91.5613 61.3611 91.4001C68.4811 91.1583 75.6011 90.9971 82.6411 90.8359C91.6811 90.5941 100.641 90.4329 109.681 90.1911C120.081 89.9493 130.481 89.7881 140.961 89.5463C152.241 89.3851 163.601 89.1433 174.881 88.9821C186.481 88.8209 198.161 88.6597 209.761 88.5791C221.361 88.4179 232.881 88.3373 244.321 88.3373C255.201 88.2567 266.081 88.2567 276.961 88.2567C286.641 88.2567 296.401 88.3373 306.081 88.4985C314.081 88.5791 322.161 88.7403 330.161 89.0627C336.001 89.3045 341.841 89.5463 347.681 90.0299C350.561 90.2717 354.401 90.4329 356.881 91.4001L357.361 91.6419C357.601 91.7225 357.441 91.6419 357.441 91.6419C357.281 91.4807 356.321 90.4329 356.481 90.1105C356.401 90.1911 356.561 90.5941 356.561 90.6747C356.721 92.2867 356.641 93.8987 356.641 95.5107C356.561 102.201 356.161 108.89 355.841 115.58C355.281 125.575 354.721 135.488 354.001 145.483C353.201 157.17 352.321 168.857 351.441 180.544C350.481 192.311 349.521 204.16 348.401 215.927C347.441 226.405 346.401 236.883 345.201 247.361C344.321 254.938 343.441 262.514 342.161 270.01C341.761 272.186 341.361 274.443 340.801 276.619C340.561 277.425 340.321 278.714 339.681 279.117C338.961 279.44 338.241 279.601 337.441 279.52C335.841 279.682 334.161 279.843 332.561 279.923C327.041 280.326 321.521 280.488 316.001 280.649C308.001 280.891 300.001 281.052 292.081 281.213C282.241 281.374 272.401 281.535 262.641 281.616C251.681 281.697 240.641 281.777 229.681 281.858C218.081 281.939 206.401 281.938 194.801 281.938C183.201 281.938 171.601 281.939 160.081 281.858C149.201 281.777 138.241 281.697 127.361 281.616C117.761 281.535 108.081 281.374 98.4811 281.213C90.8011 281.052 83.0411 280.891 75.3611 280.649C70.1611 280.488 65.0411 280.246 59.8411 279.923C58.4011 279.843 57.0411 279.682 55.6811 279.52C55.2811 279.44 54.8811 279.359 54.4811 279.279C54.4811 279.279 54.3211 279.198 54.2411 279.198C54.1611 279.198 54.0811 278.956 54.3211 279.279C54.5611 279.843 55.0411 280.488 55.2011 281.213C55.1211 280.488 54.7211 279.924 54.1611 279.44C54.0011 279.279 53.2011 278.715 53.2811 279.359C53.6811 282.342 57.5211 282.18 59.7611 282.422C64.6411 282.825 69.6011 283.067 74.4811 283.228C82.0011 283.55 89.6011 283.712 97.1211 283.873C106.721 284.034 116.241 284.195 125.841 284.276C136.801 284.437 147.681 284.518 158.641 284.518C170.401 284.598 182.081 284.598 193.761 284.598C205.441 284.598 217.201 284.598 228.961 284.518C240.161 284.437 251.361 284.357 262.481 284.276C272.481 284.195 282.401 284.034 292.401 283.873C300.481 283.712 308.641 283.551 316.721 283.309C322.321 283.148 328.001 282.906 333.601 282.583C335.281 282.503 336.961 282.342 338.561 282.18C339.441 282.18 340.241 282.019 341.041 281.697C341.761 281.213 342.081 280.004 342.241 279.198C342.801 277.102 343.281 274.926 343.601 272.75C344.881 265.254 345.761 257.597 346.641 250.021C347.841 239.462 348.881 228.984 349.841 218.426C350.961 206.497 351.921 194.568 352.881 182.559C353.841 170.791 354.641 159.023 355.441 147.256C356.081 137.262 356.721 127.267 357.281 117.273C357.601 110.583 358.001 103.893 358.081 97.2839C358.081 94.6241 358.721 90.8359 355.761 89.3851C353.281 88.1761 350.001 88.1761 347.361 87.8537C341.761 87.2895 336.161 87.0477 330.641 86.8865C322.721 86.5641 314.801 86.4029 306.881 86.2417C297.201 86.0805 287.601 85.9999 277.921 85.9999C267.041 85.9193 256.161 85.9193 245.201 85.9999C233.601 86.0805 222.001 86.1611 210.401 86.2417C198.641 86.3223 186.801 86.4835 175.041 86.6447C163.521 86.8059 152.081 86.9671 140.561 87.2089C130.001 87.3701 119.441 87.6119 108.881 87.8537C99.7611 88.0149 90.5611 88.2567 81.4411 88.4985C74.2411 88.6597 66.9611 88.9015 59.6811 89.0627C54.9611 89.2239 50.1611 89.3045 45.4411 89.5463C44.1611 89.6269 42.8811 89.6269 41.6011 89.7075C41.2011 89.7075 40.3211 89.6269 40.0011 89.9493C39.3611 90.5135 39.3611 92.2061 39.2811 92.9315C39.1211 95.1077 39.1211 97.3645 39.1211 99.5407C39.2011 106.875 39.5211 114.291 40.0011 121.625C40.5611 131.861 41.2811 142.098 42.0011 152.334C42.8811 163.86 43.7611 175.466 44.7211 186.992C45.6811 198.518 46.6411 210.043 47.6811 221.408C48.5611 231.322 49.4411 241.236 50.4011 251.149C51.0411 258.162 51.6811 265.093 52.3211 272.025C52.5611 274.523 52.8011 277.022 53.0411 279.52C53.2011 280.246 53.5211 280.81 54.0811 281.294C54.5611 281.294 55.2811 281.858 55.2011 281.213Z" fill="#000005"/>
<path d="M199.841 96.9619C199.841 96.9619 195.521 97.2037 197.681 101.717C199.841 106.231 203.281 104.78 204.081 101.717C204.881 98.6545 201.441 96.4783 199.841 96.9619Z" fill="#000005"/>
<path d="M59.4407 295.48C59.4407 295.48 19.9207 349.562 23.4407 350.288C26.9607 351.013 373.281 350.288 374.641 346.016C376.001 341.744 341.521 298.704 339.441 295.48C337.361 292.256 59.4407 295.48 59.4407 295.48Z" fill="white"/>
<path d="M58.1613 294.674C50.6413 304.99 43.2813 315.388 36.0013 325.946C31.8413 332.072 27.5213 338.278 23.8413 344.726C22.6413 346.822 20.0813 351.013 24.3213 351.416C29.0413 351.9 33.9213 351.577 38.6413 351.577C49.2813 351.658 60.0013 351.658 70.6413 351.658C85.4413 351.658 100.241 351.658 115.041 351.577C132.561 351.497 150.001 351.416 167.521 351.335C185.921 351.255 204.241 351.094 222.641 350.932C240.321 350.771 258.001 350.61 275.761 350.368C291.201 350.207 306.641 349.965 322.081 349.643C333.521 349.401 344.881 349.159 356.321 348.676C362.241 348.434 368.401 348.514 374.241 347.467C374.721 347.467 375.281 347.305 375.681 347.064C376.561 346.338 375.761 344.726 375.441 343.84C374.161 341.18 372.641 338.601 370.961 336.183C368.561 332.556 366.001 328.929 363.441 325.382C358.001 317.967 352.481 310.713 346.881 303.378C345.121 301.122 343.361 298.865 341.681 296.527L341.041 295.641C340.961 295.56 340.881 295.399 340.801 295.318C340.561 294.996 341.281 295.802 340.641 295.077C340.241 294.593 339.681 294.271 339.121 294.109C337.281 293.706 335.441 293.545 333.601 293.545C329.841 293.384 326.081 293.223 322.321 293.142C310.081 292.9 297.841 292.82 285.601 292.739C269.041 292.659 252.481 292.659 235.921 292.739C217.681 292.82 199.441 292.9 181.201 292.981C163.761 293.062 146.401 293.223 128.961 293.384C114.881 293.465 100.801 293.626 86.6413 293.787L62.2413 294.029H58.9613C57.2013 294.029 58.9613 296.205 60.0813 296.205C64.4013 296.124 68.7213 296.124 73.0413 296.044L106.721 295.721C122.561 295.56 138.401 295.399 154.241 295.318C172.161 295.157 190.001 295.077 207.921 294.915C225.441 294.835 242.961 294.754 260.561 294.754C275.281 294.754 290.081 294.754 304.801 294.915C314.321 294.996 323.841 295.077 333.361 295.48C334.641 295.56 335.921 295.56 337.201 295.721L338.481 295.883L338.961 295.963C338.961 295.963 338.721 295.963 339.121 295.963C339.681 296.044 339.121 295.963 338.961 295.802C338.481 295.48 338.081 294.835 338.641 295.641C338.801 295.963 339.041 296.205 339.281 296.447C340.881 298.623 342.561 300.799 344.241 302.975C349.681 310.068 355.121 317.08 360.401 324.334C364.721 330.218 369.601 336.263 372.801 342.953C373.121 343.517 373.361 344.565 373.521 344.887C373.681 345.21 373.681 344.968 373.521 344.968C373.761 344.968 373.441 344.968 373.201 345.049L372.321 345.21C370.161 345.532 367.761 345.693 365.761 345.774C356.881 346.338 347.921 346.58 339.041 346.822C325.441 347.225 311.921 347.467 298.321 347.628C281.761 347.87 265.201 348.111 248.641 348.273C230.641 348.434 212.641 348.595 194.641 348.756C176.721 348.917 158.881 348.998 140.961 349.079C124.721 349.159 108.561 349.24 92.3213 349.24C79.3613 349.24 66.3213 349.24 53.3613 349.24C45.2813 349.24 37.1213 349.24 29.0413 349.159C27.2813 349.159 25.4413 349.079 23.6813 349.079C23.5213 349.079 23.3613 349.079 23.2013 349.079C22.9613 349.159 23.3613 348.756 23.3613 349.079C23.2813 348.031 24.8013 350.126 24.7213 350.207C24.6413 350.288 24.6413 350.368 24.7213 350.126C24.9613 349.562 25.2013 348.917 25.4413 348.273C26.0013 347.225 26.5613 346.177 27.1213 345.129C30.9613 338.52 35.2813 332.233 39.6013 325.946C44.3213 319.015 49.2013 312.164 54.0813 305.393C56.3213 302.25 58.5613 299.187 60.8013 296.124C61.3613 295.318 58.8813 293.706 58.1613 294.674Z" fill="#000005"/>
<path d="M27.8395 356.574L23.5195 350.287L374.72 346.016C374.72 346.016 373.52 354.237 366.48 356.574C359.44 358.912 37.1195 361.249 27.8395 356.574Z" fill="#000005"/>
<path d="M29.4404 355.526L25.1204 349.239L23.4404 351.98L32.8804 351.899L58.3204 351.577L96.2404 351.093L142.16 350.529L192.8 349.884L243.6 349.239L291.28 348.675L331.28 348.191L360.24 347.869C364.72 347.788 369.36 348.03 373.92 347.708C374.08 347.708 374.32 347.708 374.48 347.708L372.8 345.773C372.4 348.836 370.88 351.577 368.56 353.592C367.76 354.156 366.88 354.639 366 355.042C365.68 355.204 366.56 354.962 366.32 354.962L365.68 355.042C364 355.204 362.24 355.284 360.48 355.365C353.12 355.687 345.68 355.848 338.32 356.01C326.8 356.251 315.2 356.493 303.68 356.574C289.2 356.816 274.64 356.977 260.16 357.057C244.08 357.219 227.92 357.299 211.84 357.38C195.36 357.46 178.88 357.541 162.4 357.541C146.8 357.541 131.2 357.541 115.52 357.46C102.08 357.38 88.6404 357.219 75.2004 357.057C65.2804 356.896 55.2804 356.735 45.3604 356.332C40.1604 356.09 34.8004 356.09 29.6004 355.204L29.2004 355.123C28.8804 355.042 29.7604 355.284 29.2804 355.123C29.1204 355.042 28.9604 355.042 28.8004 354.962C26.8804 353.995 24.6404 356.977 26.8804 358.105C28.2404 358.589 29.6004 358.831 31.0404 358.831C33.6804 359.153 36.4004 359.234 39.1204 359.395C48.1604 359.878 57.2004 360.04 66.2404 360.201C79.0404 360.443 91.9204 360.604 104.8 360.684C120.24 360.846 135.6 360.846 151.04 360.846C167.6 360.846 184.16 360.846 200.72 360.765C217.28 360.684 233.84 360.604 250.24 360.443C265.36 360.281 280.48 360.201 295.6 359.959C307.92 359.798 320.32 359.637 332.64 359.395C340.96 359.234 349.36 359.072 357.68 358.75C363.36 358.508 368.8 358.992 372.96 354.075C374.88 351.818 376.24 348.997 376.72 346.096C376.96 344.806 376 344.161 374.8 344.242L365.36 344.323L339.84 344.645L301.92 345.129L256 345.693L205.36 346.338L154.56 346.982L106.88 347.547L66.8804 348.03L37.9204 348.353C33.3604 348.433 28.8004 348.353 24.3204 348.514H23.7604C22.4804 348.514 21.2804 350.126 22.0804 351.254L26.4004 357.622C27.2804 359.395 30.8004 357.46 29.4404 355.526Z" fill="#000005"/>
<path d="M86.5598 309.101L92.6398 309.02L109.12 308.939L133.6 308.778L163.28 308.536L196 308.295L228.8 308.053L259.6 307.811L285.44 307.65L304.16 307.489C307.12 307.489 310.08 307.569 312.96 307.408H313.36C314.16 307.408 314.48 306.521 314.32 305.877C314.08 305.071 313.44 304.587 312.64 304.587H306.56L290.08 304.668L265.6 304.829L235.92 304.99L203.2 305.474L170.4 305.715L139.6 305.957L113.76 306.118L95.0398 306.28C92.0798 306.28 89.1998 306.199 86.2398 306.36H85.8398C85.0398 306.36 84.7198 307.247 84.8798 307.892C85.0398 308.617 85.7598 309.101 86.5598 309.101Z" fill="#000005"/>
<path d="M79.9205 321.996H86.4005L103.84 321.916L129.84 321.755L161.28 321.593L196 321.352L230.8 321.11L263.44 320.868L290.88 320.707L310.72 320.546C313.84 320.546 316.96 320.546 320.08 320.465H320.48C321.2 320.546 321.92 320.062 322.08 319.256C322.08 318.45 321.44 317.886 320.64 317.886H314.16L296.72 317.966L270.72 318.128L239.28 318.289L204.56 318.531L169.76 318.772L137.12 319.014L109.68 319.175L89.8405 319.337C86.7205 319.337 83.6005 319.337 80.4805 319.417H80.0805C79.3605 319.337 78.6405 319.82 78.4805 320.626C78.5605 321.432 79.2005 321.996 79.9205 321.996Z" fill="#000005"/>
<path d="M72.64 335.377H79.52L98.16 335.296L125.84 335.135L159.44 334.974L196.48 334.732L233.6 334.49L268.4 334.248L297.68 334.087L318.88 333.926C322.16 333.926 325.52 333.926 328.88 333.845H329.28C330.16 333.845 329.04 331.105 328.16 331.185H321.28L302.64 331.266L274.96 331.427L241.36 331.588L204.32 331.83L167.2 332.072L132.32 332.314L103.04 332.475L81.84 332.636C78.48 332.636 75.2 332.636 71.84 332.717H71.44C70.56 332.717 71.68 335.377 72.64 335.377Z" fill="#000005"/>
<path d="M160.64 298.622L155.04 313.292L146.08 336.666L144 341.985C143.36 343.597 146.24 344.403 146.8 342.952L152.4 328.283L161.36 304.909L163.44 299.59C164 298.058 161.2 297.252 160.64 298.622Z" fill="#000005"/>
<path d="M198.961 298.623V341.422C198.961 342.711 201.921 342.631 201.921 341.26V298.462C201.921 297.172 198.961 297.253 198.961 298.623Z" fill="#000005"/>
<path d="M237.6 297.172L243.04 311.438L251.68 334.167L253.68 339.406C253.92 340.051 254.32 340.696 254.8 341.26C255.12 341.582 255.36 341.582 255.2 341.018L249.76 326.752L241.12 304.023L239.12 298.784C238.88 298.139 238.48 297.494 238 296.93C237.6 296.607 237.36 296.607 237.6 297.172Z" fill="#000005"/>
<path d="M105.12 300.396L96.6397 314.098L83.1197 335.94L79.9997 340.937C79.0397 342.549 81.7597 342.872 82.4797 341.743L90.9597 328.041L104.48 306.199L107.6 301.202C108.48 299.59 105.76 299.267 105.12 300.396Z" fill="#000005"/>
<path d="M284.881 301.202C284.721 301.04 285.041 301.443 285.201 301.524C285.441 301.846 285.681 302.088 285.921 302.411C286.641 303.378 287.361 304.426 288.001 305.473C290.081 308.536 292.081 311.68 294.081 314.823C298.401 321.593 302.721 328.364 306.961 335.215L309.841 339.89C310.321 340.615 312.801 339.003 312.321 338.197C309.681 333.925 306.961 329.653 304.321 325.382C299.921 318.45 295.601 311.438 291.041 304.587C290.241 303.378 289.441 302.169 288.561 300.96C288.161 300.315 287.681 299.751 287.121 299.267C286.401 298.784 284.001 300.637 284.881 301.202Z" fill="#000005"/>
<path d="M195.839 109.857H59.4395L64.5594 195.213L68.7995 267.269L197.439 265.577L330.959 263.803L334.799 194.649L339.519 109.857H195.839Z" fill="#2E6F40"/>
<path d="M195.52 108.568H64.6399C62.8799 108.568 61.0399 108.487 59.2799 108.568H59.0399C58.4799 108.568 57.9999 109.052 57.9199 109.616L59.4399 134.924L62.0799 178.771L63.1999 196.825L65.3599 233.256L67.3599 266.463V267.028C67.4399 267.914 68.3199 268.559 69.1999 268.478L82.3999 268.317L114.16 267.914L152 267.431L184 267.028L197.76 266.866L210.08 266.705L240.72 266.302L278.48 265.819L312.24 265.416L330.48 265.174H331.36C331.92 265.174 332.4 264.69 332.48 264.126L334 236.238L336.08 198.195C336.4 192.795 336.72 187.395 336.96 181.914L339.28 139.76C339.84 130.008 340.64 120.336 340.88 110.583C340.88 110.422 340.88 110.261 340.88 110.099C340.96 109.132 339.84 108.649 339.04 108.649H201.44C199.6 108.649 197.68 108.568 195.76 108.649L195.52 108.568C194.88 108.649 194.4 109.132 194.4 109.777C194.4 109.858 194.4 109.938 194.4 110.019C194.64 110.744 195.44 111.228 196.16 111.147H333.92C335.84 111.228 337.68 111.228 339.6 111.147H339.84L338 109.616L336.64 134.118L334.24 177.239C333.92 183.365 333.6 189.571 333.2 195.697L331.28 230.355L329.44 263.078V263.642L330.56 262.595L317.76 262.756L286.72 263.159L248.96 263.642L215.44 264.045L197.68 264.287L188.64 264.368L160 264.771L122.48 265.254L88.0799 265.738L69.3599 265.98H68.4799L70.3199 267.431L68.6399 239.221L66.2399 199.485C65.9199 194.085 65.5999 188.684 65.2799 183.284L62.7199 140.566L61.5999 120.98C61.3599 117.515 61.4399 113.888 60.9599 110.502C60.9599 110.341 60.9599 110.18 60.9599 110.019L59.8399 111.067H190.64C192.4 111.067 194.24 111.147 196 111.067H196.24C196.88 111.067 197.36 110.502 197.36 109.938C197.36 109.858 197.36 109.777 197.36 109.696C197.04 108.971 196.24 108.487 195.52 108.568Z" fill="#2E6F40"/>
<path d="M159.44 172.242C163.36 177.32 167.6 182.156 172 186.75C172.72 187.476 173.76 187.718 174.72 187.395C175.6 186.912 175.28 186.025 174.72 185.461C170.48 181.028 166.48 176.434 162.72 171.598C162.08 170.792 161.12 170.389 160.08 170.469C159.52 170.55 159.04 171.033 159.12 171.598C159.2 171.839 159.28 172.081 159.44 172.242Z" fill="#000005"/>
<path d="M178.8 167.567C171.76 172 165.36 177.401 159.84 183.607C159.28 184.252 160.159 184.735 160.719 184.735C161.679 184.896 162.64 184.655 163.36 184.01C168.72 177.965 174.88 172.726 181.76 168.454C182.479 168.051 182.32 167.406 181.6 167.164C180.64 166.842 179.68 167.003 178.8 167.567Z" fill="#000005"/>
<path d="M228.079 169.663C231.839 175.144 235.839 180.463 240.079 185.46C240.799 186.347 244.479 184.896 243.679 183.929C239.439 178.851 235.439 173.612 231.679 168.131C231.519 167.89 230.879 167.89 230.639 167.89C230.159 167.89 229.599 168.051 229.119 168.212C228.559 168.454 227.599 169.018 228.079 169.663Z" fill="#000005"/>
<path d="M241.921 167.567C237.601 172 232.881 176.111 227.841 179.738C227.281 180.141 226.721 180.947 227.601 181.43C228.561 181.753 229.521 181.591 230.321 181.027C235.601 177.158 240.481 172.887 245.041 168.292C245.441 168.051 245.521 167.567 245.361 167.164C245.201 166.922 244.961 166.761 244.641 166.761C243.681 166.519 242.641 166.842 241.921 167.567Z" fill="#000005"/>
<path d="M176.56 222.778C177.92 219.716 180.56 217.862 183.44 216.33C186.88 214.396 190.56 212.945 194.4 211.897C202.4 209.882 210.24 213.268 216.16 218.587C219.6 221.731 222.64 225.277 225.36 229.065C226.48 230.597 229.92 228.582 228.64 226.889C223.28 219.716 217.12 212.865 208.64 209.641C204.4 208.029 199.76 207.626 195.28 208.512C190.96 209.56 186.72 211.172 182.8 213.268C178.88 215.202 174.96 217.701 173.04 221.811C172.16 224.068 175.76 224.552 176.56 222.778Z" fill="#000005"/>
<path d="M92.3995 43.524C87.9195 41.912 82.2395 43.2016 78.1595 45.2972C72.8795 47.957 66.3195 53.7602 66.9595 60.45C67.5995 66.8174 75.1195 67.5428 80.0795 66.8174C83.6795 66.4144 87.1195 65.1248 90.0795 63.1098C91.6795 61.9008 93.4395 60.2888 93.8395 58.1932C94.1595 56.9842 93.5195 55.6946 92.3195 55.3722C92.1595 55.2916 91.9195 55.2916 91.7595 55.2916C88.9595 54.808 86.0795 56.42 83.9995 58.1126C80.9595 60.45 78.3995 63.4322 76.5595 66.8174C75.5995 68.6712 74.7995 71.1698 76.3195 72.943C77.9995 74.8774 81.3595 74.7968 83.6795 74.555C87.6795 74.0714 91.5195 72.8624 95.0395 70.8474C96.8795 69.7996 99.4395 68.1876 100.239 66.092C101.119 63.7546 97.5995 64.2382 96.3195 64.5606C91.9195 65.9308 88.3195 69.2354 86.5595 73.5878C85.9995 75.1192 85.8395 76.8924 86.9595 78.182C88.4795 80.0358 91.4395 80.0358 93.5195 79.9552C95.3595 79.8746 97.1995 79.5522 98.9595 79.1492C99.3595 79.0686 100.879 78.7462 100.799 78.0208C100.719 77.2954 99.0395 77.5372 98.7195 77.6178C96.0795 78.2626 90.3195 79.4716 90.0795 75.2804C89.9195 72.137 92.7195 68.9936 94.9595 67.2204C95.5995 66.7368 96.3195 66.2532 97.1195 65.9308C97.1995 65.8502 97.8395 65.6084 97.3595 65.7696C97.4395 65.7696 97.5195 65.7696 97.5995 65.689C97.6795 65.6084 97.1195 65.7696 97.4395 65.7696C97.1995 65.7696 96.5595 65.7696 96.6395 65.7696C96.4795 65.7696 96.3995 65.689 96.3995 65.689C96.3995 65.689 96.3995 65.6084 96.3995 65.7696C96.3995 65.9308 96.3995 65.9308 96.3995 66.0114C96.3995 66.092 96.2395 66.495 96.1595 66.6562C95.7595 67.301 95.1995 67.9458 94.5595 68.4294C92.4795 70.122 89.9995 71.4116 87.3595 72.137C85.2795 72.7818 83.0395 73.346 81.1195 72.54C76.4795 70.6056 81.7595 63.9158 83.5195 61.9814C85.2795 60.047 87.4395 57.7096 89.6795 56.823C89.2795 56.9842 89.8395 56.823 89.9195 56.7424C89.5195 56.9036 89.6795 56.823 89.7595 56.823C89.7595 56.823 89.2795 56.9036 89.5995 56.823C89.5195 56.823 89.1995 56.9036 89.4395 56.823C89.3595 56.823 89.1195 56.7424 89.2795 56.823C89.4395 56.9036 89.1195 56.6618 89.4395 56.9036C89.2795 56.823 89.5995 57.0648 89.7595 57.226C89.8395 57.3872 89.9195 57.629 89.9195 57.7902C90.0795 59.0798 89.1995 60.45 88.3195 61.3366C86.7195 62.9486 84.7995 64.077 82.5595 64.7218C78.7195 65.8502 72.9595 66.0114 71.1995 61.4978C69.4395 56.9842 72.7995 52.0676 75.9995 49.166C78.2395 46.9898 81.0395 45.4584 84.0795 44.733C84.9595 44.5718 85.8395 44.4912 86.7195 44.4912H87.3595C87.1195 44.4912 87.5995 44.4912 87.3595 44.4912H87.5995C87.9195 44.5718 88.2395 44.5718 88.5595 44.6524L88.8795 44.733C89.1195 44.8136 88.5595 44.6524 88.7995 44.733L89.0395 44.8136C89.9195 45.0554 90.9595 44.9748 91.7595 44.5718C92.1595 44.4106 93.1195 43.7658 92.2395 43.4434L92.3995 43.524Z" fill="#2E6F40"/>
<path d="M214.48 326.833C219.04 328.203 223.76 328.929 228.48 328.929C232.4 328.929 236.88 328.526 238.88 324.576C240.4 321.513 239.6 317.403 237.6 314.743C235.12 311.519 231.12 310.068 227.28 309.585C225.6 309.423 222.96 308.94 221.68 310.391C220.16 312.083 221.36 314.501 222.72 315.871C225.52 318.531 229.28 320.063 233.2 319.982C236.88 320.063 240.48 318.531 243.04 315.871C245.52 313.212 246.88 309.585 246.72 305.958C246.32 297.092 237.44 292.336 230.08 289.999C229.2 289.757 228.32 290.16 228.08 291.047C228.08 291.127 228.08 291.208 228 291.208C227.92 292.256 228.64 293.223 229.6 293.545C234.32 295.077 240.08 297.495 242.16 302.331C244.4 307.408 241.52 313.534 236.48 315.63C233.84 316.597 230.96 316.597 228.4 315.63C227.2 315.227 226.08 314.501 225.12 313.695C224.96 313.534 224.8 313.373 224.64 313.131C224.64 313.05 224.56 312.889 224.56 312.809C224.56 312.728 224.56 312.97 224.56 312.97C224.32 312.97 224.64 313.05 224.64 313.05C225.12 313.131 225.52 313.131 226 313.05C228.8 313.131 231.76 313.695 233.92 315.63C235.6 317.161 236.32 319.579 235.68 321.836C234.56 325.221 230.48 325.221 227.6 325.14C223.28 325.06 219.04 324.415 214.96 323.206C214.08 322.964 213.2 323.367 212.96 324.254C212.96 324.334 212.96 324.415 212.88 324.415C212.8 325.543 213.44 326.511 214.48 326.833Z" fill="#2E6F40"/>
<path d="M120.48 333.361C127.36 333.12 136 330.54 137.6 322.803C138.4 319.659 137.28 316.274 134.8 314.259C132 312.002 128.08 311.599 124.72 312.164C120.24 312.889 116.56 315.629 113.12 318.45C112.96 318.612 112.88 318.773 112.88 318.934C113.52 321.03 116.16 321.11 118 320.949C120.48 320.788 122.96 320.385 125.36 319.901C129.76 318.934 134.08 317 136.8 313.292C139.12 310.149 140.16 304.748 136.32 302.33C134.24 301.202 132 300.396 129.6 300.074C127.36 299.671 125.04 299.429 122.8 299.429C117.36 299.509 112 300.88 107.12 303.539C106.4 303.942 106.56 304.587 107.2 304.91C108.16 305.232 109.12 305.151 110 304.668C116.24 301.202 123.68 300.477 130.48 302.653C132.24 303.217 134 303.942 134.56 305.877C134.96 307.489 134.8 309.181 134.16 310.713C132.8 313.776 130.32 316.113 127.2 317.241C125.28 317.967 123.28 318.45 121.2 318.692C120.16 318.853 119.12 318.934 118 319.095C117.52 319.095 116.88 319.337 116.72 318.692L116.48 319.176C120.4 315.952 126.16 311.68 131.04 315.388C135.76 318.853 133.6 326.107 129.36 328.928C126.64 330.782 123.36 331.346 120.08 331.427C119.52 331.427 118.16 331.749 118.16 332.555C118.16 333.361 120 333.281 120.48 333.361Z" fill="#2E6F40"/>
<path d="M331.36 316.355L336.32 307.811C336.88 306.844 337.68 304.587 339.04 304.587C340.08 304.587 340.96 305.796 341.68 306.361C343.52 307.811 346.08 307.892 348 306.522C350.08 305.151 351.28 303.137 352.4 300.96C353.6 298.542 354.88 296.044 357.44 294.754C358.16 294.351 356.16 290.966 355.2 291.45C350.56 293.706 350.24 299.832 346.32 302.814C345.44 303.54 344.32 304.023 343.12 304.184C342 304.184 340.88 303.701 340.16 302.895C339.36 302.169 338.4 301.283 337.28 301.202C335.92 301.122 335.28 302.492 334.72 303.459L328.96 313.373C328.32 314.179 330.8 317.242 331.36 316.355Z" fill="#2E6F40"/>
<path d="M339.84 321.594L344.8 319.176C345.28 318.934 345.68 318.692 346.08 318.289C346.32 318.048 346.56 317.645 346.56 317.322C346.4 316.516 345.2 316.758 344.72 317L339.76 319.418C339.28 319.66 338.88 319.901 338.48 320.304C338.24 320.546 338 320.949 338 321.272C338.16 322.078 339.36 321.836 339.84 321.594Z" fill="#2E6F40"/>
<path d="M143.201 191.989C143.201 191.989 139.441 254.373 133.521 257.597C127.601 260.821 35.041 260.337 35.041 251.633C35.041 242.928 36.081 204.965 44.161 203.353C52.241 201.741 117.361 206.094 120.081 205.529C122.801 204.965 143.761 185.46 143.201 191.989Z" fill="#000005"/>
<path d="M102.161 259.854C97.2007 259.854 92.1607 259.774 87.3607 259.693C77.2807 259.452 43.7607 258.242 36.3207 253.809C35.2807 253.165 34.7207 252.439 34.7207 251.714C34.7207 251.23 34.8007 204.966 44.1607 203.031C49.3607 201.984 77.4407 203.354 97.9207 204.321C109.281 204.885 119.041 205.369 120.001 205.127C120.801 204.966 123.921 202.548 127.281 199.969C135.281 193.682 141.041 189.41 143.041 190.458C143.601 190.78 143.841 191.425 143.681 192.07C143.521 194.649 139.841 254.696 133.761 258.001C131.361 259.21 117.441 259.854 102.161 259.854ZM51.9207 203.434C49.3607 203.354 46.8007 203.515 44.3207 203.757C37.1207 205.208 35.5207 239.705 35.5207 251.633C35.5207 252.117 35.9207 252.6 36.7207 253.084C48.4007 260.016 128.161 260.177 133.361 257.275C138.081 254.696 141.761 209.318 142.801 191.989C142.801 191.506 142.721 191.264 142.561 191.183C140.961 190.297 132.961 196.503 127.681 200.613C123.521 203.918 121.041 205.772 120.081 205.933C119.121 206.094 111.361 205.772 97.7607 205.127C82.4807 204.321 62.8807 203.434 51.9207 203.434Z" fill="#000005"/>
<path d="M62.4012 218.506C59.3612 223.181 56.7212 228.017 54.4012 233.095C54.1612 233.578 57.4412 233.981 57.6812 233.981C61.0412 234.062 64.4012 234.062 67.7612 234.062C67.8412 234.062 68.3212 234.062 68.4012 233.901C68.4812 233.739 67.9212 233.578 67.8412 233.498C66.9612 233.175 66.0012 233.014 65.0412 233.014C61.6812 233.095 58.3212 233.014 54.9612 232.933L58.2412 233.82C60.5612 228.742 63.2012 223.906 66.2412 219.231C66.4012 218.99 64.4812 218.506 64.3212 218.506C64.0812 218.425 62.7212 218.103 62.4012 218.506Z" fill="white"/>
<path d="M65.7609 227.453C65.8409 233.175 66.0809 238.898 65.9209 244.62C65.8409 246.555 69.7609 245.91 69.8409 244.298C70.0009 238.575 69.7609 232.853 69.6809 227.13C69.6809 226.163 68.7209 225.921 67.9209 226.002C67.2009 226.002 65.6809 226.566 65.7609 227.453Z" fill="white"/>
<path d="M84.0007 221.166C81.9207 221.489 80.0807 222.537 78.6407 224.149C77.5207 225.68 76.6407 227.453 76.1607 229.307C75.0407 233.337 74.6407 238.254 77.3607 241.8C79.8407 245.024 84.0007 245.185 87.5207 243.815C91.2807 242.364 94.0007 239.14 94.7207 235.11C95.6007 230.758 94.4807 225.922 91.2007 222.778C90.4807 222.053 86.9607 223.746 87.6807 224.39C92.0007 228.582 92.6407 237.206 88.2407 241.558C86.4007 243.412 83.6807 242.848 81.8407 241.236C79.3607 238.979 78.7207 235.191 79.1207 232.047C79.3607 230.032 79.8407 228.098 80.6407 226.244C80.9607 225.519 81.2807 224.794 81.7607 224.149C82.0007 223.826 82.2407 223.504 82.5607 223.181C82.8807 222.859 83.2007 222.859 82.4807 223.02C83.2807 222.859 84.4807 222.617 84.9607 221.892C85.4407 221.166 84.4807 221.005 84.0007 221.166Z" fill="white"/>
<path d="M108.241 218.345C105.121 223.1 102.401 228.097 100.001 233.256C99.6812 233.9 100.401 234.304 100.881 234.304C104.241 234.384 107.601 234.384 110.961 234.384C111.921 234.384 112.881 233.901 113.441 233.095C113.921 232.369 113.601 231.724 112.721 231.724C109.361 231.805 106.001 231.724 102.641 231.644L103.521 232.692C105.761 227.775 108.401 223.02 111.361 218.506C111.681 218.184 111.681 217.7 111.441 217.378C111.281 217.136 110.961 217.055 110.641 217.136C109.681 217.055 108.801 217.539 108.241 218.345Z" fill="white"/>
<path d="M111.121 226.97C111.201 232.692 111.441 238.415 111.281 244.137C111.281 245.83 115.201 245.669 115.281 243.896C115.441 238.173 115.201 232.45 115.121 226.728C115.121 224.955 111.121 225.196 111.121 226.97Z" fill="white"/>
<path d="M128.48 121.947C128.48 121.947 131.2 53.9209 137.52 53.9209C143.84 53.9209 183.28 89.0625 183.76 95.5105C184.24 101.958 129.76 134.682 128.48 121.947Z" fill="#000005"/>
<path d="M132.72 125.252C129.12 125.252 128.16 123.479 128 121.948V121.867C128 121.706 128.72 104.618 130.16 87.8537C132.8 57.0645 135.6 53.4375 137.44 53.4375C140.88 53.4375 152.72 62.7065 163.04 71.8949C172.56 80.4385 183.84 91.7225 184.08 95.3495C184.32 98.4123 174.32 105.827 164.4 111.873C154.56 117.837 141.44 124.446 133.92 125.091C133.52 125.252 133.12 125.252 132.72 125.252ZM128.88 121.948C129.12 123.882 130.72 124.688 133.84 124.446C141.2 123.801 154.24 117.192 164 111.308C175.2 104.538 183.52 97.7675 183.36 95.5107C183.2 92.7703 174.64 83.4207 162.56 72.6203C150.48 61.8199 140.24 54.3241 137.52 54.3241C133.12 54.3241 129.92 95.7525 128.88 121.948Z" fill="#000005"/>
<path d="M152.4 93.0927L147.84 77.2145C147.6 76.3279 146.56 76.2473 145.84 76.5697C145.12 76.8921 143.92 77.6981 144.16 78.5847L148.72 94.4629C148.96 95.3495 150 95.4301 150.72 95.1077C151.36 94.8659 152.64 93.9793 152.4 93.0927Z" fill="white"/>
<path d="M151.441 102.12L151.921 102.846C152.081 103.007 152.241 103.249 152.481 103.329C152.721 103.491 152.961 103.571 153.201 103.652C153.441 103.732 153.761 103.732 154.001 103.732C154.241 103.732 154.481 103.652 154.721 103.571L155.121 103.329C155.361 103.168 155.521 102.846 155.601 102.604V102.12C155.601 101.798 155.441 101.556 155.281 101.314L154.801 100.589C154.641 100.428 154.481 100.186 154.241 100.105C153.841 99.783 153.281 99.7024 152.721 99.783C152.481 99.783 152.241 99.8636 152.001 99.9442L151.601 100.186C151.361 100.347 151.201 100.67 151.121 100.911V101.395C151.121 101.556 151.281 101.879 151.441 102.12Z" fill="white"/>
<path d="M274.721 244.782C274.721 244.782 266.321 251.874 265.841 250.343C265.361 248.812 268.561 212.864 272.001 211.655C275.441 210.446 301.361 215.766 304.161 218.99C306.961 222.214 300.161 249.134 298.401 250.343C296.641 251.552 274.721 244.782 274.721 244.782Z" fill="#000005"/>
<path d="M266.161 250.988C266.081 250.988 266.001 250.988 265.921 250.988C265.681 250.908 265.521 250.747 265.441 250.505C265.201 249.618 265.921 239.946 267.041 230.919C268.561 218.507 270.161 211.897 271.841 211.333C275.361 210.044 301.521 215.363 304.481 218.829C305.281 219.796 305.441 222.295 304.961 226.405C304.001 234.868 300.161 249.699 298.641 250.747C296.881 252.036 278.961 246.555 274.801 245.266C272.961 246.797 267.761 250.988 266.161 250.988ZM273.761 211.897C273.201 211.897 272.721 211.897 272.161 212.059C271.201 212.381 269.601 217.539 267.921 230.919C266.721 240.43 266.161 249.054 266.241 250.182C267.121 250.182 271.121 247.281 274.481 244.46C274.561 244.379 274.721 244.379 274.881 244.379C285.521 247.684 297.201 250.747 298.241 250.021C299.281 249.296 303.201 235.352 304.241 225.841C304.801 221.005 304.241 219.635 303.921 219.232C301.441 216.411 280.321 211.897 273.761 211.897Z" fill="#000005"/>
<path d="M286.721 233.578L286.641 220.844C286.641 219.151 282.801 218.103 282.801 220.038L282.881 232.772C282.881 234.546 286.721 235.513 286.721 233.578Z" fill="white"/>
<path d="M286.721 239.381L287.121 238.817C287.201 238.737 287.281 238.575 287.201 238.495C287.201 238.414 287.121 238.334 287.041 238.253C286.881 238.253 286.721 238.253 286.641 238.253C286.481 238.253 286.241 238.334 286.081 238.334L285.601 238.575C285.281 238.737 284.961 238.898 284.641 239.059L284.241 239.381C284.001 239.543 283.841 239.704 283.761 239.946L283.361 240.51C283.281 240.59 283.281 240.752 283.281 240.832C283.281 240.913 283.361 240.993 283.441 241.074C283.601 241.074 283.761 241.074 283.841 241.074C284.001 241.074 284.241 240.993 284.401 240.993L284.881 240.832C285.201 240.671 285.521 240.51 285.841 240.349L286.241 240.026C286.401 239.784 286.561 239.623 286.721 239.381Z" fill="white"/>
<path d="M310.962 115.258C310.962 115.258 292.562 126.219 291.602 123.882C290.642 121.544 297.522 66.2528 305.042 64.3184C312.562 62.384 369.282 70.6052 375.362 75.6024C381.442 80.5996 366.562 121.947 362.802 123.882C359.042 125.816 310.962 115.258 310.962 115.258Z" fill="#000005"/>
<path d="M292.241 124.607C292.081 124.607 291.921 124.607 291.761 124.526C291.521 124.446 291.281 124.285 291.201 124.043C290.481 122.189 295.361 80.1964 301.681 67.6228C302.801 65.4466 303.841 64.2376 304.881 63.9958C308.961 62.948 326.321 64.8018 340.721 67.0586C355.441 69.3154 372.241 72.7006 375.521 75.3604C376.961 76.4888 377.441 79.471 376.961 84.0652C375.601 97.0418 366.241 122.592 362.961 124.285C359.201 126.219 316.641 116.95 311.041 115.741C308.881 116.95 295.841 124.607 292.241 124.607ZM308.641 64.4794C307.441 64.4794 306.241 64.56 305.121 64.7212C304.561 64.8824 303.681 65.5272 302.561 67.7034C296.321 79.7128 291.281 121.786 292.001 123.801C293.841 124.446 304.481 118.723 310.801 115.016C310.881 114.935 310.961 114.935 311.121 114.935C324.481 117.837 359.681 125.091 362.641 123.559C365.201 122.27 374.721 98.0896 376.241 83.904C376.801 78.5038 375.921 76.65 375.121 75.9246C369.681 71.4916 323.121 64.4794 308.641 64.4794Z" fill="#000005"/>
<path d="M324.72 77.6978C318.08 79.2292 311.68 84.0652 310.8 91.3192C310.32 94.7044 311.2 98.1702 313.2 100.991C315.52 103.893 318.88 105.747 322.48 106.23C326.24 106.794 330.08 106.15 333.52 104.457C336.88 102.845 340.24 100.427 342.4 97.4448C344.48 94.6238 345.04 90.352 342.32 87.6922C340 85.4354 334.96 84.8712 333.12 88.0146C331.28 91.158 333.84 95.0268 336 97.2836C338.56 100.024 342.4 101.878 346.08 100.669C349.2 99.4598 351.44 96.5582 351.68 93.2536C351.84 89.7878 350.64 86.4026 348.24 83.904C342.8 77.6978 333.76 77.2142 326.24 78.665C322.8 79.3098 318.64 80.3576 317.68 84.307C316.72 88.2564 319.2 91.6416 321.36 94.6238C326.16 100.991 331.68 107.197 339.28 110.099C341.2 110.824 343.2 111.308 345.2 111.55C347.04 111.792 349.28 111.953 351.04 111.227C352.8 110.502 353.12 108.729 352.88 107.036C352.64 105.263 352.16 103.49 351.52 101.878C348.88 95.1074 343.12 89.949 335.6 89.7072C332.24 89.546 328.96 90.6744 326.4 92.8506C325.68 93.4148 325.2 94.1402 324.96 94.9462C324.88 95.9134 325.36 96.8806 326.16 97.3642C327.76 98.4926 330 98.412 331.92 98.4926C336.24 98.6538 340.56 98.2508 344.72 97.203C348.24 96.3164 352.32 95.188 355.04 92.5282C357.76 89.8684 357.76 86.0802 356.32 82.8562C354.96 79.9546 352.72 77.6172 350 76.0858C343.44 72.217 335.28 71.8946 328 73.829C321.76 75.441 312.96 79.7128 313.44 87.531C313.68 91.3192 316.48 94.6238 319.28 96.8C322.32 99.0568 325.84 100.669 329.6 101.314C334 102.12 338.48 102.12 342.88 101.475C346.24 101.072 350.8 100.669 352.88 97.4448C354.64 94.785 353.76 91.158 351.92 88.8206C349.52 85.8384 345.68 84.5488 342 83.9846C340.24 83.7428 338.32 83.3398 336.56 83.6622C334.56 84.0652 333.44 85.6772 334.24 87.6922C335.52 90.9162 339.04 92.2864 342.08 93.173C346.32 94.4626 350.56 95.7522 354.8 97.0418C355.6 97.2836 356.88 97.5254 357.36 96.7194C357.84 95.9134 356.96 95.1074 356.32 94.9462L345.6 91.7222C343.28 91.0774 340.16 90.5132 338.56 88.4982C338.08 87.8534 337.2 86.2414 338.56 86.0802C339.92 86.0802 341.36 86.2414 342.72 86.5638C345.36 87.128 347.84 88.1758 349.12 90.6744C350.24 92.77 350.16 95.591 348.16 97.1224C347.04 97.8478 345.84 98.3314 344.48 98.4926C342.8 98.815 341.04 99.0568 339.28 99.218C333.28 99.7822 326.56 99.218 321.68 95.188C319.44 93.3342 317.28 90.5938 317.2 87.531C317.12 84.8712 318.72 82.4532 320.72 80.7606C325.44 76.65 332.4 75.1186 338.48 75.3604C343.2 75.6022 348.56 77.2948 351.36 81.4054C352.88 83.5816 353.84 86.6444 352.72 89.2236C351.6 91.8028 348.8 92.9312 346.4 93.7372C343.2 94.8656 339.84 95.591 336.4 95.9134C334.72 96.0746 333.04 96.0746 331.36 96.0746C330.48 96.0746 329.6 95.994 328.8 95.9134C328.96 95.9134 328.48 95.9134 328.64 95.9134C328.48 95.9134 328.32 95.994 328.48 95.9134C328.64 95.8328 328.56 96.0746 328.72 95.994C328.88 95.9134 328.88 95.591 328.88 95.5104C329.6 94.4626 330.64 93.6566 331.84 93.173C332.96 92.6894 334.16 92.4476 335.36 92.367C337.76 92.2864 340.16 93.0118 342.08 94.5432C344.24 96.2358 345.92 98.4926 347.04 100.991C347.6 102.281 348.08 103.57 348.32 104.86C348.56 105.908 349.2 107.762 348.64 108.729C348.08 109.696 345.6 109.212 344.8 109.132C343.36 108.971 341.92 108.568 340.56 108.084C337.68 106.956 334.96 105.263 332.64 103.167C330.24 100.991 328.08 98.5732 326.08 96.0746C324.16 93.6566 321.76 91.0774 321.2 87.934C320.88 86.4832 321.2 85.0324 321.92 83.8234C322.8 82.7756 324 82.1308 325.28 81.889C328.32 81.0024 331.52 80.5994 334.64 80.7606C340.16 81.0024 345.76 84.0652 347.12 89.7878C347.84 92.367 347.2 95.1074 345.44 97.1224C344.72 98.009 343.68 98.5732 342.56 98.6538C341.44 98.5732 340.48 98.0896 339.68 97.2836C337.84 95.6716 335.52 92.8506 336.16 90.1908C336.32 89.2236 337.12 88.4982 338.08 88.5788C338.88 88.74 339.44 89.7878 339.68 90.5938C340.48 93.576 338.64 96.3164 336.56 98.1702C334.32 100.266 331.76 101.958 328.88 103.087C323.76 104.941 317.68 103.893 315.2 98.5732C312.88 93.4954 314.72 87.4504 318.8 83.904C320.8 82.1308 323.2 80.9218 325.84 80.277C326.56 80.1158 327.36 79.6322 326.88 78.7456C326.72 77.9396 325.76 77.6172 324.72 77.6978Z" fill="white"/>
</svg>
