<svg width="400" height="400" viewBox="0 0 400 400" fill="none" xmlns="http://www.w3.org/2000/svg">
<path d="M181.84 82.0797C181.84 82.0797 180.16 76.4797 183.6 73.6797C183.6 73.6797 184.88 80.0797 187.6 80.9597L181.84 82.0797Z" fill="#000005"/>
<path d="M183.52 80.9602C183.44 80.6402 183.44 80.8802 183.52 80.9602C183.44 80.7202 183.44 80.4802 183.36 80.2402C183.2 79.5202 183.2 78.8002 183.2 78.0802C183.2 77.6802 183.2 77.2002 183.28 76.8002C183.28 76.5602 183.36 76.3202 183.36 76.1602L183.44 75.8402C183.36 76.0002 183.52 75.6802 183.52 75.6802C183.6 75.4402 183.68 75.2802 183.76 75.0402L183.92 74.7202L184 74.5602C183.92 74.7202 183.92 74.7202 183.92 74.6402C183.92 74.5602 184.08 74.4802 184.08 74.3202L184.24 74.1602L184.4 74.0002C184.56 73.8402 184.48 73.9202 184.32 74.0802L184.48 73.9202L181.92 74.5602C182.16 75.7602 182.48 76.9602 182.96 78.0802C183.52 79.6002 184.48 81.6002 186.16 82.1602L188.56 79.6802L182.88 80.8002C181.92 81.0402 181.12 81.6002 180.56 82.4002C180.4 82.5602 180.24 82.9602 180.4 83.2002C180.56 83.4402 180.96 83.3602 181.2 83.2802L186.88 82.1602C187.68 81.9202 188.4 81.5202 188.96 80.8802C189.12 80.6402 189.84 79.8402 189.28 79.6802C189.12 79.6002 188.96 79.5202 188.8 79.4402L188.72 79.3602C188.8 79.4402 188.8 79.4402 188.72 79.3602C188.64 79.2802 188.56 79.2002 188.48 79.2002C188.16 78.9602 187.92 78.6402 187.68 78.2402C187.2 77.5202 186.8 76.7202 186.48 75.8402C186.16 75.1202 185.92 74.3202 185.76 73.6002L185.68 73.3602C185.68 73.2002 185.76 73.5202 185.68 73.2802C185.68 73.2002 185.6 73.1202 185.6 73.0402C185.6 72.9602 185.52 72.8802 185.52 72.7202C185.28 71.6802 183.36 73.0402 182.96 73.3602C181.04 74.8802 179.92 77.2002 179.92 79.6802C179.92 80.8802 180.08 82.0002 180.4 83.2002C180.4 83.9202 183.84 82.1602 183.52 80.9602Z" fill="#000005"/>
<path d="M210.64 234.8L165.84 259.28L175.76 286.08L227.84 257.6L210.64 234.8Z" fill="white"/>
<path d="M209.92 234.32L194.72 242.64L170.56 255.84L165.04 258.88C164.72 259.04 163.76 259.6 163.92 260.08L172.64 283.6L173.84 286.88C174.16 287.68 176.16 286.8 176.48 286.64L194.08 277.04L222.16 261.68L228.56 258.16C228.72 258.08 230 257.36 229.68 256.96L214.56 236.96L212.48 234.16C211.76 233.2 208.32 234.96 208.72 235.6L223.84 255.6L225.92 258.4L227.04 257.2L209.44 266.8L181.36 282.16L174.88 285.68L177.52 285.44L168.8 261.92L167.6 258.64L166.48 259.84L181.68 251.52L205.84 238.32L211.36 235.28C211.76 235.12 212.88 234.48 212.32 233.92C211.76 233.36 210.32 234.08 209.92 234.32Z" fill="#2E6F40"/>
<path d="M36.9596 163.76L199.44 74.9599C203.28 72.8799 208.08 74.2399 210.16 78.0799L272.72 192.4C274.8 196.24 273.44 201.04 269.6 203.12L107.04 292C103.2 294.08 98.3996 292.72 96.3196 288.88L33.7596 174.48C31.6796 170.64 33.1196 165.84 36.9596 163.76Z" fill="white"/>
<path d="M38.7206 164.48L51.4406 157.52L83.1206 140.24L123.761 118L163.521 96.2396L192.401 80.3996L199.681 76.3996C200.161 76.1596 200.561 75.9196 200.961 75.6796C202.081 75.0396 203.361 74.7196 204.721 74.8796C206.241 75.1196 207.441 76.5596 208.081 77.7596C211.521 83.8396 214.801 89.9996 218.081 96.0796L239.121 134.56L260.241 173.2C263.681 179.44 267.201 185.68 270.561 192C272.561 195.76 271.281 200.4 267.521 202.48L266.561 202.96L259.921 206.64L231.921 222L192.481 243.52L151.521 265.84L119.121 283.6C114.401 286.16 109.761 288.8 105.041 291.28C103.841 292 102.481 292.24 101.121 292.08C99.6806 291.76 98.6406 290.4 97.9206 289.2C97.6006 288.64 97.2806 288.08 96.9606 287.52L91.6806 277.92L72.3206 242.48L50.2406 202.08L36.3206 176.72C36.0006 176.16 35.6806 175.6 35.4406 175.12C33.6806 171.2 35.0406 166.56 38.7206 164.48C39.3606 164.16 37.8406 163.36 37.6006 163.28C36.9606 163.04 35.8406 162.64 35.1206 163.12C31.2006 165.36 29.7606 170.32 31.9206 174.24C32.2406 174.8 32.5606 175.36 32.8806 175.92L38.2406 185.76L47.0406 201.84L57.9206 221.68L69.5206 242.8L80.2406 262.4L88.8006 278L93.7606 287.12C94.0006 287.52 94.2406 287.92 94.4006 288.4C97.1206 293.2 104.001 295.2 108.881 292.64C110.081 292 111.281 291.36 112.401 290.72L122.081 285.44L136.481 277.52L154.401 267.76L174.561 256.72L195.761 245.12L216.481 233.76L235.601 223.28L251.921 214.4L263.921 207.84L270.481 204.24C270.961 204 271.441 203.76 271.921 203.44C275.441 201.04 276.561 196.4 274.561 192.64C273.521 190.72 272.481 188.8 271.361 186.8L264.081 173.36L254.001 154.88L242.641 134.08L231.281 113.6L221.441 95.5996L214.561 83.0396C213.681 81.3596 212.801 79.5996 211.761 77.9996C208.961 73.5196 202.241 71.7596 197.521 74.2396L196.481 74.7996L189.601 78.5596L177.361 85.2796L160.881 94.3196L141.681 104.8L120.881 116.16L99.7606 127.76L79.6806 138.72L61.9206 148.4L47.6806 156.16L38.4006 161.28L35.2006 163.04C34.5606 163.36 36.1606 164.16 36.3206 164.24C36.9606 164.48 38.0006 164.88 38.7206 164.48Z" fill="#2E6F40"/>
<path d="M36.1588 162.32L198.559 73.5204C202.399 71.4404 207.199 72.8004 209.279 76.6404L261.679 172.4L85.3588 268.8L32.9588 173.04C30.8788 169.2 32.3188 164.4 36.1588 162.32Z" fill="white"/>
<path d="M37.6797 163.52L48.5597 157.6L75.9198 142.64L112.4 122.72L150.08 102.16L181.44 85.0402L198.8 75.5202L200.08 74.8002C202.32 73.6002 206.08 73.1202 207.68 75.5202C208.64 76.9602 209.52 78.8002 210.4 80.4002L226.4 109.6L246.8 146.8L259.68 170.32L260.32 171.44V171.04L255.6 173.6L242.8 180.64L223.76 191.04L200.64 203.68L175.2 217.6L149.68 231.6L125.6 244.72L105.44 255.76L90.8797 263.68C88.6397 264.96 86.2397 266.08 83.9998 267.44L83.6797 267.6L86.7998 269.68L81.0397 259.12L67.4398 234.32L51.4397 205.04L38.7997 181.76L35.2797 175.36L34.5597 174.08C33.4397 172 33.2797 169.52 34.2397 167.36C34.9597 165.68 36.1597 164.4 37.6797 163.52C38.0797 163.28 35.5997 160.48 34.5597 161.04C31.3597 162.88 29.7597 166.64 30.6397 170.24C30.8797 171.12 31.1997 171.92 31.6797 172.72L34.3997 177.76L46.3997 199.68L62.3197 228.72L76.6398 254.88C79.0397 259.2 81.3597 263.52 83.7597 267.84L83.8398 268C84.2398 268.72 85.9197 270.64 86.9597 270.08L91.6797 267.52L104.48 260.48L123.52 250.08L146.64 237.44L172 223.52L197.52 209.6L221.44 196.56L241.6 185.52L256.16 177.6L260.64 175.12C261.44 174.72 262.24 174.32 263.04 173.84C263.12 173.76 263.2 173.76 263.36 173.68C263.44 173.52 263.44 173.36 263.36 173.28L253.92 156L234 119.6L215.76 86.4002L211.28 78.2402C210.64 76.9602 209.76 75.7602 208.8 74.7202C205.68 71.6002 201.04 70.0002 196.96 72.2402C192.96 74.4002 189.04 76.5602 185.12 78.7202L156.8 94.1602L119.68 114.48L81.9198 135.12L51.1197 152L35.2797 160.64L34.5597 161.04C34.1597 161.28 36.6397 164.08 37.6797 163.52Z" fill="#2E6F40"/>
<path d="M181.199 238.24C183.452 238.24 185.279 236.413 185.279 234.16C185.279 231.907 183.452 230.08 181.199 230.08C178.946 230.08 177.119 231.907 177.119 234.16C177.119 236.413 178.946 238.24 181.199 238.24Z" fill="white"/>
<path d="M181.12 231.36C181.84 230.96 182.56 230.8 183.36 230.88C183.68 230.88 183.28 230.88 183.52 230.88H183.6C183.68 230.88 183.76 230.88 183.6 230.88H183.68C183.12 230.72 182.56 230.48 182.08 230.24L181.92 230.16C182 230.24 182 230.24 181.92 230.16C182.24 230.32 182.48 230.56 182.64 230.88C184.08 232.64 183.76 235.2 182.08 236.56C181.36 237.12 180.4 237.44 179.44 237.44C179.28 237.44 179.12 237.44 178.96 237.44H178.8H178.88C178.56 237.36 178.8 237.44 179.36 237.6L180.4 238.08L180.48 238.16C180.72 238.24 180.48 238.16 180.4 238.08C180.24 238 180.08 237.84 180 237.68C179.44 237.12 179.12 236.4 178.96 235.68C178.64 233.92 179.44 232.16 181.04 231.28C181.12 231.28 180.48 230.88 180.56 230.88C180.16 230.64 179.68 230.48 179.28 230.24C178.88 230.08 178.4 229.92 177.92 229.76C177.76 229.68 177.44 229.6 177.28 229.68C175.6 230.56 174.8 232.48 175.28 234.32C175.52 235.2 176.08 236 176.8 236.64C177.44 237.12 178.08 237.52 178.88 237.84C179.84 238.32 180.8 238.64 181.84 238.88C183.76 239.36 185.68 238.48 186.56 236.8C187.44 235.12 187.04 233.04 185.6 231.76C185.04 231.28 184.48 230.96 183.84 230.64C182.72 230.08 181.6 229.6 180.4 229.36C179.36 229.12 178.24 229.28 177.28 229.76C177.2 229.76 177.84 230.16 177.76 230.16C178.16 230.4 178.64 230.56 179.04 230.8C179.44 230.96 179.92 231.12 180.4 231.28C180.64 231.36 180.96 231.44 181.12 231.36Z" fill="#2E6F40"/>
<path d="M202.214 80.8964L40.0703 169.563L88.4725 258.076L250.616 169.409L202.214 80.8964Z" fill="#2E6F40"/>
<path d="M41.4388 170.88L45.8388 168.48L57.5988 162.08L75.1188 152.48L96.3988 140.8L119.679 128.08L143.199 115.2L165.119 103.2L183.679 93.0403L197.039 85.7603C199.119 84.6403 201.359 83.5203 203.359 82.3203L203.599 82.1603L200.639 81.2003L205.439 90.0003L217.039 111.2L231.039 136.72L243.119 158.88L247.119 166.16C247.679 167.36 248.319 168.48 249.039 169.6C249.039 169.68 249.119 169.68 249.119 169.76L249.439 168.24L245.039 170.64L233.279 177.04L215.759 186.64L194.399 198.24L171.119 210.96L147.599 223.84L125.679 235.84L107.119 246L93.7588 253.28C91.6788 254.4 89.5188 255.52 87.4388 256.72L87.1988 256.88L90.2388 257.84L85.4388 249.04L73.8388 227.84L59.9188 202.32L47.8388 180.16L43.8388 172.88C43.1988 171.76 42.6388 170.48 41.9188 169.44C41.9188 169.36 41.8388 169.36 41.8388 169.28C41.0388 167.84 37.3588 167.76 38.5588 169.84L43.3588 178.64L54.9588 199.84L68.7988 225.36L80.8788 247.52L84.8788 254.8C85.5188 255.92 86.0788 257.2 86.7988 258.24C86.7988 258.32 86.8788 258.32 86.8788 258.4C87.5988 259.36 88.7988 259.76 89.9188 259.36L94.2388 256.96L105.999 250.56L123.519 240.96L144.799 229.36L168.079 216.64L191.599 203.76L213.519 191.76L231.999 181.6L245.359 174.32C247.439 173.2 249.599 172.08 251.679 170.88L251.919 170.72C252.559 170.4 252.559 169.76 252.239 169.2L247.439 160.4L235.919 139.2L221.999 113.68L209.919 91.5203L205.919 84.2403C205.279 83.1203 204.719 81.8403 203.999 80.8003C203.999 80.7203 203.919 80.7203 203.919 80.6403C203.199 79.6803 201.999 79.2803 200.879 79.6803L196.559 82.0803L184.799 88.4803L167.279 98.0803L145.999 109.76L122.719 122.48L99.2788 135.28L77.3588 147.28L58.7988 157.44L45.4388 164.72C43.3588 165.84 41.1988 166.96 39.1188 168.16L38.8788 168.32C36.8788 169.36 40.0788 171.6 41.4388 170.88Z" fill="#2E6F40"/>
<path d="M128.88 236.08L115.68 223.84L113.84 222.16L114.64 223.52L122.48 212.72L134.96 195.52L137.84 191.52C137.92 191.44 137.92 191.28 137.84 191.12L132.24 180.4L123.28 163.36L121.2 159.44V159.84L137.36 149.04L139.68 147.52L139.76 147.36L134.8 122.8L134.08 119.36C133.92 118.64 133.04 117.92 132.4 117.52C132.32 117.44 130.8 116.56 130.96 117.12L135.36 138.8L136.32 143.68C136.4 144.08 136.48 144.48 136.56 144.88C136.64 145.28 136.72 144.88 136.48 145.04C133.44 146.88 130.48 149.04 127.52 151.04L118.24 157.28C118.16 157.44 118.16 157.52 118.32 157.68L123.92 168.4L132.88 185.44L134.96 189.36L134.88 188.96L127.04 199.76L114.48 216.8L111.6 220.8C111.36 221.12 112.24 222 112.4 222.16L125.6 234.4L127.44 236.16C127.84 236.56 128.96 237.68 129.52 237.44C130.08 237.2 129.04 236.16 128.88 236.08Z" fill="#000005"/>
<path d="M124.479 211.04L136.559 206.16C137.199 206 137.519 205.36 137.359 204.72C137.279 204.56 137.199 204.4 137.119 204.24C136.479 203.44 135.359 203.12 134.399 203.44L122.319 208.32C121.679 208.48 121.359 209.12 121.519 209.76C121.599 209.92 121.679 210.08 121.759 210.24C122.399 210.96 123.519 211.28 124.479 211.04Z" fill="#000005"/>
<path d="M164.08 151.68C169.76 152.64 175.36 153.92 180.88 155.6C181.52 155.76 182.8 156.16 183.12 155.28C183.44 154.4 182.16 153.76 181.6 153.6C175.76 151.84 169.84 150.4 163.84 149.44C163.28 149.36 162.08 149.28 162.08 150.16C162.08 151.04 163.52 151.6 164.08 151.68Z" fill="white"/>
<path d="M170.8 162.88C170.48 156.4 171.04 149.92 172.4 143.6C172.72 142.16 169.12 140.4 168.8 142.08C167.44 148.4 166.96 154.88 167.2 161.36C167.36 162.24 168 163.04 168.88 163.28C169.28 163.52 170.8 163.84 170.8 162.88Z" fill="white"/>
<path d="M103.599 184.56L124.799 192C125.119 192.08 124.399 190.72 124.319 190.64C124.079 190.16 123.439 188.88 122.879 188.64L101.679 181.2C101.359 181.12 102.079 182.48 102.159 182.56C102.399 183.04 102.959 184.4 103.599 184.56Z" fill="white"/>
<path d="M108.879 196.8C109.119 189.68 109.999 182.64 111.519 175.76C111.839 174.48 108.639 172.08 108.399 173.44C106.799 180.56 105.919 187.84 105.759 195.12C105.679 196.32 108.799 198.64 108.879 196.8Z" fill="white"/>
<path d="M145.439 196.24C146.079 190.4 149.439 185.28 154.399 182.24C159.919 179.12 166.639 178.96 172.319 181.92C173.199 182.48 174.399 182.32 175.119 181.52C175.679 180.88 175.919 179.6 174.959 179.12C169.519 176.24 163.199 175.52 157.279 177.28C148.559 180 142.399 187.6 141.519 196.64C141.439 197.68 142.719 198.24 143.519 198.08C144.559 198.08 145.359 197.28 145.439 196.24Z" fill="white"/>
<path d="M190.561 93.4398L194.321 89.8398C194.321 89.8398 195.921 95.4398 204.641 90.6398C213.361 85.8398 202.321 73.6798 202.241 70.6398C202.161 67.5998 204.961 61.8398 204.961 61.8398L207.761 62.2398C207.761 62.2398 204.321 67.3598 207.121 72.0798C209.921 76.7998 222.721 90.0798 210.881 96.4798C199.041 102.88 190.561 93.4398 190.561 93.4398Z" fill="#000005"/>
<path d="M192.16 94.6404L195.92 91.0404L192.56 89.6004C193.12 91.6004 195.2 93.0404 197.04 93.6004C198.96 94.1604 201.04 94.0804 202.88 93.3604C204.96 92.6404 207.2 91.6804 208.64 89.8404C210.8 87.1204 209.76 83.2804 208.56 80.4004C207.36 77.5204 205.44 74.8804 204.32 72.1604C204.24 71.9204 204.16 71.6804 204.08 71.4404C204.16 71.6804 204.08 71.4404 204.08 71.3604C204.08 71.2804 204.08 70.8804 204.08 70.6404C204.24 69.5204 204.48 68.4004 204.88 67.3604C205.44 65.8404 206 64.4004 206.72 62.9604L205.44 63.2804L208.24 63.6804L206 61.4404C205.12 62.8004 204.56 64.3204 204.32 65.8404C203.92 68.3204 204.56 70.8804 206.08 72.9604C208.24 76.0804 210.64 79.0404 212.32 82.4804C214 85.9204 215.04 90.1604 212.24 93.2804C210.4 95.2804 207.6 96.4804 205.04 97.1204C202.8 97.6804 200.56 97.6004 198.32 97.0404C197.76 96.8804 197.2 96.7204 196.64 96.4804L196.48 96.4004L196.16 96.2404C195.92 96.1604 195.68 96.0004 195.44 95.9204C195.2 95.8404 194.96 95.6804 194.8 95.5204L194.72 95.4404L194.48 95.2804C194.16 95.0404 193.76 94.8004 193.44 94.5604L193.04 94.2404C192.96 94.2404 192.56 93.8404 192.8 94.0004L192.64 93.8404L192.32 93.6004C192.16 93.4404 192 93.2804 191.84 93.0404C191.2 92.3204 190.24 92.0004 189.2 92.0804C188.32 92.4004 188.72 93.2004 189.2 93.6804C191.2 95.7604 193.6 97.4404 196.32 98.4804C201.44 100.64 207.28 100.4 212.24 97.7604C216.56 96.0004 218.8 91.1204 217.28 86.7204C216.24 82.4004 213.44 78.6404 210.88 75.1204C209.52 73.2804 208 71.5204 207.84 69.1204C207.76 67.0404 208.4 64.9604 209.52 63.2004C210.16 62.2404 207.92 61.1204 207.28 60.9604L204.48 60.5604C204.08 60.4804 203.44 60.4804 203.2 60.8804C201.92 63.5204 200.48 66.5604 200.4 69.5204C200.4 70.5604 200.72 71.5204 201.28 72.4004C202 73.7604 202.72 75.0404 203.44 76.3204C204.8 78.8804 206.4 81.9204 206.16 84.8804C205.92 88.5604 201.84 90.4804 198.56 91.0404C198.16 91.1204 197.68 91.1204 197.28 91.1204C197.52 91.1204 196.32 90.9604 196.88 91.0404C196.8 91.0404 196.24 90.8804 196.8 91.0404C196.72 91.0404 196.08 90.7204 196.72 91.0404C196.64 90.9604 196.48 90.8804 196.4 90.8004C196.64 91.1204 196.56 90.9604 196.48 90.8004C196.16 90.4004 196.4 90.6404 196.48 90.8004C196.4 90.7204 196.32 90.6404 196.24 90.4804C196.16 90.3204 196 90.0004 196.16 90.3204C196.08 90.1604 196 90.0004 196 89.8404C195.76 88.9604 193.52 87.5204 192.64 88.4004L188.88 92.0004C187.84 93.5204 191.2 95.6004 192.16 94.6404Z" fill="#000005"/>
<path d="M206.161 44.6396C206.161 44.6396 201.201 61.6796 202.481 63.3596C203.761 65.0396 207.921 65.1196 207.921 65.1196C207.921 65.1196 220.001 55.4396 220.161 53.7596C220.321 52.0796 206.161 44.6396 206.161 44.6396Z" fill="#000005"/>
<path d="M204.32 44.64C203.2 48.56 202.16 52.48 201.28 56.48C200.8 58.56 200.16 60.88 200.32 63.04C200.56 65.84 204.32 66.4 206.56 66.56C207.6 66.72 208.56 66.4 209.36 65.84C209.92 65.44 210.4 64.96 210.96 64.56C212.96 62.96 214.96 61.28 216.88 59.52C218.48 58.08 220.4 56.56 221.6 54.72C222.8 52.88 221.12 51.68 219.76 50.64C215.92 47.92 211.84 45.6 207.6 43.52C206.64 43.12 205.6 43.28 204.88 44C204.32 44.56 204 45.52 204.8 46C208.88 48 212.8 50.32 216.64 52.88C216.96 53.12 217.36 53.36 217.68 53.68L218.08 54.08C218.16 54.16 218.16 54.16 218.24 54.24C218.24 54.08 218.48 54.48 218.24 54.24C218.24 54.48 218.32 53.92 218.32 53.84C218.24 54.16 218.24 54 218.32 53.92C218.08 54.24 217.84 54.56 217.52 54.88C217.84 54.56 217.2 55.2 217.12 55.28L216.56 55.84C216 56.4 215.44 56.88 214.96 57.36C213.84 58.4 212.72 59.36 211.6 60.32C210 61.68 208.4 63.04 206.72 64.4L208.64 63.68C207.12 63.76 205.6 63.28 204.4 62.48C204.16 62.32 204.72 62.72 204.4 62.48C204.32 62.4 204.32 62.24 204.4 62.56C204.4 62.24 204.4 62 204.4 61.68C204.48 60.96 204.56 60.24 204.64 59.44C205.36 55.52 206.24 51.6 207.36 47.84C207.68 46.8 207.92 45.76 208.24 44.72C208.64 42.64 204.8 42.96 204.32 44.64Z" fill="#000005"/>
<path d="M84.8803 277.12C69.1203 275.6 51.4403 274.48 38.0803 284.48C36.4003 285.6 35.0403 287.12 34.1603 288.88C33.5203 290.64 33.6803 292.56 34.7203 294.08C36.9603 297.76 41.4403 298.56 45.3603 298.96C54.6403 300 64.0803 299.76 73.2803 298.32C78.5603 297.52 83.7603 296.24 88.8003 294.64C92.8003 293.36 97.4403 291.68 99.4403 287.68C99.6003 287.44 99.2003 287.28 99.0403 287.2C94.8803 285.6 89.8403 286.24 86.4003 289.2C83.6803 291.6 82.6403 295.6 85.1203 298.48C87.2803 301.04 90.8803 301.92 93.9203 302.96C96.0803 303.68 98.1603 304.64 100.16 305.84C101.92 306.88 103.92 308.08 105.12 309.92C105.76 310.8 106.08 311.84 105.84 312.96C105.52 314.16 104.48 314.96 103.52 315.68C101.44 317.36 99.2803 318.8 96.9603 320.08C96.4803 320.32 95.8403 321.04 96.6403 321.28C97.4403 321.52 98.6403 320.96 99.2803 320.56C101.2 319.44 103.04 318.32 104.8 316.96C106.4 315.76 108.32 314.56 109.2 312.8C111.2 309.04 106.48 305.84 103.76 304.16C102 303.12 100.08 302.16 98.1603 301.44C96.5603 300.8 94.8803 300.4 93.3603 299.76C90.5603 298.64 87.2803 296.64 87.4403 293.2C87.5203 291.36 88.4803 289.68 89.9203 288.72C91.6803 287.68 94.2403 288.4 96.0003 289.04L95.6003 288.56C94.1603 291.44 90.8003 292.4 88.0003 293.28C84.0803 294.48 80.0003 295.44 75.9203 296.16C67.6803 297.52 59.3603 297.92 51.0403 297.28C47.3603 296.96 42.9603 296.88 40.0003 294.48C38.6403 293.44 37.7603 291.92 37.5203 290.24C37.4403 288.48 38.1603 286.72 39.6003 285.6C44.4803 281.12 51.3603 279.2 57.8403 278.48C65.8403 277.52 74.0003 278.24 82.0003 278.96C82.9603 279.04 83.8403 278.8 84.6403 278.24C84.8803 278.16 85.8403 277.2 84.8803 277.12Z" fill="#000005"/>
<path d="M70.961 311.68C70.961 311.68 38.561 348.72 41.441 349.2C44.321 349.68 328.641 349.2 329.761 346.32C330.881 343.44 302.561 313.92 300.881 311.76C299.201 309.6 70.961 311.68 70.961 311.68Z" fill="white"/>
<path d="M69.6 310.16C62.64 318.08 55.76 326.16 49.2 334.32C47.28 336.72 45.36 339.12 43.44 341.68C42.16 343.28 41.04 344.96 40.08 346.72C39.04 348.88 40.96 350.8 43.12 350.8C47.68 350.88 52.32 350.88 56.88 350.88C65.92 350.88 75.04 350.88 84.08 350.88C96.32 350.88 108.64 350.88 120.88 350.8C135.12 350.8 149.36 350.72 163.6 350.64C178.48 350.56 193.36 350.48 208.32 350.4C222.56 350.32 236.8 350.16 251.04 350C263.36 349.84 275.68 349.68 288 349.52C297.12 349.36 306.32 349.2 315.44 348.88C320.24 348.72 325.12 348.8 329.84 348.08C330.16 348.08 330.56 348 330.8 347.84C332 347.2 331.04 345.44 330.56 344.64C329.28 342.48 327.84 340.4 326.16 338.56C323.84 335.68 321.44 332.88 318.96 330.16C314.32 324.88 309.6 319.76 304.8 314.64L302.64 312.32C302.4 312.08 302.16 311.84 301.92 311.52L301.68 311.28C301.28 310.88 302.24 311.84 301.68 311.28C301.04 310.56 300.24 310.08 299.28 309.92C297.52 309.68 295.76 309.6 293.92 309.6C290.56 309.52 287.28 309.44 283.92 309.36C273.6 309.2 263.2 309.2 252.88 309.12C239.28 309.12 225.76 309.12 212.16 309.12C197.44 309.2 182.64 309.2 167.92 309.28C153.92 309.36 139.92 309.44 125.92 309.52L92.16 309.76L72.56 309.92H70C68.16 309.92 70.32 313.12 71.6 313.12L81.84 313.04L108.88 312.8C121.52 312.72 134.24 312.64 146.88 312.48C161.28 312.4 175.68 312.32 190.08 312.24C204.32 312.16 218.56 312.16 232.88 312.08C245.12 312.08 257.36 312.08 269.6 312.16C277.84 312.24 286 312.24 294.24 312.48C296.24 312.56 298.32 312.56 300.32 312.8L301.04 312.88C301.52 312.88 300.88 312.8 301.12 312.88C300.72 312.64 300.32 312.4 300 312.08C299.2 311.36 299.92 312 300.16 312.24C300.4 312.48 300.56 312.64 300.72 312.88C301.36 313.6 301.92 314.24 302.56 314.88C307.12 319.76 311.6 324.72 316.08 329.68C320.16 334.32 324.48 338.8 327.76 344C327.92 344.24 327.68 343.76 327.84 344.24L328.08 344.72C328.32 345.12 328 344.48 328.08 344.8C328.16 345.12 328.08 344.88 328.08 344.88C328.08 344.88 328.24 344.56 328.32 344.56C327.92 344.56 327.52 344.64 327.2 344.8C325.44 345.04 323.68 345.12 321.92 345.2C315.12 345.6 307.92 345.76 300.8 345.92C290 346.16 279.2 346.32 268.4 346.48C255.12 346.64 241.84 346.8 228.64 346.88C214.16 347.04 199.68 347.12 185.12 347.2C170.56 347.28 156.08 347.36 141.6 347.44C128.32 347.52 114.96 347.52 101.68 347.52C90.8 347.52 79.92 347.52 69.04 347.52C61.84 347.52 54.56 347.52 47.36 347.44C45.52 347.44 43.68 347.44 41.84 347.36C41.44 347.36 41.04 347.28 40.64 347.36C39.28 347.44 43.12 349.36 42.64 349.68C42.8 349.6 42.48 349.92 42.64 349.76C42.8 349.6 42.72 349.52 42.72 349.44C42.88 349.2 42.96 348.88 43.12 348.64C44.16 346.88 45.36 345.12 46.72 343.52C48.64 340.96 50.64 338.56 52.64 336.08C56.96 330.8 61.36 325.52 65.84 320.32C68 317.84 70.08 315.44 72.24 312.96C73.28 312 70.48 309.2 69.6 310.16Z" fill="#2E6F40"/>
<path d="M44.9595 353.44L41.4395 349.12L329.759 346.24C329.759 346.24 328.719 351.92 323.039 353.52C317.359 355.12 52.6395 356.64 44.9595 353.44Z" fill="#2E6F40"/>
<path d="M46.9596 353.68L43.3596 349.36L42.7196 349.44L50.4796 349.36L71.4396 349.12L102.56 348.8L140.24 348.4L181.84 348L223.52 347.6L262.64 347.2L295.52 346.88L319.28 346.64C323.04 346.64 326.72 346.64 330.48 346.56H331.04L327.68 346C327.12 348.56 325.6 350.72 323.44 352.16C322.64 352.64 321.76 353.04 320.8 353.28C320.64 353.36 320.88 353.28 320.48 353.28C319.04 353.44 317.68 353.44 316.24 353.52C310.24 353.76 304.24 353.84 298.24 354C288.8 354.16 279.36 354.32 269.92 354.4C258.16 354.56 246.4 354.64 234.64 354.72C221.44 354.8 208.24 354.88 195.04 354.96C181.6 355.04 168.08 355.04 154.64 355.04C141.84 355.04 129.04 355.04 116.32 354.96C105.28 354.88 94.2396 354.8 83.1996 354.72C74.9596 354.64 66.6396 354.48 58.3996 354.24L56.0796 354.16H54.9596H54.4796H54.1596C52.8796 354.08 51.5996 354.08 50.3996 354L48.7996 353.92L48.1596 353.84H47.8396C47.4396 353.84 48.3196 353.84 47.8396 353.84L46.6396 353.68C46.0796 353.6 47.1196 353.68 46.6396 353.68C46.4796 353.68 45.9196 353.6 46.3996 353.68C46.8796 353.76 46.3996 353.68 46.2396 353.68C46.5596 353.68 46.7196 353.76 46.3996 353.68C46.6396 353.6 46.7996 353.68 46.9596 353.68C46.1596 353.36 45.3596 353.28 44.5596 353.2C44.0796 353.2 43.5996 353.2 43.1196 353.28C44.7996 353.84 46.4796 354.08 48.2396 354.16C50.4796 354.32 52.7196 354.48 54.9596 354.56C62.3196 354.88 69.5996 355.04 76.9596 355.12C87.3596 355.28 97.7596 355.44 108.16 355.44C120.72 355.52 133.28 355.6 145.92 355.6C159.52 355.6 173.04 355.6 186.64 355.6C200.24 355.6 213.76 355.52 227.28 355.44C239.76 355.36 252.24 355.28 264.72 355.12C275.04 355.04 285.28 354.88 295.6 354.72C302.64 354.64 309.68 354.48 316.72 354.24C320.32 354.16 324.72 354.64 327.92 352.4C329.92 350.96 331.36 348.88 331.92 346.4C332 346.08 328.88 345.84 328.56 345.84L320.8 345.92L299.92 346.16L268.8 346.48L231.04 346.88L189.44 347.28L147.76 347.68L108.64 348.08L75.7596 348.4L51.9196 348.64L40.7196 348.72H40.2396C40.3996 348.72 39.5996 348.72 39.5996 348.8L43.1196 353.12C43.4396 353.52 44.6396 353.52 45.1196 353.6C45.1996 353.68 46.8796 353.68 46.9596 353.68Z" fill="#2E6F40"/>
<path d="M93.8395 320.96H98.8795L112.399 320.88L132.479 320.8L156.879 320.64L183.759 320.48L210.719 320.32L235.999 320.16L257.199 320L272.559 319.92C274.959 319.92 277.359 319.92 279.759 319.92H280.079C280.799 319.92 280.479 319.2 280.159 318.96C279.679 318.4 278.959 318.08 278.239 318.08H273.199L259.679 318.16L239.599 318.24L215.199 318.4L188.319 318.56L161.359 318.72L136.079 318.88L114.879 318.96L99.5195 319.04C97.1195 319.04 94.7195 319.04 92.3195 319.12H91.9995C91.2795 319.12 91.5995 319.84 91.9195 320.08C92.3995 320.64 93.1195 320.96 93.8395 320.96Z" fill="#2E6F40"/>
<path d="M93.8401 321.361C92.9601 321.361 92.1601 320.961 91.6001 320.321C91.2801 320.001 91.1201 319.521 91.2001 319.121C91.3601 318.801 91.6801 318.641 92.0001 318.721H92.3201C93.9201 318.721 95.6001 318.721 97.1201 318.721C97.9201 318.721 98.7201 318.721 99.5201 318.721L278.24 317.681C279.12 317.761 279.92 318.081 280.48 318.721C280.8 319.041 280.96 319.521 280.88 319.921C280.72 320.241 280.4 320.401 280.08 320.321H279.76C278.16 320.401 276.48 320.401 274.88 320.321H272.48L93.8401 321.361ZM93.8401 320.561L272.56 319.521H274.96C276.56 319.521 278.16 319.521 279.76 319.521H280.08C280 319.441 280 319.281 279.92 319.201C279.44 318.721 278.88 318.481 278.24 318.401L99.5201 319.441C98.7201 319.441 97.9201 319.441 97.1201 319.441C95.5201 319.441 93.9201 319.441 92.3201 319.441H92.0001C92.0801 319.521 92.0801 319.681 92.1601 319.761C92.6401 320.241 93.2001 320.481 93.8401 320.561Z" fill="#2E6F40"/>
<path d="M86.9598 329.6H92.2398L106.56 329.52L127.84 329.44L153.68 329.28L182.16 329.12L210.72 328.96L237.6 328.8L260.08 328.72L276.4 328.64C278.96 328.64 281.52 328.64 284.08 328.64H284.4C285.2 328.56 285.92 328.32 286.48 327.84C286.88 327.44 286.8 327.28 286.16 327.28H280.88L266.56 327.36L245.28 327.44L219.44 327.6L190.96 327.76L162.4 327.92L135.6 328.08L113.12 328.16L96.7998 328.24C94.2398 328.24 91.6798 328.24 89.1198 328.24H88.7998C87.9998 328.24 87.2798 328.56 86.7198 329.04C86.2398 329.36 86.3998 329.52 86.9598 329.6Z" fill="#2E6F40"/>
<path d="M86.9608 330C86.4808 330 86.1608 329.84 86.0008 329.6C85.8408 329.36 86.0008 329.04 86.4008 328.72C87.0408 328.24 87.9208 327.92 88.7208 327.84H89.0408C90.8008 327.84 92.4808 327.84 94.1608 327.84H96.7208L286.161 326.8C286.641 326.8 286.961 326.96 287.041 327.2C287.121 327.44 287.041 327.76 286.641 328.08C286.001 328.56 285.121 328.88 284.321 328.96H284.001C282.321 328.96 280.561 328.96 278.881 328.96H276.321L86.9608 330ZM93.4408 328.64C92.0008 328.64 90.4808 328.64 89.0408 328.64H88.8008C88.1608 328.64 87.6008 328.88 87.1208 329.2L276.401 328.16H278.961C280.641 328.16 282.321 328.16 284.081 328.16H284.401C285.041 328.16 285.601 327.92 286.161 327.6L96.8008 328.64H93.4408Z" fill="#2E6F40"/>
<path d="M80.7208 338.72H86.4008L101.681 338.64L124.401 338.56L151.921 338.4L182.321 338.24L212.801 338.08L241.441 337.92L265.441 337.84L282.801 337.76C285.521 337.76 288.241 337.76 290.961 337.76H291.281C292.001 337.84 292.801 337.52 293.361 337.04C293.761 336.56 293.041 336.32 292.481 336.32H286.801L271.521 336.4L248.801 336.48L221.201 336.64L190.801 336.8L160.321 336.96L131.681 337.12L107.681 337.28L90.3208 337.36C87.6008 337.36 84.8808 337.36 82.1608 337.36H81.8408C81.1208 337.28 80.3208 337.6 79.7608 338.08C79.5208 338.56 80.1608 338.72 80.7208 338.72Z" fill="#2E6F40"/>
<path d="M80.7207 339.2C80.4807 339.2 79.7607 339.12 79.4407 338.64C79.2807 338.4 79.3607 338.08 79.5207 337.84C80.0007 337.12 81.2807 336.96 81.9207 336.96H82.2407C84.0807 336.96 85.9207 336.96 87.7607 336.96L107.841 336.88L292.561 335.92C292.801 335.92 293.521 335.92 293.841 336.48C294.001 336.72 293.921 337.04 293.761 337.28C293.281 338 292.081 338.16 291.361 338.16H290.961C289.121 338.16 287.361 338.16 285.521 338.16H282.721L80.7207 339.2ZM80.1607 338.32C80.3207 338.4 80.4807 338.4 80.7207 338.4L282.801 337.36H285.601C287.361 337.36 289.201 337.36 291.041 337.36H291.441C292.081 337.36 292.641 337.2 293.121 336.8C292.961 336.72 292.801 336.72 292.641 336.72L87.8407 337.76C86.0007 337.76 84.1607 337.76 82.4007 337.76H82.0807C81.3607 337.68 80.7207 337.92 80.1607 338.32Z" fill="#2E6F40"/>
<path d="M154 313.44L149.36 323.52L142 339.44L140.32 343.12C139.92 344 142 345.92 142.64 344.64L147.28 334.56L154.64 318.64L156.32 314.96C156.8 314 154.64 312.08 154 313.44Z" fill="#2E6F40"/>
<path d="M142 345.44C141.76 345.44 141.52 345.36 141.36 345.28C140.56 344.88 139.6 343.76 140 342.88L153.68 313.2C153.92 312.64 154.64 312.32 155.2 312.64C155.28 312.64 155.28 312.72 155.36 312.72C156.16 313.12 157.12 314.24 156.72 315.12L143.04 344.8C142.88 345.2 142.48 345.44 142 345.44ZM154.4 313.6L140.72 343.28C140.56 343.6 141.12 344.32 141.68 344.56C142.16 344.8 142.24 344.56 142.32 344.48L156 314.8C156.16 314.48 155.6 313.76 155.04 313.52C154.56 313.28 154.48 313.44 154.4 313.6Z" fill="#2E6F40"/>
<path d="M185.201 314V343.28C185.201 344.48 188.321 343.84 188.321 342.8V313.52C188.241 312.32 185.201 312.96 185.201 314Z" fill="#2E6F40"/>
<path d="M186.161 344.32C185.841 344.32 185.521 344.24 185.281 344.08C184.961 343.92 184.801 343.6 184.801 343.28V314C184.801 313.04 186.241 312.48 187.281 312.48C187.601 312.48 187.921 312.56 188.161 312.64C188.481 312.8 188.641 313.12 188.641 313.44V342.72C188.641 343.76 187.201 344.32 186.161 344.32ZM187.281 313.28C186.481 313.28 185.601 313.76 185.601 314V343.28C185.601 343.36 185.601 343.36 185.681 343.44C185.841 343.52 186.001 343.52 186.161 343.52C187.041 343.52 187.841 343.04 187.841 342.8V313.52C187.841 313.44 187.841 313.36 187.761 313.36C187.601 313.28 187.441 313.28 187.281 313.28Z" fill="#2E6F40"/>
<path d="M216.401 314L220.881 323.76L228.001 339.28L229.601 342.88C229.761 343.2 232.641 342.08 232.481 341.6L228.001 331.84L220.881 316.32L219.281 312.72C219.201 312.48 216.241 313.52 216.401 314Z" fill="#2E6F40"/>
<path d="M229.84 343.28C229.6 343.28 229.44 343.2 229.28 343.04L216.08 314.16C215.76 313.52 216.8 313.04 217.2 312.88C218.64 312.24 219.44 312.16 219.6 312.56L232.8 341.44C233.12 342.08 232.08 342.56 231.6 342.72C231.12 343.04 230.48 343.2 229.84 343.28ZM216.88 314L229.92 342.56C230.64 342.4 231.44 342.08 232.08 341.68L219.04 313.12C218.24 313.28 217.52 313.6 216.88 314Z" fill="#2E6F40"/>
<path d="M107.92 315.04L100.96 324.4L89.8399 339.36L87.2799 342.8C86.7199 343.6 89.8399 344.16 90.3199 343.44L97.2799 334.08L108.4 319.12L110.96 315.68C111.6 314.8 108.48 314.32 107.92 315.04Z" fill="#2E6F40"/>
<path d="M89.2794 344.08C88.5594 344.08 87.8394 343.92 87.2794 343.6C86.9594 343.36 86.7994 342.96 87.0394 342.64C87.0394 342.64 87.0394 342.56 87.1194 342.56L107.679 314.8C108.079 314.24 109.199 314.32 109.679 314.32C109.999 314.32 111.199 314.56 111.439 315.2C111.519 315.44 111.519 315.68 111.359 315.92L90.7994 343.68C90.3194 344 89.7594 344.16 89.2794 344.08ZM87.6794 342.96C88.1594 343.2 88.6394 343.28 89.1194 343.28C89.7594 343.28 89.9994 343.2 90.0794 343.12L110.639 315.44C110.239 315.2 109.679 315.04 109.199 315.04C108.559 315.04 108.319 315.12 108.239 315.2L87.6794 342.96Z" fill="#2E6F40"/>
<path d="M255.921 315.84C255.521 315.6 255.841 315.84 256.001 316C256.161 316.16 256.401 316.4 256.561 316.64C257.121 317.28 257.681 318 258.241 318.64C259.921 320.72 261.601 322.88 263.201 325.04C266.721 329.6 270.161 334.16 273.601 338.8L276.001 342C276.481 342.56 277.281 342.72 278.001 342.48C278.561 342.32 279.441 341.52 278.961 340.96C276.801 338 274.561 335.04 272.321 332.16C268.721 327.36 265.041 322.48 261.281 317.76C260.641 316.96 259.921 316.08 259.281 315.28C258.881 314.8 258.481 314.4 258.001 314C256.641 313.2 254.321 314.96 255.921 315.84Z" fill="#2E6F40"/>
<path d="M277.28 342.961C276.64 342.961 276.08 342.721 275.68 342.161L273.28 338.961C270.48 335.201 266.72 330.241 262.88 325.201C261.28 323.121 259.6 320.961 257.92 318.801C257.36 318.081 256.8 317.441 256.24 316.801C256.08 316.561 255.84 316.401 255.68 316.161C255.6 316.081 255.52 316.001 255.44 316.001L255.12 315.761V315.681C254.8 315.281 254.8 314.721 255.04 314.321C255.68 313.361 256.96 312.961 258.08 313.521C258.56 313.841 259.04 314.241 259.36 314.721L259.52 314.881C260.24 315.681 260.88 316.481 261.52 317.361C265.12 321.921 268.72 326.561 272.08 331.121L272.56 331.761C274.8 334.721 276.96 337.601 279.2 340.561C279.36 340.801 279.44 341.121 279.36 341.441C279.12 342.001 278.64 342.481 278 342.721C277.84 342.881 277.6 342.961 277.28 342.961ZM256.08 315.521L256.24 315.681C256.4 315.921 256.64 316.081 256.8 316.321C257.36 317.041 257.92 317.681 258.48 318.401C260.24 320.561 261.92 322.721 263.52 324.801C267.36 329.841 271.12 334.801 273.92 338.561L276.32 341.761C276.72 342.161 277.36 342.321 277.84 342.081C278.16 341.921 278.48 341.681 278.64 341.361C278.64 341.281 278.64 341.201 278.64 341.201C276.48 338.241 274.24 335.281 272 332.401L271.52 331.761C268.08 327.281 264.56 322.561 260.96 318.081C260.32 317.281 259.6 316.401 258.96 315.601L258.8 315.441C258.48 315.041 258.16 314.721 257.68 314.401C256.96 314.161 256.16 314.321 255.76 314.961C255.68 315.121 255.68 315.281 256.08 315.521Z" fill="#2E6F40"/>
<path d="M308.72 166.64C308.72 166.64 285.84 137.28 271.52 128C263.84 122.96 258.8 119.84 256.8 121.92C255.04 123.76 259.2 127.12 261.44 128.96C262.24 129.68 262.88 130.48 263.36 131.44C263.36 131.44 262.72 132.8 259.6 135.12C256.48 137.44 254.24 142 255.92 143.12C257.2 143.92 258.64 142.8 259.92 141.12C259.92 141.12 258.16 144.56 260.08 145.84C261.28 146.64 262.32 145.04 262.96 143.6C263.44 142.72 264.08 141.92 264.88 141.28C264.88 141.28 267.92 148.08 274.16 146.16L302.56 183.44L310.32 170.08L308.72 166.64Z" fill="white"/>
<path d="M309.999 165.84C307.599 162.8 305.119 159.76 302.639 156.8C297.439 150.56 291.999 144.48 286.319 138.8C283.519 136 280.639 133.28 277.599 130.72C274.079 127.92 270.399 125.44 266.479 123.2C264.799 122.08 263.039 121.28 261.119 120.64C259.519 120.24 258.399 120.72 257.039 121.6C256.399 122 255.519 122.48 255.279 123.28C255.119 124.08 255.359 124.88 255.839 125.44C257.039 127.28 258.879 128.48 260.479 129.92C260.879 130.32 261.279 130.72 261.599 131.2C261.839 131.44 261.999 131.76 262.159 132.08C262.079 132.32 261.919 132.56 261.759 132.72C260.319 134.48 258.319 135.6 256.879 137.2C255.679 138.56 254.159 140.56 254.239 142.48C254.239 143.2 254.719 143.84 255.519 143.92C256.559 144.08 257.679 143.28 258.479 142.8C259.599 142.08 260.559 141.2 261.359 140.24L258.879 141.68C258.559 142.4 258.239 143.12 258.159 143.92C257.999 145.04 258.399 146.8 259.839 146.64C260.639 146.48 261.359 146.08 261.999 145.6C262.639 145.2 263.279 144.64 263.759 144C264.559 142.8 265.119 141.52 266.239 140.56L263.839 141.92C264.399 143.2 265.199 144.24 266.239 145.2C268.159 146.96 270.879 147.52 273.359 146.72H273.119L282.719 159.36L297.999 179.44L301.519 184.08C301.679 184.32 303.919 182.88 304.079 182.56L307.839 176.08L310.559 171.44L311.439 169.92C311.519 169.76 311.839 169.44 311.839 169.2C311.919 168.72 311.359 168 311.119 167.6L309.999 165.84C309.919 165.68 307.199 167.04 307.359 167.36L308.079 168.96C308.479 169.52 308.799 170.24 308.959 170.88C308.959 170.96 308.959 170.8 308.959 170.96C308.879 171.12 308.799 171.2 308.719 171.36L307.919 172.72L302.719 181.68L301.279 184.16L303.839 182.64L294.239 170L278.959 149.92L275.439 145.28C275.359 145.28 275.279 145.28 275.199 145.28C271.359 146.4 267.679 143.84 266.079 140.4C265.999 140.16 263.839 141.6 263.679 141.76C262.959 142.4 262.319 143.12 261.839 143.92C261.519 144.4 261.279 144.96 260.959 145.44C260.879 145.6 260.719 145.76 260.639 145.92C262.079 145.44 262.399 145.12 261.599 145.04C261.359 144.96 261.199 144.8 261.039 144.64C259.999 143.52 260.639 141.52 261.199 140.32C261.279 140.08 260.239 140.64 260.239 140.64C259.679 140.88 259.119 141.28 258.719 141.68C258.479 142 258.159 142.32 257.919 142.64L257.679 142.88C258.479 142.48 258.639 142.4 258.159 142.48C257.759 142.24 257.359 142.4 257.039 142C256.719 141.44 256.639 140.72 256.879 140.08C257.519 138 258.799 136.08 260.479 134.72C261.999 133.68 263.359 132.4 264.479 131.04C264.559 130.96 264.719 130.72 264.719 130.56C264.719 130.4 264.479 130.16 264.399 130C264.079 129.44 263.679 128.96 263.199 128.56C261.759 127.12 259.999 126 258.719 124.4C258.159 123.84 257.839 123.12 257.679 122.32C257.599 121.84 257.839 121.68 257.919 121.28L257.999 121.2C258.399 120.72 257.919 120.96 256.559 122.08C256.719 122.08 256.879 122 257.039 122C258.479 121.84 259.999 122.64 261.279 123.28C263.359 124.4 265.359 125.6 267.359 126.88C270.479 128.8 273.439 130.96 276.239 133.36C279.119 135.84 281.839 138.48 284.559 141.2C289.759 146.48 294.719 152.08 299.519 157.76C302.159 160.88 304.799 164.08 307.359 167.36C307.679 167.68 310.079 166 309.999 165.84Z" fill="#000005"/>
<path d="M274.719 140.88C274.719 140.88 267.199 139.2 263.759 136.56C260.319 133.92 261.119 130.64 263.439 131.52C265.759 132.4 270.639 134.08 272.559 133.36" fill="white"/>
<path d="M274.158 139.68C271.038 139.04 268.078 138 265.278 136.56C264.478 136.16 263.678 135.6 263.038 134.96C262.878 134.72 262.718 134.48 262.638 134.24C262.558 133.92 262.558 133.6 262.638 133.28C262.798 132.72 263.358 132.48 263.838 132.56C263.838 132.56 263.838 132.56 263.918 132.56C264.878 132.8 265.758 133.2 266.638 133.52C267.838 133.92 269.118 134.24 270.398 134.48C271.358 134.72 272.398 134.72 273.438 134.48C273.998 134.32 273.518 133.52 273.358 133.2C273.198 132.88 272.398 131.84 271.838 132.08C270.878 132.32 269.918 132.32 268.958 132.08C267.758 131.84 266.558 131.52 265.358 131.12C264.398 130.72 263.438 130.4 262.478 130.16C261.678 130 260.958 130.4 260.638 131.12C260.238 132.16 260.798 133.36 261.278 134.24C262.078 135.6 263.198 136.8 264.558 137.76C266.558 139.04 268.798 140.08 271.038 140.8C272.478 141.28 273.998 141.68 275.438 142.08C276.078 142.24 275.838 141.52 275.678 141.2C275.358 140.48 274.878 139.92 274.158 139.68Z" fill="#000005"/>
<path d="M263.36 138.64C263.36 138.64 261.76 139.04 259.92 141.28L263.36 138.64Z" fill="white"/>
<path d="M262.798 137.52C261.758 137.84 260.798 138.4 259.998 139.2C259.518 139.68 259.038 140.16 258.638 140.64C258.478 140.88 258.478 141.2 258.558 141.52C258.718 141.84 258.958 142.08 259.278 142.24C259.918 142.56 260.718 142.48 261.278 141.92C261.438 141.68 261.678 141.44 261.918 141.2L261.678 141.44C262.238 140.8 262.958 140.24 263.678 139.84L263.358 140C263.598 139.84 263.918 139.76 264.158 139.68L263.838 139.76C264.158 139.68 264.398 139.52 264.638 139.28C264.798 139.04 264.798 138.72 264.718 138.4C264.558 138.08 264.318 137.84 263.998 137.68C263.598 137.52 263.198 137.44 262.798 137.52Z" fill="#000005"/>
<path d="M262.718 140.16C263.358 141.36 264.078 142.48 264.798 143.6C265.038 143.92 265.278 144.32 265.598 144.56C265.838 144.72 266.158 144.88 266.478 144.88C266.878 144.96 267.278 144.88 267.678 144.8C267.918 144.72 268.238 144.64 268.398 144.32C268.478 144.08 268.398 143.84 268.238 143.68C268.158 143.6 267.998 143.44 267.918 143.36L268.078 143.52C267.518 142.8 266.958 141.92 266.478 141.12C266.158 140.64 265.918 140.08 265.598 139.6C265.438 139.36 265.198 139.2 264.878 139.12C264.478 139.04 264.078 138.96 263.758 139.04C263.358 139.2 262.398 139.52 262.718 140.16Z" fill="#000005"/>
<path d="M347.759 220.319C347.759 220.319 346.319 226.079 348.239 225.919C350.159 225.759 350.799 220.479 350.799 220.479L347.759 220.319Z" fill="white"/>
<path d="M346.24 220.559C346.08 221.199 346 221.839 345.84 222.479C345.6 223.519 345.6 224.559 345.84 225.519C345.92 225.919 346.24 226.239 346.64 226.319C347.36 226.399 348 226.319 348.72 226.159C349.2 226.079 349.6 225.919 350 225.679C350.8 224.879 351.36 223.839 351.6 222.719C351.84 221.919 352 221.119 352.16 220.239C352.16 220.079 351.68 220.079 351.68 220.079L348.72 219.919C348 219.839 347.28 219.999 346.64 220.319C346.48 220.319 346.16 220.479 346.24 220.559C346.24 220.719 346.56 220.719 346.64 220.719L349.6 220.879L349.12 220.719C349.04 221.359 348.88 221.919 348.8 222.479C348.64 223.519 348.24 224.479 347.68 225.279C347.6 225.359 347.52 225.439 347.44 225.519L347.36 225.599C347.28 225.679 347.44 225.519 347.36 225.599L347.28 225.679C347.2 225.759 347.36 225.599 347.36 225.599C347.36 225.599 347.2 225.679 347.44 225.599C347.76 225.519 348.08 225.439 348.48 225.359C348.64 225.359 348.8 225.359 349.04 225.359H349.2C349.04 225.359 349.28 225.439 349.2 225.359L349.12 225.279L349.04 225.199C348.96 225.039 348.88 224.879 348.8 224.799C348.64 223.839 348.64 222.879 348.8 221.999C348.88 221.279 349.04 220.639 349.2 219.919C349.28 219.599 347.76 219.839 347.68 219.839C347.36 219.919 346.96 219.999 346.64 220.159C346.48 220.319 346.32 220.399 346.24 220.559Z" fill="#000005"/>
<path d="M334.08 233.92C334.08 233.92 341.76 227.52 343.44 227.52C345.12 227.52 359.28 226.64 360.4 227.52C361.52 228.4 368 235.44 368 235.44C368 235.44 368.24 244.8 367.44 245.92C366.64 247.04 334.8 246.48 334.08 245.92C333.36 245.36 334.08 233.92 334.08 233.92Z" fill="#2E6F40"/>
<path d="M335.359 233.92C337.839 231.76 340.479 229.76 343.279 228.08C343.519 228 344.079 227.84 343.599 227.92C343.599 227.92 342.319 228 342.879 228C342.959 228 343.119 228 343.279 228L345.279 227.92C347.359 227.84 349.439 227.76 351.519 227.68C353.439 227.6 355.439 227.6 357.359 227.68C357.919 227.68 358.399 227.76 358.959 227.84C359.039 227.92 359.119 228 359.199 228C359.439 228.24 359.679 228.4 359.839 228.64C361.279 230.08 362.639 231.6 364.079 233.04L365.839 234.96C365.999 235.12 366.159 235.36 366.399 235.52C366.639 235.68 366.559 235.84 366.559 235.68C366.639 236.16 366.639 236.56 366.559 237.04C366.559 237.92 366.559 238.88 366.559 239.76C366.639 241.68 366.559 243.6 366.239 245.44C366.239 245.52 365.999 246 366.079 246C366.079 245.92 366.639 245.76 366.719 245.68C366.399 245.76 367.119 245.6 366.639 245.68C366.319 245.76 366.719 245.68 366.639 245.68H366.239C364.799 245.84 363.919 245.84 362.479 245.84C354.879 246.08 347.199 245.92 339.599 245.68C338.559 245.68 337.359 245.6 336.239 245.52L335.759 245.44C335.519 245.44 335.359 245.36 335.599 245.44C335.599 245.44 335.519 245.12 335.519 244.96C335.359 243.28 335.279 241.6 335.439 239.92C335.439 238.08 335.519 236.24 335.679 234.4L335.759 233.52C335.759 233.12 332.799 233.28 332.799 234C332.639 237.36 332.399 240.72 332.559 244.08C332.559 244.96 332.399 246 333.439 246.16C334.399 246.32 335.279 246.4 336.239 246.4C344.239 246.8 352.319 246.88 360.399 246.72C361.999 246.72 363.599 246.64 365.119 246.48C366.319 246.48 367.519 246.24 368.639 245.84C369.759 245.36 369.599 243.36 369.599 242.32C369.679 240.24 369.679 238.16 369.679 236C369.759 235.6 369.679 235.2 369.599 234.8C369.359 234.4 369.039 234.08 368.639 233.84C367.119 232.24 365.679 230.64 364.159 229.04C363.359 228.16 362.479 226.88 361.199 226.64C359.359 226.4 357.599 226.32 355.759 226.4C351.919 226.4 348.159 226.64 344.319 226.8C342.239 226.88 340.639 227.92 338.959 229.04C337.279 230.16 335.519 231.6 333.839 232.88L332.959 233.6C332.479 234 333.279 234 333.599 234C333.999 234.4 334.719 234.24 335.359 233.92Z" fill="#2E6F40"/>
<path d="M347.198 227.84L346.958 220.56L346.078 221.28H362.798L361.038 219.76V237.12C361.038 238.24 363.678 239.52 363.678 237.92V220.48C363.678 219.76 362.558 218.96 361.918 218.96H345.278C344.798 218.96 344.398 219.12 344.398 219.68L344.638 226.96C344.558 228.16 347.278 229.36 347.198 227.84Z" fill="#000005"/>
<path d="M334.959 235.04L347.039 235.36L353.439 235.52C353.759 235.6 353.999 235.52 354.319 235.44C354.479 235.36 354.719 235.04 354.799 234.88L355.919 233.68L360.639 228.48C361.119 228 358.959 225.84 358.639 226.24L354.639 230.64L352.559 232.96C352.479 233.04 352.159 233.28 352.399 233.2C352.239 233.2 352.079 233.2 351.999 233.2L337.999 232.88L333.199 232.8C332.719 232.8 333.439 233.84 333.519 233.92C333.839 234.32 334.399 235.04 334.959 235.04Z" fill="white"/>
<path d="M354.8 245.6L354.72 235.44V234C354.72 232.8 351.92 233.68 351.92 234.8L352 244.96V246.4C352 247.6 354.88 246.64 354.8 245.6Z" fill="white"/>
<path d="M357.76 219.2C361.2 222.8 362.96 220.16 361.84 218.16C360.08 215.52 358.16 212.96 356.16 210.56L335.76 173.84L328.32 189.84L346.72 213.28C346.08 215.28 346.32 217.44 347.28 219.28" fill="white"/>
<path d="M356.559 219.28C357.839 220.64 359.759 221.92 361.679 221.76C362.719 221.76 363.519 220.88 363.519 219.84C363.519 219.76 363.519 219.68 363.519 219.6C363.439 218.32 362.319 217.12 361.599 216.08C360.639 214.8 359.679 213.52 358.719 212.24C358.159 211.6 357.599 210.88 357.119 210.08L355.279 206.8L341.119 181.36L337.039 173.92C336.719 173.36 334.639 172.48 334.319 173.28L327.839 187.28L326.879 189.28C326.879 189.44 326.879 189.52 326.959 189.68L343.119 210.24L345.359 213.12L345.279 212.72C344.639 214.88 344.879 217.2 345.999 219.12C346.399 219.84 349.199 220.4 348.639 219.44C347.759 217.84 347.599 215.92 347.999 214.16C348.159 213.44 347.919 213.36 347.519 212.88L343.599 207.92L332.319 193.6L329.519 190L329.599 190.4L336.079 176.4L337.039 174.4L334.319 173.76L344.079 191.36L351.039 203.84C352.239 206 353.359 208.32 354.719 210.4C355.759 212.08 357.199 213.52 358.399 215.12C358.879 215.84 359.359 216.48 359.839 217.2C360.239 217.68 360.479 218.32 360.639 218.88C360.719 219.36 360.479 219.92 360.159 220.24C359.919 220.48 359.919 220.24 360.239 220.4C359.759 220.08 359.279 219.68 358.879 219.28C358.319 218.8 357.599 218.56 356.879 218.56C356.239 218.48 356.159 218.88 356.559 219.28Z" fill="#000005"/>
<path d="M353.439 220.48C353.439 220.48 352.719 217.76 350.719 218.08C348.719 218.4 349.839 221.92 351.519 223.04C353.199 224.16 355.839 221.04 355.839 221.04" fill="white"/>
<path d="M354.879 221.039C354.639 220.159 354.159 219.439 353.519 218.799C352.959 218.399 352.399 218.079 351.759 217.919C351.119 217.599 350.399 217.439 349.679 217.439C349.119 217.439 348.639 217.759 348.399 218.239C348.239 218.799 348.239 219.439 348.479 219.919C348.639 220.559 348.959 221.199 349.439 221.759C350.319 222.719 351.439 223.359 352.639 223.599C353.359 223.839 354.159 223.839 354.879 223.439C355.839 222.959 356.639 222.319 357.359 221.519C357.519 221.359 356.159 220.799 356.079 220.719C355.759 220.559 355.439 220.479 355.039 220.399C354.959 220.399 354.639 220.319 354.559 220.399C353.999 221.119 353.279 221.679 352.559 222.159L352.639 222.079C352.319 222.319 351.919 222.479 351.519 222.559H351.199C351.119 222.559 350.959 222.559 351.279 222.559C351.519 222.639 351.839 222.719 352.079 222.799L352.639 223.039L352.799 223.119C352.719 223.039 352.959 223.279 352.799 223.119L352.639 223.039L352.559 222.959C352.479 222.879 352.639 223.039 352.559 222.879C352.479 222.719 352.399 222.719 352.319 222.639C352.159 222.479 352.079 222.319 351.919 222.079C351.679 221.679 351.439 221.279 351.359 220.799V220.879C351.119 220.159 351.039 219.039 351.759 218.559L351.679 218.639C351.839 218.559 351.999 218.479 352.159 218.479H352.319H352.399C352.479 218.479 352.639 218.479 352.399 218.479C352.479 218.479 352.479 218.479 352.399 218.479C352.319 218.479 352.159 218.399 352.079 218.399C351.839 218.319 351.599 218.239 351.439 218.159C351.439 218.159 351.039 217.919 351.199 218.079C351.279 218.159 351.039 217.919 351.119 218.079L351.199 218.159L351.279 218.239L351.439 218.479C351.759 218.879 351.999 219.439 352.159 219.919C352.159 220.079 352.399 220.159 352.479 220.239C352.799 220.399 353.119 220.559 353.439 220.719C353.759 220.879 354.079 220.959 354.479 221.039C354.479 221.039 354.959 221.119 354.879 221.039Z" fill="#000005"/>
<path d="M356.16 220.799C356.16 220.799 355.44 218.079 353.44 218.399C351.44 218.719 352.32 222.719 354.24 223.359C358.24 224.719 358.56 221.359 358.56 221.359" fill="white"/>
<path d="M357.599 220.32C357.359 219.2 356.639 218.32 355.679 217.76C354.559 217.28 353.279 217.36 352.239 217.92C351.439 218.4 350.879 219.2 350.799 220.16C350.719 221.76 351.439 223.28 352.799 224.08C353.279 224.32 353.759 224.48 354.239 224.56C354.719 224.64 355.199 224.719 355.679 224.639C356.719 224.559 357.679 224.24 358.479 223.6C359.279 222.96 359.759 222.08 359.919 221.12C359.999 220.4 359.039 220.32 358.559 220.4C357.999 220.48 357.119 220.88 357.039 221.6V221.76V221.92C356.959 222.16 357.119 221.679 357.039 221.839C356.959 221.999 356.959 222.159 356.879 222.239C356.879 222.319 356.799 222.4 356.799 222.48C356.719 222.64 356.959 222.24 356.879 222.4L356.799 222.56C356.719 222.64 356.719 222.72 356.639 222.8C356.559 222.96 356.959 222.56 356.719 222.72L356.559 222.8C356.319 222.96 356.879 222.64 356.719 222.72L356.559 222.8C356.239 222.96 356.879 222.64 356.719 222.72L356.559 222.8C356.319 222.88 356.959 222.72 356.719 222.72H356.479C356.239 222.72 356.879 222.72 356.559 222.72H356.239C355.839 222.64 356.159 222.72 356.239 222.72H355.999C355.759 222.72 355.599 222.64 355.359 222.56H355.199C354.959 222.48 355.439 222.64 355.199 222.56L355.039 222.48L354.799 222.4C354.639 222.32 354.959 222.56 354.799 222.4C354.559 222.16 354.319 221.92 354.159 221.6L354.319 221.76C353.999 221.2 353.759 220.64 353.679 220V220.239C353.679 219.999 353.679 219.84 353.679 219.6C353.679 219.52 353.679 219.44 353.679 219.28C353.679 219.2 353.679 219.2 353.679 219.12C353.679 219.04 353.599 219.36 353.679 219.2C353.759 219.04 353.759 219.04 353.759 218.96C353.759 218.88 353.599 219.199 353.679 219.039L353.759 218.96C353.839 218.8 353.439 219.199 353.679 219.039C353.759 219.039 353.839 218.879 353.679 219.039C353.519 219.199 353.679 219.119 353.679 219.039C353.679 218.959 353.279 219.2 353.519 219.12C353.039 219.28 353.199 219.2 353.279 219.2C353.519 219.12 353.199 219.2 353.119 219.2C353.199 219.2 353.199 219.2 353.279 219.2C353.519 219.2 352.959 219.12 353.199 219.2H353.359C353.519 219.2 353.119 219.12 353.279 219.2L353.519 219.36C353.679 219.44 353.519 219.36 353.439 219.36C353.359 219.36 353.519 219.439 353.599 219.439C353.679 219.519 353.759 219.6 353.839 219.68C353.999 219.84 354.079 220 354.239 220.16L354.079 220C354.319 220.4 354.559 220.8 354.639 221.28C354.719 221.52 355.039 221.68 355.279 221.76C355.679 221.84 355.999 221.76 356.399 221.68C357.039 221.36 357.759 220.88 357.599 220.32Z" fill="#000005"/>
<path d="M348 300C348 300 348.48 298.48 345.28 296.8C342.08 295.12 337.12 292.72 337.12 292.72L338 281.6L325.92 284.16C325.92 284.16 327.2 300.56 327.52 300.56C327.84 300.56 332 300.4 332 300.4L348 300Z" fill="#000005"/>
<path d="M349.358 300.56C349.438 299.92 349.198 299.36 348.798 298.88C347.758 297.52 346.078 296.72 344.558 295.92C342.238 294.72 339.918 293.6 337.518 292.48L338.398 293.28L339.278 282.16C339.358 281.36 337.118 280.88 336.558 280.96L324.478 283.52C324.398 283.52 324.398 283.6 324.398 283.68C324.558 286 324.798 288.32 324.958 290.72C325.198 293.68 325.358 296.72 325.838 299.6C326.078 300.96 327.918 301.2 329.038 301.12L332.958 301.04C335.438 300.96 337.918 300.88 340.478 300.88L348.958 300.64C349.598 300.64 348.878 300 348.638 299.92C348.078 299.52 347.358 299.36 346.638 299.28C341.278 299.44 335.998 299.52 330.638 299.68C329.118 299.76 327.678 299.84 326.158 299.84L327.758 300.32L328.558 300.8C328.718 301.04 328.558 300.72 328.558 300.48C328.478 300.16 328.478 299.76 328.398 299.44C328.238 298.32 328.158 297.28 328.078 296.24C327.838 293.6 327.598 290.88 327.358 288.24C327.278 287.28 327.198 286.4 327.118 285.44C327.118 285.2 327.118 284.96 327.038 284.72C329.038 284.48 330.958 283.92 332.878 283.52L338.958 282.24L336.238 281.04L335.358 292.16C335.358 292.48 335.998 292.8 336.238 292.96C338.158 293.84 340.078 294.8 341.918 295.76C343.038 296.32 346.718 297.6 346.238 299.44C346.398 300.08 349.278 301.04 349.358 300.56Z" fill="#000005"/>
<path d="M295.36 300.24C295.36 300.24 294.88 298.64 298.4 296.88C301.92 295.12 307.52 292.64 307.52 292.64L307.68 286.16L319.28 282.96C319.28 282.96 318.56 300.8 318.24 300.8C317.92 300.8 313.28 300.64 313.28 300.64L295.36 300.24Z" fill="#000005"/>
<path d="M296.798 300.56C296.638 300.08 297.118 299.44 297.438 299.04C298.638 297.76 300.478 297.04 301.998 296.32C304.238 295.28 306.558 294.24 308.798 293.2C308.878 293.12 308.958 293.04 308.878 292.88L309.038 286.4L308.718 286.72L320.318 283.52L317.838 282.24C317.598 287.92 317.518 293.68 316.958 299.36C316.878 299.6 316.878 299.92 316.878 300.16C316.798 300.08 317.678 300.08 317.198 300C317.038 300 316.958 300 316.798 300H315.438L312.238 299.92C309.278 299.84 306.318 299.76 303.438 299.68L294.638 299.44C294.078 299.44 293.998 299.84 294.318 300.16C294.878 300.64 295.598 300.88 296.318 300.96L313.598 301.36L316.078 301.44C316.958 301.44 317.838 301.52 318.718 301.52C319.118 301.52 319.518 301.6 319.678 301.2C319.758 300.8 319.838 300.48 319.838 300.08C319.918 299.44 319.918 298.72 319.998 298.08C320.078 296.24 320.238 294.4 320.318 292.48C320.478 289.44 320.558 286.48 320.718 283.44C320.718 282.56 318.878 282 318.238 282.16L306.638 285.36C306.398 285.44 306.318 285.44 306.318 285.68L306.238 290.4C306.238 290.96 306.238 291.6 306.238 292.16C306.318 291.76 306.238 291.92 305.918 292.08L304.798 292.56C302.238 293.68 299.678 294.8 297.198 296.08C296.078 296.64 293.598 298.08 294.078 299.68C294.238 300.64 296.958 301.28 296.798 300.56Z" fill="#000005"/>
<path d="M302.718 206.72C302.718 206.72 302.238 280.8 304.238 283.76C309.118 291.12 321.838 286.24 321.838 286.24L321.598 270.88L322.478 286C322.478 286 326.398 289.44 331.198 289.68C335.918 289.84 339.918 286.16 340.078 281.36C340.078 281.2 340.078 280.96 340.078 280.8C339.598 265.2 338.158 214.48 338.158 204.48C338.238 192.56 302.718 206.72 302.718 206.72Z" fill="#000005"/>
<path d="M301.36 207.28C301.36 210.8 301.36 214.24 301.36 217.68C301.36 225.6 301.36 233.519 301.36 241.519C301.36 250.079 301.44 258.559 301.68 267.119C301.76 270.399 301.84 273.759 302 277.039C302.08 279.119 302.24 281.119 302.48 283.119C302.96 285.999 306.24 287.6 308.88 288.16C312.88 288.96 317.12 288.24 320.96 286.96C321.28 286.88 321.68 286.72 322 286.56C322.32 286.4 323.28 286.079 323.28 285.679L323.04 270.319L320.24 271.439L321.04 284.56C320.96 285.2 321.04 285.84 321.12 286.479C321.36 286.96 322.32 287.44 322.72 287.76C326.16 290 330.32 291.039 334.24 289.679C338 288.399 341.12 285.519 341.52 281.439C341.6 279.119 341.6 276.719 341.44 274.399L340.88 255.68C340.48 242 340.16 228.319 339.84 214.639C339.76 212.239 339.76 209.919 339.68 207.599C339.76 205.999 339.76 204.399 339.52 202.799C338.72 198.879 333.44 198.879 330.32 199.039C324.88 199.359 319.44 200.719 314.24 202.319C310.48 203.439 306.8 204.72 303.12 206.08L302.56 206.319C302.4 206.399 301.28 206.88 301.36 207.28C301.52 207.68 302.8 207.199 302.96 207.119C305.44 206.159 307.84 205.359 310.16 204.559C314.88 202.879 319.84 201.68 324.8 200.88C327.04 200.48 329.36 200.399 331.6 200.559C333.12 200.719 334.88 201.119 336 202.319C337.12 203.519 336.96 204.879 336.96 206.319C336.96 208.159 337.04 209.999 337.04 211.839C337.28 224.399 337.6 236.959 337.92 249.519C338.08 256.079 338.24 262.559 338.48 269.119C338.56 271.759 338.64 274.32 338.72 276.96C338.8 279.44 339.2 282.16 338.32 284.56C337.76 286.32 336.56 287.759 334.96 288.719C333.28 289.599 330.96 289.12 329.28 288.56C327.68 288 326.16 287.199 324.8 286.239C324.48 286.079 324.16 285.839 323.92 285.599C323.92 285.679 323.92 285.6 323.92 285.36C323.92 283.36 323.68 281.28 323.52 279.28L323.12 271.839L323.04 270.479C323.04 270.16 320.24 270.799 320.24 271.599L320.48 286.96L321.76 286.079C321.68 286.079 321.6 286.08 321.6 286.16C321.44 286.32 321.84 286.08 321.68 286.16L321.36 286.239C320.64 286.479 320.08 286.639 319.44 286.799C317.44 287.279 315.36 287.52 313.28 287.36C310.88 287.28 308.56 286.319 306.8 284.719C306.16 284.159 305.68 283.439 305.52 282.639C305.2 280.799 305.04 279.039 305.04 277.199C304.88 274.079 304.72 270.88 304.64 267.76C304.4 259.52 304.32 251.2 304.32 242.96C304.24 234.96 304.24 226.959 304.32 219.039V210.399C304.32 209.519 304.32 208.64 304.32 207.76C304.4 207.28 304.4 206.879 304.32 206.399C304.32 206.319 304.32 206.239 304.32 206.239C304.16 205.919 301.36 206.4 301.36 207.28Z" fill="#000005"/>
<path d="M322.399 232.479L321.919 251.599L321.199 282.079L321.039 289.039C321.039 289.599 323.919 289.199 323.919 288.319L324.399 269.199L325.119 238.719L325.279 231.759C325.279 231.199 322.399 231.599 322.399 232.479Z" fill="white"/>
<path d="M303.68 207.6C303.68 207.6 300.32 159.52 321.6 158.8C342.88 158.08 338.56 207.84 338.56 207.84C338.56 207.84 314.56 212.4 303.68 207.6Z" fill="#000005"/>
<path d="M304.96 207.759V207.439C304.96 207.359 304.96 207.359 304.96 207.279C304.96 207.039 304.96 207.599 304.96 207.279V206.719C304.8 205.599 304.8 204.399 304.8 203.199C304.72 199.359 304.8 195.519 305.12 191.679C305.44 187.039 306.08 182.399 307.12 177.839C308.16 173.679 309.6 169.359 312.16 165.839C314.4 162.799 317.52 160.559 321.36 160.159C323.12 159.999 324.88 160.239 326.48 160.879C327.2 161.199 327.92 161.599 328.48 162.079C328.88 162.319 328.24 161.919 328.56 162.159L328.8 162.319C328.96 162.479 329.12 162.639 329.28 162.719C329.6 163.039 329.92 163.359 330.24 163.759C330.4 163.999 330 163.439 330.32 163.839L330.48 164.079L330.96 164.639C331.28 165.039 331.52 165.439 331.76 165.919C332.24 166.719 332.64 167.519 333.04 168.399C333.92 170.319 334.64 172.319 335.12 174.399C336.24 178.879 336.96 183.519 337.2 188.159C337.52 192.239 337.6 196.239 337.52 200.319C337.52 202.559 337.2 204.799 337.2 207.039C337.2 207.119 337.2 207.279 337.2 207.359L338 206.559C335.2 207.119 332.32 207.439 329.44 207.759C323.76 208.479 318.08 208.639 312.32 208.239C309.36 208.079 306.48 207.439 303.76 206.399C303.28 206.159 302.72 206.319 302.48 206.799C302.4 206.879 302.4 206.959 302.4 207.119C302.4 207.919 302.88 208.559 303.6 208.799C308.8 211.039 314.88 211.199 320.4 211.039C325.6 210.879 330.72 210.399 335.92 209.599C336.96 209.439 338 209.279 339.12 209.039C339.52 208.959 339.84 208.639 339.84 208.239C340.32 202.639 340.32 196.959 340 191.359C339.84 186.479 339.2 181.679 338.24 176.879C337.28 172.479 335.84 167.999 333.36 164.159C331.12 160.799 327.76 158.159 323.76 157.519C319.6 156.879 315.44 158.159 312.32 160.959C309.12 163.839 307.2 167.999 305.84 171.999C304.32 176.719 303.36 181.599 302.88 186.479C302.4 190.799 302.16 195.119 302.16 199.439C302.16 201.919 302.16 204.399 302.32 206.799C302.32 206.879 302.32 207.039 302.32 207.119C302.48 208.799 305.04 209.599 304.96 207.759Z" fill="#000005"/>
<path d="M301.119 216.32C301.119 216.32 328.399 224.96 339.199 217.6C339.199 217.6 340.559 210.16 339.279 208.64C337.999 207.12 332.799 210.8 302.879 206.64C302.719 206.72 298.479 208.96 301.119 216.32Z" fill="white"/>
<path d="M300.16 217.28C305.6 218.96 311.12 220.24 316.72 220.96C321.2 221.68 325.76 221.84 330.32 221.44C332.4 221.28 334.4 220.8 336.4 220.16C337.36 219.84 338.24 219.44 339.12 218.96C339.76 218.56 340.48 218.24 340.64 217.44C340.96 215.84 341.12 214.24 341.2 212.64C341.28 211.2 341.52 208.96 340.32 207.84C339.52 207.12 338.4 207.12 337.36 207.2C335.52 207.28 333.76 207.52 331.92 207.6C328.32 207.76 324.72 207.68 321.12 207.52C318.48 207.36 315.76 207.2 313.12 206.88C311.52 206.72 309.92 206.56 308.4 206.32C307.52 206.24 306.72 206.08 305.84 206C304.88 205.84 303.92 205.68 302.96 205.6C301.92 205.6 300.96 206.48 300.32 207.28C299.2 208.8 298.64 210.56 298.8 212.4C298.88 213.84 299.12 215.2 299.6 216.56C300.08 217.92 302.96 217.28 302.56 216C301.84 213.84 301.2 211.2 302.32 208.96C302.56 208.48 302.88 208 303.28 207.6C303.44 207.44 303.44 207.52 303.28 207.6C303.36 207.52 303.44 207.52 303.44 207.44C303.52 207.36 303.52 207.36 303.6 207.36L302.08 207.68C311.52 208.96 321.12 210 330.64 209.68C332.56 209.6 334.4 209.44 336.32 209.28C336.8 209.28 337.36 209.28 337.84 209.2C338.24 209.2 337.52 209.2 337.76 209.2C337.84 209.2 337.92 209.2 338 209.28C338 209.28 337.6 209.12 337.92 209.28C338.24 209.44 337.68 209.12 337.84 209.2C337.76 208.96 338 209.28 337.84 209.2C338 209.52 338.08 209.84 338.16 210.16C338.32 211.12 338.32 212.16 338.16 213.12C338.08 214.64 337.84 216.08 337.6 217.52L338.16 216.8C333.44 219.92 326.8 219.68 321.44 219.2C315.92 218.64 310.4 217.68 305.04 216.16C304.24 215.92 303.36 215.68 302.56 215.44C302.4 215.36 301.2 215.04 301.92 215.28C301.2 215.04 300.4 215.2 299.84 215.68C299.52 216 299.44 216.56 299.76 216.88C299.92 217.12 300.08 217.2 300.16 217.28Z" fill="#2E6F40"/>
<path d="M326.479 216.879C326.479 216.879 324.399 228.479 325.919 229.199C327.439 229.919 340.719 230.159 341.839 228.639C342.959 227.119 339.199 214.239 339.199 214.239" fill="white"/>
<path d="M325.12 217.119C324.56 219.999 324.16 222.959 324 225.919C323.92 227.119 323.68 229.119 324.64 230.079C325.44 230.879 327.28 230.799 328.32 230.879C330.32 231.039 332.4 231.039 334.4 230.959C336.32 230.959 338.24 230.799 340.08 230.479C341.52 230.159 343.04 229.599 343.28 227.919C343.36 226.399 343.28 224.879 342.88 223.439C342.24 220.159 341.36 216.879 340.48 213.679C340 212.159 337.36 213.439 337.76 214.799C338.48 217.279 339.12 219.759 339.68 222.239C340.08 223.919 340.4 225.599 340.56 227.279C340.56 227.359 340.56 227.439 340.56 227.519C340.56 227.679 340.56 227.759 340.56 227.919C340.56 228.079 340.56 228.159 340.56 228.239C340.56 228.319 340.56 228.319 340.56 228.399C340.56 228.639 340.64 228.159 340.56 228.319C340.48 228.479 340.72 228.079 340.8 227.999C340.72 228.079 341.2 227.759 340.88 227.919C341.04 227.839 341.28 227.679 340.88 227.919C340.72 227.999 340.4 228.079 340.72 227.999C339.2 228.319 337.76 228.479 336.24 228.559C334.32 228.639 332.32 228.639 330.4 228.559C329.6 228.559 328.8 228.479 328 228.399L327.12 228.319H327.2L326.88 228.239C326.72 228.239 326.64 228.079 326.96 228.239C326.88 228.239 326.8 228.159 327.04 228.319L326.96 228.239L326.88 228.159C326.88 228.159 326.96 228.479 326.88 228.239C326.8 227.999 326.8 227.999 326.8 227.839C326.72 227.199 326.64 226.639 326.72 225.999C326.88 222.879 327.2 219.839 327.84 216.799C328 216.079 327.12 215.759 326.56 215.839C325.84 215.759 325.28 216.399 325.12 217.119Z" fill="#2E6F40"/>
<path d="M328.639 220.719C330.959 220.799 333.359 220.559 335.599 220.079C335.999 219.999 336.319 219.839 336.719 219.679C337.039 219.599 337.279 219.439 337.519 219.199C337.919 218.719 337.039 218.879 336.799 218.959C336.799 218.959 336.399 219.039 336.639 218.959L336.239 219.039L335.519 219.119C335.039 219.199 334.479 219.279 333.999 219.279C333.039 219.359 331.999 219.359 331.039 219.359C330.319 219.359 329.679 219.599 329.039 219.999C328.799 220.239 327.999 220.719 328.639 220.719Z" fill="#2E6F40"/>
<path d="M316.399 163.44L304.479 155.6L291.119 172.72L304.479 189.04C304.479 189.04 315.279 173.04 316.399 163.44Z" fill="#000005"/>
<path d="M316.32 162.48L304.4 154.64C304.24 154.48 303.68 154.24 303.44 154.56L291.76 169.52L290.08 171.68C289.76 172 290.16 172.64 290.4 172.96L302.08 187.28L303.76 189.28C303.92 189.52 305.2 190.8 305.52 190.16C309.52 184.32 312.88 178.08 315.52 171.6C316.48 169.28 317.12 166.88 317.52 164.4C317.52 163.76 317.12 163.12 316.56 162.72C316.32 162.56 315.28 161.92 315.2 162.56C314.64 167.04 312.72 171.28 310.8 175.28C308.96 178.96 306.96 182.48 304.8 185.92C304.32 186.64 303.92 187.36 303.44 188L305.2 188.88L293.52 174.56L291.84 172.56L292.16 173.84L303.84 158.88L305.52 156.72L304.56 156.64L316.48 164.48C316.88 164.72 317.52 164.88 317.52 164.24C317.52 163.6 316.8 162.8 316.32 162.48Z" fill="#000005"/>
<path d="M310.72 158.8C310.72 158.8 317.84 159.68 318.72 161.2C319.6 162.72 322.88 205.84 320.48 210C318.08 214.16 302.72 210.56 301.28 208.24C299.84 205.92 300.4 190.24 300.4 190.24C300.4 190.24 310.48 187.84 311.6 180.16C312.72 172.48 313.6 165.28 310.72 158.8Z" fill="white"/>
<path d="M311.199 160.079C312.559 160.239 313.919 160.479 315.279 160.799C316.159 160.959 317.039 161.279 317.919 161.599L318.319 161.759C318.239 161.759 318.399 161.759 318.399 161.839C318.399 161.759 317.999 161.359 317.999 161.279L317.919 161.039C317.919 161.039 317.839 160.639 317.919 160.879C318.239 162.719 318.479 164.559 318.639 166.399C319.359 173.919 319.839 181.359 320.159 188.879C320.319 192.639 320.399 196.399 320.399 200.159C320.479 202.719 320.319 205.279 319.919 207.839C319.839 208.559 319.439 209.199 318.879 209.599C317.599 210.479 315.759 210.559 314.159 210.559C310.239 210.639 306.399 209.839 302.799 208.239C302.479 208.079 302.239 207.919 301.999 207.839C301.759 207.759 301.999 207.839 301.839 207.759C301.679 207.679 301.839 207.839 301.759 207.679C301.839 207.839 301.999 207.999 302.079 208.159L301.999 207.919C302.079 208.159 301.919 207.759 301.919 207.679C301.919 207.599 301.839 207.359 301.839 207.199C301.599 205.519 301.439 203.759 301.439 202.079C301.359 198.639 301.359 195.199 301.439 191.759V191.119L301.119 191.519C303.999 190.799 306.639 189.519 308.879 187.599C310.719 186.079 311.919 184.079 312.559 181.839C313.359 178.239 313.759 174.639 313.759 170.959C313.919 166.959 313.199 162.879 311.679 159.199C311.439 158.639 310.959 157.839 310.239 157.679C309.519 157.519 309.599 158.239 309.839 158.639C312.639 165.039 311.679 172.239 310.639 178.959C309.919 183.359 306.479 186.239 302.559 187.919C301.599 188.319 300.639 188.639 299.679 188.959C299.439 189.039 299.359 189.199 299.359 189.439C299.279 192.319 299.199 195.279 299.279 198.239C299.279 200.319 299.359 202.479 299.599 204.559C299.759 205.999 299.919 207.679 300.879 208.879C301.839 210.079 303.439 210.879 304.959 211.359C306.959 212.079 309.039 212.559 311.119 212.879C313.279 213.279 315.439 213.359 317.599 213.119C319.039 212.959 320.799 212.479 321.599 211.119C321.919 210.399 322.159 209.599 322.159 208.799C322.319 207.519 322.399 206.239 322.479 204.879C322.639 201.199 322.479 197.439 322.399 193.679C322.159 185.439 321.599 177.199 320.879 168.959C320.719 166.719 320.479 164.479 320.079 162.239C319.279 158.719 314.799 158.239 311.839 157.759C311.359 157.679 310.879 157.599 310.399 157.519C308.959 157.439 310.319 159.919 311.199 160.079Z" fill="#000005"/>
<path d="M334.079 210.08C334.079 210.08 334.799 171.84 329.279 163.36C329.279 163.36 332.719 162 336.079 167.84C339.439 173.68 339.199 206.96 339.199 208.72C339.199 210.48 334.079 210.08 334.079 210.08Z" fill="white"/>
<path d="M335.599 210.32C335.679 205.76 335.599 201.2 335.519 196.56C335.279 188.48 334.959 180.24 333.599 172.24C333.039 169.12 332.479 165.6 330.719 162.88L329.919 164.48C329.919 164.48 330.079 164.4 330.159 164.4C329.759 164.4 330.079 164.32 330.159 164.4C330.319 164.4 330.559 164.4 330.239 164.4C330.959 164.48 331.679 164.72 332.319 165.2C333.439 166.08 334.319 167.12 334.879 168.4C335.119 168.8 335.279 169.28 335.359 169.76C336.399 173.36 336.639 177.12 336.959 180.8C337.599 189.04 337.759 197.36 337.679 205.68C337.679 206.56 337.599 207.44 337.679 208.32C337.679 208.48 337.759 208.48 337.759 208.32C337.759 208.4 337.679 208.4 337.599 208.4C337.119 208.56 336.719 208.64 336.239 208.64C335.759 208.72 335.199 208.72 334.719 208.72H334.399C334.159 208.72 334.719 208.72 334.399 208.72H334.159C333.439 208.56 332.719 209.04 332.479 209.76C332.479 210.56 333.039 211.2 333.759 211.2C335.519 211.28 337.759 211.36 339.359 210.48C340.559 209.76 340.559 208.8 340.559 207.6C340.559 204 340.559 200.4 340.479 196.8C340.399 191.76 340.239 186.72 339.919 181.76C339.599 177.68 339.359 173.52 338.319 169.6C337.599 167.04 336.079 164.8 333.919 163.2C332.479 162.16 330.319 161.44 328.639 162.08C327.999 162.32 327.439 163.04 327.839 163.68C329.279 166 329.759 168.64 330.319 171.36C331.039 175.2 331.519 179.12 331.759 182.96C332.319 190.24 332.559 197.68 332.559 204.96C332.559 206.56 332.559 208.16 332.559 209.76C332.559 211.36 335.519 211.92 335.599 210.32Z" fill="#000005"/>
<path d="M337.6 153.12C333.28 158.48 329.6 157.84 330.96 161.92C330.96 161.92 324.32 170.08 320.32 162.96C319.68 161.84 317.28 147.36 320 141.92C320 141.92 324 137.44 321.12 133.12C321.12 133.12 326.24 135.6 329.92 133.84C333.6 132.08 340.24 127.68 342.56 131.04C344.88 134.4 340.56 137.84 337.12 138.64L338.96 144.32C335.84 146.64 332.8 143.52 332.8 143.52C332.8 143.52 331.92 147.92 333.28 149.12C334.64 150.32 338.4 149.36 338.4 149.36C338.8 150.64 338.48 152.08 337.6 153.12Z" fill="white"/>
<path d="M336.079 153.119C335.119 154.319 333.999 155.439 332.799 156.399C331.999 157.039 331.199 157.519 330.399 158.159C329.839 158.559 329.439 159.119 329.199 159.759C329.119 160.079 329.119 160.479 329.119 160.879C329.119 161.199 329.439 161.759 329.359 161.999C329.279 162.239 328.879 162.559 328.719 162.719C328.239 163.199 327.679 163.679 327.119 164.159C326.479 164.639 325.759 165.119 325.039 165.439C324.719 165.599 324.239 165.599 323.919 165.759C323.839 165.839 323.039 165.759 324.239 165.759C325.199 165.759 324.639 165.839 324.559 165.759C324.479 165.679 324.079 165.519 323.839 165.439C321.119 163.759 321.039 160.159 320.719 157.359C320.239 153.279 319.839 148.879 320.639 144.799C320.719 143.839 321.039 142.959 321.439 142.159C321.679 141.679 322.079 141.359 322.319 140.879C323.759 138.479 324.079 135.759 322.559 133.359H319.599C321.039 133.999 322.559 134.479 324.159 134.639C326.719 135.039 329.439 135.039 331.759 133.919C333.839 132.799 335.999 131.759 338.239 130.799C338.799 130.639 339.279 130.399 339.839 130.319C340.079 130.239 340.799 130.239 339.999 130.239C339.199 130.239 339.919 130.319 340.159 130.479C341.119 131.039 341.679 132.159 341.679 133.279C341.679 136.159 338.239 138.159 335.759 138.719C335.679 138.719 335.599 138.719 335.519 138.799L337.119 143.759C337.119 143.919 337.359 144.319 337.359 144.479C337.359 144.639 336.559 144.959 336.319 145.039L335.919 145.119L336.719 145.199L336.239 145.039C335.439 144.719 334.719 144.239 334.159 143.679C333.919 143.439 331.279 143.279 331.199 143.679C330.879 145.279 330.319 148.399 331.919 149.519C333.119 150.319 335.119 150.239 336.479 150.159C337.519 150.079 338.559 149.999 339.519 149.759L336.719 149.599C337.199 150.639 336.959 152.079 336.079 153.119C336.479 153.279 337.039 153.359 337.519 153.439C337.839 153.439 338.799 153.599 339.039 153.279C339.919 152.239 340.239 150.799 339.839 149.439C339.679 148.959 337.439 149.199 337.039 149.279C336.479 149.439 335.839 149.439 335.279 149.599C334.879 149.599 334.959 149.599 335.519 149.599L335.359 149.519C335.119 149.439 334.879 149.279 334.639 149.119C334.399 148.799 334.159 148.399 334.079 147.999C333.839 146.559 333.839 145.039 334.239 143.519H331.279C332.079 144.319 333.119 144.879 334.159 145.119C336.159 145.599 338.559 145.599 340.239 144.399L340.319 144.319L338.479 138.639L338.239 138.719C340.559 138.159 343.119 136.799 344.239 134.559C345.039 132.879 344.319 130.879 342.719 130.079C342.479 129.919 342.239 129.839 341.919 129.839C336.799 128.719 332.719 131.759 328.319 133.759C326.399 134.639 324.239 133.999 322.399 133.119C321.839 132.959 321.279 132.879 320.799 132.959C320.399 132.959 319.919 133.039 319.519 133.119C320.879 135.359 320.879 138.239 319.439 140.399C319.119 140.959 318.719 141.359 318.399 141.919C317.999 142.639 317.759 143.439 317.599 144.239C316.639 148.639 317.039 153.359 317.599 157.759C317.999 160.719 318.239 164.639 321.599 165.839C325.439 167.119 329.039 165.439 331.679 162.719C332.079 162.239 332.239 162.239 332.079 161.599C331.759 160.719 331.919 159.759 332.479 158.959C333.279 158.159 334.159 157.439 335.119 156.799C336.479 155.759 337.759 154.559 338.799 153.199C338.319 153.039 337.839 152.959 337.279 152.959C337.279 152.959 336.399 152.799 336.079 153.119Z" fill="#000005"/>
<path d="M316.079 158.4C316.079 158.4 312.479 162.88 309.999 160.96C307.519 159.04 310.799 157.52 310.799 157.52C310.799 157.52 303.839 154.96 307.759 150.72C307.759 150.72 301.199 149.76 301.679 144C302.159 138.24 309.759 136.24 309.759 136.24C309.759 136.24 303.519 139.2 308.719 136.48C313.919 133.76 313.119 135.6 313.119 135.6C313.119 135.6 320.479 127.84 321.919 129.68C323.359 131.52 321.599 133.84 321.599 133.84C321.599 133.84 324.639 139.76 319.999 141.92L320.959 151.44C322.879 152.4 324.159 154.32 324.399 156.48C324.719 160.16 318.399 162 316.079 158.4Z" fill="#000005"/>
<path d="M314.799 157.6C313.999 158.56 312.719 159.84 311.439 160.08C311.039 160.16 310.399 159.92 310.559 159.36C310.639 159.12 310.959 158.96 311.119 158.8C311.199 158.8 311.679 158.48 311.359 158.64L311.519 158.56C312.719 158 312.159 156.64 311.119 156.24L310.879 156.16C311.359 156.4 310.639 156.08 310.479 156C309.919 155.76 309.439 155.44 308.959 155.04C307.679 153.92 307.839 152.72 308.959 151.44C309.759 150.56 308.399 149.6 307.679 149.44C307.359 149.36 308.079 149.52 307.759 149.44C307.519 149.36 307.279 149.36 307.039 149.28L306.559 149.12C306.479 149.12 305.999 148.88 306.239 149.04C305.839 148.88 305.439 148.64 305.119 148.4C303.439 147.28 302.719 145.2 303.279 143.28C304.079 140.16 307.519 138.16 310.479 137.36L308.959 135.12L307.519 135.84L306.479 136.32C306.239 136.4 305.599 136.56 306.159 136.48L307.839 137.2V138.48C307.519 138.88 307.839 138.56 307.999 138.48C308.159 138.4 308.719 138.08 309.039 137.92C310.079 137.36 311.119 136.88 312.159 136.48C312.319 136.4 312.239 136.48 312.399 136.4C312.559 136.32 312.559 136.48 312.479 136.32C312.639 136.48 312.159 136.24 312.399 136.32C312.079 136.16 311.759 135.92 311.599 135.6C311.599 135.52 311.599 135.28 311.599 135.28C311.039 136.8 313.519 137.36 314.319 136.48C315.759 134.96 317.199 133.6 318.799 132.32C319.279 131.92 319.839 131.52 320.399 131.2C320.559 131.12 320.799 130.96 320.959 130.88C321.199 130.8 321.279 130.64 321.359 130.72C321.119 130.64 320.879 130.56 320.639 130.48C320.719 130.4 320.799 131.52 320.799 131.6C320.719 132.16 320.479 132.72 320.159 133.2C319.919 133.6 319.919 134.08 320.159 134.48C319.839 133.92 320.079 134.32 320.159 134.48C320.239 134.64 320.319 134.88 320.399 135.12C320.639 135.68 320.799 136.32 320.879 136.96C321.119 138.64 320.639 140.24 319.119 141.04C318.719 141.2 318.399 141.6 318.399 142.08L319.279 150.88C319.279 151.44 319.359 151.92 319.679 152.4C319.839 152.56 320.079 152.72 320.319 152.88C320.559 153.04 320.719 153.12 320.959 153.28C322.239 154.4 323.679 156.72 322.239 158.24C320.799 159.76 318.319 159.76 317.199 158.08C316.319 156.8 313.599 157.52 314.639 159.04C316.879 162.32 322.719 162.8 325.039 159.28C327.039 156.32 324.399 152 321.519 150.64L322.239 151.76L321.279 142.24L320.559 143.28C322.799 142.32 324.079 140 323.839 137.6C323.759 136.16 323.359 134.8 322.719 133.52V134.8C323.919 133.12 324.319 130.48 322.639 129.04C321.279 127.84 319.439 128.64 318.079 129.44C315.679 131.04 313.519 132.96 311.679 135.12L314.399 136.32C314.959 134.8 313.039 133.92 311.839 134.08C310.559 134.32 309.279 134.8 308.079 135.44C307.199 135.92 305.839 136.32 305.199 137.12C304.959 137.52 304.959 138 305.199 138.4C305.599 138.96 306.239 139.2 306.879 139.12C307.519 138.96 308.159 138.72 308.799 138.4L310.399 137.68C310.959 137.44 311.199 136.8 311.039 136.24C311.039 136.16 310.959 136.08 310.959 136.08C310.479 135.44 309.679 135.2 308.959 135.44C306.079 136.16 303.519 137.84 301.679 140.24C300.319 142.08 299.839 144.48 300.479 146.72C301.119 148.56 302.399 150.08 304.159 150.96C305.279 151.6 306.559 152 307.839 152.24L306.559 150.24C304.879 151.92 304.799 154.64 306.479 156.32C306.559 156.4 306.639 156.48 306.719 156.48C307.839 157.52 309.119 158.32 310.559 158.8L310.159 156.48C309.119 156.88 308.239 157.68 307.839 158.72C307.279 160.48 309.119 162.24 310.639 162.64C313.359 163.36 315.919 161.2 317.519 159.28C318.399 157.84 315.759 156.48 314.799 157.6Z" fill="#000005"/>
<path d="M321.438 142.48C321.438 142.48 318.158 139.28 316.078 141.92C313.998 144.56 318.958 153.44 323.438 149.84" fill="white"/>
<path d="M322.799 141.839C321.839 140.799 320.559 140.159 319.119 139.839C316.879 139.439 314.719 140.799 314.239 142.959C314.079 144.479 314.399 146.079 315.199 147.359C315.839 148.799 316.959 150.079 318.319 150.879C320.239 151.999 322.719 151.839 324.479 150.399C324.959 149.999 325.199 149.279 324.639 148.879C323.999 148.479 323.119 148.559 322.559 149.039C322.399 149.119 322.239 149.199 322.159 149.359C322.159 149.359 322.479 149.199 322.319 149.279L322.239 149.359L321.999 149.519C321.759 149.599 322.319 149.439 322.079 149.519L321.839 149.599C321.759 149.599 321.679 149.599 321.599 149.679C321.599 149.679 321.999 149.679 321.839 149.599H321.599H321.359C321.279 149.599 321.759 149.599 321.439 149.599H321.199C321.119 149.599 320.799 149.519 321.039 149.599C321.279 149.679 321.039 149.599 320.959 149.599L320.799 149.519C320.719 149.519 320.399 149.359 320.399 149.359L320.239 149.279C320.079 149.199 319.919 149.119 319.839 148.959L319.519 148.639C319.359 148.479 319.439 148.559 319.519 148.639L319.359 148.479C318.879 147.999 318.479 147.439 318.159 146.879C318.079 146.719 317.999 146.559 317.919 146.399C317.839 146.239 317.759 146.159 317.839 146.239C317.919 146.319 317.759 146.159 317.759 146.079C317.599 145.759 317.519 145.439 317.439 145.199C317.359 144.879 317.279 144.559 317.199 144.239C317.199 144.079 317.199 143.919 317.119 143.839C317.039 143.759 317.119 143.599 317.119 143.759C317.119 143.919 317.119 143.679 317.119 143.679C317.119 143.439 317.119 143.119 317.199 142.879C317.199 142.799 317.199 142.799 317.199 142.719C317.199 142.719 317.119 142.959 317.199 142.799L317.359 142.479C317.439 142.319 317.199 142.719 317.279 142.559C317.359 142.399 317.359 142.399 317.439 142.319C317.519 142.239 317.679 142.159 317.519 142.239L317.599 142.159L317.679 142.079C317.759 141.999 317.759 141.999 317.679 142.079C317.519 142.159 317.599 142.159 317.679 142.079L317.759 141.999C317.839 141.919 317.439 142.159 317.679 141.999C317.679 141.999 317.759 141.999 317.839 141.999C317.919 141.999 317.519 141.999 317.679 141.999C317.839 141.999 318.079 141.999 317.839 141.999C317.599 141.999 317.919 141.999 317.999 141.999C318.079 141.999 318.319 142.079 318.159 141.999C317.999 141.919 318.239 141.999 318.319 142.079L318.559 142.159L318.799 142.239C318.799 142.239 318.879 142.239 318.879 142.319C318.639 142.159 319.039 142.399 318.879 142.319C319.119 142.479 319.199 142.479 319.359 142.559C319.599 142.719 319.839 142.879 320.079 143.039C320.159 143.119 320.639 143.519 320.159 143.119C320.719 143.599 321.519 143.679 322.159 143.359C322.559 143.199 323.359 142.399 322.799 141.839Z" fill="#000005"/>
<path d="M326.718 137.68C327.118 137.52 327.518 137.76 327.678 138.16V138.24C327.838 139.04 326.878 139.2 326.478 138.56C326.318 138.32 326.398 137.92 326.718 137.68Z" fill="#000005"/>
<path d="M317.119 136.88L305.279 151.44C305.279 151.44 297.999 143.6 300.079 136.4C303.359 124.96 316.479 130.24 316.479 130.24C316.479 130.24 325.679 126.96 325.599 128.56C325.519 130.16 317.119 136.88 317.119 136.88Z" fill="#2E6F40"/>
<path d="M315.759 136.399L305.359 149.119L303.919 150.879L306.479 151.039C306.399 150.959 306.239 150.719 306.319 150.879L305.759 150.159C305.119 149.279 304.479 148.399 303.919 147.439C302.399 144.959 301.119 141.919 301.279 138.959C301.359 136.239 302.479 133.679 304.479 131.839C305.999 130.639 307.839 129.919 309.839 129.839C311.439 129.759 312.959 129.999 314.479 130.399C314.639 130.479 315.439 130.719 314.959 130.559L315.599 130.799C316.159 131.039 316.799 131.119 317.439 131.039C318.799 130.719 320.159 130.159 321.439 129.759C322.399 129.439 323.359 129.279 324.319 129.039C324.479 129.039 324.719 128.959 324.879 128.959C325.039 128.959 325.119 128.879 325.119 128.959H325.199H324.959C324.719 128.879 324.479 128.719 324.319 128.639C323.919 128.319 324.239 128.239 324.079 128.399C323.919 128.559 323.759 128.959 323.599 129.119C323.279 129.519 322.959 129.919 322.559 130.239C321.679 131.119 320.799 131.999 319.839 132.799C318.559 133.919 317.279 135.039 315.919 136.159C314.719 137.119 317.439 138.239 318.239 137.599C320.959 135.519 323.519 133.199 325.839 130.719C326.799 129.599 327.759 128.159 325.759 127.439C323.999 126.799 321.759 127.519 320.079 127.999C318.559 128.399 317.039 128.879 315.519 129.439L316.959 129.519C313.359 128.079 309.439 127.759 305.679 128.639C302.879 129.439 300.559 131.359 299.359 133.999C297.679 137.599 297.999 141.439 299.599 145.039C300.719 147.519 302.159 149.839 303.999 151.919C304.559 152.479 305.999 152.719 306.559 152.079L316.879 139.359L318.319 137.599C319.279 136.479 316.479 135.519 315.759 136.399Z" fill="#2E6F40"/>
<path d="M307.199 132.08L311.759 134C312.079 134.16 312.479 134.24 312.879 134.32C313.119 134.4 313.359 134.32 313.599 134.24C314.079 133.84 313.039 133.36 312.799 133.28L308.239 131.36C307.919 131.2 307.519 131.12 307.119 131.04C306.879 130.96 306.559 131.04 306.319 131.12C305.919 131.52 306.959 132 307.199 132.08Z" fill="white"/>
<path d="M345.279 144.96C346.799 144.24 348.319 143.28 349.599 142.16C349.919 141.92 350.319 141.68 350.479 141.28C350.559 140.96 350.559 140.64 350.399 140.4C350.079 139.92 349.679 139.52 349.119 139.2C348.879 139.12 348.719 138.96 348.479 138.8C348.399 138.72 348.399 138.72 348.479 138.8C348.399 138.8 348.399 138.72 348.399 138.64C348.319 138.56 348.319 138.48 348.399 138.48C348.479 137.76 349.359 137.28 349.839 136.8L353.999 133.04C354.559 132.56 353.919 131.92 353.439 131.68C352.719 131.44 351.919 131.52 351.359 132L348.479 134.64C347.439 135.44 346.479 136.32 345.679 137.36C345.119 138.24 345.439 139.44 346.319 140C346.639 140.24 346.879 140.32 347.199 140.56C347.279 140.64 347.599 140.88 347.439 140.72C347.519 140.8 347.439 140.8 347.519 140.8C347.599 140.8 347.519 140.8 347.519 140.88L347.759 140.4C346.559 141.52 345.199 142.4 343.759 143.12C343.279 143.36 342.719 143.92 343.199 144.4C343.759 145.12 344.559 145.2 345.279 144.96Z" fill="#2E6F40"/>
<path d="M345.279 148.64H352.159C352.879 148.64 353.518 148.32 353.998 147.76C354.238 147.52 354.638 146.64 353.918 146.64H347.038C346.318 146.64 345.678 146.96 345.198 147.52C344.958 147.84 344.559 148.64 345.279 148.64Z" fill="#2E6F40"/>
</svg>
