<svg width="500" height="500" viewBox="0 0 500 500" fill="none" xmlns="http://www.w3.org/2000/svg">
<path d="M42.8023 108.5H320.202C326.602 108.4 331.902 113.4 332.102 119.8V306.1C331.902 312.5 326.602 317.6 320.202 317.4H42.8023C36.4023 317.5 31.1023 312.5 30.9023 306.1V119.8C31.1023 113.4 36.4023 108.3 42.8023 108.5Z" fill="white"/>
<path d="M44.0008 110.3H317.301C320.901 110.3 324.601 110 327.401 112.7C330.501 115.8 329.901 120.7 329.901 124.8V295.3C329.901 298.6 330.001 301.9 329.901 305.3C329.801 311.3 324.701 315.6 318.901 315.6H42.2008C39.4008 315.7 36.8008 314.6 34.9008 312.6C33.3008 310.6 32.9008 308.2 32.9008 305.7V123.6C32.9008 122.6 32.9008 121.7 32.9008 120.7C33.0008 114.7 38.1008 110.4 44.0008 110.3C45.1008 110.3 44.8008 108.9 44.4008 108.3C43.8008 107.3 42.7008 106.7 41.5008 106.6C34.6008 106.6 28.9008 112.1 28.8008 119.1C28.8008 120 28.8008 121 28.8008 121.9V304.5C28.8008 313 36.0008 319.2 44.2008 319.2H319.901C320.601 319.2 321.401 319.2 322.101 319.2C328.701 318.8 333.901 313.4 334.001 306.7C334.001 303.5 334.001 300.2 334.001 297V121.2C334.101 117.5 332.601 113.8 329.901 111.2C326.901 108.2 322.701 106.5 318.401 106.6H41.4008C40.2008 106.6 40.5008 108 40.9008 108.6C41.7008 109.7 42.8008 110.3 44.0008 110.3Z" fill="#000005"/>
<path d="M155.202 316.7L130.102 356.8H201.902L226.702 316.7H155.202Z" fill="white"/>
<path d="M153.102 315.6L144.602 329.2L131.102 350.7L128.002 355.7C127.602 356.4 128.202 357.2 128.702 357.7C129.402 358.3 130.302 358.6 131.202 358.6H196.302C198.402 358.6 200.702 358.8 202.802 358.6C203.702 358.5 204.002 358 204.502 357.3L206.602 353.8L214.402 341.1L223.202 326.8C225.002 323.9 226.802 321.1 228.502 318.2C228.602 318.1 228.702 317.9 228.802 317.8C229.202 317.1 228.602 316.3 228.202 315.8C227.502 315.2 226.602 314.9 225.702 314.9H154.202C153.502 314.9 152.902 315.5 153.002 316.2C153.002 316.4 153.102 316.7 153.202 316.9C153.802 317.9 155.002 318.5 156.202 318.4H227.702L224.602 315.5L216.202 329.1L202.902 350.6L199.802 355.6L200.902 354.9H129.102L132.202 357.8L140.702 344.2L154.202 322.7L157.302 317.7C158.502 316 154.202 313.7 153.102 315.6Z" fill="#000005"/>
<path d="M151.602 316.7C151.602 316.7 122.202 359 122.602 360.5C123.002 362 159.702 360.5 159.702 360.5V356.7H130.102L155.202 316.6H151.602V316.7Z" fill="white"/>
<path d="M149.801 315C147.101 318.8 144.501 322.6 141.901 326.4C137.101 333.4 132.301 340.5 127.601 347.6C125.801 350.3 124.101 353 122.401 355.7C121.501 357.2 119.901 359 121.001 360.8C122.501 363.2 126.001 362.9 128.501 363C132.401 363.1 136.401 363.1 140.301 363C147.001 362.9 153.701 362.9 160.301 362.4H160.701C161.301 362.4 161.701 362 161.701 361.4C161.701 361.4 161.701 361.4 161.701 361.3V357.5C161.501 356 160.301 354.8 158.701 354.6H129.101L131.801 358.2L140.301 344.6L153.801 323.1L156.901 318.1C157.901 316.6 155.701 314.5 154.201 314.5H150.501C149.401 314.5 149.401 315.8 149.801 316.5C150.301 317.6 151.301 318.3 152.501 318.4H156.201L153.501 314.8L145.001 328.4L131.501 349.9L128.401 354.9C127.401 356.5 129.601 358.5 131.101 358.5H160.701L157.701 355.6V359.4L158.701 358.4C153.301 358.6 147.901 358.8 142.501 358.9C138.401 359 134.301 359.1 130.201 359C128.601 359 127.001 359 125.401 358.9C124.801 358.9 124.201 358.8 123.601 358.8H123.201C123.601 358.9 123.101 358.8 123.201 358.8L122.601 358.7C122.401 358.7 122.101 358.5 122.501 358.7C123.401 359.3 124.101 360.2 124.501 361.2C124.601 361.7 124.401 361.5 124.601 361.1C124.901 360.4 125.301 359.7 125.701 359L125.801 358.9L126.001 358.5C126.201 358.2 126.301 358 126.501 357.7L127.601 355.9C128.501 354.5 129.401 353.1 130.301 351.7C134.801 344.8 139.401 338.1 144.001 331.3C147.001 327 150.001 322.7 152.901 318.4L153.001 318.2C154.401 316.7 150.901 313.5 149.801 315Z" fill="#000005"/>
<path d="M234.199 356.8H159.699V360.6H234.199V356.8Z" fill="white"/>
<path d="M233.402 355.4H158.902C158.202 355.4 157.402 355.5 157.402 356.3V360.1C157.402 361.2 159.802 361.9 160.502 361.9H235.002C235.702 361.9 236.502 361.8 236.502 361V357.2C236.502 355.7 231.902 354.5 231.902 356.3V360.1L233.402 359.2H158.902L162.002 361V357.2L160.502 358.1H235.002C235.802 358.1 236.802 357.8 236.302 356.9C235.802 356 234.302 355.4 233.402 355.4Z" fill="#000005"/>
<path d="M49.3023 109.599H326.702C333.102 109.499 338.402 114.499 338.602 120.899V307.199C338.402 313.599 333.102 318.699 326.702 318.499H49.3023C42.9023 318.699 37.6023 313.599 37.4023 307.199V120.899C37.6023 114.499 42.9023 109.399 49.3023 109.599Z" fill="white"/>
<path d="M50.8008 111.4H324.201C328.001 111.4 332.401 111 335.301 113.8C336.401 114.8 336.901 117.5 336.901 119.3V295.7C336.901 298.9 336.901 302.2 336.901 305.4C336.701 311.7 331.501 316.7 325.201 316.6H47.9008C47.0008 316.6 46.1008 316.5 45.2008 316.3C43.5008 316 42.0008 315.2 40.7008 314.1C39.2008 312.3 39.1008 309.8 39.1008 307.5V125.4C39.1008 124.5 39.1008 123.5 39.1008 122.6C39.3008 116.4 44.5008 111.4 50.8008 111.4C51.4008 111.4 50.2008 109.9 50.1008 109.7C49.7008 109.2 48.6008 107.7 47.9008 107.7C41.4008 107.8 35.9008 112.6 35.8008 119.3C35.8008 120.3 35.8008 121.3 35.8008 122.2V304.8C35.8008 312.8 43.1008 320.3 51.1008 320.3H326.801C327.501 320.3 328.301 320.3 329.001 320.3C335.201 320 340.101 314.9 340.201 308.7C340.201 305.4 340.201 302.1 340.201 298.7V123.2C340.201 119 338.301 115.5 335.401 112.5C332.701 109.5 328.901 107.8 324.801 107.7H47.8008C47.2008 107.7 48.3008 109.2 48.5008 109.4C48.9008 109.9 50.0008 111.4 50.8008 111.4Z" fill="#000005"/>
<path d="M49.3023 107.2H326.702C333.102 107.1 338.402 112.1 338.602 118.5V274.5H37.4023V118.5C37.6023 112.1 42.9023 107.1 49.3023 107.2Z" fill="#000005"/>
<path d="M50.2007 109H323.801C326.601 109 329.501 108.7 332.001 110.2C336.701 113 336.201 117.9 336.201 122.5V273.7L337.501 272.7H48.8007C44.9007 272.7 41.0007 272.6 37.1007 272.7H36.6007L39.7007 275.3V121.7C39.7007 121 39.7007 120.3 39.7007 119.5C39.6007 116.4 41.0007 113.5 43.3007 111.5C45.2007 109.9 47.7007 109 50.2007 109C50.9007 109.1 51.5007 108.5 51.5007 107.8C51.5007 107.5 51.4007 107.3 51.3007 107.1C50.7007 106 49.6007 105.4 48.4007 105.4C41.2007 105.3 35.3007 111 35.2007 118.2C35.2007 118.3 35.2007 118.3 35.2007 118.4V252.2C35.2007 259.3 35.1007 266.4 35.2007 273.5V273.8C35.2007 275.4 36.9007 276.4 38.3007 276.4H327.201C331.101 276.4 335.001 276.5 338.901 276.4H339.401C339.901 276.4 340.701 276 340.701 275.4V130.9C340.701 127.2 340.701 123.5 340.701 119.7C340.701 111.2 333.401 105.4 325.301 105.4H48.4007C47.7007 105.4 47.1007 105.9 47.1007 106.7C47.1007 107 47.2007 107.2 47.3007 107.4C47.9007 108.4 49.0007 109 50.2007 109Z" fill="#000005"/>
<path d="M188.299 302.8C191.668 302.8 194.399 300.158 194.399 296.9C194.399 293.642 191.668 291 188.299 291C184.93 291 182.199 293.642 182.199 296.9C182.199 300.158 184.93 302.8 188.299 302.8Z" fill="white"/>
<path d="M188.901 291.8C189.601 291.8 189.001 291.8 188.901 291.8C189.401 291.9 188.301 291.7 188.901 291.8C189.201 291.9 189.001 291.8 188.901 291.8L189.301 292C189.601 292.1 189.001 291.8 189.401 292.1C189.701 292.3 189.901 292.4 190.201 292.6C191.001 293.3 191.501 294.1 191.801 295.1C192.401 297.2 191.701 299.6 190.001 301C189.701 301.3 189.301 301.5 188.901 301.7C188.601 301.8 188.401 301.9 188.101 302C187.601 302.1 188.301 302 187.801 302.1C187.701 302.1 187.201 302.2 187.601 302.1C187.601 302.1 187.001 302.1 187.401 302.1H187.601C187.201 302.1 187.701 302.1 187.701 302.1C187.101 302 188.201 302.2 187.601 302.1C187.501 302.1 187.301 302 187.601 302.1L187.201 301.9H187.101L186.701 301.6C184.301 299.9 183.701 296.5 185.501 294C185.801 293.6 186.101 293.2 186.501 292.9C186.901 292.5 187.401 292.3 187.901 292C188.101 291.9 188.401 291.8 188.601 291.8L188.901 291.7C188.501 291.8 189.201 291.7 189.301 291.7C189.701 291.7 191.101 291.4 190.301 290.8C189.301 290.3 188.201 290.1 187.101 290.2C184.101 290.2 181.101 291.7 180.101 294.6C179.201 297.3 180.301 300.2 182.701 301.7C184.401 302.7 186.401 303.3 188.501 303.3C190.201 303.4 191.801 303.1 193.401 302.4C196.001 301.2 197.301 298.3 196.701 295.5C195.701 291.6 191.501 290.1 187.801 290.1C187.501 290.1 185.701 290.1 186.001 290.8C186.101 291.1 186.801 291.3 187.001 291.3C187.601 291.6 188.201 291.7 188.901 291.8Z" fill="#000005"/>
<path d="M326.101 119.1H49.3008V263.3H326.101V119.1Z" fill="white"/>
<path d="M50.0992 120.4H315.699C319.299 120.4 322.899 120.5 326.499 120.4H326.999L323.899 118.6V260.6C323.799 261.2 323.799 261.9 323.899 262.5C323.899 262.6 323.899 262.7 323.899 262.7L325.399 261.8H59.6992C56.0992 261.8 52.4992 261.7 48.8992 261.8H48.3992L51.4992 263.6V125.4C51.5992 123.5 51.5992 121.7 51.4992 119.8V119.6C51.4992 118.1 46.8992 116.8 46.8992 118.7V257C46.7992 258.9 46.7992 260.7 46.8992 262.6C46.8992 262.7 46.8992 262.8 46.8992 262.8C46.8992 263.9 49.1992 264.6 49.9992 264.6H326.799C327.399 264.6 328.299 264.5 328.299 263.7V125.4C328.399 123.5 328.399 121.7 328.299 119.8C328.299 119.7 328.299 119.6 328.299 119.6C328.299 118.5 325.899 117.8 325.199 117.8H48.8992C48.6992 117.8 48.5992 117.8 48.3992 117.8C47.5992 117.8 46.5992 118 47.0992 119C47.5992 120 49.1992 120.4 50.0992 120.4Z" fill="#000005"/>
<path d="M70.2016 138.5C72.1898 138.5 73.8016 136.978 73.8016 135.1C73.8016 133.222 72.1898 131.7 70.2016 131.7C68.2133 131.7 66.6016 133.222 66.6016 135.1C66.6016 136.978 68.2133 138.5 70.2016 138.5Z" fill="#68BA7F"/>
<path d="M83.2016 138.3C85.1898 138.3 86.8016 136.778 86.8016 134.9C86.8016 133.022 85.1898 131.5 83.2016 131.5C81.2133 131.5 79.6016 133.022 79.6016 134.9C79.6016 136.778 81.2133 138.3 83.2016 138.3Z" fill="#68BA7F"/>
<path d="M96.2992 138.5C98.2874 138.5 99.8992 136.978 99.8992 135.1C99.8992 133.222 98.2874 131.7 96.2992 131.7C94.311 131.7 92.6992 133.222 92.6992 135.1C92.6992 136.978 94.311 138.5 96.2992 138.5Z" fill="#68BA7F"/>
<path d="M244.297 344.3L309.597 331.6C309.597 331.6 305.297 315.3 289.197 318.9C266.997 323.8 244.297 344.3 244.297 344.3Z" fill="#68BA7F"/>
<path d="M244.1 346.101L266.2 341.801L301.3 335.001L309.3 333.401C310.4 333.201 312.2 332.401 311.8 330.901C309.7 322.801 302.5 316.601 294 316.601C290 316.801 286.1 317.601 282.4 319.001C278.5 320.401 274.6 322.001 270.9 323.901C264.2 327.401 257.8 331.401 251.7 335.901C248.6 338.201 245.4 340.601 242.5 343.201C241.7 343.901 241.3 345.001 242.3 345.701C243.4 346.301 244.8 346.101 245.8 345.301C252.9 339.001 260.7 333.501 269 328.801C275.5 325.201 282.6 321.701 289.9 320.301C294.7 319.301 299.8 320.901 303 324.701C303.7 325.501 304.4 326.401 305 327.401L305.4 328.101L305.5 328.301C305.8 328.801 305.4 328.101 305.5 328.401C305.6 328.701 305.9 329.201 306.1 329.601C306.5 330.401 306.8 331.301 307.1 332.201L309.6 329.701L287.5 334.001L252.4 340.801L244.4 342.401C243.3 342.601 241.9 343.201 241.8 344.501C241.7 345.801 243.2 346.301 244.1 346.101Z" fill="#68BA7F"/>
<path d="M469.1 336.401C469.1 336.401 447.3 333.401 442.2 319.101C437.1 304.801 458.9 282.101 434.5 284.601C410.1 287.101 344 329.901 353 244.301C362.2 157.401 343.5 83.4005 317.1 79.0005C290.7 74.6005 119 80.8005 119 80.8005C258.6 78.2005 179.5 318.301 224.9 342.201C251.4 356.201 267 320.501 289.1 318.901C289.1 318.901 306.1 317.801 300.8 331.601C295.5 345.401 299.3 352.601 317.1 358.501L469.1 336.401Z" fill="white"/>
<path d="M470.097 335C467.397 334.6 464.697 333.9 462.097 333C456.997 331.2 451.797 328.6 448.197 324.5C444.397 320.2 443.197 315.2 444.197 309.6C445.097 304.5 446.997 299.8 448.197 294.8C448.997 291.3 449.397 286.8 445.897 284.7C441.997 282.3 436.297 282.9 431.997 283.7C425.397 284.9 418.897 287.2 412.497 289.3C404.997 291.8 397.997 294 390.297 295.3C383.697 296.4 376.897 296.9 370.497 294.4C363.797 291.8 359.397 285.6 357.197 278.8C353.097 266.1 354.697 252.4 355.897 239.3C359.197 204.4 358.897 168.5 351.597 134.1C348.997 121.9 345.597 109.8 339.997 98.6004C336.397 91.4004 331.397 83.6004 323.997 79.7004C319.197 77.2004 313.597 77.1004 308.297 76.8004C300.697 76.4004 292.997 76.2004 285.397 76.2004C264.297 76.0004 243.097 76.3004 221.997 76.7004C200.697 77.1004 179.397 77.6004 158.097 78.3004C145.797 78.7004 133.497 79.1004 121.197 79.5004L119.397 79.6004C118.497 79.6004 116.797 80.0004 116.597 81.1004C116.397 82.2004 117.797 82.5004 118.597 82.4004C129.597 82.2004 140.697 83.6004 151.097 87.5004C159.797 90.8004 167.697 96.0004 174.197 102.7C180.697 109.6 185.997 117.5 189.797 126.1C193.897 135.4 196.997 145.1 199.097 155.1C201.397 165.9 202.997 176.9 203.897 188C204.897 199.4 205.397 210.9 205.597 222.4C205.797 233.7 205.797 245 205.897 256.2C205.897 266.6 205.897 277 206.297 287.3C206.497 296.1 207.197 304.8 208.397 313.5C209.397 320.2 210.897 327 213.897 333.2C216.597 339 221.497 343.4 227.497 345.4C234.297 347.7 241.797 347.4 248.397 344.5C254.997 341.7 260.597 337.3 266.197 333C271.397 328.9 276.697 324.4 282.997 322C284.997 321.2 287.097 320.7 289.197 320.5H290.397C290.897 320.5 290.097 320.5 290.597 320.5C291.597 320.6 292.597 320.7 293.597 320.9C295.597 321.2 297.297 322.3 298.597 323.8C300.497 326.4 299.397 329.7 298.397 332.5C296.297 338.3 295.097 345.1 299.197 350.4C301.397 353 304.097 355.1 307.197 356.5C309.197 357.5 311.197 358.4 313.297 359.1C314.597 359.7 316.097 360.1 317.497 360C318.697 359.9 319.897 359.7 321.097 359.5L342.497 356.4L376.097 351.5L413.497 346.1L446.497 341.3L466.697 338.4L469.497 338C470.297 337.9 471.897 337.2 471.697 336.2C471.497 335.2 469.697 335.2 468.997 335.3L453.897 337.5L417.597 342.7L373.797 349L335.697 354.5L323.197 356.3C321.197 356.6 319.197 356.8 317.297 357.2H316.997L318.797 357.3C313.597 355.6 307.797 353.5 304.097 349.2C301.397 346 300.797 342 301.497 337.9C302.297 333.4 305.597 328.5 303.897 323.9C302.697 320.6 299.397 318.9 296.197 318.2C278.597 314.1 265.397 330.7 252.097 339.1C248.297 341.5 244.197 343.6 239.597 344.1C234.997 344.5 230.397 343.4 226.497 341.1C223.497 339.4 221.097 336.9 219.497 333.8C214.697 325.6 213.297 315.2 212.297 305.7C210.897 292.2 210.797 278.6 210.697 265C210.597 249.2 210.697 233.5 210.297 217.7C209.997 201.6 208.797 185.5 206.697 169.6C204.597 155.1 201.297 140.5 195.497 127C190.197 114.7 182.597 103.4 172.097 95.0004C160.697 85.9004 146.497 81.3004 132.097 80.0004C127.897 79.6004 123.597 79.5004 119.397 79.6004L118.597 82.4004C127.397 82.1004 136.097 81.8004 144.797 81.5004C164.797 80.8004 184.897 80.3004 204.897 79.8004C226.797 79.3004 248.797 78.9004 270.797 78.9004C279.597 78.9004 288.397 78.9004 297.297 79.2004C302.997 79.2004 308.697 79.6004 314.297 80.2004C316.797 80.4004 319.297 81.3004 321.397 82.6004C324.597 84.7004 327.297 87.3004 329.497 90.4004C335.897 99.1004 339.797 109.6 342.897 119.9C346.997 134.3 349.697 149 350.997 163.8C352.797 181.8 353.197 199.9 352.397 217.9C351.997 227.7 350.997 237.4 350.197 247.2C349.497 254.1 349.397 261 349.997 267.9C350.797 276.4 352.997 285.8 359.497 292C370.797 302.8 388.597 299.2 402.097 295.5C409.397 293.5 416.497 291 423.697 288.8C425.297 288.3 426.897 287.8 428.497 287.4L429.097 287.3L430.097 287.1C430.797 286.9 431.497 286.8 432.197 286.7C432.897 286.6 433.397 286.5 434.097 286.4C434.997 286.3 433.797 286.4 434.697 286.3C435.597 286.2 436.797 286.1 437.897 286.2C439.597 286.2 441.697 286.4 442.897 287.8C445.397 290.6 443.397 295.9 442.497 298.9C440.997 303.9 439.297 308.9 439.097 314.1C438.697 325.9 450.297 333 460.297 336.2C462.897 337.1 465.597 337.7 468.297 338.1C469.297 338.2 470.997 338 471.597 337C472.197 336 470.997 335.1 470.097 335Z" fill="#68BA7F"/>
<path d="M88.197 105.701C88.197 105.701 83.397 90.8008 118.997 80.8008C153.897 71.0008 179.597 105.101 179.597 105.101" fill="#68BA7F"/>
<path d="M90.5988 105.401C89.8988 103.201 90.5988 100.801 91.5988 98.8007C94.7988 92.0007 102.599 88.0007 109.299 85.3007C115.099 82.9007 121.399 80.9007 127.699 80.3007C132.799 79.9007 137.999 80.4007 142.999 81.8007C151.799 84.4007 159.899 88.9007 166.699 95.0007C169.199 97.1007 171.599 99.4007 173.899 101.801C174.999 103.001 175.999 104.301 177.099 105.501L177.199 105.701C178.099 106.901 182.799 105.701 181.899 104.501C179.199 101.101 176.199 97.9007 172.899 95.0007C165.899 88.6007 157.599 83.7007 148.599 80.6007C143.199 78.8007 137.499 77.9007 131.799 78.0007C124.799 78.1007 118.199 79.8007 111.599 82.0007C102.999 84.9007 93.0988 89.2007 87.7988 97.0007C86.5988 98.8007 85.7988 100.901 85.4988 103.001C85.2988 104.001 85.2988 105.001 85.5988 106.001V106.101C86.1988 107.701 91.0988 106.701 90.5988 105.401Z" fill="#68BA7F"/>
<path d="M335.699 135.7C335.699 135.7 294.899 136.2 290.699 135.7C290.699 135.7 292.799 175.2 293.999 175.2C295.199 175.2 334.799 174.1 338.499 172.8C342.199 171.5 335.699 135.7 335.699 135.7Z" fill="#68BA7F"/>
<path d="M334.499 135.201C322.099 135.301 309.599 135.501 297.199 135.401H294.699H293.899H292.999H291.399C291.199 135.401 290.299 135.301 291.299 135.401C290.999 135.401 290.299 135.301 291.399 135.401C291.299 135.401 288.199 135.001 288.199 135.501C288.699 143.601 289.199 151.801 289.699 159.901C289.999 164.301 290.299 168.801 290.999 173.201C290.999 173.701 291.099 174.201 291.299 174.601C291.599 175.401 292.499 175.401 293.299 175.501C294.699 175.601 295.999 175.701 297.399 175.601C307.999 175.301 318.699 175.001 329.299 174.301C331.599 174.201 333.899 174.001 336.299 173.801C337.699 173.701 339.199 173.501 340.599 173.201C341.699 172.901 341.899 171.801 342.099 170.801C342.299 168.801 342.399 166.801 342.199 164.701C341.499 155.201 340.299 145.801 338.399 136.401C338.399 136.201 338.299 136.001 338.299 135.801C338.099 134.901 333.299 135.201 333.299 135.401C334.799 143.401 335.999 151.501 336.799 159.601C336.999 162.001 337.199 164.401 337.299 166.801C337.399 168.401 337.299 170.001 336.899 171.501C336.799 171.801 336.599 172.101 336.299 172.301C336.099 172.401 336.499 172.301 336.199 172.301L335.899 172.401L335.099 172.501C333.799 172.701 331.799 172.901 330.099 173.001C319.499 173.801 308.899 174.101 298.199 174.401C296.699 174.401 295.199 174.501 293.799 174.501C293.499 174.501 293.199 174.501 292.999 174.501C291.299 174.601 296.499 174.701 296.599 175.101C296.599 175.001 296.599 175.001 296.499 175.001C296.399 175.001 296.399 174.601 296.399 174.401C295.699 170.701 295.299 166.901 295.099 163.201C294.399 154.201 293.799 145.201 293.299 136.201V135.601L289.999 136.001C292.499 136.201 295.099 136.301 297.699 136.301C301.299 136.301 304.999 136.301 308.599 136.301C316.299 136.301 323.999 136.201 331.699 136.101L336.999 136.001C337.499 136.001 338.599 136.001 337.899 135.501C337.199 135.001 335.299 135.201 334.499 135.201Z" fill="#68BA7F"/>
<path d="M270.4 245.601C270.4 245.601 229.7 246.301 225.5 245.601C225.5 245.601 227.6 300.001 228.8 300.001C230 300.001 269.6 298.501 273.3 296.701C277 294.901 270.4 245.601 270.4 245.601Z" fill="#68BA7F"/>
<path d="M269.798 243.2C257.298 243.4 244.798 243.6 232.398 243.5C230.798 243.5 229.298 243.5 227.698 243.4H226.798C226.198 243.4 226.998 243.4 226.498 243.4C225.998 243.4 225.798 243.4 225.398 243.3C224.498 243.1 223.598 243.8 223.398 244.7C223.398 244.9 223.398 245 223.398 245.2C223.798 254.9 224.198 264.6 224.698 274.3C224.998 280.6 225.298 286.9 225.798 293.2C225.898 295.2 226.098 297.1 226.398 299.1C226.698 300.8 227.498 302.5 229.498 302.5C234.298 302.5 239.198 302.1 243.998 301.9C251.098 301.5 258.298 301.2 265.398 300.5C267.698 300.3 270.098 300 272.398 299.6C274.198 299.2 275.198 298.5 275.698 296.6C276.098 294.6 276.298 292.5 276.198 290.5C276.198 287.5 276.098 284.5 275.898 281.5C275.198 269.9 273.898 258.4 272.398 246.8L272.298 246.1C272.298 244.8 271.398 243.7 270.198 243.3C269.298 243.1 268.398 243.8 268.198 244.7C268.198 244.9 268.198 245.1 268.198 245.2C269.498 254.9 270.598 264.6 271.398 274.4C271.998 280.3 272.298 286.2 272.098 292.1C272.098 292.3 272.098 292.6 272.098 292.8C272.098 293 272.198 292.3 272.098 293C272.098 293.4 271.998 293.8 271.898 294.2C271.798 294.6 271.598 295.4 271.798 294.6C271.798 294.7 271.698 294.8 271.698 294.9C271.398 295.3 272.098 294.5 271.798 294.8C271.498 295.1 272.298 294.7 271.998 294.7C271.898 294.7 271.798 294.8 271.698 294.8L271.498 294.9C271.498 294.9 271.998 294.8 271.698 294.8L271.098 294.9C270.098 295.1 269.098 295.2 268.098 295.4C261.598 296.2 254.998 296.5 248.498 296.9C242.498 297.2 236.498 297.5 230.498 297.7C229.798 297.7 229.098 297.7 228.398 297.8C228.298 297.8 227.998 297.8 227.998 297.8C227.998 297.8 229.398 298.3 229.498 298.3C229.798 298.6 229.998 298.9 230.198 299.2C230.098 298.9 230.398 300 230.298 299.6C230.298 299.4 230.198 299.2 230.198 299L230.098 298.6C229.998 298.1 230.198 299.2 230.098 298.7C229.998 297.8 229.898 297 229.798 296.2C229.298 290.6 228.998 284.9 228.698 279.2C228.098 268.4 227.598 257.6 227.198 246.8C227.198 246.6 227.198 246.4 227.198 246.2L225.198 248.1C227.298 248.4 229.498 248.5 231.598 248.4C235.198 248.5 238.898 248.5 242.598 248.4C250.198 248.4 257.898 248.3 265.598 248.2L270.698 248.1C273.698 248 272.298 243.2 269.798 243.2Z" fill="#68BA7F"/>
<path d="M289.598 318.5C290.998 318.4 292.398 318.2 293.798 317.9C295.998 317.4 298.298 317 300.498 316.5C307.498 315 314.498 313.4 321.598 311.8L346.898 306.1C354.298 304.4 361.698 302.8 369.098 301.1C371.698 300.5 374.198 300 376.798 299.5C377.698 299.3 378.598 299.1 379.398 299L380.298 298.8C380.698 298.7 381.298 298.7 380.398 298.8C380.698 298.8 381.298 298.8 380.098 298.8C380.998 298.8 382.698 298.7 383.098 297.7C383.498 296.7 381.898 296.4 381.198 296.4C379.798 296.5 378.398 296.7 376.998 297C374.798 297.5 372.498 297.9 370.298 298.4C363.298 299.9 356.298 301.5 349.298 303.1L323.998 308.8C316.598 310.5 309.198 312.2 301.798 313.8C299.198 314.4 296.698 314.9 294.098 315.5L291.498 316L290.598 316.2C290.098 316.3 289.598 316.3 290.498 316.2C290.198 316.2 289.598 316.2 290.798 316.2C289.898 316.2 288.198 316.3 287.798 317.3C287.398 318.3 288.998 318.5 289.598 318.5Z" fill="#68BA7F"/>
<path d="M228.9 116.6C232.5 116.9 236 115.7 238.7 113.3C239.8 112.3 240.8 111.2 241.7 110C242.7 108.6 243.9 107 244 105.2C244.2 101.4 239.7 100.6 237 102.2C234.3 103.8 233.9 107.3 235.2 110C238.4 116.4 247.3 116.2 253 114.1C258.5 112.1 262.9 107.8 265.1 102.3C266 99.9002 266.7 96.7002 265.8 94.2002C264.5 90.7002 260.3 90.7002 257.4 92.2002C251.4 95.4002 254 104.2 256.6 108.8C259.4 114.1 265.1 117.3 271.1 116.7C276.3 116.2 283.1 112.7 282.9 106.6C282.7 102.4 277.7 101.3 274.6 103.3C271.5 105.3 272 109.1 274.4 111.3C279.9 116.4 289.9 118.3 295.3 111.9C296.1 111 294.7 110.4 294 110.4C292.8 110.3 291.6 110.7 290.8 111.6C287.9 115 283 112.4 280.1 110.4C278.6 109.4 276.8 107.6 277.4 105.6C277.5 105.3 277.7 105.1 277.8 104.8C277.8 104.9 276.6 105.1 276.6 105.1L277.1 105.4C277.9 106.2 278.2 107.3 278 108.4C277.4 111.5 274.8 113.9 271.6 114C268 114.2 264.8 112 262.7 109.2C260.1 105.8 258.7 101.6 258.8 97.3002C258.8 96.3002 259.1 95.3002 259.7 94.5002C259.9 94.3002 260 94.1002 260.2 94.0002H259.9C260.1 94.1002 260.2 94.2002 260.3 94.3002C261.7 95.5002 261.4 97.9002 261.2 99.5002C260 106.5 253.4 113.6 245.8 112.5C243.4 112.2 241.3 110.8 240.1 108.7C239.5 107.6 239.3 106.4 239.5 105.3C239.6 104.8 239.9 104.4 240 104C240.1 103.4 238.3 103.7 238.6 104.2C238.7 104.4 239 104.6 239.1 104.8C240.2 106.9 237.5 109.8 236.2 111.3C234.9 112.8 233.2 114.2 231.2 113.9C230 113.7 228.8 114.2 228 115.1C227 116 228.1 116.4 228.9 116.6Z" fill="#68BA7F"/>
<path d="M298.9 171.401C301.6 165.601 305.8 160.601 311.1 157.001C311.7 156.601 312.5 156.201 313.2 155.901C313.7 155.701 314.2 155.601 314.7 155.601C314.9 155.601 315.1 155.601 315.3 155.601C316.2 155.701 315.7 155.301 313.9 154.301C314.2 155.001 314.7 155.501 315 156.301C315.3 157.001 315.5 157.801 315.7 158.601C316.3 160.901 317.1 165.301 314.3 166.501L317.6 168.401C318 168.701 317.6 168.001 317.5 167.701C317.4 167.301 317.5 166.901 317.6 166.501C317.8 165.801 318.3 165.201 318.8 164.701C320 163.701 321.5 163.001 323.1 162.701C324.6 162.501 326 162.501 327.5 162.801C328.2 163.001 328.8 163.201 329.4 163.401C330.3 163.701 329 163.301 329 163.101C329 163.301 329.7 163.901 329.9 164.101C330.7 164.901 331.6 165.601 332.6 166.201C332.8 166.301 334.2 167.101 333.6 166.301C330.7 162.601 325.6 159.501 320.8 159.601C318.6 159.601 316.4 160.401 314.7 161.801C313.8 162.501 313.3 163.701 313.4 164.901C313.6 165.901 314.3 166.901 315.2 167.401C315.7 167.801 317.7 169.601 318.4 169.301C321.7 167.801 320.2 162.001 319.3 159.501C318.8 157.901 317.8 156.401 316.5 155.401C315 154.101 313 152.601 310.9 152.601C309 152.601 307.3 153.701 305.9 154.801C304.4 156.001 303 157.301 301.6 158.601C298.9 161.501 296.6 164.801 294.8 168.401C294.5 169.301 298.8 171.801 298.9 171.401Z" fill="white"/>
<path d="M320.598 149.001C319.198 150.501 319.398 152.901 320.898 154.201C320.998 154.301 320.998 154.301 321.098 154.401C322.798 155.801 325.598 155.901 327.598 155.301C329.798 154.701 331.698 153.401 333.098 151.601C333.798 150.601 333.798 149.301 332.998 148.401C332.398 147.601 331.698 147.001 330.898 146.401C329.098 145.101 327.098 144.201 324.898 143.901C324.298 143.801 323.598 143.901 322.998 144.201C322.498 144.401 321.998 144.801 321.698 145.301C321.198 146.401 322.098 147.201 323.098 147.301L323.598 147.401L323.898 147.501H323.698C323.998 147.601 324.298 147.701 324.598 147.801C324.898 147.901 325.198 148.001 325.498 148.201L325.698 148.301C325.898 148.401 325.898 148.401 325.598 148.301C325.698 148.401 325.898 148.401 325.998 148.501C326.598 148.801 327.098 149.201 327.598 149.701L327.998 150.101C328.098 150.201 328.398 150.401 328.098 150.201C328.398 150.401 328.598 150.701 328.798 151.101L328.598 150.701C328.698 150.901 328.698 151.001 328.698 151.201V150.701C328.698 150.801 328.598 151.101 328.698 150.901C328.798 150.701 328.698 150.901 328.698 151.001C328.598 151.301 328.598 151.101 328.698 151.001C328.598 151.101 328.598 151.101 328.498 151.201C328.398 151.401 328.198 151.501 327.998 151.701C327.898 151.801 327.898 151.801 327.798 151.901C327.498 152.201 328.098 151.701 327.898 151.801C327.698 151.901 327.598 152.001 327.398 152.201L327.098 152.401C326.898 152.601 327.598 152.201 327.298 152.301C326.998 152.401 326.898 152.501 326.798 152.501C326.698 152.501 326.298 152.701 326.698 152.501C327.098 152.301 326.698 152.501 326.598 152.501L325.998 152.601C325.698 152.701 326.598 152.501 326.298 152.601H325.998H325.698C325.198 152.601 326.098 152.601 325.898 152.601L325.298 152.501C325.798 152.501 325.598 152.601 325.398 152.501C325.198 152.401 325.198 152.401 325.098 152.401C324.998 152.401 325.498 152.601 325.198 152.501L324.898 152.301C324.898 152.301 324.698 152.101 324.798 152.301C324.898 152.501 324.798 152.201 324.698 152.201C324.598 152.001 324.498 151.901 324.398 151.701L324.598 152.101C324.498 151.801 324.398 151.401 324.398 151.101V151.601C324.398 151.401 324.498 151.201 324.498 150.901C324.698 150.501 324.198 151.301 324.498 151.001C325.098 150.501 325.098 149.701 324.698 149.101C324.498 148.901 324.298 148.701 323.998 148.701C322.798 147.901 321.498 148.201 320.598 149.001Z" fill="white"/>
<path d="M234.597 286.401C237.197 280.401 241.997 274.501 248.097 271.701C248.497 271.501 248.897 271.401 249.297 271.201C249.597 271.101 249.897 271.001 250.197 271.001L248.297 270.801C248.297 270.901 248.897 271.301 248.997 271.401C249.297 271.701 249.497 272.101 249.697 272.501C250.297 274.001 250.597 275.601 250.697 277.201C250.897 279.801 251.597 284.901 248.697 286.401L253.597 287.201C251.897 284.201 254.597 280.801 256.997 279.001C258.297 278.001 259.797 277.301 261.397 277.001C262.797 276.801 260.797 277.001 260.897 276.801C260.897 276.801 261.697 277.101 261.797 277.201C262.497 277.601 263.097 278.201 263.597 278.801C264.097 279.401 265.897 279.401 266.597 279.501C266.797 279.501 268.697 279.601 268.397 279.301C266.997 277.701 264.997 276.601 262.797 276.301C260.297 275.701 257.697 275.701 255.197 276.401C251.697 277.601 246.297 282.201 248.597 286.301C248.897 286.801 250.197 286.901 250.697 287.001C251.397 287.101 252.797 287.501 253.497 287.101C254.997 286.301 255.597 284.601 255.697 283.001C255.897 280.801 255.797 278.501 255.497 276.301C255.297 274.601 254.897 272.701 253.597 271.401C251.997 269.901 249.097 269.601 246.997 269.601C242.997 269.601 239.397 272.601 236.697 275.201C233.697 278.001 231.297 281.501 229.697 285.201C229.597 285.701 234.197 287.201 234.597 286.401Z" fill="white"/>
<path d="M253.997 262.1C253.497 263.3 253.297 264.5 253.297 265.8C253.397 267.2 254.097 268.5 255.297 269.2C256.397 269.8 257.697 270.2 258.997 270.3C260.297 270.5 261.497 270.4 262.697 270C265.297 269.1 266.797 266.4 266.397 263.7C266.097 261.3 264.897 259 262.997 257.4C260.597 255.5 256.297 256.2 255.097 259.3C254.897 259.8 254.797 260.4 254.997 261C255.197 261.5 255.697 261.9 256.297 262.1C257.597 262.4 258.897 261.9 259.497 260.7C259.497 260.6 259.597 260.5 259.597 260.4C259.397 260.8 259.297 260.8 259.497 260.6L259.597 260.5C259.397 260.9 259.197 260.9 259.497 260.7L259.397 260.8C259.197 260.9 259.097 260.9 259.297 260.9C259.497 260.9 259.597 260.9 259.097 260.9C259.197 260.9 259.297 260.9 259.397 260.8C259.797 260.7 258.797 260.8 259.197 260.8C259.297 260.8 259.397 260.8 259.497 260.8L259.097 260.7H259.297C259.397 260.7 259.497 260.8 259.597 260.8L259.297 260.7L259.497 260.8C259.597 260.8 259.797 261 259.797 261C259.897 261.1 259.997 261.2 259.997 261.2C260.197 261.4 260.397 261.7 260.497 261.9L260.197 261.4C260.697 262.2 261.097 263.2 261.397 264.1L261.297 263.5C261.397 264 261.497 264.4 261.497 264.9C261.497 265.3 261.497 264.9 261.497 264.8C261.497 264.9 261.497 265 261.497 265.1C261.497 265.2 261.497 265.3 261.397 265.4C261.297 265.5 261.397 265.5 261.397 265.6C261.397 265.7 261.397 265.7 261.497 265.3C261.497 265.4 261.397 265.5 261.397 265.5L261.297 265.7C261.197 265.9 261.297 265.8 261.397 265.5C261.297 265.5 261.297 265.7 261.197 265.7C260.997 265.9 261.697 265.3 261.297 265.6C261.197 265.7 261.097 265.7 261.097 265.8C260.897 266 261.697 265.5 261.297 265.7C261.197 265.8 261.097 265.8 260.997 265.8C260.997 265.8 261.697 265.6 261.197 265.7L260.997 266C260.897 266 260.497 266 260.997 266C261.497 266 260.997 266 260.897 266H260.597C260.397 266 260.097 266 259.897 265.9C259.497 265.9 260.297 266 260.097 265.9L259.797 265.8C259.397 265.7 258.997 265.6 258.497 265.4C258.897 265.7 257.997 265.2 258.497 265.4L258.197 265.2C257.997 265.1 258.497 265.6 258.297 265.2C258.197 265.1 258.197 265 258.097 264.9L258.397 265.4C258.297 265.2 258.197 265 258.197 264.9L258.297 265.5C258.197 265.3 258.197 265 258.197 264.8C258.197 264.3 258.097 265.3 258.197 264.9C258.197 264.8 258.197 264.6 258.197 264.5C258.197 264.2 258.297 264 258.397 263.7L258.497 263.4C258.697 262.9 258.397 263.8 258.497 263.4C258.697 262.9 258.797 262.3 258.597 261.7C258.397 261.2 257.897 260.8 257.297 260.6C255.997 260.2 254.597 260.8 253.997 262.1Z" fill="white"/>
<path d="M221.499 146.8C224.299 146.2 231.699 144.6 229.799 140.3C229.199 138.9 227.699 138.2 226.299 138.5C224.599 139.1 223.699 141 224.399 142.7C224.399 142.8 224.499 142.9 224.499 143C225.399 145.3 227.999 146.4 230.399 146.5C234.799 146.6 238.899 144.7 241.699 141.3C242.299 140.6 241.599 139.4 241.099 138.8C240.399 138.1 239.299 137.7 238.299 138C235.999 138.6 235.899 141.3 237.099 143C238.499 145 241.199 145.8 243.499 146.2C247.499 147 252.799 145.4 253.399 140.7C253.499 139.7 252.899 138.8 252.099 138.3C251.399 137.9 249.999 137.5 249.299 138.1C247.699 139.7 248.099 141.7 249.299 143.4C250.599 145.1 252.499 146.2 254.499 146.6C258.299 147.5 262.199 146.3 264.799 143.4C265.599 142.5 264.399 141 263.699 140.5C262.799 139.8 261.399 139.9 260.599 140.7C259.299 142.1 257.399 142.8 255.499 142.8C255.299 142.8 252.099 142.1 252.799 141.5L248.699 138.9C248.399 140.7 246.899 142.1 245.099 142.3C243.999 142.4 242.899 142.2 241.799 141.9C241.599 141.8 240.799 141.4 240.699 141.5C240.599 141.6 240.999 141.9 240.899 141.9L237.499 138.6C235.999 140.4 233.999 141.6 231.799 142.2C230.799 142.4 229.899 142.4 228.899 142.4C228.999 142.4 228.599 142.3 228.599 142.3C228.599 142.3 229.099 142.8 228.999 142.7C228.899 142.6 229.099 142.4 229.099 142.3L225.599 140.5C225.499 140.2 225.899 140.2 225.399 140.5C225.299 140.6 225.099 140.7 224.899 140.9C224.299 141.2 223.699 141.5 222.999 141.7C221.699 142.2 220.399 142.6 218.999 142.8C217.799 143 217.899 144.6 218.399 145.4C218.999 146.6 220.199 147.1 221.499 146.8Z" fill="#68BA7F"/>
<path d="M220.297 162.1C223.297 161.5 231.897 159.6 229.797 154.8C229.297 153.6 227.597 153.5 226.597 153.9C224.597 154.5 223.497 156.6 224.097 158.6C224.097 158.7 224.097 158.7 224.197 158.8C224.997 160.9 227.397 161.7 229.397 161.8C233.997 161.9 238.397 159.9 241.297 156.4C242.597 154.8 240.897 152.8 239.097 153.3C236.897 153.8 235.097 155.9 236.197 158.2C237.297 160.4 240.397 161.1 242.497 161.5C246.897 162.3 252.597 160.4 253.197 155.3C253.497 152.8 250.097 152.7 248.797 154C247.497 155.4 247.397 157.5 248.597 159C249.797 160.6 251.597 161.7 253.497 162C257.497 162.9 261.597 161.6 264.397 158.6C266.497 156.3 262.197 154.4 260.497 156.3C259.297 157.6 257.697 158.3 255.897 158.2C255.097 158.2 254.197 157.9 253.497 157.5C253.297 157.3 252.497 156.5 252.697 156.4L248.297 155.1C248.097 156.7 246.697 157.9 245.097 157.9C243.997 157.9 242.997 157.7 241.997 157.3C241.697 157.2 241.297 156.9 240.897 156.8C240.397 156.7 241.197 156.7 240.497 157.1L239.297 157.5L239.597 157.4L237.297 154.2C235.997 155.9 234.097 157.1 232.097 157.6C231.197 157.9 230.197 158 229.297 157.8C229.097 157.7 228.797 157.4 228.797 157.4C228.797 157.4 228.897 157.3 228.797 157.3C228.697 157.3 228.297 157.6 228.397 157.6L225.197 156.7C225.097 156.4 225.297 156.4 225.097 156.4C224.897 156.4 224.797 156.6 224.697 156.7C224.197 156.9 223.697 157.2 223.097 157.3C221.997 157.7 220.897 158.1 219.697 158.3C218.597 158.5 217.297 159.3 217.497 160.7C217.897 161.7 219.097 162.4 220.297 162.1Z" fill="#68BA7F"/>
<path d="M220.399 175.1C223.399 175.2 226.399 174.2 228.799 172.5C229.799 171.8 230.599 170.9 231.299 169.9C231.699 169.5 231.799 168.9 231.699 168.4C231.499 167.8 230.699 167.7 230.199 167.7C227.599 167.8 223.699 170 225.599 173C227.099 175.4 230.299 175.2 232.699 174.8C234.399 174.6 235.999 174.2 237.599 173.7C238.699 173.3 240.999 172.3 240.699 170.8C240.499 169.9 235.799 171.3 235.999 172.6C235.999 172.7 235.999 172.8 235.999 172.9C235.799 172.4 237.399 172.3 237.699 172.1C237.299 172.3 236.799 172.3 236.299 172.4C235.399 172.6 234.499 172.7 233.599 172.8C231.999 172.9 230.499 172 229.899 170.5C229.799 170.2 229.699 169.8 229.799 169.5C229.799 169.3 229.899 169.1 229.899 169C230.199 167.6 226.999 170.9 226.899 170C226.899 170.2 227.099 170.2 226.999 170.5C226.999 170.7 226.899 170.9 226.799 171C226.599 171.3 226.399 171.6 226.099 171.9C225.899 172.1 225.599 172.4 225.299 172.6C225.199 172.7 224.999 172.8 224.799 172.9L225.199 172.8C224.499 173 225.399 172.8 224.999 172.9C224.699 173 224.399 173 224.199 173C222.999 173 221.899 173.3 220.899 173.9C220.599 174 219.299 175.1 220.399 175.1Z" fill="#68BA7F"/>
<path d="M245.297 171.8C245.397 172 245.397 172.2 245.497 172.4C245.697 172.8 245.997 173.2 246.297 173.5C246.597 173.9 246.997 174.2 247.497 174.4C247.697 174.5 247.897 174.6 248.097 174.6H248.197C248.397 174.6 248.597 174.7 248.797 174.7C248.997 174.7 249.197 174.7 249.397 174.6H249.497L249.897 174.4C249.997 174.3 250.097 174.1 250.197 174C250.197 174 250.197 173.9 250.297 173.9C250.397 173.7 250.397 173.6 250.397 173.4C250.397 173.2 250.397 173 250.297 172.8C250.297 172.7 250.197 172.6 250.197 172.4C250.197 172.3 250.097 172.2 250.097 172.1C249.997 171.9 249.897 171.7 249.797 171.5C249.697 171.3 249.497 171.1 249.297 170.9C249.097 170.7 248.897 170.5 248.697 170.4C248.497 170.3 248.297 170.1 248.097 170C247.697 169.8 247.397 169.7 246.997 169.7C246.797 169.7 246.497 169.8 246.397 169.9C246.197 170 245.997 170.2 245.997 170.4C245.897 170.6 245.897 170.9 245.897 171.1C245.897 171.4 245.997 171.6 246.097 171.9L246.397 172.4C246.697 172.8 246.997 173.1 247.297 173.4L247.797 173.7C248.097 173.9 248.497 173.9 248.797 173.9L248.297 173.8H248.397L247.897 173.6H247.997L247.497 173.3L247.597 173.4L247.097 173L247.197 173.1L246.797 172.6L246.897 172.7L246.597 172.2L246.697 172.3L246.497 171.8V171.9V171.4V171.5L246.597 171.1C246.597 171.2 246.597 171.2 246.497 171.2L246.697 170.8L246.597 170.9L246.997 170.7L246.897 170.8L247.297 170.7H247.197L247.697 170.8H247.597L248.097 171H247.997L248.497 171.3L248.397 171.2L248.897 171.6V171.5L249.297 172V171.9L249.597 172.4C249.597 172.4 249.597 172.4 249.597 172.3L249.797 172.8C249.797 172.5 249.597 172.2 249.497 172C249.397 171.7 249.197 171.4 248.897 171.2C248.697 171 248.397 170.8 248.097 170.6C247.897 170.4 247.597 170.3 247.297 170.3L246.797 170.2C246.497 170.2 246.197 170.3 245.997 170.5L245.797 170.9C245.697 171.2 245.697 171.6 245.697 171.9L245.297 171.8Z" fill="#68BA7F"/>
<path d="M225.7 200.401C228 199.901 230.2 199.201 232.3 198.201C234 197.301 236.3 195.401 235.4 193.301C235 192.501 233.8 192.501 233.1 192.701C231.1 193.301 229.3 194.901 229.7 197.201C230.1 199.501 232.6 200.201 234.5 200.201C239.2 200.201 243.6 198.201 246.7 194.601C247.2 194.001 247.6 193.401 247.1 192.701C246.5 192.101 245.7 192.001 244.9 192.301C242.8 192.801 240.7 195.001 241.9 197.201C243 199.101 246.1 199.801 248.1 200.101C252.7 200.701 258.2 198.201 258.8 193.201C258.9 192.401 257.9 192.101 257.3 192.101C256.3 192.101 255.4 192.501 254.7 193.201C253.3 194.401 253.1 196.501 254.3 197.901C255.5 199.401 257.2 200.401 259 200.601C263 201.301 267 199.901 269.8 196.901C270.5 196.201 270.8 195.001 269.7 194.501C268.5 194.101 267.2 194.501 266.3 195.401C265.2 196.701 263.6 197.301 261.9 197.101C261 197.001 260.1 196.701 259.3 196.201C258.9 195.901 258.6 195.601 258.4 195.201C258.3 195.101 258.3 194.901 258.2 194.801C258 194.401 258.4 194.401 258.1 194.601L254 194.501C253.8 196.101 252.4 196.701 251 196.701C249.9 196.601 248.8 196.401 247.8 196.001C247.3 195.901 246.9 195.601 246.6 195.301C246.5 195.201 246.4 195.101 246.4 194.901C246.4 194.301 245.9 194.501 245.1 195.701L243.3 193.301C242 195.001 240.1 196.101 238.1 196.601C237.2 196.801 236.3 196.801 235.4 196.601C235 196.501 234.7 196.201 234.5 195.901C234.1 194.901 235.4 195.501 233.2 196.201L230.9 195.601C230.3 195.801 229.8 196.101 229.2 196.301C228.1 196.701 226.9 197.001 225.7 197.301C224.7 197.501 223.3 198.501 223.4 199.601C223.5 200.701 224.9 200.501 225.7 200.401Z" fill="#68BA7F"/>
<path d="M227.098 215.2C229.098 214.8 236.998 213.1 235.498 209.7C234.898 208.4 232.898 207.8 231.598 208.2C230.198 208.5 229.298 209.9 229.598 211.3C229.698 211.6 229.698 211.8 229.898 212C230.898 214 233.698 214.7 235.698 214.8C240.098 215 244.398 213.2 247.198 209.8C248.498 208.2 244.298 207.4 243.398 207.6C241.398 208.1 240.898 210.2 242.298 211.7C243.798 213.5 246.598 214.2 248.798 214.5C252.698 215.2 258.198 214.1 258.798 209.4C258.998 207.5 255.198 206.9 254.098 207.9C252.798 209.1 253.398 210.9 254.398 212.1C255.798 213.6 257.698 214.6 259.798 214.9C263.598 215.8 267.598 214.7 270.298 211.9C271.598 210.5 266.898 208.8 265.798 210.1C264.498 211.6 262.698 212.4 260.798 212.4C259.598 212.3 257.298 211 258.698 209.6L253.998 208.1C253.798 210.1 252.198 211.6 250.298 211.9C249.298 212 248.298 211.8 247.398 211.5C247.098 211.4 246.698 211.3 246.498 211.1C246.398 210.8 246.398 210.5 246.498 210.3L242.698 208.1C241.198 209.9 239.198 211.2 236.898 211.9C236.398 212 235.998 212.1 235.498 212.2C235.198 212.2 234.898 212.2 234.598 212.2C234.398 212.2 234.198 212 234.298 212.2C234.598 212.5 234.298 211.8 234.298 211.7C234.298 211.4 234.398 211.1 234.498 210.9L230.598 209.4C231.398 211.3 225.198 212.5 224.098 212.8C222.998 213.1 222.998 213.9 223.698 214.6C224.598 215.1 225.898 215.4 227.098 215.2Z" fill="#68BA7F"/>
<path d="M228.5 230.1C230.9 230.2 233.2 229.4 234.9 227.8C235.9 227 236.6 226 236.9 224.8C237.1 222.8 235.7 220.9 233.7 220.5C232.4 220.4 231.2 221.4 231 222.7C230.7 224.2 231.1 225.8 232.1 227C233.9 229.6 236.7 230.3 239.7 229.9C241.1 229.8 242.4 229.5 243.8 229.1C244.5 228.9 245.1 228.5 245.6 228C246 227.3 246.1 226.5 245.9 225.7C245.6 224.5 244.6 223.5 243.3 223.3C242 223.2 241.8 224.4 242 225.4C241.8 224.1 242.3 224.5 241.9 224.6C241.8 224.6 241.7 224.7 241.5 224.8C241 224.9 240.5 225 240 225.1C238.9 225.4 237.7 225.5 236.6 225.6C236.1 225.6 235.6 225.5 235.2 225.3C235.5 225.4 234.8 225.2 235.2 225.3C235 225.1 235 225.1 235.2 225.3L235.1 225.1C235.2 225.7 235 224.8 235.2 225.3C235.2 225.1 235 224.9 235.2 225.3C235.2 225.2 235.3 224.9 235.3 224.9C235.3 224.9 235.3 224.9 235.4 224.8C235.3 224.9 235.1 224.9 235 224.9L234 224.3L233.8 224.1L233 223V222.4L232.9 222.6C232.8 222.7 232.7 222.9 232.6 223C232.5 223.2 232.3 223.4 232.1 223.6C231.6 224.1 231.1 224.5 230.5 224.8C229.5 225.4 228.3 225.7 227.2 225.6C226 225.6 225.6 226.7 225.9 227.7C226.3 228.9 227.3 229.8 228.5 230.1Z" fill="#68BA7F"/>
<path d="M297.499 199.601C299.899 199.101 302.299 198.301 304.499 197.301C305.799 196.801 308.499 195.501 307.799 193.701C307.599 193.101 305.499 193.801 305.299 193.901C303.699 194.401 301.299 195.301 302.099 197.501C302.699 199.401 305.499 199.501 307.099 199.301C311.699 199.001 316.599 196.901 319.699 193.301C320.099 192.801 317.799 193.201 317.799 193.201C316.299 193.601 312.799 194.601 314.199 196.801C315.199 198.501 318.499 199.101 320.299 199.201C324.199 199.401 330.599 197.601 331.199 193.001C331.199 192.601 328.999 193.101 328.999 193.101C328.099 193.301 327.199 193.701 326.499 194.301C325.299 195.501 326.199 197.201 327.299 198.101C328.599 199.101 330.299 199.701 331.999 199.701C335.799 199.801 340.299 198.301 342.899 195.501C343.399 195.001 341.099 195.401 340.999 195.401C339.999 195.601 338.999 196.001 338.199 196.701C337.899 197.101 337.499 197.401 336.999 197.701C336.299 198.201 336.399 197.801 336.899 197.901C336.399 197.901 335.899 198.001 335.399 197.901C334.899 197.801 334.299 197.701 333.799 197.601C332.299 197.101 329.299 195.001 331.099 193.201L326.399 194.501C326.299 195.501 325.799 196.401 325.099 197.101C324.899 197.301 324.699 197.401 324.499 197.601C323.899 198.201 324.899 197.301 324.999 197.501L322.799 197.301C321.699 197.101 320.599 196.701 319.699 196.101C319.299 195.801 318.899 195.401 318.799 194.901C318.799 194.701 318.799 194.501 318.799 194.301C318.799 194.101 319.099 193.801 318.899 193.901L316.599 194.801L316.899 194.701L314.999 194.601C314.299 195.501 313.399 196.301 312.399 196.901C311.999 197.201 311.599 197.401 311.099 197.501C311.299 197.401 311.199 197.501 311.099 197.501C310.799 197.601 310.499 197.601 310.199 197.601C309.099 197.801 307.899 197.401 307.099 196.701C306.899 196.401 306.699 196.101 306.699 195.701C306.599 194.501 307.799 194.401 305.599 195.101L303.099 195.301C303.999 197.401 299.799 198.001 298.499 198.301C297.999 198.401 295.699 198.901 295.699 199.601C295.699 200.301 297.199 199.601 297.499 199.601Z" fill="#68BA7F"/>
<path d="M298.2 216.2C301.4 215.5 309.7 213.4 307.6 208.5C307.1 207.6 306 207.2 305.1 207.5C302.9 208 301.5 210.2 301.9 212.4C302.4 214.8 304.9 215.8 307.1 215.9C311.8 216 316.2 213.9 319.1 210.3C319.9 209.6 320 208.3 319.3 207.5C318.7 206.8 317.7 206.6 316.9 207C314.6 207.6 313 210 314.1 212.3C315.2 214.6 318.2 215.3 320.3 215.6C324.8 216.3 330.4 214.2 331 209C331.2 206.9 328.5 206.1 327.1 207.4C325.5 208.8 325.2 211.3 326.5 213C327.6 214.6 329.3 215.7 331.3 216C335.4 216.8 339.5 215.5 342.3 212.4C343 211.6 342.9 210.3 342.1 209.6C342 209.5 341.9 209.5 341.9 209.4C340.7 208.8 339.3 209.2 338.5 210.2C337.3 211.4 335.7 212 334 211.9C333.2 211.9 332.4 211.6 331.7 211.3C331.4 211.1 331.1 210.9 330.9 210.7C330.4 210 330.9 210 330.2 210.7L326.3 209.1C326.1 210.5 324.9 211.5 323.5 211.5C322.4 211.5 321.3 211.4 320.3 211C319.9 210.9 319.4 210.5 318.9 210.4C318.8 210.3 318.7 210.3 318.6 210.2C318.7 210.8 318.3 211.2 317.5 211.4L315.3 208.2C314 209.8 312.2 210.9 310.2 211.4C309.3 211.7 308.4 211.7 307.4 211.6C307 211.5 306.9 211.3 306.5 211.2C306.5 211.2 306.5 211.2 306.6 211.2C306.4 211.6 306 211.9 305.6 212L303.1 211C303 210.8 303.4 210.4 303.2 210.3C303.2 210.3 302.9 210.5 302.8 210.5C302.2 210.7 301.7 211 301.1 211.2C300 211.6 298.8 211.9 297.6 212.2C296.3 212.4 295.4 213.6 295.5 214.9C295.8 216.1 296.9 216.8 298.1 216.5C298.2 216.3 298.2 216.3 298.2 216.2Z" fill="#68BA7F"/>
<path d="M299.897 230.401C302.497 230.501 305.098 229.601 307.098 227.901C308.098 227.101 308.997 226.001 309.497 224.801C310.097 223.301 309.397 221.601 307.897 221.001C307.597 220.901 307.197 220.801 306.897 220.801C305.197 220.801 303.698 221.901 303.098 223.501C302.598 224.901 302.898 226.501 303.698 227.701C305.498 230.301 308.598 230.701 311.598 230.301C313.098 230.101 314.597 229.801 315.997 229.401C317.597 228.801 318.998 227.301 318.698 225.501C318.198 222.501 313.297 223.701 313.797 226.501C313.697 225.801 314.197 225.601 314.497 225.201C314.697 225.101 314.597 225.101 314.397 225.201L314.198 225.301C314.598 225.201 314.398 225.201 314.098 225.301L313.397 225.401C312.397 225.601 311.497 225.801 310.497 225.901C309.897 226.001 309.198 225.901 308.598 225.801C308.198 225.601 307.798 225.201 307.598 224.801C307.598 224.701 307.598 224.701 307.598 224.801C307.598 224.901 307.598 224.901 307.598 224.701C307.598 224.901 307.598 224.801 307.598 224.601C307.498 224.801 307.498 224.801 307.598 224.701C307.698 224.601 307.598 224.601 307.598 224.701C307.198 225.701 306.197 225.301 304.797 223.601L304.698 223.801C304.898 223.601 304.598 223.901 304.598 224.001L304.198 224.501C304.398 224.201 304.198 224.501 304.098 224.601L303.598 225.001C303.598 225.001 302.997 225.401 303.297 225.201C303.597 225.001 302.997 225.401 302.997 225.401C302.897 225.501 302.698 225.501 302.598 225.601C302.598 225.601 301.797 225.901 302.397 225.701C302.097 225.801 301.697 225.901 301.397 225.901C301.297 225.901 300.898 226.001 301.198 225.901H300.497C299.197 225.901 297.997 226.801 297.797 228.101C297.697 229.301 298.498 230.301 299.698 230.501C299.798 230.301 299.897 230.301 299.897 230.401Z" fill="#68BA7F"/>
<path d="M322.699 226.1C322.699 226.2 322.799 226.3 322.799 226.4L322.899 226.5C322.999 226.6 323.099 226.7 323.199 226.7L323.299 226.8C323.599 227 323.999 227.1 324.299 227.2C324.699 227.3 325.199 227.4 325.599 227.4C325.999 227.4 326.499 227.4 326.999 227.4C327.199 227.4 327.399 227.4 327.599 227.3C327.799 227.3 327.899 227.2 328.099 227.2C328.199 227.2 328.299 227.1 328.399 227L328.499 226.9C328.599 226.8 328.599 226.7 328.599 226.6C328.599 226.5 328.599 226.5 328.599 226.4V226.3C328.599 226.2 328.499 226.1 328.499 226C328.399 225.9 328.299 225.7 328.099 225.6H327.999L327.599 225.4C326.999 225.2 326.399 225.1 325.799 225C325.499 225 325.099 225 324.799 225C324.499 225 324.299 225 323.999 225.1C323.799 225.1 323.599 225.2 323.499 225.3C323.399 225.3 323.299 225.4 323.299 225.5L323.399 225.7C323.599 225.9 323.799 226 323.999 226.1L324.499 226.2C324.899 226.3 325.299 226.4 325.699 226.4L324.999 226.3L324.399 226.2L323.899 226.1H324.099L323.699 225.9L323.799 226L323.599 225.8C323.699 225.9 323.699 225.9 323.799 226L323.699 225.8C323.799 225.9 323.799 226.1 323.699 226.2L323.799 226C323.799 226.1 323.699 226.1 323.699 226.1L323.999 226H323.899L324.299 225.9H323.999L324.499 225.8H325.099H325.799L326.499 225.9L327.099 226H326.999L327.499 226.1H327.399L327.799 226.3L327.699 226.2L327.899 226.4C327.799 226.4 327.799 226.3 327.799 226.2L327.899 226.4C327.899 226.4 327.899 226.4 327.899 226.3C327.899 226.2 327.799 226.1 327.699 226C327.599 225.9 327.399 225.8 327.199 225.7C326.899 225.6 326.699 225.5 326.399 225.5C326.099 225.4 325.699 225.4 325.399 225.4H324.699C324.299 225.4 323.899 225.4 323.599 225.5L323.199 225.6C322.999 225.6 322.899 225.8 322.799 225.9L322.699 226.1Z" fill="#68BA7F"/>
<path d="M254.399 228.801C256.799 228.401 258.999 227.101 260.599 225.201C261.399 224.201 259.499 222.301 258.699 221.801C257.499 221.001 255.799 220.901 255.299 222.601C254.799 224.301 256.799 226.601 258.099 227.501C260.699 229.101 263.999 228.701 266.099 226.401C266.599 225.901 266.999 225.301 267.199 224.601C267.299 223.501 266.899 222.401 266.099 221.601C265.499 221.001 264.499 220.001 263.599 220.101C262.699 220.201 262.699 221.201 262.899 221.901C263.599 224.001 265.299 225.601 267.399 226.201C269.199 226.601 270.999 226.801 272.799 227.001C273.899 227.101 273.599 226.001 273.299 225.401C272.799 224.501 271.799 223.301 270.699 223.101L267.499 222.701L266.099 222.501L265.399 222.401C265.299 222.401 265.299 222.401 265.199 222.301C264.499 222.001 264.799 222.601 266.299 224.101L265.499 223.901L264.899 223.501L263.699 222.001L263.799 222.201L263.499 221.301C263.599 222.001 262.499 222.901 262.099 223.301C261.399 223.801 260.699 224.201 259.799 224.401C259.399 224.501 258.999 224.501 258.599 224.501C258.299 224.501 257.999 224.401 257.599 224.301C258.099 224.301 258.299 226.301 258.799 225.801C258.899 225.701 258.899 225.501 258.999 225.401C259.099 225.301 259.399 225.001 259.699 225.101L258.799 224.701L258.999 224.801L257.099 221.401C255.699 223.101 253.699 224.301 251.499 224.701C250.099 225.101 252.799 229.101 254.399 228.801Z" fill="#68BA7F"/>
<path d="M299.798 259.8C302.998 259.1 309.798 257.8 307.698 253.1C307.298 252.2 306.398 250.5 305.198 250.9C303.298 251.5 303.498 254.1 304.098 255.5C304.898 257.6 306.798 259.1 308.998 259.4C313.098 259.8 317.198 257.6 319.698 254.6C320.698 253.4 318.598 250.1 317.098 250.4C314.698 251 315.898 254.5 316.698 255.8C317.998 257.7 319.998 258.5 322.198 259C325.998 259.9 330.798 258.5 331.298 254.1C331.398 253 329.798 249 328.298 250.5C326.798 252 327.798 254.3 328.598 255.7C329.598 257.5 331.298 258.8 333.298 259.4C336.698 260.4 340.398 259.3 342.798 256.7C343.898 255.5 341.198 251.3 339.898 252.8C338.398 254.4 336.398 255.3 334.198 255.3C333.198 255.3 332.198 255.1 331.198 254.7L330.398 254.3L330.598 254.9C330.698 254.8 330.898 254.6 330.998 254.5L327.998 250.9C327.598 253.1 325.798 254.7 323.598 254.8C322.298 254.9 320.998 254.8 319.698 254.3C319.198 254.1 318.698 253.8 318.198 253.7C317.698 253.3 317.798 253.6 318.398 254.3C318.498 255.1 318.698 255.3 318.898 255L319.398 254.8L316.798 250.6C315.198 252.5 313.098 253.8 310.698 254.5C309.598 254.8 308.398 254.9 307.198 254.8C306.998 254.8 306.698 254.7 306.498 254.7C306.398 254.7 306.198 254.6 306.098 254.6L306.798 256.1C306.798 256.1 306.798 255.7 306.898 255.7C306.998 255.7 307.198 255.4 307.498 255.4L304.998 253C304.798 252.4 305.198 252 304.598 252.6C304.398 252.8 304.198 252.9 303.998 253.1C303.398 253.4 302.798 253.7 302.098 254C300.798 254.5 299.398 254.9 297.998 255.2C296.198 255.6 298.298 260.1 299.798 259.8Z" fill="#68BA7F"/>
<path d="M300.9 273.8C302.7 273.4 309.7 272.1 308.4 269.1C308.1 268.5 306.9 268 306.3 267.8C305.7 267.6 304.6 267 303.9 267.2C302.4 267.7 302.3 269.5 303.3 270.6C305.1 272.2 307.3 273.2 309.7 273.4C313.8 273.7 317.7 272 320.3 268.8C320.7 268.3 316.5 266.6 315.8 266.7C314 267.2 314.7 269.2 315.8 270C317.8 271.5 320.2 272.5 322.7 272.9C326.2 273.7 331.3 273 331.8 268.6C331.9 267.7 327.8 266 327.2 266.6C326 267.8 327 269.5 328 270.4C329.7 271.9 331.8 272.9 334 273.3C337.4 274.3 341 273.4 343.5 270.8C343.7 270.6 339.7 268 338.9 268.8C337.4 270.4 335.3 271.4 333.1 271.5C332.6 271.5 332 271.3 331.6 271.4C330.9 271.5 332.5 271.7 332.3 271.8C332.1 271.9 331.8 271.3 331.8 271.2C331.1 270.4 331.1 269.3 331.8 268.5L327.2 266.5C326.9 268.8 325.1 270.6 322.8 270.9C321.5 271.1 320.2 271 318.9 270.6C318.5 270.4 318.7 270.5 319.6 271L319.3 270.6C319.2 270.4 319.2 270.1 319.2 269.9C319.2 269.4 319.6 268.9 320.1 268.8L315.6 266.7C313.9 268.8 311.6 270.2 309 270.8C308.4 270.9 307.8 271 307.3 271.1C306.9 271.1 306.6 271.1 306.2 271.1C304.6 271 307.5 271.5 307.4 271.7C307.3 271.4 307.3 271.2 307.2 270.9C307.2 270.7 307.2 270.4 307.3 270.2C307.4 269.7 307.8 269.3 308.2 269.2L303.8 267.3C304.9 269.8 297.9 271.2 296.5 271.5C295.9 271.6 297.8 272.7 297.9 272.8C298.7 273.2 300 273.9 300.9 273.8Z" fill="#68BA7F"/>
<path d="M302.898 287.901C304.998 288.001 307.098 287.201 308.698 285.901C309.398 285.301 310.398 284.301 310.398 283.301C310.298 282.701 309.898 282.201 309.398 281.901C308.398 281.201 307.298 280.701 306.098 280.401C305.198 280.101 304.198 280.601 303.998 281.501C303.998 281.601 303.998 281.701 303.898 281.701C303.798 282.701 304.098 283.701 304.798 284.501C306.898 286.801 309.998 288.001 313.098 287.801C314.498 287.601 315.998 287.401 317.398 287.101C318.298 286.901 319.498 286.401 319.298 285.301C319.298 285.001 318.598 284.601 318.398 284.501C317.898 284.101 317.298 283.901 316.698 283.601C316.398 283.501 314.598 282.801 314.798 283.601C314.998 284.501 313.398 284.801 312.798 284.901C311.598 285.201 310.298 285.401 309.098 285.501C308.798 285.501 308.498 285.501 308.198 285.501H307.998L308.898 285.901C309.498 286.201 309.198 286.101 308.998 285.801C308.898 285.601 308.698 285.401 308.598 285.201C308.398 284.801 308.398 284.301 308.498 283.901C308.498 283.701 308.598 283.501 308.698 283.301C308.798 283.101 309.198 282.901 308.998 282.801L307.298 282.201L307.498 282.301L305.998 281.401L306.198 281.501L305.698 281.001C306.098 281.601 305.398 282.401 304.998 282.801C304.498 283.401 303.898 283.901 303.298 284.301C302.098 285.101 300.698 285.501 299.198 285.401C298.098 285.401 299.298 286.401 299.598 286.601C300.598 287.401 301.698 287.801 302.898 287.901Z" fill="#68BA7F"/>
<path d="M323.598 285.301C323.598 285.501 323.698 285.701 323.798 285.801C323.898 285.901 323.998 286.101 324.198 286.201C324.198 286.201 324.198 286.201 324.298 286.301C324.498 286.401 324.598 286.501 324.798 286.601C325.198 286.801 325.698 286.901 326.198 286.901C326.498 286.901 326.698 286.901 326.998 286.901C327.298 286.901 327.498 286.801 327.698 286.701C327.898 286.601 328.098 286.501 328.298 286.401C328.498 286.301 328.698 286.201 328.798 286.001C328.898 285.901 329.098 285.701 329.198 285.501C329.298 285.301 329.298 285.201 329.398 285.001V284.901C329.398 284.701 329.398 284.501 329.398 284.301V284.201C329.398 284.001 329.298 283.801 329.198 283.701C329.198 283.701 329.198 283.601 329.098 283.601C328.998 283.501 328.898 283.301 328.698 283.201C328.498 283.101 328.398 283.001 328.198 282.901C327.798 282.701 327.398 282.601 326.898 282.601C326.598 282.601 326.198 282.601 325.898 282.701C325.598 282.801 325.298 282.901 324.998 283.101C324.798 283.201 324.498 283.401 324.398 283.701C324.198 283.901 324.098 284.101 324.098 284.401V284.901C324.198 285.201 324.298 285.501 324.598 285.701L325.098 286.001C325.498 286.201 325.898 286.301 326.298 286.301L325.698 286.201H325.798L325.298 286.001H325.398L324.898 285.701L324.998 285.801L324.698 285.401C324.698 285.401 324.798 285.501 324.798 285.601L324.598 285.101C324.598 285.201 324.598 285.201 324.598 285.301V284.801V284.901L324.798 284.401C324.798 284.401 324.798 284.501 324.698 284.501L324.998 284.101L324.898 284.201L325.398 283.801H325.298L325.898 283.501H325.798L326.398 283.301H326.298H326.998H326.898L327.498 283.401H327.398L327.898 283.601L327.798 283.501L328.198 283.801C328.198 283.801 328.098 283.801 328.098 283.701L328.398 284.101L328.298 284.001L328.498 284.501C328.498 284.301 328.298 284.001 328.198 283.901C328.098 283.701 327.798 283.501 327.598 283.401C327.298 283.301 326.998 283.201 326.698 283.201C326.398 283.101 325.998 283.101 325.698 283.201L325.098 283.401C324.698 283.501 324.398 283.801 324.098 284.001L323.798 284.401C323.598 284.601 323.498 285.001 323.598 285.301Z" fill="#68BA7F"/>
<path d="M420.699 405.2C420.699 405.2 415.699 421 417.999 421.4C420.299 421.8 437.199 422.4 438.899 419C440.599 415.6 432.199 403.8 432.199 403.8L420.699 405.2Z" fill="white"/>
<path d="M418.199 405.5C417.099 408.8 416.199 412.1 415.499 415.5C415.199 417.1 414.499 419.3 414.999 420.9C415.399 422.3 417.399 422 418.499 422.1C423.599 422.5 428.699 422.3 433.799 421.6C436.099 421.3 438.899 420.9 440.799 419.4C442.199 418.3 441.599 416.3 441.099 414.9C439.499 410.8 437.399 407 434.699 403.5C434.299 402.9 432.699 403.1 432.199 403.2L420.699 404.6C420.299 404.5 418.199 404.8 418.199 405.5C418.299 406.1 420.499 405.8 420.799 405.8L432.299 404.4L429.799 404.1C431.799 406.9 433.599 410 435.199 413.1C435.999 414.7 436.999 416.8 436.699 418.6C436.599 419.1 436.299 419.5 435.899 419.8C435.699 420 435.399 420.1 435.099 420.2L434.799 420.3C435.199 420.2 434.899 420.3 434.799 420.3L434.199 420.4C434.499 420.3 433.699 420.5 433.699 420.5L433.299 420.6C432.899 420.7 433.699 420.5 433.399 420.6L431.599 420.8H431.199H430.299C429.699 420.8 428.999 420.9 428.399 420.9C427.499 420.9 426.399 420.9 425.099 420.9C424.099 420.9 423.099 420.9 422.099 420.8H421.499H421.299L420.299 420.7C420.199 420.7 420.099 420.7 419.999 420.7C419.699 420.7 420.399 420.7 420.299 420.8C420.199 420.9 420.099 420.5 420.099 420.4C419.699 418.9 420.199 417 420.499 415.6C421.199 412 422.199 408.4 423.299 404.9C423.399 404.4 420.899 404.6 420.799 404.6C419.999 404.6 418.399 404.7 418.199 405.5Z" fill="#000005"/>
<path d="M394.702 404.3C394.702 404.3 396.002 421.9 395.402 421.9C394.802 421.9 387.002 421.9 387.002 421.9L386.902 414.9L383.202 422.7L357.002 421.8C357.002 421.8 356.102 419.3 362.002 416.3C367.902 413.3 377.302 409.2 377.302 409.2V398.7L394.702 404.3Z" fill="white"/>
<path d="M392.901 404.601C393.101 407.901 393.401 411.301 393.501 414.601C393.601 416.601 393.701 418.601 393.701 420.701V421.201C393.701 421.501 393.701 421.201 393.701 421.301C393.801 422.001 393.001 422.101 394.701 421.201C396.101 420.401 395.801 420.601 395.001 420.601H393.501H387.301L388.801 421.601L388.701 414.601C388.701 413.101 385.601 413.601 385.201 414.601L381.501 422.401L383.501 421.501L360.501 420.801L357.201 420.701L358.701 421.701C358.701 421.701 358.701 421.601 358.701 421.501C358.801 421.201 358.601 421.601 358.701 421.301C358.801 420.801 359.101 420.201 359.501 419.801C361.301 417.701 364.401 416.701 366.901 415.501C370.501 413.801 374.201 412.101 377.901 410.501C378.501 410.201 379.101 409.801 379.101 409.101V398.601L376.101 400.001L393.701 405.601C394.601 405.901 395.601 405.801 396.301 405.201C396.701 404.901 396.801 404.201 396.501 403.801C396.401 403.701 396.201 403.501 396.001 403.501L378.401 397.901C377.301 397.501 375.401 397.801 375.401 399.301V409.801L376.601 408.401C372.301 410.301 368.001 412.301 363.801 414.301C361.101 415.601 358.101 416.901 356.201 419.301C355.601 420.101 354.901 421.401 355.201 422.401C355.401 423.001 356.101 423.401 356.701 423.401L379.701 424.101L383.001 424.201C383.801 424.301 384.501 423.901 385.001 423.301L388.701 415.501H385.201L385.301 422.501C385.301 423.201 386.301 423.501 386.901 423.501H392.801C394.301 423.501 397.201 424.001 397.601 421.901C397.801 420.101 397.701 418.301 397.501 416.501C397.401 414.001 397.201 411.401 397.101 408.901C397.001 407.401 396.901 405.801 396.801 404.301C396.701 402.801 392.801 402.901 392.901 404.601Z" fill="#000005"/>
<path d="M393.402 311.401L366.602 408.301L397.102 408.901L433.602 304.101L393.402 311.401Z" fill="#000005"/>
<path d="M391.001 311.6L388.301 321.2L381.901 344.4L374.201 372.3L367.501 396.5L365.301 404.5C364.901 405.7 364.601 407 364.301 408.3C364.301 408.4 364.301 408.4 364.301 408.5C364.101 409.1 365.201 409.1 365.601 409.2L392.301 409.7L396.101 409.8C396.801 409.8 399.301 409.6 399.601 408.7L403.201 398.3L412.001 373.2L422.501 343L431.601 316.8L434.601 308.2C435.201 306.8 435.701 305.5 436.001 304C436.001 303.9 436.001 303.9 436.101 303.8C436.401 302.8 433.901 303.2 433.601 303.3L398.301 309.7L393.301 310.6C392.801 310.7 390.801 311.1 391.001 311.8C391.201 312.5 393.201 312.2 393.601 312.1L428.901 305.7L433.901 304.8L431.401 304.3L427.801 314.7L419.001 339.8L408.301 370L399.101 396.2L396.101 404.8C395.601 406.1 395.001 407.5 394.701 408.9L394.601 409.1L398.101 408L371.401 407.5L367.601 407.4L368.901 408.1L371.601 398.5L378.001 375.3L385.701 347.4L392.401 323.2L394.601 315.2C394.901 314 395.401 312.7 395.601 311.4C395.601 311.4 395.601 311.3 395.601 311.2C396.101 310.1 391.301 310.5 391.001 311.6Z" fill="#000005"/>
<path d="M406.602 317.3C406.602 322.2 414.102 406.5 414.102 406.5L438.202 406.1L430.502 305.9L406.602 317.3Z" fill="#000005"/>
<path d="M404.102 317.4C404.102 321 404.602 324.6 404.902 328.2C405.502 335.4 406.102 342.6 406.702 349.7C408.002 365.2 409.402 380.6 410.702 396L411.602 406.5C411.602 407 413.202 407 413.502 407L434.602 406.6H437.602C437.902 406.6 440.802 406.6 440.702 405.8L439.902 395.8L438.102 371.9L435.902 343L434.002 318L433.402 309.8L433.202 307.2C433.202 306.7 433.202 306.3 433.102 305.8C433.102 305.7 433.102 305.7 433.102 305.6C433.102 305.1 431.502 305.1 431.202 305.1C430.202 305 429.302 305.2 428.402 305.6L407.402 315.5L404.402 316.9C403.402 317.4 405.002 317.7 405.402 317.8C406.602 317.9 407.702 317.8 408.802 317.3L429.802 307.4L432.802 306L428.102 305.9L428.902 315.9L430.702 339.8L432.902 368.7L434.802 393.8L435.402 402C435.402 403.3 435.502 404.6 435.702 405.9C435.702 406 435.702 406 435.702 406.1L438.802 405.3L417.702 405.7H414.702L416.602 406.2C415.702 396.6 414.902 386.9 414.102 377.3C412.702 361.5 411.302 345.8 410.102 330C409.702 325.7 409.202 321.3 409.202 317C409.102 316.2 404.102 316.4 404.102 317.4Z" fill="#000005"/>
<path d="M397.402 207.5C397.402 207.5 392.902 213.7 387.502 214.1C382.102 214.5 371.302 213.5 370.702 219C370.102 224.5 377.502 225.7 382.102 224.4C382.102 224.4 382.202 238.8 391.002 241.9C399.802 245 403.502 242.2 404.602 248C404.602 248 416.002 257 416.002 245.9C416.002 244.2 418.102 222.7 404.502 217.1C404.502 217.2 396.802 214.6 397.402 207.5Z" fill="white"/>
<path d="M395.599 207C393.999 209.2 391.899 211.1 389.499 212.4C386.299 214.1 382.399 213.5 378.899 213.7C375.999 213.9 372.099 214.1 369.999 216.3C367.899 218.5 369.199 222.1 371.699 223.6C375.399 225.7 379.699 226.3 383.799 225.2L380.299 224C380.399 230 382.199 237.4 387.499 240.8C389.999 242.2 392.699 243.2 395.599 243.7C396.699 243.9 397.899 244.1 399.099 244.3C399.899 244.5 400.699 244.6 401.599 244.7C401.999 244.7 401.499 244.7 401.399 244.6C401.599 244.9 401.899 245 402.099 245.3C402.599 246 402.599 247.2 403.099 247.8C403.699 248.3 404.299 248.8 404.999 249.1C407.699 250.8 411.399 252.7 414.699 252.1C417.799 251.6 417.799 248.2 417.999 245.7C418.299 239 417.899 231.9 414.799 225.8C413.799 223.8 412.399 222 410.799 220.4C409.899 219.6 408.899 218.8 407.799 218.2C407.299 217.9 406.799 217.6 406.199 217.4L405.299 217C404.699 216.8 404.699 216.8 405.299 217H404.999C404.499 216.8 405.199 217.1 404.799 216.9C404.399 216.7 404.499 216.8 404.199 216.6C403.399 216.1 402.599 215.6 401.899 215C399.999 213.3 398.999 210.7 399.199 208.2C399.299 207.3 395.699 206.7 395.599 207C395.299 212 399.099 215.5 403.499 217.3L403.899 217.5C405.199 218 403.799 217.4 404.199 217.6C404.599 217.8 404.799 217.9 405.099 218.1C406.299 218.8 407.299 219.6 408.199 220.6C409.899 222.5 411.199 224.7 412.099 227.1C413.699 231.5 414.399 236.1 414.399 240.8C414.399 242.2 414.399 243.5 414.299 244.9C414.199 246.6 414.299 248.6 412.999 250C412.399 250.6 411.599 251 410.699 250.9C410.599 250.9 410.299 250.9 410.499 250.9C410.399 250.9 410.199 250.8 410.099 250.8C410.299 250.9 409.799 250.7 409.799 250.7L409.199 250.4C408.099 249.9 407.099 249.2 406.199 248.5L406.399 248.8C405.899 246.2 404.399 244.9 401.899 244C398.999 243.1 395.799 243.1 392.899 242.2C387.399 240.7 385.299 234.6 384.399 229.5C384.099 228.1 383.999 226.6 383.899 225.1C383.899 224.3 380.999 223.7 380.399 223.9C378.099 224.5 374.799 225 373.199 222.8C371.599 220.6 372.799 217.6 375.199 216.5C377.999 215.2 381.299 215.2 384.199 215.1C387.399 215 390.599 215.2 393.399 213.5C395.699 212.2 397.599 210.4 399.099 208.2C399.299 207.9 396.099 206.3 395.599 207Z" fill="#000005"/>
<path d="M419.801 234.1C419.801 234.1 427.001 237 428.701 233.1C430.401 229.2 425.501 229.6 425.501 229.6C425.501 229.6 432.001 222.1 424.601 219.6C424.601 219.6 431.701 214.2 427.401 207.7C423.101 201.2 412.801 203.8 412.801 203.8C412.801 203.8 414.201 194.9 406.301 195C398.401 195.1 399.701 200.8 399.701 200.8C399.701 200.8 394.701 200.8 394.201 203.9C393.701 207 397.201 208.7 397.201 208.7C397.201 208.7 397.501 217.7 404.401 217.3L409.501 229.2C407.901 231.6 407.501 234.7 408.701 237.4C410.801 241.8 419.501 239.9 419.801 234.1Z" fill="#000005"/>
<path d="M421 235.5C423.5 236.5 428.5 237.7 430 234.5C431 232.2 429.1 230.2 427.3 229C426.4 228.4 425.3 228.2 424.2 228.3L426.8 231C428.1 229.5 429 227.7 429.4 225.8C429.6 224.4 429.2 223.1 428.3 222C427.1 220.3 425.4 219 423.5 218.3L426 221C429.3 218.4 431.3 214 429.4 210C428 207.2 425.8 205 423.1 203.5C420.9 202.4 418.5 201.9 416.1 202C414.6 202 413.1 202.2 411.6 202.5L414.2 205.2C414.5 203.3 414.3 201.3 413.5 199.6C412.6 197.9 411.4 196.4 409.8 195.2C408.3 194.1 406.4 193.6 404.6 193.8C401.6 194 398.6 195.3 398.5 198.7C398.5 199 398.5 199.3 398.5 199.5C398.4 199.7 398.5 199.6 398.1 199.6C396.6 199.6 395.1 200.1 393.9 201C390.7 204 395.9 208.8 398.5 210.1L396 207.5C396.1 209.4 396.6 211.3 397.5 213C399.2 216 402.1 218.9 405.8 218.7L403.2 216.1L405.5 221.4L407.2 225.3C407.7 226.1 408 226.9 408.3 227.8C408.3 228.2 407.8 229 407.5 229.6C406.8 231.4 406.6 233.4 407.2 235.2C408.1 238.1 411 241.2 414.2 241.3C417.6 241.4 420.9 239.1 421.2 235.6C421.2 235.1 420.4 234.4 420.1 234.1C420 234 418.6 232.9 418.6 232.9C418.3 235.6 416.3 237.8 413.6 238.4C412.4 238.7 411 238.7 409.8 238.2C409.4 238 408.8 237.4 409.7 238.4C410.6 239.4 410 238.4 409.8 237.9C409.4 236.8 409.3 235.6 409.5 234.4C409.8 233.1 410.2 231.9 410.8 230.8C410.9 230.4 410.9 230.4 410.7 230L408 223.9L405.7 218.6C405.4 218 404.9 217.4 404.4 217C404.1 216.7 403.5 216 403.1 216C402.4 216 401.6 216 400.9 215.8C400.4 215.6 399.9 215.2 399.4 215C400.4 215.3 400.4 216.2 400 215.5C399.9 215.2 399.7 215 399.6 214.7C399.4 214.3 399.2 213.8 399.1 213.4C398.7 212.3 398.5 211.2 398.5 210C398.5 209.6 397.6 208.8 397.4 208.6C397 208.1 396.6 207.7 396 207.4L395.5 207.1C395.4 207 395.2 206.8 395.1 206.8C395.8 207.7 396 207.8 395.7 207.2C395.6 207 395.6 206.9 395.5 206.7C395.2 205.5 395.6 204.3 396.5 203.6C397.8 202.7 399.4 202.2 401 202.3V202.2C400.1 198 404.9 196.3 408.2 196.5C408.9 196.5 409.6 196.7 410.3 196.9C410.6 197 410.8 197.1 411.1 197.2C411.8 197.5 411 197.7 410.5 196.4C410.9 197.2 411.3 198.1 411.5 199C411.7 200.1 411.7 201.3 411.6 202.4C411.5 202.9 413.7 205.3 414.2 205.1C418 204.2 422.7 204.2 426 206.4C426.2 206.5 426.3 206.6 426.5 206.7C426.3 206.4 426.2 206.3 426.3 206.5C426.5 206.9 426.8 207.2 426.9 207.6C427.3 208.4 427.5 209.3 427.5 210.1C427.6 211.6 427.2 213 426.5 214.3C425.7 215.7 424.7 217 423.4 218.1C423.1 218.3 425.5 220.7 425.9 220.8C426.3 220.9 426.7 221.2 427.1 221.3L427.4 221.5C426.6 220.4 426.3 220.1 426.6 220.7C426.8 221.2 426.8 221.7 426.9 222.3C426.8 223.2 426.6 224.1 426.2 225C425.7 226.1 425 227.1 424.2 228.1C423.9 228.4 426.3 230.9 426.8 230.8C427.6 230.8 428.4 230.9 429.1 231.2C429.6 231.5 429.4 231.2 428.5 230.4C427.8 229.5 427.6 229.2 427.7 229.7C427.7 229.8 427.8 230.1 427.8 230.3C427.8 230.8 427.6 231.2 427.4 231.6C427.1 232.3 426.6 232.8 425.9 233.2C423.7 234.3 420.7 233.5 418.6 232.6C418.3 232.5 419.2 233.7 419.3 233.8C419.8 234.5 420.3 235.1 421 235.5Z" fill="#000005"/>
<path d="M401.102 220.7C401.102 220.7 404.902 212.9 409.102 214.7C413.302 216.5 413.202 230.2 405.502 228.9" fill="white"/>
<path d="M403 220.8C403.7 219.4 404.5 218.2 405.5 217C406.1 216.2 406.9 215.6 407.8 215.1C407.8 215.1 408.3 214.9 407.9 215C408 215 408.4 214.9 408 215C407.8 215 407.6 215 407.5 215C407.7 215.1 408 215.2 408.2 215.4C409.3 216.6 410 218.2 410.1 219.8C410.4 221.8 410.1 223.7 409.4 225.6C409 226.4 408.5 227.2 407.8 227.8L407.5 228C407.2 228.2 407.5 228 407.3 228.1L407.1 228.2H407.2C407.1 228.2 407.1 228.2 407 228.3C407.4 228.3 406.6 228.3 407 228.3C406.6 228.3 407.5 228.3 406.9 228.3C407.3 228.3 406.3 228.3 406.9 228.3C406.7 228.3 406.7 228.3 407 228.3H406.7C405.8 228.1 404.9 228.2 404.1 228.6C403.5 229.1 404.4 229.5 404.8 229.5C407.5 230 410.6 229.5 412.3 227.1C413.5 225.2 414.1 222.9 413.9 220.7C413.8 218.8 413.4 216.4 411.9 215.1C409.7 213 405.7 213.6 403.5 215.4C401.8 216.8 400.4 218.6 399.5 220.7C399.1 221.6 402.7 221.9 403.1 220.9L403 220.8Z" fill="#000005"/>
<path d="M393.702 216.5C393.202 216.6 392.802 217.1 392.902 217.7V217.8C393.202 218.9 394.502 218.4 394.502 217.5C394.602 217 394.202 216.6 393.802 216.5C393.802 216.5 393.802 216.5 393.702 216.5Z" fill="#000005"/>
<path d="M437.202 304.8C437.202 304.8 426.902 234.6 407.402 241.1C387.902 247.6 384.602 314.9 384.602 314.9C384.602 314.9 418.202 330.4 437.202 304.8Z" fill="white"/>
<path d="M439.101 304.6C438.001 296.8 436.301 289 434.501 281.4C433.001 274.9 431.101 268.4 428.801 262.1C426.801 256.6 424.501 251 420.901 246.3C418.301 242.9 415.001 240.1 410.401 240.3C405.001 240.5 401.001 243.4 398.001 247.7C394.501 252.8 392.301 258.7 390.601 264.6C388.601 271.5 387.101 278.5 386.001 285.6C385.001 291.8 384.201 298.1 383.601 304.4C383.201 307.8 382.901 311.2 382.801 314.7C382.801 314.9 382.801 315 382.801 315.2L382.901 315.3C387.201 317.2 391.601 318.5 396.201 319.2C405.501 320.8 415.601 320.3 424.401 316.5C430.201 313.8 435.201 309.8 439.101 304.6C439.301 304.3 437.801 304.5 437.701 304.5C437.201 304.5 435.801 304.6 435.501 305C429.001 313.7 419.301 319.1 408.401 319.1C401.401 319.1 394.401 317.7 387.901 315.1C387.601 315 386.701 314.8 386.501 314.5C386.601 314.6 386.601 314.2 386.601 314C386.701 312.2 386.801 310.5 387.001 308.8C387.601 301.6 388.401 294.4 389.501 287.2C390.701 278.3 392.701 269.6 395.401 261C397.501 254.5 400.401 246.9 406.001 242.7C406.501 242.3 407.101 242 407.601 241.7C408.001 241.5 408.901 241.2 409.101 241.1C409.301 241 408.801 241.2 408.901 241.1C408.701 241.2 408.901 241.1 409.201 241.1C409.701 241.2 410.201 241.3 410.601 241.4C413.101 242.3 415.201 244 416.701 246.1C421.401 251.9 424.101 259.3 426.401 266.2C428.901 273.9 431.001 281.8 432.601 289.8C433.601 294.6 434.501 299.5 435.301 304.3C435.301 304.5 435.401 304.8 435.401 305C435.401 305.6 439.101 305.1 439.101 304.6Z" fill="#000005"/>
<path d="M397.001 265.7L394.201 245.4C399.101 242.6 407.301 237 403.701 236.2C400.101 235.4 393.801 238.4 393.801 238.4C386.501 235.4 385.401 223.7 384.401 222.8C381.701 220.1 380.701 226.7 380.701 226.7C376.601 225.6 377.001 232.7 377.001 232.7C372.001 230.5 373.601 249 379.901 251.1C379.901 251.1 375.501 278.5 389.201 290.9C402.901 303.3 416.801 272.9 416.801 272.9L403.101 256.9L397.001 265.7Z" fill="white"/>
<path d="M398.6 266.3L395.8 246L395.4 246.8C398.1 245.3 400.7 243.5 403.1 241.6C404.5 240.5 406.9 238.7 405.9 236.7C404.6 234 400.9 234.4 398.5 235C396.5 235.5 394.5 236.1 392.6 237L393.7 237.1C389.8 235.4 388.2 230.5 387.1 226.7C386.8 225.3 386.4 224 385.8 222.8C384.8 221.2 382.2 219.8 380.7 221.5C379.8 222.7 379.2 224.2 379.1 225.7L380.2 225.2C376.1 224.2 375.2 229 375.4 232L376.9 231.3C373.4 229.9 372.5 233.7 372.4 236.3C372.2 240.4 373.2 244.4 375.2 248C376.2 250 377.9 251.5 380 252.4L378.3 250.1C377.7 253.9 377.5 257.8 377.6 261.7C377.7 269.1 378.9 276.8 382.2 283.5C385.1 289.3 390.8 296.2 398 295.3C403.8 294.6 408.3 289.5 411.6 285.1C414.2 281.6 416.5 277.8 418.3 273.8C418.5 273.3 418.1 272.7 417.8 272.4L404.1 256.4C403.7 256 402.2 254.8 401.6 255.7L395.5 264.5C394.6 265.8 397.5 268.1 398.4 266.9L404.5 258L402 257.2L415.7 273.2L415.2 271.8C413.8 274.7 412.2 277.5 410.4 280.2C407.5 284.6 403.8 289.5 398.7 291.6C396.6 292.6 394.2 292.6 392.1 291.6C389.3 290.2 387.2 287.3 385.7 284.7C382.2 278.6 381.1 271.4 380.8 264.5C380.6 260.3 380.8 256.1 381.4 252C381.4 251 380.7 250 379.7 249.7C379.2 249.6 378.8 249.3 378.5 248.8C378 248.2 377.6 247.5 377.3 246.7C376.5 244.8 376 242.9 375.7 240.8C375.4 239.1 375.5 237.3 375.8 235.6C375.9 235.1 376.1 234.5 376.5 234.1C376.7 233.9 376.5 234 376.7 234C376.9 234 377 233.9 376.8 233.9C377.1 233.9 376.9 233.9 377.1 233.9C377.7 234.2 378.6 234.1 378.6 233.2C378.5 231.5 378.7 227.4 381.2 228C381.6 228.1 382.2 228 382.3 227.5C382.4 226.5 382.7 225.6 383.1 224.7C383.2 224.5 384 223.6 384 223.6C384 223.9 383.1 222.9 383.2 223C383.3 223.1 383.2 223.2 383.2 222.9C383.2 223 383.3 223.1 383.3 223.2C384.1 226.2 385.1 229.2 386.4 232.1C387.3 234 388.5 235.6 390 237.1C391.1 238.2 393.5 240.3 395.1 239.8C396.5 239.4 397.7 238.7 399.1 238.3C400.1 238 401.1 237.8 402.1 237.6C402.6 237.5 403.1 237.5 403.6 237.5C403.7 237.5 403.9 237.5 404 237.6C404.3 237.7 404.3 237.7 404.2 237.6C403.6 237.4 403.2 236.9 403.1 236.3C403.2 236.2 403 236.5 402.9 236.7C402.7 237 402.4 237.3 402.2 237.6C401.4 238.4 400.6 239.1 399.7 239.8C397.6 241.4 395.5 242.8 393.2 244.1C392.9 244.2 392.8 244.5 392.8 244.9L395.6 265.1C395.8 266 396.4 266.8 397.3 267.1C397.7 267.2 398.7 267.2 398.6 266.3Z" fill="#000005"/>
<path d="M382.803 239.2C382.803 239.2 379.703 231.1 380.803 226.7Z" fill="white"/>
<path d="M384.401 238.8C384.201 238.4 384.101 237.9 383.901 237.5C383.701 237.1 383.601 236.5 383.401 236.1C383.401 236 383.301 235.8 383.301 235.7C383.201 235.3 383.401 236 383.301 235.6C383.201 235.3 383.101 235 383.101 234.7C382.801 233.4 382.501 232 382.401 230.7C382.401 230.4 382.301 230.1 382.301 229.8C382.301 229.5 382.301 229.4 382.301 229.3C382.301 229.2 382.301 229.2 382.301 229.1C382.301 228.5 382.401 227.9 382.501 227.3C382.901 225.4 379.401 224.3 378.901 226.4C378.301 229.1 378.901 232 379.501 234.7C379.901 236.4 380.401 238.1 381.001 239.7C381.401 240.6 382.401 241.1 383.401 240.9C384.201 240.8 384.601 240 384.501 239.3C384.601 239 384.501 238.9 384.401 238.8Z" fill="#000005"/>
<path d="M377 232.7C377 235.2 377.3 237.8 378 240.2Z" fill="white"/>
<path d="M375.402 231.7C375.402 232.6 375.502 233.6 375.502 234.5C375.602 236.2 375.902 237.9 376.402 239.5C376.602 239.9 376.802 240.2 377.102 240.4C377.502 240.7 377.902 241 378.302 241.2C378.702 241.4 379.602 241.7 379.402 240.9C379.202 240.2 379.002 239.5 378.902 238.8C378.802 238 378.702 237.2 378.602 236.4C378.502 235.6 378.502 234.6 378.502 233.7C378.402 233.4 378.302 233.1 378.002 232.9C377.702 232.5 377.302 232.2 376.902 232C376.702 231.8 375.402 231.1 375.402 231.7Z" fill="#000005"/>
<path d="M425.302 327.4C424.902 329.6 424.302 331.8 423.602 333.9C422.402 337.9 421.102 341.8 419.902 345.7C417.102 354.3 414.202 362.9 411.202 371.5C410.302 374 409.502 376.6 408.402 379.1C408.102 379.7 410.102 379 410.302 379C411.002 378.7 412.602 378.2 412.902 377.4C415.402 371.5 417.302 365.2 419.302 359.2C422.202 350.6 425.102 342 427.802 333.2C428.702 330.6 429.402 328 429.902 325.3C429.902 324.9 427.602 325.8 427.402 325.9C426.802 326.1 425.302 326.7 425.302 327.4Z" fill="white"/>
<path d="M400.5 182C399.3 175.9 400.4 169.5 400.7 163.3C401 157.1 400.2 150.2 396 145.6C391 140.5 383.1 139.5 377.1 143.4C374.3 145.3 372.4 149.9 375.2 151.8C376.2 152.4 377.4 152.6 378.5 152.3C383.4 151.4 386 145.7 385.5 140.7C384.7 130.6 373.2 122.8 363.5 125.8" fill="white"/>
<path d="M402.8 182.2C400.9 172 405.1 161.5 401.7 151.4C400.4 147.2 397.5 143.8 393.6 141.8C389.6 139.8 385 139.3 380.6 140.2C376.7 141.1 372.8 143.3 371.6 147.3C370.1 152.4 375.8 154.4 379.9 153.4C384 152.4 386.4 149.2 387.4 145.4C388.3 141.7 387.8 137.7 385.9 134.4C381.4 126.4 371.2 122.1 362.4 124.7C361.6 124.9 360.7 125.5 361.4 126.4C362.3 127.1 363.5 127.4 364.6 127.1C370.4 125.4 376.3 128.3 379.8 132.9C383.3 137.5 384.7 145.5 379.9 149.9C379.4 150.4 378.8 150.7 378.2 151C377.8 151.2 377.3 151.3 376.9 151.3C375.8 150.7 376 148.9 376.3 147.9C377.3 144.9 380.3 143.2 383.3 142.7C386.2 142.2 389.2 142.9 391.6 144.5C394.6 146.5 396.3 149.8 397.2 153.1C399.8 162.6 396.1 172.5 397.8 182.1C398.3 183.7 403.1 183.7 402.8 182.2Z" fill="#000005"/>
</svg>
