<svg width="500" height="500" viewBox="0 0 500 500" fill="none" xmlns="http://www.w3.org/2000/svg">
<path d="M315.699 45H95.6992V444.8H315.699V45Z" fill="white"/>
<path d="M314.901 442.9H103.901C101.101 442.9 98.1006 442.6 95.3006 442.9C95.2006 442.9 95.0006 442.9 94.9006 442.9L97.9006 445.5V51.6996C97.9006 49.8996 98.1006 48.0996 97.9006 46.3996C97.9006 46.1996 97.9006 45.8996 97.9006 45.6996L96.6006 46.8996H307.701C310.501 46.8996 313.501 47.1996 316.301 46.8996H316.701L313.701 44.3996V427.9C313.701 433.1 313.501 438.3 313.701 443.4C313.701 443.6 313.701 443.9 313.701 444.1C313.701 445.9 318.101 448 318.101 445.5V61.8996C318.101 56.6996 318.301 51.4996 318.101 46.3996C318.101 46.1996 318.101 45.8996 318.101 45.6996C318.101 44.4996 316.201 43.0996 315.101 43.0996H122.001C113.101 43.0996 104.201 43.0996 95.3006 43.0996H94.9006C94.0006 43.0996 93.6006 43.3996 93.6006 44.2996V427.8C93.6006 433 93.4006 438.2 93.6006 443.3C93.6006 443.5 93.6006 443.8 93.6006 444C93.6006 445.2 95.5006 446.5 96.6006 446.5H289.601C298.501 446.5 307.401 446.5 316.301 446.5H316.701C319.501 446.6 316.801 442.9 314.901 442.9Z" fill="#68BA7F"/>
<path d="M287.9 320.399H121.5V349.199H287.9V320.399Z" fill="white"/>
<path d="M287.002 346.999H127.402C125.302 346.999 123.102 346.899 121.002 346.999C120.902 346.999 120.802 346.999 120.702 346.999L123.002 350.999V322.099L122.402 322.699H282.002C284.102 322.699 286.302 322.799 288.502 322.699C288.602 322.699 288.702 322.699 288.802 322.699L286.502 318.699V347.499C286.502 348.699 287.002 349.799 287.702 350.699C288.002 351.099 289.302 352.099 289.302 350.899V322.099C289.302 321.199 289.002 320.399 288.602 319.699C288.302 319.199 287.702 318.199 287.102 318.199H141.102C134.402 318.199 127.602 317.999 120.902 318.199H120.602C120.302 318.199 120.102 318.399 120.102 318.699V347.499C120.102 348.399 120.402 349.199 120.802 349.899C121.102 350.399 121.702 351.399 122.402 351.399H268.302C275.002 351.399 281.802 351.599 288.502 351.399H288.802C290.202 351.499 288.402 346.999 287.002 346.999Z" fill="#68BA7F"/>
<path d="M287.802 320.3H242.102V349.2H287.802V320.3Z" fill="#68BA7F"/>
<path d="M288.399 349.7H241.699V319.8H288.399V349.7ZM242.599 348.7H287.299V320.8H242.599V348.7Z" fill="#68BA7F"/>
<path d="M268.402 329.4C268.402 329.4 263.202 329.1 263.302 334.2C263.402 339.3 269.702 339.1 270.902 334.8C272.102 330.5 268.402 329.4 268.402 329.4Z" fill="#000005"/>
<path d="M257.602 335.599C260.102 332.899 263.602 331.299 267.202 330.899C270.602 330.699 273.902 331.899 276.402 334.199C277.002 334.799 278.402 335.799 279.402 335.299C280.402 334.799 279.502 333.499 278.902 332.999C275.302 329.499 270.602 327.399 265.502 327.199C260.902 327.299 256.602 329.199 253.502 332.499C252.402 333.799 256.302 336.899 257.602 335.599Z" fill="#000005"/>
<path d="M141.002 330.299C141.002 330.299 135.802 329.999 136.002 334.999C136.202 339.999 142.402 339.899 143.602 335.499C144.802 331.099 141.002 330.299 141.002 330.299Z" fill="#000005"/>
<path d="M160 330.7C160 330.7 154.8 330.4 154.9 335.5C155 340.6 161.3 340.4 162.5 336C163.7 331.6 160 330.7 160 330.7Z" fill="#000005"/>
<path d="M177.5 329.999C177.5 329.999 172.3 329.699 172.4 334.799C172.5 339.899 178.8 339.699 180 335.299C181.2 330.899 177.5 329.999 177.5 329.999Z" fill="#000005"/>
<path d="M195.699 330.4C195.699 330.4 190.499 330.1 190.599 335.2C190.699 340.3 196.999 340.1 198.199 335.8C199.399 331.5 195.699 330.4 195.699 330.4Z" fill="#000005"/>
<path d="M215.402 330.499C215.402 330.499 210.202 330.199 210.302 335.299C210.402 340.399 216.702 340.199 217.902 335.899C219.102 331.599 215.402 330.499 215.402 330.499Z" fill="#000005"/>
<path d="M287.9 270H121.5V298.8H287.9V270Z" fill="white"/>
<path d="M286.8 297.7H127.2C125 297.7 122.9 297.6 120.8 297.7H120.5L123.9 299.5V270.7L122.5 271.3H282.1C284.2 271.3 286.4 271.4 288.6 271.3H288.9L285.5 269.5V298.3C285.5 299.9 290.4 300.7 290.4 299.5V270.7C290.4 269.4 287.9 268.9 287 268.9H140.9C134.2 268.9 127.4 268.8 120.7 268.9H120.4C120.1 268.9 119 268.9 119 269.5V298.3C119 299.6 121.5 300.1 122.4 300.1H268.3C275 300.1 281.8 300.2 288.5 300.1H288.8C289.5 300.1 290.6 299.8 290 299C289.4 298.2 287.8 297.7 286.8 297.7Z" fill="#68BA7F"/>
<path d="M141.401 282.599C142.101 281.199 143.801 280.499 145.301 280.899C146.401 281.299 146.901 282.899 147.101 283.899C147.401 285.299 147.201 286.799 146.501 288.099C146.101 288.799 145.501 289.399 144.801 289.699C144.701 289.799 144.501 289.799 144.401 289.899C143.401 290.199 144.001 290.799 146.101 291.799C146.301 291.399 146.401 290.899 146.601 290.499C148.601 287.399 151.901 284.199 155.801 283.999C157.001 283.999 158.401 283.999 159.001 285.099C159.601 286.499 159.401 288.099 158.501 289.299H160.101C162.001 290.099 160.901 290.799 161.001 289.899C161.001 289.699 161.001 289.499 161.101 289.299C161.301 288.699 161.701 288.099 162.201 287.799C163.401 286.999 164.701 286.599 166.101 286.599C166.601 286.599 167.201 286.699 167.701 286.799C168.301 286.899 168.001 287.199 167.901 286.799C168.001 286.899 168.001 287.099 168.101 287.199C168.401 288.199 168.101 289.299 167.301 290.099L171.201 293.099C171.701 288.899 172.501 283.199 177.501 281.999C179.301 281.499 180.001 282.199 180.601 283.799C181.101 284.899 181.301 285.999 181.301 287.199C181.201 288.099 180.701 289.399 179.601 289.499L182.701 291.899C182.401 291.199 183.101 290.299 183.701 289.899C184.601 289.499 185.601 289.499 186.501 289.999C187.101 290.399 188.501 290.999 188.801 289.999C189.101 288.999 187.701 287.699 187.001 287.299C185.101 286.199 182.601 285.099 180.401 286.199C178.701 286.999 178.001 289.099 178.801 290.799C179.201 291.799 180.701 293.299 181.901 293.199C185.701 292.799 185.401 288.599 184.601 285.799C183.601 282.599 181.301 279.499 178.001 278.399C175.001 277.499 171.801 278.599 169.901 280.999C167.801 283.599 167.301 287.199 166.901 290.399C166.701 291.699 169.501 294.599 170.801 293.399C172.601 291.699 172.201 288.799 170.901 286.899C169.201 284.399 166.401 282.899 163.401 282.899C161.001 282.899 158.001 283.899 156.901 286.199C155.701 288.799 158.001 291.699 160.301 292.699C160.701 292.899 161.501 293.199 161.901 292.699C165.001 288.799 161.601 283.499 157.901 281.499C153.301 279.099 148.201 280.899 144.801 284.499C143.501 285.899 141.301 288.099 141.701 290.299C142.301 292.999 145.701 294.699 148.101 293.299C151.901 291.099 151.401 285.799 149.601 282.499C148.201 279.899 145.701 277.999 142.801 277.299C140.401 276.699 138.001 277.899 137.001 280.099C136.701 281.299 140.601 284.399 141.401 282.599Z" fill="#000005"/>
<path d="M175.902 76.8996V77.8996C175.902 82.4996 179.602 86.1996 184.202 86.1996H184.302L260.102 85.1996C264.702 85.0996 268.302 81.3996 268.302 76.7996C268.302 76.5996 268.302 76.3996 268.302 76.2996C268.002 71.9996 264.402 68.6996 260.002 68.5996H184.202C179.602 68.5996 175.902 72.2996 175.902 76.8996Z" fill="#68BA7F"/>
<path d="M184.202 86.6992C179.402 86.6992 175.402 82.7992 175.402 77.9992V76.9992C175.402 72.0992 179.302 68.1992 184.202 68.1992H260.002C264.602 68.1992 268.402 71.6992 268.802 76.2992C269.202 81.0992 265.502 85.3992 260.702 85.6992C260.502 85.6992 260.302 85.6992 260.202 85.6992L184.402 86.6992H184.202ZM184.202 69.0992C179.902 69.0992 176.402 72.5992 176.402 76.8992V77.8992C176.402 82.1992 179.902 85.6992 184.202 85.6992H184.302L260.102 84.6992C264.402 84.5992 267.802 81.0992 267.802 76.7992C267.802 76.5992 267.802 76.4992 267.802 76.2992C267.502 72.2992 264.102 69.0992 260.002 69.0992H184.202Z" fill="#68BA7F"/>
<path d="M115.299 69.9992H127.099C128.099 69.9992 127.499 68.1992 127.199 67.7992C126.799 66.9992 125.899 65.6992 124.799 65.6992H112.999C111.999 65.6992 112.599 67.4992 112.899 67.8992C113.299 68.6992 114.199 69.9992 115.299 69.9992Z" fill="#68BA7F"/>
<path d="M116.201 78.6992H129.501C130.201 78.6992 128.801 77.0992 128.701 76.9992C128.301 76.4992 127.801 76.0992 127.201 75.6992C126.901 75.3992 126.501 75.1992 126.101 75.1992H112.801C112.101 75.1992 113.501 76.7992 113.601 76.8992C114.001 77.3992 114.501 77.7992 115.001 78.1992C115.401 78.4992 115.801 78.6992 116.201 78.6992Z" fill="#68BA7F"/>
<path d="M114.101 87.3994H118.301C118.901 87.3994 119.601 87.2994 120.101 86.9994C120.601 86.6994 121.101 86.1994 121.301 85.5994C121.501 85.0994 121.501 84.5994 121.301 84.0994C121.001 83.6994 120.501 83.3994 120.001 83.3994H115.801C115.201 83.3994 114.601 83.4994 114.001 83.7994C113.501 84.0994 113.001 84.5994 112.801 85.1994C112.401 85.9994 112.701 86.8994 113.501 87.2994C113.701 87.3994 113.901 87.3994 114.101 87.3994Z" fill="#68BA7F"/>
<path d="M289.1 67.8996C285.7 66.9996 282.1 68.2996 280 71.0996C278.3 73.2996 277.7 76.2996 278.6 78.9996C279.8 82.0996 283.4 82.6996 286.4 82.6996C288.2 82.7996 290.1 82.3996 291.7 81.4996C293 80.7996 294 79.6996 294.7 78.3996C296.2 75.1996 295.1 71.3996 292.2 69.4996C291.1 68.7996 289.6 68.9996 288.7 69.8996C288 70.5996 288 71.6996 288.6 72.4996C288.7 72.5996 288.8 72.6996 289 72.7996L289.3 72.9996C289.5 73.1996 289.6 73.2996 289.8 73.4996L290 73.7996C290 73.6996 289.8 73.4996 290 73.7996C290.2 74.0996 290.2 74.1996 290.3 74.3996C290.4 74.5996 290.4 74.5996 290.4 74.6996C290.4 74.5996 290.3 74.3996 290.4 74.6996C290.4 74.7996 290.5 75.1996 290.5 75.3996C290.5 75.5996 290.5 75.5996 290.5 75.7996C290.5 75.6996 290.5 75.3996 290.5 75.7996C290.5 75.9996 290.4 76.2996 290.4 76.4996C290.4 76.6996 290.3 76.6996 290.3 76.7996C290.4 76.6996 290.4 76.4996 290.3 76.7996C290.2 76.9996 290.1 77.1996 290 77.3996L289.8 77.6996C290.1 77.3996 289.8 77.5996 289.8 77.6996C289.5 77.9996 289.5 77.9996 289.3 78.1996C288.9 78.4996 289.4 78.1996 289.4 78.1996C289.4 78.1996 289.2 78.3996 289.1 78.3996L288.8 78.5996C289.2 78.3996 288.9 78.4996 288.8 78.5996C288.7 78.6996 287.9 78.8996 288.5 78.6996C288.2 78.7996 287.9 78.7996 287.6 78.7996C287.4 78.7996 286.8 78.7996 287.3 78.7996C287 78.7996 286.7 78.7996 286.5 78.7996C285.9 78.7996 285.4 78.6996 284.8 78.5996L284.4 78.4996C284.1 78.4996 284.5 78.4996 284.5 78.4996C284.5 78.4996 283.7 78.1996 284.1 78.3996L283.8 78.1996C283.5 77.9996 283.9 78.2996 283.9 78.2996C283.8 78.1996 283.8 78.1996 283.7 78.0996C283.8 78.2996 283.5 77.7996 283.7 78.0996C283.6 77.8996 283.5 77.7996 283.5 77.5996C283.4 77.2996 283.5 77.5996 283.5 77.6996C283.5 77.5996 283.5 77.4996 283.4 77.3996C283.4 77.1996 283.3 76.9996 283.3 76.7996C283.3 76.6996 283.3 76.5996 283.3 76.4996C283.3 76.6996 283.3 76.0996 283.3 76.4996C283.3 76.0996 283.4 75.6996 283.5 75.2996C283.6 75.0996 283.6 74.7996 283.7 74.5996C283.8 74.1996 283.7 74.4996 283.7 74.5996C283.8 74.4996 283.8 74.2996 283.9 74.1996C284 73.8996 284.2 73.6996 284.3 73.4996L284.5 73.1996C284.3 73.3996 284.4 73.2996 284.6 73.0996C284.8 72.8996 285 72.6996 285.2 72.4996C285.5 72.2996 285.4 72.2996 285.2 72.4996C285.3 72.3996 285.5 72.2996 285.6 72.1996C285.7 72.0996 285.8 72.0996 285.9 71.9996C286 71.8996 285.5 72.0996 285.9 71.9996C286 71.9996 286.1 71.8996 286.3 71.8996C286.8 71.6996 286 71.8996 286.3 71.8996H286.7C286.8 71.8996 286.9 71.8996 287.1 71.8996C287.6 71.8996 286.7 71.7996 287.2 71.8996C288.3 72.1996 289.9 71.9996 290.5 70.7996C291 69.8996 290.6 68.6996 289.7 68.2996C289.6 68.1996 289.5 68.1996 289.3 68.1996L289.1 67.8996Z" fill="#68BA7F"/>
<path d="M291.5 81.3998L291.7 81.4998L291.1 81.1998C291.4 81.3998 291.7 81.4998 292 81.7998L291.5 81.3998C291.9 81.5998 292.1 81.8998 292.4 82.1998L292 81.6998C292.3 81.9998 292.5 82.2998 292.7 82.5998L292.4 82.0998C292.5 82.1998 292.6 82.3998 292.6 82.4998C292.9 83.0998 293.3 83.4998 293.9 83.7998C294.2 83.9998 294.5 84.0998 294.8 84.0998C295.1 84.1998 295.4 84.1998 295.7 84.1998C296.2 84.1998 296.7 83.8998 297 83.3998C297.2 82.8998 297.2 82.3998 297 81.8998C296.5 80.8998 295.9 79.9998 295.1 79.2998C294.7 78.8998 294.2 78.5998 293.7 78.2998C293.2 77.9998 292.7 77.7998 292.2 77.4998C291.9 77.3998 291.6 77.2998 291.3 77.3998C291 77.3998 290.7 77.3998 290.5 77.4998C290 77.6998 289.7 78.0998 289.6 78.5998C289.5 79.0998 289.7 79.6998 290 80.0998L290.4 80.5998C290.6 80.9998 291 81.1998 291.5 81.3998Z" fill="#68BA7F"/>
<path d="M206.299 248.099C240.32 248.099 267.899 220.52 267.899 186.499C267.899 152.479 240.32 124.899 206.299 124.899C172.278 124.899 144.699 152.479 144.699 186.499C144.699 220.52 172.278 248.099 206.299 248.099Z" fill="#68BA7F"/>
<path d="M265.901 185.6C265.901 210.7 250.401 233.1 226.901 241.9C215.001 246.3 202.101 246.9 189.801 243.6C178.301 240.4 167.901 233.8 160.201 224.6C152.501 215.3 147.801 203.9 146.901 191.8C145.901 179.4 148.801 167.1 155.201 156.5C161.501 146.1 170.701 137.9 181.701 132.8C193.101 127.6 205.901 126 218.301 128.4C230.101 130.7 240.901 136.5 249.301 145.2C257.601 153.8 263.101 164.8 265.001 176.6C265.601 179.5 265.801 182.6 265.901 185.6C265.801 186.9 266.601 188.1 267.701 188.6C268.401 189 269.301 188.7 269.701 188C269.801 187.8 269.901 187.6 269.901 187.3C269.901 160.4 253.301 136.2 228.101 126.6C195.501 114.3 159.201 130.7 146.901 163.3C144.801 168.9 143.501 174.7 143.001 180.7C140.901 207.7 155.801 233.1 180.401 244.5C212.001 259.1 249.401 245.4 264.101 213.9C266.601 208.5 268.301 202.9 269.201 197C269.701 193.8 270.001 190.6 270.001 187.3C270.001 186 269.301 184.9 268.201 184.3C267.501 183.9 266.601 184.2 266.201 184.9C265.901 185.1 265.901 185.4 265.901 185.6Z" fill="#68BA7F"/>
<path d="M195.3 178.1C195.3 178.1 224.5 170.8 226.2 195.8C226.2 195.8 246.5 194.2 241.6 214.9C236.7 235.6 212.7 221.1 212.7 221.1C212.7 221.1 219.6 233.1 202.6 235.4C185.6 237.7 188.1 217.6 188.1 217.6C188.1 217.6 171.2 236.4 158.3 219.5C145.4 202.6 162.8 198.1 162.8 198.1C162.8 198.1 151.6 189.9 159.2 182C166.8 174.1 186.7 179.6 186.7 179.6L195.3 178.1Z" fill="#000005"/>
<path d="M197.601 178.9C200.601 178.2 203.701 177.9 206.801 177.9C208.101 177.9 209.401 178 210.701 178.1C211.401 178.2 212.001 178.3 212.701 178.4L213.401 178.5L213.801 178.6C213.101 178.4 214.601 178.8 213.701 178.6C213.801 178.6 214.001 178.7 214.101 178.7H214.201L214.501 178.8C215.101 179.1 215.701 179.4 216.301 179.8C217.601 180.6 218.701 181.6 219.701 182.8C222.501 186.2 223.701 190.4 224.001 194.7C224.001 195.1 225.701 195.6 225.901 195.7C226.701 196.1 227.601 196.3 228.601 196.4C229.201 196.4 229.801 196.4 230.401 196.4C231.101 196.4 231.801 196.5 232.501 196.6C232.901 196.7 232.901 196.7 233.401 196.8L233.701 196.9C234.301 197 233.701 196.9 234.001 197L234.101 197.1L233.901 197L234.201 197.1C234.501 197.3 234.501 197.2 234.801 197.4C235.601 197.9 236.401 198.5 237.101 199.2C238.701 200.9 239.701 203 240.001 205.3C240.401 208.7 240.101 212.2 239.001 215.5C238.201 218.3 236.701 220.7 234.501 222.6C232.601 224 230.301 224.9 228.001 225C226.901 225.1 225.701 225.1 224.601 224.9C223.601 224.8 222.601 224.6 221.601 224.3C221.501 224.3 221.101 224.2 221.401 224.3C221.701 224.4 221.201 224.2 221.101 224.2L220.701 224.1C220.101 223.9 221.201 224.3 220.601 224.1L220.001 223.9C220.301 224 219.601 223.7 219.401 223.7C219.301 223.7 219.101 223.6 219.001 223.5L218.301 223.2L218.001 223.1C218.301 223.2 217.801 223 218.001 223.1L217.401 222.8L216.301 222.3L215.901 222.1C216.301 222.3 215.901 222.1 215.801 222L215.101 221.6C214.201 221.1 213.201 220.7 212.201 220.5C212.001 220.4 210.501 220.1 210.701 220.4C211.501 221.9 211.901 223.5 212.001 225.2C212.101 228.9 209.801 231.7 206.501 233.1C203.801 234.2 201.001 234.8 198.101 234.8C197.501 234.8 196.901 234.8 196.401 234.7C195.101 234.5 196.801 234.7 196.801 234.9C196.201 234.5 195.601 234.1 195.101 233.7C192.601 231.4 191.501 228.1 191.101 224.8C190.801 222.7 190.801 220.6 191.001 218.5C191.101 218 186.701 216.4 186.301 216.9C181.801 221.9 174.301 226.8 167.401 225.6C167.101 225.6 166.701 225.3 167.001 225.5C167.001 225.5 167.401 225.7 167.201 225.6C166.601 225.2 166.001 224.8 165.301 224.5C163.901 223.5 162.701 222.3 161.601 220.9C159.401 218.4 157.801 215.4 156.801 212.2C155.701 208.6 156.901 204.7 159.701 202.2C161.401 200.7 163.401 199.6 165.601 199C165.701 199 165.701 198.9 165.601 198.8C163.001 196.9 161.001 194.4 159.801 191.4C158.101 186.3 161.801 181.8 166.401 180.1C170.901 178.4 175.901 178.5 180.601 179C182.401 179.2 184.301 179.5 186.101 179.9L187.101 180.1L187.501 180.2C187.901 180.3 187.201 180.1 187.501 180.2L188.201 180.4C189.801 180.8 191.401 180.2 192.901 179.9L197.901 178.9C198.301 178.8 196.501 178 196.401 178C195.601 177.7 194.301 177.1 193.401 177.2L184.801 178.9L185.901 179.1C183.301 178.4 180.701 177.9 178.001 177.6C173.301 177 168.401 176.7 163.801 177.8C159.201 178.9 154.401 182.1 154.501 187.3C154.501 191.2 157.401 194.7 160.201 197.1C160.501 197.3 160.701 197.6 160.801 197.4C160.701 197.5 160.401 197.5 160.301 197.5C159.401 197.8 158.601 198.1 157.801 198.6C155.201 199.8 153.101 201.9 151.901 204.6C150.301 209 152.601 213.8 155.101 217.4C156.801 220.1 159.101 222.3 161.801 224.1C164.501 225.7 167.401 226.8 170.501 227.3C178.001 228.6 185.301 224.1 190.301 218.9L190.701 218.5L186.001 216.9C185.401 222.1 186.301 228.9 190.501 232.5C192.701 234.2 195.301 235.4 198.101 236C200.901 236.7 203.901 236.7 206.701 236.1C210.901 235.3 215.901 233.3 216.601 228.5C216.901 226.2 216.401 223.9 215.301 221.9L210.901 220.7C214.001 222.5 217.301 224 220.701 225C225.901 226.7 232.101 228.2 237.301 225.7C243.401 222.8 245.601 214.5 245.001 208.2C244.801 205.6 243.801 203 242.001 201.1C240.201 199.3 238.001 197.9 235.601 197.1C232.001 195.6 228.201 194.9 224.301 195.1L228.901 196.8C228.701 192.6 227.301 188.6 224.901 185.2C222.601 182.4 219.501 180.3 216.101 179.1C210.101 176.8 203.701 176 197.301 176.8C196.001 176.9 194.701 177.2 193.401 177.5C193.001 177.6 194.801 178.4 194.901 178.4C195.301 178.4 196.701 179.1 197.601 178.9Z" fill="#000005"/>
<path d="M233 199.099C237.3 200.499 242.2 201.899 244.8 205.899C247.6 210.099 245.1 215.299 243 219.199C241.6 221.999 246.1 223.499 247.4 220.999C250.2 215.599 252.6 209.499 249.3 203.799C246.4 198.699 240.5 196.699 235.3 194.999C234.1 194.499 232.7 194.999 232 196.199C231.4 197.099 231.7 198.399 232.6 198.999C232.8 198.999 232.9 199.099 233 199.099Z" fill="#000005"/>
<path d="M187.499 175.8C180.299 167.8 167.899 167.9 160.099 174.9C159.299 175.6 159.099 176.8 160.099 177.4C161.299 177.9 162.599 177.7 163.499 176.8C169.399 171.5 178.099 172.6 183.299 178.3C184.799 180 189.199 177.7 187.499 175.8Z" fill="#000005"/>
<path d="M247.202 234.6C247.202 234.6 224.602 199.3 209.902 194.8C195.202 190.3 161.102 227.7 161.102 227.7C161.102 227.7 194.602 272.1 247.202 234.6Z" fill="white"/>
<path d="M248.999 235.9C245.799 230.8 242.199 225.9 238.599 221.1C232.099 212.6 225.099 204.1 216.399 197.7C213.399 195.5 209.699 192.9 205.799 192.8C202.199 192.7 198.599 194.1 195.499 195.7C186.999 200 179.599 206.4 172.599 212.8C169.599 215.5 166.699 218.4 163.899 221.2C162.899 222.2 161.999 223.2 160.999 224.2C160.399 224.7 159.899 225.3 159.399 225.9C159.399 226 159.299 226 159.199 226.1C159.199 226.2 159.199 226.4 159.299 226.5C163.699 232.4 169.799 237.3 175.899 241.3C188.099 249.2 202.399 252.9 216.799 250.5C228.599 248.5 239.399 243.1 249.099 236.2C249.299 236.1 246.099 232.4 245.299 233C230.499 243.5 212.499 250.5 194.199 247.1C188.099 245.9 182.199 243.7 176.799 240.5C175.599 239.8 174.799 239.3 173.599 238.5L172.899 238L172.399 237.7C172.799 238 172.499 237.7 172.399 237.7L170.899 236.6C170.799 236.5 169.999 235.9 170.599 236.3L169.899 235.7L168.599 234.6C167.999 234.1 168.899 234.9 168.399 234.5L167.899 234L166.799 232.9C166.299 232.4 166.999 233.1 166.599 232.7L166.099 232.2C165.799 231.9 165.499 231.6 165.199 231.2L164.799 230.8C164.599 230.6 164.399 230.4 164.699 230.7L164.099 230C163.799 229.7 163.499 229.3 163.199 229C163.099 228.8 162.599 228.2 163.099 228.9L163.199 229.3C166.499 225.7 169.899 222.3 173.399 218.9C180.099 212.5 187.099 206.3 194.899 201.4C198.199 199.2 201.799 197.5 205.699 196.4C208.699 195.6 211.899 196 214.499 197.5C216.099 198.4 217.499 199.4 218.899 200.6C219.699 201.2 220.299 201.8 221.199 202.6C222.099 203.4 222.799 204.2 223.699 205C227.199 208.6 230.499 212.5 233.599 216.5C237.799 221.8 241.599 227.4 245.399 233C245.499 233.1 245.499 233.2 245.599 233.3C246.299 234.2 247.099 235 248.099 235.6C248.199 235.9 249.599 236.7 248.999 235.9Z" fill="#000005"/>
<path d="M206.9 192.199L225.5 174.199C225.5 174.199 232.6 153.799 230.8 150.499C228.3 146.099 220.4 142.499 209 143.999C198.1 145.499 187.7 147.599 184.2 169.599C183.7 172.899 183.1 178.999 184.6 181.999C187.3 187.199 195 194.999 206.9 192.199Z" fill="#000005"/>
<path d="M223.902 204.199C223.902 204.199 223.202 202.599 222.502 200.399C221.802 198.199 222.202 196.999 228.602 193.999C241.102 188.099 237.902 176.099 237.902 176.099C239.602 175.999 241.202 175.499 242.602 174.699C245.102 173.499 247.502 168.599 239.702 167.099C237.502 166.899 235.602 165.499 234.602 163.499C233.002 160.099 232.502 157.199 229.702 151.199L228.802 153.999C226.402 161.399 220.902 167.299 213.702 170.299L213.002 170.099C214.302 182.799 207.102 190.199 207.102 190.199C207.102 192.399 206.902 194.599 206.602 196.799C206.602 196.899 215.902 208.899 223.902 204.199Z" fill="white"/>
<path d="M226.3 204.5C225.7 203.2 225.3 201.8 224.9 200.4C224.7 199.7 224.7 199 225 198.3C225.7 197.3 226.6 196.5 227.7 196.1C229.5 195 231.5 194.3 233.3 193.1C237.9 190.3 240.7 185.3 240.7 179.9C240.7 178.7 240.6 177.6 240.3 176.4L239 176.7C241.9 176.7 248.2 175 247.4 170.9C246.9 168.5 243.8 167.5 241.8 167C240.4 166.7 239.3 166.5 238.2 165.4C237.3 164.3 236.6 163 236.2 161.5C234.9 158.1 233.7 154.7 232.2 151.4C231.9 150.6 227.5 150 227.2 150.8C226.2 154.3 224.7 157.7 222.8 160.7C219.9 164.7 216 167.9 211.4 169.8L213.2 169.7C213.1 169.7 215.8 170.2 214.8 169.9L214.4 169.8C214.1 169.7 210.6 169.2 210.6 169.8C211.1 174.8 210.3 179.8 208.2 184.4C207.6 185.8 206.8 187.1 205.9 188.3C205.5 188.8 205.1 189.3 204.7 189.8C204.6 190.1 204.5 190.4 204.6 190.7C204.6 191.8 204.5 192.8 204.5 193.8C204.4 194.5 204 195.9 204.2 196.6C204.3 196.8 204.5 197 204.6 197.2C206.6 199.6 209 201.6 211.7 203.3C215.8 205.7 221.9 207.1 226.3 204.6C226.9 204.3 224.7 203.8 224.6 203.8C223.8 203.7 222.3 203.3 221.5 203.8C220.7 204.2 219.9 204.5 219.1 204.7C218.9 204.7 218.6 204.7 219 204.7C219.4 204.7 218.8 204.6 218.7 204.6C217.1 204 215.6 203.1 214.2 202.1C213 201.2 211.9 200.2 210.8 199.1C210.4 198.6 209.3 197.9 209.1 197.2C209.1 196.7 209.2 196.3 209.3 195.8C209.4 194.8 209.5 193.8 209.5 192.8C209.5 192.1 209.5 191.4 209.6 190.8C209.6 190.5 209.4 190.9 209.7 190.6C210.1 190 210.7 189.4 211.1 188.8C211.9 187.6 212.6 186.4 213.2 185.2C215.3 180.6 216.1 175.6 215.6 170.6H211.8C213.1 171 214.5 171.2 215.9 171C217.2 170.6 218.5 169.9 219.7 169.1C222.1 167.7 224.3 165.8 226.1 163.7C229.2 160.1 230.8 156 232.2 151.6L227.2 151C228.5 153.8 229.6 156.7 230.6 159.6C231.4 162 232.2 164.7 234.4 166.1C236.6 167.5 239.7 167.1 241.5 169C242.6 170.1 242.6 171.9 241.6 173.1C241 173.9 240.2 174.4 239.2 174.8C238.4 175.2 237.6 175.4 236.7 175.6C236.5 175.6 236.4 175.6 236.3 175.7C236 175.8 236.7 175.7 236.5 175.7C236.3 175.7 235.1 175.7 235.2 176C235.9 179.1 235.7 182.2 234.5 185.1C233.4 187.9 231.4 190.3 228.9 192C226.2 193.9 222.3 194.7 220.2 197.3C219.7 197.9 219.5 198.8 219.6 199.6C220 201.1 220.5 202.6 221.1 204C221.4 204.6 222.9 204.7 223.5 204.8C224 204.7 226.5 204.8 226.3 204.5Z" fill="#000005"/>
<path d="M227.5 177.899C227.9 178.699 228.5 179.499 229.1 180.199C230.4 181.699 232.2 182.799 234.2 183.199C235.6 183.499 237 183.399 238.3 182.899C238.9 182.799 239.3 182.099 239.2 181.499C239.2 181.399 239.1 181.199 239 181.099C238.5 180.299 237.5 179.899 236.5 180.199C236.3 180.299 236 180.299 235.8 180.399L235.6 180.499H235.8C235.7 180.499 235.5 180.499 235.4 180.499H234.8C234.7 180.499 235.2 180.499 234.9 180.499L234.5 180.399L234.2 180.299H234C233.8 180.299 234.3 180.399 234.3 180.399C234.1 180.299 233.9 180.299 233.7 180.199L233.4 180.099C233 179.899 233.8 180.299 233.5 180.099L233 179.799L232.6 179.499C232.5 179.399 232.8 179.699 232.8 179.699L232.7 179.599L232.5 179.399C232.2 179.199 232 178.899 231.8 178.699C231.7 178.599 231.6 178.499 231.5 178.299C231.4 178.099 231.2 177.899 231.1 177.699C231 177.499 230.8 177.299 230.7 176.999C230.2 176.199 229.2 175.799 228.2 175.999C227.8 176.099 227.5 176.399 227.3 176.699C227.2 177.099 227.2 177.499 227.4 177.799L227.5 177.899Z" fill="#000005"/>
<path d="M229.4 165.7C230 166.4 229.9 167.4 229.2 167.9C229.1 168 229.1 168 229 168C227.5 168.9 226.4 167.1 227.4 165.9C227.8 165.3 228.6 165.1 229.2 165.5C229.3 165.6 229.3 165.6 229.4 165.7Z" fill="#000005"/>
<path d="M230.699 164.099C233.499 163.499 235.699 161.299 236.299 158.499C236.999 155.399 235.399 152.199 233.399 149.999C230.899 147.299 227.299 145.799 223.699 145.999C220.099 146.199 216.999 147.799 213.999 149.599C213.099 150.099 214.499 151.399 214.899 151.699C215.699 152.199 217.099 152.899 217.999 152.399C220.299 150.899 222.799 149.799 225.399 149.199C226.399 148.999 227.399 149.099 228.299 149.299C228.299 149.299 229.099 149.499 228.699 149.399C229.099 149.499 228.699 149.299 229.099 149.599C229.399 149.899 229.799 150.199 229.999 150.499C231.399 152.299 232.299 154.599 231.599 156.899C230.999 158.999 229.399 160.599 227.299 161.099C226.199 161.399 226.799 162.399 227.399 162.899C228.399 163.799 229.499 164.199 230.699 164.099Z" fill="#000005"/>
<path d="M242.902 160.7C243.402 153.9 238.102 149.3 232.102 147.5C229.102 146.7 226.002 146.3 222.902 146.4C220.002 146.5 217.002 147.1 214.802 149.1C213.802 150 218.102 152.3 219.002 151.4C222.302 148.4 227.602 148.5 231.802 149.4C233.602 149.7 235.202 150.6 236.402 152.1C237.902 154 238.602 156.3 238.402 158.7C238.202 160.3 242.902 161.6 242.902 160.7Z" fill="#000005"/>
<path d="M184.901 228.8C184.401 227.5 184.101 226.2 184.001 224.8C184.001 224.1 184.201 223.5 184.201 222.9C184.501 222.2 184.101 222.3 182.901 223.3C181.401 223.7 181.001 223.9 181.701 224.1C181.901 224.3 182.101 224.5 182.301 224.8C182.901 226 183.401 227.2 183.701 228.4C183.901 229.1 184.101 229.8 184.301 230.4C184.401 230.7 184.401 231 184.401 231.3C184.401 231.9 183.901 232.1 184.601 231.6L186.801 230.4C187.601 230.1 187.101 230.4 187.401 229.8C187.501 229.6 187.701 229.4 187.901 229.2C188.001 229 188.201 228.9 188.401 228.8C188.101 229 187.901 229.1 187.601 229.3C188.001 229.2 188.501 229.2 188.901 229.2C189.401 229.2 189.901 229.4 190.401 229.6C191.301 230 192.101 230.7 192.601 231.6C192.801 232 193.001 232.4 193.101 232.9C193.201 233.2 193.301 234.2 193.001 234.5L194.501 233.5L194.201 233.6L195.801 232.9C193.601 233.5 191.301 233.1 189.401 231.9C188.801 231.5 187.501 232.3 187.001 232.6C186.501 232.9 185.101 233.5 185.101 234.3C185.001 235.5 185.701 236.5 186.001 237.5C186.101 238 186.101 238.5 186.001 238.9C188.801 237.8 189.601 237.4 188.401 237.5H188.001C187.701 237.5 187.501 237.4 187.201 237.4C186.001 237.1 185.001 236.4 184.401 235.3C184.201 234.8 184.201 234.3 184.401 233.8C184.401 233.7 184.501 233.6 184.501 233.5C185.201 232.5 184.301 233 181.901 234.9L182.201 235C182.301 235.1 182.401 235.3 182.401 235.5C184.001 234.7 184.401 234.5 183.801 234.7L183.501 234.8C183.201 234.9 182.801 234.9 182.501 234.9C181.801 234.9 181.101 234.8 180.501 234.6C179.301 234.3 178.301 233.4 177.801 232.3C177.601 231.7 177.701 231.1 177.901 230.6C177.901 230.5 178.001 230.4 178.101 230.3C176.101 231.1 175.601 231.4 176.501 231.3C176.801 231.3 177.001 231.3 177.301 231.3C178.701 231.6 180.001 232.3 181.101 233.2C181.701 233.6 183.001 232.7 183.501 232.4C183.601 232.3 185.801 231 185.401 230.7C183.801 229.6 182.101 228.5 180.201 228.6C177.801 228.9 175.701 230 174.001 231.7C172.901 232.8 172.901 234.6 174.001 235.7C174.101 235.8 174.101 235.8 174.201 235.9C175.601 237.1 177.501 237.6 179.301 237.3C181.801 237 184.201 235.8 186.001 234C186.501 233.5 186.801 232.6 186.001 232.3C185.001 231.8 183.401 232.7 182.601 233.2C181.101 234 179.301 235.3 179.701 237.2C180.001 238.9 182.001 239.9 183.601 240.1C184.701 240.2 185.801 240 186.801 239.5C188.001 239 189.601 238.1 190.201 236.9C191.001 235.3 189.201 233.5 189.301 231.9L184.901 234.3C187.301 235.8 190.201 236.1 192.901 235.3C194.401 234.8 196.901 233.7 197.301 232C197.501 230.9 197.301 229.8 196.601 228.9C193.001 223.8 185.001 228.6 182.601 232.5V232.7C183.601 233.4 185.101 232.5 186.001 232C186.901 231.5 188.401 230.6 188.601 229.4C188.601 228.3 188.301 227.1 187.901 226.1C187.501 224.9 187.001 223.6 186.501 222.5C185.901 221.4 185.101 221.5 184.001 221.8C182.501 222.3 181.101 223.1 180.101 224.3C179.601 225.3 179.301 226.4 179.501 227.5C179.501 228.8 179.801 230.1 180.401 231.3C180.701 231.8 185.201 229.7 184.901 228.8Z" fill="#000005"/>
<path d="M221.599 212.9C220.299 212.2 218.899 211.8 217.399 211.6C216.199 211.3 214.899 211.2 213.599 211.3C212.199 211.4 211.099 212.3 210.799 213.6C210.499 215.3 211.099 217 212.299 218.3C213.299 219.4 214.599 220.2 216.099 220.6C217.499 221.1 218.899 221.3 220.299 221.2C221.599 221 222.599 220.1 223.099 218.9C223.599 217.3 223.099 215.5 221.899 214.4C221.399 213.9 219.899 213 219.299 214C218.199 216.1 217.899 218.6 218.499 220.9C219.099 223.4 220.699 226.2 223.199 227.2C224.299 227.8 225.799 227.5 226.599 226.5C227.299 225.2 227.499 223.8 227.099 222.4C226.599 219.6 224.899 217.3 223.099 215.1L222.199 218.6L225.699 220.3C226.699 220.8 227.999 221.5 229.099 220.7C229.799 219.9 230.199 218.9 230.199 217.8C230.299 216.6 230.299 215.4 230.099 214.2C229.699 211.6 228.099 209.3 225.699 208.2C224.799 207.8 223.699 207.7 222.699 208C221.599 208.5 220.699 209.2 220.099 210.2C219.399 211.1 220.199 212.7 220.899 213.4C221.599 214.1 222.699 214.7 223.499 213.8C223.799 213.3 224.299 212.9 224.799 212.6C224.999 212.5 225.099 212.5 225.299 212.5C225.499 212.5 225.599 212.5 225.799 212.6C225.899 212.6 226.099 212.7 225.899 212.6L226.299 212.9C225.999 212.7 226.299 212.9 226.299 213C226.099 212.8 226.099 212.8 226.199 212.9C226.299 213 226.299 213 226.199 212.9C225.999 212.5 226.299 213.2 226.199 213C226.099 212.8 226.299 213.3 226.299 213.3C226.399 213.6 226.399 213.9 226.399 214.2C226.399 214.9 226.399 215.6 226.399 216.3V216.6C226.399 216.4 226.399 216.4 226.399 216.6C226.399 216.7 226.399 216.8 226.299 217C226.299 217.1 226.199 217.1 226.299 217.1C226.399 217.1 226.199 217.2 226.299 217.1C226.399 217 226.399 217 226.599 217C226.799 217 226.899 217 226.699 216.9L226.299 216.7L225.799 216.5L224.699 216L222.299 214.9C221.699 214.6 220.999 214.7 220.599 215.3C220.499 215.4 220.499 215.5 220.499 215.6C220.399 216.6 220.799 217.6 221.499 218.4L221.599 218.6L221.999 219.1C222.199 219.4 222.499 219.7 222.699 220.1L222.999 220.7C222.899 220.5 222.999 220.7 222.999 220.8C222.999 220.9 223.199 221.2 223.299 221.4C223.499 221.8 223.199 221.1 223.299 221.5C223.499 222.1 223.499 222.7 223.399 223.2C223.299 223.5 223.299 223.4 223.199 223.5C223.099 223.6 223.099 223.6 223.299 223.5L223.099 223.4C223.199 223.6 222.799 223.3 223.099 223.4C222.999 223.2 222.799 223 222.999 223.3L222.699 222.9C222.699 222.9 222.399 222.3 222.499 222.6C222.599 222.9 222.199 221.7 222.299 222.2C222.199 221.8 222.099 221.5 221.999 221.1C221.999 221.3 221.999 221.1 221.999 221C221.999 220.8 221.999 220.6 221.999 220.4C221.999 220.2 221.999 219.9 221.999 219.7C222.099 219 222.299 218.4 222.599 217.8L219.999 217.4C219.799 217.2 219.699 216.9 219.599 216.6C219.499 216 219.399 215.9 219.399 216.2V216.1V216.3C219.599 216.1 218.999 216.7 219.199 216.7C218.599 217.1 217.899 217.2 217.299 217C216.599 216.9 215.799 216.7 215.099 216.4L214.499 216.2C214.199 216 214.799 216.4 214.299 216.1C214.599 216.3 214.199 215.9 214.299 216.1C214.399 216.3 214.499 216.4 214.599 216.6C214.499 216.4 214.599 216.4 214.599 216.5C214.699 216.4 214.599 216.6 214.599 216.5C214.699 216.4 214.899 216.3 214.999 216.2C215.599 216.1 216.199 216.1 216.799 216.2C218.499 216.3 220.099 216.7 221.699 217.4C222.299 217.7 223.099 217.5 223.399 216.9C223.499 216.7 223.599 216.4 223.599 216.1C223.399 214.6 222.699 213.5 221.599 212.9Z" fill="#000005"/>
<path d="M219.202 241.899C218.602 241.699 218.002 241.499 217.502 241.199C217.402 241.199 217.102 240.999 217.402 241.099L217.002 240.999C216.902 240.899 216.802 240.799 216.602 240.699C216.402 240.599 216.302 240.399 216.502 240.599C216.702 240.799 216.402 240.399 216.302 240.399C216.202 240.399 216.202 240.199 216.102 239.999C216.202 240.199 216.002 239.799 216.102 239.999C216.002 239.799 216.002 239.699 216.002 239.599C215.902 239.299 216.002 239.599 216.002 239.499C216.002 239.399 216.102 239.099 216.002 239.299C215.902 239.499 216.102 239.099 216.102 239.099L216.002 239.299C216.102 239.199 216.102 239.199 216.002 239.299C215.602 239.599 216.302 239.199 215.802 239.399C215.602 239.499 215.602 239.499 215.802 239.399L215.402 239.499C215.702 239.399 215.202 239.499 215.102 239.499C215.402 239.499 214.802 239.399 214.702 239.399C214.602 239.399 214.502 239.299 214.702 239.399L214.502 239.299C214.702 239.399 214.502 239.199 214.502 239.299C214.602 239.499 214.602 239.499 214.602 239.399C214.602 239.299 214.602 239.299 214.602 239.399C214.602 239.499 214.702 239.699 214.702 239.799C215.002 241.099 215.202 242.299 215.102 243.599L220.002 242.999C220.002 243.399 220.002 242.899 220.002 242.799C220.002 242.699 220.102 242.499 220.102 242.399C220.102 242.299 220.002 242.599 220.102 242.299C220.202 242.199 220.202 241.999 220.302 241.899C220.502 241.599 220.202 241.999 220.302 241.899C220.402 241.799 220.502 241.699 220.602 241.599C220.702 241.499 221.002 241.199 220.702 241.499C220.402 241.799 220.802 241.399 220.902 241.399L221.302 241.099C221.402 241.099 221.802 240.799 221.502 240.999C221.202 241.199 221.602 240.999 221.702 240.899L222.202 240.699L222.402 240.599C222.002 240.699 222.602 240.499 222.702 240.499C222.902 240.499 223.002 240.399 222.802 240.499C222.602 240.599 222.602 240.499 222.902 240.499H222.702C222.902 240.499 223.002 240.599 222.802 240.499C222.702 240.499 222.602 240.399 222.802 240.499C222.902 240.499 222.902 240.499 222.702 240.399C222.702 240.399 223.102 240.699 222.902 240.499C222.702 240.299 223.002 240.599 223.002 240.699C223.202 240.999 223.002 240.499 223.002 240.799C223.002 241.099 223.002 240.599 223.002 240.799C223.202 240.599 223.002 240.999 223.002 240.799C223.102 240.699 223.502 240.399 223.202 240.599C223.502 240.499 222.902 240.799 223.202 240.599C221.702 241.199 220.302 241.999 218.902 242.599C218.102 242.999 216.902 244.099 217.602 245.099C218.502 245.999 219.802 246.199 220.902 245.599L224.002 244.199C225.202 243.799 226.302 243.099 227.202 242.299C228.102 241.399 228.302 240.099 227.802 238.999C227.302 238.099 226.402 237.399 225.402 237.099C223.002 236.399 220.202 237.399 218.202 238.799C217.302 239.399 216.502 240.199 215.902 241.099C215.402 241.899 215.102 242.899 215.202 243.899C215.202 244.299 215.802 244.799 216.202 244.999C216.702 245.199 217.202 245.199 217.702 245.199C218.602 245.099 220.102 244.499 220.102 243.399C220.202 242.299 220.102 241.199 220.002 240.099C219.902 239.199 219.702 238.199 219.202 237.399C218.002 235.299 214.902 235.599 213.102 236.699C211.402 237.799 210.802 240.099 211.802 241.799C212.702 243.499 214.702 244.299 216.402 244.899C217.602 245.299 218.902 245.099 219.902 244.199C220.502 243.699 220.502 242.799 220.002 242.199C219.702 242.099 219.502 241.899 219.202 241.899Z" fill="#000005"/>
<path d="M193.202 201C192.602 202.9 192.202 205 192.202 207C192.202 208.2 192.102 209.6 193.102 210.5C194.102 211.3 195.402 211.8 196.702 211.9C199.002 212.2 201.902 212.2 203.402 210C204.602 208.2 203.502 206 202.402 204.5C201.002 202.7 199.202 201.2 197.002 200.4C196.402 200.2 195.702 200.1 195.102 200.2C194.602 200.3 194.102 200.5 193.802 200.9C193.202 201.9 194.302 202.8 195.202 203.1C195.302 203.1 195.802 203.3 195.402 203.2C195.002 203.1 195.502 203.3 195.602 203.3C195.702 203.3 195.902 203.5 196.102 203.6C196.202 203.7 196.402 203.8 196.502 203.9C196.502 203.9 196.102 203.6 196.402 203.8L196.602 203.9C196.702 204 196.802 204.1 197.002 204.2L197.402 204.5L197.602 204.7C197.802 205 197.702 204.8 197.602 204.7C197.802 205 198.002 205.2 198.202 205.5C198.402 205.8 198.602 206.1 198.802 206.4C198.802 206.5 199.002 206.9 198.902 206.7L199.002 207C199.102 207.2 199.102 207.4 199.102 207.6C199.102 207.7 199.102 207.8 199.102 207.8C199.102 207.6 199.102 207.8 199.102 207.9C199.102 208 199.102 208.1 199.002 208.1C199.002 208.3 199.002 208 199.102 208C199.002 208.1 198.902 208.3 198.802 208.4C198.802 208.5 198.602 208.6 198.802 208.4C199.002 208.2 198.802 208.4 198.702 208.5L198.602 208.6C198.602 208.6 198.202 208.8 198.502 208.7C198.802 208.6 198.302 208.7 198.302 208.8C198.302 208.9 198.902 208.7 198.402 208.8H198.002C197.702 208.9 198.402 208.8 198.102 208.8H197.502C197.002 208.8 197.902 208.9 197.602 208.8C197.302 208.7 196.802 208.7 196.502 208.6L196.302 208.5C196.002 208.5 196.702 208.6 196.602 208.6C196.202 208.5 196.802 208.7 196.802 208.7C196.802 208.7 197.202 209 197.002 208.8C196.902 208.7 197.302 209.1 197.202 209.1C197.102 209.1 197.102 208.8 197.102 208.8C197.102 208.8 197.102 208.7 197.102 208.6C197.102 208.5 197.102 208.2 197.102 208.4V207.9C197.102 207.7 197.102 207.5 197.102 207.2C197.202 205.3 197.502 203.4 198.102 201.6C198.202 201.2 197.802 200.6 197.602 200.4C197.102 200 196.602 199.7 195.902 199.6C195.002 199.7 193.602 199.8 193.202 201Z" fill="#000005"/>
<path d="M351.301 421.801C351.301 421.801 341.401 442.601 345.201 445.401C349.001 448.201 381.601 449.501 382.101 445.001C382.601 440.501 371.101 422.001 371.101 422.001L351.301 421.801Z" fill="#000005"/>
<path d="M348.901 421.101C347.601 423.801 346.401 426.601 345.301 429.401C343.701 433.501 341.801 438.201 341.801 442.701C341.901 446.601 345.601 447.601 348.801 448.201C353.401 449.001 358.101 449.401 362.701 449.501C367.601 449.701 372.501 449.601 377.301 449.001C379.801 448.601 384.601 448.101 384.401 444.601C384.101 442.701 383.601 440.801 382.701 439.101C381.701 436.701 380.501 434.501 379.301 432.201C377.501 428.801 375.501 425.401 373.401 422.101C372.601 420.901 371.201 420.201 369.801 420.301H364.401L351.801 420.201H351.001C350.001 420.201 348.701 420.401 348.801 421.701C348.901 423.001 350.501 423.601 351.401 423.701L371.201 423.901L368.701 422.401C371.801 427.401 374.701 432.501 377.201 437.801C377.901 439.301 378.601 440.901 379.101 442.401C379.301 442.901 379.401 443.401 379.501 443.901C379.501 444.101 379.501 444.301 379.501 444.501L379.401 444.701C379.301 444.501 379.701 444.301 379.501 444.601L379.401 444.701C379.401 444.701 379.801 444.401 379.501 444.601L379.301 444.801L378.801 445.101C379.401 444.801 378.601 445.101 378.401 445.201C377.901 445.401 377.301 445.501 376.801 445.601C377.101 445.601 376.301 445.701 376.801 445.601L376.301 445.701C375.901 445.801 375.501 445.801 375.101 445.901C367.901 446.701 360.701 446.701 353.501 445.801C352.001 445.601 350.501 445.401 348.901 445.201C349.501 445.301 348.301 445.101 348.901 445.201L348.601 445.101L347.701 444.901L347.001 444.701C346.701 444.601 346.101 444.201 346.801 444.701C346.701 444.601 346.501 444.601 346.401 444.501C346.301 444.401 346.001 444.201 346.601 444.701C346.401 444.601 346.401 444.401 346.701 444.801C346.501 444.601 346.801 445.001 346.801 445.001C346.801 445.001 346.701 444.801 346.601 444.701C346.501 444.601 346.501 444.201 346.601 444.701C346.601 444.601 346.501 444.401 346.501 444.301C346.401 443.101 346.501 441.801 346.801 440.601C348.101 434.401 350.701 428.401 353.401 422.701C353.901 421.601 352.201 420.701 351.401 420.401C350.701 419.801 349.501 420.201 348.901 421.101Z" fill="#000005"/>
<path d="M351.299 421.801C351.299 421.801 348.599 435.301 353.199 436.901C357.799 438.501 372.099 440.101 373.399 435.601C374.699 431.101 371.099 422.001 371.099 422.001L351.299 421.801Z" fill="white"/>
<path d="M348.799 421.6C348.199 424.3 347.999 427.1 347.999 429.9C347.899 432 348.299 434 349.099 435.9C349.999 437.6 351.599 438.8 353.399 439.2C357.799 440.4 362.399 440.9 366.999 440.6C369.099 440.6 371.199 440.1 373.099 439.2C374.899 438.3 376.099 436.5 376.099 434.5C376.499 430.3 374.999 425.6 373.499 421.7C373.099 420.7 372.199 420.1 371.199 420L353.899 419.8H351.399C350.399 419.8 348.999 420.3 348.799 421.6C348.899 422.9 349.899 423.8 351.199 423.8L368.499 424H370.999L368.699 422.3C369.999 425.4 370.799 428.6 371.199 431.9C371.299 432.8 371.299 433.7 371.199 434.6C371.199 434.7 371.199 434.9 371.099 435C371.199 434.7 370.999 435.1 370.999 435.1C370.899 435.2 370.499 435.6 370.899 435.2C370.799 435.3 369.899 435.8 370.499 435.5C370.199 435.7 369.799 435.8 369.499 435.9C369.399 435.9 368.799 436.1 369.399 436L368.799 436.1C368.299 436.2 367.799 436.3 367.299 436.3C365.399 436.5 363.399 436.5 361.499 436.3C360.599 436.2 359.699 436.1 358.799 436L357.399 435.8H357.199L356.399 435.6C355.699 435.5 354.999 435.2 354.399 435C354.899 435.3 353.899 434.9 354.399 435C354.799 435.3 353.899 434.7 354.399 435C354.299 434.9 353.999 434.5 354.399 435C354.299 434.8 354.199 434.6 353.999 434.5C353.999 434.4 353.699 433.9 353.899 434.4C353.799 434.2 353.799 434.1 353.699 433.9C353.599 433.5 353.499 433.2 353.399 432.8C353.199 432.1 353.199 431.3 353.199 430.6C353.099 427.7 353.399 424.8 353.999 422C354.199 420.8 352.699 419.9 351.699 419.8C350.299 419.6 349.099 420.4 348.799 421.6Z" fill="#000005"/>
<path d="M336.098 415.101L339.298 423.201C339.298 423.201 343.198 447.501 337.798 447.401C332.398 447.301 324.998 436.401 318.498 420.601C311.998 404.801 314.398 396.901 328.198 397.501L336.098 415.101Z" fill="#000005"/>
<path d="M333.698 415.601L336.498 422.601C336.598 422.901 336.798 423.201 336.898 423.601C336.898 423.501 336.798 423.201 336.898 423.601C336.898 424.301 337.098 425.001 337.198 425.701C337.998 431.401 338.798 437.601 337.998 443.301C337.898 444.301 337.598 445.301 337.098 446.101C337.098 446.101 336.998 446.301 336.898 446.301C336.698 446.601 336.898 446.301 336.998 446.301C337.398 446.201 337.798 446.101 338.198 446.101C338.698 446.101 337.698 446.001 338.098 446.101C335.298 445.201 332.898 442.101 331.198 439.601C328.198 435.201 325.498 430.501 323.398 425.601C321.198 420.901 319.098 416.001 318.098 410.901C317.498 407.801 317.098 403.901 319.198 401.201C319.998 400.101 321.198 399.301 322.498 399.001C323.098 398.801 323.798 398.701 324.398 398.601C325.498 398.501 326.498 398.501 327.598 398.501L325.798 397.801L333.698 415.601C334.398 417.101 339.198 416.401 338.498 414.701L330.598 397.001C330.398 396.501 329.298 396.301 328.798 396.301C324.698 396.101 319.998 396.401 316.498 398.901C313.698 400.801 312.598 403.901 312.598 407.201C312.598 411.901 314.298 416.501 315.998 420.801C318.298 426.701 321.098 432.301 324.398 437.701C326.598 441.201 329.198 445.101 332.798 447.301C335.398 448.801 339.798 449.701 341.798 446.801C343.298 444.601 343.198 441.301 343.198 438.801C343.198 435.401 342.998 431.901 342.598 428.501C342.498 426.501 342.198 424.601 341.698 422.701C340.698 420.001 339.598 417.301 338.498 414.701C337.898 413.201 332.998 413.801 333.698 415.601Z" fill="#000005"/>
<path d="M358.001 386.001C358.001 386.001 343.601 411.901 341.801 413.901C340.001 415.901 341.101 435.401 339.801 433.201C338.801 431.601 333.301 429.201 328.201 415.001C323.001 400.601 325.001 400.401 327.401 398.201C329.801 396.001 346.301 370.301 346.301 370.301L358.001 386.001Z" fill="white"/>
<path d="M355.7 385.101C351.7 392.301 347.6 399.501 343.5 406.701C342.5 408.301 341.5 410.001 340.5 411.601C340.4 411.801 339.7 412.601 340.3 412.001C340.2 412.201 340.1 412.301 339.9 412.501C339.4 413.201 339.1 413.901 338.9 414.701C338.5 416.801 338.3 418.901 338.3 421.101C338.2 422.501 338.2 423.901 338.2 425.301C338.2 426.501 338.2 427.901 338.1 428.701C338.1 429.701 338 430.601 338 431.601C338 431.901 337.9 432.201 337.9 432.501C337.9 432.601 337.8 432.701 337.8 432.801C337.5 431.101 342.3 432.601 341.9 431.901C341.2 431.001 340.5 430.301 339.6 429.601C334.9 425.001 332.2 418.901 330.1 412.801C328.9 409.801 328 406.701 327.6 403.501C327.6 403.101 327.5 402.601 327.5 402.201C327.5 402.801 327.6 401.801 327.6 401.501C327.7 401.001 327.6 401.401 327.6 401.501C327.6 401.401 327.7 401.301 327.7 401.201C327.7 401.101 327.8 401.001 327.9 400.901C327.7 401.201 327.6 401.301 327.9 401.001L328.4 400.501C328.8 400.101 328.1 400.801 328.3 400.601L328.6 400.301C329.1 399.901 329.5 399.501 330 399.001C331.1 397.701 332 396.301 333 395.001C338.3 387.401 343.3 379.501 348.4 371.701L348.8 371.201L344.5 371.701L356.2 387.301C357.9 389.501 362.1 387.001 360.2 384.601L348.2 369.001C347.1 367.501 344.8 368.201 343.9 369.501C342.3 372.101 340.6 374.601 339 377.201C337.5 379.501 336 381.901 334.4 384.201L332 387.701C331.3 388.701 330.5 390.001 330 390.701C328.9 392.401 327.7 394.001 326.5 395.601C326.2 396.001 325.8 396.401 325.5 396.801C325.2 397.201 325.7 396.601 325.6 396.701L325.3 397.001C325 397.301 324.6 397.601 324.3 397.901C321 401.001 322.7 406.201 323.8 409.901C326 417.201 328.8 424.901 334 430.801C335 432.001 336.2 432.901 337.3 434.001C337.8 434.701 338.4 435.201 339.2 435.401C340.7 435.801 342.2 434.901 342.6 433.301C342.6 433.301 342.6 433.301 342.6 433.201C342.9 431.301 343.1 429.401 343 427.501C343.1 424.701 343.1 422.501 343.2 419.801C343.3 418.701 343.3 417.601 343.5 416.501C343.6 416.101 343.6 415.601 343.7 415.201C343.7 415.001 343.8 414.901 343.8 414.701C343.7 414.901 343.6 415.401 343.8 414.701C343.6 415.001 343.5 415.201 343.8 414.701C344 414.401 344.3 414.001 344.5 413.701C344.9 413.001 345.4 412.401 345.8 411.701C350.7 403.701 355.2 395.401 359.8 387.201L360.1 386.601C361.7 384.101 357 382.701 355.7 385.101Z" fill="#000005"/>
<path d="M345.798 419.6C376.898 439.7 393.398 402.4 391.598 381.5C403.198 369.9 421.898 343.7 406.198 307.7C394.098 279.8 360.798 233.7 360.798 233.7L328.298 247C328.298 247 321.498 283.9 322.398 333C322.398 333 320.998 403.6 345.798 419.6Z" fill="white"/>
<path d="M344.6 421.3C349.9 424.7 355.9 427.3 362.3 427.4C367.4 427.5 372.5 426 376.8 423.1C385.2 417.4 390.2 407.3 392.6 397.7C394 392.5 394.5 387 394.1 381.6L393.4 383.1C400.9 375.7 406.7 366.9 410.6 357.1C415.7 343.5 416 328.6 411.5 314.8C409.4 308.5 406.7 302.4 403.5 296.5C400.6 290.9 397.5 285.5 394.3 280.1C388 269.6 381.3 259.3 374.5 249.1C370.8 243.7 367.2 238.2 363.3 232.9L363.1 232.7C362.3 231.6 360.9 231.2 359.7 231.7L328 244.7C326.9 245.1 326 245.6 325.8 246.9C325.5 248.6 325.2 250.3 325 251.9C323.8 259.8 322.9 267.7 322.2 275.6C321 288.1 320.3 300.7 320 313.3C319.8 320.7 319.9 328.1 319.9 335.5C319.9 348.5 320.9 361.6 323 374.4C324.2 382.8 326.3 391.2 329.2 399.2C331.8 406.1 335.3 413 340.7 418.2C341.9 419.4 343.2 420.5 344.6 421.3C345.7 422 347.2 421.8 348 420.8C348.8 419.7 348 418.5 347 417.9L346.3 417.4C346.8 417.8 346 417.2 346.3 417.4L346 417.2C345.5 416.8 345.1 416.4 344.6 416C344.1 415.6 343.7 415.2 343.3 414.7C343.1 414.5 342.9 414.3 342.7 414.1L342.3 413.7L342.1 413.5C340.4 411.4 338.9 409.2 337.6 406.8C336.2 404.3 335.1 401.7 334.1 399C333 396.1 332 393.1 331.2 390.1C327.9 378.1 326.3 365.7 325.5 353.3C325 346.7 324.9 340 324.9 333.3C324.9 323.6 324.9 314 325.2 304.4C325.6 295.1 326.2 285.9 327 276.7C327.6 270.1 328.3 263.6 329.2 257.3C329.6 254.3 330.3 251.3 330.6 248.3C330.6 248.2 330.6 248 330.7 247.9L329.6 249.1L358.1 237.5L362.1 235.9L358.7 234.9C364.9 243.5 370.9 252.3 376.7 261.1C381.8 269 386.9 276.9 391.6 285C396.1 292.4 400.1 300.2 403.7 308.1C408.3 318.6 410.6 329.9 409.3 341.3C408.2 350.2 405.3 358.7 400.5 366.3C398.6 369.5 396.4 372.5 394 375.4C393.5 376 393 376.6 392.4 377.2C392.2 377.5 391.9 377.8 391.6 378.1L390.9 378.8C390.2 379.4 389.6 380.1 389.1 380.8C388.7 381.6 389 382.8 389 383.7C389.1 390.7 387.8 397.7 385 404.1C382.4 410.5 378.4 416.7 372.5 420.5C369.8 422.2 366.8 423.2 363.6 423.5C359.9 423.7 356.2 423 352.9 421.5C350.8 420.6 348.7 419.5 346.7 418.2C345.6 417.5 344.2 417.7 343.3 418.7C342.9 419.5 343.6 420.7 344.6 421.3Z" fill="#000005"/>
<path d="M392.099 381.101L390.299 370.301L385.999 344.401L380.799 313.301L376.299 286.201C375.599 281.801 374.899 277.501 374.099 273.101V272.901C373.899 271.701 373.199 270.601 372.199 269.901C371.399 269.401 370.699 269.801 370.799 270.801L372.599 281.601L376.899 307.501L382.099 338.601L386.599 365.701C387.299 370.101 387.999 374.401 388.799 378.801V379.001C388.999 380.201 389.699 381.301 390.699 382.001C391.499 382.401 392.299 382.101 392.099 381.101Z" fill="#000005"/>
<path d="M405.801 186.1C405.801 186.1 402.301 185.3 402.901 180.4C403.501 175.5 405.801 132.2 407.301 129.3C408.801 126.4 434.501 128.3 438.301 131.2C442.101 134.1 436.301 184.9 434.501 187.2C432.701 189.5 405.801 186.1 405.801 186.1Z" fill="#68BA7F"/>
<path d="M404.601 184C404.301 183.9 404.101 183.8 403.901 183.7C403.901 183.7 403.401 183.4 403.601 183.5C402.801 183.1 404.401 183.6 404.501 184.9C404.501 184.7 404.401 184.4 404.401 184.2C404.301 183.1 404.401 182 404.501 181C404.701 178.6 404.901 176.1 405.001 173.7C405.501 166.2 406.001 158.7 406.501 151.1C406.901 145.1 407.201 139 408.201 133.1C408.501 131.5 408.701 131 410.401 130.6C413.501 130 416.701 129.9 419.901 130.1C423.801 130.2 427.601 130.6 431.501 131.2C433.101 131.4 434.701 131.8 436.301 132.2C437.201 132.4 438.401 133.1 439.101 133.2C439.301 133.2 439.301 133.6 439.001 133.1C438.701 132.6 438.201 132 437.801 131.4C437.701 131.3 437.301 130.5 437.501 130.9C437.501 130.9 437.501 130.6 437.501 131C437.501 131.2 437.601 131.4 437.601 131.6C437.801 132.5 437.901 133.4 437.901 134.4C438.101 137.3 438.001 140.2 437.901 143C437.601 150.4 437.001 157.8 436.201 165.2C435.601 171.1 434.901 177 433.801 182.7C433.601 183.8 433.501 185.1 432.601 185.6C431.701 185.9 430.701 186.1 429.701 186C428.201 186.1 426.601 186 425.101 186C418.701 185.8 412.301 185.1 406.001 184.3L404.601 184C403.901 184 404.901 185.7 405.001 185.9C405.301 186.5 406.201 188.2 407.001 188.3C412.501 189 418.001 189.6 423.601 190C426.901 190.3 430.101 190.4 433.401 190.2C434.201 190.2 435.001 190 435.701 189.6C436.001 189.2 436.201 188.8 436.201 188.3C436.701 186.2 437.101 184.1 437.401 181.9C437.901 178.6 438.301 175.2 438.701 171.9C439.601 164.1 440.301 156.4 440.701 148.6C440.801 145.4 440.901 142.2 440.801 139C440.801 136.9 440.501 134.8 439.701 132.8C439.101 131.3 438.001 130 436.701 129.1C435.601 128.6 434.501 128.1 433.401 127.9C429.701 127.1 425.901 126.5 422.101 126.3C418.201 125.9 414.301 125.9 410.501 126.1C409.001 126.2 406.301 126.2 405.701 127.9C405.201 129.8 404.901 131.8 404.801 133.8C404.401 137.3 404.201 140.7 403.901 144.2C403.301 152.2 402.801 160.3 402.201 168.3C402.001 171.1 401.801 173.8 401.601 176.6C401.501 177.4 401.401 178.2 401.401 179C401.301 181.7 402.301 184.4 404.201 186.4C404.901 187.3 405.801 188 406.901 188.4C407.501 188.5 406.601 186.7 406.501 186.6C406.201 185.8 405.401 184.2 404.601 184Z" fill="#68BA7F"/>
<path d="M407.398 185.1C407.398 185.1 404.898 184.4 405.398 179.7C405.898 175 408.398 133.8 409.598 131C410.798 128.2 429.298 129.5 431.898 132.2C434.498 134.9 429.398 183.3 427.998 185.5C426.598 187.7 407.398 185.1 407.398 185.1Z" fill="white"/>
<path d="M407.001 183C406.901 183 407.701 183.3 407.301 183.1C407.101 183 407.101 182.9 407.601 183.3C407.501 183.2 407.201 183 407.601 183.3C408.001 183.6 407.601 183.3 407.501 183.2C407.601 183.3 407.901 183.5 407.601 183.3C407.801 183.4 407.701 183.6 407.601 183.3C407.501 183.2 407.501 183 407.501 182.9C407.301 181.8 407.301 180.8 407.501 179.7C407.701 177.8 407.801 175.9 407.901 173.9C408.401 167.5 408.801 161.2 409.301 154.8C409.701 148.8 410.201 142.8 410.801 136.8C410.901 135.9 411.001 134.9 411.101 134C411.101 133.7 411.201 133.3 411.301 133C411.301 132.8 411.501 132.1 411.401 132.5C411.401 132.6 411.301 132.9 411.401 132.5C411.501 132.2 411.401 132.6 411.401 132.5C411.401 132.4 411.901 132.2 411.401 132.4C411.601 132.3 411.901 132.2 412.101 132.1C413.201 131.8 414.301 131.6 415.401 131.6C418.601 131.4 421.901 131.6 425.101 132.1C426.601 132.3 428.001 132.6 429.401 133L430.101 133.2C429.601 133 430.401 133.3 430.501 133.4C430.901 133.6 430.901 133.6 430.601 133.4C431.101 133.9 430.201 132.9 430.101 132.8C430.301 133.1 429.801 132.2 429.901 132.5C430.001 132.8 429.901 133 429.901 132.3C429.901 132.6 430.001 132.9 430.101 133.2C430.201 133.5 430.201 133.9 430.201 134.2C430.201 134.5 430.201 134.6 430.201 134.8C430.201 135.3 430.201 135 430.201 134.8C430.201 134.9 430.201 135.1 430.201 135.2C430.301 137.6 430.201 139.9 430.101 142.2C429.601 154.3 428.501 166.4 426.801 178.4C426.601 180.1 426.301 181.7 426.001 183.4C426.001 183.6 425.801 184 426.001 183.4C426.001 183.5 425.901 183.6 425.901 183.6C425.901 183.7 425.801 183.9 425.801 184C426.301 183 425.901 183.9 425.901 183.8C425.901 183.9 425.401 184 426.001 183.7C425.901 183.8 425.701 183.8 425.601 183.9C425.501 183.9 424.801 184.1 425.301 184L424.501 184.1C421.601 184.3 418.701 184.2 415.801 183.9C413.101 183.7 410.801 183.4 408.101 183H407.001C404.001 182.6 405.601 186.9 407.701 187.2C412.801 188 418.001 188.5 423.201 188.7C425.001 188.7 428.901 189.1 429.901 187.2C430.401 186 430.601 184.8 430.701 183.6C431.601 178.1 432.201 172.5 432.801 167C433.501 160.2 434.101 153.4 434.401 146.6C434.501 143.9 434.601 141.2 434.601 138.5C434.701 136.6 434.501 134.8 434.001 133C433.101 130.5 430.501 129.5 428.101 128.9C424.701 128.1 421.201 127.6 417.701 127.6C415.001 127.5 411.601 127.3 409.001 128.5C407.301 129.2 407.201 130.7 406.901 132.3C406.101 137.9 405.801 143.5 405.301 149.1C404.801 156 404.301 163 403.801 169.9C403.601 172.3 403.501 174.7 403.301 177.1C403.101 179.9 402.801 182.7 404.501 185.1C405.201 186.2 406.301 187 407.601 187.4C408.301 187.6 409.001 187.3 409.301 186.6C409.401 186.4 409.401 186.1 409.301 185.8C409.201 184.4 408.201 183.4 407.001 183Z" fill="#68BA7F"/>
<path d="M416.601 131.1C416.601 131.1 415.301 131 415.301 131.9C415.301 132.8 415.601 133 417.601 133.3C419.601 133.6 423.201 134.1 423.901 133.4C424.601 132.7 424.401 131.6 423.001 131.5C421.601 131.4 416.601 131.1 416.601 131.1Z" fill="white"/>
<path d="M416.998 129.301C415.498 129.201 414.098 129.801 413.198 130.901C412.598 131.901 412.698 133.201 413.598 134.001C414.598 134.701 415.698 135.001 416.898 135.101C418.098 135.301 419.298 135.401 420.498 135.501C421.598 135.601 422.698 135.601 423.698 135.401C425.298 135.101 426.798 134.101 426.798 132.301C426.798 130.501 424.798 129.901 423.398 129.701C422.698 129.601 421.998 129.601 421.298 129.501C419.898 129.401 418.398 129.301 416.998 129.301C416.298 129.301 415.698 129.401 415.098 129.801C414.598 130.101 414.298 130.501 414.098 131.001C413.898 132.201 415.098 132.801 416.098 132.901L419.398 133.101C420.198 133.101 420.898 133.201 421.698 133.201C421.998 133.201 422.198 133.301 422.498 133.301C422.798 133.301 421.898 133.201 422.298 133.301C421.898 133.201 421.898 133.101 422.098 133.201H422.198C421.898 133.001 421.798 132.901 421.998 133.101L421.798 132.801C421.798 132.901 421.898 133.001 421.898 133.101L421.698 132.701C421.698 132.801 421.798 132.901 421.698 133.101V132.601C421.698 132.701 421.698 132.801 421.698 132.801C421.598 132.601 421.898 132.401 421.798 132.601C421.698 132.801 422.198 132.201 421.898 132.501C422.098 132.301 422.398 132.101 422.698 132.001C422.598 132.001 422.598 132.001 422.498 132.101C423.198 131.801 423.098 132.001 422.898 132.001C422.698 132.001 421.998 132.001 422.998 132.001C422.098 132.001 421.198 132.001 420.298 131.901L418.898 131.701H418.598H418.798L418.098 131.601L417.398 131.501C417.298 131.501 416.698 131.301 417.198 131.501C417.698 131.701 417.298 131.601 417.198 131.501C416.898 131.301 417.598 131.801 417.498 131.701C417.398 131.601 417.798 132.101 417.698 131.901L417.598 131.801L417.798 132.201C417.798 132.001 417.698 131.901 417.698 131.701V132.201C417.698 132.001 417.798 131.901 417.598 132.301C417.698 132.101 417.298 132.601 417.198 132.701C417.098 132.801 416.998 132.901 417.098 132.801L416.698 133.001C416.898 132.901 417.098 133.001 416.298 133.101H416.598C415.698 133.201 415.898 133.101 416.098 133.101C416.798 133.101 417.398 133.001 417.998 132.601C418.498 132.301 418.798 131.901 418.998 131.401C419.298 130.001 418.098 129.301 416.998 129.301Z" fill="#68BA7F"/>
<path d="M446.5 161.6C446.5 161.6 449.2 159.8 446.7 153C444.1 146 440.899 138 437.999 139.4C435.099 140.8 431.399 144.3 439.999 158.5L446.5 161.6Z" fill="white"/>
<path d="M447.9 163.201C451.6 160.601 450.1 155.101 448.8 151.601C447.7 148.301 446.3 145.101 444.7 142.101C443.4 139.801 441.5 137.201 438.6 137.401C435.8 137.501 433.2 140.001 432.5 142.601C431.3 146.701 433.6 151.601 435.4 155.201C435.9 156.101 436.4 157.001 436.9 157.901C437.3 158.901 438.1 159.801 439 160.401L440.7 161.201L445.5 163.401C446.7 163.801 448.1 163.401 448.8 162.401C449.5 161.301 448.7 160.301 447.7 159.901L441.2 156.901L442.4 157.901C440.4 154.501 438.1 150.501 437.4 146.801C437.3 146.201 437.2 145.601 437.2 145.001C437.2 144.701 437.2 144.501 437.2 144.201C437.2 143.901 437.2 144.201 437.2 144.301C437.2 144.101 437.2 144.001 437.3 143.801C437.4 143.401 437.5 143.001 437.6 142.701C437.4 143.301 437.6 142.701 437.7 142.601C437.8 142.501 437.9 142.301 438 142.101C437.9 142.201 437.7 142.401 438 142.101L438.4 141.801C439 141.401 438.6 141.601 438.4 141.801L438.8 141.501L439.2 141.301C439.7 141.201 439.4 141.201 439.2 141.301C438.9 141.401 438.6 141.401 438.3 141.301H438C438.2 141.401 438.2 141.401 437.9 141.201C438 141.101 438.3 141.501 438.5 141.701C439.7 143.201 440.7 144.901 441.4 146.701C442.5 149.101 443.4 151.501 444.3 153.901C444.7 155.001 445 156.201 445.2 157.501C445.3 158.201 445.3 158.901 445.1 159.601C445.1 159.701 445 159.901 445 160.001C444.9 160.501 445.1 159.801 445 160.101C444.9 160.201 444.8 160.401 444.7 160.601C444.5 161.001 445.1 160.201 444.7 160.501C444.5 160.701 444.2 160.901 445 160.301C444.1 160.901 443.5 162.001 444.3 163.001C445.3 163.701 446.7 163.901 447.9 163.201Z" fill="#000005"/>
<path d="M444.501 171.1C444.501 171.1 451.301 164.2 446.501 158.7C441.701 153.2 422.001 163.8 430.901 168.4C439.801 173 444.501 171.1 444.501 171.1Z" fill="white"/>
<path d="M446.299 172.9C449.299 169.9 451.599 165.2 450.199 160.9C449.399 158.3 447.399 156.2 444.799 155.4C442.799 154.9 440.599 154.9 438.599 155.4C434.799 156.2 430.599 158.1 427.999 161.1C426.599 162.5 425.999 164.5 426.399 166.5C427.099 169 429.499 170.3 431.699 171.3C434.799 172.9 438.199 173.7 441.699 173.9C443.099 174 444.499 173.7 445.799 173.3C446.799 172.8 447.199 171.6 446.699 170.6C446.599 170.5 446.599 170.4 446.499 170.3C445.799 169.2 444.399 168.7 443.199 169.2H443.099C442.699 169.3 443.699 169 443.399 169.1L443.099 169.2C442.599 169.3 441.999 169.4 441.499 169.4C441.199 169.4 442.099 169.4 441.699 169.4H440.799C440.299 169.4 439.799 169.3 439.299 169.3L438.399 169.2C438.899 169.3 438.299 169.2 438.099 169.1C437.399 168.9 436.699 168.7 435.999 168.5C434.499 168 433.099 167.4 431.799 166.7L431.299 166.4L431.099 166.3C430.699 166.1 431.499 166.7 431.299 166.4C431.099 166.1 431.099 166.2 430.899 166.1C431.199 166.6 430.499 165.7 430.899 166.1C430.899 166 430.799 166 430.799 165.9C430.599 165.7 430.999 166.5 430.899 166.2C430.899 166.1 430.799 166 430.799 165.9C430.699 165.6 430.799 166.4 430.799 166.2C430.799 166 430.799 166.1 430.799 166V165.8C430.699 165.5 430.699 166.3 430.799 166C430.899 165.7 430.899 165.5 430.999 165.2C431.099 165.3 430.699 165.8 430.999 165.3C431.099 165.1 431.199 165 431.299 164.8C431.399 164.7 431.499 164.5 431.599 164.4C431.899 163.9 431.299 164.7 431.599 164.4C431.899 164.1 432.099 163.8 432.399 163.6C432.699 163.4 432.999 163.1 433.299 162.9C433.599 162.7 433.699 162.6 433.799 162.5L433.999 162.4C434.399 162.1 433.599 162.7 433.999 162.4C434.799 162 435.499 161.5 436.299 161.2C436.699 161 437.099 160.8 437.499 160.7L438.099 160.5C438.299 160.4 438.899 160.2 438.399 160.4C439.299 160.1 440.099 159.9 440.999 159.8L441.499 159.7H441.799C442.099 159.7 441.899 159.6 441.699 159.7C442.099 159.6 442.499 159.6 442.899 159.7L443.399 159.8C443.999 159.9 442.899 159.7 443.399 159.8C443.599 159.9 443.699 159.9 443.899 159.9L444.099 160C444.799 160.3 445.599 159.9 445.899 159.2C446.199 158.5 445.799 157.7 445.099 157.4C444.399 157.1 443.599 157.5 443.299 158.2C443.099 158.8 443.299 159.5 443.899 159.9C443.999 160 444.199 160.1 444.399 160.1C444.899 160.4 444.299 160.2 444.299 160C444.399 160.1 444.499 160.2 444.699 160.3C444.699 160.3 444.899 160.5 444.699 160.2C444.799 160.4 444.999 160.6 445.099 160.7C445.199 160.8 445.199 160.9 445.299 161.1C445.599 161.6 445.199 160.7 445.399 161.3C445.499 161.6 445.599 161.9 445.699 162.2C445.599 161.8 445.699 162.1 445.699 162.3C445.699 162.5 445.699 162.7 445.699 162.8C445.699 162.9 445.699 163.1 445.699 163.3C445.699 163.5 445.599 163.9 445.699 163.4C445.599 164 445.499 164.6 445.299 165.1C445.299 165.2 445.199 165.4 445.199 165.5C444.999 166 445.199 165.5 445.199 165.6C445.199 165.7 444.999 166.2 444.799 166.4C444.299 167.3 443.799 168.1 443.199 168.9L442.999 169.1C442.799 169.4 443.399 168.7 443.099 169L442.899 169.3L442.699 169.6C441.899 170.5 441.899 171.8 442.799 172.7L442.899 172.8C443.799 173.3 445.399 173.8 446.299 172.9Z" fill="#000005"/>
<path d="M437.7 181.3C437.7 181.3 449.6 178.9 445.6 169.3C441.6 159.7 427.1 167.7 427.5 172.4C427.9 177.1 437.5 174.4 437.5 174.4L437.7 181.3Z" fill="white"/>
<path d="M438.998 181.9C441.798 181.4 444.398 180.1 446.598 178.2C448.098 176.8 448.898 174.9 448.998 172.9C448.998 170.3 447.898 167.9 445.998 166.1C443.898 164.5 441.298 163.7 438.598 163.9C435.898 164 433.198 164.6 430.698 165.9C428.398 167.1 422.898 170.9 425.698 174C426.598 174.9 427.798 175.4 429.098 175.6C430.698 175.9 432.298 175.9 433.898 175.8C435.698 175.7 437.498 175.4 439.298 174.9L434.998 174.4L435.198 181.3C435.198 182.5 440.198 182.4 440.198 181.3L439.998 174.4C439.998 173.9 438.798 173.7 438.498 173.7C437.598 173.6 436.698 173.6 435.798 173.9C435.498 174 435.898 173.8 435.998 173.8C435.798 173.8 435.498 173.9 435.298 174C434.998 174.1 434.598 174.1 434.298 174.2L433.798 174.3C433.198 174.4 434.198 174.3 433.498 174.3L432.898 174.4C432.698 174.4 431.998 174.4 432.698 174.4H431.998C432.398 174.4 431.898 174.4 431.898 174.4C431.298 174.4 432.098 174.4 431.698 174.4C431.598 174.4 431.498 174.4 431.398 174.3C431.798 174.4 431.598 174.4 431.498 174.3C431.098 174.1 431.498 174.3 431.198 174.2C430.998 174.1 430.898 174 430.698 174C429.798 173.1 429.698 171.7 430.398 170.7C431.298 169.4 432.498 168.3 433.898 167.5C434.698 167 435.498 166.6 436.298 166.3L436.998 166.1L437.298 166C437.298 166 437.698 165.9 437.498 165.9L437.898 165.8L438.298 165.7C438.898 165.6 437.798 165.7 438.398 165.7C438.598 165.7 439.298 165.7 438.598 165.7C438.798 165.7 439.498 165.7 438.798 165.7C438.898 165.7 438.998 165.7 439.098 165.7C439.098 165.7 438.598 165.6 438.998 165.7H439.198C439.398 165.7 438.898 165.6 439.298 165.7C439.998 165.9 440.698 166.3 441.298 166.8C444.198 169.4 444.798 174.4 442.198 177.4C441.598 178 440.998 178.6 440.298 179C439.998 179.2 439.598 179.4 439.198 179.6L438.698 179.9L438.498 180C438.798 179.9 438.098 180.2 438.498 180C437.998 180.2 437.398 180.4 436.798 180.6L436.498 180.7C436.198 180.8 437.098 180.6 436.698 180.6H436.498C435.998 180.7 434.698 181.1 435.598 181.7C436.598 182.1 437.798 182.2 438.998 181.9Z" fill="#000005"/>
<path d="M412.1 155.7C412.2 152.4 415.1 149.7 418.4 149.9L420.5 150C423.8 150.1 426.5 153 426.3 156.3C426.2 159.6 423.3 162.3 420 162.1L417.9 162C414.6 161.9 412 159 412.1 155.7Z" fill="#68BA7F"/>
<path d="M416.798 163C417.898 163 418.898 163.1 419.998 163.1C422.298 163.1 424.598 162.2 426.398 160.8C429.098 158.5 429.498 154.4 427.298 151.6C425.398 149.2 422.398 149 419.498 148.9C415.398 148.8 410.598 150.6 409.698 155.1C409.398 157 409.898 158.9 411.098 160.4C412.598 162 414.598 163 416.798 163C417.998 163.1 419.198 162.8 420.098 162.1C420.898 161.3 419.598 161 418.998 161C418.998 161 418.398 160.9 418.698 161C418.498 161 418.298 160.9 418.098 160.9C418.098 160.9 417.598 160.7 417.398 160.6C416.798 160.3 416.298 159.9 415.898 159.5C414.998 158.5 414.398 157.2 414.398 155.8C414.398 154.5 414.798 153.2 415.698 152.1C415.998 151.7 416.398 151.4 416.798 151.1C416.798 151.1 417.398 150.8 416.998 151L417.398 150.9C416.798 151.2 417.898 150.8 417.098 151C417.198 151 417.398 151 417.498 150.9C417.198 150.9 417.098 150.9 417.298 150.9C417.598 150.9 416.998 150.9 417.398 150.9H417.898H419.198C419.298 150.9 419.498 150.9 419.598 150.9C419.298 150.9 419.998 151 419.898 151C420.398 151.1 419.698 150.9 420.198 151.1C420.798 151.3 421.398 151.7 421.798 152.1C423.898 154 424.298 157.1 422.798 159.4C422.398 159.9 421.998 160.4 421.498 160.7C421.398 160.8 421.198 160.9 421.098 160.9C420.998 161 420.998 161 421.098 160.9L420.698 161C421.398 160.7 420.198 161.1 420.998 160.9C420.798 160.9 420.298 160.9 420.898 160.9C420.398 160.9 421.198 160.9 420.698 160.9H419.998H418.698C417.498 160.8 416.298 161.1 415.398 161.8C414.898 162.6 416.198 162.9 416.798 163Z" fill="#68BA7F"/>
<path d="M378.998 199.4C378.998 199.4 374.598 185.8 383.098 175.1C391.598 164.4 420.198 148.7 420.198 153.8C420.198 158.9 413.398 163.1 403.998 169.4C403.998 169.4 410.098 168.9 408.898 175.2C412.098 175.2 414.698 177.7 414.898 180.9C415.598 186.6 414.898 192.7 411.998 193.4C409.098 194.1 408.298 187.4 408.298 187.4C408.298 187.4 405.998 196 398.798 197.6C398.798 197.6 432.098 240.3 404.998 257.8C388.798 268.3 361.598 251.1 361.598 251.1C361.598 251.1 368.598 227.8 369.698 227.1C370.798 226.4 383.798 229 383.798 229L378.998 199.4Z" fill="white"/>
<path d="M381.201 200.3C379.801 195.5 379.601 190.4 380.801 185.6C382.501 178.5 387.201 173.5 392.701 169.1C398.001 165 403.601 161.3 409.501 158.3C411.901 157 414.301 155.9 416.801 155C417.701 154.7 418.601 154.4 419.501 154.2L420.301 154.1C420.601 154.1 420.601 154.2 420.401 154.1C420.401 154.1 420.501 154.1 420.601 154.1C419.801 153.9 419.001 153.5 418.401 153C418.201 152.8 417.801 152.5 417.901 152.4C417.901 152.5 417.901 152.6 417.901 152.7C417.801 153.4 417.701 154.2 417.401 154.8C416.701 156.3 415.701 157.6 414.501 158.7C410.801 162.3 406.101 165 401.801 167.9C400.601 168.7 404.801 170.7 405.501 170.6C405.701 170.6 405.901 170.6 406.201 170.6C406.501 170.6 406.001 170.6 406.201 170.6L406.601 170.7C406.701 170.7 407.201 170.8 406.701 170.7C406.801 170.7 407.201 170.9 406.901 170.8C406.801 170.8 406.301 170.5 406.601 170.7C406.501 170.6 406.101 170.4 406.101 170.4C406.101 170.4 406.301 170.6 406.401 170.9C406.801 171.9 406.801 173 406.601 174C406.401 175.4 409.501 176.6 410.501 176.6C411.001 176.6 410.601 176.6 410.501 176.6C410.701 176.6 411.501 176.8 411.001 176.7C411.601 176.9 411.501 176.8 411.001 176.6C411.401 176.7 411.001 176.5 411.201 176.7L411.501 177.1C412.301 178.5 412.701 180 412.701 181.6C412.901 183.4 412.801 185.3 412.601 187.1C412.501 188.5 412.001 189.8 411.301 191C411.001 191.4 410.601 191.8 410.101 192C409.101 192.6 411.501 191.6 411.901 193C412.001 193.2 411.801 192.8 411.701 192.7C411.001 191.3 410.601 189.8 410.401 188.3C410.301 187.4 406.301 185.2 406.001 186.2C404.801 190.7 401.401 195.1 396.701 196.2C396.401 196.3 396.501 196.7 396.601 196.9C399.101 200.1 401.301 203.5 403.301 207C407.301 213.9 410.801 221.4 412.401 229.3C414.001 237.2 413.401 245.8 407.901 252.1C404.801 255.7 400.501 258.2 395.801 259.2C391.001 260 386.101 259.8 381.401 258.5C378.901 257.9 376.501 257.1 374.101 256.2C372.901 255.8 371.801 255.3 370.701 254.8C369.601 254.3 368.701 253.9 368.101 253.6C366.601 252.9 365.101 252.1 363.701 251.3L363.001 250.9L362.601 250.7L363.901 252.3C365.401 247.2 367.001 242.1 368.701 237.1C369.501 234.4 370.401 231.8 371.501 229.2C371.601 229 371.801 228.7 371.901 228.5C372.001 228.3 371.801 228.5 371.901 228.5C372.001 228.5 372.001 228.5 371.801 228.5C371.901 228.5 372.101 228.5 372.201 228.5C373.501 228.6 374.901 228.7 376.201 228.9C379.201 229.3 382.201 229.9 385.201 230.5C385.501 230.6 386.201 230.6 386.101 230.1L382.001 204.1L381.201 200.3C381.001 199.4 379.501 198.7 378.701 198.3C378.401 198.2 376.601 197.5 376.701 198.4L380.801 224.4L381.401 228.1L382.301 227.7C379.701 227.2 377.101 226.7 374.501 226.3C372.701 226 371.001 225.8 369.201 225.7C368.501 225.7 367.501 225.5 367.001 226.2C366.501 227 366.201 227.8 365.901 228.7C365.401 230.1 364.901 231.5 364.401 233C363.201 236.5 362.101 240 361.001 243.5C360.301 245.7 359.701 247.8 359.001 250C358.801 250.6 359.901 251.3 360.201 251.6C365.901 255.2 372.101 258 378.501 260C388.101 263.1 399.501 264.5 408.101 258.1C411.601 255.5 414.401 252 415.901 247.9C417.201 244 417.701 239.8 417.201 235.7C416.401 227.2 412.901 219 408.801 211.5C407.201 208.5 405.401 205.6 403.601 202.8C403.001 201.9 402.301 200.9 401.701 200C401.401 199.5 401.001 199 400.601 198.5C400.501 198.4 400.501 198.4 400.401 198.3L400.301 199C405.101 197.8 408.701 193.3 410.001 188.7L405.601 186.6C405.801 188.3 406.301 190 407.201 191.5C408.501 193.6 412.301 196.1 414.701 194.3C417.101 192.5 417.101 187.9 417.001 185.1C416.901 181.7 416.301 178.7 413.501 176.5C411.601 175 409.301 174.1 406.801 174L410.701 176.6C411.001 175.2 410.901 173.7 410.301 172.4C409.501 171.2 408.401 170.2 407.101 169.5C405.501 168.6 403.701 168.2 402.001 168.2L405.701 170.9C409.801 168.1 414.201 165.5 417.901 162.1C419.801 160.4 422.601 157.6 422.101 154.7C421.901 153.5 420.501 152.7 419.501 152.2C418.501 151.7 417.401 151.5 416.401 151.5C414.201 151.8 412.101 152.4 410.201 153.4C403.901 156.2 397.901 159.7 392.301 163.8C386.601 167.8 380.601 172.5 377.701 179C375.101 185.2 374.701 192.1 376.601 198.6C376.901 199.6 378.201 200.2 379.101 200.5C379.501 200.5 381.501 201.1 381.201 200.3Z" fill="#000005"/>
<path d="M404.899 181.601C405.499 180.501 406.299 179.601 407.199 178.701L406.799 179.001C407.599 178.301 408.399 177.701 409.399 177.301L408.899 177.501C409.199 177.401 409.599 177.301 409.899 177.201C410.399 177.101 410.799 176.701 410.899 176.201C410.999 175.701 410.899 175.101 410.599 174.601C409.999 173.501 408.699 172.901 407.499 173.101C404.899 173.901 402.599 175.701 401.199 178.001C401.099 178.201 400.999 178.401 400.799 178.501C400.499 178.901 400.499 179.501 400.599 180.001C400.799 180.601 401.199 181.101 401.699 181.501C402.199 181.901 402.799 182.101 403.399 182.101C404.099 182.201 404.599 182.001 404.899 181.601Z" fill="#000005"/>
<path d="M399.198 175.4L405.398 171.5L406.298 170.9C407.098 170.3 407.198 169.3 406.698 168.5C406.598 168.4 406.498 168.2 406.298 168.1C405.198 167.4 403.798 167.4 402.798 168.1L396.598 172L395.698 172.6C394.898 173.2 394.798 174.2 395.298 175C395.398 175.1 395.498 175.3 395.698 175.4C396.698 176.2 398.098 176.2 399.198 175.4Z" fill="#000005"/>
<path d="M331.8 174.7L349.4 155.3C349.4 155.3 355.3 134.2 353.2 131.1C350.4 126.9 342.2 123.7 330.8 126C319.9 128.2 309.8 131 307.5 153.4C305.6 171.6 312.8 176 314.6 179C317.6 184 320 178.3 331.8 174.7Z" fill="#000005"/>
<path d="M349.701 185.7C349.701 185.7 348.901 184.1 348.101 182C347.301 179.9 347.601 178.6 353.801 175.1C366.001 168.3 362.001 156.5 362.001 156.5C363.701 156.3 365.301 155.7 366.701 154.8C369.101 153.4 371.201 148.4 363.201 147.4C361.001 147.3 358.901 146.1 357.901 144.1C356.101 140.8 355.301 137.9 352.101 132L351.401 134.9C349.501 142.5 344.301 148.9 337.301 152.3L336.601 152.2C338.701 165 331.901 172.9 331.901 172.9C332.001 175.1 332.001 177.3 331.801 179.6C331.801 179.5 342.001 191 349.701 185.7Z" fill="white"/>
<path d="M351 187C351.1 187.2 351 187 350.9 186.8C350.8 186.6 350.6 186.2 350.5 185.8C350.1 185 349.8 184.2 349.5 183.3C349.3 182.6 349.4 181.9 349.7 181.3C350.4 180.3 351.4 179.5 352.4 178.9C354.1 177.8 356 176.9 357.7 175.6C362.1 172.4 364.5 167.2 364.1 161.7C364 160.5 363.8 159.3 363.4 158.1L363.5 158.5C366.7 158.3 371.7 155.6 370.1 151.7C369 148.9 366.7 146.6 363.8 145.7C362.3 145.3 360.8 145.3 359.4 144.7C359.1 144.6 358.8 144.4 358.5 144.2C358.2 144 357.8 143.4 358.6 144.5C359.4 145.6 359 145 358.8 144.7C358.6 144.2 358.3 143.7 358 143.1C356.5 139.7 355.1 136.4 353.3 133.1C352.9 132.3 352.3 131.5 351.7 130.9C351.7 130.8 350.6 129.7 350.5 129.9C349.5 133.9 348.4 137.7 346 141.2C344.6 143.3 342.8 145.2 340.9 146.9C339.9 147.8 338.8 148.5 337.6 149.2C336.7 149.7 336 150.3 335.1 150.2C335 150.1 334.9 150.2 334.9 150.3C335.8 155.4 335.2 160.6 333.3 165.4C332.8 166.8 332.1 168.1 331.3 169.4C330.9 169.9 330.6 170.3 330.3 170.9C330.2 171.3 330.2 171.8 330.3 172.2C330.3 173.3 330.3 174.3 330.3 175.4C330.3 176.5 329.9 177.4 330.4 178.3C330.9 179.2 331.5 180.1 332.3 180.9C334.3 183.1 336.5 185 339 186.6C342.6 188.9 347.2 190.4 351.1 187.8C351.5 187.6 348.7 183.4 348.1 183.8C344.4 186.2 340.1 184.9 336.6 182.8C335.1 181.9 333.7 180.8 332.4 179.6C332.1 179.3 331.7 178.9 331.3 178.5L330.9 178.1C331.4 178.6 331.2 178.4 331.1 178.3L333.1 181.4C333.3 179.5 333.4 177.6 333.3 175.7C333.3 175.4 333.3 175.2 333.3 174.9C333.3 174.8 333.3 174.8 333.3 174.9C333.4 174.7 333.5 174.6 333.7 174.4C335.3 172.2 336.5 169.7 337.2 167C337.8 165 338.2 162.8 338.3 160.7C338.4 159.5 338.4 158.2 338.3 157C338.3 156.3 338.2 155.6 338.1 154.9C338.1 154.9 338 154.1 337.9 154.2C337.8 154.3 338.4 154.3 338.5 154.3C339.4 154 340.2 153.5 340.8 152.9C341.8 152.3 342.9 151.5 343.8 150.8C345.6 149.3 347.3 147.5 348.6 145.6C351.1 142 352.3 138.1 353.4 133.9L350.7 130.6C352.2 133.4 353.5 136.2 354.7 139.1C355.9 142.2 357.7 145 360 147.4C361 148.3 362.2 148.9 363.6 149.2C365.1 149.3 366.5 149.7 367.9 150.2C368.1 150.3 368.3 150.5 368.5 150.6C368.7 150.7 368.7 150.8 368.7 150.8C368.6 150.7 367.1 148.4 367.1 148.6C367.1 148.8 367.2 149.3 367.2 149.7C367.1 150.4 366.8 151.1 366.3 151.7C364.8 153.3 362.7 154.3 360.4 154.5C360.4 154.6 360.4 154.8 360.4 154.9L360.5 155.5C360.7 156.2 360.8 156.9 360.8 157.6C361.4 163.2 358.8 168.6 354.2 171.8C352.5 173 350.6 173.9 348.9 175.1C347.9 175.7 347 176.5 346.3 177.5C345.9 178.3 345.9 179.2 346.3 180C346.8 181.6 347.5 183.1 348.2 184.5C348.7 185.6 349.4 186.5 350.3 187.3C351.1 187.9 351.4 187.8 351 187Z" fill="#000005"/>
<path d="M351.698 158.9C352.198 159.7 352.798 160.5 353.398 161.1C354.798 162.6 356.698 163.6 358.698 163.9C360.098 164.1 361.498 163.9 362.898 163.4C363.298 163.3 363.598 163 363.798 162.7C363.898 162.3 363.898 161.9 363.598 161.6C363.098 160.8 362.098 160.4 361.098 160.6C360.898 160.7 360.598 160.8 360.398 160.8L359.998 160.9H359.798C359.498 161 359.898 160.9 359.898 160.9L359.298 161H358.798C358.598 161 359.198 161.1 358.998 161C358.798 160.9 358.598 161 358.398 160.9C358.298 160.9 358.198 160.8 358.098 160.8C358.098 160.8 358.598 160.9 358.398 160.9L358.198 160.8C357.998 160.7 357.898 160.7 357.698 160.6L357.398 160.5C357.398 160.5 357.798 160.7 357.598 160.6L357.398 160.5C357.098 160.3 356.798 160.1 356.498 159.9L356.698 160L356.598 159.9L356.398 159.8L355.998 159.4C355.798 159.2 355.598 159 355.398 158.7C355.698 159.1 355.198 158.4 355.398 158.7L355.198 158.4C354.998 158.2 354.898 158 354.798 157.7C354.298 156.9 353.298 156.5 352.298 156.7C351.698 156.8 351.298 157.5 351.398 158.1C351.398 158.3 351.498 158.4 351.598 158.5V158.9H351.698Z" fill="#000005"/>
<path d="M352.801 146.501C353.401 147.101 353.401 148.101 352.801 148.801C352.701 148.901 352.701 148.901 352.601 149.001C351.201 150.001 349.901 148.301 350.801 147.001C351.201 146.301 352.001 146.101 352.601 146.501C352.701 146.401 352.701 146.401 352.801 146.501Z" fill="#000005"/>
<path d="M328.899 169.5C328.899 169.5 354.099 160.5 355.899 181.3C355.899 181.3 373.499 178 369.399 195.8C365.299 213.6 344.399 203.9 344.399 203.9C344.399 203.9 350.499 213.3 335.799 216.9C321.099 220.5 322.999 203.5 322.999 203.5C322.999 203.5 308.499 220.9 297.199 208.1C285.899 195.3 300.899 189.8 300.899 189.8C300.899 189.8 291.099 184 297.499 176.7C303.899 169.4 321.399 172 321.399 172L328.899 169.5Z" fill="#000005"/>
<path d="M329.7 170.5L330.4 170.3L331.1 170.1L331.6 170C332.2 169.8 331 170.1 331.6 170C332.5 169.8 333.4 169.6 334.3 169.4C334.8 169.3 335.2 169.2 335.7 169.2C335.9 169.2 336.7 169.1 336 169.1L336.9 169C337.5 168.9 338 168.9 338.6 168.9C338.9 168.9 339.2 168.9 339.5 168.9H340C340.5 168.9 339.6 168.9 340.2 168.9C340.8 168.9 341.3 169 341.9 169L342.8 169.1C343 169.1 343.2 169.2 343.4 169.2C345.7 169.6 347.9 170.7 349.6 172.3C352.1 174.8 353.1 178.3 353.5 181.7C353.6 182.7 355.6 182.6 356.2 182.4C356.4 182.4 356.5 182.4 356.7 182.3C357.1 182.2 356 182.4 356.3 182.4H356.6L357.4 182.3C357.7 182.3 357.9 182.3 358.2 182.3H358.7C359 182.3 358.2 182.3 358.8 182.3C359.4 182.3 360.2 182.4 361 182.5C361 182.5 360.8 182.4 361.2 182.5L361.7 182.6C362.1 182.7 362.5 182.8 362.9 183C363.2 183.1 362.8 182.9 363.1 183.1L363.6 183.3C364 183.5 364.4 183.7 364.7 184C366 185.1 367 186.6 367.3 188.2C367.8 190.9 367.7 193.7 366.9 196.4C366.4 198.9 365.1 201.1 363.3 202.8C362.6 203.5 361.8 204 360.9 204.3C361.3 204.1 360.7 204.4 360.6 204.4L359.9 204.6C360.4 204.4 359.8 204.6 359.6 204.7C359.3 204.8 359 204.8 358.7 204.9C358.2 205 359 204.9 358.5 204.9L357.7 205H357H356.6C356.9 205 356.6 205 356.5 205C355.5 205 354.5 204.9 353.5 204.7L353.1 204.6C353.3 204.6 353.2 204.6 353.1 204.6L352.3 204.5L350.8 204.1C350 203.9 349.2 203.6 348.3 203.3C348 203.2 347.7 203.1 347.4 203H347C347.4 203.2 346.7 202.9 347 203L346.4 202.7C345.4 202.3 344.2 202.3 343.2 202.8C342.6 203.1 341.5 203.7 342.1 204.5C342.2 204.6 342.2 204.7 342.3 204.8C342.3 204.9 342.5 205.2 342.3 204.9C342.4 205.1 342.4 205.2 342.5 205.4C342.9 206.3 343.1 207.2 343.1 208.2C343.3 211.2 341.2 213.3 338.5 214.5C336.6 215.4 334.5 215.9 332.3 215.9C332 215.9 331.8 215.8 331.5 215.8C330.5 215.6 329.6 215.2 328.8 214.6C326.8 213.1 325.9 210.4 325.5 208C325.3 206.8 325.2 205.6 325.2 204.4C325.2 204 325.2 203.7 325.2 203.3C325.2 203.5 325.2 203.4 325.2 203.1C325.4 201 321.3 202.2 320.5 203C319.2 204.5 317.8 205.9 316.2 207.1C314.8 208.2 313.3 209.2 311.6 210C310.8 210.4 310 210.7 309.2 210.9C309.6 210.8 309.1 210.9 309 211L308.4 211.1C307.6 211.2 308.9 211.1 308 211.1C307.7 211.1 307.3 211.2 307 211.2C305.1 211.1 303.3 210.4 301.8 209.3C299.5 207.6 297.7 205.4 296.4 202.9C294.8 199.7 294.8 196.2 297.2 193.5C297.7 193 298.2 192.5 298.7 192.1C299 191.9 299.3 191.7 299.7 191.4C299.2 191.7 300 191.2 300.1 191.2C300.5 191 301 190.8 301.4 190.5C302.1 190.2 300.9 190.7 301.5 190.5C302.1 190.3 303.9 189.2 302.6 188.4C300.5 187.2 298.8 185.3 297.9 183C296.5 179.1 299.7 175.5 302.9 174.2C306.4 172.7 310.2 172.5 314.2 172.5C315.7 172.5 318.2 172.8 320.1 172.9C321.8 173 323.8 172.1 325.4 171.6L329.7 170.5C330.3 170.3 331.6 169.5 331.1 168.7C330.6 167.9 328.7 168.2 327.9 168.4L320.5 170.7L322.4 170.5C317.1 169.7 311.8 169.8 306.6 170.8C302.9 171.5 298.9 172.8 296.1 175.4C293.3 178 291.9 181.7 293.7 185.3C294.9 187.5 296.7 189.3 298.8 190.6L299.9 188.5C294 190.7 288.5 196.2 291.1 202.9C293.2 208.3 298.1 212.9 303.9 213.8C309 214.6 314.1 212.5 318.3 209.8C320.9 208.1 323.3 206 325.3 203.6L320.6 203.5C320.1 208.1 320.9 213.7 324.8 216.7C328.7 219.7 334.6 218.7 339 217.2C342.8 215.9 347.3 213.5 348 209.1C348.3 207 347.8 204.9 346.7 203.1L342.4 204.9C349.2 208 358.5 209.5 365.2 205.4C370.5 202.2 372.8 195.6 372.5 189.5C372.3 185.1 369.2 181.4 364.9 180.4C361.9 179.6 358.7 179.5 355.7 180.1L358.4 180.9C358.2 177.5 357 174.2 354.8 171.5C352.9 169.4 350.4 167.9 347.6 167.2C342.5 165.8 337 166.3 331.9 167.5C330.6 167.8 329.3 168.2 328 168.6C327.3 168.8 326 169.5 326.6 170.4C327.2 171.3 329 170.8 329.7 170.5Z" fill="#000005"/>
<path d="M353.998 145.201C356.598 144.401 358.498 142.101 358.798 139.401C359.198 136.101 356.898 133.001 354.698 130.801C352.198 128.201 349.398 126.401 345.698 126.801C342.298 127.101 339.298 129.001 336.498 130.901C336.198 131.101 337.798 132.801 337.998 132.901C338.198 133.001 339.598 134.701 339.998 134.401C342.198 132.701 344.698 131.401 347.398 130.601C348.698 130.301 350.098 130.201 351.398 130.401C351.998 130.501 352.598 130.601 353.098 130.801C353.398 130.901 353.598 131.101 353.898 131.201C354.398 131.401 353.998 131.701 353.598 130.801C353.798 131.201 354.198 131.601 354.398 132.101C354.698 132.601 354.898 133.201 355.098 133.801C355.398 134.901 355.298 136.101 354.998 137.201C354.298 139.301 352.598 141.001 350.498 141.701C350.198 141.801 351.898 143.601 351.998 143.801C352.398 144.201 353.398 145.501 353.998 145.301V145.201Z" fill="#000005"/>
<path d="M365.999 139.001C365.999 136.001 364.899 133.101 362.799 130.901C360.599 128.801 357.699 127.401 354.699 127.101C348.899 126.101 341.599 126.701 337.399 131.201C336.699 131.901 336.499 133.101 337.599 133.501C338.799 133.801 340.099 133.301 340.899 132.401C342.199 131.001 344.099 130.701 345.999 130.501C348.299 130.201 350.699 130.301 352.999 130.801C357.899 131.801 361.499 135.501 361.399 140.601C361.399 142.701 365.999 141.001 365.999 139.001Z" fill="#000005"/>
<path d="M359.301 180C363.601 181.1 368.401 182.2 371.201 186C374.101 190 371.801 195.4 370.101 199.4C368.901 202.1 373.601 203.9 374.601 201.4C377.001 195.8 379.101 189.5 375.401 183.9C372.001 178.8 365.701 177.1 360.101 175.7C358.801 175.4 357.601 176.2 357.301 177.4C357.101 178.7 358.001 179.8 359.301 180Z" fill="#000005"/>
<path d="M383.498 227.2C383.498 227.2 356.998 171.6 335.798 179.3C314.598 187 316.998 282.2 320.798 289.7C324.598 297.2 388.698 254.4 383.498 227.2Z" fill="white"/>
<path d="M385.301 228.401C382.301 222.301 379.001 216.301 375.401 210.601C369.101 200.401 361.801 190.101 352.301 182.701C348.401 179.701 343.901 176.901 338.901 176.701C335.501 176.501 332.101 177.901 329.801 180.401C327.301 183.301 325.401 186.701 324.301 190.301C322.601 195.101 321.301 199.901 320.401 204.901C318.301 216.701 317.001 228.701 316.701 240.701C316.301 251.601 316.301 262.501 316.901 273.401C317.101 277.001 317.401 280.501 317.901 284.101C318.401 287.101 319.001 289.401 321.701 291.301C323.901 292.901 326.501 292.101 328.901 291.201C332.901 289.601 336.801 287.601 340.401 285.301C350.701 279.001 360.101 271.401 368.501 262.801C372.701 258.601 376.501 253.901 379.701 248.901C382.501 244.701 384.401 240.001 385.301 235.101C385.601 233.001 385.601 230.901 385.201 228.901C385.001 228.001 383.901 227.101 383.201 226.501C383.101 226.401 381.301 225.201 381.401 225.801C383.201 235.501 376.901 245.101 371.101 252.301C363.501 261.501 354.601 269.701 344.801 276.501C340.601 279.501 336.301 282.301 331.801 284.701C328.801 286.301 325.601 288.001 322.301 288.601C321.801 288.701 321.301 288.701 320.801 288.701C320.601 288.701 320.401 288.701 320.201 288.601C320.301 288.601 319.901 288.401 320.201 288.601C320.601 288.901 322.501 290.101 322.401 290.801C322.401 290.701 322.301 290.501 322.201 290.401C322.201 290.301 322.101 290.201 322.101 290.201C322.001 290.001 322.001 289.801 321.901 289.601C321.301 286.901 320.901 284.101 320.801 281.401C320.001 271.701 319.701 261.901 320.001 252.201C320.101 240.401 320.901 228.701 322.501 217.001C323.801 207.601 325.501 197.501 329.901 188.901C331.401 186.101 333.301 183.301 336.001 181.701C339.301 179.801 343.501 180.101 346.901 181.501C348.901 182.301 350.701 183.401 352.401 184.701C353.301 185.401 354.201 186.101 354.901 186.801C355.401 187.201 355.901 187.701 356.401 188.201C356.001 187.901 356.701 188.501 356.801 188.601C357.101 188.901 357.301 189.101 357.601 189.401C361.401 193.501 364.901 197.901 368.001 202.601C372.801 209.701 377.101 217.101 381.001 224.801L381.601 226.001C382.201 227.001 383.001 227.901 384.001 228.501C384.401 228.601 385.701 229.401 385.301 228.401Z" fill="#000005"/>
<path d="M361.798 191.801C352.698 191.801 343.598 192.601 335.998 198.201C332.598 200.901 329.398 203.901 326.698 207.301C323.798 210.701 321.198 214.401 318.998 218.301C318.598 218.901 320.798 218.301 320.898 218.301C321.698 218.101 323.198 217.701 323.598 216.901C327.398 210.301 332.198 204.301 337.898 199.101C340.298 196.801 343.398 195.201 346.698 194.501C350.398 193.901 354.198 193.701 357.998 193.801C359.198 193.701 360.298 193.401 361.298 192.801C361.498 192.701 362.798 191.801 361.798 191.801Z" fill="#000005"/>
<path d="M369.299 205.801C351.899 209.301 336.199 218.801 324.999 232.601C321.899 236.501 319.099 240.701 316.799 245.101C315.999 246.701 319.899 249.601 320.599 248.301C328.699 232.701 342.099 220.401 358.399 213.601C362.999 211.701 367.699 210.301 372.499 209.301C373.599 209.101 372.399 207.401 372.099 207.001C371.499 206.301 370.399 205.801 369.299 205.801Z" fill="#000005"/>
<path d="M376.098 220.201C367.798 224.701 361.098 231.401 354.698 238.301C347.998 245.501 341.398 252.701 333.498 258.501C328.498 262.201 323.198 265.501 317.898 268.701C316.998 269.201 318.698 269.101 318.898 269.001C319.998 268.901 321.198 268.601 322.198 268.101C331.198 262.501 340.198 256.801 347.898 249.501C354.698 243.001 360.698 235.601 367.598 229.101C371.498 225.401 375.798 222.201 380.498 219.501C381.398 219.001 379.698 219.101 379.498 219.201C378.298 219.401 377.198 219.701 376.098 220.201Z" fill="#000005"/>
<path d="M79.1976 442.5C79.1976 442.5 78.3976 435.3 66.5976 429.8C54.7976 424.3 46.9976 426.3 54.9976 434.7C62.9976 443.1 78.4976 447.1 79.1976 442.5Z" fill="#000005"/>
<path d="M80.8986 443.9C80.4986 440.5 77.6986 437.3 75.4986 434.9C72.8986 432.3 69.8986 430.1 66.6986 428.5C63.3986 426.8 59.8986 425.6 56.2986 425C54.5986 424.8 51.7986 424.5 50.4986 426C49.0986 427.7 50.6986 430.4 51.6986 431.9C55.4986 437.7 61.6986 442 68.0986 444.5C70.7986 445.7 73.7987 446.4 76.7987 446.5C78.3987 446.5 80.5986 446.2 80.9986 444.3C81.1986 443.4 79.8986 442.2 79.3986 441.7C79.1986 441.5 77.6986 440.2 77.5986 441C76.9986 444.1 70.7986 442.4 68.9986 441.9C63.9986 440.6 59.2986 438 55.5986 434.4C54.6986 433.4 53.1986 431.9 53.6986 430.4C54.1986 428.9 56.1986 428.8 57.4986 428.8C60.2986 429 63.0986 429.6 65.6986 430.8C68.7986 432 71.5986 433.6 74.1986 435.7C74.5986 436 75.1987 436.6 75.2987 436.8C75.5987 437.1 75.7986 437.4 75.9986 437.7C76.3986 438.2 76.7986 438.8 77.0986 439.4C77.1986 439.6 77.4986 440.4 77.3986 440C77.4986 440.2 77.5986 440.4 77.5986 440.7C77.6986 440.9 77.6986 441.1 77.6986 441.3C77.7986 442.3 78.9986 443.4 79.6986 444C79.9986 444.2 81.0986 444.9 80.8986 443.9Z" fill="#000005"/>
<path d="M81.6004 444.501C81.6004 444.501 90.6004 423.701 79.6004 408.201C68.6004 392.701 60.6004 396.201 63.6004 415.401C66.6004 434.601 76.6004 447.601 81.6004 444.501Z" fill="#68BA7F"/>
<path d="M83.9975 444.7C86.0975 439.5 87.2975 433.9 87.4975 428.3C87.6975 423.4 86.9975 418.6 85.2975 414C83.2975 409.1 80.2975 404.8 76.3975 401.3C73.7975 398.8 70.3975 397 66.6975 397.6C63.4975 398.1 61.6975 400.3 60.9975 403.3C59.8975 408 60.5975 413.1 61.3975 417.8C62.2975 423.1 63.9975 428.2 66.1975 433.1C67.9975 437.1 70.3975 441.1 73.7975 443.9C76.3975 446 80.2975 447.1 83.3975 445.4C84.1975 444.9 84.1975 444.2 83.2975 443.8C82.1975 443.4 80.8975 443.4 79.7975 443.9C79.6975 444 79.5975 444 79.4975 444.1C79.3975 444.2 79.9975 444 79.5975 444.1C79.7975 444.1 80.2975 444 80.0975 444C80.7975 444 80.4975 444 80.2975 444C80.0975 444 80.8975 443.9 80.3975 444C80.2975 444 79.8975 443.9 80.4975 444L80.0975 443.8C79.1975 443.3 78.2975 442.7 77.4975 441.9C74.9975 439.3 72.9975 436.4 71.5975 433.2C69.4975 428.9 67.9975 424.4 66.9975 419.7C65.7975 415.1 65.3975 410.3 65.6975 405.6C65.7975 404.2 66.0975 402.8 66.7975 401.5C66.9975 401.1 67.2975 400.7 67.5975 400.3C67.7975 400.1 67.9975 399.9 68.1975 399.8C68.2975 399.8 68.0975 399.9 68.1975 399.8C68.4975 399.6 68.1975 399.8 67.9975 399.8C68.4975 399.8 67.4975 399.8 67.8975 399.8C67.2975 399.8 68.1975 399.8 67.6975 399.8C67.7975 399.8 67.8975 399.8 67.9975 399.9C67.8975 399.9 67.5975 399.8 67.9975 399.9C68.2975 400 68.5975 400.1 68.8975 400.3C70.2975 401.1 71.5975 402 72.6975 403.2C76.0975 406.5 78.7975 410.5 80.5975 414.9C82.1975 419.1 82.8975 423.5 82.6975 428C82.5975 433.7 81.4975 439.4 79.2975 444.6C78.4975 445.9 83.3975 446.1 83.9975 444.7Z" fill="#68BA7F"/>
<path d="M82.5984 448C80.2984 437.4 78.1984 426.8 76.3984 416.1C76.2984 415.2 74.7984 414.4 74.1984 413.9C73.9984 413.8 72.3984 412.7 72.3984 413.3C74.1984 424 76.2984 434.6 78.5984 445.2C78.7984 446.1 80.0984 446.9 80.7984 447.4C80.9984 447.5 82.6984 448.6 82.5984 448Z" fill="#000005"/>
<path d="M81.9 432.301L87.2 422.401C87.4 422.001 87.2 421.601 86.9 421.301C86.5 420.901 85.9 420.701 85.4 420.701C84.4 420.601 82.9 420.801 82.4 421.801L77.1 431.701C76.9 432.101 77.1 432.501 77.4 432.801C77.8 433.201 78.4 433.401 78.9 433.401C79.9 433.501 81.4 433.401 81.9 432.301Z" fill="#000005"/>
<path d="M94.6997 446.6C94.6997 446.6 113 447 116.5 434.8C120 422.6 113.3 417.9 102.8 425.4C92.2997 432.9 89.8997 444 94.6997 446.6Z" fill="#68BA7F"/>
<path d="M94.4998 448.8C97.8998 448.8 101.2 448.4 104.5 447.4C110.4 445.8 116.1 442.4 118.4 436.5C120.5 431.1 121.2 422 114.2 420C111 419.1 107.4 420.3 104.6 421.8C100.7 423.9 97.2998 426.8 94.5998 430.2C90.9998 434.7 86.4998 444.5 93.2998 448.5C95.6998 449.9 98.6998 446.3 95.9998 444.7C95.6998 444.5 95.9998 444.7 96.0998 444.8C95.9998 444.7 95.8998 444.7 95.8998 444.6C95.6998 444.5 95.3998 444.1 95.6998 444.5C95.5998 444.3 95.3998 444.2 95.2998 444C95.1998 443.9 95.1998 443.8 95.0998 443.7C94.7998 443.2 95.1998 444.1 95.0998 443.6C94.8998 443.2 94.7998 442.7 94.7998 442.2C94.7998 442.1 94.6998 441.8 94.7998 442.2C94.7998 442.1 94.7998 441.9 94.7998 441.8C94.7998 441.5 94.7998 441.1 94.7998 440.8C94.8998 439.7 95.1998 438.5 95.5998 437.5C96.0998 436.1 96.7998 434.8 97.6998 433.6C99.6998 430.7 102.3 428.2 105.3 426.2C106 425.8 106.7 425.4 107.4 425L108.4 424.5C108.9 424.3 108.6 424.4 108.5 424.5C108.7 424.4 109 424.3 109.2 424.3C109.4 424.3 109.8 424.1 110.1 424.1C110.4 424.1 111.1 424 110.5 424C110.8 424 111 424 111.3 424H111.7C112.2 424 111.3 423.9 111.8 424L112.5 424.2C112.8 424.3 112.2 424 112.7 424.3C112.9 424.4 113.4 424.7 112.9 424.4C113.1 424.5 113.3 424.7 113.5 424.9C113.9 425.2 113.4 424.7 113.7 425.1C113.8 425.3 114 425.5 114.1 425.7L114.3 426C114.4 426.3 114.2 425.7 114.3 426C114.4 426.3 114.5 426.6 114.6 426.9C114.9 428.1 114.9 429.4 114.8 430.7C114.7 432.3 114.3 433.8 113.8 435.3C113.4 436.4 112.8 437.5 112 438.4C111.7 438.8 111.4 439.1 111 439.4C110.5 439.8 110.1 440.2 109.6 440.6C109.2 440.9 109.7 440.6 109.2 440.9C109 441.1 108.7 441.2 108.4 441.4C107.8 441.7 107.2 442 106.7 442.3L105.9 442.6L105.5 442.8C105.9 442.7 105.1 442.9 105.5 442.8C104.9 443 104.4 443.2 103.8 443.3C102.6 443.6 101.4 443.9 100.2 444.1L99.2998 444.2C99.1998 444.2 98.7998 444.3 99.4998 444.2L99.0998 444.3L97.6998 444.4C96.6998 444.5 95.7998 444.5 94.7998 444.5C93.4998 444.5 92.3998 445.4 92.1998 446.7C92.1998 447.9 93.1998 448.8 94.3998 448.8C94.3998 448.8 94.4998 448.8 94.4998 448.8Z" fill="#68BA7F"/>
<path d="M275.4 450.801C275.4 450.801 278.5 444.301 271.5 433.401C264.5 422.501 256.8 419.901 259 431.301C261.2 442.701 272.3 454.301 275.4 450.801Z" fill="#000005"/>
<path d="M276.998 452.701C278.198 450.101 277.898 446.701 277.298 444.101C276.398 440.501 274.898 437.001 272.798 434.001C270.698 430.701 268.198 427.601 265.298 425.001C263.798 423.701 261.398 421.701 259.198 422.101C257.198 422.501 256.898 424.701 256.898 426.401C256.998 433.101 260.498 439.801 264.398 444.901C266.398 447.801 268.998 450.201 271.898 452.201C273.198 453.001 275.598 454.201 276.998 452.701C277.798 451.901 274.298 448.301 273.698 449.001C273.398 449.401 272.898 449.601 272.298 449.601C271.698 449.501 271.198 449.401 270.698 449.101C270.298 448.901 269.998 448.701 269.598 448.401C269.898 448.601 269.398 448.201 269.298 448.201L268.998 447.901C268.898 447.901 268.598 447.501 268.898 447.801C268.498 447.401 268.098 447.001 267.698 446.701C267.998 447.001 267.498 446.501 267.398 446.401C267.198 446.101 266.898 445.801 266.698 445.501L266.398 445.101C266.198 444.901 265.998 444.601 265.798 444.301C265.398 443.801 265.098 443.401 264.798 442.801C264.098 441.701 263.398 440.501 262.798 439.201C261.498 436.601 260.698 433.801 260.398 431.001C260.198 429.501 259.998 427.101 261.498 426.101C261.998 425.801 262.698 425.701 263.198 425.901C263.898 426.101 264.498 426.501 264.998 426.901C265.898 427.501 266.598 428.301 267.298 429.101C268.198 430.201 269.098 431.401 269.898 432.601C271.598 435.101 272.898 437.901 273.698 440.801C274.198 442.801 274.398 444.901 274.198 446.901C274.098 447.501 273.998 448.001 273.798 448.601C273.798 448.701 273.498 449.401 273.698 449.001C273.298 449.801 274.298 450.901 274.798 451.401C274.998 451.401 276.798 453.201 276.998 452.701Z" fill="#000005"/>
<path d="M276.299 453.801C276.299 453.801 294.999 441.001 293.999 422.001C292.999 403.001 284.399 401.701 276.599 419.501C268.799 437.301 270.499 453.701 276.299 453.801Z" fill="#68BA7F"/>
<path d="M278.698 453.901C282.298 451.301 285.498 448.301 288.198 444.801C293.798 437.801 297.098 429.501 296.398 420.501C296.098 416.601 295.598 411.701 292.898 408.601C292.098 407.601 290.898 407.001 289.698 406.801C287.598 406.401 285.498 406.501 283.498 407.101C279.998 408.401 277.698 412.301 276.098 415.401C273.198 420.901 271.098 426.701 269.898 432.801C268.898 437.801 268.298 443.301 269.498 448.401C269.798 450.001 270.498 451.401 271.498 452.601C272.798 453.901 274.598 454.001 276.298 454.101C276.498 454.101 278.798 454.201 278.698 453.901C278.798 453.401 276.398 453.401 276.298 453.401C278.498 453.501 277.698 453.601 276.898 453.101C276.398 452.701 276.098 452.301 275.798 451.801C275.098 450.601 274.598 449.201 274.298 447.801C273.598 443.701 273.598 439.601 274.298 435.501C275.198 429.801 276.798 424.301 279.198 419.101C280.898 415.401 282.898 411.101 286.198 408.501C286.698 408.101 287.198 407.801 287.798 407.501C287.998 407.401 288.298 407.301 288.598 407.201C289.498 406.801 284.898 406.501 286.098 407.101C287.198 407.601 288.098 408.501 288.698 409.501C290.798 413.001 291.298 417.601 291.498 421.601C291.998 429.701 288.798 437.301 283.998 443.601C281.198 447.401 277.798 450.701 273.998 453.501C273.598 453.701 275.598 453.901 275.698 453.901C276.398 454.101 277.998 454.401 278.698 453.901Z" fill="#68BA7F"/>
<path d="M276.598 456.101C280.298 445.901 284.198 435.801 288.398 425.801C288.798 424.801 284.298 422.701 283.898 423.601C279.698 433.601 275.798 443.701 272.198 453.901C271.698 455.001 276.298 456.901 276.598 456.101Z" fill="#000005"/>
<path d="M283.599 442.401L293.299 436.901C293.699 436.701 291.699 436.301 291.599 436.301C290.999 436.201 290.299 436.101 289.699 436.101C289.299 436.001 288.899 436.101 288.499 436.201L278.799 441.701C278.399 441.901 280.399 442.301 280.499 442.301C281.099 442.401 281.799 442.501 282.399 442.501C282.799 442.601 283.199 442.601 283.599 442.401Z" fill="#000005"/>
</svg>
