<svg width="500" height="500" viewBox="0 0 500 500" fill="none" xmlns="http://www.w3.org/2000/svg">
<path d="M115.399 203.5C117.599 207.2 120.399 210.7 123.499 213.6C123.799 213.9 124.199 214.2 124.699 214.2C125.099 214.2 125.299 213.9 125.299 213.5C125.299 212.3 124.799 211.2 123.899 210.3C123.199 209.7 122.599 209 121.899 208.3C121.699 208.1 121.599 207.9 121.399 207.8C121.499 207.9 121.699 208.1 121.499 207.9L121.199 207.6C120.899 207.2 120.599 206.9 120.299 206.5C119.699 205.8 119.099 205 118.599 204.3L118.399 204C118.499 204.2 118.699 204.4 118.499 204.1C118.299 203.8 118.299 203.7 118.199 203.6C117.899 203.2 117.599 202.7 117.399 202.3C117.099 201.8 116.699 201.3 116.199 200.9C115.899 200.7 115.499 200.5 115.099 200.7C114.299 201.3 115.199 203 115.399 203.5Z" fill="#68BA7F"/>
<path d="M118.6 215.2C111 213 103.6 209.8 96.8004 205.8C95.7004 205.3 94.5004 205.5 93.6004 206.3C93.0004 206.7 91.9004 208.2 93.0004 208.9C100.1 213.1 107.7 216.4 115.6 218.8C116.8 219.1 118.1 218.6 118.9 217.7C119.4 216.9 119.7 215.5 118.6 215.2Z" fill="#68BA7F"/>
<path d="M116.5 231.199H105.3C104.3 231.199 104.8 232.299 105.2 232.799C105.6 233.299 106.1 233.699 106.7 234.099C107.1 234.399 107.6 234.599 108.1 234.699H119.3C120.4 234.699 119.8 233.599 119.4 233.099C119 232.599 118.5 232.199 117.9 231.799C117.5 231.499 117 231.299 116.5 231.199Z" fill="#68BA7F"/>
<path d="M154.2 207.6C148.8 220 127.3 221.9 126.9 228C126.5 234.1 138.4 233.2 142.1 230.5C142.1 230.5 135.7 238.5 145.6 244.4C145.6 244.4 144.2 247.5 145 255.4C145.8 263.3 150.6 264.5 150.6 264.5C155.3 265.2 157.4 262.3 157.5 254.9C157.6 247.5 168.2 234.6 168.2 234.6C176.3 236.2 176.4 240.5 173.6 244.7C170.8 248.9 167.4 249.1 169.3 253.9C171.2 258.7 176.9 256.6 184.5 249.9C192.1 243.2 190.8 224.7 185.9 221.9C185.9 221.9 197.8 201.1 205.8 198.3C213.8 195.5 262.4 205.9 262.4 205.9L262.1 164.5C262.1 164.5 221.5 154.9 196.2 162.1C170.9 169.3 154.2 207.6 154.2 207.6Z" fill="white"/>
<path d="M152.099 207.599C150.399 211.399 147.399 213.699 143.899 215.699C140.799 217.499 136.799 219.099 133.199 220.799C130.299 222.099 126.599 223.799 125.199 226.899C123.599 230.399 126.299 233.299 129.699 234.099C133.899 235.099 139.599 234.299 143.099 231.699L140.399 229.899C139.099 231.599 138.299 233.599 137.999 235.699C137.399 240.199 140.199 243.699 143.899 245.899L143.599 244.299C143.199 245.299 142.899 246.399 142.799 247.499C142.399 250.599 142.399 253.699 142.799 256.799C143.299 260.399 145.199 265.099 149.099 266.099C151.199 266.599 153.399 266.199 155.199 265.099C157.399 263.599 158.799 261.399 159.199 258.799C159.699 256.199 159.399 253.599 160.099 250.999C160.899 248.699 161.899 246.399 163.199 244.299C165.199 240.999 167.399 237.799 169.899 234.799L166.699 236.199C168.899 236.699 172.299 237.499 172.799 240.099C173.199 242.099 171.599 244.299 170.199 245.799C168.199 247.799 165.899 249.799 166.299 252.899C166.699 255.299 168.099 257.699 170.699 258.099C173.599 258.599 176.499 257.099 178.899 255.699C182.099 253.899 184.899 251.499 187.299 248.799C190.699 244.599 191.899 238.699 191.899 233.399C191.999 230.599 191.599 227.799 190.799 225.199C190.199 223.299 189.299 221.099 187.399 219.999L187.699 221.599C187.899 221.299 187.799 221.399 187.599 221.699L188.199 220.699C188.899 219.599 189.599 218.499 190.299 217.299C192.299 214.099 194.499 210.999 196.799 207.999C197.899 206.499 199.199 205.099 200.399 203.699C200.999 202.999 201.699 202.399 202.399 201.799C202.499 201.699 203.399 200.899 203.099 201.199C203.399 200.999 203.799 200.699 204.099 200.499C204.199 200.399 205.199 199.799 204.699 200.099C204.999 199.999 205.299 199.899 205.599 199.699C205.899 199.499 205.099 199.799 205.699 199.699L206.299 199.599C206.499 199.599 207.199 199.499 206.399 199.599L206.999 199.499C207.499 199.499 208.099 199.399 208.599 199.399C214.899 199.299 221.099 200.299 227.299 201.299C234.499 202.399 241.599 203.699 248.799 205.099C252.799 205.899 256.799 206.699 260.799 207.499C262.499 207.799 264.099 206.599 264.399 204.899C264.399 204.799 264.399 204.699 264.399 204.699L264.099 168.499V163.299C264.099 162.899 263.599 162.499 263.199 162.399C257.599 161.099 251.899 160.099 246.299 159.299C234.699 157.599 222.899 156.699 211.299 157.499C205.399 157.799 199.599 158.899 194.099 160.699C189.099 162.499 184.499 165.199 180.399 168.599C172.499 174.899 166.099 183.099 160.699 191.599C157.399 196.499 154.599 201.699 152.199 206.999C152.199 207.399 152.099 207.499 152.099 207.599C151.799 208.199 151.999 208.999 152.599 209.299C152.799 209.399 153.099 209.499 153.299 209.499C154.599 209.499 155.699 208.699 156.299 207.599C158.099 203.499 160.199 199.599 162.499 195.699C167.299 187.599 172.899 179.899 179.899 173.599C183.299 170.299 187.299 167.599 191.499 165.599C196.299 163.599 201.299 162.399 206.499 161.999C217.799 160.799 229.399 161.499 240.599 162.999C244.999 163.599 249.299 164.299 253.599 165.099C255.799 165.499 257.999 166.199 260.199 166.499C260.299 166.499 260.399 166.499 260.499 166.599L259.599 165.699L259.899 201.899V207.099L263.499 204.299C252.799 201.999 242.099 199.999 231.299 198.299C224.599 197.299 217.699 196.199 210.899 196.099C208.599 195.999 206.299 196.399 204.199 197.299C200.599 199.099 197.799 202.099 195.199 205.099C190.799 210.399 186.799 216.099 183.399 222.099C183.099 222.699 183.199 223.399 183.699 223.799C184.799 224.599 185.599 225.799 185.999 227.199C186.699 229.299 187.099 231.399 187.199 233.599C187.499 237.999 186.899 243.299 184.499 247.099C183.099 249.299 180.599 251.099 178.299 252.699C177.199 253.499 175.999 254.099 174.799 254.599C174.199 254.799 173.499 254.899 172.899 254.799C171.599 254.399 170.199 251.899 170.799 250.399C170.899 250.199 171.099 249.899 171.299 249.799C171.699 249.299 172.199 248.899 172.699 248.399C173.899 247.199 174.899 245.999 175.699 244.499C176.899 242.399 177.799 239.799 176.799 237.399C175.599 234.599 172.099 233.499 169.299 232.899C168.099 232.799 166.899 233.299 166.099 234.299C164.299 236.499 162.599 238.899 160.999 241.299C158.499 245.199 155.799 249.499 155.099 254.199C154.699 256.599 155.099 259.099 154.199 261.399C154.099 261.699 153.899 262.099 153.699 262.399C153.699 262.399 153.199 262.999 153.599 262.599C153.499 262.699 152.999 263.099 153.499 262.699C152.999 263.099 153.999 262.599 153.399 262.799C153.299 262.799 152.799 262.999 153.399 262.799C152.999 262.899 152.599 262.999 152.199 262.899C151.899 262.899 151.599 262.799 151.299 262.699C150.999 262.599 151.699 262.899 151.399 262.699C151.299 262.699 151.199 262.599 151.099 262.599C150.999 262.599 150.599 262.299 150.399 262.099C148.999 260.899 147.999 259.399 147.499 257.599C146.699 254.399 146.499 250.999 146.899 247.699C146.999 246.799 147.099 245.899 147.299 244.999C147.399 244.299 147.199 245.199 147.399 244.799C147.399 244.699 147.399 244.699 147.499 244.599C147.799 243.999 147.699 243.299 147.199 242.899C144.299 241.099 141.699 238.399 142.199 234.799C142.399 233.799 142.699 232.899 143.199 231.999C143.199 231.899 143.299 231.799 143.399 231.699C143.399 231.799 143.199 232.099 143.299 231.899C143.399 231.699 143.499 231.599 143.499 231.499C143.599 231.399 143.699 231.299 143.699 231.099C144.299 230.499 144.299 229.599 143.699 228.999C142.799 228.599 141.799 228.699 140.999 229.299L140.599 229.599C140.999 229.399 140.099 229.899 140.599 229.599C140.199 229.799 139.899 229.899 139.499 230.099C139.399 230.099 139.099 230.199 139.399 230.099C139.199 230.199 138.899 230.199 138.699 230.299C138.199 230.399 137.699 230.499 137.199 230.599C135.599 230.899 133.999 230.899 132.499 230.699C131.099 230.499 129.699 229.999 129.099 228.799C128.999 228.399 128.899 227.899 128.899 227.499C128.899 226.999 128.799 227.799 128.999 227.299C129.299 226.799 129.099 227.099 128.999 227.299C129.099 227.199 129.099 227.099 129.199 226.999C129.599 226.699 128.799 227.399 129.199 226.999L129.499 226.699C130.099 226.099 129.199 226.799 129.799 226.399C130.399 225.999 130.999 225.599 131.599 225.299C130.999 225.599 131.999 225.099 132.099 224.999L133.099 224.499L135.499 223.399C139.199 221.899 142.799 220.099 146.299 217.999C150.399 215.499 154.099 212.099 155.999 207.699C156.299 207.099 156.099 206.299 155.499 205.999C155.299 205.899 154.999 205.799 154.799 205.799C153.799 205.499 152.599 206.399 152.099 207.599Z" fill="#000005"/>
<path d="M143.999 225.6L140.299 229.6L139.799 230.2C139.299 230.7 141.299 231 141.499 231.1C142.099 231.2 142.799 231.2 143.399 231.2L143.899 231.1C144.099 231.1 144.399 231 144.599 230.9L148.299 226.9L148.799 226.3C149.299 225.8 147.299 225.5 147.099 225.4C146.499 225.3 145.799 225.3 145.199 225.3L144.699 225.4C144.399 225.3 144.199 225.4 143.999 225.6Z" fill="#000005"/>
<path d="M150.601 233.2C147.201 236.5 144.701 240.6 143.301 245.1C143.101 245.7 144.901 245 145.101 244.9C145.701 244.7 146.301 244.4 146.901 244.1C147.201 244 147.801 243.7 147.901 243.4C148.901 240.4 150.301 237.5 152.201 235C152.801 234.2 153.401 233.4 154.101 232.6L154.701 231.9C154.901 231.7 154.501 232.1 154.701 231.9L154.801 231.8C155.501 231.1 154.001 231.5 153.701 231.6C153.101 231.8 152.501 232 151.901 232.3C151.501 232.7 151.001 232.9 150.601 233.2Z" fill="#000005"/>
<path d="M267.1 216.1L228.9 205.7C228.9 205.7 215.7 159.1 219.2 156.3C222.7 153.5 281.8 155.6 288.7 167.4C295.6 179.2 267.1 216.1 267.1 216.1Z" fill="#000005"/>
<path d="M266.102 214.1L232.502 205L227.802 203.7L230.502 206.6C227.502 196.1 224.802 185.5 222.502 174.8C221.802 171.6 221.202 168.4 220.702 165.2C220.502 163.9 220.402 162.7 220.302 161.4C220.202 160.6 220.202 159.9 220.402 159.1C220.402 158.8 220.502 158.6 220.602 158.3C220.502 158.5 220.602 158.2 220.902 158.1C221.202 158 220.902 158.1 221.202 158C221.502 157.9 221.802 157.8 222.102 157.8C224.102 157.5 226.202 157.3 228.302 157.3C235.102 157.1 241.902 157.4 248.602 157.9C256.402 158.4 264.202 159.5 271.902 161.2C275.102 161.9 278.302 162.8 281.402 163.9C282.602 164.3 283.802 164.9 284.902 165.5L285.602 165.9L286.002 166.1C285.502 165.8 286.002 166.1 286.102 166.2L286.702 166.6L287.002 166.9C286.902 166.8 286.502 166.5 287.002 166.9C287.102 167 287.202 167.1 287.302 167.2C287.702 167.5 286.902 166.7 287.202 167.1L287.402 167.3C287.702 167.7 287.002 166.8 287.302 167.2C287.702 167.8 287.202 167 287.402 167.3C287.502 167.4 287.502 167.6 287.602 167.7C287.402 167.2 287.602 167.8 287.702 167.9C288.002 169 288.202 170.1 288.102 171.2C287.902 174.3 287.202 177.4 286.002 180.3C283.302 187.5 279.402 194.2 275.202 200.6C272.302 205.1 269.302 209.4 266.102 213.7L265.602 214.3C264.702 215.5 268.102 219 268.802 218.1C272.402 213.4 275.802 208.5 279.002 203.4C281.802 199.1 284.302 194.6 286.602 190C288.702 186 290.302 181.6 291.202 177.1C291.802 173.5 291.602 169.8 289.402 166.8C287.202 163.8 283.902 161.9 280.402 160.5C271.702 156.9 262.002 155.7 252.802 154.7C243.702 153.6 234.502 153.2 225.302 153.4C222.902 153.3 220.602 153.6 218.302 154.2C216.402 154.8 216.702 157.3 216.802 159C217.102 162.7 217.702 166.5 218.502 170.1C219.502 174.8 220.602 179.5 221.702 184.2C223.402 191 225.002 197.8 227.102 204.5C227.502 206 228.602 207.2 230.002 207.8C230.702 208 231.402 208.2 232.202 208.4L242.902 211.3L266.702 217.8L268.202 218.2C269.302 218.5 268.902 217.2 268.602 216.7C268.002 215.5 267.102 214.6 266.102 214.1Z" fill="#000005"/>
<path d="M245.102 270.3C245.102 270.3 257.702 170.5 302.202 163.7C346.702 156.9 393.902 280.6 393.902 280.6C393.902 280.6 303.002 311.7 245.102 270.3Z" fill="#000005"/>
<path d="M246.701 271.8C247.201 267.8 247.901 263.8 248.601 259.9C250.401 250.5 252.501 241.1 255.201 231.8C258.301 220.6 262.401 209.7 267.501 199.3C272.301 189.8 278.301 180.3 286.701 173.5C293.601 167.9 302.701 164.3 311.401 166.1C320.501 168 327.801 173.7 334.301 180.1C335.201 181 336.101 181.9 337.001 182.9C338.101 184 338.501 184.5 339.601 185.8C341.501 187.9 343.301 190.1 345.101 192.4C346.801 194.7 348.601 197 350.401 199.5C351.301 200.8 352.201 202 353.001 203.3C353.801 204.6 354.401 205.3 355.301 206.8C361.801 217 367.901 227.5 373.301 238.4C374.601 240.9 375.901 243.5 377.101 246C377.701 247.2 378.301 248.4 378.901 249.6L379.701 251.3C379.801 251.4 379.801 251.6 379.901 251.7C380.101 252.1 379.701 251.1 379.901 251.8C380.001 252.1 380.201 252.4 380.301 252.7C382.301 256.9 384.201 261.1 386.001 265.3C388.101 270.1 390.101 275 392.101 279.9C392.201 280.1 392.301 280.3 392.301 280.6L392.501 278.4C389.401 279.5 386.301 280.3 383.301 281.1C375.201 283.3 367.001 285 358.701 286.4C347.401 288.3 335.901 289.3 324.501 289.5C311.601 289.8 298.801 288.6 286.201 286C273.101 283.3 260.601 278.2 249.201 271.1C247.801 270.2 246.301 269.2 244.901 268.2C244.001 267.6 243.201 268.2 243.201 269.2C243.301 270.4 243.901 271.6 244.901 272.3C256.101 280.2 268.701 285.9 282.001 289.3C294.801 292.5 307.901 294.1 321.001 294.2C332.801 294.3 344.701 293.4 356.401 291.7C365.301 290.4 374.101 288.6 382.801 286.4C385.501 285.7 388.301 284.9 391.001 284.1C392.301 283.8 393.501 283.4 394.701 283C394.801 283 394.801 283 394.901 282.9C395.701 282.6 395.301 281.1 395.101 280.7C393.801 277.2 392.301 273.7 390.801 270.2C387.101 261.5 383.201 252.9 379.001 244.3C373.701 233.4 368.001 222.7 361.701 212.4C355.501 201.9 348.401 192 340.401 182.8C333.601 175.2 325.701 167.8 316.101 163.8C312.301 162.1 308.101 161.3 303.901 161.4C299.201 161.6 294.601 162.9 290.501 165.1C281.101 170 274.001 178.7 268.601 187.7C262.501 197.8 258.001 208.9 254.301 220.2C251.001 230.3 248.301 240.6 246.201 251.1C245.001 256.8 244.001 262.5 243.201 268.3C243.201 268.6 243.101 268.8 243.101 269.1C243.001 270.3 243.401 271.5 244.301 272.3C245.201 272.4 246.601 273 246.701 271.8Z" fill="#000005"/>
<path d="M326.6 140.899C326.6 140.899 348.1 142.199 350.4 133.199C352.7 124.199 339.5 128.099 339.5 128.099C339.5 128.099 352.7 108.599 331 108.299C331 108.299 347 92.6993 331.4 82.2993C315.8 71.8993 289 83.5993 289 83.5993C289 83.5993 287.2 64.4993 265.8 69.8993C244.4 75.2993 251.2 85.8993 251.2 85.8993C251.2 85.8993 237.4 89.1993 237.9 95.6993C238.4 102.199 249.2 103.399 249.2 103.399C249.2 103.399 255.6 121.499 274.2 116.199L295.6 137.099C295.6 137.099 290.2 146.499 298.5 154.299C306.8 162.099 329.2 152.899 326.6 140.899Z" fill="#000005"/>
<path d="M324.799 142.1C330.699 142.5 336.999 142.1 342.599 140.1C346.099 138.9 350.699 136.7 352.199 133C352.799 131.5 353.099 129.4 352.099 128C351.199 126.9 349.999 126.3 348.599 126.2C345.899 125.9 343.299 126.2 340.699 127L341.399 127.1C344.499 122.5 348.099 113.9 342.599 109.7C339.799 107.6 336.099 107.2 332.799 107.2V107.6C338.799 101.7 343.399 91.4997 336.899 84.2997C332.299 79.1997 325.299 77.1997 318.699 76.8997C312.399 76.6997 306.199 77.4997 300.099 79.1997C296.599 80.0997 293.099 81.2997 289.699 82.6997L290.899 82.4997C290.299 76.5997 286.399 70.7997 280.699 68.7997C274.199 66.4997 266.599 68.4997 260.499 70.8997C255.899 72.6997 249.699 75.7997 248.299 80.9997C247.699 82.9997 247.899 85.2997 248.999 87.0997L252.599 84.7997C248.099 85.7997 243.799 87.6997 239.999 90.3997C237.999 91.7997 235.799 93.6997 235.699 96.2997C235.599 98.8997 237.499 101.1 239.699 102.4C241.699 103.5 243.899 104.2 246.099 104.6C246.399 104.6 246.599 104.7 246.899 104.7C247.199 104.7 247.099 104.8 246.999 104.7C247.099 104.9 247.199 105.2 247.299 105.4C248.699 108.7 250.899 111.7 253.699 114.1C259.199 118.7 266.099 119.3 272.799 117.5H271.999L292.999 138C293.099 138.1 293.299 138.2 293.399 138.4C293.499 138.6 293.499 138.2 293.399 138.5C293.199 139.5 292.599 140.4 292.299 141.4C291.199 145.3 291.799 149.6 293.999 153C295.999 156.1 299.299 158.2 302.899 158.5C306.599 158.8 310.199 158.2 313.599 156.9C320.399 154.4 330.299 148.5 328.499 139.9C328.599 139.6 324.399 141 324.799 142.1C325.299 145.3 324.199 148.7 321.799 151C319.699 153.3 316.899 154.9 313.799 155.6C310.399 156.6 306.899 156.5 303.499 155.4C299.399 153.8 296.499 149.3 295.999 145.1C295.599 142.1 296.199 139.1 297.599 136.4V136.3L279.999 119L276.599 115.7C276.499 115.6 276.299 115.3 276.099 115.2C275.499 114.9 274.199 115.5 273.599 115.7C272.699 115.9 271.799 116 270.799 116.1C265.199 116.5 259.799 114.4 255.999 110.2C253.799 108 252.199 105.3 251.099 102.4L250.999 102.3C247.499 101.9 243.199 100.7 240.999 97.6997C239.499 95.7997 239.499 93.1997 240.899 91.2997C241.499 90.5997 242.199 89.8997 243.099 89.4997L243.499 89.2997L243.599 89.1997L243.999 88.9997C244.499 88.7997 244.799 88.6997 245.399 88.3997C246.399 87.9997 247.299 87.6997 248.399 87.3997L249.399 87.0997C249.899 86.9997 249.199 87.0997 249.499 87.0997C249.899 86.9997 253.599 85.4997 253.099 84.7997C252.299 83.4997 251.999 81.9997 252.099 80.4997C252.299 76.6997 255.399 74.1997 258.399 72.8997C263.999 70.4997 270.999 68.9997 276.899 71.0997C280.499 72.4997 283.399 75.1997 284.999 78.5997C285.999 80.4997 286.599 82.4997 286.799 84.6997C286.799 84.9997 287.899 84.4997 287.999 84.4997C288.699 84.1997 289.399 83.8997 290.099 83.5997L290.899 83.2997L292.299 82.7997C293.399 82.3997 294.399 82.0997 295.499 81.7997C301.099 80.0997 306.899 79.1997 312.699 79.0997C319.199 79.0997 325.999 80.4997 331.099 84.7997C333.499 86.6997 335.199 89.3997 335.899 92.3997C336.299 94.8997 335.999 97.5997 334.999 99.9997C333.699 103.4 331.599 106.5 328.999 109.1C328.999 109.2 328.699 109.5 328.999 109.5C333.799 109.6 340.199 110.7 341.199 116.3C341.899 119.8 340.399 123.6 338.799 126.7C338.399 127.5 337.899 128.3 337.399 129.1C337.199 129.5 338.099 129.2 338.099 129.2H338.199H338.299C338.699 129.1 339.199 129 339.599 128.9C340.799 128.7 342.099 128.5 343.299 128.5C346.099 128.5 348.699 129.6 348.499 132.8C348.399 134.3 347.799 135.7 346.799 136.8C346.599 137 346.399 137.2 346.199 137.3C345.999 137.5 346.199 137.3 345.999 137.5L345.599 137.7C345.199 137.9 344.899 138 344.499 138.1C341.299 139.1 337.899 139.6 334.499 139.7C332.499 139.8 330.399 139.8 328.399 139.7C327.399 139.8 326.499 140.2 325.799 140.8C325.699 140.9 324.299 142.1 324.799 142.1Z" fill="#000005"/>
<path d="M253.1 166.2C239.4 151.2 251 106.5 251 106.5C266.399 108 289.1 90.5 289.1 90.5C283.2 105.3 299 129.9 299 129.9C303.9 116.6 317.6 115.8 317.5 128.5C317.4 141.2 305.399 143.4 305.399 143.4C305.399 143.4 311.6 164.6 310.7 169.7C309.8 174.8 284.8 201.3 275.1 177.4C275.1 177.4 265.1 179.3 253.1 166.2Z" fill="white"/>
<path d="M255.099 166.499C252.199 163.299 250.699 159.199 249.899 154.999C248.899 149.999 248.499 144.999 248.699 139.899C248.999 130.799 250.099 121.799 251.999 112.899C252.399 110.999 252.799 109.199 253.299 107.299L252.499 107.599C259.299 108.199 266.199 105.799 272.299 102.899C277.899 100.299 283.199 97.1992 288.199 93.5992C289.199 92.8992 290.199 92.1992 291.199 91.3992L287.099 89.5992C284.599 95.8992 285.899 103.199 287.899 109.599C289.699 115.399 292.199 120.899 295.199 126.199C295.799 127.299 296.499 128.399 297.199 129.599C297.599 130.199 300.899 131.799 301.299 130.699C302.699 126.999 305.099 123.299 308.799 121.499C309.999 120.899 311.299 120.599 312.599 120.599C313.099 120.699 312.699 120.599 312.699 120.599C312.699 120.599 312.699 120.599 312.899 120.699C312.799 120.699 312.599 120.499 312.899 120.699C313.299 121.099 313.699 121.499 314.099 121.999C316.199 125.199 315.799 129.899 314.599 133.299C313.499 136.399 311.299 138.899 308.499 140.499C307.099 141.399 305.499 141.999 303.899 142.399C303.699 142.399 303.399 142.599 303.499 142.899C304.599 146.599 305.599 150.399 306.499 154.199C307.199 157.099 307.899 159.999 308.399 162.999C308.699 164.899 309.299 167.199 308.899 169.199C308.499 170.499 307.799 171.699 306.899 172.799C305.599 174.599 304.099 176.299 302.399 177.799C298.799 181.299 294.299 184.599 289.399 185.899C288.099 186.299 286.799 186.399 285.499 186.399C285.299 186.399 285.099 186.399 284.799 186.299L284.399 186.199H284.199L283.799 186.099C284.299 186.199 283.599 185.999 283.599 185.999C283.599 185.999 283.099 185.699 283.299 185.799C280.699 184.299 278.799 181.099 277.499 178.199C276.999 177.099 274.699 176.399 273.599 176.599L273.199 176.699C272.799 176.699 273.499 176.699 272.999 176.699C272.799 176.699 272.599 176.699 272.299 176.699C271.099 176.699 269.899 176.499 268.699 176.099C266.699 175.499 264.799 174.599 263.099 173.399C260.099 171.399 257.399 169.099 255.099 166.499C254.299 165.799 253.299 165.299 252.199 165.099C251.799 165.099 250.299 165.099 251.099 165.799C255.899 171.099 261.699 175.399 268.699 177.499C271.299 178.399 274.099 178.699 276.899 178.399L272.999 176.799C274.199 179.999 276.199 182.899 278.899 185.099C281.499 186.999 284.499 188.099 287.699 188.299C293.199 188.599 298.499 185.699 302.699 182.399C306.299 179.599 309.999 176.099 312.199 172.099C312.899 170.699 313.099 169.099 312.799 167.599C312.499 164.699 311.999 161.799 311.299 158.899C310.199 153.899 308.899 148.899 307.499 143.999L307.099 144.499C312.599 143.499 316.999 139.599 318.899 134.399C320.099 130.499 320.199 125.299 317.399 122.099C314.699 119.099 310.499 117.899 306.599 118.899C301.699 120.299 298.499 124.699 296.699 129.299L300.899 130.399C299.099 127.499 297.499 124.499 295.999 121.399C293.099 115.399 290.699 108.999 289.999 102.299C289.499 98.5992 289.899 94.8992 291.099 91.3992C291.499 90.2992 287.599 89.0992 286.899 89.5992C284.199 91.6992 281.299 93.5992 278.399 95.3992C272.799 99.0992 266.699 101.999 260.299 104.099C256.799 105.299 253.199 105.799 249.499 105.499C249.299 105.499 248.699 105.499 248.699 105.799C247.399 111.099 246.299 116.499 245.599 121.999C244.199 131.999 243.299 142.499 245.099 152.499C245.999 157.399 247.599 162.299 250.999 165.999C251.799 166.799 252.799 167.199 253.899 167.399C254.399 167.299 255.899 167.299 255.099 166.499Z" fill="#000005"/>
<path d="M270.1 127.2C270.4 128.4 269.6 129.5 268.4 129.8C268.3 129.8 268.2 129.8 268.1 129.8C265.7 130 265.5 127 267.5 126.2C268.4 125.7 269.5 126 270 126.9C270.1 127 270.1 127.1 270.1 127.2Z" fill="#000005"/>
<path d="M256.3 128.099C256.5 129.299 255.8 130.399 254.7 130.699C254.6 130.699 254.5 130.699 254.3 130.699C251.9 130.899 251.7 127.899 253.7 127.099C254.6 126.599 255.7 126.899 256.2 127.799C256.2 127.899 256.3 127.999 256.3 128.099Z" fill="#000005"/>
<path d="M270.1 153.2C270.1 153.2 245.8 171.4 233.6 160.3C221.4 149.2 236.8 132.3 257.9 135.7" fill="white"/>
<path d="M268.202 152C265.802 153.8 263.302 155.3 260.602 156.8C255.602 159.5 250.102 161.9 244.402 162.5C241.602 162.9 238.802 162.6 236.202 161.7C236.002 161.6 235.102 161.1 235.502 161.4C235.102 161 234.702 160.7 234.302 160.2C233.302 159.2 232.602 158 232.002 156.7C229.802 151.5 232.502 146 236.602 142.6C242.902 137.2 251.702 135.8 259.702 137C260.102 137.1 258.702 135.9 258.602 135.8C257.902 135.2 257.002 134.7 256.102 134.4C248.502 133.2 240.102 134.4 233.802 139.1C229.202 142.5 225.902 148.2 228.002 153.9C229.102 157 231.702 159.5 234.302 161.4C237.002 163.4 240.202 164.7 243.502 165.1C249.602 165.7 255.902 163.5 261.302 160.9C265.102 159.1 268.602 157 272.002 154.6C272.202 154.5 270.402 153.2 270.202 153.1C270.002 153 268.602 151.7 268.202 152Z" fill="#000005"/>
<path d="M310.6 301.7C295.5 297.4 266.2 288.7 266.2 288.7C262 294 257 298.6 251.4 302.4C239.3 310.8 232.6 302.6 240.1 297C247.9 291.2 247.8 285.6 247.8 285.6C247.8 285.6 223.4 295.7 219.6 288.6C215.8 281.5 227.9 278.5 227.9 278.5C227.9 278.5 224.8 281.6 219.2 277.9C213.6 274.2 219.2 269.9 219.2 269.9C225 264.4 238.2 261 243.7 257.8C249.2 254.6 232.6 241.6 238.2 237.3C246.3 231.1 254.9 246.6 260.2 251.7L265.9 255.5C265.9 255.5 379 242.5 393.8 280.6C393.9 280.6 408 329.5 310.6 301.7Z" fill="white"/>
<path d="M311.5 300.199C297.9 296.299 284.4 292.299 270.9 288.299L267.101 287.199C266.101 286.799 265 287.199 264.4 287.999C264.1 288.399 264.6 287.699 264.3 288.099C264 288.499 263.601 288.999 263.201 289.399C262.001 290.799 260.8 292.099 259.5 293.399C257.5 295.299 255.4 297.199 253.2 298.899C251 300.799 248.4 302.399 245.7 303.599C244.1 304.299 242.301 304.499 240.601 304.199C239.701 303.999 238.901 303.299 238.801 302.299C238.801 300.999 239.401 299.799 240.301 298.999C241.201 298.099 242.3 297.399 243.2 296.599C244.3 295.699 245.201 294.599 246.101 293.499C247.901 291.299 249.5 288.399 249.5 285.499C249.5 284.299 247.801 283.699 246.801 284.099C241.901 286.199 236.801 287.799 231.601 288.799C229.901 289.199 228.101 289.399 226.301 289.499C225.601 289.499 225.001 289.499 224.301 289.499C223.701 289.499 223.1 289.299 222.5 289.099C222.4 289.099 221.701 288.699 222.101 288.899C222.001 288.799 221.301 288.299 221.601 288.599C221.101 288.199 220.8 287.599 220.7 286.999C220.4 285.699 220.801 284.399 221.801 283.599C222.901 282.599 224.3 281.699 225.7 281.199C226.6 280.799 227.401 280.499 228.301 280.299L226.101 277.699C226.001 277.799 225.7 277.999 226.2 277.599C226 277.699 225.9 277.799 225.7 277.899C225.2 278.099 224.7 278.299 224.2 278.299C222.3 278.299 219.001 276.799 218.601 274.799C218.301 273.399 219.401 272.299 220.301 271.399C220.401 271.299 220.8 270.799 220.2 271.499C220.6 271.099 221 270.799 221.4 270.499C222.3 269.799 223.3 269.099 224.4 268.499C228.7 266.199 233.2 264.199 237.9 262.499C239.9 261.699 242 260.899 244 259.899C245.3 259.399 246.401 258.299 246.801 256.899C247.401 254.099 245.1 250.999 243.7 248.899C242.1 246.399 239.9 243.799 239.2 240.799C239.2 240.399 239.101 239.999 239.101 239.699C239.101 239.599 239.2 239.499 239.2 239.399C239.3 238.999 239.001 239.699 239.301 239.299C239.301 239.299 239.6 238.899 239.4 239.099C239.2 239.299 239.6 238.899 239.7 238.799C240.7 237.999 242.1 237.699 243.4 237.999C247.1 238.999 250.001 242.699 252.301 245.499C253.701 247.099 255 248.799 256.4 250.499C257.3 251.599 258.3 252.699 259.4 253.599L263.4 256.199C264.2 256.899 265.101 257.299 266.201 257.399C267.901 257.299 269.7 256.999 271.4 256.899C281.7 255.999 292.1 255.499 302.5 255.299C316.9 254.999 331.2 255.699 345.4 257.599C357.9 259.399 371.3 262.199 381.8 269.299C386 271.999 389.401 275.799 391.601 280.299C391.801 280.699 391.901 281.099 392.101 281.499C392.301 281.899 392.001 280.999 392.101 281.399C392.201 281.799 392.3 282.399 392.4 282.999C392.7 284.799 392.801 286.699 392.701 288.499C392.701 288.599 392.701 289.099 392.701 288.699C392.701 288.299 392.701 288.899 392.701 288.899C392.701 289.199 392.601 289.499 392.601 289.799C392.501 290.399 392.4 290.999 392.3 291.599C392.2 292.199 392 292.899 391.8 293.499L391.501 294.399C391.401 294.599 391.4 294.699 391.3 294.899C391.4 294.499 391.301 294.899 391.201 295.099C390.601 296.399 389.901 297.599 389.101 298.799C389.001 298.999 388.701 299.299 389.001 298.899L388.601 299.399C388.301 299.699 388.1 299.999 387.8 300.299C387.2 300.899 386.6 301.499 385.9 301.999L385.4 302.399C385.8 301.999 385.301 302.499 385.201 302.499C384.801 302.799 384.4 303.099 383.9 303.399C383.1 303.899 382.2 304.399 381.4 304.799L380.701 305.099C380.401 305.199 380.7 305.099 380.8 305.099L380.4 305.299C379.9 305.499 379.4 305.699 378.8 305.899C377.7 306.299 376.5 306.699 375.3 306.999C374.7 307.099 374.101 307.299 373.501 307.399L373.001 307.499C372.401 307.599 373.4 307.399 372.8 307.499L371.701 307.699C370.201 307.899 368.701 308.099 367.201 308.299C363.901 308.599 360.501 308.699 357.201 308.499C347.701 307.999 338.2 306.699 328.9 304.499C323.1 303.199 317.301 301.699 311.601 300.099C310.601 299.699 309.5 300.099 308.9 300.899C308.5 301.699 308.8 302.599 309.5 302.999C309.6 302.999 309.7 303.099 309.8 303.099C325.3 307.499 341.3 311.299 357.4 311.799C366.3 312.099 375.7 311.399 383.8 307.299C388.7 304.999 392.6 300.999 394.8 296.099C396.3 292.499 396.901 288.599 396.701 284.699C396.601 282.399 396.101 280.199 395.101 278.099C391.201 270.299 383.6 265.199 375.8 261.699C366.1 257.399 355.401 255.299 345.001 253.799C333.601 252.299 322.2 251.599 310.8 251.599C301.2 251.499 291.6 251.799 282 252.399C276.9 252.699 271.8 253.099 266.8 253.599L266.101 253.699L267.601 254.099L264 251.999L262.101 250.699L261.601 250.399C261.501 250.299 261.401 250.199 261.701 250.499C261.501 250.299 261.301 250.099 261.101 249.899C258.101 246.699 255.7 243.099 252.7 239.999C249.8 237.099 246.101 233.899 241.801 234.199C238.401 234.399 234.6 236.799 235.2 240.599C235.7 243.899 238.001 246.899 239.801 249.599C240.701 250.899 241.5 252.199 242.2 253.599C242.4 253.899 242.501 254.299 242.601 254.599C242.701 254.699 242.801 255.399 242.801 255.099C242.801 255.299 242.9 255.599 242.9 255.799C242.9 255.899 242.9 256.299 242.9 255.899C242.9 256.099 242.801 256.199 242.801 256.399C242.901 256.299 242.801 255.999 242.801 256.399C243.101 256.099 242.701 256.499 242.801 256.399C243.201 256.199 242.501 256.699 242.801 256.399C242.601 256.499 242.501 256.599 242.301 256.699C241.501 257.099 240.7 257.499 239.9 257.799C237.6 258.799 235.3 259.699 232.9 260.599C228.1 262.499 223.101 264.499 219.101 267.699L218.4 268.199L218 268.599C218.2 268.499 218.2 268.499 218 268.599C217.8 268.699 217.6 268.899 217.4 269.099C216.7 269.699 216.2 270.399 215.7 271.099C214.2 273.299 214.601 276.199 216.601 277.999C219.701 280.999 225.9 282.999 229.5 279.499C231.1 277.999 228.901 276.499 227.301 276.899C224.601 277.599 222.1 278.799 219.9 280.499C216.8 282.999 215.7 287.499 218.7 290.499C221.3 293.099 225.7 292.999 229 292.599C233.2 291.999 237.4 291.099 241.4 289.699C243.8 288.899 246.2 288.099 248.5 287.099L245.801 285.699C245.801 286.099 245.901 285.299 245.801 285.899C245.701 286.499 245.6 287.099 245.4 287.699C244.7 289.599 243.601 291.299 242.301 292.699C239.601 295.599 234.1 298.299 235.2 303.099C236.1 307.499 241.4 308.099 245 307.299C247.9 306.599 250.701 305.299 253.101 303.399C255.701 301.599 258.201 299.499 260.601 297.399C263.401 294.999 265.901 292.299 268.201 289.299L265.5 290.099C276.5 293.299 287.4 296.499 298.4 299.699C302.3 300.799 306.1 301.899 310 302.999C311 303.399 312.101 302.999 312.701 302.199C313.101 301.399 312.7 300.499 311.9 300.099C311.6 300.199 311.6 300.199 311.5 300.199Z" fill="#000005"/>
<path d="M229.301 280.4C235.101 278.7 240.901 276.6 246.501 274.3C246.701 274.2 245.101 273 245.001 272.9C244.601 272.7 243.601 271.9 243.101 272.1C237.501 274.4 231.901 276.5 226.101 278.2C225.701 278.3 226.901 279.2 227.101 279.3C227.501 279.6 228.001 279.9 228.401 280.1C228.701 280.2 229.101 280.5 229.301 280.4Z" fill="#000005"/>
<path d="M114.4 302.599C112.6 300.199 111.1 297.499 109.9 294.799C107.8 290.199 106.2 284.699 107.7 279.799C108.1 278.499 108.7 277.399 109.5 276.399C109.9 275.899 110.4 275.399 110.9 274.899C111.1 274.699 111.2 274.599 111.4 274.399L111.8 274.099C112.5 273.599 111.4 274.299 111.9 274.099L111.4 274.399C110.7 274.799 109.9 274.999 109.2 275.399C110 275.099 106.1 276.499 107.2 276.199L107.8 275.999C109.7 275.399 111.5 274.699 113.3 273.999C116.3 272.799 119.2 271.499 122 269.899C128.4 266.199 132.9 260.899 136.6 254.599C139.8 249.099 142.4 243.099 146.2 237.999C147.1 236.799 148 235.699 149.1 234.599C150 233.699 150.9 232.899 152 232.199C152.6 231.699 151.9 232.299 151.8 232.299C152 232.199 152.5 231.899 151.7 232.399C150.9 232.899 151.4 232.499 151.6 232.499C150.3 233.099 149.1 233.699 147.7 234.099C147.3 234.199 145.1 234.599 144.9 234.999C144.9 234.899 146.1 234.799 145.3 234.899C146.4 234.799 147.6 234.799 148.7 235.099C154 236.099 158.5 240.099 162.4 243.599C167.5 248.099 172.2 252.999 177.4 257.299C182.3 261.399 187.8 265.199 194.2 266.699C197.9 267.599 201.6 267.199 205.4 266.799C209.8 266.299 214.2 265.499 218.5 264.299C220 263.899 221.5 263.499 223 263.099C223.6 262.899 224.2 262.699 224.8 262.599L225.7 262.399C224.8 262.599 225.3 262.499 225.8 262.399C226.3 262.299 226.9 262.199 227.4 262.099C227.7 261.999 227.3 262.099 227.3 262.099H227.8C228.1 262.099 228.4 262.099 228.7 262.099C229.9 262.099 231.2 262.199 232.3 262.399C235.2 263.099 237.9 264.299 240.5 265.799C243.1 267.099 245.7 268.399 248.3 269.799C261.3 276.499 274.5 284.399 283.3 296.299C285.6 299.399 287.5 302.699 289 306.299C290.3 309.799 291.3 313.299 292.1 316.899C293.9 324.099 295.7 331.299 298.1 338.399C302.1 350.299 308.3 363.999 321.3 367.999C328.6 370.199 335.8 367.699 343.2 367.899C351.6 368.099 359.9 370.199 368 372.399C375.8 374.599 383.5 377.099 391.5 378.299C394.9 378.899 398.4 378.999 401.8 378.699C407.4 377.899 412.8 376.299 417.8 373.799C422 371.899 426 369.599 429.2 366.099C431.9 363.099 434.1 359.699 435.8 356.099C438.9 349.399 439.6 341.999 439.8 334.599C440 325.999 439.9 317.499 441 308.999C442.2 299.999 445.4 291.399 443.6 282.299C442.5 275.799 438.8 269.999 433.4 266.299C428 262.899 421.7 261.599 415.4 262.399C413.4 262.599 411.4 263.099 409.4 263.599C408.3 263.899 407.1 264.299 406 264.599C405.1 264.899 404.3 265.199 403.4 265.499L402.9 265.699L401 266.399C400.5 266.599 400.5 266.599 401.1 266.399L402.4 265.899C402.4 265.899 403.4 265.599 402.8 265.799C402.7 265.799 401.8 265.999 402.3 265.899C402.8 265.799 402.1 265.899 402 265.899C401.2 266.099 400.3 266.199 399.5 266.199C397.7 266.299 395.8 266.199 394 265.899C387.2 264.899 381 261.399 374.3 259.999C370.9 259.199 367.4 259.199 364 259.999C360.1 260.999 356.3 262.299 352.6 263.999C349.9 265.099 347.3 266.499 344.8 268.099C339.6 271.699 336.2 277.099 333.5 282.699C330.7 288.599 328.6 294.699 326.1 300.699C325 303.399 323.8 305.999 322.3 308.499C321.6 309.599 320.9 310.599 320.1 311.599C319.8 311.999 319.4 312.399 319 312.799L318.5 313.299C318 313.799 318.8 313.199 318.2 313.499C317.6 313.799 317.7 313.799 318.3 313.499C320.4 312.399 322.7 311.399 325 310.699C325.6 310.499 326.1 310.299 326.7 310.199L326.4 310.299H326.1C326.5 310.199 326.4 310.299 326.1 310.299C324.9 310.299 323.7 310.199 322.5 309.899C318.9 309.099 315.2 308.699 311.4 308.799C301.2 308.999 291.2 312.499 282.1 316.899C274.4 320.599 267.5 325.699 263.1 333.099C260.1 338.199 259.1 344.299 255.5 349.099C254.9 349.899 254.3 350.599 253.6 351.199C253.3 351.499 253 351.799 252.6 352.099C253.3 351.599 252.7 351.999 252.5 352.099C251.7 352.599 252.7 351.999 252.7 351.999L252.4 352.099C253.1 351.699 253.9 351.299 254.7 350.999C254.4 351.099 253.9 351.299 255.3 350.799C256 350.499 256.8 350.199 257.5 349.899C258.5 349.499 258.9 349.399 259.6 349.199C258.7 349.499 260.5 349.099 259.8 349.099C259.6 349.099 259.3 349.199 259.1 349.199C258.9 349.199 258.3 349.299 258.9 349.199C258.4 349.299 257.8 349.299 257.3 349.299C251.5 349.499 245.7 347.999 240.2 346.499C231.5 344.099 223 341.299 214.5 338.499C213.8 338.299 211.6 339.099 211.1 339.299C209.3 339.899 207.5 340.599 205.7 341.399C204.3 341.999 203 342.699 201.7 343.499C201.4 343.699 200.5 344.199 201.3 344.399C210.1 347.199 218.9 350.199 227.8 352.599C233.2 353.999 238.9 355.499 244.5 355.199C247.9 354.899 251.3 354.099 254.5 352.799C258.7 351.299 263.1 349.499 266.6 346.599C270.1 343.699 272 339.299 273.6 335.099C276.2 327.699 280.5 321.199 287.1 316.799C287.4 316.599 287.8 316.299 288.1 316.099C288.4 315.899 289.4 315.299 288.7 315.799L289.5 315.399L289.9 315.199L289 315.599C289.3 315.499 289.5 315.399 289.8 315.299C289.9 315.199 288.1 315.999 288.9 315.699C289.7 315.399 287.9 316.099 288 316.099C288.3 315.999 288.5 315.899 288.8 315.799C288.8 315.799 287.4 316.399 288.1 316.099C288.3 315.999 288.5 315.899 288.7 315.899C288.6 315.899 287.4 316.299 288.4 315.999L289.2 315.799L289.4 315.699L289.8 315.599L291 315.399C292 315.199 293 314.999 294 314.899C295.7 314.699 297.4 314.599 299.1 314.599C302.7 314.599 306.4 314.999 309.9 315.799C313.7 316.599 317.2 315.499 320.8 314.199C325.1 312.599 329.9 310.799 333.2 307.399C334.9 305.599 336.3 303.499 337.4 301.199C343.2 290.199 345.4 276.799 353.9 267.299C354.8 266.299 355.8 265.299 356.9 264.399L357.6 263.899C357.7 263.799 358.4 263.399 357.9 263.699C358.2 263.599 358.4 263.399 358.7 263.299C358.1 263.599 357.6 263.899 357 264.099C356.2 264.399 355.5 264.699 354.8 264.999C354.6 265.099 352.8 265.699 353.3 265.499C353.8 265.299 353.2 265.499 353.1 265.599L353.7 265.499L354.6 265.399C355.4 265.299 356.3 265.299 357.1 265.299C358.8 265.399 360.4 265.599 362 265.999C368.6 267.499 374.8 270.899 381.6 271.799C385.8 272.299 390.1 271.899 394.1 270.699C395.8 270.199 397.6 269.599 399.2 268.999C399.8 268.799 403.4 267.399 400.6 268.499C401.6 268.099 399.1 268.999 400.5 268.499C401.1 268.299 399.9 268.699 399.9 268.699C400.1 268.699 400.4 268.599 400.6 268.499C401.5 268.299 400 268.599 400.9 268.399C401.8 268.199 402.7 267.999 403.4 267.999C409.5 267.199 415.7 268.699 420.8 272.299C426.2 276.299 429.7 282.399 430.5 288.999C431.9 298.199 428.6 306.999 427.5 316.099C426.5 324.499 426.7 332.999 426.4 341.399C426.2 348.699 425.3 356.099 421.9 362.699C420.1 366.299 417.7 369.599 414.8 372.499C414.4 372.899 413.6 373.599 413.4 373.799C413.2 373.999 412.7 374.299 412.4 374.499C411.5 375.099 412.8 374.299 412.1 374.699C413.3 374.099 414.5 373.599 415.7 373.099C416.2 372.899 416.8 372.699 417.4 372.499C417.1 372.599 416.3 372.799 417.9 372.399C417 372.599 418.6 372.299 417.7 372.399C417.2 372.499 416.8 372.599 416.3 372.599C409.7 373.699 402 371.799 395.3 370.099C387.1 367.999 379.1 365.299 370.8 363.599C366.7 362.699 362.6 362.099 358.4 361.899C354.2 361.799 349.9 362.099 345.8 362.799C339.6 363.699 333.3 362.099 328.2 358.399C323 354.499 319.5 348.799 316.7 342.999C313.7 336.399 311.4 329.499 309.6 322.399C308.6 318.899 307.7 315.299 306.9 311.799C306.1 308.099 305.1 304.499 303.8 300.999C298.1 286.599 285.1 276.699 272.2 269.099C266.8 265.899 261.2 263.099 255.6 260.299C253 258.799 250.2 257.599 247.4 256.799C244.9 256.199 242.2 256.099 239.6 256.599C236.7 257.099 233.9 257.899 231.1 258.699L228.9 259.299L228 259.499C228.5 259.399 227.9 259.499 227.8 259.499L226.8 259.699C224.8 260.199 222.8 260.499 220.8 260.799C216.9 261.299 212.9 261.799 209 261.099C206 260.499 203.1 259.399 200.4 257.799C188.9 251.299 181.2 239.999 170.4 232.799C168.3 231.299 166 230.199 163.5 229.499C160.8 228.899 158 228.999 155.4 229.899C146.5 232.399 138 236.499 132.6 244.199C129 249.499 126.4 255.499 123 260.999C121.3 263.899 119.3 266.599 117 269.099C116 270.199 114.8 271.199 113.6 272.099C113.3 272.399 112.9 272.599 112.5 272.799C112.3 272.899 112.2 272.999 112 273.099C112.7 272.899 112.2 272.999 112 273.099C113 272.699 111 273.399 112 273.099C112.5 272.899 113 272.699 113.5 272.399C114.2 272.099 114.2 272.099 113.7 272.299L114.8 271.899C114.8 271.899 116.2 271.499 115.5 271.599C115.3 271.599 115.1 271.699 114.9 271.799C114.2 271.999 113.5 272.299 112.8 272.499C110.6 273.299 108.5 274.099 106.4 275.099C103.8 276.199 101.3 277.599 99.0001 279.199C96.7001 280.899 95.1001 283.299 94.3001 285.999C92.9001 290.999 94.7001 296.499 96.8001 301.099C98.0001 303.699 99.4001 306.099 101 308.399C101.3 308.799 103.2 308.199 103.3 308.099C105 307.599 106.7 306.999 108.3 306.299C108.8 306.099 115.3 303.199 114.9 302.699H114.4V302.599Z" fill="#68BA7F"/>
<path d="M173.402 233.2C173.402 233.2 175.102 241.4 170.302 245.3C165.502 249.2 163.002 261.3 177.102 258C191.202 254.7 194.802 231.7 184.202 221" fill="white"/>
<path d="M171.702 231.499C172.102 233.599 172.102 235.699 171.802 237.699C171.502 239.399 170.802 240.999 169.802 242.299C169.002 243.299 168.002 243.999 167.202 244.899C165.902 246.599 165.102 248.599 164.902 250.699C164.602 253.499 166.102 255.599 168.002 257.599C169.902 259.699 172.602 260.699 175.402 260.399C178.602 260.199 181.702 259.099 184.302 257.199C189.202 253.399 191.502 247.099 191.902 241.199C192.502 233.399 189.602 225.699 184.002 220.199C183.802 219.999 182.702 218.799 182.502 219.199C182.302 219.599 184.102 221.399 184.402 221.699C184.602 221.899 184.802 222.199 185.002 222.499C185.402 222.999 185.702 223.499 186.002 224.099C186.702 225.299 187.202 226.599 187.602 227.999C188.402 230.799 188.802 233.699 188.702 236.599C188.502 242.099 186.702 247.899 182.802 251.999C181.002 253.899 178.702 255.299 176.202 256.099C173.702 256.799 170.302 257.399 167.802 256.199C167.702 256.099 167.602 256.099 167.402 255.999C168.002 256.399 168.402 256.999 168.802 257.599C168.802 257.499 168.502 256.799 168.402 256.599C168.202 255.699 168.202 254.799 168.402 253.999C168.702 252.099 169.502 250.299 170.702 248.799C171.502 247.799 172.602 247.099 173.302 246.099C174.302 244.699 175.002 242.999 175.202 241.299C175.502 239.299 175.502 237.199 175.102 235.199C174.702 234.199 174.102 233.399 173.202 232.699C173.202 232.299 171.702 230.999 171.702 231.499Z" fill="#000005"/>
<path d="M283.299 143C283.799 144.4 283.799 145.9 283.299 147.3C283.099 148 282.799 148.6 282.399 149.1L282.099 149.5C282.199 149.4 281.899 149.8 282.099 149.5L281.899 149.7C281.799 149.8 281.299 150.1 281.799 149.8C281.599 149.9 281.499 150 281.299 150.1C280.899 150.3 279.999 151.3 280.999 151.4C282.099 151.4 283.099 151 283.999 150.3C286.999 148.3 288.799 144.5 287.499 140.9C287.399 140.6 286.799 140.7 286.699 140.7C286.199 140.8 285.599 140.9 285.099 141.2C284.599 141.4 284.099 141.7 283.699 142.1C283.499 142.4 283.199 142.7 283.299 143Z" fill="#000005"/>
<path d="M195.398 381.801C195.398 381.801 294.198 395.801 293.298 403.001C292.398 410.201 227.098 430.201 227.098 430.201L195.398 381.801Z" fill="white"/>
<path d="M194.597 382.901C202.897 384.101 211.097 385.301 219.397 386.701C234.897 389.201 250.397 391.801 265.697 395.101C271.797 396.401 277.897 397.801 283.697 399.601C285.697 400.201 287.597 400.901 289.397 401.701L289.697 401.801C289.997 401.901 289.397 401.601 289.697 401.801L290.097 402.001C290.297 402.101 290.597 402.301 290.797 402.501C290.897 402.601 290.997 402.701 291.097 402.701C291.197 402.801 291.197 402.801 291.297 402.901C291.497 403.201 291.197 402.801 291.297 402.901C291.297 403.001 291.297 403.001 291.297 403.101C291.397 402.801 291.197 403.301 291.297 403.101C291.297 403.201 291.197 403.301 291.197 403.401C291.097 403.601 291.397 403.201 291.097 403.601L290.797 404.001C290.697 404.101 290.297 404.501 290.597 404.201C290.297 404.501 289.897 404.801 289.497 405.101C287.497 406.501 285.497 407.701 283.297 408.601C276.497 411.801 269.597 414.601 262.597 417.101C250.897 421.401 238.997 425.301 227.097 429.001L226.497 429.201L229.097 429.601L218.297 413.201L201.197 387.201L197.297 381.201C196.497 380.001 192.697 380.901 193.497 382.301L204.297 398.701L221.397 424.701L225.297 430.701C225.797 431.401 227.197 431.301 227.897 431.101C238.397 427.901 248.797 424.401 259.197 420.701C266.797 418.001 274.397 415.201 281.797 411.901C284.597 410.701 287.397 409.401 290.097 407.901C291.797 406.901 293.797 405.801 294.897 404.101C296.897 401.201 292.397 399.601 290.397 398.801C285.097 396.901 279.697 395.301 274.197 394.201C258.697 390.601 242.997 387.901 227.297 385.401C217.197 383.801 207.097 382.101 196.897 380.701L196.397 380.601C195.397 380.401 194.397 380.701 193.697 381.401C193.097 382.201 193.797 382.801 194.597 382.901Z" fill="#000005"/>
<path d="M234.297 407.701C240.697 405.301 246.797 402.301 252.697 398.801Z" fill="white"/>
<path d="M234.6 409.1C241.2 406.6 247.5 403.5 253.5 399.9C254.2 399.5 255 398.5 254.5 397.7C254 396.9 252.7 397.2 252.1 397.6C246.4 401 240.4 403.9 234.2 406.3C233.4 406.6 232.4 407.5 232.6 408.4C232.8 409.3 233.9 409.4 234.6 409.1Z" fill="#000005"/>
<path d="M223.199 403.6C226.199 404.5 229.199 405.1 232.199 405.6C236.399 406.5 240.599 407.3 244.799 408.2L246.099 408.5L246.699 408.6H246.799C247.199 408.7 247.699 408.8 248.099 409C250.099 410.1 252.199 407.2 249.899 405.9C248.899 405.4 247.799 405.1 246.599 404.9C244.699 404.4 242.899 404 240.999 403.7C236.799 402.8 232.599 402 228.299 401.1L225.899 400.6L224.999 400.4C224.499 400.3 225.399 400.5 224.899 400.4C223.899 400 222.799 400.4 222.199 401.2C221.799 402 222.099 402.9 222.799 403.3C222.999 403.6 223.099 403.6 223.199 403.6Z" fill="#000005"/>
<path d="M220.698 394.9C225.098 395.8 229.498 397.1 233.798 398.3L243.798 401.1C246.598 401.9 249.798 402.8 252.298 403.5C254.098 404 255.998 404.5 257.798 405.2C258.598 405.5 259.898 405.5 260.398 404.7C260.898 403.9 260.098 403 259.398 402.7C255.098 401 250.398 400 245.898 398.7C239.598 396.9 233.298 395.2 226.998 393.5C225.098 393 223.198 392.5 221.298 392.1C220.498 391.9 219.298 392.2 219.098 393.1C218.898 394 219.998 394.7 220.698 394.9Z" fill="#000005"/>
<path d="M218.5 400.6C224.9 398.2 231.1 395.2 237 391.7Z" fill="white"/>
<path d="M218.799 402.001C225.299 399.501 231.699 396.401 237.699 392.801C238.399 392.401 239.199 391.401 238.699 390.601C238.199 389.801 236.899 390.101 236.299 390.501C230.599 393.901 224.599 396.801 218.399 399.201C217.599 399.501 216.599 400.401 216.799 401.301C216.999 402.201 218.099 402.301 218.799 402.001Z" fill="#000005"/>
<path d="M92.0997 404.001C92.0997 404.001 53.0997 292.501 64.8997 286.101C76.6997 279.701 203 295.201 209.2 305.101C215.4 315.001 230.8 423.901 227.2 430.201C223.6 436.501 92.0997 404.001 92.0997 404.001Z" fill="#000005"/>
<path d="M94.3984 403.4C92.9984 399.5 91.6984 395.5 90.3984 391.6C87.1984 382.2 84.1984 372.7 81.2984 363.2C77.7984 352 74.4984 340.6 71.5984 329.2C69.0984 319.5 66.6984 309.7 65.5984 299.7C65.0984 296.5 65.0984 293.3 65.3984 290.1C65.2984 290.6 65.3984 289.9 65.4984 289.7C65.5984 289.4 65.5984 289.1 65.6984 288.9C65.7984 288.5 65.9984 288 66.1984 287.6C65.9984 288.1 66.1984 287.7 66.2984 287.5C66.3984 287.3 66.6984 287 66.2984 287.4C66.5984 287.4 66.5984 287 66.2984 287.4C66.4984 287.4 66.5984 287.3 66.7984 287.2C67.3984 286.9 66.1984 287.3 66.8984 287.2L67.5984 287C67.7984 286.9 68.0984 286.9 68.2984 286.9C68.4984 286.9 69.5984 286.7 68.5984 286.8C69.9984 286.7 71.3984 286.5 72.7984 286.4C74.5984 286.3 76.2984 286.3 78.0984 286.3H80.9984H82.5984H82.9984C82.8984 286.3 82.3984 286.3 82.8984 286.3H83.8984C94.8984 286.6 105.798 287.5 116.798 288.6C129.298 289.8 141.798 291.4 154.298 293.2C160.198 294.1 166.098 295 171.998 296.1C174.698 296.6 177.298 297.1 179.998 297.6C182.498 298.1 184.198 298.5 186.898 299.1C190.998 300 194.998 301 198.998 302.2C200.498 302.7 201.898 303.2 203.298 303.7C203.998 304 203.398 303.8 203.298 303.7L203.698 303.9L204.498 304.3C204.998 304.5 205.398 304.8 205.898 305C206.098 305.1 206.698 305.6 206.098 305.1C206.198 305.2 206.398 305.3 206.498 305.5C206.598 305.7 206.698 305.7 206.798 305.8C206.898 305.9 206.698 305.6 206.698 305.7C206.698 305.8 206.798 305.8 206.798 305.9C207.198 306.7 207.598 307.6 207.898 308.5C208.898 311.6 209.698 314.7 210.398 317.8C212.798 328.2 214.498 338.8 216.298 349.3C218.298 361.7 220.098 374.2 221.698 386.7C222.998 397.1 224.198 407.5 224.898 417.9C225.198 421.1 225.198 424.2 225.198 427.4C225.198 427.9 225.098 428.4 225.098 428.9C225.098 429.4 225.198 428.6 225.098 429.1C225.098 429.2 224.998 429.4 224.998 429.6C224.998 429.7 224.898 429.8 224.898 430C224.898 430.3 225.198 429.6 224.998 429.9C224.898 430 225.498 429.5 225.198 429.7C224.898 429.9 224.698 429.9 225.498 429.5C224.898 429.8 225.598 429.3 225.698 429.5C225.598 429.5 225.398 429.6 225.298 429.6C224.598 429.8 225.598 429.6 225.398 429.6C224.998 429.6 224.498 429.7 224.098 429.7H222.998C222.298 429.7 223.598 429.7 223.098 429.7C222.498 429.7 221.798 429.7 221.198 429.6C217.798 429.4 214.298 428.9 210.898 428.4C206.398 427.7 201.798 426.9 197.298 426.1L189.498 424.6L185.398 423.8L181.698 423C170.098 420.6 158.498 418 146.898 415.4C136.498 413 125.998 410.6 115.598 408.1C109.098 406.5 102.598 405 96.0984 403.4C95.1984 403.2 94.2984 403 93.3984 402.7C92.2984 402.4 90.7984 402.5 89.9984 403.5C89.1984 404.5 90.0984 405.4 90.9984 405.6C94.6984 406.5 98.3984 407.4 102.098 408.3C111.198 410.5 120.298 412.7 129.398 414.8C140.998 417.5 152.598 420.1 164.198 422.7C175.398 425.1 186.598 427.5 197.898 429.5C205.598 430.9 213.398 432.4 221.198 432.8C223.398 432.9 226.098 433.1 228.098 432.1C230.098 431.1 230.198 429.2 230.198 427.3C230.298 424.1 230.198 420.9 229.998 417.7C229.698 412.9 229.198 408.2 228.798 403.5C227.498 391.3 225.898 379.1 224.198 367C222.498 354.9 220.498 342.7 218.298 330.7C217.398 326 216.498 321.3 215.398 316.7C214.698 313.4 213.798 310.2 212.798 307.1C212.298 305.3 210.998 303.7 209.398 302.7C206.898 301.3 204.198 300.2 201.398 299.5C192.198 296.6 182.598 294.9 173.098 293.2C160.798 291 148.398 289.2 135.998 287.7C123.798 286.2 111.498 284.9 99.2984 284.1C90.2984 283.5 81.0984 282.9 71.9984 283.5C69.2984 283.5 66.6984 284 64.1984 284.9C61.9984 285.8 61.0984 287.8 60.6984 290C60.2984 293.2 60.2984 296.5 60.6984 299.8C61.1984 304.3 61.9984 308.8 62.8984 313.3C65.1984 324.6 68.2984 335.8 71.3984 346.9C74.4984 358 77.9984 369.1 81.5984 380.1C83.8984 387.4 86.2984 394.6 88.7984 401.8L89.7984 404.8C90.3984 406.5 95.1984 405.7 94.3984 403.4Z" fill="#000005"/>
<path d="M149.9 346.9C147.1 345.4 143.7 345.4 140.8 346.7C138.2 348 136.2 350.3 135.2 353C133.9 355.9 133.7 359.1 134.8 362.1C136 365.2 138.9 367.4 141.9 368.5C145.5 369.9 149.5 369.4 153.3 368.9C154.4 368.7 154.2 367.5 153.7 366.8C153 365.8 151.9 365.2 150.6 365.2C147.6 365.6 144 366.2 141.3 365.1C140.4 364.8 139.6 364.2 139.1 363.4C138.5 362.2 138.2 360.8 138.4 359.4C138.7 356.5 139.9 353.8 142 351.8C143.8 350.1 147 349 149.2 350.1C149.9 350.4 151.4 350.9 151.7 349.7C152 348.5 150.8 347.4 149.9 346.9Z" fill="white"/>
</svg>
