<svg width="500" height="500" viewBox="0 0 500 500" fill="none" xmlns="http://www.w3.org/2000/svg">
<path d="M361.598 422.3H155.598V458H361.598V422.3Z" fill="white"/>
<path d="M360.699 455.9H163.099C160.399 455.9 157.699 455.8 155.099 455.9H154.799L157.699 459.1V423.4L156.599 424.3H354.299C356.999 424.3 359.699 424.4 362.299 424.3H362.699L359.799 421.1V456.8C359.899 458 360.599 459.1 361.699 459.7C362.399 460.1 363.699 460.3 363.699 459.1V423.4C363.699 422.1 362.299 420.2 360.799 420.2H163.099C160.399 420.2 157.799 420.2 155.099 420.2H154.799C154.299 420.1 153.799 420.5 153.699 421V421.1V456.8C153.699 458.1 155.099 460 156.599 460H354.299C356.999 460 359.599 460 362.299 460H362.699C364.999 460.1 362.499 455.9 360.699 455.9Z" fill="#68BA7F"/>
<path d="M361.6 422.2H305V458H361.6V422.2Z" fill="#68BA7F"/>
<path d="M362.1 458.5H304.5V421.7H362.1V458.5ZM305.5 457.5H361.1V422.7H305.5V457.5Z" fill="#68BA7F"/>
<path d="M337.5 433.5C337.5 433.5 331 433.1 331.2 439.4C331.4 445.7 339.1 445.5 340.6 440.1C342.1 434.7 337.5 433.5 337.5 433.5Z" fill="#000005"/>
<path d="M323.6 440.7C326.8 437.3 331.1 435.2 335.7 434.9C340 434.8 344.1 436.4 347.2 439.4C348 440.2 349.4 440.9 350.5 440.4C351.2 440 351.5 439.2 351.1 438.5C351 438.3 350.9 438.1 350.7 438C346.5 433.8 340.8 431.4 334.8 431.2C329.1 431.3 323.6 433.6 319.6 437.8C318 439.5 322.2 442.2 323.6 440.7Z" fill="#000005"/>
<path d="M179.801 434.6C179.801 434.6 173.301 434.2 173.501 440.5C173.701 446.8 181.401 446.6 182.901 441.2C184.401 435.8 179.801 434.6 179.801 434.6Z" fill="#000005"/>
<path d="M203.199 435.1C203.199 435.1 196.699 434.7 196.899 441C197.099 447.3 204.799 447.1 206.299 441.7C207.799 436.3 203.199 435.1 203.199 435.1Z" fill="#000005"/>
<path d="M224.898 434.3C224.898 434.3 218.398 433.9 218.598 440.2C218.798 446.5 226.498 446.3 227.998 440.9C229.498 435.5 224.898 434.3 224.898 434.3Z" fill="#000005"/>
<path d="M247.5 434.7C247.5 434.7 241 434.3 241.2 440.6C241.4 446.9 249.1 446.7 250.6 441.3C252.1 435.9 247.5 434.7 247.5 434.7Z" fill="#000005"/>
<path d="M271.898 434.9C271.898 434.9 265.398 434.5 265.598 440.8C265.798 447.1 273.498 446.9 275.098 441.5C276.698 436.1 271.898 434.9 271.898 434.9Z" fill="#000005"/>
<path d="M89.2981 300.1C89.2981 300.1 43.7981 352 47.8981 352.7C51.9981 353.4 450.698 352.7 452.298 348.6C453.898 344.5 414.198 303.2 411.798 300.1C409.398 297 89.2981 300.1 89.2981 300.1Z" fill="#68BA7F"/>
<path d="M87.3987 299C77.6987 310.1 68.0987 321.3 58.8987 332.7C56.0987 336.2 53.2987 339.7 50.5987 343.3C48.7987 345.5 47.2987 347.8 45.8987 350.2C44.8987 352.2 44.8987 354.2 47.5987 354.5C47.9987 354.5 48.4987 354.5 48.8987 354.5C55.3987 354.6 61.8987 354.6 68.3987 354.6C81.1987 354.6 93.9987 354.6 106.799 354.6C124.099 354.6 141.299 354.6 158.599 354.5C178.499 354.4 198.499 354.4 218.399 354.3C239.199 354.2 260.099 354.1 280.899 353.9C300.799 353.8 320.799 353.6 340.699 353.4C357.999 353.2 375.199 353 392.499 352.7C405.299 352.5 418.199 352.2 430.999 351.8C437.699 351.6 444.499 351.7 451.199 350.7C452.099 350.6 452.999 350.4 453.699 350C455.499 348.9 454.899 347 454.099 345.5C452.399 342.5 450.399 339.7 448.099 337.1C444.999 333.2 441.599 329.4 438.299 325.6C431.799 318.2 425.099 311 418.499 303.8C416.399 301.5 414.599 298.2 411.299 297.8C404.199 296.8 396.799 297.1 389.599 297C375.099 296.8 360.599 296.7 346.099 296.7C327.099 296.7 308.099 296.7 289.199 296.7C268.499 296.8 247.799 296.8 227.099 297C207.499 297.1 187.899 297.2 168.199 297.4C152.399 297.5 136.599 297.6 120.799 297.8C111.699 297.9 102.599 298 93.3987 298H89.7987C88.6987 298 87.1987 298.5 86.8987 299.7C86.5987 300.9 87.8987 301.8 88.8987 301.8L103.399 301.7L141.299 301.4C159.099 301.3 176.899 301.1 194.699 301C214.899 300.9 235.099 300.8 255.299 300.7C275.299 300.6 295.299 300.5 315.299 300.5C332.399 300.5 349.499 300.5 366.599 300.6C378.099 300.7 389.699 300.7 401.199 301.1C403.999 301.2 406.899 301.2 409.699 301.5L410.699 301.6C409.499 301.5 411.199 301.9 410.099 301.4C409.799 301.3 409.599 300.9 409.899 301.3C410.099 301.6 410.299 301.9 410.599 302.1C411.399 303 412.299 304 413.099 304.9C419.499 311.8 425.899 318.7 432.099 325.7C437.799 332.1 444.099 338.6 448.599 345.9C448.899 346.4 449.199 346.8 449.399 347.3C449.499 347.5 449.599 347.7 449.699 347.9C449.699 347.8 449.699 348.1 449.699 348.1V348C449.299 348.4 450.399 347 450.199 347.2C450.499 347 450.699 346.8 451.099 346.7C451.799 346.6 450.499 347 451.099 346.7C450.799 346.7 450.399 346.8 450.099 346.8C447.599 347.1 445.099 347.2 442.599 347.4C440.699 347.5 438.799 347.6 436.899 347.7L433.599 347.8H433.199H432.299L430.299 347.9C424.599 348.1 418.799 348.2 412.999 348.4C397.799 348.8 382.699 349 367.499 349.2C348.899 349.5 330.299 349.7 311.599 349.8C291.199 350 270.799 350.1 250.399 350.2C229.999 350.3 209.599 350.4 189.199 350.5C170.599 350.6 151.899 350.6 133.299 350.6C118.099 350.6 102.899 350.6 87.6987 350.6C77.6987 350.6 67.6987 350.6 57.5987 350.5C55.0987 350.5 52.4987 350.5 49.9987 350.4C49.3987 350.3 48.8987 350.3 48.2987 350.4C48.2987 350.4 48.1987 350.4 48.0987 350.4C48.7987 350 49.5987 351.3 49.8987 351.7C49.9987 351.9 49.8987 351.8 49.8987 351.7C49.7987 351.9 50.1987 351.1 50.3987 350.8C53.8987 344.4 58.9987 338.8 63.5987 333.2C69.6987 325.7 75.8987 318.4 82.0987 311.1C85.0987 307.6 88.0987 304.2 90.9987 300.8C93.2987 298.8 88.9987 297.1 87.3987 299Z" fill="#68BA7F"/>
<path d="M52.8984 358.7L47.8984 352.6L452.298 348.5C452.298 348.5 450.898 356.4 442.798 358.7C434.698 361 63.5984 363.2 52.8984 358.7Z" fill="white"/>
<path d="M54.2001 359.1L49.2001 353L49.6001 354.3L60.5001 354.2L89.8001 353.9L133.5 353.5L186.4 353L244.7 352.4L303.2 351.8L358.1 351.3L404.2 350.8L437.6 350.5C442.8 350.5 448.1 350.6 453.3 350.3H454L450.4 347.2C449.5 352 445.1 356.7 440.2 357.2C438.2 357.4 436.2 357.5 434.2 357.5C425.7 357.8 417.2 358 408.7 358.1C395.3 358.3 382 358.5 368.6 358.7C351.9 358.9 335.3 359 318.6 359.2C300.1 359.3 281.5 359.4 263 359.5C244 359.6 224.9 359.6 205.9 359.6C187.9 359.6 169.9 359.6 151.9 359.5C136.5 359.4 121 359.3 105.6 359.1C94.1001 359 82.6001 358.8 71.1001 358.4C65.0001 358.2 58.8001 358.2 52.8001 357.4C53.0001 357.4 51.2001 357 51.9001 357.3C51.0001 356.9 50.9001 357.2 51.3001 358C51.9001 359 52.9001 359.8 54.0001 360.3C55.6001 360.8 57.2001 361.1 58.8001 361.1C61.8001 361.4 64.8001 361.5 67.8001 361.6C78.1001 362 88.4001 362.2 98.6001 362.4C113.3 362.6 127.9 362.8 142.6 362.9C160.2 363 177.7 363.1 195.3 363.1C214.3 363.1 233.3 363.1 252.3 363C271.3 363 290.2 362.9 309.1 362.8C326.4 362.7 343.8 362.5 361.2 362.4C375.5 362.3 389.8 362.1 404.2 361.8C414 361.6 423.8 361.5 433.6 361.2C438.8 361 444.9 361.7 449.3 358.4C452 356.4 453.8 353.4 454.5 350.1C454.7 349 451.8 346.9 450.9 346.9L440 347L410.7 347.3L367 347.7L314.1 348.2L255.8 348.8L197.3 349.4L142.4 350L96.0001 350.5L62.6001 350.8C57.4001 350.8 52.1001 350.7 46.9001 351C46.7001 351 46.4001 351 46.2001 351C45.5001 351 46.5001 352.2 46.6001 352.3L51.6001 358.4C52.1001 359 53.4001 360.5 54.3001 360.5C55.2001 360.5 54.6001 359.6 54.2001 359.1Z" fill="#68BA7F"/>
<path d="M121.398 313.1H128.398L147.298 313L175.498 312.8L209.698 312.6L247.398 312.4L285.198 312.2L320.698 312L350.498 311.8L372.098 311.7C375.498 311.7 378.898 311.7 382.198 311.7H382.598C383.598 311.7 383.098 310.7 382.698 310.3C381.998 309.5 380.998 309.1 379.998 309H372.998L353.998 309.1L325.798 309.3L291.598 309.5L253.898 309.7L216.098 309.9L180.598 310.1L150.798 310.3L129.198 310.4C125.798 310.4 122.398 310.4 118.998 310.5H118.598C117.598 310.5 118.098 311.5 118.398 311.9C119.398 312.6 120.398 313 121.398 313.1Z" fill="white"/>
<path d="M111.8 325.3H119.2L139.3 325.2L169.2 325L205.4 324.8L245.3 324.6L285.3 324.4L322.9 324.2L354.5 324L377.4 323.9C381 323.9 384.6 323.9 388.2 323.9H388.7C389.8 323.9 390.8 323.5 391.6 322.8C392.2 322.3 392 322 391.2 322H383.8L363.7 322.1L333.8 322.3L297.6 322.5L257.6 322.7L217.6 322.9L180 323.1L148.4 323.3L125.6 323.4C122 323.4 118.4 323.4 114.8 323.5H114.3C113.2 323.6 112.2 323.9 111.4 324.6C110.8 325 111 325.3 111.8 325.3Z" fill="white"/>
<path d="M102.999 338.101H110.999L132.399 338.001L164.299 337.801L202.899 337.601L245.499 337.401L288.199 337.201L328.299 337.001L361.999 336.801L386.399 336.701C390.199 336.701 393.999 336.701 397.899 336.601H398.399C399.299 336.601 400.799 336.301 401.299 335.601C401.799 334.901 400.799 334.601 400.099 334.601H392.199L370.799 334.701L338.899 334.901L300.199 335.101L257.599 335.301L214.899 335.501L174.799 335.701L141.099 335.901L116.699 336.001C112.899 336.001 108.999 336.001 105.199 336.101H104.699C103.799 336.101 102.299 336.401 101.799 337.101C101.299 337.801 102.299 338.101 102.999 338.101Z" fill="white"/>
<path d="M205.798 302.5L199.298 316.6L188.998 339L186.598 344.1C185.998 345.4 188.998 348.1 189.798 346.2L196.298 332.1L206.598 309.7L208.998 304.6C209.698 303.4 206.698 300.7 205.798 302.5Z" fill="white"/>
<path d="M249.5 303.4V344.5C249.5 346.2 253.9 345.3 253.9 343.9V302.8C253.9 301.1 249.5 302 249.5 303.4Z" fill="white"/>
<path d="M293.3 303.4L299.601 317.1L309.501 338.9L311.8 343.9C312 344.3 316.1 342.8 315.8 342.1L309.501 328.4L299.501 306.6L297.201 301.6C297.201 301.2 293 302.7 293.3 303.4Z" fill="white"/>
<path d="M141.198 304.8L131.498 317.9L115.898 338.9L112.298 343.7C111.498 344.8 115.798 345.6 116.598 344.5L126.298 331.4L141.898 310.4L145.498 305.6C146.298 304.5 141.898 303.8 141.198 304.8Z" fill="white"/>
<path d="M348.699 306C348.099 305.6 348.599 305.9 348.799 306.2C348.999 306.5 349.299 306.8 349.599 307.1C350.399 308 351.199 309 351.999 309.9C354.399 312.9 356.699 315.9 358.999 318.9C363.999 325.3 368.799 331.7 373.599 338.2L376.899 342.6C377.599 343.4 378.699 343.7 379.699 343.2C380.499 342.9 381.699 341.9 381.099 341.1C377.999 337 374.899 332.8 371.799 328.7C366.699 321.9 361.599 315.2 356.299 308.5C355.399 307.3 354.399 306.2 353.499 305C352.999 304.3 352.399 303.7 351.699 303.2C349.699 302.3 346.499 304.7 348.699 306Z" fill="white"/>
<path d="M343.099 57.0992C343.099 57.0992 396.299 43.2992 445.399 57.0992C445.399 57.0992 450.799 125.899 445.399 137.799C439.999 149.699 406.499 168.299 395.399 170.199C384.299 172.099 345.899 145.899 343.099 137.399C340.299 128.899 341.199 65.1992 343.099 57.0992Z" fill="#68BA7F"/>
<path d="M345.2 57.2993C345.3 57.2993 344.8 57.3993 345.2 57.2993L346.3 57.0993C347.7 56.7993 349 56.4993 350.4 56.1993C355.2 55.1993 360 54.3993 364.9 53.6993C380.4 51.4993 396.1 50.8993 411.7 51.9993C422.4 52.7993 432.9 54.5993 443.2 57.3993L442.8 57.1993C443.2 62.3993 443.6 67.6993 443.8 72.8993C444.4 83.7993 444.9 94.6993 445.1 105.599C445.2 110.899 445.2 116.299 445 121.599C444.9 125.699 444.6 129.799 443.9 133.799C443.3 137.099 441.8 140.199 439.5 142.699C435.5 146.999 430.9 150.799 426 153.999C420.6 157.699 414.9 160.999 409.1 163.999C404.6 166.499 399.8 168.399 394.9 169.899L393.9 170.099C393.3 170.199 394 170.099 393.8 170.099C394 170.099 394.2 170.099 394.5 169.999C395 169.999 394 169.999 394.7 169.999C394.6 169.999 394 169.899 394.5 169.999L393.4 169.799C391.3 169.299 389.2 168.699 387.2 167.799C382.1 165.599 377.1 162.999 372.4 160.099C367.3 156.999 362.3 153.599 357.6 149.899C353.9 147.199 350.5 143.999 347.5 140.499C346 138.499 345.1 136.199 345 133.699C344.5 129.699 344.4 125.599 344.2 121.599C343.8 110.299 343.8 98.8993 344.1 87.4993C344.3 78.3993 344.4 69.1993 345.3 60.0993C345.4 59.0993 345.5 58.0993 345.7 57.0993C345.8 56.7993 340.9 56.1993 340.7 57.1993C340.2 59.8993 339.9 62.6993 339.9 65.4993C339.6 70.2993 339.4 75.1993 339.3 80.0993C339 91.8993 338.9 103.599 339.1 115.399C339.2 120.199 339.3 125.099 339.7 129.899C339.9 132.499 339.9 135.499 340.9 137.999C341.5 139.399 342.4 140.599 343.4 141.699C344.9 143.399 346.5 144.899 348.2 146.299C352.5 149.999 357.1 153.499 361.8 156.599C366.9 159.999 372.1 163.099 377.6 165.899C381.8 167.999 386.2 169.999 390.9 170.699C395.6 171.399 400 170.199 404.4 168.499C410 166.199 415.5 163.599 420.8 160.499C426.6 157.199 432.2 153.499 437.5 149.399C441.4 146.299 445.6 142.799 447.9 138.299C449.3 135.499 449.6 132.199 449.9 129.199C450.4 124.399 450.5 119.599 450.5 114.799C450.6 103.399 450.2 91.9993 449.6 80.5993C449.2 73.0993 448.8 65.5993 448.2 58.0993L448.1 56.8993C448 56.7993 447.9 56.6993 447.8 56.6993C429.1 51.4993 409.5 49.8993 390.2 50.4993C376.3 50.8993 362.5 52.4993 348.9 55.0993C346.3 55.5993 343.8 56.0993 341.3 56.7993C340.3 57.0993 342 57.3993 342.2 57.3993C343 57.5993 344.1 57.4993 345.2 57.2993Z" fill="#68BA7F"/>
<path d="M349.2 62.6996C349.2 62.6996 396.2 50.4996 439.4 62.6996C439.4 62.6996 444.2 123.4 439.4 133.9C434.6 144.4 405.1 160.8 395.4 162.5C385.7 164.2 351.8 141.1 349.2 133.6C346.6 126.1 347.5 69.7996 349.2 62.6996Z" fill="white"/>
<path d="M350.901 63.2991C356.701 61.8991 362.501 60.7991 368.401 59.9991C382.101 57.9991 396.001 57.4991 409.801 58.3991C419.201 58.9991 428.501 60.5991 437.601 63.0991L436.901 62.4991C437.301 67.0991 437.501 71.6991 437.801 76.2991C438.401 85.8991 438.801 95.4991 438.901 104.999C439.001 113.299 439.301 121.799 437.901 129.999C437.401 132.899 436.101 135.499 434.101 137.699C430.601 141.499 426.601 144.799 422.201 147.599C417.401 150.799 412.401 153.799 407.301 156.399C403.401 158.599 399.301 160.299 395.001 161.599L394.501 161.699L394.101 161.799C394.301 161.699 393.901 161.799 393.801 161.799C394.301 161.799 394.101 161.799 393.801 161.799C394.101 161.799 394.301 161.799 393.901 161.799C394.501 161.899 393.501 161.799 393.901 161.799L393.401 161.699C393.901 161.799 393.401 161.699 393.201 161.599C392.401 161.499 391.701 161.299 391.001 160.999C390.101 160.699 389.201 160.399 388.201 159.999C383.701 158.099 379.301 155.799 375.201 153.199C370.701 150.499 366.401 147.499 362.301 144.299C359.001 141.899 356.001 139.099 353.301 135.999C352.001 134.299 351.201 132.299 351.101 130.099C350.701 126.599 350.501 123.099 350.401 119.499C350.001 109.499 350.101 99.4991 350.301 89.3991C350.401 81.2991 350.501 73.0991 351.401 65.0991C351.501 64.1991 351.601 63.3991 351.801 62.4991C352.001 61.6991 347.101 61.0991 346.801 62.2991C346.401 64.6991 346.101 67.1991 346.101 69.5991C345.801 73.8991 345.701 78.1991 345.601 82.4991C345.301 92.8991 345.201 103.299 345.401 113.699C345.501 117.899 345.601 122.199 345.901 126.399C346.101 128.699 346.101 131.399 347.001 133.599C348.301 136.499 351.101 138.899 353.501 140.999C357.301 144.299 361.401 147.399 365.601 150.199C370.001 153.199 374.701 155.899 379.401 158.299C383.201 160.399 387.401 161.899 391.601 162.699C395.701 163.299 399.501 162.299 403.301 160.799C408.301 158.799 413.101 156.399 417.801 153.699C422.901 150.799 427.901 147.599 432.501 143.899C435.901 141.199 439.701 138.099 441.701 134.099C442.901 131.599 443.201 128.699 443.501 125.999C443.901 121.799 444.001 117.499 444.101 113.299C444.201 103.299 443.801 93.1991 443.301 83.1991C443.001 76.4991 442.501 69.8991 442.101 63.2991C442.101 62.9991 442.101 62.5991 442.001 62.2991C441.901 61.9991 441.501 61.7991 441.301 61.7991C424.801 57.1991 407.501 55.6991 390.301 56.1991C378.201 56.4991 366.201 57.8991 354.401 60.1991C352.101 60.6991 349.801 61.0991 347.601 61.6991C346.701 61.8991 346.701 62.4991 347.601 62.7991C348.601 63.4991 349.801 63.5991 350.901 63.2991Z" fill="#68BA7F"/>
<path d="M371.501 112.399L388.401 127.099C389.401 127.999 391.401 128.499 392.401 127.099C401.601 113.299 410.701 99.3994 419.401 85.3994C420.101 84.3994 419.901 82.9994 418.901 82.2994C418.901 82.2994 418.801 82.2994 418.801 82.1994C417.901 81.5994 416.001 81.4994 415.301 82.5994C406.501 96.5994 397.501 110.499 388.301 124.299H392.301L375.301 109.599C374.401 108.599 372.901 108.499 371.801 109.199C370.801 109.899 370.601 111.199 371.301 112.099C371.401 112.299 371.501 112.399 371.501 112.399Z" fill="#68BA7F"/>
<path d="M315.701 55.3999C317.601 55.8999 319.401 56.5999 321.201 57.4999L321.801 57.7999H321.901C322.001 57.8999 322.101 57.8999 322.201 57.9999C322.601 58.1999 323.101 58.4999 323.501 58.7999C324.301 59.2999 325.201 59.8999 325.901 60.5999C326.801 61.2999 328.301 60.7999 329.101 60.0999C329.701 59.5999 330.701 58.2999 329.701 57.5999C326.401 55.0999 322.601 53.1999 318.601 52.0999C317.401 51.7999 316.101 52.2999 315.301 53.1999C315.001 53.7999 314.501 55.0999 315.701 55.3999Z" fill="#68BA7F"/>
<path d="M335.501 51.3996C332.701 48.3996 330.001 45.1996 327.501 41.9996C327.201 41.6996 326.801 41.4996 326.401 41.3996C325.801 41.1996 325.101 41.0996 324.501 41.0996C324.201 41.0996 322.201 41.1996 322.701 41.8996C325.201 45.1996 327.901 48.2996 330.701 51.3996C331.601 51.9996 332.601 52.2996 333.701 52.1996C333.901 52.1996 336.101 52.0996 335.501 51.3996Z" fill="#68BA7F"/>
<path d="M308.198 136.401C308.198 136.401 314.398 115.501 288.998 95.0007C263.598 74.5007 181.998 83.9007 193.898 150.101C193.898 150.101 153.598 171.001 166.398 191.701C179.198 212.401 209.698 202.701 202.598 193.001C195.498 183.301 177.898 212.901 200.798 219.001C223.698 225.101 269.998 204.901 257.698 197.001C245.398 189.101 238.798 236.801 275.898 228.801C312.998 220.801 323.998 182.401 311.698 185.101C299.398 187.801 298.498 221.301 326.298 204.101C354.098 186.901 338.298 143.301 308.198 136.401Z" fill="white"/>
<path d="M310.599 137C311.399 133.8 311.599 130.5 311.199 127.3C310.299 119.2 307.099 111.5 301.999 105C297.199 98.7004 291.099 92.8004 283.999 89.3004C279.199 87.0004 274.199 85.4004 268.899 84.4004C256.899 82.3004 244.499 82.8004 232.699 86.0004C220.699 89.2004 209.199 95.4004 201.299 105C192.299 115.9 189.199 130 190.499 144C190.699 146.1 190.999 148.1 191.399 150.1L192.499 148.2C187.199 151 182.099 154.4 177.399 158.2C170.299 163.9 162.299 171.8 161.399 181.4C160.299 192.8 170.399 202.4 180.699 205.3C185.399 206.6 190.499 206.7 195.299 205.6C198.899 204.7 202.899 203 204.999 199.8C206.899 196.7 206.199 192.8 203.299 190.6C200.299 188.1 196.499 188.9 193.599 191.1C187.599 195.8 184.999 205.8 188.499 212.7C193.599 222.6 206.999 223.2 216.599 222.3C227.899 221.2 238.999 218 249.199 213C252.799 211.2 256.599 209 259.399 206.1C261.499 203.9 263.199 200.8 261.399 197.9C259.699 195.3 256.699 193.9 253.599 194.3C251.199 194.9 249.099 196.5 247.999 198.7C244.899 204.1 244.899 211.3 246.599 217.1C248.799 224.6 254.999 230.3 262.699 231.7C268.199 232.7 273.799 232 279.199 230.6C285.399 229 291.199 226.5 296.599 223C304.899 217.6 312.199 210 316.299 200.9C318.399 196.3 321.599 187.2 315.799 183.8C313.099 182.2 309.599 183.2 307.199 184.9C304.499 186.9 302.599 189.8 301.699 193.1C299.799 199.5 301.299 207.9 308.099 210.5C312.599 212.3 317.599 211.1 321.899 209.2C327.499 206.8 332.499 203.2 336.299 198.5C343.099 190 344.299 178.7 341.799 168.4C339.099 157.6 332.699 148.1 323.799 141.5C319.299 138.2 314.099 135.8 308.599 134.5C307.499 134 306.199 134.6 305.699 135.7C305.199 136.8 305.799 138.1 306.899 138.6C307.099 138.7 307.299 138.7 307.599 138.8C312.299 139.9 316.799 141.9 320.699 144.8C324.699 147.7 328.099 151.3 330.899 155.3C336.099 163 339.199 172.9 337.899 182.1C337.299 186.7 335.699 191 333.099 194.7C329.999 198.8 325.999 202.1 321.299 204.4C319.199 205.5 316.999 206.3 314.699 206.8C314.499 206.9 314.299 206.9 313.999 206.9H313.699C313.199 206.9 312.799 207 312.299 207H311.699C311.599 207 310.899 206.9 311.299 207C311.699 207.1 311.099 207 310.999 206.9L310.399 206.8C310.199 206.7 309.999 206.7 309.899 206.6C310.399 206.8 309.799 206.5 309.899 206.6C309.399 206.4 309.299 206.3 308.899 206.1C308.499 205.9 308.499 205.8 308.899 206.1C308.799 206 308.699 205.9 308.499 205.8C308.299 205.7 307.999 205.4 307.699 205.1C307.999 205.5 307.399 204.8 307.699 205.1L307.399 204.7C307.199 204.4 306.999 204.1 306.799 203.8C306.799 203.9 306.599 203.5 306.799 203.8L306.599 203.3C306.499 203 306.299 202.7 306.199 202.3C306.099 201.9 305.999 201.7 305.899 201.3C305.999 201.7 305.899 201.2 305.899 201.3L305.799 200.8C305.699 200.1 305.599 199.4 305.599 198.6C305.599 198.2 305.599 197.9 305.599 197.5C305.599 197.4 305.599 197.3 305.599 197.3C305.599 197 305.599 197.7 305.599 197.4C305.599 197.1 305.599 197 305.699 196.8C305.799 196.1 305.899 195.3 306.099 194.6C306.199 194.2 306.299 193.9 306.399 193.6C306.399 193.5 306.499 193.3 306.599 193.1C306.699 192.9 306.899 192.4 306.699 192.9C306.999 192.3 307.299 191.6 307.599 191C307.799 190.7 307.999 190.4 308.099 190.1L308.399 189.7C308.699 189.3 308.499 189.6 308.499 189.6C308.999 189.1 309.399 188.6 309.999 188.2C310.299 188 310.199 188 309.999 188.2L310.399 187.9C310.699 187.7 310.999 187.6 311.299 187.4C311.399 187.4 311.799 187.2 311.499 187.3C311.199 187.4 311.699 187.3 311.799 187.2C312.099 187.1 312.399 187.1 312.699 187C312.099 187.2 312.499 187 312.899 187C313.599 187 312.499 187 312.899 187C313.499 187.1 313.299 187 312.899 187C312.999 187 313.099 187.1 313.199 187.1C313.599 187.3 312.999 186.9 312.999 187C313.099 187.1 313.299 187.3 313.399 187.4C312.999 187.2 313.199 187 313.199 187.3C313.199 187.4 313.299 187.5 313.399 187.6C313.599 187.9 313.199 187.1 313.399 187.7C313.499 187.9 313.499 188.1 313.599 188.4C313.799 189 313.599 187.9 313.599 188.6C313.599 188.9 313.699 189.1 313.699 189.4C313.699 190 313.699 190.5 313.699 191.1C313.699 190.4 313.699 191.4 313.599 191.6C313.599 192 313.499 192.3 313.399 192.7C313.299 193.4 313.099 194.2 312.899 194.9C312.699 195.6 312.399 196.5 312.099 197.2C312.099 197.3 311.899 197.8 311.999 197.6C312.099 197.4 311.899 197.9 311.799 198C311.599 198.4 311.399 198.9 311.199 199.3C309.399 202.9 307.199 206.3 304.499 209.4C297.599 217.3 288.499 223 278.399 225.8C275.799 226.6 273.099 227.1 270.399 227.4C269.199 227.5 268.099 227.5 266.899 227.5C266.399 227.5 265.899 227.5 265.299 227.4L264.599 227.3H264.799L264.399 227.2C263.399 227 262.499 226.8 261.599 226.6L260.899 226.4C260.699 226.3 260.399 226.2 260.799 226.4C260.399 226.2 259.999 226.1 259.499 225.9C258.999 225.7 258.799 225.5 258.399 225.3L257.899 225C257.799 225 257.199 224.6 257.499 224.7L257.199 224.5L256.699 224.1C256.399 223.8 256.099 223.6 255.799 223.3C255.499 223 255.199 222.8 254.999 222.5C254.799 222.2 254.999 222.5 254.899 222.4C254.799 222.3 254.599 222.1 254.499 221.9C253.999 221.3 253.599 220.7 253.099 220C252.899 219.7 252.699 219.4 252.499 219.1C252.699 219.5 252.499 219.1 252.399 218.9C252.299 218.7 252.199 218.5 252.099 218.4C251.799 217.7 251.499 217 251.299 216.3C251.099 215.6 250.899 214.9 250.699 214.1C250.799 214.6 250.599 213.6 250.599 213.4C250.499 213 250.499 212.7 250.399 212.3C250.199 210.8 250.199 209.4 250.199 207.9V207.4C250.199 206.9 250.199 207.3 250.199 207.3C250.199 206.9 250.299 206.6 250.299 206.2C250.399 205.5 250.499 204.9 250.699 204.2C250.899 203.5 250.999 203 251.199 202.4C251.299 202.1 251.399 201.8 251.499 201.6C251.499 201.5 251.299 202 251.499 201.6C251.599 201.5 251.599 201.3 251.699 201.2C251.899 200.7 252.199 200.2 252.499 199.8C252.599 199.6 252.799 199.4 252.899 199.2C252.999 199 252.699 199.4 252.799 199.3C252.899 199.2 252.999 199.1 253.099 199L253.599 198.6C253.699 198.5 253.799 198.5 253.799 198.4C254.199 198.1 253.399 198.6 253.699 198.5C253.899 198.4 254.099 198.3 254.199 198.2C254.599 197.9 253.699 198.3 254.299 198.2C254.399 198.2 255.099 198.1 254.599 198.1C254.099 198.1 254.799 198.1 254.999 198.1C255.399 198 254.499 197.9 254.799 198.1C254.899 198.1 254.999 198.1 255.099 198.2C255.199 198.2 255.299 198.3 255.399 198.3C255.799 198.4 254.999 198.1 255.199 198.2C255.399 198.3 255.599 198.4 255.799 198.5C255.899 198.6 255.999 198.6 256.099 198.7C255.899 198.6 255.799 198.5 256.099 198.7C256.399 198.9 256.799 199.4 256.399 198.9C256.599 199.1 256.699 199.3 256.899 199.5C256.499 199 256.799 199.4 256.899 199.7C256.899 199.8 256.899 199.2 256.899 199.5C256.899 199.6 256.899 199.7 256.899 199.9C256.999 200.3 256.899 199.8 256.899 199.8C256.899 199.8 256.899 200 256.899 200.1C256.899 200.2 256.599 201 256.799 200.6C256.999 200.2 256.599 200.9 256.499 201.1C256.399 201.3 256.199 201.6 255.999 201.9C255.799 202.2 255.799 202.1 255.699 202.2C256.099 201.7 255.699 202.2 255.599 202.3C255.299 202.6 255.099 202.8 254.799 203.1C254.199 203.7 253.599 204.2 252.999 204.7C252.699 205 252.299 205.2 251.999 205.5L251.799 205.6L251.199 206C249.399 207.1 247.499 208.2 245.599 209.1C241.199 211.2 236.699 213 231.999 214.3C227.099 215.8 221.999 216.8 216.899 217.5C214.399 217.8 211.899 217.9 209.299 217.9C207.099 217.9 204.999 217.7 202.799 217.3C200.599 216.9 198.399 216.2 196.499 215C196.399 214.9 195.799 214.5 196.099 214.8L195.499 214.4C195.099 214.1 194.699 213.7 194.299 213.3C194.199 213.2 193.899 212.8 194.099 213.1C193.899 212.9 193.799 212.7 193.599 212.5C193.299 212.1 192.999 211.7 192.799 211.3L192.699 211C192.699 211 192.899 211.3 192.699 211.1L192.399 210.5C192.199 210.1 192.099 209.6 191.899 209.2C191.899 209 191.799 208.8 191.799 208.6C191.699 208.2 191.799 208.8 191.699 208.3C191.599 207.8 191.599 207.4 191.499 207C191.399 206.6 191.499 206.1 191.499 205.7V205C191.499 204.9 191.499 204.8 191.499 204.7C191.499 205 191.499 204.3 191.499 204.7C191.599 203.8 191.799 202.9 191.999 202.1C192.099 201.7 192.199 201.3 192.399 200.9C192.499 200.7 192.499 200.5 192.599 200.3C192.699 200.1 192.699 200.1 192.699 199.9C192.799 199.6 192.599 200.2 192.699 199.9C192.999 199.1 193.399 198.4 193.899 197.6C194.299 196.9 194.799 196.3 195.199 195.7C194.899 196.1 195.199 195.6 195.299 195.6L195.699 195.2C195.999 194.9 196.199 194.7 196.499 194.4C196.799 194.1 197.499 193.7 196.899 194C197.199 193.8 197.499 193.7 197.799 193.5C197.899 193.4 197.999 193.4 198.199 193.3C198.499 193.1 197.699 193.4 198.199 193.3C198.399 193.3 199.199 193.1 198.799 193.1C198.399 193.1 199.199 193.1 199.299 193.1C198.699 193.1 199.099 193 199.099 193.1C199.099 193.2 199.699 193.5 198.999 193.1C199.099 193.2 199.199 193.2 199.299 193.3C199.499 193.5 200.099 194.1 199.699 193.5C199.899 193.8 200.099 194 200.299 194.3C200.499 194.5 200.499 194.8 200.399 194.4C200.499 194.5 200.499 194.7 200.599 194.9C200.599 195 200.699 195.2 200.699 195.4C200.799 195.8 200.699 195 200.699 195.3C200.699 195.6 200.699 196.4 200.799 195.7C200.699 196 200.699 196.2 200.599 196.5C200.599 196.6 200.399 197 200.599 196.6C200.799 196.2 200.499 196.8 200.499 196.9C200.299 197.2 200.199 197.4 199.999 197.7C200.299 197.4 199.799 198 199.999 197.7L199.599 198.1C199.399 198.3 199.099 198.5 198.799 198.8C198.699 198.8 198.299 199.2 198.599 199C198.899 198.8 198.399 199.2 198.299 199.2C197.599 199.6 196.899 200 196.099 200.3C195.999 200.4 195.399 200.6 195.899 200.4L195.299 200.6C194.799 200.7 194.399 200.9 193.899 201C192.899 201.2 191.999 201.4 190.999 201.6L190.199 201.7C189.599 201.7 189.099 201.7 188.599 201.8C187.499 201.8 186.499 201.7 185.399 201.6C185.799 201.6 185.099 201.5 184.999 201.5C184.899 201.5 184.499 201.4 184.199 201.4C183.599 201.3 182.999 201.2 182.499 201C181.999 200.8 181.399 200.7 180.899 200.5C180.399 200.4 179.999 200.2 179.499 200C174.899 198.1 170.999 194.7 168.399 190.4C166.399 187.1 165.799 183.1 166.899 179.4C167.399 177.5 168.199 175.6 169.299 174C170.399 172.1 171.599 170.4 172.999 168.7C175.999 165.4 179.299 162.4 182.899 159.7C185.699 157.6 188.499 155.6 191.499 153.9C192.699 153.2 193.999 152.4 195.299 151.8C195.999 151.4 196.499 150.7 196.399 149.9C194.999 142.6 194.899 135.1 196.099 127.7C197.099 121.7 199.499 115.9 202.899 110.9C204.399 108.6 206.199 106.4 208.199 104.5C210.299 102.4 212.499 100.6 214.899 98.9004C215.499 98.5004 214.699 99.0004 214.999 98.8004L215.499 98.5004L216.399 97.9004C216.999 97.5004 217.599 97.1004 218.299 96.7004C219.599 96.0004 220.899 95.3004 222.199 94.6004C223.499 93.9004 224.899 93.3004 226.299 92.8004C226.899 92.5004 227.499 92.3004 228.199 92.1004L228.899 91.9004L230.199 91.5004C232.999 90.6004 235.899 89.8004 238.799 89.2004C240.299 88.9004 241.699 88.6004 243.199 88.4004C243.899 88.3004 244.599 88.2004 245.299 88.1004C246.199 88.0004 246.099 88.0004 247.099 87.9004C252.799 87.3004 258.599 87.4004 264.399 88.0004L264.999 88.1004L265.899 88.2004C266.599 88.3004 267.299 88.4004 267.999 88.5004C269.299 88.7004 270.599 89.0004 271.899 89.3004C273.199 89.6004 274.399 89.9004 275.599 90.3004C276.099 90.5004 276.699 90.6004 277.199 90.8004L278.099 91.1004C277.399 90.9004 278.399 91.2004 278.599 91.3004C280.699 92.1004 282.799 93.1004 284.699 94.3004L285.399 94.7004C285.499 94.8004 286.299 95.3004 285.699 94.9004C286.099 95.2004 286.599 95.5004 286.999 95.8004C289.099 97.4004 290.999 99.1004 292.899 100.9C299.099 107 304.099 114.6 305.999 123.2C306.499 125.7 306.799 128.3 306.699 130.9C306.699 131.4 306.699 131.9 306.599 132.3C306.499 132.7 306.599 131.9 306.599 132.2V132.5C306.599 132.7 306.599 132.9 306.499 133.2C306.399 133.8 306.299 134.3 306.199 134.9C306.199 135.1 306.099 135.3 306.099 135.5C304.999 138.5 309.799 139.7 310.599 137Z" fill="#000005"/>
<path d="M264.298 190.9C209.298 182.3 145.098 295 145.098 295C146.198 296.8 346.598 296 346.598 296C346.598 296 319.198 199.5 264.298 190.9Z" fill="#000005"/>
<path d="M263.897 189.1C252.097 187.3 240.597 190.6 230.197 196.1C218.397 202.3 207.897 211.1 198.397 220.5C188.597 230.3 179.397 240.8 171.097 251.9C164.197 260.9 157.697 270.2 151.497 279.8C149.497 282.9 147.597 286 145.697 289.1C144.797 290.6 143.797 292 143.097 293.5C143.097 293.6 142.997 293.6 142.997 293.7C142.597 294.3 143.097 294.9 143.397 295.4C144.897 297.5 149.097 297.2 151.297 297.2C156.197 297.4 160.997 297.5 165.897 297.5C173.097 297.6 180.397 297.7 187.597 297.7C196.397 297.8 205.297 297.8 214.097 297.8C223.697 297.8 233.397 297.8 242.997 297.8H272.297H299.697H322.797H339.397C341.997 297.8 344.697 297.8 347.297 297.8H347.597C348.297 297.8 349.097 297.4 348.797 296.5C347.897 293.2 346.797 290 345.597 286.7C342.697 278.5 339.497 270.5 335.897 262.6C331.297 252.4 325.997 242.6 319.997 233.3C313.597 223.4 306.197 214.1 297.397 206.3C288.897 198.8 278.897 192.7 267.697 190.1C266.397 189.8 265.097 189.5 263.797 189.3C262.897 189.2 261.797 189.4 261.997 190.5C262.397 191.7 263.397 192.5 264.597 192.7C269.797 193.5 274.797 195.1 279.397 197.4C280.197 197.8 280.197 197.8 280.697 198C281.297 198.3 281.897 198.7 282.597 199C283.797 199.7 284.997 200.4 286.097 201.2C288.297 202.6 290.297 204.1 292.297 205.8C300.897 212.8 308.097 221.5 314.297 230.8C320.397 240 325.797 249.6 330.397 259.7C334.197 267.7 337.397 275.5 340.297 283.7C341.197 286.3 342.097 289 342.997 291.6C343.297 292.9 343.697 294.1 344.097 295.3C344.097 295.4 344.097 295.4 344.097 295.5L345.297 294.2H339.997H325.497L303.997 294.3H277.797H248.997C239.397 294.3 229.697 294.3 219.997 294.3C210.897 294.3 201.797 294.3 192.797 294.2C185.097 294.1 177.397 294 169.697 293.9C164.097 293.8 158.397 293.8 152.797 293.6C150.997 293.6 149.197 293.5 147.397 293.4L145.597 293.3L144.897 293.2C144.397 293.2 144.397 293.1 144.897 293.2C144.797 293.2 144.697 293.2 144.597 293.1C145.397 293.3 145.997 293.7 146.497 294.3L146.897 296C148.997 292.2 151.297 288.6 153.697 284.9C159.397 275.9 165.397 267.1 171.797 258.6C179.797 247.7 188.497 237.3 197.897 227.5C207.197 217.9 217.297 208.8 228.697 201.9C238.297 196 249.497 191.5 260.797 192C262.097 192.1 263.597 192.2 264.497 192.4C265.397 192.6 266.497 192.4 266.297 191.2C266.097 190.2 265.097 189.4 263.897 189.1Z" fill="#000005"/>
<path d="M216.297 154.101C216.297 154.101 211.697 140.001 205.897 144.001C200.097 148.001 208.797 174.601 217.897 168.601C226.997 162.601 216.297 154.101 216.297 154.101Z" fill="white"/>
<path d="M218.7 153.4C218.2 151.8 217.5 150.3 216.8 148.8C215.7 146.6 214.2 144 211.9 142.9C210.6 142.4 209.1 142.3 207.7 142.8C206 143.1 204.4 143.8 203.1 144.9C201.7 146.3 201.6 148.7 201.7 150.5C201.9 156 203.7 161.4 206.8 165.9C208 167.6 209.7 169.5 211.9 170C214.9 170.7 218.6 169.2 220.9 167.4C223.9 165.3 224.7 161.3 222.8 158.1C221.7 156.3 220.3 154.7 218.7 153.4C218.1 152.9 216.7 153.4 216.1 153.6C215.9 153.7 213.7 154.6 213.8 154.7C216.6 156.9 219.7 160.8 218.9 164.6C218.5 166.2 217.5 167.6 216.1 168.5C215.9 168.7 215.6 168.8 215.3 169C215.4 168.9 215.2 169.1 215.2 169.1C215.3 168.9 218.3 168.3 216.6 168.7C217.4 168.5 217 168.6 216.5 168.6C214.6 168.3 213.1 166.8 212 165.4C209.1 161.5 207.3 156.9 206.6 152.1C206.2 150.1 206.2 148 206.7 145.9C206.9 145.2 207.2 144.5 207.7 143.9L207.9 143.7C208 143.6 208.1 143.6 208.1 143.5C208.1 143.4 206 144.1 206 144.1C206 144.1 206.9 144.3 207.1 144.5C209.4 145.6 210.8 148.2 211.9 150.4C212.6 151.8 213.3 153.3 213.8 154.8C214.1 155.4 218.9 153.9 218.7 153.4Z" fill="#000005"/>
<path d="M295.697 155.201C295.697 155.201 302.597 142.101 307.697 147.001C312.797 151.901 299.797 176.801 291.797 169.301C283.797 161.801 295.697 155.201 295.697 155.201Z" fill="white"/>
<path d="M298.099 155.9C298.299 155.5 298.499 155.2 298.699 154.8C298.899 154.4 298.599 154.9 298.799 154.7L299.199 154.1C299.499 153.6 299.799 153.2 300.099 152.7C300.799 151.7 301.599 150.7 302.499 149.8C302.699 149.6 302.899 149.4 303.099 149.2C302.799 149.5 303.299 149 303.499 148.9C303.699 148.8 303.899 148.6 304.099 148.4L304.499 148.1C304.699 148 304.099 148.2 304.499 148.1C304.599 148.1 305.399 147.8 304.999 147.9C304.599 148 305.299 147.8 305.399 147.8C305.799 147.7 304.799 147.8 305.299 147.8C305.599 147.8 305.399 147.7 305.099 147.8L305.399 147.9C305.399 147.9 304.899 147.6 305.399 148C305.699 148.2 305.499 148.1 305.399 148C305.499 148.1 305.599 148.2 305.699 148.3C305.799 148.4 305.799 148.4 305.899 148.5C305.399 148.1 305.699 148.2 305.699 148.3C305.799 148.4 305.799 148.6 305.899 148.7C306.099 149 305.799 148.3 305.899 148.6C305.899 148.7 305.999 148.8 305.999 148.9C305.999 149 306.099 149.3 306.099 149.5C306.099 149.7 306.199 150.2 306.199 149.9C306.199 149.6 306.199 150.3 306.199 150.4C306.199 150.7 306.199 150.9 306.199 151.2C306.199 151.7 306.099 152.1 305.999 152.6C305.999 152.8 305.899 153.1 305.899 153.3C305.899 153.5 305.799 153.6 305.799 153.8C305.799 154 305.899 153.5 305.799 153.9C304.599 158.6 302.199 162.9 298.899 166.3C298.699 166.5 298.499 166.7 298.399 166.8C298.799 166.5 298.099 167 297.999 167.1C297.599 167.4 297.199 167.7 296.699 168L296.299 168.2C296.399 168.2 296.799 168 296.399 168.1C296.199 168.2 295.999 168.3 295.799 168.3C295.599 168.4 295.399 168.4 295.199 168.5C295.899 168.3 295.199 168.5 294.999 168.5C295.299 168.6 294.399 168.6 294.999 168.5C294.899 168.5 294.099 168.4 294.599 168.5C295.099 168.6 294.299 168.4 294.199 168.4C294.099 168.4 293.799 168.2 294.399 168.5C294.299 168.4 294.199 168.4 294.099 168.3C293.999 168.2 293.399 167.8 293.899 168.2C293.699 168 293.499 167.8 293.299 167.6C292.699 167.1 292.299 166.4 291.899 165.7C291.799 165.4 291.699 165.2 291.599 164.9C291.499 164.7 291.499 164.4 291.499 164.1C291.499 163.8 291.499 163.4 291.599 163.1C291.599 163 291.699 162.7 291.599 163C291.599 162.8 291.699 162.6 291.799 162.4C292.199 161.3 292.799 160.3 293.699 159.5C293.899 159.3 294.199 159 294.399 158.8C294.099 159.1 294.699 158.6 294.799 158.4C295.199 158.1 295.599 157.7 296.099 157.4C296.599 157.1 296.899 156.8 297.399 156.6C298.199 156 298.499 154.9 297.899 154C297.799 153.9 297.699 153.8 297.599 153.7C296.599 152.9 295.199 152.8 294.099 153.5C290.099 155.8 285.799 160.3 286.799 165.2C287.599 168.5 290.099 171.2 293.399 172.3C296.099 172.8 298.799 172.2 300.899 170.4C305.499 167 308.699 161.4 310.299 156C311.199 153.6 311.499 151 311.199 148.5C310.699 145.8 308.299 143.7 305.499 143.6C301.899 143.4 298.999 146.2 296.999 148.8C295.699 150.5 294.499 152.3 293.499 154.2C292.899 155.3 293.999 156.5 295.099 156.8C296.099 157.4 297.399 157 298.099 155.9Z" fill="#000005"/>
<path d="M242.297 184.4L235.297 203.9C235.297 203.9 249.297 225.9 271.297 207.6L270.997 191L242.297 184.4Z" fill="white"/>
<path d="M239.998 184.5L234.898 198.9C234.198 200.6 233.598 202.3 232.998 204C232.698 205.2 234.098 206.5 234.898 207.4C238.598 211.9 243.798 215.1 249.498 216.3C253.698 217 257.998 216.5 261.998 215C264.498 214.1 266.898 212.8 269.098 211.3C270.398 210.5 271.598 209.6 272.698 208.6C273.298 208.2 273.698 207.6 273.798 206.8C273.998 203.9 273.698 200.9 273.598 198L273.398 190.5C273.398 189.8 272.898 189.5 272.298 189.4L247.198 183.6L243.598 182.8C242.298 182.6 241.098 183.1 240.298 184.1C239.698 185 240.098 185.8 241.098 186.1L266.198 191.9L269.798 192.7L268.698 191.6L269.098 208.1L269.798 206.8C264.298 211.4 257.598 214.5 250.498 212.5C246.198 211.1 242.298 208.6 239.398 205.1C238.898 204.5 238.398 203.9 237.998 203.3L237.798 203C237.698 202.8 237.798 203.2 237.898 203.1C237.898 203 237.798 203 237.798 202.9V203.7L244.798 184.2C245.398 181.9 240.598 182.7 239.998 184.5Z" fill="#000005"/>
<path d="M300.097 136.3C301.997 168.9 282.297 214.8 243.897 201.2C213.097 190.3 215.497 142.5 215.497 142.5C217.597 140.9 219.797 139.4 222.097 138.1C232.797 132.1 240.597 122.1 243.997 110.3L245.897 103.4C245.897 103.4 249.997 125 275.697 131.9" fill="white"/>
<path d="M297.698 136.101C298.398 149.101 295.998 162.101 290.798 174.001C285.998 184.901 278.398 195.401 266.898 199.701C261.198 201.701 255.098 202.001 249.298 200.601C243.298 199.401 237.798 196.501 233.398 192.401C229.498 188.501 226.398 184.001 224.298 178.901C222.198 174.001 220.598 168.801 219.598 163.501C218.298 156.701 217.698 149.801 217.898 143.001C217.898 142.501 217.898 142.801 217.898 143.201L217.398 144.201C219.898 142.301 222.498 140.601 225.198 139.101C228.798 136.901 232.098 134.201 234.998 131.101C240.398 125.301 244.398 118.301 246.498 110.701L248.298 104.101L243.498 103.201C244.098 106.201 245.198 109.001 246.698 111.701C249.998 118.001 254.698 123.301 260.598 127.301C265.098 130.401 270.098 132.601 275.398 134.001C276.498 134.401 277.698 133.901 278.098 132.801V132.701C278.198 131.401 277.398 130.201 276.098 129.901C268.298 128.001 261.298 123.801 255.898 117.901L255.398 117.301C255.198 117.001 254.898 116.701 254.698 116.401C254.198 115.801 253.698 115.201 253.298 114.501C252.498 113.401 251.798 112.201 251.198 111.101L250.998 110.701C250.798 110.401 251.198 111.201 250.998 110.601L250.598 109.901C250.398 109.401 250.098 108.901 249.898 108.301C249.498 107.501 249.198 106.601 248.898 105.801C248.698 105.101 248.498 104.501 248.298 103.801C248.098 103.101 248.398 104.301 248.198 103.601C247.798 101.401 244.198 100.001 243.398 102.701C242.798 105.001 242.098 107.301 241.498 109.601C238.498 120.001 231.898 129.001 222.798 134.901C220.398 136.501 217.898 137.801 215.498 139.501C214.698 140.101 213.298 140.801 212.998 141.901C212.898 142.901 212.898 143.901 212.898 144.901C212.898 146.901 212.998 148.801 213.098 150.801C213.498 157.001 214.398 163.101 215.998 169.101C217.698 176.301 220.698 183.101 224.898 189.201C229.498 195.801 236.098 200.801 243.698 203.501C251.898 206.301 260.698 206.901 268.998 204.001C276.398 201.401 282.498 196.101 287.298 190.001C292.298 183.201 296.098 175.701 298.498 167.601C300.998 159.401 302.398 150.901 302.498 142.401C302.498 140.501 302.498 138.501 302.398 136.601C302.298 133.801 297.498 133.101 297.698 136.101Z" fill="#000005"/>
<path d="M233.697 159.1C233.497 160.1 233.497 161.1 233.697 162.2C233.797 163.1 234.197 164 234.697 164.8C235.797 166.4 237.397 167.7 239.297 168.5C240.997 169.2 242.897 169.4 244.697 169C244.997 168.9 244.897 168.5 244.797 168.4C244.497 168 244.197 167.6 243.697 167.3C243.197 166.9 242.597 166.5 241.997 166.3C241.597 166.1 241.197 166 240.797 166.1C240.597 166.1 240.397 166.2 240.197 166.2H239.897C239.597 166.2 240.197 166.2 239.797 166.2C239.397 166.2 239.097 166.2 238.797 166.2H238.397H238.197C237.897 166.2 238.597 166.3 238.297 166.2L237.997 166.1L237.797 166C237.497 165.9 238.397 166.2 237.997 166.1L237.797 166C237.497 165.9 238.397 166.3 238.197 166.2L238.097 166.1C237.897 166 237.697 165.8 238.497 166.3L238.397 166.2C238.097 166 238.997 166.7 238.797 166.4L238.697 166.3C238.397 166.1 239.297 166.8 238.897 166.5C238.497 166.2 238.497 166 238.997 166.6L238.797 166.4C238.697 166.3 238.497 165.9 238.797 166.5L238.597 166.2C238.497 166 238.397 165.8 238.297 165.6C238.297 165.5 238.197 165.4 238.197 165.4C238.097 165.2 238.297 165.7 238.197 165.5L238.097 165.3C237.997 164.9 237.897 164.6 237.797 164.2C237.697 163.6 237.697 162.9 237.697 162.3C237.697 162 237.697 161.6 237.797 161.3C237.797 161 237.197 160.4 237.097 160.3C236.597 159.9 236.097 159.5 235.497 159.2C235.097 158.9 234.597 158.8 233.997 158.7C233.797 158.7 233.697 158.7 233.697 159.1Z" fill="#000005"/>
<path d="M262 156.4C262 156.4 282.8 164.6 293.5 156.4C304.2 148.2 291 139.7 272.8 144.3" fill="white"/>
<path d="M262.998 158C265.498 159 268.098 159.7 270.798 160.3C275.898 161.6 281.198 162 286.498 161.5C291.098 160.9 296.898 158.6 298.898 154C300.898 149.4 296.198 145.6 292.598 143.8C286.098 140.5 277.998 141 271.098 142.7C270.198 142.9 271.598 144.4 271.798 144.6C272.398 145.2 273.698 146.3 274.598 146C280.298 144.6 286.798 143.9 292.398 145.9C293.198 146.2 293.898 146.5 294.498 147C293.998 146.7 294.798 147.4 294.398 146.9C294.398 146.9 294.898 147.4 294.598 147.1C294.298 146.8 294.798 147.4 294.898 147.5C295.498 148.9 295.298 150.6 294.398 151.8C291.898 155.8 286.998 157.6 282.498 158.2C277.798 158.6 273.098 158.3 268.498 157.1C265.898 156.5 263.398 155.8 260.898 154.9C259.998 154.5 259.698 155.1 260.198 155.8C260.898 156.8 261.898 157.6 262.998 158Z" fill="#000005"/>
<path d="M250.1 135.601C250.1 135.601 253.1 135.201 253.2 138.101C253.3 141.001 249.7 141.201 248.8 138.701C248.2 137.601 248.7 136.201 249.8 135.701C249.8 135.701 249.9 135.701 250.1 135.601Z" fill="#000005"/>
<path d="M270.2 135C270.2 135 273.2 134.6 273.3 137.5C273.4 140.4 269.8 140.6 268.9 138.1C268.3 137 268.7 135.7 269.8 135.1C270 135.1 270.1 135 270.2 135Z" fill="#000005"/>
<path d="M263.098 110.5C271.198 120.8 283.198 127.3 296.298 128.6C297.398 128.7 297.398 127.5 297.098 126.7C296.698 125.6 295.698 124.7 294.498 124.5C282.998 123.5 272.398 117.8 265.198 108.7C264.698 108.1 263.298 107 262.498 107.7C261.698 108.4 262.598 109.9 263.098 110.5Z" fill="#000005"/>
<path d="M130.797 277.6C130.797 277.6 122.697 279.3 119.197 290.6C115.697 301.9 126.997 321.8 138.897 319.8C150.797 317.8 144.997 305.9 144.997 305.9C144.997 305.9 149.297 313.7 158.597 313.1C167.897 312.5 162.697 299.8 162.697 299.8C162.697 299.8 170.497 306.2 178.597 304.1C186.697 302 177.697 278.1 177.697 278.1C177.697 278.1 184.897 275.2 193.597 281.9C202.297 288.6 207.197 292.9 214.697 284.2C222.197 275.5 202.697 250.5 174.397 254.6C174.397 254.6 166.397 249.5 157.697 251.5C148.997 253.5 148.997 263 148.997 263C148.997 263 142.897 258.7 135.997 261.5C129.097 264.3 130.797 277.6 130.797 277.6Z" fill="white"/>
<path d="M129.698 275.301C125.898 276.101 122.698 279.401 120.698 282.601C118.798 285.601 117.598 289.001 117.398 292.501C117.398 295.901 117.998 299.301 119.198 302.501C121.498 309.101 125.398 316.301 131.498 320.101C133.798 321.701 136.698 322.401 139.498 322.201C142.298 321.901 145.298 320.601 146.698 318.001C148.698 314.201 147.098 309.401 145.398 305.801L144.998 306.701C147.498 311.101 151.598 314.601 156.698 315.301C159.498 315.701 162.998 315.501 164.498 312.701C165.598 310.601 165.398 308.101 164.998 305.801C164.598 303.901 164.098 302.001 163.398 300.201L163.698 302.001C166.298 304.001 169.298 305.501 172.498 306.301C175.598 307.101 180.698 307.701 182.398 304.201C183.698 301.601 183.398 298.201 182.998 295.401C182.498 291.901 181.798 288.501 180.698 285.201C180.098 283.201 179.498 281.101 178.698 279.101L178.898 280.401C184.098 278.401 190.298 280.901 194.498 284.001C197.598 286.301 200.698 289.101 204.398 290.601C207.198 291.801 210.398 291.401 212.798 289.501C214.798 288.101 216.798 286.101 217.398 283.701C217.798 281.801 217.698 279.901 217.098 278.101C215.498 272.601 212.598 267.601 208.398 263.601C203.998 259.201 198.498 255.901 192.598 254.001C189.298 252.901 185.898 252.201 182.398 252.001C180.498 251.901 178.498 251.901 176.498 252.001C175.598 252.101 174.598 252.301 173.698 252.301C173.498 252.301 173.198 252.301 172.998 252.101C167.498 248.901 159.198 247.001 153.498 250.501C151.298 251.901 149.598 254.001 148.798 256.501C148.398 257.901 148.098 259.401 147.898 260.801C147.898 260.801 148.098 260.901 147.898 260.701C147.598 260.501 147.298 260.201 146.898 260.101C145.698 259.501 144.398 259.001 142.998 258.701C139.698 258.001 135.398 258.201 132.798 260.701C129.398 264.101 129.198 270.001 129.598 274.501C129.598 274.901 129.698 275.301 129.698 275.601C129.898 276.701 130.398 277.801 130.998 278.701C131.198 279.001 131.998 280.301 131.898 279.301C131.498 276.301 131.698 273.301 132.298 270.401C132.698 268.201 133.798 266.201 135.498 264.801C137.898 262.901 141.398 262.601 144.298 263.101C146.298 263.401 148.198 264.201 149.898 265.301C149.998 265.401 150.098 265.301 150.098 265.201C150.098 262.701 150.898 260.301 152.298 258.201C155.498 253.501 161.598 252.701 166.798 253.701C169.198 254.101 171.598 254.901 173.798 256.101C174.198 256.401 174.698 256.601 175.198 256.901C175.998 257.201 177.198 256.801 178.098 256.701C188.498 255.801 198.798 258.801 206.998 265.301C208.698 266.601 210.198 268.101 211.598 269.701C212.198 270.301 212.698 271.001 213.198 271.701C213.698 272.301 214.098 273.001 214.398 273.601C214.698 274.201 214.198 273.101 214.498 273.801C214.798 274.501 214.298 273.301 214.598 273.901L214.698 274.301C214.498 273.801 214.698 274.401 214.798 274.501C214.998 275.101 215.098 275.701 215.198 276.301C215.398 277.501 215.298 278.801 214.898 280.001C214.098 281.801 212.898 283.301 211.398 284.501C209.698 286.201 207.298 287.001 204.898 287.001C202.098 286.801 199.498 285.001 197.298 283.401C194.198 281.201 191.398 278.501 187.798 277.001C184.498 275.601 180.098 274.801 176.698 276.101C176.398 276.201 176.898 277.301 176.898 277.401C177.498 279.001 177.798 279.801 178.198 281.301C179.198 284.301 179.898 287.401 180.398 290.601C180.798 293.401 181.198 296.601 180.298 299.401C179.098 302.901 175.098 302.901 171.998 302.401C168.298 301.801 164.698 300.201 161.798 297.901C161.398 297.601 162.098 299.701 162.098 299.701C162.198 299.901 161.798 298.901 161.998 299.401C161.998 299.601 162.298 300.201 162.198 299.901C162.098 299.601 162.298 300.101 162.298 300.201C162.298 300.301 162.398 300.601 162.498 300.801C162.598 301.301 162.698 301.501 162.798 302.001C163.298 304.001 163.298 306.101 162.698 308.001C161.698 310.501 159.198 311.201 156.798 311.201C153.598 311.201 150.598 310.101 148.098 308.201C147.198 307.501 146.298 306.601 145.598 305.701C145.398 305.501 145.298 305.301 144.998 304.901C144.698 304.501 145.298 305.301 145.098 305.001C144.898 304.701 144.798 304.501 145.298 305.401C145.198 305.201 144.398 303.701 144.098 304.001C143.798 304.301 144.698 306.101 144.798 306.401C144.898 306.701 144.698 306.001 144.598 306.001L144.698 306.301C144.898 306.701 144.598 305.801 144.698 306.201C144.698 306.301 144.798 306.401 144.798 306.601C144.998 307.101 144.698 306.301 144.798 306.701C144.898 307.101 145.098 307.601 145.098 307.701C145.598 309.501 145.498 311.401 144.998 313.201C143.098 318.301 135.998 319.101 131.698 317.101C126.898 314.901 122.998 310.001 121.298 305.301C119.098 299.501 119.698 293.001 122.998 287.701C124.998 284.501 128.198 281.101 132.098 280.301C132.098 279.801 130.598 275.101 129.698 275.301Z" fill="#000005"/>
<path d="M129.098 276C128.798 278.3 128.898 280.7 129.398 283C129.798 285.8 130.498 288.5 131.298 291.2C133.298 297.2 137.298 302.1 141.598 306.7C142.898 308.1 147.198 305.7 145.698 304.1C141.598 299.7 137.798 295.1 135.898 289.2C134.498 284.7 132.998 279.4 133.798 274.7C133.998 273.6 132.198 273.6 131.498 273.7C130.398 274 129.498 274.9 129.098 276Z" fill="#000005"/>
<path d="M146.598 261.301C146.198 267.501 146.898 273.701 148.598 279.601C149.998 285.101 152.198 291.001 155.898 295.401C157.798 297.801 159.998 299.901 162.398 301.801C163.398 302.601 164.798 302.701 165.898 302.001C166.598 301.301 166.698 300.201 166.098 299.501C165.998 299.401 165.898 299.301 165.798 299.201C162.098 296.401 158.998 292.801 156.898 288.601C154.298 283.201 152.598 277.401 151.898 271.501C151.398 268.601 151.298 265.601 151.498 262.601C151.598 261.401 150.798 260.301 149.598 260.101C148.598 259.801 146.698 260.001 146.598 261.301Z" fill="#000005"/>
<path d="M171.299 261C170.199 266.8 170.899 272.7 173.199 278.1C173.799 279.4 178.599 279.2 177.999 277.8C175.799 272.6 175.199 266.8 176.199 261.2C176.599 260 171.599 259.5 171.299 261Z" fill="#000005"/>
<path d="M350.599 275C350.599 275 358.599 273.1 366.699 281.7C374.799 290.3 373.199 313.2 361.599 316.5C349.999 319.8 351.799 306.2 351.799 306.2C351.799 306.2 350.699 317.7 340.999 319C331.799 320.3 331.599 308.8 331.599 308.8C331.599 308.8 327.299 317.9 319.099 319.6C310.899 321.3 308.599 295.8 308.599 295.8C308.599 295.8 300.799 296.3 295.899 306.1C290.999 315.9 288.399 321.9 277.899 317.3C267.399 312.7 274.199 281.7 301.399 273.2C301.399 273.2 306.399 265.1 315.099 263.2C323.799 261.3 327.899 269.8 327.899 269.8C327.899 269.8 331.499 263.3 338.999 262.9C346.499 262.5 350.599 275 350.599 275Z" fill="white"/>
<path d="M351.497 277.3C351.897 277.2 352.197 277.2 352.597 277.2C353.097 277.2 352.397 277.2 352.697 277.2H353.297C353.897 277.2 354.397 277.3 354.997 277.3C358.097 277.8 361.097 279.2 363.397 281.3C364.197 282 364.997 282.7 365.697 283.5C365.797 283.6 366.197 284.2 365.997 283.8C366.197 284.1 366.397 284.4 366.597 284.7C367.197 285.6 367.697 286.6 368.097 287.7C368.997 290.2 369.497 292.9 369.597 295.6C369.897 300.6 368.897 306.5 365.897 310.5C364.597 312.3 362.797 313.6 360.697 314.3C359.497 314.7 358.197 314.8 356.897 314.7C356.597 314.7 356.897 314.7 356.497 314.6C356.297 314.5 356.097 314.5 355.897 314.4C356.397 314.6 355.697 314.3 355.597 314.2C355.497 314.1 355.397 314.1 355.297 314C355.397 314.1 355.597 314.3 355.397 314C355.197 313.7 354.797 313.3 354.997 313.6C355.197 313.9 354.797 313.2 354.697 313.1C354.397 312.6 354.697 313.3 354.597 312.9L354.397 312.2C354.297 312 354.297 311.7 354.197 311.4C354.097 311.1 354.297 311.8 354.197 311.5C354.197 311.4 354.197 311.2 354.097 311.1C353.997 310.6 353.997 310.2 353.897 309.7C353.797 309.2 353.897 308.9 353.797 308.5C353.797 309 353.697 308.1 353.797 308.5C353.797 308.3 353.797 308.2 353.797 308C353.797 307.7 353.797 307.4 353.897 307L349.697 305.4C349.697 305.7 349.597 306.1 349.597 306.4C349.597 306.7 349.497 307.1 349.397 307.5C349.297 307.9 349.497 307.1 349.397 307.4C349.397 307.5 349.297 307.6 349.297 307.7L349.097 308.5C348.397 310.8 347.197 312.8 345.497 314.4C343.497 316.2 340.097 317.3 337.697 316.5C337.197 316.4 336.797 316.2 336.497 315.9C336.197 315.7 336.597 316.1 336.297 315.7C336.097 315.5 335.897 315.2 335.697 315C336.097 315.5 335.597 314.8 335.497 314.7C335.397 314.6 335.197 314.2 335.097 314C334.897 313.6 335.097 314 335.097 314.1C334.997 314 334.997 313.9 334.897 313.7C334.797 313.4 334.697 313.1 334.597 312.8C334.497 312.5 334.497 312.3 334.397 312.1L334.297 311.7C334.097 311.1 334.397 312.2 334.297 311.6C334.197 311 334.097 310.7 334.097 310.3C333.997 309.9 333.997 309.4 333.997 309C333.997 307.1 330.997 305.3 329.897 307.5C329.797 307.7 329.697 307.9 329.597 308L329.297 308.6C329.497 308.1 328.997 309 328.897 309.2C327.897 310.7 326.797 312.2 325.497 313.4C323.997 314.9 322.197 316.1 320.197 316.8C319.697 317 319.097 317.1 318.597 317.2C318.397 317.2 318.297 317.3 318.097 317.3C318.597 317.3 318.297 317.3 318.097 317.3C317.897 317.3 317.897 317.3 317.697 317.3C318.097 317.5 317.197 317.3 317.697 317.3L317.397 317.2C316.797 317 317.597 317.4 317.297 317.1C317.197 317 316.497 316.5 317.097 316.9C316.897 316.7 316.697 316.5 316.497 316.3C316.297 316.1 316.297 316 316.197 315.9C316.597 316.4 316.197 316 316.197 315.8C315.997 315.5 315.797 315.2 315.597 314.8C315.397 314.4 315.297 314.2 315.097 313.9C314.797 313.3 315.297 314.4 314.997 313.7C314.897 313.6 314.897 313.4 314.797 313.3C314.397 312.5 314.097 311.6 313.797 310.8C313.497 310 313.297 309.3 313.097 308.6C312.997 308.2 312.897 307.8 312.797 307.3C312.797 307.1 312.697 306.9 312.697 306.7C312.697 306.5 312.597 306.4 312.597 306.2C312.597 306.4 312.597 306.4 312.597 306.1C312.297 304.6 311.997 303 311.697 301.4C311.397 299.5 311.097 297.6 310.897 295.7C310.797 294.2 309.497 293.1 307.997 293.2C305.097 293.4 302.097 295.1 299.897 297C297.397 299.2 295.297 301.9 293.897 304.9C292.697 307.4 291.397 309.8 289.997 312.1C289.397 313 288.697 313.9 287.897 314.7C287.597 314.9 287.297 315.1 286.997 315.3C286.597 315.5 286.297 315.7 285.897 315.9C283.697 316.6 281.297 316 279.097 315.1C278.797 315 278.497 314.9 278.297 314.7C278.697 314.9 278.097 314.5 278.297 314.7L277.497 314.2C277.197 314 277.797 314.6 277.597 314.2L277.297 313.9C277.197 313.8 277.097 313.6 276.997 313.5C277.297 314 276.897 313.4 276.997 313.5L276.497 312.7C276.497 312.6 276.197 312.1 276.397 312.5C276.597 312.9 276.297 312.3 276.297 312.2C276.197 311.9 276.097 311.6 275.997 311.2C275.997 311 275.897 310.9 275.897 310.7C275.797 310.4 275.997 311.2 275.897 310.8L275.797 310.5C275.697 309.7 275.597 309 275.497 308.2C275.497 308 275.497 307.8 275.497 307.6C275.497 307.4 275.497 307.7 275.497 307.7C275.497 307.7 275.497 307.4 275.497 307.3C275.497 306.9 275.497 306.4 275.597 306C275.797 304.2 276.097 302.4 276.597 300.7C277.897 296.5 279.897 292.6 282.497 289.1C287.297 282.8 293.797 278 301.297 275.4C302.097 275.3 302.897 274.8 303.497 274.2C303.897 273.7 304.197 273.3 304.497 272.8C307.597 268.8 312.097 265.4 317.297 264.8C319.497 264.6 321.597 265.2 323.397 266.6C323.797 266.9 323.497 266.6 323.697 266.9L324.197 267.4C324.497 267.7 324.797 268.1 325.097 268.4C325.397 268.7 325.497 269 325.197 268.5C325.297 268.6 325.397 268.8 325.497 268.9C325.697 269.2 325.897 269.4 325.997 269.7C326.097 269.9 326.297 270.2 326.397 270.4C326.797 271.4 327.897 272 328.897 271.6C329.397 271.4 329.797 271.1 329.997 270.7C330.097 270.6 329.597 271.2 329.897 270.9C330.197 270.6 330.197 270.4 330.397 270.2C330.897 269.5 331.497 268.8 332.197 268.2C333.997 266.4 336.397 265.3 338.897 264.9C340.797 264.6 342.697 265.3 343.997 266.7C344.697 267.4 345.397 268.2 345.897 269C346.497 269.9 346.997 270.8 347.497 271.8C347.597 271.9 347.897 272.7 347.697 272.1C347.797 272.3 347.897 272.6 347.997 272.8C348.097 273 348.297 273.5 348.397 273.9C348.497 274.3 348.697 274.6 348.797 274.9C348.997 276.6 350.097 277.4 351.497 277.3C352.697 277 352.897 275.6 352.597 274.5C351.397 270.7 349.297 267.1 346.597 264.2C344.597 262.2 341.997 260.5 338.997 260.5C335.697 260.6 332.497 261.7 329.897 263.8C328.297 265.1 326.897 266.7 325.897 268.4L329.497 268.7C327.697 265.1 324.497 262.3 320.697 261C314.097 259 307.397 262.8 302.797 267.4C301.597 268.6 300.497 269.9 299.597 271.3L300.497 270.8C285.797 275.5 272.997 288.2 271.097 304C270.497 309.1 271.297 315.3 275.797 318.5C277.397 319.5 279.097 320.3 280.897 320.7C282.797 321.3 284.797 321.4 286.697 321C290.397 320.1 292.697 316.9 294.497 313.7C297.097 309.2 298.897 304 303.197 300.8C304.497 299.8 305.897 299.1 307.397 298.6C307.997 298.4 308.697 298.2 309.397 298.2L306.497 295.7C306.897 301.3 307.997 306.8 309.697 312.1C310.797 315.3 312.297 319 315.197 321C318.797 323.5 323.497 321.3 326.597 318.8C329.497 316.5 331.897 313.6 333.497 310.2L329.397 308.7C329.497 313.2 331.497 318.4 335.597 320.5C338.897 322.3 343.097 321.7 346.297 319.9C348.997 318.2 351.097 315.7 352.297 312.7C353.097 310.9 353.597 309.1 353.797 307.1C353.897 305.8 353.197 304.6 351.997 304.1C351.097 303.7 350.097 304.2 349.797 305C349.697 305.2 349.697 305.3 349.697 305.5C349.297 308.8 349.697 312.7 351.597 315.6C355.197 321.1 362.897 320.1 367.297 316.2C371.897 312.1 373.597 305.2 373.797 299.3C373.997 292.8 372.697 285.7 368.297 280.7C365.097 276.9 360.797 274.2 355.997 273C353.997 272.5 351.897 272.4 349.797 272.8C347.197 273.3 348.997 277.9 351.497 277.3Z" fill="#000005"/>
<path d="M346.697 273.3C348.297 275.9 349.397 278.8 350.097 281.8C350.897 284.8 351.397 288 351.497 291.1C351.397 294.2 351.197 297.4 350.697 300.5C350.397 303.8 349.697 307 348.897 310.2C348.597 311.2 353.397 312.2 353.897 310.9C354.797 307.7 355.397 304.5 355.697 301.2C356.197 298 356.497 294.8 356.497 291.6C356.397 288.4 355.897 285.3 354.997 282.2C354.397 279.1 353.197 276.2 351.597 273.6C350.997 272.8 349.597 272.6 348.597 272.6C348.197 272.5 346.097 272.6 346.697 273.3Z" fill="#000005"/>
<path d="M326.398 269.4C329.798 275.2 331.698 282.9 332.398 289.8C333.098 296.1 331.898 302.5 329.098 308.2C328.398 309.7 331.398 313.5 332.198 311.9C334.598 307.3 335.898 302.1 335.998 296.9C335.998 290.3 334.898 283.8 332.798 277.6C331.698 274.3 330.298 271.1 328.598 268.1C328.198 267.5 327.098 266.1 326.298 266.6C325.498 267.1 326.098 268.9 326.398 269.4Z" fill="#000005"/>
<path d="M302.397 279.301C305.997 284.301 306.397 291.101 306.597 297.101C306.697 298.901 311.697 298.601 311.597 296.801C311.397 290.701 310.897 283.501 307.097 278.301C306.497 277.401 304.997 277.401 303.997 277.601C303.397 277.701 301.697 278.401 302.397 279.301Z" fill="#000005"/>
</svg>
