<svg width="500" height="500" viewBox="0 0 500 500" fill="none" xmlns="http://www.w3.org/2000/svg">
<path d="M323.199 229.8C323.199 229.8 314.899 186.4 330.999 167.1C349.799 144.6 402.799 108.7 398.399 133.1C396.599 142.9 374.999 158 374.999 158C374.999 158 393.999 152.8 396.899 163C399.799 173.2 392.499 176.6 392.499 176.6C392.499 176.6 401.399 179.6 396.699 192.5C391.999 205.4 376.199 201 376.199 201C376.199 201 374.299 223.3 345.899 223.6L323.199 229.8Z" fill="white"/>
<path d="M325.499 229.1C323.699 219.4 322.999 209.5 323.499 199.6C323.799 191.9 324.799 184 327.599 176.7C328.899 173.3 330.699 170.1 332.899 167.3C334.999 164.8 337.199 162.5 339.499 160.2C344.999 154.9 350.699 149.9 356.799 145.3C359.999 142.9 363.199 140.6 366.499 138.4C369.499 136.4 372.599 134.4 375.499 132.8C378.299 131.2 381.199 129.8 384.099 128.5C384.499 128.3 383.499 128.7 384.199 128.5L384.599 128.4L385.599 128C386.199 127.8 386.799 127.6 387.499 127.4C387.799 127.3 388.099 127.2 388.399 127.1L388.799 127C389.399 126.8 388.399 127.1 388.799 127C389.399 126.9 389.899 126.8 390.499 126.7L391.199 126.6C391.699 126.5 390.899 126.6 391.499 126.6C391.999 126.6 392.399 126.6 392.899 126.6C393.399 126.6 392.699 126.5 393.199 126.6L393.799 126.7L394.299 126.9C394.799 127.1 394.199 126.8 394.599 127C395.699 127.7 396.499 128.9 396.599 130.2C397.199 136.1 392.699 140.9 388.799 144.8C384.499 149.1 379.899 152.9 374.999 156.4L374.099 157C373.599 157.4 372.599 158.2 372.999 158.9C373.399 159.6 374.599 159.4 375.199 159.2L375.499 159.1C374.499 159.4 375.599 159.1 375.899 159C376.899 158.8 377.899 158.6 378.899 158.4C381.599 157.9 384.399 157.8 387.099 158.1C389.599 158.4 392.399 159.3 393.899 161.5C395.799 164.6 396.199 168.5 394.799 171.9C394.499 172.5 394.199 173.1 393.699 173.7L393.499 174C393.799 173.6 393.399 174.1 393.399 174.1C393.199 174.3 392.999 174.5 392.799 174.7C392.399 175.1 393.199 174.4 392.899 174.6L392.599 174.8C392.499 174.9 392.299 175 392.099 175.1C391.899 175.2 392.799 174.7 392.299 175L392.199 175.1C391.399 175.5 389.399 177.2 391.099 177.8L391.399 177.9L391.799 178.1C392.599 178.6 393.299 179.2 393.899 179.9C395.999 182.3 396.199 185.7 395.699 188.7C395.299 191 394.599 193.1 393.399 195.1C392.999 195.8 392.499 196.4 391.899 196.9C391.799 197 391.099 197.6 391.299 197.5C391.099 197.7 390.899 197.8 390.699 197.9C390.499 198 389.999 198.3 390.399 198.1C389.999 198.3 389.699 198.5 389.299 198.7C389.199 198.7 388.799 198.9 389.299 198.7C389.099 198.8 388.899 198.8 388.699 198.9C388.099 199.2 387.399 199.3 386.699 199.4C383.799 199.9 380.799 199.7 377.999 199C376.699 198.6 374.199 199.8 373.999 201.3C373.899 201.8 373.899 202.3 373.799 202.8C373.799 202.9 373.699 203.4 373.799 202.9L373.699 203.3C373.599 203.6 373.499 203.9 373.399 204.3C373.199 205 372.899 205.7 372.699 206.4C372.099 208.1 371.199 209.7 370.199 211.2C369.899 211.6 369.599 212.1 369.199 212.5C368.999 212.7 368.899 212.9 368.699 213.1L368.399 213.4C368.199 213.7 368.399 213.4 368.299 213.5C367.899 213.9 367.499 214.4 366.999 214.8L366.399 215.4C366.299 215.5 365.599 216.1 365.799 215.9C365.299 216.3 364.799 216.7 364.299 217L363.499 217.5C363.299 217.7 362.999 217.8 362.799 217.9C361.599 218.6 360.299 219.1 358.999 219.6C355.499 220.8 351.899 221.4 348.199 221.5C346.599 221.6 344.999 221.9 343.499 222.4L336.299 224.4L323.399 228C322.499 228.2 320.999 229.1 320.999 230.2C320.999 231.3 322.599 231.1 323.299 230.9L334.799 227.7L342.599 225.5L345.199 224.8L345.899 224.6C346.699 224.4 344.599 224.6 345.799 224.7C347.999 224.8 350.199 224.6 352.399 224.1C354.299 223.8 356.199 223.4 357.999 222.8C361.199 221.8 364.299 220.3 367.099 218.4C371.299 215.5 374.599 211.6 376.599 207C377.699 204.7 378.399 202.3 378.599 199.8L374.599 202.1C379.999 203.5 385.599 203.1 390.699 200.8C394.899 198.7 398.099 195 399.399 190.5C400.599 186.6 401.199 181.9 398.799 178.4C397.699 176.7 396.099 175.4 394.199 174.7L393.099 177.4C399.299 174.5 401.299 167 398.999 160.8C396.499 154.2 387.299 154.2 381.499 154.9C379.399 155.1 377.199 155.5 375.099 156.1L376.199 158.3C380.299 155.4 384.299 152.2 387.999 148.8C390.999 146.2 393.799 143.3 396.299 140.2C398.299 137.7 400.199 134.8 400.799 131.6C401.499 127.8 400.599 123.7 396.299 123C391.099 122.1 385.399 124.6 380.799 126.7C373.999 130 367.399 133.9 361.299 138.3C354.399 143.1 347.899 148.3 341.699 153.8C338.899 156.3 336.199 158.9 333.599 161.7C330.999 164.2 328.799 167 326.799 170C322.499 176.8 320.599 184.8 319.599 192.7C318.299 205 318.699 217.4 320.899 229.5L320.999 230.1C321.199 232.6 325.799 230.7 325.499 229.1Z" fill="#000005"/>
<path d="M332.5 182.9C332.5 182.9 342.8 174.6 352.7 173.6C362.6 172.6 369.2 178.8 366.8 184.1C364.4 189.4 355.8 185.3 350.9 191.1C350.9 191.1 359.4 188.6 361 197.1" fill="white"/>
<path d="M333.9 183.901C334 183.801 334.2 183.701 334.4 183.501C333.9 183.901 334.2 183.701 334.5 183.401L335.4 182.801C336.9 181.701 338.5 180.701 340.1 179.801C344.1 177.601 348.6 175.601 353.2 175.401C357.1 175.201 362 176.301 364.3 179.801C365.1 180.901 365.3 182.301 365 183.601C364.9 183.801 364.8 184.001 364.7 184.301C364.7 184.301 364.2 184.901 364.5 184.601C364.4 184.701 364.1 184.801 364.5 184.601C364 184.901 363.5 185.101 362.9 185.201C360.8 185.601 358.6 185.601 356.5 186.201C353.7 186.901 351.1 188.401 349.2 190.601C348.6 191.101 348.6 192.001 349.1 192.601C349.5 193.001 350.1 193.201 350.7 193.001C351.1 192.901 351.5 192.801 351.9 192.801C352.1 192.801 352.5 192.801 352 192.801H352.7C352.9 192.801 353.2 192.801 353.4 192.801H353.8C354.1 192.801 353.3 192.701 353.9 192.801C356.7 193.301 358.2 195.301 358.8 198.101C359.3 200.501 363.8 198.301 363.3 196.301C362.6 192.801 360.5 189.901 356.8 189.201C354.9 188.801 353 188.901 351.2 189.301L352.7 191.701C355.3 188.701 360.6 189.701 364.2 188.401C368.4 186.901 370.9 182.201 368.9 178.101C366.9 174.001 361.6 172.001 357.3 171.701C351.5 171.301 345.8 173.201 340.8 175.801C337.4 177.501 334.2 179.601 331.2 181.901C330.5 182.501 329.9 183.801 330.8 184.501C331.7 185.201 333.2 184.501 333.9 183.901Z" fill="#000005"/>
<path d="M369.398 168.701C367.098 172.801 364.698 179.701 368.998 183.301C371.798 185.701 375.998 185.901 379.398 185.001C383.198 183.901 386.798 182.001 389.898 179.601C393.698 176.901 396.898 173.601 399.298 169.701C400.198 168.201 395.499 166.801 394.699 168.001C390.899 174.101 385.299 178.901 378.699 181.801C377.399 182.401 375.898 182.801 374.498 183.001C373.998 183.101 373.698 182.901 373.298 183.001H373.398C373.798 183.101 372.998 182.901 373.398 183.001C373.298 183.001 372.899 182.801 373.199 182.901C373.499 183.001 373.198 182.901 373.098 182.801C370.898 181.201 371.298 177.801 371.898 175.501C372.398 173.501 373.199 171.601 374.199 169.801C374.799 168.701 370.198 167.101 369.398 168.701Z" fill="#000005"/>
<path d="M366.099 184.601C364.299 186.101 362.999 188.101 362.199 190.301C360.999 194.001 363.299 197.201 366.399 199.001C372.699 202.701 381.399 202.901 388.299 201.001C392.099 200.001 395.799 198.201 398.099 194.901C399.199 193.301 394.499 192.101 393.399 193.601C390.099 198.201 383.499 199.401 378.199 199.201C375.599 199.201 373.099 198.601 370.799 197.601C369.599 197.101 368.599 196.301 367.799 195.301C366.999 194.201 366.699 192.801 367.099 191.501C367.499 190.101 368.199 188.901 369.099 187.801C369.499 187.301 369.899 186.801 370.399 186.401C372.099 184.901 367.499 183.501 366.099 184.601Z" fill="#000005"/>
<path d="M366.599 165.901C367.199 165.601 367.799 165.201 368.399 164.801L372.099 162.501C374.799 160.801 377.599 159.101 380.299 157.301C380.999 156.801 381.699 156.401 382.499 155.901C383.299 155.401 383.599 154.301 383.099 153.501C382.999 153.401 382.899 153.201 382.799 153.101C381.999 152.101 380.599 151.701 379.399 152.201C378.799 152.501 378.199 152.901 377.599 153.301L373.899 155.601C371.199 157.301 368.399 159.101 365.699 160.801C364.999 161.301 364.199 161.701 363.499 162.101C362.699 162.601 362.399 163.701 362.899 164.501C362.999 164.601 363.099 164.801 363.199 164.901C364.099 166.001 365.399 166.401 366.599 165.901Z" fill="#000005"/>
<path d="M295.899 339.001L108.499 431.101C-37.4014 447.601 142.399 220.001 194.999 207.701C194.999 207.701 220.599 194.701 258.099 216.501C313.499 248.801 335.599 263.501 352.899 246.301L370.099 288.601C370.099 288.601 350.699 329.401 295.899 339.001Z" fill="#000005"/>
<path d="M295.699 337.6L285.499 342.6L259.199 355.5L223.199 373.2L183.599 392.7L147.199 410.6L119.999 424L111.799 428C110.599 428.5 109.499 429 108.399 429.7H108.299C109.299 428.8 109.399 429.5 108.999 429.4C108.799 429.4 108.599 429.4 108.299 429.5L106.699 429.7C104.999 429.9 103.199 430 101.499 430.1C98.2992 430.3 95.0992 430.3 91.9992 430.2C86.7992 430.1 81.5992 429.3 76.5992 427.8C69.1992 425.6 62.4992 421.2 58.5992 414.3C54.8992 407.5 54.2992 398.9 55.0992 391.4C56.1992 381.2 59.4992 371 63.2992 361.7C68.1992 350.1 73.9992 338.8 80.5992 328.1C87.6992 316.3 95.3992 304.9 103.699 294C111.999 282.9 120.799 272.2 130.099 261.9C134.599 256.9 138.799 252.4 143.299 247.8C147.599 243.5 151.899 239.2 156.399 235.2C160.399 231.5 164.599 227.9 168.899 224.6L170.299 223.5L170.999 222.9C170.399 223.4 171.299 222.7 171.399 222.6C172.399 221.9 173.399 221.1 174.299 220.4C176.099 219.1 177.999 217.8 179.899 216.6C180.799 216 181.699 215.5 182.499 215L183.699 214.3L184.299 214C184.999 213.6 183.999 214.2 184.599 213.9C186.199 213 187.799 212.2 189.499 211.5C189.899 211.3 190.299 211.2 190.599 211L191.099 210.8L191.299 210.7C191.899 210.5 190.899 210.8 191.299 210.7C191.999 210.5 192.699 210.2 193.399 210C194.299 209.7 195.299 209.4 196.199 209L196.999 208.7C197.599 208.4 196.599 208.8 197.099 208.7L197.699 208.5C198.699 208.2 199.699 207.9 200.799 207.6C203.599 206.9 206.499 206.4 209.399 206.2C218.599 205.6 227.899 206.7 236.699 209.6C249.599 213.7 260.899 221.2 272.499 227.9C282.199 233.6 291.899 239.2 301.799 244.4C308.799 248.1 315.999 251.6 323.599 253.8C329.099 255.4 334.799 256.3 340.499 255.1C345.699 253.9 350.499 251.2 354.299 247.3L350.899 247.9L356.699 262.1L365.999 284.9L367.999 290.1L368.099 288.9C367.399 290.3 366.599 291.7 365.799 293L365.199 294L364.899 294.4C364.699 294.7 364.499 295 364.699 294.7C364.199 295.5 363.599 296.3 362.999 297.1C361.599 299 360.199 300.9 358.699 302.6C356.799 304.9 354.999 306.8 353.099 308.7C350.799 311 348.299 313.2 345.799 315.3C339.899 320.1 333.599 324.2 326.799 327.6C317.099 332.3 306.799 335.6 296.199 337.5C294.999 337.8 293.999 338.6 293.599 339.8C293.399 341 294.499 341 295.399 340.9C310.999 338.2 325.999 332.3 339.199 323.7C348.599 317.5 356.899 309.9 363.899 301.1C366.899 297.3 369.999 293.2 371.999 288.8C372.299 288.1 372.199 287.4 371.799 286.8L370.299 283.2L364.799 269.8L358.699 254.8C357.499 251.8 356.399 248.7 354.999 245.7C354.899 245.6 354.899 245.4 354.799 245.3C354.299 244.1 351.899 245.5 351.399 245.9C350.899 246.3 350.399 246.8 349.899 247.3C349.599 247.5 349.399 247.8 349.099 248L348.799 248.2C348.199 248.7 348.899 248.1 348.599 248.4C348.299 248.7 347.599 249.1 347.099 249.4L346.299 249.9C346.299 249.9 345.799 250.2 346.099 250C346.399 249.8 345.899 250.1 345.799 250.2C345.299 250.5 344.799 250.7 344.199 250.9C344.099 251 343.199 251.3 343.799 251C343.499 251.1 343.199 251.2 342.799 251.3C342.299 251.5 341.699 251.6 341.099 251.7L340.599 251.8C340.899 251.8 340.099 251.9 340.599 251.8L339.599 251.9C337.099 252.2 334.499 252.1 331.999 251.7C328.899 251.2 325.899 250.4 322.899 249.3C314.899 246.5 307.299 242.5 299.799 238.4C289.299 232.7 278.999 226.6 268.699 220.6C262.599 217.1 256.499 213.3 250.099 210.3C244.699 207.8 238.999 205.8 233.199 204.4C224.799 202.3 216.099 201.8 207.499 203C203.199 203.5 198.899 204.7 194.899 206.4C194.799 206.4 194.699 206.5 194.499 206.6C194.099 206.8 195.299 206.4 194.599 206.5C193.899 206.7 193.199 206.9 192.499 207.1C190.799 207.7 189.099 208.3 187.499 209.1C179.199 212.9 171.699 218.5 164.599 224.2C155.499 231.6 146.899 239.6 138.699 248C129.199 257.8 120.099 268 111.499 278.6C102.599 289.5 94.1992 300.8 86.2992 312.6C79.1992 323.3 72.2992 335 66.1992 347C60.7992 357.3 56.4992 368.2 53.2992 379.4C50.9992 388.2 49.4992 397.6 50.9992 406.6C52.0992 414.3 56.1992 421.2 62.2992 425.9C70.1992 431.7 80.3992 433.4 89.9992 433.8C93.1992 433.9 96.3992 433.9 99.5992 433.7C101.399 433.6 103.199 433.5 104.899 433.3C106.199 433.3 107.399 433.1 108.699 432.7C109.799 432.2 110.899 431.6 111.899 431.1L131.899 421.3L164.799 405.1L203.699 386L242.399 367L274.499 351.2L293.499 341.9L295.999 340.7C296.799 340.3 298.199 339.3 297.999 338.2C297.799 337.1 296.399 337.2 295.699 337.6Z" fill="#000005"/>
<path d="M424.499 216.8C424.499 216.8 260.999 227 249.999 229.6C238.999 232.2 162.499 272.2 164.099 281.8C165.699 291.4 195.999 427.6 208.199 437.5C220.399 447.4 356.999 449.1 356.999 449.1C356.999 449.1 429.199 384.7 426.699 380.5C424.199 376.3 429.099 216.5 424.499 216.8Z" fill="#68BA7F"/>
<path d="M426.098 215.501L419.798 215.901L403.098 217.001C395.098 217.501 387.098 218.001 379.098 218.601C369.598 219.201 360.098 219.801 350.698 220.501C340.798 221.201 330.898 221.801 320.998 222.501C311.798 223.201 302.498 223.801 293.298 224.501C285.598 225.101 277.998 225.701 270.298 226.301C265.298 226.701 260.298 227.201 255.298 227.801C251.898 228.301 248.598 229.201 245.498 230.601C238.098 233.701 230.998 237.301 223.898 241.001C214.698 245.701 205.598 250.701 196.598 255.901C188.498 260.501 180.698 265.501 173.198 270.901C170.398 272.901 167.698 275.101 165.298 277.501C163.998 278.801 162.198 280.501 161.898 282.401C161.898 283.601 162.098 284.801 162.398 285.901C162.798 288.001 163.298 290.001 163.698 292.101C165.098 298.801 166.598 305.501 168.198 312.201C170.298 321.201 172.398 330.101 174.498 339.101C176.898 349.101 179.398 359.101 181.998 369.001C184.498 378.601 187.098 388.301 189.898 397.901C192.198 405.901 194.698 413.801 197.498 421.601C199.298 426.601 201.098 431.901 203.998 436.501C204.698 437.701 205.698 438.801 206.898 439.501C208.498 440.401 210.298 441.001 212.098 441.401C218.298 442.901 224.598 444.001 230.898 444.601C239.698 445.601 248.498 446.301 257.298 447.001C267.198 447.701 277.198 448.201 287.098 448.701C296.698 449.201 306.298 449.501 315.898 449.801C323.698 450.101 331.498 450.301 339.198 450.401L352.898 450.701C353.598 450.701 354.298 450.701 355.098 450.701C356.998 450.401 358.598 448.701 360.098 447.401C364.298 443.601 368.498 439.801 372.698 436.001C379.398 429.901 385.998 423.801 392.598 417.701C399.398 411.301 406.098 405.001 412.698 398.401C417.498 393.801 422.098 389.001 426.398 383.901C427.198 382.901 428.598 381.401 428.698 380.101C428.598 379.401 428.498 378.801 428.398 378.101C427.998 374.201 427.998 370.201 427.998 366.201C427.898 359.201 427.998 352.201 427.998 345.201C427.998 336.401 428.098 327.501 428.198 318.701C428.298 309.001 428.398 299.401 428.398 289.701C428.498 280.401 428.498 271.001 428.498 261.601C428.498 253.701 428.498 245.801 428.298 237.901C428.198 232.401 428.098 226.901 427.598 221.501C427.498 220.101 427.298 218.601 426.998 217.201C427.098 216.201 426.998 215.401 426.098 215.501C424.998 215.701 423.898 216.301 423.098 217.101C422.698 217.401 421.698 218.301 422.698 218.301C422.298 218.301 422.498 218.201 422.598 218.401C422.698 218.601 422.798 218.801 422.798 219.001C422.998 219.701 423.098 220.401 423.198 221.101C423.598 223.701 423.698 226.301 423.798 228.901C424.198 237.801 424.298 246.801 424.298 255.701C424.398 267.601 424.298 279.501 424.198 291.301C424.098 303.801 423.998 316.201 423.898 328.701C423.798 339.301 423.698 349.901 423.698 360.501C423.698 366.801 423.598 373.201 424.098 379.501C424.098 380.101 424.198 380.801 424.298 381.401C424.398 381.901 424.498 382.001 424.498 382.301C424.298 383.001 423.898 383.701 423.398 384.301C422.498 385.501 421.598 386.601 420.598 387.701C414.198 395.001 406.498 402.301 399.198 409.201C390.398 417.601 381.498 425.801 372.598 434.001C367.098 439.001 361.498 444.001 355.998 449.001L355.198 449.801L358.898 447.901C354.698 447.801 350.498 447.801 346.198 447.701C335.798 447.501 325.398 447.201 315.098 446.801C301.998 446.401 288.998 445.801 275.898 445.101C263.398 444.401 250.998 443.601 238.598 442.201C233.698 441.701 228.898 441.101 224.098 440.301C220.598 439.801 217.198 439.101 213.898 438.101C211.998 437.701 210.398 436.601 209.098 435.201C207.498 432.901 206.098 430.401 205.098 427.701C201.098 418.501 198.198 408.801 195.298 399.201C191.498 386.501 188.098 373.801 184.798 361.001C181.498 348.201 178.298 335.101 175.298 322.101C172.898 312.101 170.698 302.101 168.498 292.101C167.898 289.201 167.198 286.301 166.698 283.401C166.598 282.601 166.398 281.901 166.298 281.101C166.198 280.801 166.198 280.501 166.298 280.201C166.398 280.001 166.398 279.801 166.498 279.601C166.598 279.401 166.698 279.201 166.798 279.001C167.598 277.801 168.498 276.701 169.598 275.801C170.498 275.001 170.598 274.901 171.498 274.101C172.398 273.301 173.198 272.701 174.098 272.001C174.798 271.501 174.698 271.501 175.198 271.101L176.798 269.901C177.898 269.101 179.098 268.301 180.298 267.501C182.998 265.701 184.898 264.501 187.598 262.801C199.198 255.601 210.598 249.301 222.698 243.101C225.398 241.701 228.198 240.301 230.898 239.001L234.698 237.101L236.298 236.301L237.198 235.901C237.598 235.701 237.298 235.901 237.198 235.901L237.798 235.601C239.698 234.701 241.698 233.801 243.698 233.001C244.498 232.701 245.298 232.401 246.098 232.001L246.498 231.801C246.798 231.701 246.098 231.901 246.598 231.801L247.498 231.501L248.198 231.301C248.798 231.101 247.998 231.301 248.398 231.301L249.298 231.101C250.198 231.001 251.198 230.801 252.098 230.701C255.098 230.301 258.198 230.001 261.298 229.801C270.998 228.901 280.798 228.201 290.498 227.401C302.998 226.401 315.598 225.501 328.098 224.701C341.098 223.801 354.098 222.901 367.098 222.101C378.098 221.401 389.098 220.701 400.098 220.001L419.798 218.801L422.498 218.601C423.598 218.401 424.698 217.801 425.498 217.001C426.098 216.401 427.198 215.401 426.098 215.501Z" fill="#68BA7F"/>
<path d="M398.899 397.501C398.899 397.501 398.099 381.401 396.199 380.301C394.299 379.201 367.199 398.701 367.199 398.701L369.299 423.101L398.899 397.501Z" fill="white"/>
<path d="M400.899 398.8C400.799 396.4 400.599 394 400.399 391.6C400.199 389.7 399.999 387.9 399.699 386C399.499 384.6 399.199 383.2 398.599 381.9C397.899 380.4 396.199 378.7 394.499 378.5C393.699 378.5 392.999 378.7 392.399 379.1C389.899 380.3 387.499 381.7 385.299 383.3C379.499 387 373.799 391 368.199 395L365.999 396.6C365.699 396.8 365.399 397 365.299 397.3C365.299 397.9 365.299 398.5 365.499 399.1L365.899 403.1L367.499 421.7C367.599 422.6 370.499 425.4 371.499 424.6L397.399 402.2L401.099 399C401.699 398.5 398.199 395 397.199 395.9L371.299 418.3L367.599 421.5L371.599 424.4L370.199 409.4L369.499 401.2C369.499 400.9 369.499 400.6 369.399 400.2C369.299 399.9 369.499 399.9 369.299 400.1C369.599 399.8 369.899 399.6 370.299 399.4C374.999 396 379.799 392.7 384.699 389.4C388.899 386.6 393.099 383.5 397.899 381.7C398.099 381.6 397.699 381.7 397.799 381.7C398.499 381.2 395.099 379.9 395.099 379.7C395.099 379.5 395.299 380.1 395.299 380.2C395.499 380.9 395.699 381.5 395.799 382.2C396.199 384.1 396.399 386.1 396.599 388C396.899 390.6 397.099 393.3 397.199 396C397.199 396.9 398.599 397.9 399.299 398.3C399.199 398.6 400.999 399.6 400.899 398.8Z" fill="#68BA7F"/>
<path d="M422.098 216.1L406.398 227.7L374.998 250.9L350.998 268.7C350.198 269.2 349.498 269.7 348.798 270.3C348.298 270.8 348.698 270.2 349.198 270.4C349.098 270.4 349.098 270.4 348.998 270.4C347.598 270.4 346.098 270.6 344.698 270.6L322.498 271.8L287.998 273.8L247.798 276.1L209.098 278.3L178.598 280L163.198 280.9H162.498C161.598 280.9 161.498 281.3 162.298 281.8C163.398 282.4 164.498 282.7 165.698 282.6L176.398 282L203.898 280.4L241.398 278.3L281.998 276L318.498 274L344.198 272.5L350.798 272.1C351.698 272.2 352.498 272 353.298 271.7C355.498 270.3 357.498 268.6 359.598 267L372.098 257.8L403.898 234.3L425.498 218.3L426.598 217.5C427.198 217.1 425.298 216.4 425.098 216.4C424.498 216.2 422.798 215.6 422.098 216.1Z" fill="#000005"/>
<path d="M359.099 450.301L358.899 445.501L358.499 432.601L357.799 413.401L356.999 390.001L356.099 364.401L355.199 338.701L354.399 314.601L353.699 294.201L353.199 279.601C353.099 277.301 353.199 274.901 352.999 272.601C352.999 272.501 352.999 272.401 352.999 272.301C352.999 271.501 351.299 270.601 350.699 270.201C350.399 270.101 348.799 269.101 348.799 269.901L348.999 274.701L349.499 287.601L350.199 306.801L350.999 330.201L351.899 355.801L352.799 381.601L353.599 405.701L354.299 426.101L354.799 440.701C354.899 443.001 354.799 445.401 354.999 447.701C354.999 447.801 354.999 447.901 354.999 448.001C354.999 448.801 356.699 449.701 357.299 450.101C357.499 450.201 359.099 451.101 359.099 450.301Z" fill="#000005"/>
<path d="M226.8 242C226.8 242 402.8 229.3 406.3 233.2C409.8 237.1 406.6 285.4 406.6 285.4L400.3 284.6L392.2 289.2L384.7 286.3L376.9 292.9L377.3 255.1L195 262.5C195 262.5 219.3 245.8 226.8 242Z" fill="white"/>
<path d="M185.4 349.2C185.4 349.2 215.9 325.9 228.1 320.3C240.3 314.7 244.3 326.6 232.9 340.9C232.9 340.9 244 331.8 246 345.3C248 358.8 231.9 375.9 231.9 375.9C231.9 375.9 257.4 364.2 259.1 374.2C260.8 384.2 119.6 433.4 108.5 431.2C97.4 429 95.7 358 100.1 353.5C104.5 349 168.4 346.5 168.4 346.5L173.2 332.3" fill="white"/>
<path d="M187.098 351.1C193.698 346 200.398 341.1 207.198 336.3C212.198 332.8 217.198 329.4 222.398 326.2C224.498 325 226.498 323.8 228.698 322.7C229.998 322 231.398 321.6 232.898 321.3C233.398 321.2 233.898 321.2 234.398 321.3L234.898 321.4C235.298 321.4 234.598 321.3 234.898 321.4C235.198 321.5 235.498 321.6 235.798 321.7C235.298 321.5 235.998 321.9 236.198 322C236.498 322.2 235.898 321.7 236.098 321.9C236.198 322 236.298 322.1 236.398 322.3C236.698 322.6 236.398 322.3 236.398 322.2C236.498 322.3 236.598 322.5 236.698 322.6C236.798 322.7 236.798 322.8 236.898 323C236.998 323.2 236.798 322.6 236.898 323.1C236.998 323.4 237.098 323.8 237.198 324.1C237.298 324.5 237.198 323.8 237.198 324.2C237.198 324.4 237.298 324.6 237.298 324.8C237.298 325.5 237.298 326.2 237.198 326.9C236.498 331.4 233.998 335.6 231.098 339.2C229.298 341.4 232.198 344.7 234.498 342.8C234.598 342.7 234.698 342.6 234.798 342.5L235.198 342.2C234.498 342.7 235.298 342.2 235.398 342.1C235.898 341.8 236.398 341.5 236.798 341.3C237.098 341.2 237.398 341 237.698 340.9L237.998 340.8C238.598 340.6 237.898 340.8 238.298 340.7C238.698 340.6 238.898 340.6 239.198 340.5C239.498 340.4 240.398 340.4 239.798 340.4C240.098 340.4 240.398 340.4 240.698 340.4C241.298 340.5 240.198 340.2 240.798 340.4C240.998 340.5 241.198 340.5 241.498 340.6C240.898 340.3 241.698 340.8 241.898 340.9C241.198 340.4 242.498 341.7 242.098 341.2C242.598 342 242.998 342.8 243.198 343.8C244.298 348.1 243.198 352.7 241.498 356.7C239.698 360.9 237.298 364.8 234.598 368.5C233.198 370.5 231.698 372.3 230.098 374.1C228.298 376 230.698 379.2 232.998 378.1C237.498 376 242.298 374.4 247.198 373.3C248.098 373.1 248.898 373 249.698 372.8L250.798 372.7L251.498 372.6C251.598 372.6 252.398 372.6 251.998 372.6C252.698 372.6 253.398 372.6 254.098 372.7C254.298 372.7 255.298 372.9 254.698 372.8C254.998 372.9 255.298 373 255.698 373.1C256.298 373.4 255.898 373.1 255.698 373.1L256.098 373.3C256.198 373.4 256.298 373.4 256.298 373.5C256.798 373.7 255.798 373.2 256.198 373.5C256.298 373.6 256.398 373.7 256.498 373.8C255.998 373.3 256.398 373.5 256.398 373.8C256.398 373.9 256.498 374 256.498 374.1C256.098 373.4 256.498 374.2 256.498 374.3C256.498 374.4 256.498 375 256.498 374.2C256.498 374.2 256.498 374.2 256.498 374.3C256.498 374.5 256.398 374.8 256.598 373.9C256.598 374 256.598 374 256.598 374.1C256.498 374.6 256.898 373.6 256.698 373.9C256.598 374 256.498 374.2 256.498 374.3C256.198 374.9 256.898 373.9 256.398 374.4C255.998 374.8 255.598 375.2 255.198 375.5C254.698 375.9 254.098 376.3 253.598 376.7C253.898 376.5 253.898 376.5 253.498 376.7L253.098 377L251.898 377.7C247.898 380.1 243.798 382.2 239.598 384.1C227.298 389.9 214.698 394.9 202.098 399.7C187.698 405.2 173.098 410.4 158.398 415.3C146.498 419.3 134.798 423.1 122.398 426.3C118.698 427.3 114.998 428.2 111.198 428.8C110.598 428.9 109.998 428.9 109.498 429C109.398 429 109.198 429 109.098 429C108.998 429 109.798 429 109.298 429H108.698C108.298 428.7 108.198 429 108.698 429C108.598 428.9 108.498 428.9 108.298 428.9C108.998 429.2 107.898 428.7 108.298 428.9C108.198 428.8 108.098 428.7 107.898 428.6C108.598 429 108.198 428.9 107.898 428.6L107.598 428.2C107.498 428.1 107.498 428 107.398 428C107.098 427.7 107.698 428.5 107.498 428.2C106.998 427.3 106.498 426.5 106.098 425.6C105.998 425.5 105.998 425.3 105.898 425.2C106.198 425.8 105.998 425.4 105.898 425.3L105.598 424.5C105.398 423.9 105.198 423.2 104.898 422.6C103.998 419.7 103.298 416.8 102.798 413.8C101.598 406.5 100.798 399.2 100.398 391.9C99.9984 384.6 99.7984 377.2 99.9984 369.9C100.098 367.1 100.198 364.2 100.498 361.4C100.398 362.1 100.498 361.1 100.598 360.9L100.698 360.2C100.798 359.7 100.898 359.1 100.898 358.6C100.998 357.8 101.198 357 101.398 356.2C101.498 356.1 101.498 355.9 101.498 355.8C101.498 355.7 101.198 356.3 101.498 355.9C101.698 355.7 102.098 355 101.498 355.8C101.598 355.7 101.598 355.6 101.698 355.6C101.798 355.5 100.998 355.9 101.498 355.7C101.798 355.6 102.098 355.4 102.398 355.3L102.798 355.1C103.298 354.9 102.298 355.2 102.998 355.1L104.398 354.7C105.498 354.4 106.598 354.2 107.698 354C114.298 352.8 121.098 352.2 127.798 351.7C140.698 350.6 153.598 349.9 166.398 349.3L168.698 349.2C169.498 349.1 170.098 348.5 170.298 347.7L175.098 333.3C175.998 330.6 171.498 328.7 170.498 331.7L165.698 345.9L167.298 344.4C156.898 344.8 146.598 345.4 136.198 346.2C128.598 346.7 120.898 347.4 113.298 348.3C110.398 348.7 107.498 349.1 104.598 349.6C102.698 349.9 100.798 350.4 98.9984 351.2C97.5984 352 96.6984 353.4 96.3984 354.9C95.8984 357.1 95.4984 359.3 95.3984 361.5C94.8984 368.2 94.6984 374.8 94.9984 381.5C95.1984 389.4 95.6984 397.3 96.6984 405.2C97.4984 411.8 98.4984 418.6 100.698 424.9C101.998 428.5 104.098 433.5 108.598 433.8C111.498 434 114.598 433.2 117.398 432.6C128.898 430 140.198 426.4 151.398 422.7C166.298 417.9 181.098 412.7 195.798 407.3C209.498 402.2 223.198 396.9 236.498 391C241.398 388.8 246.198 386.6 250.898 384C253.798 382.4 256.998 380.7 259.298 378.3C260.298 377.4 260.898 376.2 260.998 374.9C260.998 371.9 258.398 369.3 255.698 368.5C252.298 367.5 248.698 368 245.298 368.8C241.698 369.6 238.198 370.7 234.698 372.1C233.198 372.7 231.698 373.3 230.198 374L233.098 378C238.298 372.6 242.498 366.2 245.498 359.3C247.598 354.2 248.798 348.6 247.298 343.2C246.098 338.8 242.798 335.4 237.998 336C235.298 336.5 232.798 337.7 230.698 339.5L234.098 343.1C237.098 339.4 239.698 335.3 240.998 330.6C241.798 327.5 241.998 323.9 240.298 321C238.698 318.4 235.898 316.8 232.798 316.9C229.598 317 226.598 318.3 223.798 319.8C218.398 322.8 213.098 326.1 207.998 329.7C202.498 333.5 197.098 337.3 191.698 341.3C188.798 343.4 185.998 345.5 183.198 347.7C181.398 349.2 184.798 352.8 187.098 351.1Z" fill="#000005"/>
<path d="M216.499 367.9L233.899 344.1L236.399 340.7C237.599 339 232.999 337.3 231.899 338.7L214.499 362.5L211.999 366C210.799 367.7 215.399 369.4 216.499 367.9Z" fill="#000005"/>
<path d="M270.3 200.701C246 216.401 232.3 208.601 232 226.901C232 226.901 202.1 260.701 195.9 226.801C194.9 221.601 176.6 156.801 215.2 132.401C215.2 132.401 237.3 120.001 231.6 98.8008C231.6 98.8008 248.7 115.401 265.6 113.601C282.5 111.801 314.8 102.901 319.8 119.401C324.8 135.901 302.7 143.801 288 142.201L287.7 167.201C272.1 172.301 264.3 155.701 264.3 155.701C264.3 155.701 254.8 172.001 258.6 178.601C262.3 185.201 278.7 186.301 278.7 186.301C278.4 192.201 275.3 197.601 270.3 200.701Z" fill="white"/>
<path d="M268.499 200.2C261.299 204.7 253.499 208.2 245.299 210.6C240.499 212.1 234.699 213.7 231.799 218.1C229.999 220.9 229.599 224.1 229.599 227.3L229.799 226.7C227.499 229.2 225.099 231.6 222.399 233.7C221.299 234.7 220.099 235.6 218.799 236.4C217.599 237.2 216.399 237.9 215.199 238.6C214.599 238.9 213.999 239.2 213.399 239.5L212.599 239.8L212.299 239.9C212.099 240 211.799 240.1 211.599 240.1C211.399 240.1 210.999 240.3 210.699 240.4C211.399 240.2 210.399 240.4 210.299 240.5C210.199 240.6 209.899 240.6 209.799 240.6C210.199 240.6 209.199 240.7 209.799 240.6C209.399 240.6 208.999 240.7 208.599 240.7C209.199 240.7 208.299 240.7 208.199 240.7H207.799C207.499 240.6 208.299 240.8 207.699 240.7C207.099 240.6 206.599 240.4 206.099 240.2C204.899 239.6 203.899 238.8 202.999 237.8C200.299 234.6 199.299 230.5 198.499 226.5C197.899 223.4 197.099 220.4 196.499 217.3C193.799 203.9 192.499 190 193.899 176.4C195.499 160.5 201.499 144.5 214.799 134.8C215.199 134.5 215.699 134.2 216.099 133.9C216.199 133.8 217.299 133.1 216.799 133.4C216.999 133.3 217.299 133.1 217.499 133C218.099 132.7 218.599 132.3 219.199 131.9C221.499 130.3 223.599 128.6 225.499 126.6C231.099 121 235.099 113.7 235.099 105.7C235.099 103.3 234.799 100.9 234.199 98.6004L229.399 99.8004C234.999 105.2 241.599 109.5 248.799 112.4C254.399 114.7 260.599 115.6 266.599 114.9C271.199 114.3 275.899 113.5 280.499 112.8C285.499 112 290.599 111.4 295.599 111.1C299.999 110.7 304.499 111 308.899 112.1C312.299 113.1 315.499 115.2 316.999 118.6C318.899 122.6 318.599 127.4 316.399 131.2C314.099 134.9 310.099 137.3 306.099 138.9C301.699 140.6 297.099 141.4 292.399 141.4C291.499 141.4 290.299 141.3 289.299 141.2C288.299 141.1 285.799 141.4 285.799 142.8L285.499 164.7V167.8L287.099 166.4C282.899 167.7 278.399 167 274.899 164.5C272.099 162.6 269.799 160.1 267.999 157.2C267.699 156.8 267.399 156.3 267.199 155.8C267.099 155.7 267.099 155.5 266.999 155.4C266.899 155.3 267.099 155.7 266.999 155.5C266.199 153.9 262.799 154.8 262.099 156.1C259.099 161.3 256.299 167.3 255.599 173.3C255.199 177 255.999 180 259.099 182.3C262.199 184.6 266.199 185.8 269.999 186.6C272.599 187.2 275.199 187.6 277.899 187.8L276.499 187C276.299 192 272.799 197.3 268.499 200.2C267.599 200.8 267.899 201.5 268.799 201.8C269.999 202.1 271.299 201.9 272.299 201.2C277.299 197.9 281.299 192.2 281.199 186C281.199 185.4 280.199 185.3 279.799 185.2C277.899 185.1 275.999 184.8 274.199 184.4C270.599 183.9 267.099 182.7 263.899 180.9C262.599 180.2 261.599 179.1 260.799 177.8C260.199 176.3 259.999 174.8 260.199 173.2C260.699 169.4 261.799 165.7 263.399 162.2C264.399 159.9 265.499 157.8 266.699 155.6L261.799 156.2C264.699 162.4 270.599 167.9 277.399 169.1C281.099 169.7 284.899 169.4 288.399 168.2C289.099 168 289.999 167.6 289.999 166.8L290.299 144.9V141.8L286.899 143.4C292.299 143.9 297.799 143.4 302.999 142C308.099 140.9 312.799 138.6 316.899 135.3C320.399 132.3 322.899 128.3 322.899 123.6C322.999 119.2 321.099 115.1 317.599 112.4C314.099 109.8 309.499 108.8 305.199 108.4C299.899 108 294.599 108.2 289.399 108.8C283.999 109.4 278.599 110.3 273.299 111.1C270.999 111.4 268.799 111.8 266.499 112.1C265.399 112.3 264.199 112.3 263.099 112.3C261.599 112.3 260.199 112.1 258.799 111.8C249.699 110 241.099 104.5 234.299 98.3004L233.899 97.9004C233.099 97.3004 231.999 97.2004 230.999 97.6004C230.399 97.7004 228.799 98.2004 229.099 99.1004C230.599 104.4 230.199 110.1 228.199 115.2C226.399 119.4 223.799 123.1 220.499 126.2C218.499 128.1 216.399 129.9 213.999 131.3C213.799 131.4 213.599 131.5 213.399 131.7C213.699 131.5 213.999 131.3 213.299 131.7C212.599 132.1 212.099 132.5 211.499 132.9C209.299 134.4 207.299 136.1 205.399 138C198.299 144.9 193.699 153.9 191.199 163.4C188.899 172.8 187.899 182.5 188.399 192.1C188.699 200.2 189.599 208.2 191.199 216.1C192.099 220.7 192.999 225.3 194.199 229.9C195.299 234.2 197.099 238.8 200.999 241.2C204.199 243.3 208.399 243.2 211.999 242.3C219.199 240.5 225.399 235.6 230.699 230.6C231.999 229.5 233.299 228.2 234.299 226.9C234.599 226.1 234.699 225.3 234.599 224.5C234.699 223.4 234.799 222.4 235.099 221.3C235.499 219.7 236.199 218.1 237.299 216.9C237.799 216.4 238.299 215.9 238.899 215.5C239.499 215.1 240.099 214.8 240.799 214.5C241.199 214.3 241.599 214.1 241.999 214C242.099 213.9 242.199 213.9 242.299 213.9L242.999 213.6C243.999 213.2 245.099 212.9 246.099 212.6C251.599 211 256.999 209 262.199 206.6C265.599 205 268.999 203.1 272.199 201C273.099 200.4 272.799 199.6 271.899 199.4C270.799 199.3 269.499 199.5 268.499 200.2Z" fill="#000005"/>
<path d="M177.498 192.601C177.498 192.601 157.098 205.401 149.698 194.501C142.298 183.601 158.598 170.101 158.598 170.101C158.598 170.101 155.298 147.501 154.698 150.901C154.698 150.901 146.498 137.801 155.998 115.701C165.498 93.6006 162.098 118.101 162.098 118.101C162.098 118.101 155.698 106.701 179.798 102.801C203.898 98.9006 205.498 85.7006 205.498 85.7006C205.498 85.7006 229.298 68.6006 239.298 86.1006C244.098 94.5006 232.598 102.301 232.598 102.301C232.598 102.301 236.698 130.001 215.298 132.501L206.198 171.701C206.198 171.701 216.798 181.601 213.198 196.401C209.598 211.201 181.798 210.001 177.498 192.601Z" fill="#000005"/>
<path d="M176 191.9C174.7 192.7 173.4 193.4 172 194.1C171.6 194.3 172.5 193.9 171.9 194.2L171.5 194.4L170.5 194.9C169.7 195.3 168.9 195.6 168 195.9C167.6 196 167.3 196.2 166.9 196.3L166.3 196.5C166.7 196.4 166.2 196.5 166.2 196.5C165.3 196.8 164.4 197 163.4 197.2C162.7 197.4 162 197.5 161.3 197.5C160.5 197.6 159.8 197.6 159 197.6C157.6 197.5 156.2 197.1 154.9 196.5C151.8 194.6 150 191.2 150.2 187.6C150.3 181.3 155.2 175.4 159.5 171.4C160 171.1 160.4 170.7 160.8 170.2C161 169.6 161 169 160.8 168.5C160.4 166.1 160.1 163.6 159.7 161.2C159.2 158.1 158.7 155 158 151.9C157.9 151.1 157.6 150.4 157.2 149.8C156 148.5 152.6 149.6 152.3 151.3L157 150.1C156.8 149.8 157.2 150.4 156.9 150C156.6 149.6 156.5 149.2 156.3 148.8C155.7 147.4 155.2 146 154.9 144.5C153.6 139.1 153.5 133.5 154.6 128.1C155.3 124 156.5 120.1 158.1 116.2C159.1 113.4 160.5 110.7 162 108.2C162.2 107.9 162.4 107.6 162.7 107.3C162.5 107.4 162.3 107.5 162.1 107.6C161.3 107.8 160.5 107.9 159.7 107.7C159.8 107.7 159.5 107.7 159.6 107.6C159.7 107.7 159.7 107.7 159.7 107.8C159.6 107.5 159.6 107.7 159.7 107.9C160 109 160.1 110.2 160.1 111.4C160.1 113.8 159.9 116.2 159.5 118.5L164.4 117.6C164.2 117.2 164 116.8 163.9 116.4C163.8 116 163.7 115.5 163.6 115.1C163.5 114.6 163.5 114.1 163.6 113.6C164.1 109.9 167.2 107.9 170.3 106.6C173.9 105.1 177.8 104.5 181.7 103.8C185.6 103.1 189.4 102 193.1 100.4C197.7 98.4 202.2 95.5 205.2 91.3C206.5 89.6 207.4 87.6 207.8 85.5L207.3 86.2C207.7 86 206.7 86.6 207.2 86.2L208.2 85.5C209.3 84.8 210.4 84.2 211.6 83.5L212.7 82.9L213.3 82.6L213.5 82.5C214.4 82.1 215.4 81.7 216.3 81.3C216.8 81.1 217.2 81 217.7 80.8C217.7 80.8 218.5 80.5 218 80.7L218.5 80.5C219 80.4 219.5 80.2 220 80.1L220.7 79.9C220.8 79.9 221.7 79.7 221.3 79.8C225 79.1 228.9 79.4 232.3 81.8C236.2 84.6 238.9 89.4 237.1 94.1C236.2 96.1 234.9 98 233.3 99.5C232.7 100.1 232 100.7 231.4 101.2C231.2 101.4 230 102.2 231 101.6C230.5 101.9 230 102.3 230.1 102.9C230.5 105.9 230.5 108.9 230.2 111.8C229.7 117.1 228.2 123 224.4 126.9C223.3 128.1 222 129.1 220.5 129.8C218.9 130.5 217.3 131 215.6 131.2C214.7 131.3 213.1 131.8 212.8 132.8L209.2 148.5L204.2 170.1C204 170.7 203.9 171.3 203.8 171.9C203.7 172.6 204.3 172.9 204.7 173.4C207.3 176.3 209.3 179.8 210.4 183.6C211.3 186.4 211.6 189.4 211.4 192.4C211.3 194.9 210.7 197.5 209.5 199.7C209.1 200.4 208.6 201.1 208 201.7C207.7 202 207.3 202.3 207 202.6C206.7 202.8 206.4 203 206.1 203.2C205.7 203.5 205.3 203.7 204.9 203.9C205.2 203.7 204.8 204 204.6 204L203.8 204.3L203.2 204.5C203.6 204.4 203.1 204.5 203 204.6C202.5 204.7 202 204.9 201.4 205C201.8 204.9 201.3 205 201.1 205L200.4 205.1L199.6 205.2C199.4 205.2 199.3 205.2 199.1 205.2C198.1 205.2 197 205.2 196 205.1C194 204.9 192.1 204.4 190.3 203.6C186.3 202 183.1 199 181.2 195.2C180.7 194.2 180.3 193.1 180.1 192C179.7 190.4 174.8 191.6 175.2 193.2C178 204.1 190 209.3 200.4 207.7C205.4 206.9 210.7 204.8 213.6 200.5C217.2 195.3 216.9 187.5 215 181.7C213.7 177.6 211.4 173.9 208.4 170.8L208.6 171.4L216.6 137L217.7 132.2L214.9 133.8C219.1 133.4 223.2 131.8 226.6 129.3C229.2 127.3 231.2 124.6 232.5 121.6C234.8 116.6 235.4 110.8 235.3 105.4C235.3 104.2 235.2 102.9 235 101.7L234 103C237.4 100.8 240.2 97.7 241.9 94C244.4 88.3 240.8 82.4 235.9 79.3C231.2 76.3 225.2 76.5 220 77.7C215.4 78.8 211 80.6 207 83.1C205.7 83.9 203.4 84.8 203 86.4C202.5 88.5 201.5 90.4 200.1 92C197.3 95.5 193.2 97.8 188.8 99.4C181.9 101.9 174.3 101.9 167.6 105C164.1 106.6 160.3 109.1 159.2 113.1C158.7 114.9 158.8 116.8 159.6 118.4C159.6 118.5 159.7 118.6 159.7 118.7C160.2 119.5 161.3 119.5 162.1 119.3C162.9 119.1 164.4 118.7 164.5 117.8C164.8 115.4 165 113 165.1 110.6C165.2 109.2 165.1 107.9 164.8 106.5C164.1 104.4 161.4 104.8 159.8 105.7C158 106.7 157 108.7 156.1 110.4C154.1 114.2 152.5 118.3 151.2 122.4C149.1 129 148.5 136.1 149.5 142.9C149.9 146 150.9 149 152.4 151.7C153.2 152.9 156.8 151.8 157.1 150.5C157.1 150.4 157.1 150.4 157.1 150.3C157 151 153.3 151 152.6 151.4L152.7 151.5C152.8 152 153 152.4 153.1 152.9C153.5 154.4 153.8 155.9 154 157.5C154.6 161.1 155.2 164.6 155.8 168.2C155.9 169.1 156 169.9 156.2 170.8L156.7 169.8C154.4 171.7 152.4 173.9 150.6 176.2C147.6 180.1 144.9 185 145.4 190C145.9 195.1 149.7 199.1 154.8 200C159.9 200.9 165.2 199.6 170 197.8C173.1 196.6 176.1 195.2 179 193.4C179.7 193 180.4 192.1 179.5 191.6C178.6 191.1 176.9 191.3 176 191.9Z" fill="#000005"/>
<path d="M220.199 136.5C220.199 136.5 211.399 119.4 199.599 127.1C187.799 134.8 195.599 177 218.299 168.5" fill="white"/>
<path d="M222.099 136.101C219.699 131.501 215.799 126.901 211.099 124.501C207.499 122.501 203.099 122.501 199.399 124.301C196.999 125.501 195.099 127.501 193.999 129.901C191.399 135.201 191.599 141.801 192.399 147.501C193.399 153.801 195.799 160.301 199.999 165.101C202.299 167.801 205.299 169.801 208.699 170.901C212.399 171.901 216.299 171.701 219.799 170.301C220.899 169.901 220.399 168.201 219.799 167.501C219.099 166.501 217.799 166.101 216.699 166.401C215.399 166.901 213.999 167.201 212.499 167.301C211.899 167.401 211.399 167.401 210.799 167.301C210.499 167.301 210.299 167.201 209.999 167.201L209.499 167.101C208.999 167.001 209.599 167.101 209.199 167.001C208.599 166.901 208.099 166.701 207.499 166.501C206.899 166.301 207.599 166.601 207.099 166.301C206.799 166.101 206.499 166.001 206.199 165.801C205.899 165.601 205.699 165.501 205.499 165.301C205.999 165.701 205.299 165.101 205.499 165.301L205.199 165.101C204.699 164.701 204.199 164.301 203.699 163.801L203.299 163.401L202.799 162.801C202.399 162.301 201.899 161.701 201.499 161.101C201.099 160.501 201.699 161.301 201.399 161.001L201.099 160.601C200.899 160.301 200.799 160.001 200.599 159.801C200.199 159.201 199.899 158.501 199.599 157.901C198.999 156.701 198.499 155.401 198.099 154.101C197.699 152.701 197.299 151.301 196.999 149.901C195.999 144.901 195.799 139.201 197.399 134.301C197.899 132.401 198.999 130.601 200.499 129.301C200.899 129.001 200.399 129.301 200.799 129.001C201.099 128.801 201.299 128.601 201.599 128.501C202.399 128.001 203.299 127.601 204.199 127.401C205.599 127.001 207.099 127.001 208.499 127.401C209.199 127.601 209.899 127.801 210.499 128.201C210.899 128.401 211.299 128.601 211.599 128.901C211.899 129.201 211.099 128.501 211.699 129.001C211.899 129.101 212.099 129.301 212.299 129.401C212.499 129.501 212.899 129.901 213.199 130.201L213.699 130.701C214.099 131.101 213.499 130.501 213.899 130.901C214.299 131.301 214.899 132.001 215.399 132.701C215.899 133.401 216.299 133.801 216.599 134.401L216.799 134.801C217.199 135.301 216.599 134.501 216.899 134.901L217.299 135.501C217.599 135.901 217.799 136.401 218.099 136.901C218.699 138.001 219.799 138.701 221.099 138.601C222.399 138.301 222.599 137.101 222.099 136.101Z" fill="#000005"/>
<path d="M247.7 124.4C247.7 124.4 251.3 124.6 250.8 128C250.3 131.4 246.2 130.9 245.6 127.8C245.2 126.4 245.9 124.9 247.3 124.5C247.5 124.4 247.6 124.4 247.7 124.4Z" fill="#000005"/>
<path d="M158.6 170.101C158.6 170.101 218 76.7006 217.3 67.7006C216.6 58.7006 188.7 92.1006 188.7 92.1006C188.7 92.1006 164.4 78.6006 142.5 104.501C120.6 130.401 158.6 170.101 158.6 170.101Z" fill="white"/>
<path d="M161 169.6C164.7 163.8 168.4 157.9 172 152.1C179.8 139.5 187.5 126.9 195.1 114.3C202.1 102.6 209.1 90.8003 215.2 78.6003C216.8 75.4003 218.7 72.0003 219.5 68.5003C219.7 67.5003 219.9 66.2003 219 65.5003C218.1 64.8003 216.3 65.2003 215.3 65.5003C214 65.9003 212.8 66.4003 211.7 67.1003C209.4 68.6003 207.2 70.3003 205.3 72.3003C202.7 74.7003 200.3 77.1003 197.9 79.7003C194.2 83.6003 190.6 87.6003 187.2 91.7003L186.6 92.4003L191 91.3003C186.4 88.8003 180.7 87.7003 175.5 87.6003C162.8 87.4003 150.9 93.3003 142.4 102.5C138.6 106.6 135.5 111.3 134.2 116.8C133.2 121.5 133.1 126.4 134 131.2C135.8 140.6 140.3 149.4 145.6 157.4C147.7 160.5 149.9 163.5 152.3 166.4C153.4 168 154.7 169.4 156.1 170.8C156.2 170.9 156.2 170.9 156.3 171C157.1 171.9 161.5 170.1 160.8 169.3C157.8 166.1 155.1 162.7 152.6 159.2C147.4 152 142.8 144 140.2 135.5C137.4 126.4 137.1 116.4 142.1 108.1C145.6 102.6 150.3 97.9003 155.9 94.4003C160 91.7003 164.7 90.2003 169.5 89.8003C175.2 89.4003 180.9 90.5003 186.1 93.0003L186.4 93.1003C187.4 93.7003 190.1 92.9003 190.8 92.0003C193.3 89.0003 195.9 86.1003 198.5 83.2003C202.8 78.3003 207.4 73.6003 212.4 69.4003C213.3 68.7003 214.2 68.0003 215.1 67.4003C215.2 67.3003 216 66.9003 215.4 67.2003L215.9 66.9003L215.4 67.1003C215.6 67.0003 215.9 67.0003 215 67.2003C214.8 67.2003 214.6 67.2003 214.4 67.3003C214.3 67.1003 214.2 67.3003 214.4 67.3003C214.2 67.1003 214.4 67.3003 214.5 67.4003C214.6 67.6003 214.7 67.8003 214.8 68.0003C214.9 68.3003 214.9 68.5003 214.9 68.8003C214.9 68.9003 214.9 69.1003 214.9 69.2003C214.3 72.4003 212.5 75.6003 211.1 78.5003C205.3 90.2003 198.6 101.4 192 112.6C184.6 125.2 177 137.6 169.2 150C166.4 154.6 163.5 159.2 160.6 163.7C159.2 165.9 157.6 168.1 156.4 170.4L156.2 170.7C155.7 171.4 158 171.1 158.1 171.1C159.1 170.8 160.4 170.5 161 169.6Z" fill="#000005"/>
<path d="M184.599 95.6006C181.999 100.601 167.399 122.301 164.799 127.301Z" fill="white"/>
<path d="M182.499 94.7999C180.399 98.7999 177.899 102.5 175.399 106.2C172.199 111.1 168.999 116 165.899 121C164.799 122.8 163.599 124.6 162.599 126.5C161.099 129.3 165.599 130.8 166.999 128.3C168.999 124.3 171.599 120.6 174.099 116.9C177.299 112 180.499 107.1 183.599 102.1C184.699 100.3 185.899 98.4998 186.799 96.5998C188.299 93.6998 183.799 92.1999 182.499 94.7999Z" fill="#000005"/>
<path d="M412.7 120.3C431.864 120.3 447.4 104.765 447.4 85.6004C447.4 66.4361 431.864 50.9004 412.7 50.9004C393.536 50.9004 378 66.4361 378 85.6004C378 104.765 393.536 120.3 412.7 120.3Z" fill="#68BA7F"/>
<path d="M445.099 85.3001C444.899 98.9001 436.399 111.1 423.699 115.9C410.899 120.6 396.499 116.8 387.699 106.3C378.999 95.9001 378.099 80.5001 385.199 68.9001C392.399 57.3001 405.999 51.2 419.399 53.8C432.499 56.4 442.599 66.9 444.799 80.1C444.999 81.8 445.099 83.6001 445.099 85.3001C445.099 88.1001 449.699 89.0001 449.699 85.8001C449.499 70.2001 439.799 56.3 425.199 50.8C410.799 45.5 393.899 49.8001 384.199 61.7001C374.299 73.9001 373.099 90.9001 381.099 104.4C389.299 117.8 404.899 124.7 420.299 121.8C435.299 118.7 446.899 106.7 449.299 91.5C449.599 89.6 449.699 87.7 449.699 85.7C449.699 83.1 445.099 82.1001 445.099 85.3001Z" fill="#68BA7F"/>
<path d="M399.299 81.6002C400.899 85.6002 403.099 89.3002 405.699 92.7002C406.899 94.3002 408.299 95.8002 409.799 97.1002C410.399 97.7002 411.199 98.1002 412.099 98.1002C412.899 97.9002 413.699 97.4002 414.199 96.8002C420.399 90.7002 425.999 84.0002 430.999 76.8002C431.799 75.6002 428.499 72.2002 428.099 72.7002C423.899 78.7002 419.299 84.4002 414.199 89.8002C413.099 91.2002 411.799 92.4002 410.399 93.6002C408.899 94.7002 407.799 93.0002 406.799 91.9002C404.799 89.6002 403.199 86.9002 401.999 84.0002C401.599 82.9002 400.899 81.9002 399.999 81.1002C399.499 80.6002 398.899 80.8002 399.299 81.6002Z" fill="white"/>
<path d="M380.499 115.3H375.899C375.399 115.4 374.899 115.7 374.599 116.2C374.399 116.7 374.399 117.3 374.599 117.8C374.799 118.4 375.199 119 375.799 119.3L376.399 119.6C376.799 119.7 377.099 119.8 377.499 119.8H381.999C382.499 119.7 382.999 119.4 383.299 119C383.499 118.5 383.499 117.9 383.299 117.4C383.099 116.8 382.699 116.2 382.099 115.9L381.599 115.6C381.199 115.3 380.799 115.3 380.499 115.3Z" fill="#68BA7F"/>
<path d="M405.799 130.5V135.8C405.799 136 406.599 136 406.599 136C407.199 136 407.799 135.9 408.399 135.8C408.999 135.7 409.599 135.6 410.099 135.4C410.299 135.3 410.799 135.2 410.799 135V129.7C410.799 129.5 409.999 129.5 409.999 129.5C409.399 129.5 408.799 129.6 408.199 129.7C407.599 129.8 406.999 129.9 406.499 130.1C406.299 130.2 405.799 130.3 405.799 130.5Z" fill="#68BA7F"/>
</svg>
