<svg width="300" height="300" viewBox="0 0 300 300" fill="none" xmlns="http://www.w3.org/2000/svg">
<path d="M43.9219 114.781C44.5219 117.181 45.8419 119.401 47.6419 121.081C47.8819 121.321 48.1819 121.561 48.5419 121.681C48.7219 121.741 49.0219 121.801 49.2019 121.681C49.6219 121.261 48.8419 120.421 48.6019 120.181C48.3619 119.941 48.2419 119.821 48.1219 119.701C47.9419 119.521 48.0619 119.641 48.1219 119.701C48.1819 119.761 48.3019 119.881 48.1219 119.701C48.0619 119.641 47.9419 119.521 47.8819 119.401C47.8219 119.281 47.7619 119.221 47.7019 119.161L47.5819 119.041L47.5219 118.981L47.4019 118.801C47.3419 118.681 47.2819 118.561 47.2219 118.501L47.0419 118.201L46.9819 118.081C46.9219 117.961 46.9819 118.081 47.0419 118.141C46.9219 117.961 46.8019 117.721 46.7419 117.481C46.6219 117.241 46.5619 117.001 46.5019 116.821L46.4419 116.641L46.3819 116.521C46.4419 116.641 46.3819 116.461 46.3819 116.461L46.3219 116.281C46.1419 115.621 45.6619 115.021 45.0019 114.661C44.7619 114.481 44.5219 114.421 44.2219 114.481C43.9819 114.361 43.9219 114.601 43.9219 114.781Z" fill="#2E6F40"/>
<path d="M102.48 102.66L106.44 112.92C106.74 113.64 107.52 114 108.24 113.82C109.02 113.52 108.9 112.68 108.72 112.08L104.76 101.82C104.46 101.1 103.68 100.74 102.96 100.92C102.18 101.28 102.24 102.06 102.48 102.66Z" fill="#2E6F40"/>
<path d="M143.462 83.7604C143.402 88.3204 143.642 92.9404 144.302 97.4404C144.482 98.2204 145.142 98.7604 145.922 98.7604C146.762 98.7004 146.942 97.9804 146.882 97.3204C146.282 93.0004 146.042 88.6804 146.162 84.3604C146.162 83.5804 145.622 82.9204 144.842 82.6804C144.302 82.5604 143.702 82.8604 143.582 83.4604C143.462 83.5204 143.462 83.6404 143.462 83.7604Z" fill="#2E6F40"/>
<path d="M176.523 58.4403V70.0203C176.523 71.8203 179.343 71.1603 179.343 69.6003V58.0203C179.403 56.2203 176.523 56.8803 176.523 58.4403Z" fill="#2E6F40"/>
<path d="M199.32 74.5201V82.2601C199.32 82.6201 200.7 82.2601 200.88 82.2001C201.24 82.1401 201.54 81.9601 201.9 81.8401C202.02 81.7801 202.26 81.6601 202.26 81.4801V73.7401C202.26 73.3801 200.88 73.7401 200.7 73.7401C200.34 73.8001 200.04 73.9801 199.68 74.1001C199.5 74.2201 199.32 74.3401 199.32 74.5201Z" fill="#2E6F40"/>
<path d="M225.12 115.26L227.82 123.42C228 124.02 228.96 124.26 229.5 124.26C229.8 124.26 230.88 124.26 230.7 123.66L228 115.5C227.82 114.9 226.86 114.66 226.32 114.66C225.96 114.66 224.88 114.66 225.12 115.26Z" fill="#2E6F40"/>
<path d="M253.259 114.18C253.259 117.54 252.959 120.9 252.359 124.14C252.239 124.92 252.599 125.64 253.259 126.06C253.799 126.36 254.639 126.36 254.759 125.64C255.479 122.16 255.779 118.56 255.779 115.02C255.779 114.24 255.239 113.58 254.519 113.28C254.039 113.1 253.499 113.34 253.319 113.82C253.259 113.88 253.259 114 253.259 114.18Z" fill="#2E6F40"/>
<path d="M265.206 144.481L271.626 141.481C272.106 141.241 272.586 140.641 272.046 140.221C271.446 139.801 270.606 139.801 269.946 140.101L263.526 143.101C263.046 143.341 262.566 143.941 263.106 144.361C263.766 144.781 264.546 144.841 265.206 144.481Z" fill="#2E6F40"/>
<path d="M77.2838 121.081V110.041C77.2238 109.321 76.6837 108.721 75.9637 108.721C75.4237 108.661 74.3438 108.901 74.3438 109.681V120.721C74.4038 121.441 74.9437 122.041 75.6637 122.041C76.2037 122.041 77.2838 121.801 77.2838 121.081Z" fill="#2E6F40"/>
<path d="M194.701 150.54C194.701 150.54 184.561 128.1 182.761 124.98C182.761 124.98 165.661 117.24 167.821 113.76C169.981 110.28 177.061 113.4 177.061 113.4C177.061 113.4 170.161 97.7999 172.621 95.8799C175.081 93.9599 182.821 105.42 182.821 105.42C182.821 105.42 177.301 91.3799 181.081 91.3799C184.861 91.3799 188.641 102.12 188.641 102.12C188.641 102.12 187.021 93.4199 189.901 93.8999C192.781 94.3799 202.141 118.86 202.141 118.86C202.141 118.86 227.341 150.48 221.041 165.42C214.741 180.36 200.161 183.72 200.161 183.72L187.081 152.76L194.701 150.54Z" fill="#FFFFFE"/>
<path d="M196.078 149.94C192.778 142.68 189.538 135.48 186.118 128.28C185.698 127.5 185.338 126.66 184.918 125.82C184.738 125.34 184.438 124.8 184.138 124.38C183.898 124.14 183.598 123.96 183.298 123.9C182.638 123.6 181.978 123.3 181.378 122.94C179.398 121.92 177.418 120.9 175.498 119.76C173.578 118.68 171.778 117.42 170.218 115.92C169.618 115.44 169.198 114.72 169.018 114C169.018 113.76 169.078 113.46 169.318 113.28C169.438 113.16 169.558 113.04 169.678 112.98C169.378 113.16 169.918 112.92 169.618 112.98C169.618 112.98 170.038 112.86 169.858 112.92C171.778 112.56 174.118 113.28 175.978 114.06C176.518 114.3 178.798 113.52 178.438 112.74C176.578 108.72 175.138 104.58 173.998 100.32C173.698 99.2396 173.518 98.0996 173.458 96.9596C173.458 96.7796 173.458 96.5996 173.518 96.4196C173.518 96.2996 173.578 96.2396 173.578 96.1196C173.578 95.9996 173.638 95.8196 173.578 95.9996C173.578 95.9396 173.638 95.8796 173.698 95.8196C173.518 95.9396 173.758 95.7596 173.698 95.8196C173.398 96.0596 173.098 96.1796 172.798 96.2996C172.498 96.4196 172.498 96.3596 172.618 96.3596C172.498 96.3596 172.438 96.3596 172.438 96.3596C172.558 96.4196 172.558 96.3596 172.558 96.4196L172.858 96.5396C172.918 96.5396 173.218 96.7196 173.398 96.8396C173.878 97.1396 174.298 97.4996 174.718 97.9196C175.738 98.8796 176.698 99.8396 177.598 100.92C178.918 102.54 180.178 104.22 181.378 105.96C181.918 106.68 184.498 105.72 184.138 104.82C182.818 101.58 181.858 98.2196 181.318 94.7996C181.138 93.9596 181.138 93.0596 181.318 92.2196C181.318 92.1596 181.378 92.0396 181.378 91.9796C181.438 91.7396 181.318 92.0996 181.378 91.9196C181.378 91.8596 181.498 91.7996 181.498 91.7396C181.378 91.7996 181.498 91.5596 181.498 91.7396C181.198 91.9196 180.838 92.0996 180.478 92.2196C180.058 92.2796 180.478 92.2796 180.358 92.2196C180.478 92.2796 180.658 92.2796 180.778 92.3396C181.678 92.7596 182.398 93.3596 182.938 94.1996C183.718 95.2196 184.438 96.3596 185.038 97.4996C185.938 99.1796 186.658 100.92 187.318 102.72C187.618 103.56 190.258 102.48 190.078 101.58C189.778 100.14 189.658 98.6996 189.658 97.1996C189.598 96.2996 189.718 95.3996 189.958 94.5596C190.018 94.4996 190.078 94.3796 190.078 94.3196C190.078 94.3796 190.138 94.0796 190.078 94.3196L190.138 94.2596C190.018 94.3196 189.958 94.4396 189.838 94.4996C189.598 94.6796 189.298 94.7396 188.998 94.7396C188.878 94.7396 188.998 94.7996 188.998 94.7396C188.998 94.6796 189.118 94.7996 189.178 94.8596C190.138 95.5796 190.738 96.8396 191.398 97.9196C192.478 99.7796 193.378 101.7 194.278 103.68C196.138 107.64 197.818 111.72 199.438 115.8C199.858 116.94 200.338 118.02 200.758 119.16C200.878 119.46 201.058 119.7 201.238 119.94C205.858 125.88 209.998 132.24 213.598 138.84C216.118 143.28 218.158 147.96 219.598 152.88C220.738 156.84 221.398 161.34 219.958 165.3C217.978 170.76 213.898 175.56 209.158 178.86C208.258 179.46 207.358 180.06 206.398 180.6C205.978 180.84 205.558 181.08 205.078 181.26L204.718 181.44L204.598 181.5L204.478 181.56L204.058 181.74C203.398 182.04 202.678 182.34 201.958 182.58C201.838 182.64 201.298 182.82 201.838 182.64L201.538 182.76C201.358 182.82 201.118 182.88 200.938 182.94L200.458 183.06L201.718 183.24L197.278 172.74L190.258 156.06L188.638 152.22L187.138 153.48L194.878 151.32C195.358 151.2 196.378 150.78 196.438 150.24C196.498 149.7 195.478 149.82 195.178 149.88L187.438 152.04C187.078 152.16 185.638 152.7 185.938 153.3L190.378 163.74L197.398 180.42L199.018 184.26C199.198 184.68 199.978 184.5 200.278 184.44C202.978 183.72 205.498 182.7 207.898 181.32C213.058 178.5 217.378 174.42 220.498 169.44C221.878 167.16 223.198 164.7 223.558 162C223.858 159.84 223.798 157.62 223.378 155.46C222.538 150.36 220.498 145.44 218.218 140.82C214.378 133.26 209.818 126.06 204.598 119.34C204.298 119.04 204.058 118.68 203.818 118.32C203.398 117.48 203.098 116.58 202.798 115.68C201.178 111.54 199.498 107.4 197.638 103.32C196.738 101.28 195.778 99.2396 194.698 97.2596C193.978 95.9996 193.258 94.5596 192.178 93.5396C190.738 92.2196 188.098 93.4796 187.498 95.0996C186.778 96.9596 187.138 99.2396 187.378 101.16C187.438 101.64 187.498 102.12 187.618 102.6L190.378 101.46C189.778 99.7796 189.058 98.0996 188.218 96.5396C187.558 95.2196 186.838 94.0196 185.938 92.8796C185.278 91.9196 184.318 91.1396 183.238 90.6596C181.918 90.2396 180.478 90.5996 179.518 91.5596C178.978 92.1596 178.678 92.9996 178.678 93.8396C178.618 96.2396 179.338 98.6996 180.058 100.92C180.598 102.6 181.138 104.28 181.798 105.9L184.558 104.76C183.418 103.14 182.218 101.52 181.018 100.02C180.058 98.8196 179.038 97.7396 177.958 96.6596C177.178 95.8196 176.158 95.1596 175.078 94.7996C173.638 94.4996 172.198 95.0996 171.418 96.2996C170.938 97.1996 171.058 98.3396 171.238 99.2396C171.658 102.18 172.678 105.12 173.698 107.88C174.418 109.92 175.258 111.9 176.098 113.88L178.558 112.56C176.758 111.78 174.838 111.3 172.858 111.24C171.238 111.18 169.618 111.66 168.238 112.56C167.458 113.1 166.618 114 166.738 115.02C166.918 116.64 168.838 118.02 170.038 118.92C172.018 120.36 174.058 121.62 176.218 122.76C177.838 123.66 179.518 124.5 181.198 125.28C181.378 125.34 181.558 125.46 181.738 125.52C181.918 125.58 181.738 125.4 181.858 125.58C182.158 126.18 182.458 126.72 182.758 127.32C184.918 131.7 186.958 136.2 188.998 140.64C190.018 142.86 191.038 145.02 191.998 147.24C192.538 148.44 193.018 149.7 193.618 150.84C193.618 150.9 193.678 150.96 193.678 151.02C193.678 151.92 196.438 150.78 196.078 149.94Z" fill="#101013"/>
<path d="M179.037 113.58C180.537 113.28 182.157 112.5 183.717 112.8C184.257 112.92 184.737 113.16 185.217 113.4C185.997 113.76 186.717 114.24 187.497 114.66C188.097 114.96 188.757 115.2 189.477 115.26C189.657 115.26 190.617 115.38 190.077 115.08C187.977 113.76 185.697 112.8 183.297 112.26C182.157 111.96 181.017 111.9 179.817 112.02C178.617 112.14 177.477 112.62 176.337 112.86C176.037 112.92 177.237 113.4 177.297 113.4C177.777 113.52 178.377 113.64 179.037 113.58Z" fill="#101013"/>
<path d="M180.536 240.599C180.536 240.599 178.616 216.599 172.676 194.879L199.976 183.719L186.896 152.699L153.656 161.579C152.456 161.039 151.196 160.679 149.936 160.559C145.496 160.139 141.716 162.599 138.476 166.919C122.696 166.679 100.676 188.099 96.6562 194.339L123.896 216.179L124.736 211.619C122.336 227.879 121.676 241.739 121.676 241.739" fill="#FFFFFE"/>
<path d="M181.918 241.08C181.198 232.38 179.938 223.74 178.438 215.22C177.778 211.5 177.058 207.78 176.218 204.12C175.798 202.2 175.318 200.22 174.838 198.3C174.598 197.4 174.298 196.56 174.178 195.66C174.058 195.06 174.058 195.54 174.178 195.36C174.418 195.24 174.718 195.12 174.958 195.06L176.398 194.46L180.838 192.66L200.698 184.56C200.818 184.5 201.298 184.44 201.358 184.32C201.418 184.2 201.358 184.26 201.298 184.14C201.238 183.84 201.118 183.6 200.938 183.3L200.338 181.92L196.258 172.2L188.458 153.72L188.338 153.36C188.218 153.06 187.438 152.82 187.198 152.76C186.838 152.58 186.058 152.16 185.638 152.28L174.358 155.28L156.538 160.02L152.398 161.1L154.198 161.64C151.378 160.44 148.198 159.54 145.138 160.38C142.498 161.1 140.218 162.84 138.418 164.94C138.058 165.36 137.518 166.38 136.918 166.44C136.318 166.5 135.838 166.44 135.358 166.5C134.338 166.56 133.318 166.74 132.298 166.98C130.138 167.46 128.038 168.18 125.998 169.08C121.498 171.12 117.238 173.64 113.278 176.64C109.438 179.46 105.838 182.52 102.418 185.88C99.8984 188.34 97.3184 190.92 95.3984 193.86V193.92L104.578 201.3L119.218 213L122.578 215.7C122.818 215.88 125.278 216.96 125.338 216.66L126.178 212.1L123.358 211.02C121.978 220.38 120.958 229.8 120.418 239.22C120.358 239.88 120.358 240.48 120.298 241.14C120.298 241.44 121.438 241.74 121.618 241.86C121.738 241.92 123.058 242.34 123.058 242.22C123.358 235.62 124.018 229.02 124.798 222.42C125.218 219 125.638 215.52 126.178 212.1C126.238 211.68 123.358 210.96 123.358 211.02L122.518 215.58L125.278 216.54L119.338 211.8L107.578 202.38L98.7584 195.3C98.6384 195.18 98.0984 194.94 98.0984 194.76C98.1584 194.64 98.2784 194.52 98.3984 194.4C98.6384 194.1 98.8784 193.8 99.0584 193.44C100.498 191.64 101.998 189.96 103.618 188.34C108.118 183.72 113.038 179.58 118.318 175.92C123.658 172.26 129.598 168.84 136.018 167.7C136.678 167.58 137.398 167.46 138.118 167.46C138.478 167.46 138.778 167.4 139.138 167.4C139.618 167.4 139.798 167.46 140.098 167.1C141.298 165.48 142.738 164.04 144.418 162.9C145.978 161.82 147.718 161.22 149.578 161.04C150.598 160.98 151.618 161.04 152.578 161.34C153.358 161.58 154.198 162.18 154.978 162.12C155.758 162 156.538 161.76 157.318 161.52L162.778 160.08L177.478 156.18L187.678 153.48L188.218 153.36L185.458 152.28L192.178 168.24L196.738 178.92L198.118 182.22C198.178 182.4 198.598 183.06 198.478 183.24C198.358 183.42 197.938 183.48 197.818 183.54L196.498 184.08L192.178 185.82L180.658 190.5L172.078 193.98C171.898 194.04 171.478 194.16 171.358 194.28C171.238 194.4 171.238 193.92 171.358 194.58C171.538 195.54 171.898 196.5 172.138 197.46C173.098 201.24 173.938 205.02 174.658 208.8C176.698 218.94 178.198 229.2 179.098 239.52C179.098 239.7 179.098 239.82 179.158 240C179.158 240.3 180.298 240.6 180.478 240.72C180.958 240.9 181.438 241.02 181.918 241.08Z" fill="#101013"/>
<path d="M133.74 147.06C133.74 147.06 131.34 130.56 145.5 127.32C159.66 124.08 174.66 137.58 172.14 154.86C169.62 172.14 148.38 170.16 148.38 170.16L133.74 147.06Z" fill="#101013"/>
<path d="M135.179 147.059L135.119 146.759C135.179 147.119 135.119 146.699 135.119 146.579L135.059 146.099C134.999 145.139 134.999 144.119 135.059 143.159C135.179 140.339 135.839 137.579 137.099 134.999C138.719 131.879 141.539 129.539 144.899 128.459C148.679 127.259 152.819 127.439 156.479 128.939C164.879 132.299 170.459 140.879 170.819 149.759C170.999 153.899 170.339 158.219 167.939 161.699C166.139 164.279 163.619 166.259 160.679 167.399C159.419 167.939 158.099 168.359 156.719 168.659C156.059 168.779 155.399 168.959 154.739 169.019C154.439 169.079 154.139 169.139 153.779 169.139L153.359 169.199H153.119C153.299 169.199 153.299 169.199 153.119 169.199C152.099 169.259 151.079 169.319 150.059 169.319C149.699 169.319 149.339 169.319 148.979 169.319H148.619C148.199 169.319 149.039 169.439 148.679 169.319C148.619 169.319 148.499 169.319 148.439 169.319L149.639 169.919L144.659 162.119L136.799 149.639L134.939 146.759C134.399 145.859 131.459 145.979 132.239 147.239L144.179 166.139L146.519 169.859C146.639 170.039 146.759 170.219 146.879 170.399C147.299 170.819 147.899 170.999 148.439 170.999C151.439 171.179 154.499 170.999 157.439 170.399C161.939 169.499 166.379 167.579 169.439 164.039C173.519 159.419 174.299 152.699 173.279 146.759C172.139 140.219 168.479 134.399 163.079 130.499C157.799 126.719 150.959 124.979 144.599 126.419C141.719 127.019 139.019 128.399 136.919 130.379C135.239 132.059 133.979 134.099 133.199 136.319C132.059 139.499 131.699 142.859 131.999 146.219C131.999 146.459 132.059 146.699 132.059 146.939C132.419 148.139 135.359 148.319 135.179 147.059Z" fill="#101013"/>
<path d="M131.336 161.099C127.676 154.199 136.376 133.859 136.376 133.859C140.876 129.119 158.276 136.139 158.276 136.139C154.676 141.119 153.716 150.179 153.716 150.179C156.836 145.739 162.116 148.979 160.856 153.659C159.596 158.339 153.716 158.699 153.716 158.699C153.716 158.699 153.236 169.139 152.456 170.999C151.676 172.859 142.136 173.759 138.536 167.399C138.476 167.399 134.576 167.099 131.336 161.099Z" fill="#FFFFFE"/>
<path d="M132.602 160.62C132.722 160.92 132.542 160.38 132.482 160.32C132.422 160.14 132.362 159.96 132.302 159.78C132.182 159.48 132.122 159.12 132.062 158.82C131.942 157.98 131.882 157.14 131.942 156.24C132.002 154.2 132.242 152.16 132.722 150.18C133.622 146.16 134.762 142.2 136.262 138.3C136.682 137.16 137.102 136.02 137.582 134.88C137.702 134.7 137.762 134.46 137.822 134.28C137.822 134.22 137.402 134.7 137.702 134.58C137.822 134.46 138.002 134.4 138.122 134.28C138.182 134.22 138.542 134.04 138.302 134.16C138.482 134.04 138.722 133.98 138.902 133.86C139.082 133.8 139.262 133.74 139.442 133.68C139.682 133.62 139.142 133.74 139.502 133.68L139.742 133.62C140.162 133.56 140.582 133.5 141.062 133.44C141.962 133.38 142.862 133.38 143.762 133.5C145.742 133.68 147.722 134.04 149.642 134.58C152.462 135.3 155.222 136.2 157.982 137.28L157.022 135.42C155.102 138.12 154.022 141.42 153.242 144.6C152.822 146.4 152.462 148.26 152.282 150.12C152.222 150.72 152.942 151.26 153.422 151.38C154.022 151.62 154.682 151.44 155.042 150.96C155.462 150.3 156.002 149.82 156.722 149.52C157.082 149.34 157.502 149.34 157.922 149.46C158.222 149.52 157.922 149.46 158.162 149.58C158.222 149.58 158.522 149.82 158.342 149.7C158.582 149.82 158.762 150 158.942 150.24C159.302 150.72 159.542 151.32 159.602 151.92C159.842 154.8 157.562 156.54 155.162 157.32C154.862 157.44 155.222 157.32 154.922 157.38L154.562 157.44C154.382 157.5 154.142 157.5 153.962 157.56C153.782 157.62 153.542 157.62 153.362 157.62C152.762 157.68 152.342 158.16 152.282 158.7C152.222 160.68 152.042 162.6 151.922 164.58C151.802 165.96 151.682 167.4 151.502 168.66C151.442 169.14 151.322 169.68 151.202 170.16C151.142 170.34 151.082 170.46 151.022 170.64C150.962 170.82 151.142 170.4 151.082 170.58C151.022 170.76 151.262 170.46 151.082 170.58L150.902 170.7C150.722 170.88 151.022 170.64 150.902 170.7C150.662 170.82 150.482 170.88 150.242 170.94C150.122 171 149.942 171 150.182 170.94C150.062 171 149.942 171 149.822 171C149.522 171.06 149.282 171.12 148.982 171.12C148.442 171.18 147.902 171.24 147.362 171.18C147.002 171.18 146.642 171.12 146.282 171.06C145.982 171 145.742 171 145.442 170.94C145.082 170.88 144.782 170.76 144.422 170.64C144.242 170.58 144.062 170.52 143.882 170.46L143.582 170.34C142.922 170.04 142.322 169.68 141.722 169.2C141.122 168.72 140.642 168.18 140.222 167.58C139.742 166.86 139.382 166.38 138.422 166.2C138.062 166.14 138.782 166.32 138.422 166.2C138.242 166.14 138.062 166.08 137.882 166.02L137.582 165.9C137.942 166.02 137.582 165.9 137.462 165.84C137.162 165.72 136.862 165.54 136.622 165.36C136.322 165.18 136.082 164.94 135.782 164.7C135.422 164.4 135.062 164.04 134.762 163.74C133.982 162.78 133.262 161.76 132.662 160.62C131.942 159.24 129.242 159.96 130.142 161.64C131.342 164.04 133.202 166.08 135.422 167.52C136.382 168.12 137.402 168.48 138.542 168.66L137.222 167.94C139.802 172.38 145.742 174.42 150.662 173.34C151.502 173.22 152.342 172.86 153.062 172.38C153.602 171.9 153.962 171.3 154.082 170.58C154.502 168.42 154.802 166.26 154.922 164.04C155.042 162.3 155.162 160.56 155.222 158.82L154.142 159.9C156.662 159.78 159.122 158.7 160.862 156.84C163.622 153.78 162.842 148.38 158.702 147.06C156.242 146.28 153.902 147.42 152.462 149.46L155.222 150.3C155.222 150.24 155.222 150.24 155.222 150.18C155.222 150.12 155.222 150.12 155.222 150.06C155.342 149.94 155.162 150.36 155.222 150.18C155.282 149.82 155.342 149.46 155.402 149.1C155.582 147.9 155.822 146.64 156.122 145.44C156.842 142.44 157.802 139.38 159.602 136.86C160.202 136.02 159.362 135.3 158.642 135C156.242 134.04 153.782 133.2 151.262 132.54C149.102 131.94 146.822 131.46 144.602 131.16C142.622 130.86 140.522 130.92 138.542 131.28C137.222 131.58 135.542 132.24 134.942 133.56C134.582 134.46 134.222 135.36 133.862 136.26C132.362 140.1 131.102 144.06 130.142 148.08C129.542 150.54 129.182 153.06 129.002 155.58C128.822 157.68 129.242 159.72 130.082 161.64C130.802 162.96 133.502 162.3 132.602 160.62Z" fill="#101013"/>
<path d="M138.78 152.759C138.78 152.759 127.2 151.619 126.6 145.319C126 139.019 134.76 138.239 139.86 144.659" fill="#FFFFFE"/>
<path d="M138.481 151.499C137.461 151.379 136.441 151.199 135.481 150.959L135.181 150.899C135.121 150.899 135.121 150.899 135.061 150.899L134.341 150.719C133.861 150.599 133.381 150.419 132.901 150.239C132.421 150.059 131.941 149.879 131.401 149.639H131.461L131.281 149.579L130.921 149.399C130.681 149.279 130.441 149.099 130.201 148.979L129.901 148.739C129.781 148.679 129.601 148.499 129.841 148.679C129.601 148.499 129.421 148.319 129.241 148.139C129.181 148.079 129.061 147.959 129.001 147.899C128.941 147.839 129.061 147.959 129.061 147.959L128.941 147.839C128.761 147.659 128.641 147.419 128.461 147.239C128.581 147.479 128.461 147.179 128.401 147.119C128.341 147.059 128.281 146.879 128.221 146.819C128.161 146.759 128.161 146.699 128.161 146.639C128.161 146.579 128.221 146.819 128.161 146.699C128.101 146.579 128.101 146.459 128.041 146.279C127.921 145.799 127.861 145.259 127.981 144.779C128.161 142.799 129.841 141.659 131.821 141.539C134.581 141.359 137.281 143.039 139.021 145.199C139.441 145.679 140.221 146.219 140.881 145.919C141.541 145.619 141.301 144.719 140.941 144.299C138.781 141.599 135.661 139.439 132.181 139.079C129.661 138.839 126.841 139.679 125.761 142.259C124.681 144.839 125.821 147.779 127.741 149.639C129.541 151.439 132.001 152.459 134.401 153.179C135.961 153.659 137.521 153.959 139.141 154.139C139.621 154.199 140.041 153.899 140.161 153.479C140.161 153.359 140.161 153.179 140.161 153.059C139.861 152.219 139.261 151.679 138.481 151.499Z" fill="#101013"/>
<path d="M141.06 141.18C141.54 141.42 141.72 142.02 141.48 142.5C141.48 142.56 141.42 142.56 141.42 142.62C140.82 143.46 139.74 142.74 139.98 141.84C140.04 141.42 140.46 141.12 140.94 141.18C141 141.18 141.06 141.18 141.06 141.18Z" fill="#101013"/>
<path d="M147.958 143.16C148.438 143.4 148.618 144 148.378 144.48C148.378 144.54 148.318 144.54 148.318 144.6C147.718 145.5 146.638 144.72 146.878 143.82C146.938 143.4 147.358 143.1 147.838 143.16C147.838 143.16 147.898 143.16 147.958 143.16Z" fill="#101013"/>
<path d="M148.138 153.24C148.138 153.6 148.078 154.02 147.958 154.32L148.018 154.26C147.838 154.98 147.298 155.46 146.578 155.64H146.698C146.458 155.64 146.218 155.58 146.038 155.52L146.158 155.58L145.978 155.46C145.738 155.28 145.918 155.4 145.978 155.46C145.918 155.4 145.738 155.22 145.918 155.4C145.978 155.46 146.098 155.58 145.918 155.4C145.798 155.28 146.158 155.7 146.038 155.52C145.978 155.46 145.138 154.5 145.078 154.92C145.078 155.16 145.198 155.4 145.318 155.58C145.498 155.94 145.738 156.24 145.978 156.54C146.578 157.26 147.598 158.4 148.678 157.98C149.518 157.44 150.058 156.48 149.998 155.46C149.938 155.22 149.878 154.98 149.758 154.8C149.578 154.44 149.338 154.14 149.098 153.84C148.918 153.6 148.678 153.36 148.438 153.18C148.318 153.18 148.138 153.06 148.138 153.24Z" fill="#101013"/>
<path d="M122.876 172.199C123.176 175.859 124.976 179.279 127.796 181.679C130.796 184.319 134.576 185.819 138.476 186.539C140.636 186.959 142.796 187.199 144.956 187.259C147.116 187.439 149.276 187.439 151.496 187.259C155.696 186.659 158.636 183.839 160.916 180.479C163.496 176.579 165.116 172.139 165.596 167.519C165.716 166.739 165.236 166.019 164.456 165.779C163.856 165.599 162.776 165.839 162.716 166.619C162.356 170.279 161.216 173.879 159.416 177.119C157.796 179.999 155.456 183.299 152.096 184.319C150.296 184.739 148.496 184.919 146.636 184.739C144.656 184.679 142.736 184.559 140.756 184.259C137.276 183.779 133.736 182.879 130.796 180.779C128.036 178.859 125.936 175.799 125.756 172.379C125.696 170.759 122.816 170.339 122.876 172.199Z" fill="#101013"/>
<path d="M106.139 186.18C107.879 190.2 110.639 193.68 114.239 196.2C118.439 199.2 123.299 200.22 128.219 201.3C133.559 202.5 138.959 203.94 144.359 204.78C147.059 205.26 149.819 205.38 152.519 205.14C155.039 204.9 157.499 204.24 159.839 203.22C164.819 201.12 169.079 197.64 173.159 194.28C173.759 193.8 173.339 193.02 172.859 192.66C172.199 192.24 171.359 192.3 170.759 192.78C167.339 195.6 163.859 198.42 159.899 200.46C157.919 201.48 155.819 202.2 153.659 202.62C151.199 203.04 148.739 203.04 146.279 202.74C141.119 202.14 136.079 200.76 131.039 199.62C126.419 198.6 121.499 197.88 117.419 195.42C113.579 193.08 110.579 189.54 108.839 185.4C108.299 184.08 105.479 184.56 106.139 186.18Z" fill="#101013"/>
<path d="M174.235 157.679C174.355 168.539 181.915 178.619 179.335 189.599C179.155 190.319 182.095 190.859 182.335 190.019C184.975 179.039 177.355 168.959 177.235 158.159C177.175 157.199 174.175 156.959 174.235 157.679Z" fill="#101013"/>
<path d="M125.701 222.119C139.261 224.219 153.601 224.939 166.921 221.039C170.641 219.959 174.241 218.459 177.661 216.599C178.741 215.999 176.461 214.139 175.441 214.679C163.441 221.219 149.461 222.359 136.021 221.339C132.181 221.039 128.341 220.559 124.501 219.959C123.841 219.839 123.601 220.439 123.841 220.979C124.261 221.639 124.981 222.059 125.701 222.119Z" fill="#101013"/>
<path d="M262.084 204.18C262.084 204.18 258.364 211.92 256.684 211.92C255.004 211.92 244.684 187.26 237.244 189.24C235.024 186 232.324 183.72 228.964 182.88C225.424 181.98 222.184 183.24 219.244 185.88C218.824 184.44 218.464 183.6 218.464 183.6C218.464 183.6 203.044 205.92 176.344 209.64L179.344 229.74C179.344 229.74 189.124 228.66 202.024 222.84C199.924 230.16 198.544 235.92 197.884 237.3H246.484C246.484 237.3 246.604 232.56 246.184 225.84C252.004 231.36 259.264 236.46 265.084 234.96C276.904 231.9 277.084 211.32 277.084 211.32L262.084 204.18Z" fill="#101013"/>
<path d="M260.643 203.88C259.503 206.22 258.363 208.56 256.623 210.54C256.383 210.78 256.743 210.48 256.443 210.72C256.323 210.84 256.083 210.9 256.383 210.78C256.023 210.9 256.623 210.72 256.443 210.78C256.743 210.72 257.043 210.78 257.343 210.84C257.643 211.02 257.523 211.02 257.403 210.84C257.103 210.48 257.523 211.02 257.283 210.72C256.743 209.94 256.203 209.1 255.723 208.26C252.363 202.56 249.363 196.5 244.803 191.64C242.823 189.54 240.003 187.26 236.943 188.04L238.563 188.58C236.343 185.4 233.403 182.64 229.563 181.68C225.423 180.6 221.403 182.22 218.283 184.98L220.743 185.52C220.503 184.62 220.203 183.78 219.843 182.88C219.423 181.92 217.743 182.22 217.263 182.88C216.783 183.54 216.123 184.38 215.523 185.1C214.863 185.94 214.143 186.72 213.423 187.5C212.943 187.98 212.523 188.46 212.043 188.94L211.503 189.54L210.663 190.38C205.143 195.84 198.723 200.34 191.703 203.7C186.723 205.98 181.503 207.54 176.103 208.32C175.323 208.44 174.843 209.1 174.903 209.88L177.543 227.46L177.903 229.98C178.083 230.58 178.623 231 179.283 230.94C184.443 230.34 189.543 228.84 194.403 227.16C197.223 226.2 199.983 225.06 202.683 223.86L200.643 222.48C199.743 225.6 198.903 228.78 198.063 231.9C197.703 233.64 197.163 235.32 196.503 236.94C196.083 237.84 197.043 238.5 197.763 238.5H246.363C247.023 238.5 247.923 238.02 247.983 237.24C248.043 233.4 247.923 229.56 247.683 225.78L245.103 226.68C249.063 230.46 253.623 234.18 258.963 235.8C262.923 237.06 267.303 236.16 270.483 233.46C275.463 229.32 277.383 222.3 278.223 216.06C278.463 214.44 278.583 212.82 278.643 211.2C278.643 210.72 278.403 210.3 277.983 210.12L264.783 204L262.923 203.1C262.203 202.8 261.363 202.98 260.883 203.58C260.523 204.06 260.583 204.78 261.063 205.14C261.123 205.2 261.183 205.26 261.303 205.26L274.443 211.44L276.303 212.34L275.643 211.26C275.583 215.1 274.983 218.94 273.903 222.6C273.003 225.6 271.803 228.3 269.763 230.64C268.863 231.66 267.783 232.44 266.643 233.1C265.983 233.46 265.263 233.7 264.543 233.82C263.643 234 262.743 234 261.843 233.82C259.203 233.4 256.803 232.14 254.583 230.7C252.003 228.96 249.663 227.04 247.443 224.88C246.723 224.22 244.743 224.58 244.863 225.78C245.103 229.62 245.283 233.46 245.163 237.24L246.783 235.98H198.003L199.263 237.54C199.923 235.92 200.463 234.24 200.823 232.5C201.663 229.38 202.563 226.2 203.403 223.08C203.763 221.82 202.383 221.22 201.363 221.7C194.703 224.76 187.683 226.98 180.483 228.24C180.123 228.3 179.823 228.36 179.463 228.36C178.683 228.42 179.223 228.36 179.463 228.36L180.783 229.26L178.203 211.8L177.843 209.28L176.643 210.84C186.183 209.52 195.183 205.62 203.043 200.16C208.383 196.44 213.243 192 217.443 187.02C218.223 186.12 219.003 185.16 219.663 184.2L217.083 184.26C216.843 183.6 217.143 184.5 217.203 184.62C217.383 185.16 217.563 185.7 217.743 186.24C218.043 187.26 219.423 187.44 220.203 186.78C222.603 184.62 225.483 183.3 228.723 184.2C231.723 185.04 234.063 187.38 235.803 189.9C236.163 190.38 236.823 190.62 237.423 190.44C237.543 190.38 237.663 190.38 237.783 190.38C237.483 190.38 237.723 190.38 237.783 190.38C237.903 190.38 238.023 190.38 238.143 190.38C237.783 190.38 238.143 190.38 238.263 190.44C238.383 190.5 238.503 190.5 238.623 190.5C238.983 190.56 238.563 190.44 238.743 190.5C238.923 190.56 239.283 190.74 239.523 190.86L239.943 191.1C239.763 190.98 240.123 191.22 239.943 191.1L240.123 191.22C240.423 191.46 240.723 191.64 240.963 191.88C241.503 192.36 242.043 192.84 242.523 193.38C244.803 195.96 246.783 198.78 248.523 201.78C250.143 204.48 251.643 207.24 253.263 209.88C253.743 210.72 254.283 211.56 254.943 212.28C255.843 213.24 257.163 213.12 258.183 212.34C259.683 211.2 260.643 209.34 261.543 207.72C262.203 206.58 262.803 205.44 263.343 204.3C263.583 203.7 263.223 203.04 262.623 202.8C262.563 202.8 262.503 202.74 262.443 202.74C261.723 202.8 261.003 203.22 260.643 203.88Z" fill="#101013"/>
<path d="M261.24 202.62C261.24 202.62 255.3 192.3 258.36 191.22C261.42 190.14 264.24 195.54 264.24 195.54C264.24 195.54 267.66 182.46 270.12 182.46C272.58 182.46 271.74 193.38 271.74 193.38C271.74 193.38 275.22 181.92 277.56 183.84C279.9 185.76 276.96 194.22 276.96 194.22C276.96 194.22 280.26 188.04 281.82 189.78C283.38 191.52 277.08 211.32 277.08 211.32C271.38 211.92 265.68 210.54 260.88 207.36C260.88 205.74 261 204.18 261.24 202.62Z" fill="#FFFFFE"/>
<path d="M262.566 201.959C262.206 201.299 261.846 200.639 261.486 199.979C261.366 199.739 261.486 199.919 261.486 199.979L261.366 199.739L261.126 199.259C260.946 198.899 260.766 198.539 260.646 198.179C260.346 197.459 259.986 196.679 259.746 195.959C259.506 195.239 259.266 194.519 259.086 193.799C259.026 193.499 259.086 193.859 259.086 193.619C259.086 193.379 259.026 193.319 259.026 193.139C259.026 192.959 259.026 192.839 259.026 192.719C259.026 192.359 258.966 192.899 259.026 192.539C259.086 192.179 258.966 192.419 259.026 192.479C258.966 192.359 259.446 192.179 259.026 192.479C259.266 192.359 258.906 192.539 258.966 192.479C258.546 192.719 259.206 192.419 258.966 192.479C259.206 192.419 259.446 192.479 259.626 192.539C259.986 192.659 260.346 192.899 260.586 193.199C261.546 194.099 262.386 195.119 262.986 196.259C263.526 197.339 265.446 196.979 265.686 195.899C265.986 194.699 266.346 193.499 266.766 192.299C267.126 191.219 267.426 190.139 267.846 189.059C268.026 188.519 268.206 187.979 268.446 187.499C268.686 186.899 268.806 186.599 269.046 186.119C269.286 185.639 269.466 185.279 269.706 184.859C269.826 184.679 269.946 184.499 270.066 184.319L270.186 184.139C270.366 183.839 270.066 184.259 270.246 184.079C270.426 183.899 270.486 183.839 270.606 183.719C270.366 183.959 270.366 183.839 270.486 183.779C270.606 183.719 270.666 183.779 270.306 183.839C270.606 183.779 269.826 183.779 269.946 183.839C269.706 183.779 269.766 183.839 269.586 183.659L269.766 183.779C269.706 183.779 269.526 183.539 269.706 183.719C269.766 183.779 269.886 184.079 269.706 183.719C269.766 183.839 269.826 184.019 269.886 184.139C269.946 184.379 270.006 184.559 270.066 184.799L270.126 185.159C270.126 185.219 270.186 185.279 270.186 185.339C270.306 186.419 270.426 187.559 270.426 188.639C270.426 190.259 270.426 191.879 270.306 193.439C270.186 194.999 272.826 195.119 273.246 193.739C273.966 191.159 274.986 188.699 276.246 186.359C276.426 186.059 276.666 185.699 276.846 185.399C277.026 185.099 276.726 185.459 276.966 185.219L277.326 184.859C277.266 184.919 277.146 184.979 277.386 184.859C277.026 185.039 277.146 184.919 277.266 184.919C277.386 184.919 276.846 184.979 277.086 184.919C276.966 184.919 276.546 184.799 276.726 184.859C276.906 184.919 276.366 184.739 276.666 184.799C276.846 184.859 276.606 184.679 276.666 184.859C276.846 185.159 276.666 184.799 276.786 185.099C276.846 185.279 276.906 185.459 276.906 185.639C276.966 185.999 276.906 185.459 276.906 185.699C276.906 185.819 276.906 185.939 276.966 186.059C276.966 186.299 276.966 186.539 276.966 186.779C276.966 187.679 276.846 188.639 276.666 189.539C276.366 190.979 276.006 192.479 275.526 193.859C274.986 195.419 277.626 196.139 278.286 194.819C278.586 194.219 278.946 193.619 279.366 193.019C279.546 192.779 279.666 192.539 279.906 192.299C279.966 192.179 280.086 192.059 280.146 191.939C280.206 191.879 280.446 191.579 280.326 191.699C280.506 191.459 280.686 191.279 280.926 191.099L281.226 190.859C281.346 190.739 281.166 190.859 281.166 190.919C281.226 190.859 281.346 190.859 281.406 190.799C281.706 190.739 281.286 190.799 281.166 190.799C281.046 190.799 281.046 190.799 280.806 190.679C280.806 190.679 280.626 190.499 280.686 190.559C280.566 190.379 280.566 190.259 280.626 190.499C280.686 190.739 280.626 190.199 280.626 190.619C280.626 190.979 280.626 191.279 280.626 191.639C280.626 191.819 280.626 191.999 280.566 192.179C280.506 192.539 280.566 192.059 280.566 192.299L280.506 192.659C279.786 197.519 278.286 202.319 276.906 207.059C276.546 208.379 276.126 209.699 275.706 210.959L276.726 209.999C277.086 209.939 277.086 209.939 276.726 209.999C276.366 210.059 276.006 210.059 275.706 210.059C274.626 210.119 273.486 210.059 272.406 209.999C268.626 209.579 264.966 208.199 261.786 206.099L262.566 207.239C262.566 205.799 262.686 204.359 262.926 202.919C263.106 202.199 262.626 201.479 261.846 201.299C261.186 201.179 260.166 201.479 260.046 202.259C259.746 203.879 259.566 205.559 259.626 207.179C259.686 208.259 260.886 208.739 261.726 209.219C262.746 209.819 263.826 210.299 264.906 210.719C268.266 212.039 271.806 212.699 275.406 212.639C276.186 212.639 276.966 212.579 277.746 212.399C278.226 212.279 278.646 211.919 278.766 211.439C279.966 207.659 281.046 203.819 282.066 199.979C282.786 197.459 283.266 194.939 283.686 192.359C283.866 191.459 283.866 190.559 283.686 189.659C283.326 188.459 282.126 187.679 280.866 187.979C279.366 188.279 278.286 189.719 277.446 190.919C276.846 191.699 276.366 192.539 275.886 193.379L278.646 194.339C279.126 192.959 279.486 191.519 279.786 190.079C280.206 188.039 280.686 185.279 279.486 183.359C278.286 181.439 276.126 181.859 274.806 183.359C273.486 184.859 272.706 186.899 271.926 188.759C271.386 190.079 270.906 191.459 270.486 192.779L273.426 193.079C273.546 191.579 273.606 190.019 273.546 188.459C273.546 187.259 273.486 186.059 273.306 184.859C273.246 183.779 272.886 182.759 272.346 181.859C271.686 180.899 270.426 180.539 269.406 181.019C268.506 181.439 267.846 182.159 267.366 183.059C266.166 185.219 265.206 187.559 264.486 189.959C263.946 191.639 263.406 193.319 262.986 194.999L265.746 194.639C265.026 193.319 264.126 192.119 263.046 191.159C261.546 189.839 258.846 188.759 257.106 190.379C255.846 191.579 256.206 193.439 256.566 194.939C257.046 196.679 257.706 198.359 258.486 199.919C259.026 200.999 259.566 202.139 260.166 203.159C260.826 204.839 263.466 203.519 262.566 201.959Z" fill="#101013"/>
<path d="M263.887 196.32C264.367 196.56 264.787 196.74 265.267 196.98L265.867 197.22C265.627 197.1 266.047 197.28 265.867 197.22L266.167 197.4L266.407 197.52C266.527 197.52 266.587 197.64 266.407 197.52C266.527 197.52 266.767 197.82 266.827 197.88C266.887 197.94 267.067 198.12 267.187 198.24C267.067 198.12 267.127 198.18 267.187 198.3C267.247 198.42 267.307 198.42 267.367 198.54C267.787 199.08 268.147 199.68 268.447 200.34L268.507 200.4C268.567 200.46 268.567 200.52 268.627 200.64C268.687 200.82 268.807 201 268.867 201.18C268.987 201.54 269.167 201.84 269.287 202.2C269.647 202.8 270.307 203.16 270.967 203.16C271.327 203.16 272.467 202.98 272.167 202.32C271.687 200.82 270.967 199.38 270.007 198.06C269.467 197.34 268.807 196.74 268.027 196.26C267.547 196.02 267.067 195.78 266.587 195.6L265.927 195.3L265.807 195.24C265.987 195.3 265.567 195.12 265.567 195.12C264.967 194.76 264.187 194.7 263.467 195C262.987 195.42 263.347 196.02 263.887 196.32Z" fill="#101013"/>
<path d="M218.16 181.08C218.16 181.08 209.22 171.3 212.52 157.8C215.82 144.3 222.9 141.84 234.06 141.12C245.22 140.4 254.1 159.96 249.18 173.28C244.26 186.6 237.84 183.6 237.84 183.6C237.84 183.6 242.04 189.3 239.82 192.3C237.6 195.3 221.04 193.74 217.56 190.5C214.08 187.26 218.16 181.08 218.16 181.08Z" fill="#FFFFFE"/>
<path d="M219.18 180.72L218.88 180.42L218.58 180.06L218.4 179.82C218.64 180.12 218.34 179.76 218.28 179.7C217.5 178.62 216.78 177.48 216.18 176.28C214.2 172.56 213.12 168.36 213.12 164.1C213.18 159.24 214.5 154.5 216.96 150.36C218.7 147.48 221.34 145.2 224.52 144C226.14 143.4 227.88 142.98 229.62 142.68C231.6 142.32 233.58 142.14 235.56 142.14C236.52 142.2 237.48 142.44 238.38 142.8C238.8 142.98 239.22 143.22 239.58 143.46C239.76 143.58 240.06 143.76 240.42 144.06C240.78 144.36 241.14 144.66 241.32 144.78C242.04 145.44 242.7 146.1 243.3 146.88C245.82 150.18 247.56 153.96 248.4 158.04C250.14 164.82 249 172.08 245.22 177.96C244.38 179.4 243.24 180.66 241.86 181.68C241.44 181.98 240.96 182.28 240.42 182.46C240.18 182.52 240 182.58 239.76 182.64C239.64 182.64 239.4 182.7 239.64 182.64L239.28 182.7C239.1 182.7 238.92 182.7 238.74 182.7C238.44 182.7 238.92 182.7 238.74 182.7H238.5C238.38 182.7 238.2 182.64 238.08 182.64C238.32 182.76 238.38 182.64 238.08 182.64C237.84 182.52 237.84 182.52 238.2 182.7C237.78 182.4 237.24 182.34 236.7 182.52C236.4 182.7 236.28 183.12 236.46 183.42C236.46 183.48 236.52 183.48 236.52 183.54C237.84 185.34 239.28 187.92 238.98 190.2C238.92 190.5 238.8 190.86 238.68 191.1C238.62 191.22 238.5 191.34 238.44 191.46C238.56 191.28 238.44 191.46 238.38 191.52C238.26 191.64 238.08 191.76 237.9 191.82C238.08 191.7 237.78 191.88 237.72 191.88L237.36 192C236.22 192.36 235.08 192.54 233.88 192.54C230.7 192.66 227.52 192.42 224.34 191.82C222.96 191.58 221.58 191.22 220.26 190.74L219.9 190.62L219.66 190.5C219.72 190.5 219.96 190.62 219.72 190.5C219.48 190.38 219.18 190.26 218.94 190.14C218.82 190.08 218.64 189.96 218.88 190.14L218.58 189.96C218.52 189.9 218.4 189.84 218.34 189.78C218.52 189.96 218.16 189.6 218.16 189.54C217.08 188.16 217.5 186 218.04 184.5C218.4 183.48 218.82 182.52 219.42 181.62C220.08 180.6 217.44 179.16 216.78 180.18C215.34 182.46 214.14 185.76 215.1 188.4C216.3 191.7 220.08 192.78 223.2 193.56C226.74 194.4 230.34 194.82 234 194.76C235.5 194.76 237.06 194.58 238.56 194.28C239.64 194.1 240.66 193.5 241.32 192.6C242.4 190.86 241.8 188.52 241.02 186.84C240.48 185.58 239.88 184.44 239.1 183.36L237.42 184.2C238.86 184.86 240.48 184.92 242.04 184.44C245.64 183.36 247.92 179.7 249.36 176.52C251.46 172.08 252.3 167.1 251.76 162.18C251.28 157.5 249.78 153 247.38 148.98C245.22 145.44 242.16 142.2 238.26 140.7C236.4 140.04 234.42 139.8 232.44 139.98C230.28 140.1 228.18 140.4 226.08 140.82C222.54 141.6 219.12 143.1 216.6 145.8C213.42 149.22 211.74 153.78 210.9 158.28C209.34 166.14 211.74 174.72 216.9 180.9C216.96 181.02 217.08 181.14 217.2 181.26C217.68 181.8 218.46 182.1 219.18 181.92C219.72 181.8 219.54 181.14 219.18 180.72Z" fill="#101013"/>
<path d="M226.086 174.6C226.086 174.6 228.786 181.38 238.086 181.08C238.086 181.08 243.906 179.46 247.266 175.38C252.246 169.38 243.606 152.88 243.606 152.88C240.486 148.44 235.086 150.54 235.086 150.54C227.406 154.26 225.186 162.36 225.186 162.36C225.186 162.36 224.526 169.68 226.086 174.6Z" fill="#FFFFFE"/>
<path d="M224.827 173.879C225.607 175.499 226.747 176.939 228.187 178.079C229.747 179.399 231.487 180.419 233.347 181.079C234.307 181.439 235.327 181.679 236.407 181.799C237.367 181.979 238.327 182.039 239.287 181.919C240.367 181.619 241.387 181.259 242.347 180.719C244.327 179.819 246.127 178.619 247.687 177.119C248.827 176.039 249.607 174.659 249.847 173.099C250.087 171.539 250.087 169.919 249.847 168.359C249.307 164.999 248.407 161.699 247.087 158.579C246.487 156.899 245.707 155.219 244.867 153.599C243.787 151.679 241.447 150.239 239.407 149.579C237.967 149.099 236.347 149.039 234.907 149.399C233.647 149.759 232.507 150.299 231.487 151.079C229.807 152.279 228.307 153.719 227.107 155.399C226.207 156.659 225.367 158.039 224.767 159.479C224.467 160.139 224.167 160.799 223.987 161.519C223.867 162.359 223.807 163.199 223.867 164.099C223.807 166.199 223.867 168.359 224.167 170.459C224.227 171.659 224.467 172.799 224.827 173.879C224.947 174.419 225.787 174.839 226.207 175.079C226.327 175.139 227.407 175.679 227.287 175.319C226.147 171.719 226.087 167.759 226.327 164.039C226.507 162.659 226.927 161.339 227.647 160.199C229.207 157.019 231.607 154.319 234.607 152.339C235.507 151.739 236.467 151.319 237.547 151.079C238.747 150.839 240.547 150.719 241.627 151.439C242.047 151.799 242.347 152.279 242.587 152.759C243.007 153.599 243.367 154.439 243.727 155.279C244.987 158.039 246.007 160.919 246.727 163.799C247.387 166.619 247.987 169.859 246.967 172.679C246.367 174.179 245.287 175.499 243.967 176.459C242.467 177.659 240.787 178.619 239.047 179.399C238.267 179.819 237.367 180.119 236.467 180.239C234.547 180.299 232.627 179.939 230.887 179.219C230.587 179.099 230.347 178.979 230.107 178.799C230.407 178.979 229.747 178.559 230.047 178.739C229.987 178.679 229.627 178.379 229.747 178.559C229.327 178.259 228.967 177.899 228.667 177.479C228.187 176.939 227.767 176.279 227.407 175.619C227.347 175.499 227.287 175.439 227.287 175.319C227.047 174.779 226.327 174.419 225.847 174.119C225.787 174.059 224.707 173.579 224.827 173.879Z" fill="#101013"/>
<path d="M229.561 169.68C229.561 169.68 228.841 173.7 232.681 173.16L229.561 169.68Z" fill="#FFFFFE"/>
<path d="M228.067 169.679C227.827 171.179 228.307 172.919 229.747 173.579C230.767 174.059 231.967 174.179 233.047 173.939C233.407 173.879 233.707 173.759 233.947 173.519C234.127 173.339 234.187 173.039 234.067 172.799C233.707 172.199 232.807 172.139 232.207 172.199H232.087H232.027H232.327H232.087H231.847C231.787 172.199 231.607 172.199 231.907 172.199H231.967H231.787H231.667C231.487 172.199 232.087 172.319 231.907 172.259C231.787 172.259 231.667 172.259 231.547 172.199L231.847 172.319C231.727 172.259 231.607 172.199 231.487 172.079L231.727 172.259C231.547 172.139 231.427 172.019 231.307 171.839L231.487 172.079C231.307 171.779 231.127 171.479 231.067 171.119L231.127 171.359C231.007 170.819 231.007 170.219 231.067 169.619C231.127 169.379 230.767 169.079 230.587 169.019C229.927 168.659 229.147 168.719 228.487 169.019L228.247 169.199C228.187 169.379 228.067 169.559 228.067 169.679Z" fill="#101013"/>
<path d="M241.687 162.84C243.487 164.04 245.467 165 247.507 165.6C254.467 167.88 254.947 170.46 252.487 171.54C250.027 172.62 240.547 170.1 240.547 170.1" fill="#FFFFFE"/>
<path d="M240.367 162.66C242.227 163.92 244.207 164.94 246.367 165.6C247.807 166.02 249.247 166.62 250.567 167.34C251.287 167.7 251.887 168.3 252.247 169.02C252.427 169.5 252.367 170.04 252.007 170.4C251.587 170.82 251.047 171.06 250.447 171.12C250.087 171.18 249.667 171.18 249.307 171.12C249.007 171.12 249.007 171.12 248.827 171.12L247.987 171.06L247.207 170.94L246.787 170.88L246.547 170.82H246.487C245.947 170.76 245.407 170.64 244.867 170.52C244.327 170.4 243.667 170.28 243.127 170.16L242.347 169.98L242.167 169.92C242.407 169.98 242.047 169.92 241.987 169.86C241.507 169.74 241.087 169.62 240.607 169.5C240.367 169.44 239.167 169.08 239.047 169.5C238.927 169.92 240.247 170.22 240.367 170.28C241.807 170.64 243.247 171 244.687 171.3C247.027 171.84 249.427 172.14 251.827 172.2C253.027 172.2 255.187 171.84 255.187 170.22C255.127 169.44 254.767 168.78 254.107 168.3C253.027 167.4 251.827 166.68 250.567 166.2C248.707 165.42 246.727 164.88 244.867 163.98C244.327 163.74 243.787 163.44 243.247 163.08L242.767 162.78C242.707 162.72 242.947 162.9 242.767 162.78C242.167 162.42 241.507 162.18 240.847 162.12C240.787 162.3 239.827 162.3 240.367 162.66Z" fill="#101013"/>
<path d="M234.306 161.52C234.306 161.52 235.446 161.52 235.326 162.66C235.206 163.8 233.826 163.62 233.646 162.66C233.466 162.24 233.706 161.76 234.126 161.58C234.186 161.52 234.246 161.52 234.306 161.52Z" fill="#101013"/>
<path d="M242.04 160.2C242.04 160.2 243.18 160.2 243.06 161.34C242.94 162.48 241.56 162.3 241.38 161.34C241.2 160.92 241.44 160.44 241.92 160.26C241.92 160.2 241.98 160.2 242.04 160.2Z" fill="#101013"/>
<path d="M203.162 224.22C205.562 219.78 207.662 215.22 209.522 210.54C209.882 209.64 207.182 208.38 206.882 209.16C205.022 213.84 202.862 218.4 200.522 222.84C200.102 223.62 202.742 225 203.162 224.22Z" fill="#FFFFFE"/>
<path d="M247.686 224.58L245.586 209.7C245.466 208.8 245.346 207.9 245.226 207C245.226 206.88 243.966 207.6 243.846 207.66C243.606 207.78 242.646 208.32 242.706 208.62C243.426 213.6 244.146 218.52 244.806 223.5C244.926 224.4 245.046 225.3 245.166 226.2C245.166 226.32 246.426 225.6 246.546 225.54C246.786 225.42 247.746 224.88 247.686 224.58Z" fill="#FFFFFE"/>
<path d="M80.4587 205.14C80.4587 205.14 104.219 230.64 123.119 229.5L124.799 213C124.799 213 115.619 212.76 78.6587 177.36C78.6587 177.3 74.1587 195.24 80.4587 205.14Z" fill="#FFFFFE"/>
<path d="M79.0236 205.32C81.9636 208.44 85.0836 211.32 88.3836 214.08C94.7436 219.42 101.704 224.4 109.504 227.46C113.824 229.2 118.444 230.28 123.124 229.98C123.484 229.98 124.564 229.92 124.624 229.38L126.064 214.92L126.244 212.82C126.304 212.46 125.284 212.34 125.104 212.34C125.044 212.34 125.644 212.4 125.164 212.34C124.864 212.28 125.344 212.4 125.284 212.34C125.224 212.28 125.164 212.28 125.044 212.28L124.504 212.1L123.784 211.86L123.544 211.8L123.004 211.56C122.164 211.2 121.324 210.72 120.484 210.3C113.164 206.28 106.624 200.82 100.264 195.48C93.3036 189.6 86.5836 183.36 79.9836 177.06C79.5036 176.58 77.2236 176.46 77.0436 177.3C76.5036 179.52 76.1436 181.74 75.9036 184.02C75.3036 188.64 75.3636 193.32 76.1436 197.88C76.7436 200.52 77.6436 203.04 79.0236 205.32C79.4436 205.98 82.3236 205.5 81.9036 204.9C79.3836 200.88 78.6636 195.9 78.6036 191.22C78.5436 187.32 78.9036 183.36 79.6836 179.52C79.8036 178.74 79.9836 177.96 80.1636 177.18L77.2236 177.42C83.2836 183.24 89.5236 189 95.8836 194.46C100.144 198.12 104.524 201.72 109.084 205.02C111.784 207 114.604 208.86 117.484 210.6C118.984 211.5 120.544 212.22 122.224 212.88C122.884 213.18 123.604 213.36 124.384 213.36L123.244 212.88L121.804 227.34L121.564 229.44L123.064 228.84C121.324 228.96 119.584 228.78 117.844 228.48C115.984 228.12 114.184 227.58 112.384 226.86C108.544 225.36 104.884 223.44 101.404 221.16C95.4636 217.26 89.9436 212.82 84.8436 207.9C83.8236 206.88 82.8036 205.92 81.7836 204.84C81.3636 204.42 80.4636 204.48 79.9236 204.54C79.8636 204.66 78.6636 204.9 79.0236 205.32Z" fill="#101013"/>
<path d="M41.0426 148.319C42.9026 155.399 47.1626 161.639 53.1626 165.959C58.5026 169.799 64.5626 174.239 66.8426 175.559C71.0426 178.019 58.9226 195.599 54.6626 194.879C50.4026 194.159 34.2626 176.939 29.4626 166.919C24.6626 156.899 18.7226 122.879 18.7226 122.879C18.7226 122.879 16.9826 102.179 18.9026 100.859C20.8226 99.5394 22.6226 106.259 22.6226 106.259C22.6226 106.259 21.6626 97.3194 24.3626 95.9994C27.0626 94.6794 27.9026 106.619 27.9026 106.619C27.9026 106.619 29.5226 95.7594 31.9226 96.2994C34.3226 96.8394 34.6826 110.339 34.6826 110.339C34.6826 110.339 38.7026 105.719 41.4026 107.459C44.1026 109.199 34.4426 122.999 34.4426 122.999L41.0426 148.319Z" fill="#FFFFFE"/>
<path d="M39.7215 149.04C40.9215 153.6 43.1415 157.8 46.1415 161.4C49.3215 165.18 53.4615 167.88 57.4815 170.7C59.2815 172.02 61.1415 173.34 63.0015 174.6C63.6615 175.08 64.3215 175.5 64.9815 175.92C65.3415 176.1 65.7015 176.34 66.0015 176.7C66.4215 177.42 66.4815 178.2 66.3015 178.98C66.0615 180.12 65.7015 181.26 65.2215 182.28C63.9615 184.98 62.4015 187.5 60.5415 189.84C59.7015 190.92 58.7415 191.94 57.7815 192.9C57.5415 193.14 57.4815 193.2 57.3015 193.38L56.9415 193.68C56.8815 193.74 56.5215 193.98 56.8215 193.8C56.7015 193.86 56.6415 193.92 56.5215 193.98C56.2215 194.22 56.7015 193.92 56.4615 193.98C56.1015 194.1 56.5815 193.92 56.4015 193.98C56.2215 194.04 56.5815 193.8 56.3415 193.98C56.2215 194.1 56.5215 193.98 56.2815 193.98C56.0415 193.98 56.4015 193.98 56.2215 193.98C56.1015 194.04 55.9815 194.04 55.8015 193.98C55.4415 193.92 55.1415 193.8 54.8415 193.62C53.9415 193.14 53.0415 192.6 52.2015 192C49.6815 189.96 47.3415 187.74 45.1215 185.4C42.4215 182.58 39.8415 179.58 37.4415 176.46C35.2215 173.7 33.1815 170.76 31.4415 167.7C30.3015 165.48 29.3415 163.2 28.6215 160.8C27.6615 157.74 26.8215 154.68 26.0415 151.56C24.4215 145.02 23.0415 138.42 21.7215 131.82C21.0615 128.58 20.3415 125.34 19.9215 122.1C19.7415 120.72 19.6815 119.28 19.6215 117.9C19.4415 114.96 19.3215 112.08 19.2615 109.2C19.1415 106.68 19.2015 104.22 19.5615 101.7C19.6215 101.34 19.6815 100.98 19.8615 100.68C19.9215 100.62 19.8615 100.5 19.8615 100.62C19.8615 100.56 20.0415 100.44 19.8615 100.56C19.6815 100.68 18.3615 101.58 18.3015 101.46C18.3615 101.46 18.4215 101.52 18.5415 101.52C19.5615 102.18 20.0415 103.5 20.5215 104.58C20.8215 105.36 21.0615 106.14 21.3015 106.98C21.4215 107.34 24.0015 106.2 23.8815 105.48C23.7615 104.28 23.7015 103.08 23.7015 101.88C23.7015 100.14 23.7015 97.9198 24.6615 96.3598C24.7215 96.2398 24.7815 96.1198 24.9015 96.0598L24.1815 96.5398L23.7615 96.7198C23.6415 96.7198 23.5815 96.7198 23.7015 96.7198C23.6415 96.6598 23.7615 96.7198 23.8215 96.7798C23.9415 96.8398 24.0015 96.8998 24.0615 96.9598C24.4815 97.4398 24.8415 97.9798 24.9615 98.5798C25.5615 100.26 25.9215 102.06 26.1015 103.8C26.2815 105 26.4015 106.2 26.5215 107.34C26.5215 107.64 29.0415 106.56 29.1015 105.96C29.2815 104.58 29.5815 103.2 29.8815 101.88C30.1215 100.8 30.4215 99.7198 30.7815 98.6998C30.9615 98.2198 31.0815 97.7998 31.3215 97.3798C31.5015 97.0198 31.8015 96.7198 31.9215 96.3598C31.8615 96.4798 32.0415 96.2398 31.8015 96.4798C31.5615 96.7198 30.6615 97.3198 30.4815 97.1398C30.4815 97.1998 30.5415 97.0798 30.6615 97.1998C30.8415 97.3198 31.0215 97.4998 31.1415 97.6798C31.5615 98.3998 31.8615 99.1198 31.9815 99.9598C32.4615 102.18 32.8215 104.4 32.9415 106.68C33.0615 108.12 33.1815 109.56 33.2415 111.06C33.2415 111.78 35.5815 110.22 35.7615 109.98C35.4615 110.34 36.0015 109.74 36.0615 109.68C36.3615 109.32 36.7215 109.02 37.0815 108.78C37.2615 108.6 37.5015 108.48 37.6815 108.36C37.8615 108.24 37.7415 108.3 37.9815 108.18C38.4015 108.06 38.8215 108 39.2415 108.06C40.9815 108.42 40.3815 110.22 39.9615 111.48C38.6415 115.38 36.1815 118.98 33.9015 122.34C33.6015 122.82 32.8815 123.48 33.0615 124.08C33.3015 125.16 33.6615 126.24 33.9015 127.38L37.2015 140.04L39.7215 149.04C39.8415 149.4 42.5415 148.32 42.3615 147.54L40.1415 138.96L36.6015 125.4L35.7615 122.28L35.7015 122.58C37.6215 119.88 39.3615 117 40.9815 114.06C41.8815 112.38 42.9015 110.52 43.2015 108.6C43.3815 108.06 43.2615 107.46 42.9615 106.92C42.3015 106.08 40.8615 106.2 39.9615 106.44C37.4415 107.1 35.1615 108.9 33.4815 110.82L36.0015 109.74C35.8815 105.96 35.7015 102 34.7415 98.2798C34.6215 97.4398 34.2615 96.6598 33.7815 95.9398C33.1815 95.2198 32.2815 95.4598 31.5015 95.8198C29.1615 96.9598 28.3815 99.2998 27.7815 101.64C27.3015 103.5 26.8815 105.36 26.5815 107.22L29.1615 105.84C29.1015 104.64 28.9215 103.44 28.8015 102.3C28.6215 100.32 28.1415 98.4598 27.4815 96.5998C27.3015 95.9998 26.8815 95.4598 26.2815 95.1598C25.3215 94.7998 24.0015 95.6998 23.2815 96.2398C21.5415 97.5598 21.3015 99.8998 21.1815 101.94C21.0615 103.62 21.1215 105.3 21.3015 106.98L23.8815 105.48C23.6415 104.58 23.3415 103.68 22.9815 102.84C22.5615 101.88 21.9615 100.26 20.8815 99.8398C20.0415 99.5398 19.0215 100.2 18.3615 100.62C17.8815 100.92 17.5215 101.28 17.2815 101.76C16.9815 102.54 16.8015 103.38 16.8015 104.22C16.6215 107.1 16.5615 109.98 16.7415 112.86C16.8615 115.62 16.9815 118.44 17.2215 121.2C17.4615 123.6 17.8215 126 18.3015 128.34C19.5015 134.64 20.7615 140.94 22.1415 147.18C23.5215 153.42 25.0215 159.84 27.3615 165.84C28.5615 168.66 30.0615 171.3 31.8615 173.76C34.2015 177.06 36.6615 180.24 39.3615 183.24C41.8215 186.06 44.4015 188.76 47.1615 191.28C48.2415 192.24 49.3215 193.14 50.4615 193.98C51.2415 194.58 52.0815 195.06 52.9815 195.42C53.8215 195.66 54.7815 195.54 55.5615 195.12C56.8815 194.52 58.0815 193.74 59.1615 192.78C61.4415 190.74 63.4815 188.34 65.1015 185.7C66.6615 183.36 68.1615 180.78 68.7615 178.02C69.0015 177.12 69.0015 176.22 68.7615 175.32C68.3415 174.42 67.1415 173.94 66.3615 173.4C62.2815 170.64 58.2615 167.7 54.2415 164.82C50.3415 161.94 47.1015 158.22 44.8815 153.9C43.8015 151.8 42.9615 149.58 42.3615 147.36C42.2415 147.24 39.5415 148.32 39.7215 149.04Z" fill="#101013"/>
<path d="M33.5452 109.2C32.7052 109.44 31.8052 109.5 30.9652 109.74C30.1852 109.98 29.4652 110.34 28.8052 110.88C27.6052 111.9 26.5252 113.16 25.6852 114.54C25.2652 115.14 25.4452 115.98 25.9852 116.46C26.4652 116.82 27.4852 117.18 27.9052 116.52C28.3252 115.86 28.6852 115.32 29.1652 114.78C29.4052 114.48 29.6452 114.18 29.8852 113.94L30.2452 113.58L30.4252 113.4L30.5452 113.28L30.6052 113.22L30.8452 113.04C30.9652 112.92 31.1452 112.86 31.3252 112.74C31.5052 112.62 31.6252 112.56 31.7452 112.5C31.8652 112.44 31.9852 112.44 31.8052 112.44L32.1052 112.32C32.9452 112.08 33.7852 112.02 34.6252 111.78C35.2252 111.6 35.5252 110.94 35.3452 110.34C35.3452 110.28 35.2852 110.22 35.2852 110.16C35.1052 109.5 34.3252 109.08 33.5452 109.2Z" fill="#101013"/>
<path d="M48.6016 239.7C48.6016 239.7 54.0016 167.94 73.3216 174.18C92.6416 180.42 94.8016 237.84 94.8016 237.84L48.6016 239.7Z" fill="#101013"/>
<path d="M49.9802 239.58C50.1002 237.6 50.3402 235.68 50.5202 233.7C51.0002 228.96 51.6002 224.22 52.3202 219.48C53.2202 213.54 54.3002 207.6 55.6802 201.72C56.8802 196.14 58.6202 190.68 60.8402 185.46C61.3202 184.32 61.8602 183.24 62.4602 182.16C62.5802 181.92 62.7602 181.68 62.8802 181.44C62.9402 181.32 63.0002 181.2 63.0602 181.08C63.1202 180.96 62.9402 181.26 63.0602 181.14L63.1802 180.9C63.4802 180.42 63.7802 180 64.0802 179.58C64.3802 179.16 64.6802 178.74 65.0402 178.32C65.1602 178.14 65.3402 177.96 65.5202 177.78L65.7602 177.54C65.8802 177.42 65.5202 177.78 65.7002 177.6L65.8202 177.42C66.1202 177.12 66.4802 176.82 66.7802 176.52C66.9602 176.4 67.1402 176.28 67.2602 176.16C67.3802 176.04 67.5002 176.04 67.2602 176.16L67.5602 175.98C67.9202 175.74 68.2802 175.62 68.6402 175.44C68.2802 175.56 68.8802 175.32 68.6402 175.44L68.9402 175.32C69.1202 175.26 69.3002 175.2 69.4802 175.14L69.7802 175.08C69.4202 175.08 69.9602 175.02 69.7802 175.08C69.9602 175.08 70.2002 175.02 70.3802 175.02C70.5602 175.02 70.8002 175.02 70.9802 175.02L71.3402 175.08C71.5202 175.08 71.7602 175.14 71.9402 175.2L72.2402 175.26C72.4802 175.32 72.4802 175.32 72.3602 175.26C72.8402 175.44 73.3802 175.62 73.8602 175.86C74.3402 176.1 74.8802 176.4 75.3002 176.7C75.0602 176.58 75.4202 176.76 75.4802 176.82L75.8402 177.06C76.0802 177.24 76.3202 177.42 76.5602 177.6C78.4202 179.22 80.0402 181.14 81.3002 183.3C82.8002 185.82 84.0602 188.52 85.1402 191.28C87.4202 197.46 89.1002 203.82 90.1802 210.24C91.2602 216.12 92.0402 222 92.6402 227.94C92.9402 231.24 93.2402 234.48 93.3602 237.78V238.26L94.9802 236.58L79.3202 237.18L54.4802 238.2L48.7202 238.44C47.9402 238.5 47.2802 239.04 47.1002 239.76C46.9802 240.48 47.6402 240.96 48.3002 240.9L63.9602 240.3L88.8002 239.34L94.5602 239.1C95.4602 239.1 96.1802 238.32 96.1802 237.42C96.1202 235.02 95.8802 232.62 95.7002 230.28C95.2202 224.64 94.5602 219 93.6602 213.42C92.6402 206.76 91.0802 200.16 89.0402 193.74C87.1802 188.1 84.8402 182.34 80.8802 177.78C78.0002 174.48 73.6802 171.72 69.1802 172.74C65.0402 173.7 62.1602 177.54 60.1802 181.02C57.4202 185.82 55.6802 191.22 54.1802 196.56C52.5602 202.56 51.2402 208.62 50.2202 214.8C49.3202 220.08 48.5402 225.42 47.9402 230.76C47.6402 233.58 47.3402 236.46 47.1002 239.34C47.1002 239.46 47.1002 239.58 47.1002 239.76C47.0402 241.5 49.8602 241.08 49.9802 239.58Z" fill="#101013"/>
<path d="M96.8991 181.44C96.8991 181.44 58.6191 177.3 53.0391 166.44C53.0391 166.44 64.3791 140.52 70.7391 138.06C82.1391 133.62 97.3791 142.68 98.3391 150.12C100.439 165.42 96.8991 181.44 96.8991 181.44Z" fill="#FFFFFE"/>
<path d="M97.3232 180.78C92.9432 180.3 88.6232 179.58 84.3032 178.8C76.8032 177.42 68.9432 175.62 61.9832 172.26C59.1632 170.88 56.0432 169.14 54.5432 166.26V166.62C56.0432 163.14 57.7232 159.78 59.4032 156.42C60.9032 153.54 62.4032 150.66 64.0832 147.9C65.5232 145.38 67.1432 143.04 69.0632 140.82C69.7232 140.1 70.4432 139.44 71.2232 138.9C71.4632 138.78 71.1632 138.96 71.2832 138.84L71.5832 138.72C71.8832 138.6 72.1232 138.48 72.4232 138.42C73.3832 138.12 74.2832 137.88 75.3032 137.76C79.2032 137.28 83.2232 138.18 86.7632 139.8C90.0032 141.3 93.2432 143.46 95.3432 146.4C96.1832 147.54 96.7832 148.86 97.0232 150.24C97.3832 153 97.5632 155.76 97.6232 158.58C97.7432 166.14 97.0832 173.7 95.5832 181.08C95.5832 181.2 95.5232 181.32 95.5232 181.44C95.3432 182.34 98.2832 182.52 98.5232 181.5C99.4832 176.76 100.143 172.02 100.443 167.22C100.803 162.72 100.803 158.16 100.443 153.66C100.323 151.92 100.263 150.06 99.6032 148.44C99.1232 147.24 98.4632 146.16 97.6832 145.2C93.4232 140.04 86.4632 136.86 79.8632 136.26C76.5032 135.96 72.6632 136.14 69.5432 137.64C67.8632 138.48 66.5432 139.98 65.4032 141.42C62.1032 145.5 59.5832 150.24 57.1832 154.92C55.3832 158.46 53.6432 162 52.0232 165.6C51.9032 165.78 51.8432 166.02 51.7232 166.26C51.5432 166.98 52.6232 168.06 53.0432 168.54C54.4232 170.04 56.0432 171.24 57.8432 172.2C62.2832 174.72 67.2632 176.28 72.1832 177.6C77.1632 178.92 82.2632 180 87.3632 180.84C90.3032 181.32 93.2432 181.74 96.1832 182.1L96.6032 182.16C97.1432 182.22 98.1632 182.22 98.4632 181.68C98.7632 181.14 97.7432 180.78 97.3232 180.78Z" fill="#101013"/>
<path d="M93.9619 159C89.4019 155.7 84.3019 151.56 83.8219 145.56C83.7619 145.08 82.8619 144.48 82.5019 144.24C82.3819 144.18 81.4219 143.52 81.4219 143.88C81.6619 147.18 83.4019 150.06 85.5619 152.52C88.0819 155.4 91.0819 157.74 94.2019 159.96C94.3819 160.08 95.1619 160.68 95.2819 160.26C95.4019 159.84 94.1419 159.12 93.9619 159Z" fill="#101013"/>
<path d="M97.7436 157.5C94.3236 153.48 90.7236 149.16 89.8836 143.82C89.8236 143.28 86.8836 143.94 87.0036 144.66C87.8436 150.12 91.5636 154.5 95.0436 158.52C95.4636 159.06 98.1636 157.98 97.7436 157.5Z" fill="#101013"/>
<path d="M58.9188 164.94C55.7988 157.62 69.1188 144 69.1188 144C72.2388 144.54 77.9988 143.64 77.9988 143.64C73.1988 151.86 82.5588 158.22 82.5588 158.22C86.4588 154.26 91.3188 158.1 89.2788 162.6C87.2388 167.1 82.5588 165.96 82.5588 165.96C82.5588 165.96 80.5188 178.26 79.3788 179.94C79.3788 179.94 69.8988 182.34 67.6788 173.88C67.6788 173.88 61.0188 169.92 58.9188 164.94Z" fill="#FFFFFE"/>
<path d="M59.764 164.94C59.704 164.82 59.704 164.76 59.644 164.64C59.584 164.46 59.704 164.82 59.644 164.64C59.584 164.46 59.524 164.28 59.524 164.1C59.524 163.92 59.524 163.98 59.524 164.04C59.524 163.98 59.524 163.86 59.524 163.8C59.524 163.56 59.524 163.32 59.524 163.08C59.524 162.3 59.644 161.52 59.884 160.74C60.424 158.88 61.204 157.14 62.164 155.52C63.964 152.46 66.124 149.58 68.524 146.88C69.004 146.34 69.544 145.74 70.084 145.2L69.484 145.38C72.484 145.86 75.664 145.5 78.604 145.08L77.164 142.56C75.484 145.5 75.244 149.04 76.624 152.1C77.704 154.5 79.264 156.6 81.244 158.34C81.724 158.76 82.204 159.12 82.684 159.48C82.804 159.54 83.224 159.72 83.404 159.6C84.604 158.4 86.644 157.32 88.264 158.46C88.324 158.52 88.444 158.58 88.504 158.64C88.504 158.64 88.744 158.94 88.624 158.76C88.744 159 88.864 159.18 88.864 159.48C88.924 160.38 88.684 161.28 88.204 162.06C87.424 163.44 86.104 164.4 84.544 164.64C84.004 164.7 83.464 164.76 82.864 164.7H82.624C82.384 164.7 82.744 164.7 82.564 164.7L82.384 164.64C82.144 164.52 81.844 164.64 81.724 164.88C81.724 164.94 81.724 164.94 81.664 165C81.304 167.1 80.944 169.2 80.524 171.3C80.224 172.86 79.864 174.42 79.504 176.04C79.324 177 79.024 177.96 78.604 178.8L78.964 178.56C76.684 179.16 74.224 178.98 72.004 178.14C70.384 177.48 69.184 176.1 68.764 174.36C68.524 173.52 67.984 172.8 67.204 172.32C66.484 171.84 65.824 171.36 65.164 170.82C63.124 169.2 60.964 167.22 59.884 164.82C59.644 164.34 59.164 163.44 58.504 163.5C57.844 163.56 58.024 164.52 58.204 164.88C60.064 169.14 63.904 172.62 67.864 174.96L66.844 173.46C67.684 176.52 69.544 179.22 72.484 180.6C74.404 181.38 76.444 181.68 78.484 181.44C78.964 181.38 79.504 181.32 79.984 181.2C80.644 181.02 80.824 180.24 81.004 179.64C81.724 177.3 82.264 174.9 82.684 172.44C83.044 170.58 83.404 168.66 83.704 166.8L83.044 167.22C85.204 167.76 87.484 167.1 89.104 165.54C91.864 162.66 91.444 157.5 87.664 155.64C85.684 154.68 83.524 155.34 81.964 156.84L82.684 156.96L82.324 156.66C82.084 156.48 82.504 156.84 82.324 156.66L82.144 156.54L81.664 156.12C80.764 155.34 79.924 154.44 79.264 153.48L79.084 153.24C78.964 153.06 78.844 152.88 78.784 152.7C78.604 152.46 78.484 152.22 78.424 151.92C78.124 151.32 77.944 150.66 77.884 150C77.704 148.14 78.124 146.28 79.084 144.72C79.504 144 78.604 142.08 77.644 142.2C75.244 142.62 72.784 142.8 70.324 142.74C69.724 142.74 68.824 142.44 68.404 142.8C68.344 142.86 68.284 142.92 68.224 143.04C67.804 143.46 67.444 143.94 67.024 144.36C63.784 148.02 60.544 152.16 58.744 156.78C57.724 159.42 57.184 162.24 58.264 164.94C58.444 165.42 58.984 166.32 59.644 166.26C60.304 166.2 59.944 165.3 59.764 164.94Z" fill="#101013"/>
<path d="M68.7016 154.08C66.6016 154.74 64.3816 155.04 62.1616 155.04C54.6616 155.22 53.4616 157.62 55.5016 159.36C57.5416 161.1 67.6216 161.46 67.6216 161.46" fill="#FFFFFE"/>
<path d="M69.4221 153.24C66.9621 154.08 64.3821 154.08 61.8021 154.2C59.0421 154.38 55.8021 154.98 53.8821 157.2C52.8021 158.46 53.4621 159.84 54.8421 160.56C55.6821 160.98 56.6421 161.28 57.6021 161.4C58.8021 161.64 60.0621 161.82 61.2621 161.94C63.0021 162.12 64.7421 162.24 66.4821 162.3C67.1421 162.24 67.7421 162 68.2221 161.58C68.2821 161.52 69.3021 160.56 68.8221 160.56C65.4021 160.44 61.8621 160.26 58.5621 159.3C57.4821 159 55.8021 158.34 55.9221 156.9C55.9221 156.78 55.9821 156.72 55.9821 156.66C55.9821 156.6 56.0421 156.6 56.0421 156.54C56.0421 156.48 55.9821 156.54 56.0421 156.48L55.9221 156.6C56.0421 156.48 55.9821 156.54 55.8621 156.66C55.5621 156.9 56.1021 156.48 55.8621 156.66C55.5021 156.9 55.8021 156.66 55.8621 156.66C55.5021 156.78 56.0421 156.6 56.1021 156.6C55.9821 156.66 56.1621 156.6 56.1621 156.6L56.5821 156.48C56.8821 156.42 57.1221 156.36 57.4221 156.3C58.2021 156.18 58.9821 156.06 59.7621 156C62.5221 155.82 65.3421 155.82 67.9821 154.92C68.7021 154.68 69.3021 154.32 69.7821 153.78C70.0821 153.42 69.9621 153.06 69.4221 153.24Z" fill="#101013"/>
<path d="M85.8591 167.879C85.3191 171.119 84.8991 174.419 84.5391 177.719C84.5391 177.899 84.8991 178.259 84.9591 178.319C85.1991 178.619 85.4991 178.859 85.7991 179.039C85.9191 179.159 86.8191 179.759 86.8791 179.399C87.1791 176.219 87.5991 172.979 88.1391 169.799C88.1991 169.379 87.4791 168.839 87.1791 168.599C87.1191 168.539 85.8591 167.639 85.8591 167.879Z" fill="#101013"/>
<path d="M90.6016 173.76L92.1616 179.1C92.2216 179.28 92.5216 179.34 92.6416 179.34C93.0016 179.4 93.3616 179.34 93.7216 179.28C94.0816 179.22 94.4416 179.16 94.7416 178.98C94.8616 178.92 95.1616 178.8 95.1016 178.62L93.5416 173.34C93.4816 173.16 93.1816 173.1 93.0616 173.1C92.3416 173.04 91.6216 173.16 90.9616 173.46C90.8416 173.46 90.5416 173.58 90.6016 173.76Z" fill="#101013"/>
<path d="M95.8801 165.78H95.7601C95.5801 165.78 96.1801 165.84 96.0001 165.84L95.7601 165.78C95.5201 165.72 95.3401 165.66 95.1001 165.54L94.9201 165.48L95.1601 165.54L95.0401 165.48L94.6801 165.3C94.3801 165.18 94.0801 165 93.8401 164.88C93.6001 164.76 93.2401 164.58 93.0001 164.4L92.5201 164.1C92.3401 164.04 92.2201 163.92 92.0401 163.8C92.0401 163.8 92.3401 163.98 92.1001 163.8L91.8601 163.62L91.5001 163.32C91.2601 163.08 91.0201 162.9 90.7801 162.66C90.1801 162.12 89.2801 162.12 88.6801 162.6C88.1401 162.96 88.0201 163.68 88.4401 164.22C88.5001 164.28 88.5601 164.34 88.6201 164.4C89.7001 165.48 90.9601 166.38 92.3401 167.04C93.4201 167.7 94.6801 168.12 95.9401 168.3C96.6001 168.36 97.5001 167.88 97.5001 167.1C97.3201 166.32 96.6601 165.78 95.8801 165.78Z" fill="#101013"/>
<path d="M73.9791 161.82V161.58C73.9791 161.88 73.9791 162.18 73.8591 162.42L73.9191 162.12C73.8591 162.42 73.6791 162.66 73.4991 162.9L73.6791 162.66C73.4991 162.9 73.2591 163.08 73.0191 163.2L73.2591 163.08C73.0791 163.2 72.8391 163.26 72.5991 163.32L72.8991 163.26C72.7191 163.32 72.5391 163.32 72.3591 163.32H72.5991C72.2991 163.26 71.9391 163.38 71.6991 163.56C71.4591 163.74 71.3991 164.04 71.4591 164.34C71.5791 164.7 71.7591 165 72.0591 165.18C72.3591 165.42 72.7191 165.6 73.1391 165.6C73.6791 165.66 74.2191 165.54 74.7591 165.36C75.1791 165.18 75.5391 164.94 75.8391 164.64C76.1391 164.34 76.3791 163.98 76.4991 163.56C76.5591 163.32 76.6791 163.08 76.6791 162.84C76.6791 162.6 76.6791 162.3 76.6791 162.06C76.6191 161.88 76.5591 161.76 76.4991 161.64C76.3791 161.46 76.2591 161.34 76.1391 161.22C75.8391 160.98 75.4791 160.8 75.0591 160.8C74.7591 160.74 74.3991 160.86 74.1591 161.04L73.9791 161.28C74.0391 161.46 73.9791 161.64 73.9791 161.82Z" fill="#101013"/>
<path d="M72.8987 153.239C73.4387 153.059 73.9787 153.119 74.0387 153.359C74.0987 153.599 73.6787 153.899 73.1387 154.079C72.5987 154.259 72.0587 154.199 71.9987 153.959C71.9387 153.719 72.2987 153.419 72.8987 153.239Z" fill="#101013"/>
<path d="M67.3908 153.1C67.5733 152.957 67.4559 152.502 67.1285 152.085C66.8012 151.668 66.3879 151.446 66.2054 151.589C66.0229 151.733 66.1404 152.187 66.4677 152.604C66.795 153.021 67.2083 153.243 67.3908 153.1Z" fill="#101013"/>
<path d="M73.2609 217.5C70.0209 213.66 66.6609 209.58 65.1009 204.72C64.7409 203.64 64.4409 202.26 65.1009 201.24C65.3409 200.88 66.0009 200.22 66.4809 200.52C66.9009 200.88 67.2609 201.3 67.4409 201.84C67.7409 202.38 68.0409 202.92 68.2809 203.46C68.8209 204.66 69.1809 205.86 69.4809 207.12C69.6609 207.84 70.2009 208.32 70.9209 208.44C71.5209 208.5 72.3009 208.2 72.3609 207.48C72.4809 205.26 73.3809 203.1 74.8809 201.48C75.6009 200.64 76.5009 199.98 77.5209 199.5C77.7609 199.38 77.9409 199.26 78.1809 199.2C78.3009 199.14 78.4809 199.08 78.6009 199.08C78.9609 199.08 78.7209 198.9 78.0609 198.66C78.0609 198.96 78.1209 199.32 78.1809 199.62C78.1809 199.92 78.2409 200.22 78.2409 200.52C78.2409 206.1 75.0609 211.14 72.2409 215.76L75.0609 216.78C75.2409 212.22 76.0809 207.66 77.7009 203.4C78.0609 202.44 77.4009 201.78 76.5609 201.48C74.1009 200.64 73.3209 203.76 72.7809 205.44L70.5609 212.4H73.0809C70.7409 209.34 68.8809 205.98 67.6209 202.32L64.9209 202.98C66.6609 207.12 68.1609 211.38 69.5409 215.7C70.0209 217.26 72.7809 216.84 72.2409 215.04C70.9209 210.72 69.3609 206.52 67.6209 202.32C67.0209 200.82 64.2609 201.18 64.9209 202.98C66.3009 206.82 68.2809 210.48 70.7409 213.72C71.2209 214.38 72.9009 214.8 73.2609 213.72L75.0609 208.14L75.9009 205.5C76.0209 205.08 76.1409 204.72 76.3209 204.36C76.3809 204.24 76.4409 204.12 76.5009 204.06C76.6209 203.7 76.5609 204.12 76.2609 204.06L75.0609 202.08C73.3809 206.58 72.3609 211.32 72.1809 216.12C72.1209 217.56 74.1609 218.46 75.0009 217.14C77.7609 212.76 80.5809 208.02 81.1209 202.74C81.3609 200.4 81.4809 196.14 78.0009 196.56C75.9009 196.8 73.7409 198.48 72.4209 200.04C70.7409 201.96 69.7809 204.36 69.6009 206.94L72.4809 207.3C71.9409 204.84 70.9809 202.44 69.6009 200.28C68.2209 198.12 65.5809 197.28 63.4809 198.96C61.3809 200.64 61.7409 203.4 62.4609 205.62C63.3009 207.96 64.3809 210.24 65.8209 212.28C67.3809 214.62 69.1209 216.84 70.9809 219C71.4609 219.6 72.3009 219.84 73.0209 219.48C73.5609 219.12 73.7409 218.4 73.4409 217.8C73.3209 217.62 73.2609 217.56 73.2609 217.5Z" fill="#FFFFFE"/>
<path d="M50.2231 226.98C50.2231 226.98 47.2831 229.74 41.1031 230.46C34.9231 231.18 34.6831 228.06 36.0631 226.44C37.4431 224.82 47.8231 223.08 49.0231 220.08C50.2231 217.08 50.2231 226.98 50.2231 226.98Z" fill="#FFFFFE"/>
<path d="M49.2025 226.5C49.0225 226.62 48.9025 226.8 48.7225 226.92C48.9625 226.74 48.8425 226.86 48.6625 226.92L48.3025 227.16C48.0025 227.34 47.7025 227.52 47.3425 227.7C47.0425 227.88 46.7425 228 46.4425 228.12C45.9625 228.3 45.4825 228.48 45.0025 228.66C43.8625 229.02 42.7225 229.26 41.5825 229.38C40.1425 229.56 37.9225 229.74 37.0225 228.54C36.9625 228.48 37.0225 228.54 36.9025 228.36C36.8425 228.24 36.8425 228.18 36.7825 228.06C36.7225 227.88 36.7225 227.64 36.7825 227.46C36.7825 227.22 36.7825 227.4 36.7825 227.34C36.7825 227.28 36.8425 227.1 36.9025 227.04C36.9625 226.98 37.0825 226.68 36.9625 226.92C37.0225 226.8 37.1425 226.68 37.2025 226.56C37.0825 226.74 37.0825 226.74 37.2025 226.56C37.0225 226.68 37.0225 226.74 37.2025 226.56C37.3225 226.5 37.6825 226.32 37.2625 226.5C37.3825 226.44 37.5625 226.38 37.6825 226.32C38.3425 226.02 39.0025 225.78 39.6625 225.6C41.3425 225 43.0825 224.46 44.7025 223.8C46.3225 223.26 47.8225 222.42 49.1425 221.4C49.6825 220.98 50.1025 220.44 50.3425 219.78C50.4025 219.72 50.4625 219.54 50.3425 219.78C50.1025 220.08 49.6825 220.26 49.2625 220.14L48.3625 220.38C48.1825 220.26 48.1225 220.2 48.1825 220.26C48.0625 220.26 48.1225 220.02 48.1225 220.26C48.1225 220.32 48.1825 220.44 48.2425 220.5C48.3625 221.04 48.4825 221.58 48.4825 222.12C48.5425 222.9 48.6025 223.62 48.6025 224.4C48.6625 225.3 48.6625 226.26 48.6625 227.16C48.6625 228.48 51.5425 227.64 51.5425 226.5C51.5425 224.22 51.6025 221.7 51.0625 219.48C50.5825 217.62 48.2425 218.58 47.6425 219.84C47.5825 219.96 47.5225 220.08 47.5225 220.2C47.6425 219.96 47.4625 220.26 47.4025 220.38C47.2225 220.62 47.5225 220.32 47.2825 220.5C47.2225 220.56 46.8025 220.86 47.0425 220.68C46.7425 220.92 46.3825 221.1 46.0825 221.28C46.0825 221.28 45.7225 221.46 45.9025 221.4C46.0825 221.34 45.6625 221.52 45.7225 221.52C45.4825 221.64 45.2425 221.7 45.0625 221.82C43.2625 222.6 41.3425 223.2 39.4225 223.86C38.0425 224.34 36.3025 224.82 35.2225 225.84C34.2025 226.68 33.7825 228.06 34.1425 229.32C34.8025 231.06 37.0825 231.42 38.7025 231.42C41.8225 231.42 44.8825 230.76 47.6425 229.5C48.9625 228.96 50.1625 228.24 51.2425 227.28C51.6625 226.92 51.9025 226.26 51.3025 225.96C50.5225 225.84 49.7425 226.02 49.2025 226.5Z" fill="#101013"/>
<path d="M48.544 214.74C48.544 214.74 43.024 216.66 42.604 219.6C42.184 222.54 49.204 227.52 51.784 224.76C54.364 222 48.724 218.58 48.724 218.58L48.544 214.74Z" fill="#FFFFFE"/>
<path d="M47.7037 213.48C45.9637 214.08 44.4037 214.98 43.0237 216.12C42.0637 216.9 41.4637 217.98 41.3438 219.18C41.4037 220.38 41.8237 221.58 42.6037 222.48C44.2237 224.52 46.6837 226.38 49.3237 226.8C50.4637 227.04 51.6637 226.8 52.5637 226.08C53.4637 225.24 53.8237 223.98 53.4637 222.78C52.8637 220.62 50.8837 218.88 49.0237 217.74L49.8637 219.24L49.7437 215.34C49.6837 214.62 49.2037 213.96 48.5437 213.6C48.0637 213.36 47.1637 213.36 47.2237 214.14L47.3437 216.72C47.3437 217.14 47.3437 217.56 47.4037 217.92C47.4037 218.58 47.7637 219.24 48.3637 219.6C48.6037 219.78 48.9037 219.96 49.1437 220.14C49.3837 220.32 49.5038 220.44 49.6838 220.56L49.8037 220.68C49.9837 220.8 49.5037 220.38 49.7437 220.62L50.0437 220.92C50.2237 221.1 50.4038 221.34 50.5838 221.52C50.7638 221.7 50.5237 221.46 50.5237 221.46C50.5237 221.46 50.6437 221.58 50.6437 221.64C50.6437 221.7 50.8238 221.94 50.8837 222.06C50.9438 222.18 50.7637 221.82 50.8237 222C50.8237 222.06 50.8837 222.12 50.8837 222.18L50.9437 222.42C50.9437 222.36 50.8837 222.12 50.9437 222.36C50.9437 222.48 51.0037 222.6 51.0037 222.72C50.9437 222.42 51.0037 222.84 51.0037 222.96C51.0037 223.02 51.0037 223.08 51.0037 222.96C51.0037 223.02 50.9437 223.14 50.9437 223.2C50.8837 223.32 50.8237 223.44 50.7637 223.56C50.7637 223.56 50.6438 223.68 50.5838 223.8C50.4638 223.92 50.4038 223.98 50.2838 224.1C50.1038 224.22 50.2238 224.1 50.2838 224.1C50.2238 224.16 50.1637 224.16 50.1637 224.16C50.0437 224.22 49.9237 224.28 49.8037 224.28C49.7437 224.28 49.6237 224.34 49.5637 224.34H49.4437H49.2037C49.0837 224.34 48.9638 224.34 48.7838 224.34C48.5438 224.34 48.7238 224.34 48.7838 224.34H48.6037C48.3037 224.28 48.0037 224.22 47.7037 224.1L47.5838 224.04L47.4637 223.98L47.0437 223.8L46.6237 223.62C46.5037 223.56 46.0838 223.32 46.3838 223.5C46.1438 223.32 45.8437 223.14 45.6037 222.96C45.4837 222.84 45.3638 222.78 45.1838 222.66L45.0037 222.54C45.0637 222.54 45.3037 222.78 45.0037 222.54C44.7637 222.36 44.5837 222.18 44.4037 221.94C44.3437 221.88 44.2837 221.82 44.2237 221.76C44.1637 221.7 44.4038 222 44.2838 221.82C44.1638 221.64 44.1038 221.58 43.9838 221.46C43.8638 221.34 43.8637 221.22 43.7437 221.1C43.8637 221.34 43.8037 221.22 43.7437 221.04C43.6837 220.92 43.6837 220.86 43.6237 220.74C43.7437 221.1 43.6237 220.74 43.6237 220.62C43.5637 220.32 43.5637 220.74 43.6237 220.5C43.6237 220.38 43.6238 220.26 43.6838 220.14C43.6238 220.38 43.7437 220.02 43.7437 219.96C43.8037 219.78 43.8637 219.66 43.9237 219.54L44.0437 219.36C43.9237 219.48 44.1037 219.24 44.1037 219.24C44.2237 219.12 44.3437 218.94 44.4637 218.82C44.7037 218.58 45.0037 218.34 45.2437 218.1C45.7837 217.68 46.3237 217.32 46.9237 217.02C47.6437 216.66 48.3637 216.3 49.1437 216.06C50.6437 215.46 48.9037 213.06 47.7037 213.48Z" fill="#101013"/>
<path d="M51.4188 209.76C51.4188 209.76 45.6588 210.96 44.8788 213.84C44.0988 216.72 50.3988 222.6 53.2788 220.2C56.1588 217.8 50.9988 213.66 50.9988 213.66L51.4188 209.76Z" fill="#FFFFFE"/>
<path d="M50.6432 208.44C48.9632 208.74 47.2832 209.4 45.8432 210.36C44.8832 210.96 44.1632 211.92 43.9232 213C43.7432 214.2 44.3432 215.58 44.8832 216.66C46.2032 218.94 48.3632 221.16 50.9432 221.88C51.9032 222.24 52.9832 222.12 53.8232 221.58C54.9032 220.8 55.1432 219.54 54.8432 218.28C54.3032 216 52.6232 213.96 50.8232 212.52L51.8432 214.62L52.2032 210.72C52.2032 210 51.9032 209.34 51.4232 208.8C51.1832 208.56 50.5232 208.02 50.4632 208.74L50.2232 211.32C50.1632 211.74 50.1032 212.1 50.1032 212.52C50.1032 213.36 50.5232 214.2 51.1832 214.74L51.8432 215.34C51.9632 215.46 51.6632 215.16 51.9032 215.4L52.1432 215.64C52.3232 215.88 52.5032 216.06 52.6832 216.3C52.4432 216 52.6832 216.36 52.7432 216.42C52.8032 216.48 52.9232 216.66 52.9832 216.78C52.7432 216.42 52.9832 216.84 53.0432 216.9C53.1032 216.96 53.1632 217.14 53.0432 216.96C52.9232 216.78 53.0432 217.02 53.1032 217.02C53.0432 216.84 53.2832 217.26 53.1032 217.02C53.1032 217.08 53.1632 217.14 53.1632 217.2C53.1632 217.02 53.2232 217.38 53.1632 217.2C53.1632 217.26 53.1632 217.32 53.1632 217.38C53.1632 217.56 53.1632 217.14 53.1632 217.44C53.1632 217.5 53.1632 217.56 53.1632 217.62C53.1632 217.74 53.1032 217.8 53.1032 217.92C52.6832 218.88 51.6632 219.48 50.6432 219.36C49.5032 219.18 48.4232 218.7 47.5232 217.92C47.2832 217.74 47.0432 217.5 46.8032 217.32C46.9232 217.44 46.6832 217.2 46.6232 217.14C46.5632 217.08 46.3832 216.84 46.2632 216.72C46.1432 216.6 46.1432 216.6 46.1432 216.54C46.2032 216.6 46.3232 216.78 46.1432 216.54C46.0832 216.48 45.9632 216.3 45.8432 216.12C45.6032 215.82 45.9632 216.36 45.7832 216L45.6632 215.82C45.4832 215.52 45.7232 215.94 45.6632 215.82C45.6032 215.7 45.4832 215.4 45.5432 215.58C45.6032 215.76 45.4832 215.4 45.4832 215.34C45.5432 215.58 45.4832 215.34 45.4832 215.22C45.4832 215.04 45.4832 215.1 45.4832 215.22C45.4832 215.16 45.4832 215.1 45.4832 214.98C45.4832 214.8 45.4832 214.92 45.4832 214.8C45.5432 214.68 45.5432 214.56 45.6032 214.44C45.7232 214.2 45.9032 213.9 46.0832 213.72C47.1032 212.76 48.3032 212.04 49.6232 211.62C50.3432 211.32 51.1232 211.14 51.9032 210.96C52.6832 210.96 51.6032 208.26 50.6432 208.44Z" fill="#101013"/>
</svg>
