<svg width="500" height="500" viewBox="0 0 500 500" fill="none" xmlns="http://www.w3.org/2000/svg">
<path d="M442.498 291.6L464.798 281.1L374.898 78.5996L442.498 291.6Z" fill="white"/>
<path d="M443.5 292.599L463 283.399L465.8 282.099C466.3 281.899 467.5 281.099 467.2 280.299L464.8 274.899L458.3 260.099L448.7 238.399L436.9 211.799L424 182.799L410.9 153.399L398.6 125.999L388.3 102.799L381 86.0994C379.8 83.4994 378.7 80.7994 377.5 78.1994L377.4 77.8994C376.6 76.1994 372 77.5994 372.6 79.2994L374.4 84.9994L379.3 100.499L386.6 123.399L395.5 151.399L405.2 181.899L415 212.899L424.1 241.699L431.8 265.999L437.4 283.499C438.3 286.299 439 289.099 440 291.799C440 291.899 440.1 291.999 440.1 292.199C440.7 293.999 445.5 292.499 444.9 290.799L443.1 285.099L438.2 269.599L430.9 246.599L422 218.599L412.3 188.099L402.5 157.199L393.4 128.299L385.7 103.999L380 86.4994C379.1 83.6994 378.4 80.8994 377.4 78.1994C377.4 78.0994 377.3 77.9994 377.3 77.8994L372.5 79.2994L374.9 84.6994L381.4 99.4994L391 121.199L402.9 147.899L415.8 176.899L428.9 206.299L441.1 233.699L451.3 256.999L458.7 273.599C459.9 276.199 460.8 278.999 462.2 281.499C462.3 281.599 462.3 281.699 462.3 281.799L463.7 279.999L444.2 289.199L441.4 290.499C440.7 290.799 439.5 291.699 440.2 292.599C440.9 293.499 442.7 292.999 443.5 292.599Z" fill="#000005"/>
<path d="M378.199 77.4001C374.599 73.2001 200.699 131.5 200.699 131.5L310.399 348.3L452.799 296.2L378.199 77.4001Z" fill="white"/>
<path d="M379.697 76.1997C377.697 73.9997 374.297 75.0997 371.897 75.5997C367.397 76.4997 362.997 77.6997 358.597 78.8997C344.397 82.7997 330.197 87.0997 316.097 91.4997C299.097 96.7997 282.097 102.2 265.097 107.7C250.397 112.5 235.797 117.3 221.197 122.1L206.697 126.9C204.397 127.7 202.097 128.3 199.797 129.2L199.497 129.3C198.297 129.7 198.197 131.2 198.697 132.2L201.597 138L209.597 153.8L221.397 177L235.897 205.6L251.597 236.7L267.497 268.2L282.397 297.6L294.897 322.3L303.897 340.2C305.297 343 306.697 345.9 308.197 348.7L308.397 349.1C308.897 350.1 310.197 351.1 311.397 350.6L325.597 345.4L359.597 332.9L400.697 317.8L436.297 304.8C441.997 302.7 447.897 300.8 453.597 298.5L453.797 298.4C454.697 298 455.097 297 454.797 296.1L452.797 290.2L447.397 274.3L439.397 250.7L429.597 222L418.897 190.5L407.997 158.8L397.997 129.2L389.497 104.3L383.397 86.2997C382.397 83.4997 381.497 80.5997 380.497 77.7997C380.497 77.6997 380.397 77.5997 380.397 77.3997C380.097 76.0997 378.997 75.1997 377.697 75.1997C376.697 75.2997 375.997 76.0997 375.997 77.0997C375.997 77.2997 375.997 77.3997 376.097 77.5997L378.097 83.3997L383.497 99.2997L391.497 122.9L401.297 151.6L411.997 183.1L422.797 214.9L432.897 244.5L441.397 269.4L447.497 287.4C448.497 290.2 449.297 293.2 450.397 295.9L450.497 296.3L451.497 294L437.297 299.2L403.297 311.7L362.197 326.8L326.597 339.8L314.997 344C313.197 344.7 311.197 345.2 309.497 346L309.297 346.1L312.297 347.6L309.397 341.8L301.397 326L289.597 302.7L275.097 274.1L259.397 243L243.497 211.5L228.597 182.1L216.097 157.4L207.097 139.5C205.697 136.7 204.397 133.8 202.797 131C202.697 130.9 202.697 130.8 202.597 130.6L201.797 133.5C207.597 131.6 213.297 129.7 219.097 127.7C232.897 123.1 246.697 118.6 260.497 114.1C277.297 108.6 294.097 103.3 310.897 97.8997C325.697 93.2997 340.497 88.6997 355.397 84.4997C360.397 83.0997 365.397 81.6997 370.497 80.4997C371.397 80.2997 372.397 80.0997 373.297 79.8997L374.497 79.6997C374.697 79.6997 375.397 79.4997 374.597 79.6997L375.197 79.5997C376.097 79.3997 377.297 79.5997 378.097 79.2997C378.097 79.2997 377.497 79.1997 377.997 79.2997C377.497 79.0997 376.997 78.7997 376.697 78.3997C377.497 79.1997 378.797 79.8997 379.797 79.0997C380.797 78.2997 380.497 76.9997 379.697 76.1997Z" fill="#000005"/>
<path d="M321.598 168.099C322.098 161.099 327.798 154.599 333.998 151.999C340.198 149.399 346.798 150.099 352.498 151.999C363.698 155.799 373.698 165.699 372.898 179.299C372.498 184.999 370.298 190.699 368.198 196.299L330.998 291.299L384.098 264.099" fill="white"/>
<path d="M328.898 167.4C328.998 166.5 329.098 165.6 329.398 164.7C329.498 164.3 329.598 163.9 329.798 163.5C329.898 163.3 329.998 163 330.098 162.8C329.898 163.4 329.898 163.2 330.098 162.7C330.498 161.8 330.998 161 331.498 160.3C331.798 159.9 331.998 159.6 332.298 159.2C332.398 159 332.998 158.4 332.398 159C331.798 159.6 332.598 158.7 332.698 158.7C333.298 158.1 333.998 157.4 334.598 156.9C334.798 156.8 334.998 156.6 335.198 156.4C335.098 156.5 333.898 157.3 334.798 156.7C335.198 156.4 335.598 156.1 335.998 155.9L336.598 155.5C337.098 155.2 337.498 155.3 335.898 155.8C336.298 155.7 336.698 155.4 337.098 155.3C337.498 155.2 338.398 154.8 337.198 155.2C335.998 155.6 336.898 155.3 337.098 155.2L337.998 155C338.198 155 339.698 154.7 338.298 154.9C336.898 155.1 338.798 154.9 339.098 154.8C339.698 154.8 340.298 154.8 340.898 154.7C340.798 154.8 339.198 154.7 340.398 154.7H340.998C341.698 154.7 342.298 154.8 342.998 154.9C343.398 154.9 343.998 155.2 342.598 154.8C342.798 154.9 342.998 154.9 343.198 154.9C343.798 155 344.298 155.1 344.898 155.3C345.998 155.6 347.098 155.9 348.098 156.2C348.498 156.4 348.798 156.5 349.198 156.6C349.098 156.6 347.898 156.1 348.798 156.5L349.398 156.8C350.198 157.2 350.998 157.6 351.798 158C353.298 158.8 354.698 159.7 356.098 160.8C356.398 161 356.798 161.1 355.898 160.7C356.098 160.9 356.398 161 356.498 161.2C356.898 161.5 357.198 161.8 357.498 162.1C358.198 162.8 358.898 163.5 359.498 164.2C360.798 165.7 361.998 167.4 362.998 169.2L362.498 168.2C364.298 171.7 365.298 175.5 365.398 179.4V178C365.398 185.7 362.198 192.9 359.398 199.9L350.598 222.4L333.498 267L323.698 292C322.998 293.8 325.198 295.1 326.598 295.4C329.098 296 331.598 295.7 333.898 294.6L386.998 267.4C388.398 266.7 389.998 265.9 390.898 264.4C391.598 263.4 391.598 262.1 390.798 261.1C388.598 258.8 383.698 259.3 381.198 260.6L328.098 287.8L338.298 290.4C349.198 262.6 360.098 234.8 370.998 207C373.698 200.2 376.698 193.4 378.798 186.3C380.498 180.4 380.998 173.9 379.098 168C375.398 157 365.098 149.6 354.198 146.9C344.998 144.6 334.798 145.7 326.698 150.8C320.598 154.7 315.098 161.2 314.398 168.7C314.098 172 318.198 172.6 320.698 172.3C322.598 172.1 324.498 171.5 326.198 170.5C327.198 169.9 328.698 168.8 328.898 167.4Z" fill="#000005"/>
<path d="M388.198 173.4C389.898 178 314.998 379.1 299.398 388.3C283.798 397.5 150.298 333.4 149.398 331.2C148.498 329 200.698 131.5 200.698 131.5L264.298 143.4L263.798 162.2C263.798 162.2 255.698 169.2 262.098 174.7C268.498 180.2 277.398 178.5 275.098 170.3C272.798 162.1 273.298 162.2 273.298 162.2C273.298 162.2 278.598 145.5 281.398 144.5C284.198 143.5 388.198 173.4 388.198 173.4Z" fill="#68BA7F"/>
<path d="M385.798 174.2C385.898 174.5 385.898 173.8 385.798 174.2C385.798 174.4 385.698 174.7 385.698 174.9C385.598 175.7 385.398 176.4 385.198 177.1C384.498 179.6 383.698 182.1 382.898 184.6C380.098 193.1 377.098 201.5 374.098 209.9C369.898 221.5 365.598 233.1 361.198 244.7C356.198 257.9 351.098 271 345.998 284.1C340.898 297.2 335.498 310.2 330.098 323.1C325.298 334.4 320.498 345.7 315.298 356.8C311.698 364.8 307.698 372.7 303.298 380.3C302.498 381.5 301.798 382.8 300.998 384C300.698 384.5 300.298 385 299.898 385.5C299.998 385.4 299.498 386 299.898 385.5L299.698 385.8C299.498 386 299.398 386.2 299.198 386.4C298.998 386.6 298.598 387 298.298 387.3C298.698 387.1 297.798 387.8 298.298 387.3C298.098 387.4 297.998 387.5 297.898 387.6C297.798 387.7 298.598 387.2 298.098 387.5L297.798 387.6C297.398 387.8 298.498 387.4 298.098 387.5C297.998 387.5 297.798 387.6 297.698 387.6C297.198 387.8 298.198 387.6 297.898 387.6C297.798 387.6 297.698 387.6 297.498 387.7C297.198 387.7 296.898 387.8 296.598 387.8C297.298 387.8 296.298 387.8 296.598 387.8H296.098H295.098H293.998H293.398H293.198C291.298 387.6 289.398 387.3 287.498 386.9C282.798 385.9 277.898 384.5 273.498 383.2C261.098 379.3 248.998 374.6 236.998 369.8C223.898 364.5 210.898 358.8 197.998 353C187.298 348.2 176.698 343.2 166.198 338.1C162.798 336.4 159.398 334.7 156.098 333C155.098 332.5 153.998 331.9 152.998 331.3L151.998 330.7C151.798 330.6 151.398 330.4 151.998 330.7C151.998 330.7 151.798 330.6 151.798 330.5C151.698 330.1 151.898 330.8 151.898 330.9C151.998 330.8 151.898 330.6 151.898 330.5C151.998 329.9 152.098 329.3 152.198 328.8C152.698 326.5 153.298 324.1 153.798 321.8C155.798 313.4 157.898 305 160.098 296.6C163.098 284.8 166.098 273 169.198 261.2C172.598 248 176.098 234.7 179.498 221.4C182.798 208.6 186.198 195.8 189.498 183C192.198 172.6 194.898 162.2 197.698 151.8C199.298 145.7 200.898 139.7 202.498 133.6C202.698 132.8 202.898 132 203.098 131.2L199.298 133L220.798 137L255.098 143.4L262.898 144.9L261.898 143.9L261.398 162.7L261.798 161.9C259.998 163.5 258.498 165.5 257.698 167.8C256.198 172 258.698 175.4 262.198 177.5C265.598 179.7 269.898 180.1 273.698 178.5C275.298 177.8 276.698 176.5 277.398 174.9C278.098 173 278.098 171 277.398 169.1C276.898 167.1 276.298 165 275.898 163C275.798 162.6 275.798 162.2 275.698 161.9C275.698 161.8 275.598 162.2 275.698 162C275.098 163.1 274.298 164.6 271.498 163.6C272.898 164.1 275.298 163.5 275.798 161.9C277.198 157.5 278.798 153.1 280.798 148.9C281.298 147.8 281.898 146.7 282.598 145.7C282.398 146 282.698 145.6 282.798 145.5C282.998 145.2 282.798 145.5 282.598 145.6C282.098 145.9 281.498 146 280.898 146.1C281.298 146.1 280.898 146.2 280.698 146.1C280.898 146.1 280.998 146.2 281.198 146.2C281.598 146.3 281.998 146.3 282.398 146.4C289.798 147.8 296.998 149.9 304.298 151.9C315.698 154.9 327.098 158.1 338.398 161.3C349.098 164.3 359.798 167.3 370.498 170.4L381.498 173.5C383.298 174 384.998 174.6 386.798 175L386.998 175.1C388.198 175.3 389.498 174.9 390.398 174C391.198 173.2 390.798 172.5 389.798 172.2L375.798 168.2C365.198 165.2 354.498 162.2 343.898 159.2C332.198 155.9 320.498 152.7 308.798 149.5C301.098 147.4 293.398 145.2 285.598 143.7C284.698 143.5 283.798 143.4 282.898 143.3C280.998 143.3 279.198 144.3 278.098 145.9C276.498 148.3 275.298 150.9 274.298 153.6C273.298 156.2 272.298 158.8 271.398 161.5L270.898 162.9L275.198 161.2C273.598 160.6 270.698 161.5 270.898 163.6C271.198 165.6 271.598 167.6 272.298 169.5C272.898 171.1 273.198 172.8 273.098 174.4C272.998 174.9 272.898 175.4 272.598 175.8C272.398 176.1 272.098 176.4 271.798 176.6C272.098 176.4 271.498 176.6 271.898 176.5C271.798 176.5 271.598 176.6 271.398 176.6C271.798 176.5 271.498 176.6 271.398 176.6C270.998 176.7 270.498 176.7 269.998 176.6C268.598 176.4 267.198 175.9 265.998 175.1C263.398 173.6 261.398 171.1 262.198 168C262.798 166 263.998 164.3 265.598 163C266.298 162.4 266.598 161.5 266.498 160.6L266.698 154.8L266.998 143.1C266.998 142.5 266.598 142.2 265.998 142L244.498 138L210.198 131.6L202.298 130.1C200.998 129.9 198.898 130.5 198.498 131.9C197.598 135.2 196.698 138.6 195.898 141.9C193.598 150.6 191.298 159.2 189.098 167.9C185.998 179.9 182.798 191.9 179.698 203.9C176.198 217.3 172.698 230.7 169.198 244.2C165.898 257 162.598 269.7 159.298 282.5C156.698 292.7 154.098 302.9 151.498 313.1C150.098 318.7 148.598 324.3 147.498 330C147.298 331 146.998 331.9 147.798 332.6C149.498 333.8 151.398 334.9 153.298 335.7C161.698 340.1 170.198 344.1 178.798 348.1C191.098 353.9 203.598 359.5 216.098 364.8C228.998 370.3 241.998 375.7 255.098 380.4C265.298 384.1 275.798 387.9 286.598 389.8C292.198 390.8 299.198 391.8 303.498 387C307.798 382.2 310.798 376 313.698 370.3C318.598 360.6 323.098 350.7 327.498 340.8C332.898 328.5 338.098 316 343.198 303.6C348.598 290.2 353.998 276.7 359.198 263.2C364.098 250.5 368.898 237.9 373.598 225.2C377.398 215 381.098 204.8 384.598 194.5C386.698 188.4 388.898 182.3 390.598 176C390.798 175.1 391.398 173.6 391.098 172.6C389.998 171 385.198 172.5 385.798 174.2Z" fill="#68BA7F"/>
<path d="M257.499 230.2C262.199 228.2 266.999 226.3 271.799 224.4L271.099 224.7C277.699 222.2 284.399 219.8 291.099 217.6L276.699 204.2C264.299 231.7 253.599 259.9 244.599 288.7C241.999 296.9 239.599 305.1 237.399 313.4C237.099 314.6 237.799 315.6 238.499 316.7C239.899 318.6 241.499 320.4 243.399 321.9C245.199 323.5 247.099 324.9 249.199 326C249.699 326.2 252.299 327.5 252.599 326.6C260.599 297.5 270.299 269 281.699 241C284.999 233.1 288.299 225.2 291.799 217.4C292.299 216.3 291.299 214.9 290.799 214.1C289.699 212.5 288.399 211.1 286.899 209.8C285.399 208.3 283.699 207 281.899 205.8L280.099 204.8C279.299 204.3 278.399 204 277.399 204C265.599 207.9 253.899 212.2 242.399 217.1C241.499 217.5 243.499 220.4 243.399 220.4C244.799 222.3 246.399 224.1 248.299 225.6C250.099 227.2 251.999 228.6 254.099 229.7C255.199 230.1 256.199 230.7 257.499 230.2Z" fill="white"/>
<path d="M237.898 324.8C241.898 325.4 245.798 326.3 249.598 327.4C251.398 328 253.198 328.6 254.998 329.3L255.798 329.6L255.298 329.4L256.698 330C257.598 330.4 258.598 330.9 259.498 331.3C260.198 331.7 262.298 332.7 263.098 331.8C263.898 330.9 262.898 328.9 262.498 328.2C259.998 324.1 256.498 320.7 252.298 318.4C243.798 314.2 234.598 311.4 225.198 310.2C223.798 310 224.098 312 224.298 312.6C224.998 314.5 226.198 316.3 227.598 317.8C230.298 320.8 233.798 324.3 237.898 324.8Z" fill="white"/>
<path d="M227.297 156.4C225.797 156.2 224.497 157.1 224.097 158.5C223.797 159.9 223.797 161.4 224.197 162.7C224.797 165.3 225.997 168.4 228.697 168.8C229.797 168.9 230.897 168.7 231.897 168.1C234.597 166.5 235.797 163.4 234.997 160.4C234.097 157.5 230.497 155.8 227.797 157" fill="white"/>
<path d="M296.199 168.6C294.799 168.4 293.399 169.3 292.999 170.7C292.699 172.1 292.699 173.6 293.099 174.9C293.699 177.5 294.899 180.6 297.599 181C298.699 181.1 299.799 180.9 300.799 180.3C303.499 178.7 304.699 175.6 303.899 172.6C302.899 169.7 299.399 168 296.699 169.2" fill="white"/>
<path d="M343.199 182.6C341.799 182.2 340.399 183.4 339.999 184.7C339.699 186.1 339.699 187.5 340.099 188.9C340.699 191.5 341.899 194.6 344.599 195C345.699 195.1 346.799 194.9 347.799 194.3C350.499 192.7 351.699 189.6 350.899 186.6C349.899 183.8 346.399 182 343.699 183.2" fill="white"/>
<path d="M239.599 137.599L253.699 133.999L287.599 125.199L328.399 114.599L363.699 105.499C369.399 103.999 375.199 102.799 380.799 101.099L380.999 100.999C383.599 100.299 381.299 95.8994 378.999 96.4994L364.899 100.099L330.999 108.899L290.199 119.399L254.899 128.499C249.199 129.999 243.399 131.199 237.799 132.899L237.599 132.999C235.099 133.799 237.299 138.199 239.599 137.599Z" fill="#000005"/>
<path d="M358.5 82.4996C358.1 77.4996 352.4 75.0996 348 75.0996C343.3 75.0996 339.6 78.8996 338.5 83.2996C336.9 89.0996 339 95.4996 340.7 101C341.6 103.9 342.7 106.8 343.7 109.6C344.5 112 345.8 114.3 347.3 116.3C350.6 120.2 358.2 123.1 362.5 119.3C363.4 118.5 359 116.6 358 117.5C357 118.5 355.5 118.9 354.1 118.6C352.6 118.1 351.5 116.5 350.7 115.3C348.4 111.7 347.1 107.2 345.8 103.2C343.4 95.8996 339.4 84.3996 347 78.6996C348 77.8996 349.9 76.8996 351.1 77.2996C352.6 77.9996 353.5 79.4996 353.6 81.0996C353.8 82.6996 358.5 83.2996 358.5 82.4996Z" fill="#000005"/>
<path d="M319.399 93.9993C318.199 91.7993 316.399 89.9993 314.199 88.6993C311.899 87.0993 309.199 85.8993 306.399 85.3993C303.999 84.9993 301.599 85.7993 299.999 87.6993C298.699 89.4993 297.999 91.6993 297.999 93.8993C297.799 99.3993 298.599 104.999 300.399 110.199C301.999 115.399 304.399 120.899 308.199 124.899C310.499 127.199 313.299 128.999 316.299 130.199C318.899 131.399 321.899 131.499 324.499 130.299C324.499 130.299 322.599 128.999 322.399 128.899C321.999 128.699 320.599 127.699 320.099 127.899C318.199 128.799 315.999 128.999 313.999 128.399C313.799 128.299 312.899 127.899 313.699 128.399C314.499 128.899 313.899 128.499 313.699 128.399C313.299 127.999 312.799 127.599 312.399 127.199C311.699 126.399 310.999 125.599 310.399 124.699C307.899 120.999 305.899 116.799 304.599 112.499C303.199 108.099 302.399 103.499 302.199 98.8993C302.099 95.6993 302.399 91.7993 304.899 89.3993C306.599 87.8993 308.999 87.3993 311.199 87.9993C311.499 88.0993 311.799 88.0993 311.999 88.1993C312.199 88.2993 313.299 88.6993 312.299 88.1993C311.299 87.6993 312.099 88.0993 312.299 88.2993C312.499 88.4993 312.799 88.7993 313.099 88.9993C313.899 89.7993 314.499 90.6993 314.999 91.6993C315.399 92.3993 316.899 92.9993 317.599 93.2993C317.999 93.5993 319.499 94.2993 319.399 93.9993Z" fill="#000005"/>
<path d="M237.997 118.1C236.597 113.4 233.197 109.5 227.897 110.2C222.597 110.9 218.897 115.1 217.297 120.1C214.297 130.1 215.197 141.5 219.097 151.2C221.197 156.5 224.197 161.6 228.697 165.1C230.197 166.3 234.497 163.9 232.297 162.3C229.097 159.6 226.597 156.2 224.897 152.3C222.997 148.2 221.597 143.7 220.897 139.2C220.197 134.7 220.197 130.2 220.797 125.7C221.297 121.9 221.997 116.9 225.297 114.4C229.197 111.4 232.197 116.2 233.197 119.6C233.797 121.7 238.597 120.2 237.997 118.1Z" fill="#000005"/>
<path d="M322.399 123.6C320.799 123.2 319.199 123.2 317.599 123.5C316.899 123.6 316.199 124 315.699 124.5C314.499 125.8 314.499 127.5 314.799 129.2C315.299 131.6 316.099 134.9 318.599 136.1C319.599 136.5 320.599 136.7 321.699 136.8C323.099 137 324.599 136.9 325.999 136.5C327.499 136.1 328.699 135.2 329.599 134C331.399 131.8 331.499 128.7 329.799 126.4C328.799 125.2 327.399 124.4 325.799 124.1C324.399 123.8 322.899 123.7 321.499 123.8C320.499 123.8 319.499 124 318.599 124.4C318.299 124.5 318.799 124.7 318.799 124.7C319.299 124.8 319.799 124.9 320.299 124.9C321.299 125.1 322.399 125 323.399 124.7C323.599 124.6 323.799 124.6 323.999 124.5C324.199 124.4 323.899 124.5 323.799 124.5C323.299 124.5 322.699 124.4 322.199 124.4C322.099 124.4 321.799 124.3 322.199 124.4C321.999 124.3 322.299 124.4 322.299 124.4C322.499 124.5 322.699 124.5 322.899 124.6C323.799 125 324.599 125.7 325.099 126.5C326.199 128.3 326.199 130.6 325.299 132.4C324.799 133.4 324.099 134.2 323.299 134.9C322.799 135.3 322.299 135.5 321.799 135.8C321.599 135.9 321.399 135.9 321.199 135.9C322.899 135.3 324.299 136.3 323.299 135.9C321.499 135.1 320.699 132.8 320.199 131C319.799 129.7 319.599 128.3 319.699 126.8C319.799 126.1 319.999 125.5 320.499 124.9C320.699 124.7 320.899 124.4 321.199 124.3C321.299 124.2 321.399 124.2 321.499 124.1C322.599 123.5 322.599 124.7 318.899 123.9C320.099 124.1 321.299 124.2 322.399 124.1C322.499 124.1 323.099 124 323.099 123.8C323.099 123.6 322.599 123.5 322.399 123.6Z" fill="#000005"/>
<path d="M360.899 108.7C360.099 108.5 359.299 108.5 358.599 108.9C357.999 109.2 357.399 109.7 357.099 110.4C356.299 111.9 356.699 113.7 357.099 115.3C357.399 116.6 357.799 117.8 358.499 119C359.399 120.4 360.699 121.4 362.199 122C364.099 122.9 366.299 123.7 368.299 122.9C369.599 122.4 370.799 121.5 371.599 120.3C373.199 118.1 373.199 115.1 371.499 112.9C369.999 111.4 368.199 110.2 366.099 109.7C364.399 108.9 362.499 108.8 360.799 109.4C360.299 109.6 362.099 110.4 362.199 110.5C362.799 110.8 363.399 111 363.999 111.2C364.299 111.3 364.899 111.5 365.099 111.4C365.499 111.2 365.999 111.1 366.499 111C366.699 111 366.899 111 367.099 111H367.399C367.599 111 367.599 111 367.499 111C367.299 110.8 366.699 110.7 366.399 110.6C366.299 110.5 366.099 110.5 365.999 110.4C366.199 110.5 366.199 110.5 366.099 110.4L366.399 110.6C366.799 110.9 367.099 111.3 367.399 111.7C368.499 113.6 368.499 115.8 367.399 117.7C366.899 118.7 366.199 119.5 365.299 120.1C364.599 120.6 363.699 121 362.799 121.1C362.699 121.1 362.499 121.1 362.399 121.1H361.999C363.499 121.2 364.899 122.6 364.099 121.9C363.899 121.7 363.799 121.6 363.599 121.4C363.299 121 362.999 120.6 362.799 120.2C362.299 119.2 361.999 118.2 361.699 117.2C361.199 115.8 361.199 114.2 361.499 112.7C361.699 112.1 361.999 111.6 362.499 111.2C362.699 111 362.999 110.8 363.399 110.7C363.499 110.7 363.599 110.6 363.699 110.6C363.799 110.6 364.099 110.6 363.999 110.5C363.899 110.4 364.699 110.7 364.799 110.5C364.899 110.3 364.199 110 364.199 110C363.199 109.4 362.099 108.9 360.899 108.7Z" fill="#000005"/>
<path d="M271.599 130.4C269.599 130 267.099 130.2 265.699 132C264.599 133.5 264.799 135.3 265.099 137C265.699 139.7 266.599 142.7 269.299 144C272.899 145.8 277.299 144.9 279.799 141.7C281.399 139.4 281.799 136.1 279.999 133.8C277.499 130.7 272.699 129.7 269.099 131.2C267.999 131.6 269.399 132.5 269.899 132.7C270.999 133.1 272.199 133.1 273.299 132.7C272.899 132.8 273.899 132.6 273.599 132.6C273.299 132.6 273.799 132.6 273.799 132.6C273.799 132.6 273.199 132.6 273.699 132.6C273.599 132.6 273.099 132.5 273.499 132.6C273.899 132.7 273.299 132.5 273.299 132.6C273.299 132.7 273.599 132.6 273.599 132.7C273.299 132.6 273.199 132.6 273.499 132.7L273.599 132.8C274.099 132.9 273.399 132.7 273.599 132.8C273.699 132.9 273.799 132.9 273.899 132.9L274.299 133.1C274.199 133.1 274.099 132.9 274.299 133.1C274.599 133.4 274.899 133.7 275.199 134C276.399 135.7 276.499 137.8 275.599 139.6C275.199 140.5 274.499 141.3 273.799 142C273.399 142.3 272.999 142.6 272.499 142.8L272.099 142.9C272.399 142.8 272.099 142.9 271.999 142.9C272.099 142.9 272.299 142.9 272.499 142.9C272.799 143 272.899 143 272.599 142.9L272.899 143C272.599 142.9 272.899 143 272.999 143C273.099 143 272.599 142.8 272.799 142.9C272.999 143 272.599 142.7 272.599 142.8L272.399 142.6C272.099 142.3 271.799 142 271.599 141.6C271.099 140.7 270.699 139.8 270.399 138.8C269.999 137.5 269.799 136.2 269.899 134.8C269.999 134.1 270.199 133.5 270.599 133C270.799 132.8 270.899 132.7 271.099 132.5C271.199 132.5 271.299 132.3 271.299 132.4C271.199 132.4 271.199 132.5 271.099 132.5C270.699 132.5 270.399 132.5 269.999 132.4C270.799 132.6 272.499 132.8 273.099 132C273.699 131.2 271.999 130.5 271.599 130.4Z" fill="#000005"/>
<path d="M273.299 105.799C272.899 104.299 271.199 103.599 269.799 103.299C267.699 102.799 265.599 102.699 263.399 102.899C259.099 103.299 255.199 105.099 252.999 108.899C250.799 112.899 250.899 117.599 252.399 121.799C253.399 124.299 254.599 126.599 256.099 128.799C257.499 130.999 258.999 133.099 260.699 134.999C264.799 139.399 271.299 141.499 277.099 139.099C277.999 138.699 277.999 137.999 277.099 137.599C275.999 137.099 274.699 137.099 273.599 137.499C270.199 138.899 266.799 135.899 264.699 133.499C262.099 130.399 259.899 126.999 258.099 123.399C256.299 120.099 255.799 116.199 256.599 112.499C257.299 109.599 259.199 106.499 262.099 105.399C263.399 104.899 264.899 104.699 266.299 104.899C266.799 104.899 267.999 104.999 268.199 105.599C268.699 107.299 273.499 106.899 273.299 105.799Z" fill="#000005"/>
<path d="M379.9 81.4002C380.8 84.1002 381.8 86.7002 383.1 89.2002C385.1 93.8002 387.3 98.4002 389.4 103C395.8 116.5 402.3 130 408.9 143.4C416.6 159.1 424.3 174.8 432.1 190.4C439 204.3 446 218.2 453 232.1C457 240 461 248 465.1 255.9L465.7 257C466.3 258.1 467.4 258.8 468.7 258.9C469.7 258.9 470.2 258.2 469.7 257.3C466 250.5 462.6 243.5 459.1 236.6C452.4 223.3 445.7 209.9 439 196.6C431.2 181 423.4 165.3 415.7 149.6C408.9 135.7 402.1 121.7 395.4 107.6C393 102.6 390.7 97.6002 388.4 92.6002C387.6 90.8002 386.8 89.0002 386 87.1002C385.7 86.4002 385.4 85.7002 385.1 85.1002C385.1 85.0002 385.3 85.5002 385.1 85.0002C385.1 84.9002 385 84.7002 384.9 84.6002C384.8 84.5002 384.7 84.1002 384.6 83.8002C384.5 83.5002 384.3 83.0002 384.2 82.7002C383.7 81.6002 382.8 80.7002 381.6 80.4002C380.9 80.1002 379.6 80.3002 379.9 81.4002Z" fill="#000005"/>
<path d="M309.897 217.099L320.397 212.399C321.197 211.999 319.897 210.799 319.497 210.599C318.997 210.199 318.497 209.899 317.897 209.599C317.597 209.499 316.997 209.199 316.697 209.399L306.197 214.099C305.397 214.499 306.797 215.699 307.097 215.899C307.597 216.299 308.097 216.599 308.697 216.899C308.997 216.999 309.497 217.199 309.897 217.099Z" fill="#000005"/>
<path d="M310.598 229.999L319.698 230.799C320.298 230.899 320.998 230.799 321.498 230.399C321.998 230.099 322.298 229.599 322.398 229.099C322.398 227.899 321.398 226.799 320.198 226.699L311.098 225.999C310.498 225.899 309.798 225.999 309.298 226.299C308.798 226.599 308.498 227.099 308.398 227.599C308.398 228.899 309.398 229.899 310.598 229.999Z" fill="#000005"/>
<path d="M145.797 384.1C145.797 384.1 173.997 407.1 176.497 401.6C178.997 396.1 160.197 367.2 160.197 367.2L145.797 384.1Z" fill="#000005"/>
<path d="M144.898 385.2C148.098 387.8 151.298 390.2 154.598 392.6C159.898 396.5 165.498 400.6 171.598 403.2C173.198 403.9 175.798 404.9 177.498 404C179.198 403.1 178.798 400.5 178.498 398.9C176.898 392.4 173.298 386.2 169.998 380.4C167.398 375.9 164.798 371.4 161.898 367.1C161.298 366.2 159.198 364.5 158.198 365.7L145.598 380.6L143.798 382.7C142.598 384.2 146.398 387.3 147.698 385.8L160.298 370.9L162.098 368.8L158.398 367.4C160.598 370.8 162.698 374.2 164.698 377.7C167.998 383.4 171.298 389 173.598 395.2C173.998 396.2 174.298 397.2 174.498 398.2C174.598 398.6 174.598 399.1 174.598 399.5C174.598 399.8 174.598 399.5 174.598 399.4C174.598 399.5 174.598 399.6 174.598 399.7C174.598 399.9 174.498 400 174.498 400.2C174.598 399.9 174.198 400.6 174.398 400.3C174.298 400.4 174.198 400.4 173.998 400.5C174.598 400.4 173.898 400.5 173.798 400.5C173.298 400.5 174.198 400.6 173.698 400.5L173.098 400.4L172.898 400.3C172.498 400.2 173.298 400.4 172.998 400.3L172.198 400.1C171.698 399.9 171.198 399.7 170.698 399.5C170.198 399.3 170.898 399.6 170.298 399.3L169.298 398.8C167.998 398.1 166.698 397.3 165.398 396.6C164.098 395.9 162.698 394.9 161.398 394L159.698 392.9C158.998 392.4 158.298 391.9 157.598 391.4C153.898 388.7 150.298 386 146.798 383.1C146.198 382.6 144.698 381.8 143.998 382.6C143.298 383.4 144.298 384.7 144.898 385.2Z" fill="#000005"/>
<path d="M90.3991 387.601C90.3991 387.601 65.4991 411.001 63.1991 407.501C60.8991 404.001 70.8991 377.101 70.8991 377.101L90.3991 387.601Z" fill="#000005"/>
<path d="M88.4973 386.001C82.2973 392.101 75.5973 397.701 68.5973 402.801C67.6973 403.401 66.6973 404.101 65.7973 404.601C65.3973 404.801 64.9973 405.101 64.5973 405.201L64.0973 405.401C63.7973 405.501 64.1973 405.401 64.1973 405.401L63.8973 405.501C63.7973 405.501 63.5973 405.601 63.4973 405.601C62.9973 405.801 63.6973 405.601 63.5973 405.601C63.2973 405.601 63.1973 405.501 63.7973 405.701C64.2973 405.901 64.6973 406.201 64.9973 406.501C64.8973 406.401 65.3973 407.101 65.1973 406.701C65.4973 407.401 65.3973 407.001 65.2973 406.801C65.0973 406.301 65.2973 406.901 65.2973 406.701C65.2973 406.501 65.2973 406.301 65.2973 406.001C65.3973 403.801 65.7973 401.601 66.3973 399.501C67.0973 396.501 67.9973 393.601 68.8973 390.601C70.1973 386.401 71.6973 382.201 73.1973 378.101L70.3973 378.801L87.4973 388.001L89.8973 389.301C90.7973 389.801 92.2973 389.801 92.6973 388.601C93.0973 387.401 92.0973 386.201 91.0973 385.601L73.9973 376.601L71.5973 375.301C70.6973 374.801 69.1973 374.801 68.7973 376.001C67.3973 379.801 66.0973 383.601 64.8973 387.401C63.8973 390.501 62.9973 393.601 62.1973 396.801C61.4973 399.401 60.9973 402.001 60.7973 404.701C60.6973 406.901 61.4973 409.401 63.8973 410.001C65.7973 410.501 67.7973 409.401 69.2973 408.401C74.1973 405.401 78.6973 401.501 82.9973 397.801C86.1973 395.001 89.3973 392.201 92.4973 389.301C93.3973 388.401 92.4973 386.901 91.6973 386.301C90.7973 385.301 89.3973 385.201 88.4973 386.001Z" fill="#000005"/>
<path d="M118.856 395.12C158.962 392.295 189.297 359.1 186.611 320.977C183.925 282.854 149.236 254.241 109.13 257.066C69.0239 259.892 38.6891 293.087 41.375 331.21C44.0609 369.332 78.7505 397.946 118.856 395.12Z" fill="white"/>
<path d="M184.298 321.601C185.298 335.701 181.698 349.701 174.098 361.601C166.598 373.301 155.698 382.501 142.898 388.001C129.298 393.701 114.398 395.201 99.9982 392.301C86.0982 389.501 73.2982 382.601 63.1982 372.601C42.4982 352.101 37.6982 320.401 51.5982 294.801C58.1982 282.701 68.1982 272.901 80.3982 266.501C106.798 253.001 138.798 256.801 161.298 276.101C171.898 285.301 179.398 297.601 182.698 311.201C183.498 314.701 183.998 318.201 184.298 321.601C184.398 323.701 189.098 322.101 188.998 320.301C187.898 305.601 182.098 291.701 172.398 280.601C162.698 269.501 149.798 261.601 135.598 257.901C120.298 253.901 104.198 254.601 89.2982 259.801C74.9982 264.701 62.3982 273.801 53.0982 285.801C44.1982 297.501 39.1982 311.701 38.9982 326.401C38.7982 341.201 43.5982 355.601 52.3982 367.501C61.2982 379.201 73.3982 388.001 87.2982 392.801C102.198 397.801 118.298 398.301 133.498 394.201C148.298 390.201 161.498 382.001 171.698 370.601C181.398 359.601 187.398 345.901 188.898 331.301C189.198 327.701 189.298 324.101 188.998 320.401C188.798 318.301 184.198 319.901 184.298 321.601Z" fill="#000005"/>
<path d="M39.3992 284.401L70.0991 256.101C70.0991 256.101 63.5992 245.101 48.4992 251.501C33.3992 257.901 33.9992 276.201 39.3992 284.401Z" fill="#000005"/>
<path d="M41.5967 284.7L68.4967 259.9L72.2967 256.4C72.5967 256.2 72.5967 255.8 72.4967 255.6C71.2967 253.8 69.7967 252.3 67.9967 251.2C63.5967 248.4 58.1967 248 53.1967 249C47.2967 250.1 41.5967 253.1 37.8967 257.9C35.0967 261.8 33.4967 266.5 33.4967 271.3C33.2967 276.1 34.5967 280.9 37.0967 285.1C37.8967 286.3 42.6967 285.3 41.7967 284C37.3967 277.4 37.2967 267.7 40.8967 260.7C44.8967 253.1 55.2967 247.8 63.1967 252.5C65.0967 253.5 66.5967 255 67.7967 256.8L67.9967 256L40.9967 280.7L37.1967 284.2C36.3967 285 37.6967 285.4 38.2967 285.5C39.4967 285.7 40.6967 285.4 41.5967 284.7Z" fill="#000005"/>
<path d="M146.5 248.7L181.9 275.2C181.9 275.2 192.7 254.4 178.9 243.9C165.1 233.4 148.5 242.4 146.5 248.7Z" fill="#000005"/>
<path d="M144.5 247.901L156.4 256.801L175.5 271.101L179.9 274.401C180.3 274.701 183.9 276.801 184.1 276.301C187.3 270.101 189.1 262.201 187.6 255.301C186.2 249.001 181.8 244.901 176.3 241.901C170.1 238.601 163.4 237.001 156.5 238.801C153.6 239.501 150.9 240.801 148.4 242.501C146.5 243.701 145 245.501 144.1 247.601C143.9 248.201 148.5 250.001 148.6 249.801C149.9 246.001 154.2 243.501 157.7 242.101C162.7 240.001 169.5 239.301 174.6 241.701C179.3 244.001 182.4 248.901 183.2 253.901C183.8 258.301 183.5 262.801 182.2 267.001C181.5 269.401 180.6 271.801 179.5 274.101L183.7 276.001L171.8 267.101L152.7 252.801L148.3 249.501C147.4 248.801 146.4 248.301 145.3 247.901C145.2 247.801 143.7 247.301 144.5 247.901Z" fill="#000005"/>
<path d="M97 253.8C97 253.8 97.8 241.9 111.8 243.4C125.8 244.9 124 254.4 124 254.4C124 254.4 98.3 255.8 97 253.8Z" fill="#000005"/>
<path d="M99.1989 254.701C99.1989 254.401 99.2989 254.001 99.3989 253.701C99.4989 253.401 99.5989 253.101 99.5989 252.701C99.5989 252.301 99.4989 253.101 99.5989 252.801C99.5989 252.701 99.6989 252.601 99.6989 252.501C99.6989 252.401 99.8989 252.001 99.9989 251.801C100.799 249.601 102.499 247.801 104.599 246.701C107.999 245.001 112.399 245.301 115.999 246.401C116.399 246.501 116.899 246.701 117.299 246.801C117.599 246.901 117.799 247.001 118.099 247.101C118.099 247.101 118.499 247.301 118.299 247.201C118.699 247.401 118.999 247.601 119.399 247.801C119.499 247.901 119.699 248.001 119.799 248.101C120.399 248.501 119.499 247.801 119.999 248.201C120.199 248.401 120.499 248.701 120.699 248.901C121.199 249.401 120.599 248.701 120.899 249.201L121.299 249.901C121.299 249.901 121.599 250.401 121.399 250.101C121.199 249.801 121.499 250.301 121.499 250.401C121.599 250.601 121.699 250.901 121.699 251.101C121.899 251.601 121.699 250.801 121.799 251.501C121.899 251.901 121.899 252.301 121.899 252.701C121.999 253.301 121.899 252.301 121.899 252.701C121.899 252.801 121.899 253.001 121.899 253.101C121.899 253.201 121.899 253.301 121.899 253.401L123.299 252.001C115.999 252.501 108.599 252.701 101.299 252.401C100.399 252.301 99.4989 252.301 98.5989 252.101C98.3989 252.101 98.2989 252.001 98.0989 252.001C98.4989 252.101 97.4989 251.901 98.0989 252.001C97.9989 252.001 97.8989 251.901 97.7989 251.901C98.1989 252.201 98.5989 252.501 98.8989 252.901C98.1989 252.001 96.9989 251.101 95.7989 251.701C94.8989 252.301 94.5989 253.501 95.1989 254.501L95.2989 254.601C96.4989 256.101 98.0989 256.501 99.9989 256.701C102.299 256.901 104.599 257.001 106.899 257.001C111.799 257.001 116.599 256.901 121.499 256.701C122.699 256.701 123.799 256.601 124.899 256.501C125.599 256.401 126.199 255.901 126.299 255.101C127.299 249.801 123.299 245.001 118.699 242.801C111.399 239.401 100.699 239.801 96.4989 247.601C95.5989 249.201 94.9989 251.001 94.8989 252.801C94.7989 254.101 95.5989 255.301 96.7989 255.701C97.5989 256.201 99.0989 255.901 99.1989 254.701Z" fill="#000005"/>
<path d="M93.698 318.501C99.698 320.601 104.698 324.501 109.398 328.701C110.698 329.901 111.198 330.401 112.398 331.401C112.898 331.901 113.398 332.301 113.798 332.801C112.798 331.901 114.498 333.701 113.398 332.401C112.998 332.001 112.698 331.601 112.498 331.101C112.498 330.901 112.498 331.101 112.698 331.401C113.498 333.501 112.898 336.401 110.798 337.501C109.598 338.101 108.898 337.801 107.698 337.501C111.198 338.501 111.198 343.401 110.798 340.601C110.698 339.801 110.698 339.001 110.898 338.201C111.698 335.101 114.098 332.501 116.098 330.201C120.498 325.301 125.398 320.901 130.698 316.901C136.698 312.301 142.898 308.201 149.198 304.101C149.998 303.601 146.998 300.101 146.698 299.701C145.998 298.801 145.098 297.901 144.298 297.101C143.998 296.901 143.298 296.101 142.898 296.401C136.298 300.701 129.598 305.101 123.298 310.001C120.198 312.401 117.198 314.901 114.398 317.601C111.498 320.301 108.898 323.201 106.498 326.401C105.398 327.901 104.698 329.501 104.298 331.301C103.998 333.201 104.398 335.101 105.398 336.601C106.998 339.501 109.198 342.101 111.798 344.101C112.998 345.201 114.698 345.701 116.298 345.301C119.398 344.401 119.798 340.401 118.898 337.801C117.898 335.301 116.398 333.001 114.598 331.001C113.098 329.201 111.398 327.501 109.698 325.901C103.098 319.801 96.298 313.601 87.698 310.501C86.598 310.101 88.998 313.701 89.098 313.901C89.898 314.901 90.698 315.901 91.698 316.801C92.298 317.601 92.998 318.101 93.698 318.501Z" fill="#68BA7F"/>
<path d="M108.797 271L109.297 277.9Z" fill="white"/>
<path d="M106.598 270L107.098 276.9C107.198 278 108.398 278.8 109.298 279.2C109.798 279.4 110.298 279.6 110.898 279.5C111.198 279.4 111.598 279.3 111.598 278.9L111.098 272C110.998 270.9 109.798 270.1 108.898 269.7C108.398 269.5 107.898 269.4 107.298 269.4C106.898 269.4 106.598 269.6 106.598 270Z" fill="#000005"/>
<path d="M117.898 370.5L118.498 378.2Z" fill="white"/>
<path d="M115.598 370L116.098 377.7C116.098 378.3 116.398 378.9 116.798 379.4C117.198 379.9 117.798 380.3 118.398 380.4C118.998 380.5 119.498 380.4 119.998 380C120.398 379.6 120.698 379.1 120.698 378.5L120.198 370.8C120.198 370.2 119.898 369.5 119.498 369C119.098 368.5 118.598 368.1 117.898 368C117.298 367.9 116.798 368 116.298 368.4C115.898 368.9 115.598 369.4 115.598 370Z" fill="#000005"/>
<path d="M161.699 320L168.199 319.5Z" fill="white"/>
<path d="M163.4 321.401L169.9 320.901C170.2 320.901 170.5 320.801 170.4 320.501C170.3 320.201 169.9 319.701 169.6 319.501C169.1 319.101 168.5 318.801 168 318.501C167.5 318.201 167 318.101 166.5 318.101L160 318.601C159.7 318.601 159.4 318.701 159.5 319.001C159.6 319.301 160 319.801 160.3 320.001C160.8 320.401 161.4 320.701 161.9 321.001C162.4 321.201 162.9 321.401 163.4 321.401Z" fill="#000005"/>
<path d="M54.1992 332.001L60.2992 331.601Z" fill="white"/>
<path d="M52.1977 333.3L58.2977 332.9C58.6977 332.9 59.0977 332.8 59.3977 332.6C59.9977 332.4 60.5977 332.1 61.0977 331.7C61.4977 331.5 61.9977 331.2 62.2977 330.8C62.3977 330.7 62.6977 330.4 62.3977 330.4L56.2977 330.8C55.8977 330.8 55.4977 331 55.1977 331.1C54.5977 331.3 53.9977 331.6 53.4977 332C53.0977 332.2 52.5977 332.5 52.2977 332.9C52.1977 332.9 51.7977 333.3 52.1977 333.3Z" fill="#000005"/>
<path d="M72.9968 418.8C63.4968 418.9 54.1968 416.1 46.3968 410.8C45.6968 410.3 44.0968 410.8 43.2968 411C43.0968 411.1 41.1968 411.6 41.6968 411.9C49.9968 417.4 59.7968 420.2 69.6968 420C70.8968 420 72.0968 419.8 73.1968 419.4C73.8968 419.1 73.9968 418.7 72.9968 418.8Z" fill="#68BA7F"/>
<path d="M39.9983 420.401C36.8983 419.201 33.8983 417.701 31.1983 415.901C30.2983 415.301 30.9983 416.801 31.1983 417.001C31.6983 418.001 32.4983 418.901 33.3983 419.601C36.2983 421.501 39.4983 423.101 42.7983 424.401C43.0983 424.501 42.9983 424.001 42.9983 423.901C42.7983 423.401 42.5983 423.001 42.2983 422.601C41.8983 422.101 41.4983 421.601 41.0983 421.101C40.6983 420.901 40.3983 420.601 39.9983 420.401Z" fill="#68BA7F"/>
<path d="M191.8 396.1C187.5 402.7 181.3 407.7 174 410.5C171.4 411.5 174.8 415 176.8 414.2C184.7 411.2 191.5 405.7 196.1 398.7C197.4 396.8 193.1 394.2 191.8 396.1Z" fill="#68BA7F"/>
<path d="M180.497 418.901C179.297 419.701 178.097 420.401 176.897 421.101L176.397 421.301L175.497 421.701C174.797 422.001 174.197 422.301 173.497 422.501C172.997 422.701 172.497 423.001 172.197 423.501C171.997 423.901 171.997 424.301 172.197 424.701C172.997 425.601 174.497 425.401 175.397 425.001C178.297 423.901 180.997 422.501 183.497 420.701C183.897 420.501 184.297 420.001 184.397 419.601C184.497 419.201 184.297 418.701 183.897 418.501C182.797 418.101 181.497 418.201 180.497 418.901Z" fill="#68BA7F"/>
<path d="M92.0975 221.2C93.1975 209.8 94.3975 198.1 98.6975 187.4C102.697 177.5 109.997 166.9 121.097 164.4C125.997 163.3 131.597 164.2 135.497 167.6C138.997 170.8 140.397 175.6 139.197 180.2C138.797 181.4 137.297 184.9 135.797 183.2C134.297 181.3 133.397 179 133.397 176.6C132.997 171.7 135.097 166.8 137.897 162.9C141.297 158.2 145.997 154.7 151.497 152.9C156.497 151.2 162.197 151.2 166.497 154.7C168.797 156.6 172.197 153.5 169.697 151.4C159.597 143 144.397 148.5 136.397 157.1C132.297 161.5 128.997 167.3 128.497 173.4C128.197 176.4 128.597 179.3 129.697 182.1C130.997 185.2 133.497 188.4 137.097 188.2C140.697 188 142.997 184.6 143.997 181.5C144.797 178.6 144.797 175.6 143.997 172.7C142.297 166.4 137.097 161.9 130.997 160.2C117.397 156.4 105.097 166 98.3975 176.9C90.4975 189.8 88.5975 205.3 87.2975 220.1C87.1975 221.4 87.9975 222.6 89.2975 222.8C90.2975 223.1 91.8975 222.5 92.0975 221.2Z" fill="#68BA7F"/>
<path d="M87.2965 164.9C89.9965 161.2 94.1965 158.8 98.7965 158.5C98.8965 158.5 98.1965 157.8 98.2965 157.9C97.8965 157.5 97.3965 157.1 96.8965 156.7C96.3965 156.3 95.9965 156 95.4965 155.7C95.2965 155.5 95.0965 155.4 94.7965 155.4C90.1965 155.8 85.9965 158.1 83.2965 161.8C83.0965 162.1 86.9965 165.2 87.2965 164.9Z" fill="#68BA7F"/>
<path d="M179.799 157.4H183.199C183.599 157.4 184.099 157.2 184.299 156.9C184.499 156.5 184.399 156 184.199 155.7C183.899 155.2 183.399 154.7 182.899 154.4C182.399 154.1 181.799 153.9 181.199 153.9H177.799C177.399 153.9 176.899 154.1 176.699 154.4C176.499 154.8 176.599 155.3 176.799 155.6C177.099 156.1 177.599 156.6 178.099 156.9C178.599 157.2 179.199 157.4 179.799 157.4Z" fill="#68BA7F"/>
</svg>
