<svg width="238" height="238" viewBox="0 0 238 238" fill="none" xmlns="http://www.w3.org/2000/svg">
<path d="M109.008 101.531C109.342 101.531 109.627 101.293 109.627 100.96C109.627 100.817 109.58 100.722 109.532 100.626C109.246 100.103 108.675 99.8171 108.056 99.7695C107.723 99.7695 107.438 100.008 107.438 100.341C107.438 100.484 107.485 100.579 107.533 100.674C107.866 101.198 108.39 101.483 109.008 101.531Z" fill="#000005"/>
<path d="M108.529 100.626C112.861 104.054 116.954 102.054 116.954 102.054C118.192 104.958 122.381 101.34 122.381 101.34C122.381 101.34 124.237 102.054 125.665 99.6268C127.093 97.1992 125.475 94.2004 125.475 94.2004C125.475 94.2004 133.186 97.7228 134.186 96.6756C135.185 95.6284 132.472 91.868 125.046 89.726C117.621 87.584 105.864 91.3444 105.864 91.3444L98.9141 92.106" fill="white"/>
<path d="M107.479 100.722C109.526 102.34 112.049 103.197 114.619 103.149C115.761 103.149 116.904 102.911 117.951 102.483L115.809 102.054C116.618 103.863 119.046 104.006 120.712 103.387C121.759 103.006 122.663 102.435 123.52 101.674H121.759C123.568 102.435 125.71 101.721 126.757 100.055C127.804 98.3416 127.566 96.0568 126.662 94.2956L124.853 94.5336C125.9 95.0096 126.995 95.438 128.042 95.8664C129.756 96.5328 131.612 97.2468 133.469 97.3896C134.04 97.4372 134.944 97.4848 135.373 97.0088C135.611 96.6756 135.658 96.1996 135.515 95.8188C135.087 94.3432 133.564 93.2484 132.374 92.4392C127.804 89.3452 122.235 88.3456 116.809 88.7264C112.953 89.012 109.193 89.726 105.48 90.8208C105.385 90.8684 105.242 90.8684 105.147 90.916C105.147 90.9636 105.48 90.8684 105.337 90.8684C105.194 90.8684 105.147 90.8684 105.099 90.916L102.767 91.154L98.435 91.63C98.1018 91.6776 97.5782 91.8204 97.9114 92.2012C98.2446 92.582 99.0538 92.6296 99.4822 92.582C101.815 92.344 104.099 92.106 106.432 91.8204C107.193 91.6776 108.003 91.4396 108.764 91.2016C110.573 90.7256 112.429 90.3448 114.286 90.0592C116.523 89.6784 118.808 89.5356 121.045 89.5832C123.425 89.726 125.71 90.2972 127.852 91.2968C129.565 92.0584 131.327 93.058 132.517 94.5336C132.85 94.9144 133.088 95.3428 133.231 95.8188C133.278 95.9616 133.231 96.152 133.231 96.2948C133.183 96.39 133.088 96.4852 133.088 96.4852C133.135 96.39 133.278 96.4852 133.088 96.4852C133.278 96.4852 133.088 96.5328 133.326 96.4852C133.231 96.4852 133.183 96.4852 133.088 96.4852C133.278 96.4852 133.278 96.5328 133.088 96.4852L132.85 96.4376C132.612 96.39 133.088 96.4852 132.802 96.4376C132.612 96.39 132.374 96.3424 132.183 96.2948C131.327 96.0568 130.47 95.7712 129.661 95.438C128.518 95.0096 127.376 94.5336 126.233 94.01C125.995 93.9148 124.091 93.6292 124.425 94.248C125.139 95.5808 125.329 97.1516 124.948 98.5796C124.71 99.5792 123.996 100.436 123.092 100.912C122.949 100.96 122.854 100.96 122.711 101.007C122.806 100.96 122.759 101.007 122.663 101.007C122.711 101.007 122.901 101.007 122.663 101.007L122.901 101.055C122.711 101.007 123.139 101.15 123.044 101.102C122.568 100.912 121.711 100.722 121.283 101.102C120.759 101.531 120.188 101.912 119.569 102.245C119.141 102.435 118.713 102.626 118.237 102.721C118.046 102.768 118.237 102.721 118.332 102.721C118.427 102.721 118.475 102.768 118.522 102.768C118.617 102.816 118.57 102.816 118.475 102.721C118.379 102.53 118.189 102.34 118.046 102.102C117.808 101.531 116.428 101.436 115.904 101.674C115.333 101.959 114.667 102.102 114.048 102.15C112.429 102.292 110.859 101.578 109.526 100.579C109.05 100.246 108.479 100.103 107.955 100.198C107.717 100.198 107.003 100.388 107.431 100.722H107.479Z" fill="#000005"/>
<path d="M121.719 95.2002C121.719 95.2002 124.622 98.0562 122.385 101.388L121.719 95.2002Z" fill="white"/>
<path d="M121.616 95.9622C121.473 95.8194 121.378 95.7241 121.569 95.9145C121.664 96.0097 121.759 96.1525 121.854 96.2477C121.949 96.3429 121.664 95.9621 121.807 96.1525L121.902 96.2477C121.949 96.3429 122.045 96.4381 122.092 96.5333C122.14 96.5809 122.14 96.6286 122.188 96.6762C122.045 96.5334 122.092 96.4381 122.14 96.6285C122.187 96.8189 122.235 96.8665 122.33 97.0093C122.283 96.8665 122.425 97.2473 122.33 97.0093C122.378 97.1521 122.378 97.1521 122.426 97.2473C122.473 97.3425 122.473 97.3901 122.473 97.4377C122.473 97.4853 122.521 97.7233 122.473 97.4853C122.473 97.6281 122.521 97.7709 122.521 97.9137C122.521 98.0089 122.521 98.0565 122.521 98.1517C122.521 98.1993 122.521 98.2469 122.521 98.2469C122.473 99.0085 122.187 99.7701 121.759 100.389C121.331 101.055 122.759 102.912 123.235 102.15C124.234 100.579 124.425 98.6278 123.663 96.9142C123.282 95.9146 122.711 95.0578 121.95 94.2962C121.664 94.0106 121.093 93.8677 121.045 94.3913C120.997 94.9149 121.235 95.629 121.616 95.9622Z" fill="#000005"/>
<path d="M119.005 99.3887C119.005 99.3887 115.768 105.91 107.391 100.15L119.005 99.3887Z" fill="white"/>
<path d="M117.953 98.9603C117.857 99.1507 117.715 99.3411 117.619 99.5315C117.524 99.7219 117.715 99.3887 117.667 99.4839L117.572 99.6267C117.477 99.7219 117.381 99.8171 117.334 99.9123C117.143 100.15 116.905 100.341 116.667 100.531C116.905 100.341 116.572 100.626 116.477 100.674C116.382 100.722 116.191 100.864 116.001 100.96L115.715 101.102C115.906 101.007 115.763 101.055 115.668 101.102C115.477 101.198 115.287 101.245 115.097 101.293L114.811 101.388C114.668 101.436 114.859 101.388 114.859 101.388L114.716 101.436C114.478 101.483 114.24 101.483 114.002 101.483C113.526 101.483 113.05 101.436 112.574 101.34C111.003 100.96 109.527 100.293 108.242 99.3411C107.719 99.0079 107.005 99.0555 106.576 99.5315C106.195 99.9123 106.148 100.531 106.529 100.96C106.576 101.007 106.576 101.007 106.624 101.055C109.004 102.673 112.003 104.101 114.954 103.53C116.715 103.197 118.238 102.245 119.333 100.864C119.571 100.531 119.809 100.198 119.999 99.8647C120.713 98.4843 118.571 97.7703 117.953 98.9603Z" fill="#000005"/>
<path d="M71.2592 191.59L75.1148 192.732C75.1148 192.732 84.968 198.254 83.3972 200.158C81.8264 202.062 75.7812 201.586 68.2128 199.444C60.6444 197.302 58.55 194.113 62.6436 189.353L71.2592 191.59Z" fill="#000005"/>
<path d="M71.7361 192.542L74.9729 193.494C75.1633 193.59 75.3537 193.637 75.5441 193.637C75.7345 193.637 75.3537 193.494 75.4965 193.59C75.7345 193.732 75.9725 193.875 76.2105 194.018C77.2577 194.637 78.3049 195.303 79.3521 195.97C79.9233 196.35 80.4469 196.731 80.9705 197.16C81.2561 197.35 81.4941 197.588 81.7321 197.778L82.1129 198.112C82.1605 198.159 82.2557 198.254 82.1129 198.112L82.3033 198.302C82.3985 198.397 82.4937 198.54 82.6365 198.635C82.4461 198.445 82.6365 198.635 82.6841 198.73C82.8745 198.921 82.5889 198.54 82.6365 198.683C82.6841 198.73 82.6841 198.778 82.7317 198.826C82.6841 198.683 82.6365 198.73 82.6841 198.778C82.7317 198.826 82.7317 198.873 82.6841 198.778C82.6365 198.683 82.6365 198.683 82.6841 198.778C82.7317 198.873 82.6841 198.683 82.6841 198.873C82.6841 198.826 82.6841 198.921 82.6841 199.016C82.6365 199.206 82.5413 199.349 82.3985 199.444C81.3989 200.349 79.7805 200.396 78.5429 200.396C76.3057 200.349 74.0685 200.063 71.9265 199.54C69.3561 199.064 66.8809 198.302 64.5009 197.35C63.6441 197.017 62.7873 196.541 62.0733 195.922C62.0257 195.922 61.8829 195.732 61.9781 195.827C61.9305 195.779 61.6925 195.541 61.8829 195.732C61.8353 195.684 61.7877 195.636 61.7401 195.541C61.8829 195.779 61.6925 195.494 61.6925 195.446C61.7401 195.589 61.6449 195.351 61.6449 195.303C61.5973 195.16 61.5497 195.018 61.5021 194.875C61.1689 193.161 62.4065 191.448 63.4537 190.21H63.1681L71.7361 192.542C72.2121 192.638 72.0217 192.066 71.8789 191.828C71.6885 191.448 71.2125 190.781 70.7365 190.638L62.1209 188.449C62.0257 188.401 61.9305 188.401 61.8353 188.449C60.6929 189.782 59.5981 191.352 59.6933 193.209C59.7885 195.065 61.1689 196.636 62.5969 197.683C64.5485 199.159 66.9761 199.92 69.3085 200.587C72.0217 201.396 74.8301 201.92 77.6385 202.253C79.3521 202.443 85.6829 202.729 83.9693 199.349C83.2553 197.921 81.9701 196.826 80.7325 195.874C79.4473 194.875 78.1145 193.97 76.7341 193.114C76.0201 192.59 75.2585 192.162 74.4969 191.781C73.2593 191.305 71.9741 191.019 70.7365 190.638C70.2605 190.496 70.4509 191.067 70.5461 191.305C70.8317 191.828 71.2601 192.257 71.7361 192.542Z" fill="#000005"/>
<path d="M80.8717 183.784C80.8717 183.784 72.4941 189.02 72.6845 190.21C72.8749 191.4 79.9673 195.589 78.7773 195.446C77.8729 195.351 75.4929 196.636 68.9241 194.446C62.2601 192.209 62.7837 191.447 62.6885 189.924C62.5933 188.401 69.5905 179.833 69.5905 179.833L80.8717 183.784Z" fill="white"/>
<path d="M80.7824 183.641C78.3072 185.117 75.9748 186.735 73.69 188.544C73.1188 188.972 72.5952 189.448 72.1192 189.972C71.8812 190.21 71.5956 190.543 71.6908 190.924C71.8336 191.4 72.4524 191.828 72.7856 192.114C73.4044 192.638 74.0708 193.114 74.7372 193.59C75.4036 194.066 76.2128 194.637 76.9268 195.16C77.1648 195.351 77.4028 195.494 77.5932 195.684C77.6408 195.732 77.736 195.827 77.7836 195.874C77.974 195.97 77.5456 196.208 78.0692 195.779L79.4972 194.875C79.8304 194.732 79.7828 194.78 79.5448 194.78C79.4496 194.78 79.3544 194.78 79.2116 194.827C78.926 194.875 78.6404 194.922 78.3072 194.97C77.26 195.113 76.2128 195.113 75.1656 195.018C73.1664 194.78 71.2148 194.304 69.3108 193.637C67.7876 193.161 66.3596 192.59 64.9792 191.781C63.9796 191.21 63.3608 190.21 63.6464 189.068C63.932 188.258 64.3128 187.497 64.884 186.783C65.5504 185.736 66.2644 184.736 67.026 183.736C68.1684 182.213 69.3108 180.738 70.5008 179.262L68.5016 180.452L78.3548 183.927L79.7828 184.403C80.0684 184.498 80.6396 184.022 80.8776 183.927C80.9728 183.879 81.8296 183.165 81.8296 183.165L71.9764 179.69L70.5484 179.214C70.3104 179.119 69.7868 179.5 69.5964 179.643C69.2156 179.833 68.8348 180.119 68.5492 180.404C66.3596 182.975 64.3604 185.688 62.5516 188.544C61.9804 189.496 61.5044 190.353 61.7424 191.495C62.028 192.971 64.1224 193.637 65.2648 194.066C68.1684 195.208 71.31 196.255 74.4516 196.35C75.2608 196.35 76.0224 196.303 76.784 196.16C77.1648 196.112 77.6408 196.112 77.974 196.017C78.4024 195.874 78.8308 195.636 79.164 195.351C79.2592 195.256 79.8304 194.97 79.8304 194.732C79.8304 194.494 79.64 194.494 79.5448 194.399C78.926 193.875 78.2596 193.447 77.5932 192.971C76.7364 192.352 75.8796 191.781 75.0704 191.114C74.642 190.734 73.7852 190.21 73.5948 189.639C73.452 189.21 74.0708 188.734 74.3564 188.449C75.0228 187.83 75.7368 187.259 76.4508 186.783C77.3076 186.164 78.0216 185.688 78.926 185.069L80.0208 184.355C80.0684 184.308 80.3064 184.165 80.1636 184.26C80.0208 184.355 80.2112 184.26 80.2588 184.212L80.592 184.022L80.8776 183.832C80.9728 183.784 81.8772 183.213 81.8296 183.07C81.782 182.927 80.83 183.641 80.7824 183.641Z" fill="#000005"/>
<path d="M97.6258 198.492L101.624 198.73C101.624 198.73 112.477 201.824 111.382 204.061C110.287 206.299 104.29 207.203 96.4358 206.822C88.5818 206.441 85.7734 203.871 88.7246 198.302L97.6258 198.492Z" fill="#000005"/>
<path d="M98.5785 198.873L102.577 199.111L101.577 198.921L102.006 199.063L102.196 199.111C102.482 199.206 101.958 199.016 102.244 199.111L102.91 199.301C104.148 199.682 105.004 200.015 106.194 200.491C107.289 200.92 108.289 201.443 109.241 202.062C109.764 202.395 110.526 203.014 110.24 203.728C109.86 204.728 108.527 205.251 107.575 205.537C105.909 206.06 104.148 206.346 102.386 206.441C100.006 206.584 97.6265 206.632 95.2465 206.489C94.2945 206.441 93.3425 206.346 92.3905 206.203C91.8669 206.156 91.3909 206.013 90.9149 205.775C89.7725 205.299 88.9633 204.299 88.7253 203.109C88.4397 201.586 89.1061 199.968 89.8201 198.635L89.6297 198.683L98.5785 198.873C99.0069 198.873 98.2929 198.54 98.1977 198.492C97.6741 198.254 97.1505 198.159 96.6269 198.111L87.7733 197.921C87.7257 197.921 87.6305 197.921 87.5829 197.969C86.8213 199.397 86.1073 201.158 86.5833 202.776C87.0117 204.299 88.3921 205.156 89.7249 205.68C92.0097 206.537 94.3897 207.06 96.8173 207.155C99.7209 207.346 102.577 207.346 105.48 207.06C107.384 206.87 109.526 206.584 111.192 205.632C112.002 205.156 113.001 204.347 112.287 203.347C111.526 202.3 110.002 201.681 108.86 201.11C107.289 200.396 105.718 199.825 104.1 199.254C103.005 198.873 101.815 198.397 100.625 198.302C99.2925 198.207 97.9597 198.159 96.6269 198.064C96.1509 198.016 96.9125 198.397 96.9601 198.445C97.4837 198.683 98.0073 198.825 98.5785 198.873Z" fill="#000005"/>
<path d="M101.391 185.26C101.391 185.26 98.2495 195.684 98.7255 196.827C99.2015 197.969 107.055 200.397 105.865 200.539C104.961 200.635 102.914 202.443 96.0599 201.777C89.0627 201.111 89.3959 200.254 88.9675 198.826C88.5391 197.398 88.5391 183.403 88.5391 183.403L101.391 185.26Z" fill="white"/>
<path d="M100.817 184.26C100.389 185.641 100.008 186.973 99.6273 188.354C99.0085 190.448 98.4849 192.543 98.1041 194.637C97.9137 195.399 98.0089 196.255 98.2945 196.969C98.7229 197.874 99.5321 198.397 100.389 198.826C102.15 199.683 104.102 200.254 105.815 201.158C105.863 201.206 106.148 201.301 106.006 201.253C105.244 201.015 106.053 199.207 105.244 199.349C105.054 199.397 104.863 199.445 104.673 199.54C104.006 199.825 103.292 200.063 102.578 200.254C99.4369 201.063 96.0097 200.73 92.8205 200.254C91.7733 200.159 90.7261 199.921 89.7741 199.492C89.6313 199.445 89.5361 199.349 89.3933 199.254C89.2981 199.064 89.5361 199.349 89.3933 199.254C89.2981 199.159 89.5837 199.54 89.4409 199.302C89.4885 199.349 89.5837 199.587 89.4885 199.445C89.6789 199.873 89.5361 199.492 89.4885 199.397C89.5837 199.683 89.5361 199.492 89.4885 199.302L89.3933 198.921C89.3457 198.731 89.4885 199.207 89.4409 199.016C89.3457 198.731 89.4409 199.159 89.4409 198.921C89.4409 198.778 89.3933 198.635 89.3933 198.493C89.2981 197.636 89.2981 196.827 89.2505 195.97C89.1077 192.067 89.0601 188.116 89.0601 184.165V183.879L88.7745 184.355L100.056 185.974L101.674 186.212C102.245 186.307 101.579 184.117 100.912 184.022L89.5837 182.404L87.9653 182.166C87.6797 182.118 87.6797 182.451 87.6797 182.642C87.6797 186.259 87.7273 189.877 87.8225 193.542C87.8701 195.161 87.7749 196.874 88.2033 198.445C88.2985 198.873 88.1557 198.35 88.2033 198.493L88.2509 198.635C88.2985 198.826 88.3461 199.016 88.3937 199.207C88.4889 199.587 88.6793 199.968 88.8697 200.301C89.2981 201.015 89.9645 201.539 90.7261 201.777C91.9637 202.205 93.2965 202.443 94.5817 202.539C96.5333 202.824 98.4849 202.872 100.436 202.777C101.674 202.729 102.864 202.491 104.054 202.158C104.673 201.967 105.244 201.682 105.815 201.491C105.958 201.444 106.196 201.444 106.291 201.301C106.767 200.825 106.006 199.635 105.672 199.302C105.149 198.778 104.292 198.588 103.673 198.302C102.626 197.874 101.579 197.445 100.532 197.017C100.103 196.827 99.6273 196.589 99.1989 196.351C99.0561 196.255 98.8657 196.16 98.7229 196.065C98.5801 195.97 98.5325 196.017 98.6753 196.017C98.6277 196.017 98.6277 195.97 98.5801 195.922C98.6277 196.113 98.6753 196.017 98.8181 196.351C98.9133 196.541 99.0085 196.731 99.0561 196.922C99.1513 197.255 99.1037 197.112 99.0561 197.065C99.0561 197.017 99.0561 196.969 99.0561 196.922C99.0561 196.922 99.0561 197.017 99.0561 196.874C99.0561 196.731 99.0561 196.684 99.1037 196.636C99.1513 196.208 99.2465 195.779 99.2941 195.351C99.5321 194.209 99.7701 193.114 100.056 192.019C100.532 190.115 101.103 188.211 101.626 186.355C101.674 186.259 101.579 186.45 101.626 186.307L101.674 186.212L101.722 186.117C101.817 185.593 101.674 185.069 101.388 184.641C101.579 184.689 100.912 183.832 100.817 184.26Z" fill="#000005"/>
<path d="M70.1129 131.233C70.1129 131.233 103.576 118.953 114.048 125.236C124.52 131.519 113.286 150.845 101.243 166.029C89.2005 181.213 75.6345 192.161 69.0657 186.164C62.4969 180.166 75.5869 156.366 88.4389 148.512C101.291 140.658 70.1129 131.233 70.1129 131.233Z" fill="white"/>
<path d="M70.4996 132.091C74.1648 130.758 77.9728 129.568 81.7332 128.521C88.778 126.521 95.8704 124.808 103.153 124.427C104.01 124.379 104.819 124.379 105.676 124.379H106.247H106.628C107.009 124.379 107.437 124.427 107.818 124.475C108.532 124.522 109.246 124.617 109.96 124.76L110.436 124.855C110.484 124.855 110.96 124.998 110.722 124.903C111.055 124.998 111.388 125.093 111.674 125.189C111.959 125.284 112.245 125.379 112.483 125.522L112.911 125.712C112.673 125.569 113.054 125.807 112.911 125.712L113.149 125.807C115.196 126.95 116.624 128.997 116.91 131.281C117.528 135.28 116.1 139.373 114.577 142.991C112.483 147.941 109.579 152.606 106.533 157.033C103.201 161.936 99.5356 166.601 95.6324 171.027C92.0148 175.121 88.064 179.072 83.6848 182.356C82.0188 183.641 80.21 184.736 78.306 185.641C77.5444 186.021 76.7352 186.307 75.8784 186.545C75.688 186.593 75.45 186.64 75.2596 186.688L75.0216 186.735C74.6408 186.783 75.2596 186.688 74.8788 186.735C74.498 186.783 74.0696 186.831 73.6888 186.831C73.5936 186.831 73.1176 186.831 73.4032 186.831C73.2128 186.831 73.07 186.831 72.8796 186.783C72.6892 186.735 72.5464 186.735 72.4036 186.688L72.1656 186.64C72.0704 186.64 72.118 186.64 72.2132 186.64L72.0228 186.593C71.404 186.45 70.8328 186.117 70.3568 185.736C70.1664 185.593 69.976 185.45 69.8332 185.26C69.738 185.165 69.6428 185.069 69.5952 184.974C69.5476 184.879 69.3096 184.546 69.4048 184.736C69.1192 184.26 68.8812 183.689 68.7384 183.165C68.786 183.356 68.6908 182.975 68.6908 182.88C68.6432 182.737 68.6432 182.547 68.6432 182.404C68.5956 182.071 68.5956 181.69 68.548 181.357C68.548 180.69 68.5956 179.976 68.6908 179.31C68.9288 177.596 69.4048 175.883 69.976 174.264C71.404 170.361 73.3556 166.601 75.688 163.173C78.068 159.508 80.924 156.129 84.1132 153.13C85.5412 151.797 87.0644 150.607 88.6828 149.56C89.9204 148.798 91.158 147.989 91.9672 146.751C95.0136 142.229 88.4924 138.183 85.2556 136.422C80.8764 134.09 76.3068 132.138 71.5468 130.663C71.2612 130.567 70.9756 130.472 70.69 130.377C70.1188 130.187 69.4524 130.329 69.0716 130.805C68.8336 131.234 68.9764 131.71 69.4048 131.948C69.4524 131.995 69.5476 131.995 69.5952 132.043C73.3556 133.185 76.9732 134.566 80.5432 136.232C81.9712 136.898 82.9708 137.422 84.3512 138.183C85.5412 138.85 86.6836 139.611 87.7308 140.468L88.1116 140.754L88.2544 140.849C88.064 140.706 88.302 140.849 88.302 140.897C88.4924 141.087 88.7304 141.325 88.9208 141.515C89.1112 141.706 89.254 141.896 89.3968 142.087L89.6348 142.42L89.73 142.563C89.8728 142.753 89.73 142.563 89.7776 142.61C90.0156 142.991 90.206 143.419 90.3012 143.848C90.206 143.562 90.3012 143.895 90.3012 143.943C90.3012 143.991 90.3488 144.133 90.3488 144.229C90.3488 144.324 90.3488 144.467 90.3488 144.562C90.3488 144.657 90.3012 144.8 90.3488 144.514C90.3488 144.562 90.3488 144.657 90.3012 144.705C90.2536 144.895 90.206 145.133 90.1108 145.323C90.0632 145.514 90.206 145.181 90.1108 145.323L90.0632 145.466C90.0156 145.561 89.9204 145.704 89.8728 145.847C89.8252 145.99 89.73 146.037 89.6824 146.133C89.6348 146.228 89.492 146.371 89.6824 146.18C89.6348 146.228 89.6348 146.275 89.5872 146.275C89.3492 146.513 89.1112 146.751 88.8732 146.942C88.302 147.37 87.6832 147.799 87.0644 148.179C86.16 148.751 85.3032 149.417 84.494 150.083C81.0668 152.939 78.0204 156.176 75.4024 159.794C72.7368 163.364 70.4996 167.219 68.7384 171.313C67.358 174.502 66.168 178.025 66.2632 181.547C66.2632 182.88 66.5964 184.165 67.1676 185.307C67.9292 186.593 69.0716 187.545 70.452 188.116C73.784 189.496 77.6396 188.211 80.6384 186.64C85.0652 184.355 88.9208 180.928 92.4908 177.453C96.8224 173.122 100.821 168.505 104.486 163.602C108.008 159.032 111.198 154.272 114.006 149.227C116.291 145.085 118.433 140.563 119.194 135.851C119.766 132.329 119.432 128.473 116.719 125.855C114.482 123.665 111.436 122.856 108.437 122.571C104.914 122.333 101.344 122.475 97.8696 122.999C94.014 123.57 90.206 124.284 86.4456 125.284C81.1144 126.617 75.8308 128.187 70.6424 129.996C70.3568 130.091 70.0712 130.187 69.8332 130.282C69.3572 130.472 68.8336 130.901 69.0716 131.472C69.3096 132.091 69.9284 132.281 70.4996 132.091Z" fill="#000005"/>
<path d="M30.9858 75.827C30.9858 75.827 26.2734 80.8726 26.2734 100.151C26.2734 119.429 28.9866 151.178 41.1246 158.27C53.2626 165.363 91.4854 157.604 90.1526 151.844C88.8198 146.085 45.8846 147.465 41.1246 138.992C36.3646 130.519 35.365 100.151 35.6982 88.2982C36.0314 76.4458 33.3658 73.447 30.9858 75.827Z" fill="#000005"/>
<path d="M56.2651 161.364C50.1247 161.364 44.5555 160.555 41.0331 158.508C35.5591 155.319 31.5131 147.036 28.8951 133.851C26.4199 121.047 26.0391 107.243 26.0391 100.198C26.0391 81.0626 30.6563 75.9218 30.8467 75.6838C31.7987 74.7318 32.6079 74.7794 33.1315 75.0174C35.1783 75.8742 36.1779 80.7769 35.9875 88.393C35.6067 101.578 36.8443 130.852 41.3663 138.944C43.8891 143.419 57.6931 145.132 69.8787 146.608C80.5411 147.941 89.7279 149.035 90.3943 151.844C90.5847 152.701 90.0611 153.557 88.8711 154.462C84.2539 157.841 69.0219 161.364 56.2651 161.364ZM31.1799 75.9694C31.0847 76.1122 26.5151 81.3957 26.5151 100.15C26.5151 123.998 30.3707 151.749 41.2711 158.079C51.9335 164.315 81.8263 159.031 88.5855 154.033C89.6327 153.272 90.0611 152.558 89.9183 151.891C89.3471 149.416 79.8747 148.274 69.8311 147.036C57.5027 145.513 43.5559 143.799 40.9379 139.135C36.3683 130.947 35.1307 101.531 35.5115 88.2978C35.8447 77.4926 33.6075 75.6837 32.9411 75.3981C32.2747 75.1125 31.6083 75.541 31.1799 75.9694Z" fill="#000005"/>
<path d="M36.3203 128.616C36.3203 128.616 36.3679 145.323 45.7927 152.368C55.2175 159.413 87.1095 150.797 87.1095 150.797C87.1095 150.797 79.3031 195.208 92.1551 197.255C114.337 200.73 113.147 135.946 106.626 127.569C100.104 119.191 36.3203 128.616 36.3203 128.616Z" fill="white"/>
<path d="M35.2742 128.473C35.3218 132.043 35.8454 135.565 36.7498 138.993C37.5114 142.039 38.7014 144.895 40.2722 147.608C41.7954 150.131 43.8422 152.559 46.4602 154.034C48.507 155.081 50.7442 155.748 53.0766 155.986C55.8374 156.319 58.5982 156.414 61.359 156.224C67.0234 155.938 72.6402 155.177 78.1618 154.034C80.2086 153.653 82.2554 153.177 84.3022 152.701C85.397 152.511 86.4918 152.225 87.5866 151.892L87.7294 151.845L86.111 150.417C85.873 151.845 85.635 153.273 85.4446 154.701C84.9686 158.175 84.5402 161.698 84.2546 165.173C83.8738 169.457 83.6834 173.693 83.731 177.977C83.7786 181.928 84.0642 185.974 85.0638 189.829C85.8254 192.685 87.1106 195.922 89.7762 197.493C92.2038 198.969 95.5358 198.826 98.1062 197.731C100.772 196.636 102.866 194.399 104.389 192.019C106.293 189.068 107.579 185.688 108.578 182.309C109.673 178.358 110.482 174.312 110.958 170.218C111.482 165.839 111.815 161.46 111.91 157.081C112.005 152.939 111.91 148.798 111.577 144.657C111.339 141.182 110.911 137.707 110.197 134.328C109.721 132.091 109.197 129.663 107.959 127.711C106.722 125.76 104.58 124.903 102.438 124.332C99.3438 123.523 96.107 123.285 92.9178 123.142C88.6814 122.951 84.445 123.047 80.2086 123.189C75.639 123.38 71.0694 123.665 66.5474 124.046C62.2158 124.427 57.8366 124.855 53.505 125.331C50.0302 125.712 46.5078 126.141 43.033 126.617C41.0338 126.855 38.987 127.14 36.9878 127.426L36.1786 127.521C34.7506 127.711 35.4646 129.949 36.7498 129.758C37.797 129.615 38.8442 129.473 39.939 129.33C42.6998 128.949 45.5082 128.616 48.269 128.283C52.1722 127.807 56.0278 127.378 59.931 126.997C64.3578 126.569 68.8322 126.188 73.3066 125.855C77.6858 125.569 82.1126 125.331 86.4918 125.284C90.157 125.189 93.8698 125.331 97.535 125.712C99.0106 125.855 100.486 126.093 101.914 126.426L102.343 126.521L102.533 126.569C102.581 126.569 102.866 126.664 102.676 126.617L102.961 126.712L103.39 126.855C103.866 127.045 104.342 127.235 104.818 127.473C105.103 127.616 104.723 127.378 104.865 127.521L105.151 127.711C105.341 127.807 105.484 127.949 105.675 128.092C105.437 127.854 105.865 128.235 105.675 128.092L105.865 128.283C105.913 128.33 105.96 128.425 106.008 128.473C105.865 128.187 106.198 128.711 106.008 128.473C106.246 128.854 106.436 129.187 106.579 129.568C106.674 129.806 106.769 129.996 106.865 130.234C106.722 129.901 106.865 130.234 106.912 130.329C106.96 130.425 107.007 130.615 107.055 130.758C107.912 133.423 108.483 136.184 108.816 138.945C108.816 138.993 108.816 139.088 108.816 139.135C108.816 139.135 108.816 138.945 108.816 139.088C108.816 139.231 108.864 139.326 108.864 139.421C108.911 139.659 108.911 139.849 108.959 140.087C109.007 140.516 109.054 140.944 109.102 141.373C109.197 142.277 109.292 143.229 109.34 144.133C109.483 146.085 109.578 148.037 109.673 149.988C109.816 154.225 109.721 158.461 109.435 162.65C109.197 166.791 108.673 170.932 107.912 175.026C107.245 178.786 106.246 182.451 104.865 185.974C104.818 186.069 104.77 186.164 104.723 186.259C104.627 186.45 104.77 186.164 104.675 186.355C104.58 186.545 104.485 186.735 104.389 186.973C104.199 187.354 104.056 187.735 103.866 188.116C103.533 188.83 103.152 189.496 102.723 190.163C102.343 190.781 101.914 191.4 101.438 192.019L101.105 192.4L101.01 192.495C101.01 192.495 101.153 192.352 101.057 192.447L100.867 192.638C100.629 192.876 100.391 193.161 100.153 193.399C99.677 193.875 99.201 194.256 98.6774 194.637L98.249 194.923C98.0586 195.018 98.4394 194.827 98.249 194.923L98.011 195.065C97.7254 195.208 97.4874 195.351 97.2018 195.494C96.9162 195.637 96.6306 195.732 96.345 195.827L95.869 195.97C95.7262 196.017 95.7262 196.017 95.869 195.97L95.5834 196.017C94.9646 196.16 94.2982 196.208 93.6794 196.255H93.4414C93.4414 196.255 93.5842 196.255 93.3938 196.255C93.2034 196.255 93.0606 196.255 92.8702 196.208C92.537 196.16 92.2038 196.16 91.8706 196.065C91.7754 196.065 91.347 195.922 91.6802 196.017C91.5374 195.97 91.3946 195.922 91.2042 195.875C91.0138 195.827 90.9662 195.779 90.8234 195.684L90.633 195.589C90.7282 195.637 90.8234 195.684 90.633 195.589C90.395 195.446 90.157 195.256 89.919 195.065C89.7762 194.97 89.7762 194.97 89.919 195.065L89.7762 194.923C89.681 194.827 89.5382 194.685 89.443 194.542C89.2526 194.304 89.0622 194.066 88.8718 193.78C89.0622 194.066 88.8242 193.685 88.729 193.59C88.6338 193.495 88.5386 193.304 88.4434 193.114C88.253 192.781 88.1102 192.447 87.9674 192.114C87.8722 191.971 87.8246 191.781 87.777 191.638C87.7294 191.495 87.6818 191.448 87.777 191.591C87.7294 191.495 87.6818 191.4 87.6818 191.257C87.3962 190.496 87.1582 189.687 86.9678 188.877C86.7774 188.021 86.587 187.164 86.4442 186.259C86.3966 186.021 86.349 185.831 86.349 185.593C86.349 185.45 86.3014 185.355 86.3014 185.212C86.3014 185.069 86.3014 185.212 86.3014 185.26C86.3014 185.165 86.3014 185.069 86.2538 185.022C86.2062 184.546 86.1586 184.07 86.111 183.594C85.7778 179.405 85.7302 175.216 85.9682 171.075C86.1586 167.172 86.4918 163.269 86.9678 159.413C86.9678 159.318 87.0154 159.175 87.0154 159.08C87.063 158.889 87.0154 159.175 87.0154 158.985C87.0154 158.794 87.063 158.556 87.1106 158.318C87.1582 157.937 87.2058 157.557 87.2534 157.176C87.3486 156.462 87.4438 155.795 87.539 155.081C87.6818 154.082 87.8246 153.13 87.9674 152.13C88.015 151.797 88.0626 151.416 88.1578 151.083C88.3006 150.369 87.8246 149.703 87.1582 149.56C86.9678 149.512 86.7774 149.512 86.587 149.607L86.4442 149.655C86.2538 149.703 86.7774 149.56 86.5394 149.655L86.3014 149.703L84.7782 150.083C83.017 150.512 81.2082 150.94 79.447 151.273C74.211 152.416 68.8798 153.177 63.5486 153.653C60.8354 153.891 58.1222 153.939 55.409 153.796C54.1714 153.701 52.9814 153.558 51.7438 153.368C51.1726 153.273 50.6014 153.13 50.0778 152.987L49.935 152.939L49.5542 152.844C49.3162 152.749 49.0782 152.701 48.7926 152.606C48.3166 152.416 47.8882 152.225 47.4122 151.987L47.2694 151.892C47.317 151.892 47.4598 152.035 47.317 151.892L47.0314 151.702C46.841 151.607 46.6506 151.464 46.4602 151.321C45.2702 150.417 44.223 149.369 43.3186 148.179C41.605 145.847 40.3198 143.277 39.5106 140.516C39.0822 139.183 38.749 137.803 38.4634 136.422C38.3206 135.803 38.2254 135.185 38.1302 134.518L37.9874 133.709C37.9874 133.566 37.9398 133.471 37.9398 133.328L37.8922 133.138C37.9398 133.376 37.8922 133.043 37.8922 132.995C37.7018 131.615 37.6066 130.187 37.559 128.759C37.559 128.711 37.559 128.616 37.559 128.568C37.4162 127.473 35.2266 126.95 35.2742 128.473Z" fill="#000005"/>
<path d="M31.0338 204.966C33.1106 204.966 34.7942 203.283 34.7942 201.206C34.7942 199.129 33.1106 197.445 31.0338 197.445C28.957 197.445 27.2734 199.129 27.2734 201.206C27.2734 203.283 28.957 204.966 31.0338 204.966Z" fill="#000005"/>
<path d="M31.0375 205.156C28.8479 205.156 27.0391 203.347 27.0391 201.158C27.0391 198.968 28.8479 197.159 31.0375 197.159C33.2271 197.159 35.0359 198.968 35.0359 201.158C35.0359 203.347 33.2271 205.156 31.0375 205.156ZM31.0375 197.635C29.0859 197.635 27.5151 199.206 27.5151 201.158C27.5151 203.109 29.0859 204.68 31.0375 204.68C32.9891 204.68 34.5599 203.109 34.5599 201.158C34.5599 199.254 32.9891 197.683 31.0375 197.635Z" fill="#000005"/>
<path d="M45.5104 205.203C47.5872 205.203 49.2708 203.52 49.2708 201.443C49.2708 199.366 47.5872 197.683 45.5104 197.683C43.4336 197.683 41.75 199.366 41.75 201.443C41.75 203.52 43.4336 205.203 45.5104 205.203Z" fill="#000005"/>
<path d="M45.5062 205.442C43.3166 205.442 41.5078 203.681 41.5078 201.444C41.5078 199.254 43.269 197.445 45.5062 197.445C47.7434 197.445 49.5046 199.207 49.5046 201.444C49.5046 203.633 47.6958 205.442 45.5062 205.442ZM45.5062 197.921C43.5546 197.921 41.9838 199.492 41.9838 201.444C41.9838 203.395 43.5546 204.966 45.5062 204.966C47.4578 204.966 49.0286 203.395 49.0286 201.444C49.0286 199.492 47.4578 197.921 45.5062 197.921Z" fill="#000005"/>
<path d="M61.6901 204.87C63.7669 204.87 65.4505 203.187 65.4505 201.11C65.4505 199.033 63.7669 197.35 61.6901 197.35C59.6133 197.35 57.9297 199.033 57.9297 201.11C57.9297 203.187 59.6133 204.87 61.6901 204.87Z" fill="#000005"/>
<path d="M61.6937 205.108C59.5041 205.108 57.6953 203.347 57.6953 201.11C57.6953 198.873 59.4565 197.111 61.6937 197.111C63.8833 197.111 65.6921 198.873 65.6921 201.11C65.6445 203.347 63.8833 205.108 61.6937 205.108ZM61.6937 197.635C59.7421 197.635 58.1713 199.206 58.1713 201.157C58.1713 203.109 59.7421 204.68 61.6937 204.68C63.6453 204.68 65.2161 203.109 65.2161 201.157C65.1685 199.206 63.5977 197.635 61.6937 197.635Z" fill="#000005"/>
<path d="M46.2663 201.348L46.4567 196.826L46.8851 185.926L47.4087 172.693L47.8371 161.269C47.9323 159.412 47.9799 157.556 48.0751 155.747V155.652C48.1227 155.033 47.8371 154.462 47.3135 154.129C47.0279 153.938 46.5995 153.986 46.4091 154.272C46.3615 154.367 46.3139 154.51 46.3139 154.605L46.1235 159.127L45.6951 170.027L45.1715 183.26L44.7431 194.684C44.6479 196.54 44.6003 198.397 44.5051 200.206V200.301C44.4575 200.92 44.7431 201.491 45.2667 201.824C45.5523 202.014 45.9807 201.967 46.1711 201.681C46.2187 201.586 46.2663 201.443 46.2663 201.348Z" fill="#000005"/>
<path d="M31.3207 200.349C31.8919 199.111 32.6535 197.921 33.5103 196.826C35.3667 194.351 37.8419 192.352 40.6027 191.019C44.2679 189.305 48.4091 188.925 52.3123 190.019C53.1215 190.257 53.8831 190.591 54.6447 190.971C55.2159 191.257 55.7395 191.638 56.2631 192.019L56.6439 192.304C56.5011 192.209 56.8819 192.495 56.9295 192.542C57.1199 192.685 57.3103 192.923 57.5959 193.209C58.0243 193.685 58.4527 194.161 58.8335 194.637C59.8331 195.874 60.5947 197.302 61.1659 198.778C61.4039 199.206 61.7847 199.587 62.2131 199.825C62.3083 199.873 63.1651 200.349 63.0699 200.111C62.5463 198.73 61.8323 197.397 60.9755 196.207C59.0239 193.351 56.4059 191.067 53.3119 189.496C49.5515 187.687 45.2199 187.401 41.2215 188.639C37.8895 189.686 34.8907 191.59 32.6059 194.256C31.3207 195.636 30.2735 197.159 29.5119 198.873C29.2739 199.349 31.2731 200.539 31.3207 200.349Z" fill="#000005"/>
<path d="M39.7026 170.313L45.7954 166.695C45.8906 166.648 44.9386 165.981 44.8434 165.981C44.6054 165.838 44.3674 165.696 44.0818 165.6C43.9866 165.553 43.7962 165.458 43.701 165.505L37.6082 169.123C37.513 169.17 38.465 169.837 38.5602 169.837C38.7982 169.98 39.0362 170.122 39.3218 170.218C39.4646 170.265 39.6074 170.36 39.7026 170.313Z" fill="#000005"/>
<path d="M109.863 93.8197L111.386 89.4405C104.246 88.4409 97.2017 86.7273 90.4425 84.2521C74.7345 78.3021 78.1141 69.3533 64.5005 72.0189C50.8869 74.6845 33.1797 131.281 33.1797 131.281C33.1797 131.281 54.9329 129.615 67.3089 127.663C82.5885 125.188 86.0633 123.379 86.0633 123.379C99.2009 120.047 105.817 105.291 109.863 93.8197Z" fill="#000005"/>
<path d="M110.862 94.3434L112.385 89.9642C112.623 89.2978 111.433 88.6314 110.957 88.5362C106.292 87.9174 101.675 86.9654 97.1055 85.6802C93.3927 84.633 89.6799 83.443 86.2527 81.6342C83.9679 80.4442 81.8735 78.921 79.9695 77.1598C78.4939 75.7794 77.1611 74.3038 75.5427 73.0662C73.9719 71.8286 72.1155 71.0194 70.1639 70.7338C67.7839 70.4006 65.4039 70.591 63.1191 71.2574C61.9767 71.6382 60.9771 72.2094 60.0251 72.971C57.4547 75.0178 55.4555 77.6834 53.6467 80.3966C51.3619 83.9666 49.2675 87.6318 47.4587 91.4874C45.4119 95.6286 43.5555 99.865 41.7943 104.101C40.1283 108.1 38.5575 112.146 37.0343 116.192C35.8919 119.333 34.7495 122.475 33.7023 125.664C33.1787 127.235 32.5599 128.806 32.1315 130.424C32.1315 130.519 32.0839 130.567 32.0839 130.662C31.9887 130.995 32.4171 131.424 32.6075 131.614C32.8931 131.9 33.3215 132.09 33.7499 132.09C38.0815 131.757 42.4131 131.376 46.6971 130.948C54.3131 130.234 61.9291 129.425 69.4499 128.187C73.3055 127.521 77.1611 126.807 80.9691 125.902C82.6827 125.521 84.3487 124.998 86.0147 124.427C87.3951 123.903 88.7279 123.57 90.1559 122.951C93.4879 121.428 96.4867 119.238 98.9619 116.477C104.055 110.908 107.244 103.816 109.862 96.771C110.291 96.0094 110.624 95.2002 110.862 94.3434C111.148 93.5342 109.148 92.2966 108.815 93.2486C106.388 100.198 103.436 107.148 98.8667 113.003C96.6771 115.906 93.9163 118.381 90.7747 120.238C89.1563 121.142 87.4427 121.856 85.6339 122.332C85.3959 122.38 85.1103 122.475 84.8723 122.57C83.6823 123.046 82.4447 123.427 81.2071 123.76C77.9227 124.617 74.5907 125.283 71.2587 125.902C63.5475 127.283 55.7411 128.187 47.9823 128.949C42.8891 129.472 37.8435 129.901 32.7503 130.281H32.5123L34.1783 131.709C34.5115 130.615 34.8923 129.52 35.2255 128.425C36.1775 125.617 37.1295 122.808 38.1291 120C39.5095 116.144 40.9851 112.289 42.5083 108.481C44.2219 104.244 45.9831 100.055 47.8871 95.9618C49.6959 92.011 51.6951 88.1554 53.9323 84.4426C55.7411 81.4438 57.7403 78.445 60.2155 75.9222C61.1199 74.9702 62.1195 74.2086 63.2143 73.5422C63.6903 73.2566 64.2139 73.0662 64.7375 72.8758C64.8803 72.8282 64.7375 72.8758 64.7851 72.8758L64.9755 72.8282C65.2611 72.7806 65.5467 72.733 65.8323 72.6854C66.5463 72.5426 67.2603 72.4474 67.9743 72.3998C69.1167 72.3046 70.2115 72.3046 71.3539 72.495C71.7823 72.5426 72.1631 72.6378 72.5439 72.7806C72.7343 72.8282 72.9247 72.9234 73.1151 73.0186C72.9247 72.9234 73.1151 73.0186 73.2103 73.0662C73.3055 73.1138 73.4483 73.1614 73.5435 73.2566C73.6387 73.3518 73.9243 73.447 74.0671 73.5422C74.2099 73.6374 74.0195 73.4946 74.0195 73.4946C74.0195 73.4946 74.1147 73.5422 74.1623 73.5898L74.4479 73.7802C74.6383 73.8754 74.7811 74.0182 74.9239 74.161L75.2095 74.3514C75.2571 74.399 75.4951 74.5894 75.3047 74.399C76.0187 75.0178 76.6851 75.6842 77.3515 76.3506C79.0651 78.0642 80.8739 79.635 82.8731 81.0154C85.8719 82.967 89.0611 84.4902 92.4407 85.585C98.3907 87.6318 104.531 89.155 110.767 90.0594C111.1 90.107 111.433 90.1546 111.766 90.2022L110.338 88.7742L108.815 93.1534C108.577 94.0102 110.529 95.2954 110.862 94.3434Z" fill="#000005"/>
<path d="M64.5035 71.9709L77.6887 58.9761C77.6887 58.9761 83.3531 46.6953 82.4011 44.5533C81.1159 41.6973 76.4511 38.9365 69.2159 39.1745C62.3139 39.4125 55.7451 40.1265 52.2703 53.5973C51.7467 55.6441 46.0823 65.9733 46.8915 67.9249C48.2719 71.3521 55.4119 75.6361 64.5035 71.9709Z" fill="white"/>
<path d="M65.2177 72.6854L77.3557 60.6902C77.8793 60.2618 78.3553 59.7382 78.7361 59.167C79.2121 58.215 79.6405 57.1678 80.0689 56.1682C80.8305 54.3594 81.5921 52.503 82.2585 50.6466C82.8773 49.0758 83.3533 47.4098 83.5913 45.6962C83.7341 44.0778 82.8297 42.7926 81.6397 41.7454C79.7357 40.0794 77.3081 39.1274 74.8329 38.6514C72.2625 38.223 69.6921 38.1278 67.1217 38.3658C65.3605 38.461 63.5993 38.7942 61.8857 39.3178C60.0769 39.889 58.4585 40.8886 57.0781 42.1738C55.3645 43.8874 54.0317 45.8866 53.0797 48.1238C52.4609 49.5042 51.9849 50.9322 51.5565 52.4078C51.4137 52.8362 51.3185 53.2646 51.2233 53.693C51.3185 53.3122 51.2233 53.6454 51.2233 53.7406C51.1281 54.0262 50.9853 54.3118 50.8901 54.5974C50.1285 56.3586 49.3193 58.0246 48.5101 59.7858C47.6057 61.5946 46.8441 63.4986 46.2253 65.4502C45.9873 66.1166 45.8445 66.8306 45.7969 67.5446C45.7969 68.2586 46.0349 68.9726 46.4633 69.4962C49.3193 73.685 55.2217 74.8274 59.9341 74.2086C61.6477 73.9706 63.3613 73.4946 64.9797 72.8758C65.5033 72.6378 65.7413 72.0666 65.5509 71.4954C65.2653 70.9242 64.5989 70.9718 64.1229 71.1622C60.3149 72.6378 55.8405 72.971 52.0325 71.2098C50.7473 70.6386 49.5573 69.7818 48.6529 68.687C48.5101 68.5442 48.3673 68.3538 48.2721 68.1634C48.1769 68.0682 48.1293 67.9254 48.0817 67.7826C48.0341 67.6398 47.9865 67.3542 47.9865 67.6874C47.9865 67.5922 47.9389 67.5446 47.9389 67.4494C47.8913 67.259 47.9389 67.6398 47.9389 67.4018C47.9389 67.1638 47.9865 66.9258 48.0341 66.7354C48.1293 66.2594 48.2721 65.7834 48.4625 65.3074C48.7005 64.641 48.9385 63.9746 49.2241 63.3558C49.7953 61.9278 50.4617 60.4998 51.1281 59.0718C51.6993 57.8818 52.2705 56.6442 52.7941 55.4542C53.3177 54.2642 53.6509 52.8838 54.0793 51.5986C55.1265 48.4094 56.6497 45.125 59.2201 43.0306C60.9813 41.6026 63.3613 40.841 65.5509 40.5554C68.9781 40.127 72.5481 40.0794 75.8801 41.079C77.4033 41.5074 78.8313 42.269 80.0213 43.2686C80.4973 43.6494 80.8781 44.1254 81.1637 44.6014C81.2113 44.6966 81.3065 44.8394 81.3541 44.9346C81.4017 45.0298 81.4493 45.2202 81.4017 44.9822C81.4493 45.125 81.4493 45.3154 81.4493 45.4582C81.4493 45.1726 81.4493 45.5058 81.4493 45.5534L81.4017 45.839C81.3541 46.1246 81.3065 46.3626 81.2589 46.6482C81.1161 47.267 81.0209 47.6478 80.8781 48.1714C80.4497 49.5518 79.9737 50.8846 79.4501 52.2174C78.6409 54.3118 77.7365 56.4062 76.8321 58.453L76.6893 58.7862L77.0225 58.3578L65.5033 69.7342L63.8849 71.3526C63.5041 71.7334 63.3137 72.3046 63.6945 72.733C64.1229 73.0662 64.7893 73.0662 65.2177 72.6854Z" fill="#000005"/>
<path d="M74.8768 77.5884C74.8768 77.5884 74.5436 76.5412 74.258 75.1608C73.9724 73.7804 74.258 73.0188 78.3992 71.5432C86.5388 68.592 85.2536 60.976 85.2536 60.976C86.3008 61.0236 87.348 60.7856 88.3 60.4048C89.9184 59.786 91.6796 56.93 86.9196 55.502C85.8248 55.1688 84.5872 54.6452 83.9684 52.9316C83.2068 50.742 83.0164 48.8856 81.636 44.9824L80.922 46.696C78.9704 51.1704 75.21 54.55 70.5452 55.9304L70.1168 55.7876C70.1168 63.7844 67.4988 68.0684 67.4988 68.0684C67.4988 68.0684 64.9284 70.7816 64.5 72.0668C64.5 71.9716 69.6408 80.016 74.8768 77.5884Z" fill="white"/>
<path d="M75.8324 77.0649C75.5468 76.2081 75.3088 75.3037 75.166 74.3993C75.166 74.3041 75.1184 74.1613 75.1184 74.0661C75.1184 74.0185 75.1184 73.7805 75.1184 73.8281C75.1184 73.7329 75.166 73.6377 75.2136 73.5425C75.166 73.6853 75.2136 73.5425 75.2612 73.4949C75.1184 73.6853 75.3088 73.4473 75.3088 73.4473L75.3564 73.3997C75.166 73.5425 75.3088 73.4473 75.3564 73.3997C75.4516 73.3045 75.5944 73.2569 75.7372 73.2093C76.2608 72.9237 76.7844 72.6857 77.3556 72.4953C78.5932 72.0669 79.8308 71.4957 80.9732 70.8293C83.972 69.0681 85.9236 65.9741 86.2568 62.4993C86.352 61.7853 86.3044 61.1189 86.2092 60.4049L84.5908 61.6901C85.162 61.7377 85.6856 61.6901 86.2092 61.5473C87.2088 61.4045 88.1608 61.0237 89.0176 60.5001C90.0172 59.8337 91.0644 58.6913 90.9692 57.4537C90.874 55.7877 88.8748 55.0737 87.542 54.6453C86.6852 54.4073 85.9712 53.9313 85.4476 53.2649C84.9716 52.5033 84.686 51.6465 84.4956 50.7897C83.9244 48.6001 83.3532 46.4105 82.6392 44.2685C82.544 43.9353 81.83 44.2685 81.6872 44.3161C81.3064 44.5065 80.9732 44.8397 80.7828 45.2205C79.8784 47.3149 78.9264 49.3141 77.4032 51.0277C75.9752 52.5985 74.214 53.8361 72.2624 54.6453C71.9292 54.7881 71.5008 54.8833 71.1676 55.0261C70.7392 55.2641 71.5008 55.1689 71.3104 55.0261C71.2152 54.9785 71.12 54.9309 70.9772 54.9309C70.3584 54.7405 69.1684 55.5021 69.1684 56.1685C69.216 59.3101 68.74 62.4517 67.788 65.4029C67.6452 65.8313 67.4548 66.3073 67.312 66.7357C67.2644 66.8785 67.1692 67.0689 67.1216 67.2117L67.0264 67.4021L66.9788 67.4973C66.8836 67.6401 66.7884 67.7829 66.7408 67.9733C66.6456 68.2589 66.9788 67.7353 66.7408 67.9733C65.9792 68.7349 65.3128 69.5441 64.694 70.4009C64.3132 70.9245 63.3136 71.9717 63.6944 72.6381C64.6464 74.1137 65.7888 75.4465 67.1692 76.4937C68.1688 77.3505 69.3112 78.0169 70.5964 78.4453C72.0244 78.8261 73.5952 78.6833 74.928 78.0169C75.2612 77.8741 75.9276 77.3505 75.88 76.9697C75.8324 76.5889 75.1184 76.7793 74.8804 76.9221C72.6432 77.9217 70.0728 76.2081 68.4544 74.7325C67.312 73.6853 66.3124 72.5429 65.4556 71.2101V71.4957C65.8364 70.4485 66.836 69.4489 67.5976 68.5921C67.9308 68.2589 68.264 67.8781 68.502 67.4497C69.454 65.5933 70.1204 63.6417 70.4536 61.6425C70.8344 59.5005 71.0248 57.3109 71.0248 55.1213L69.216 56.3589C69.4064 56.4541 69.5968 56.5017 69.7872 56.5493C70.2632 56.5017 70.7868 56.3589 71.2152 56.1209C72.072 55.7877 72.8812 55.4069 73.6904 54.9785C75.3088 54.0741 76.7844 52.9317 78.1172 51.5989C79.3548 50.3137 80.402 48.8857 81.2112 47.3149C81.6872 46.4105 82.068 45.4109 82.4964 44.4589L80.64 45.4109C81.2588 47.2197 81.7348 49.0285 82.2108 50.8373C82.5916 52.2653 82.8772 54.0265 84.0672 55.0261C85.2572 56.0257 87.1612 56.0257 88.3036 57.1681C88.6844 57.5013 88.9224 57.9773 88.9224 58.5009C88.9224 58.6913 88.8748 58.8341 88.7796 59.0245C88.732 59.1673 88.6368 59.2625 88.5416 59.4053L88.3988 59.5481C88.3036 59.6433 88.5892 59.4529 88.4464 59.5005C88.3036 59.5481 88.3988 59.5957 88.4464 59.5005C88.3988 59.5481 88.3512 59.5481 88.3036 59.5957C88.5892 59.5481 88.2084 59.6433 88.1132 59.6433C87.8752 59.7385 87.6372 59.7861 87.3516 59.8813C86.828 60.0241 86.2568 60.1193 85.6856 60.0717C85.162 60.0241 83.972 60.7381 84.0672 61.3569C84.3052 63.2133 84.0196 65.0697 83.1628 66.7357C82.4012 68.2589 81.116 69.4965 79.5928 70.2581C77.6412 71.2577 75.1184 71.6385 73.5952 73.3997C72.4528 74.7325 73.2144 76.5413 73.6428 78.0645C74.1188 78.8737 76.0228 77.6837 75.8324 77.0649Z" fill="#000005"/>
<path d="M80.6342 53.9314C80.9674 54.3598 80.8722 54.9786 80.3962 55.3118C80.3486 55.3594 80.301 55.3594 80.2534 55.407C79.3014 55.883 78.6826 54.693 79.349 54.0266C79.6346 53.6458 80.1582 53.5982 80.539 53.8838C80.539 53.8838 80.5866 53.8838 80.6342 53.9314Z" fill="#000005"/>
<path d="M89.0619 50.9318C89.4903 48.5994 88.5859 46.1718 86.7295 44.6486C84.8731 43.1254 82.3979 42.5066 80.0655 42.1734C79.7799 42.1258 79.4943 42.1258 79.2087 42.1734C79.1135 42.1734 78.7803 42.221 78.6851 42.3638C78.4947 42.697 79.3039 42.7922 79.4467 42.8398C81.3507 43.1254 83.3975 43.649 84.8731 44.9818C86.4915 46.4574 87.2055 48.647 86.8247 50.789C86.7771 51.265 89.0143 51.503 89.0619 50.9318Z" fill="#000005"/>
<path d="M71.6437 59.3573C71.6437 59.3573 71.2153 54.3117 67.6453 56.1681C64.0753 58.0245 67.1693 63.5461 70.2633 64.5457" fill="white"/>
<path d="M72.2621 60.1192C72.1669 59.3576 72.0241 58.596 71.7385 57.9296C71.2625 56.7396 70.3581 55.0736 68.9777 54.8356C67.5497 54.6928 66.1693 55.502 65.6457 56.8824C65.0745 58.4532 65.8837 60.3096 66.6453 61.69C67.5497 63.3084 68.9777 64.9744 70.7865 65.5456C71.1197 65.6408 70.7389 64.7364 70.6913 64.6888C70.5009 64.3556 70.2153 63.7368 69.8345 63.594C69.2633 63.4036 68.7397 63.118 68.2637 62.6896C68.0733 62.4992 67.8829 62.3564 67.6925 62.166C67.6449 62.1184 67.5497 62.0232 67.4545 61.8804C67.4545 61.8804 67.2641 61.5948 67.3593 61.7852C67.3117 61.69 67.2641 61.6424 67.1689 61.5472C67.3117 61.7376 67.0737 61.3568 67.0261 61.3092C67.2165 61.5948 66.8833 60.976 66.9785 61.214C66.8833 60.976 66.7881 60.738 66.7405 60.4524C66.5977 59.9288 66.5977 59.3576 66.7405 58.834C67.1213 57.6916 68.1685 56.8824 69.3585 56.7872C69.7869 56.7396 70.2153 56.8824 70.5961 57.1204C70.5961 57.1204 70.7389 57.2632 70.6437 57.168C70.5485 57.0728 70.6913 57.2156 70.6913 57.2156C70.5485 56.9776 70.5961 57.1204 70.6437 57.168C70.7865 57.3584 70.5009 56.93 70.5961 57.1204C70.6913 57.3108 70.5485 57.0252 70.5485 57.0252C70.5485 57.0252 70.5961 57.168 70.6437 57.2156C70.5961 57.0728 70.5961 57.1204 70.6437 57.2156L70.6913 57.3108C70.7865 57.5488 70.6913 57.2156 70.7389 57.3584C70.7865 57.5012 70.7865 57.5488 70.8341 57.644C70.8817 57.7392 70.8817 57.8344 70.9293 57.9772C70.9293 57.9772 70.9769 58.1676 70.9293 58.0248C70.8817 57.882 70.9293 58.0724 70.9293 58.12C70.9769 58.3104 70.9769 58.5008 71.0245 58.6436C71.1197 59.1672 71.3577 59.6432 71.6909 60.024C71.7861 60.1192 72.2621 60.5952 72.2621 60.1192Z" fill="#000005"/>
<path d="M78.0185 62.8321C77.9233 62.8321 77.7805 62.7845 78.1137 62.8321H78.0185H77.9233L78.1137 62.8797H78.0661L77.9709 62.8321C78.2089 62.9273 78.2565 62.9749 78.1613 62.9273H78.0661C78.0185 62.8797 77.8757 62.8321 78.1137 62.9273C78.3517 63.0225 78.2089 62.9749 78.1613 62.9273C78.1137 62.8797 77.9709 62.7369 78.2565 63.0225L78.2089 62.9749L78.0661 62.8321C78.3041 63.0701 78.2089 62.9749 78.1613 62.9273C78.1137 62.8797 78.0661 62.7845 78.0185 62.7369L78.1137 62.9273C78.0185 62.7845 77.9709 62.5941 77.9233 62.4513L77.9709 62.6417C77.9233 62.3561 77.9233 62.0229 77.9709 61.7373L77.9233 61.8801C77.9709 61.7373 77.9709 61.6421 78.0185 61.4993C78.1613 61.0709 77.6377 60.6425 77.3045 60.4997C77.0665 60.3569 76.7809 60.2617 76.5429 60.2617C76.4001 60.2617 76.1145 60.2617 76.0669 60.4521C75.8765 60.8805 75.8289 61.3089 75.8765 61.7373C75.9241 62.1657 76.1145 62.5941 76.4001 62.9273C76.7809 63.4033 77.3521 63.8317 77.9233 64.0697C78.3993 64.2601 78.9229 64.3553 79.4465 64.3077C79.5893 64.3077 79.7321 64.1649 79.7321 63.9745C79.6845 63.7841 79.5893 63.5937 79.4465 63.4509C79.0657 63.0225 78.5421 62.8321 78.0185 62.8321Z" fill="#000005"/>
<path d="M72.6848 45.4578C69.21 50.0274 63.974 52.931 58.262 53.4546C57.9764 53.4546 58.4524 54.1686 58.5476 54.2638C58.6904 54.4542 59.214 55.2634 59.5472 55.2158C65.3068 54.7398 70.638 51.8362 74.1604 47.219C74.446 46.7906 72.8276 45.2674 72.6848 45.4578Z" fill="#000005"/>
<path d="M58.0721 60.6905L55.5493 69.6869C55.3113 70.4961 57.5009 71.0673 57.7389 70.2105L60.2617 61.2141C60.4997 60.4049 58.3101 59.8337 58.0721 60.6905Z" fill="#000005"/>
<path d="M142.141 95.6285L142.379 98.1989C142.426 98.4845 142.569 98.7225 142.759 98.9129C142.95 99.1509 143.235 99.2937 143.569 99.3889C143.807 99.4841 144.092 99.4365 144.283 99.2937C144.473 99.1509 144.568 98.9605 144.521 98.7225L144.283 96.1521C144.235 95.8665 144.092 95.6285 143.902 95.4381C143.664 95.2001 143.426 95.0573 143.093 94.9621C142.855 94.9145 142.569 94.9145 142.379 95.0573C142.236 95.2001 142.141 95.4381 142.141 95.6285Z" fill="#000005"/>
<path d="M123.67 98.199C123.67 99.1034 123.812 100.055 124.05 100.912C124.146 101.198 124.384 101.388 124.622 101.531C124.907 101.674 125.24 101.721 125.526 101.626C125.812 101.579 126.05 101.388 126.192 101.103L126.288 100.817C126.335 100.627 126.288 100.436 126.24 100.246C126.192 100.151 126.192 100.055 126.145 99.9126L126.192 100.198C126.05 99.4842 125.954 98.7702 125.954 98.0562C125.907 97.7706 125.764 97.485 125.574 97.3422C125.336 97.1518 125.002 97.0566 124.669 97.0566C124.384 97.0566 124.098 97.1994 123.86 97.3898L123.67 97.6278C123.67 97.8182 123.622 98.0086 123.67 98.199Z" fill="#000005"/>
<path d="M132.098 99.5318C132.098 99.5318 131.86 98.3894 132.098 98.3418C132.336 98.2942 136.858 97.0566 137.048 97.723C137.191 98.199 137.191 98.675 137.048 99.1034C137.096 99.151 131.67 100.389 132.098 99.5318Z" fill="#2E6F40"/>
<path d="M135.19 102.055H135.047C134.857 102.055 134.857 101.531 134.857 101.626C134.809 101.245 134.666 100.817 134.523 100.436L135.142 100.198C135.618 101.531 135.523 101.769 135.428 101.864L135.19 102.055Z" fill="white"/>
<path d="M134.571 101.198L134.857 101.341L135.095 101.483L135.333 101.674L135.571 101.912L135.761 102.15L135.904 102.388L135.857 102.34L135.904 102.531C135.857 102.435 135.857 102.293 135.857 102.197C135.809 102.007 135.714 101.817 135.571 101.674C135.428 101.483 135.238 101.293 135 101.15C134.714 100.96 134.286 100.722 134 100.96C133.953 101.007 133.953 101.055 133.953 101.103L135.904 102.388C135.904 102.15 135.857 101.959 135.809 101.721C135.714 101.436 135.619 101.103 135.523 100.817L135.428 101.436L136.047 101.198L134.238 99.9603L134.333 100.293L134.286 100.103C134.429 100.436 134.524 100.817 134.524 101.15V100.96C134.524 101.055 134.524 101.103 134.476 101.198L134.524 101.055L134.476 101.103L134.619 101.007L134.333 101.198C134.238 101.198 134.191 101.293 134.191 101.341C134.143 101.436 134.143 101.483 134.191 101.579C134.238 101.817 134.381 102.055 134.571 102.245C134.762 102.483 135.047 102.673 135.285 102.816L135.523 102.911C135.666 102.959 135.809 102.959 135.904 102.911L136.047 102.816L136.142 102.769C136.19 102.721 136.237 102.721 136.285 102.673C136.333 102.578 136.38 102.531 136.38 102.435C136.38 102.293 136.38 102.15 136.38 102.007C136.38 101.864 136.333 101.721 136.285 101.579C136.19 101.198 136.047 100.865 135.952 100.531C135.857 100.341 135.761 100.198 135.666 100.055C135.523 99.9127 135.381 99.7699 135.19 99.6271C134.952 99.4367 134.619 99.3415 134.286 99.3891L133.667 99.6271C133.381 99.7223 133.477 100.055 133.572 100.246L133.667 100.484L133.619 100.293C133.667 100.484 133.715 100.674 133.762 100.817C133.81 100.912 133.81 101.055 133.857 101.198V100.912C133.857 101.15 133.953 101.341 134.048 101.531C134.238 101.769 134.429 102.007 134.714 102.15C134.905 102.293 135.143 102.388 135.428 102.435C135.571 102.435 135.809 102.388 135.809 102.197L135.761 102.34L133.905 101.103C133.905 101.15 133.905 101.198 133.905 101.245C133.905 101.388 133.953 101.531 134.048 101.674C134.191 101.959 134.381 102.197 134.619 102.388C134.857 102.578 135.095 102.769 135.381 102.816C135.523 102.864 135.666 102.864 135.761 102.864C135.904 102.911 136.095 102.769 136.142 102.626C136.142 102.388 136.095 102.197 135.952 102.007C135.761 101.769 135.571 101.531 135.285 101.388C135.095 101.245 134.809 101.198 134.571 101.198Z" fill="#2E6F40"/>
<path d="M113.391 112.241C113.391 112.241 116.247 103.72 117.199 102.53C118.151 101.34 155.088 98.0557 155.088 98.0557C155.088 98.0557 157.992 87.4885 158.706 87.3457C159.42 87.2029 181.982 85.9653 182.268 87.3457C182.553 88.7261 182.268 113.431 182.268 113.431L113.391 112.241Z" fill="#2E6F40"/>
<path d="M114.199 113.002C114.675 111.574 115.199 110.146 115.675 108.718C116.056 107.623 116.484 106.528 116.912 105.434C117.15 104.72 117.484 104.101 117.864 103.482C117.722 103.672 117.817 103.53 117.96 103.482L118.102 103.434C118.293 103.339 118.055 103.434 118.198 103.387C118.626 103.292 119.054 103.196 119.483 103.101C120.911 102.816 122.291 102.625 123.719 102.435C127.86 101.864 132.002 101.435 136.143 101.007C140.284 100.578 144.52 100.15 148.757 99.7691L153.184 99.3407C153.898 99.2931 154.659 99.2455 155.373 99.1503H155.468C155.659 99.1503 155.754 99.0075 155.802 98.8171C156.278 97.0083 156.849 95.1519 157.372 93.3431C157.753 92.1531 158.086 90.9631 158.562 89.7731C158.705 89.3923 158.848 88.9639 159.038 88.6307L159.134 88.4879C159.134 88.4403 159.181 88.4403 159.181 88.4403C159.181 88.4879 159.229 88.3451 159.181 88.4403C159.229 88.4879 158.991 88.4879 159.134 88.4879C163.275 88.2975 167.416 88.0119 171.51 87.9167C174.08 87.8691 176.698 87.8215 179.268 87.9167C179.744 87.9167 180.173 87.9643 180.649 88.0119L181.22 88.0595C181.363 88.0595 181.458 88.1071 181.601 88.1071C181.744 88.1547 181.839 88.1547 181.982 88.2023L182.124 88.2499C182.315 88.2975 182.077 88.2023 182.077 88.2023C182.22 88.2975 181.886 88.0119 181.982 88.1071C181.696 87.8215 181.506 87.4407 181.41 87.0599C181.315 86.8695 181.41 87.0599 181.41 87.1551C181.648 91.4391 181.506 95.7707 181.506 100.102C181.506 102.816 181.506 105.481 181.458 108.194C181.458 109.718 181.363 111.241 181.41 112.764C181.41 112.859 181.41 112.907 181.41 113.002L181.744 112.431L174.842 112.336L158.42 112.05L138.523 111.717L121.339 111.431L115.675 111.336C114.77 111.336 113.866 111.241 113.009 111.288H112.914C112.057 111.288 113.009 113.383 113.818 113.43L120.72 113.526L137.095 113.764L156.992 114.097L174.175 114.382L179.84 114.478C180.744 114.478 181.648 114.573 182.505 114.525H182.6C182.886 114.525 182.934 114.192 182.934 113.954C182.981 110.194 182.981 106.433 183.029 102.673C183.029 99.8167 183.076 96.9607 183.029 94.0571C183.029 92.2007 183.029 90.2967 182.934 88.4403C182.981 87.5835 182.6 86.8219 181.886 86.3459C181.315 86.0603 180.649 85.9175 180.03 85.9175C177.698 85.7271 175.365 85.6795 172.985 85.7271C168.178 85.7747 163.37 85.9651 158.61 86.2983C158.134 86.3459 157.801 86.3459 157.563 86.8219C157.134 87.7263 156.754 88.6783 156.516 89.6779C155.706 92.0579 155.04 94.4855 154.374 96.8655C154.326 97.0083 154.278 97.1987 154.231 97.3415L154.564 97.0083L149.042 97.5319C144.901 97.9127 140.76 98.3411 136.619 98.7695C132.335 99.1979 128.051 99.6739 123.767 100.245C122.244 100.436 120.673 100.674 119.15 100.912C118.388 101.054 117.341 101.102 116.627 101.483C116.294 101.768 116.056 102.102 115.913 102.53C115.437 103.482 115.056 104.482 114.675 105.434C113.961 107.338 113.295 109.289 112.628 111.241C112.581 111.336 112.533 111.479 112.533 111.622C112.39 112.24 113.866 114.049 114.199 113.002Z" fill="#2E6F40"/>
<path d="M169.697 100.056C169.697 100.056 165.461 99.6748 165.461 103.102C165.461 106.529 168.365 107.053 170.459 105.196C172.553 103.34 171.649 100.532 169.697 100.056Z" fill="white"/>
<path d="M168.892 99.1981C168.131 99.1505 167.369 99.2457 166.655 99.4837C166.084 99.6741 165.56 99.9597 165.179 100.436C164.751 101.055 164.513 101.816 164.561 102.53C164.561 103.482 164.894 104.434 165.513 105.196C166.179 106.053 167.131 106.909 168.273 107.052C169.892 107.29 171.653 106.148 172.272 104.672C172.653 103.768 172.557 102.768 172.129 101.911C171.748 101.197 171.225 100.579 170.606 100.103C170.082 99.6741 169.511 99.3409 168.892 99.1981C168.702 99.1029 168.797 99.3885 168.797 99.3885C168.892 99.6265 169.035 99.8169 169.225 99.9597C169.511 100.341 169.939 100.674 170.415 100.864C170.368 100.864 170.463 100.864 170.463 100.864L170.558 100.912C170.606 100.912 170.844 101.055 170.653 100.959C170.749 101.007 170.844 101.102 170.701 100.959C170.844 101.055 170.606 100.912 170.606 100.912C170.749 101.055 170.606 100.912 170.558 100.864C170.701 101.007 170.463 100.769 170.463 100.769C170.606 100.912 170.32 100.579 170.415 100.721C170.511 100.864 170.32 100.531 170.463 100.769C170.463 100.817 170.511 100.912 170.463 100.721L170.511 100.817C170.558 100.912 170.606 101.007 170.606 101.102C170.701 101.435 170.749 101.769 170.749 102.102C170.749 102.483 170.653 102.863 170.463 103.197C169.797 104.529 168.464 105.386 166.941 105.386C166.798 105.386 166.703 105.339 166.56 105.339C166.417 105.291 166.607 105.339 166.512 105.339L166.417 105.291L166.179 105.196C166.369 105.291 166.131 105.148 166.131 105.148C166.131 105.148 166.322 105.291 166.227 105.196C166.131 105.101 166.322 105.291 166.322 105.291C166.179 105.148 166.512 105.481 166.417 105.386C166.322 105.291 166.607 105.624 166.512 105.481C166.417 105.339 166.703 105.719 166.56 105.577C166.417 105.434 166.655 105.719 166.607 105.624C166.56 105.529 166.465 105.339 166.56 105.529C166.512 105.481 166.512 105.386 166.465 105.339C166.417 105.196 166.369 105.005 166.322 104.863C166.227 104.434 166.227 104.053 166.227 103.625C166.322 102.483 167.083 101.483 168.178 101.15C168.845 100.912 169.606 100.817 170.32 100.864C170.653 100.912 170.035 100.103 169.987 100.055C169.797 99.8169 169.559 99.6265 169.321 99.4361C169.273 99.2933 169.083 99.2457 168.892 99.1981Z" fill="white"/>
<path d="M177.602 81.2057C177.602 81.2057 166.94 102.959 167.273 103.149C167.606 103.34 168.463 104.339 169.272 103.149C170.082 101.959 180.601 77.8737 177.602 81.2057Z" fill="#000005"/>
<path d="M176.552 80.6819C175.124 83.5855 173.696 86.4891 172.316 89.3927C170.364 93.3911 168.413 97.3895 166.652 101.483C166.461 101.816 166.318 102.197 166.223 102.578C166.128 103.102 166.604 103.435 167.032 103.72C167.746 104.244 168.794 104.72 169.65 104.339C170.174 104.006 170.555 103.53 170.793 102.959C171.078 102.34 171.412 101.721 171.697 101.055C173.601 96.8659 175.41 92.5819 177.124 88.2503C177.79 86.4891 178.504 84.7279 179.028 82.9191C179.218 82.4431 179.266 81.9671 179.313 81.4911C179.266 80.6343 177.933 79.9203 177.171 80.2535C176.981 80.3487 176.838 80.4439 176.743 80.5867C176.124 81.2531 178.171 82.4431 178.647 81.8719L178.837 81.6815L178.885 81.6339C178.932 81.5387 178.98 81.6815 178.885 81.6339C178.79 81.6339 178.742 81.6815 178.647 81.6815C178.028 81.6339 177.457 81.3483 177.124 80.8247C177.028 80.6819 177.124 80.6819 177.124 80.8247C177.124 80.8723 177.124 80.9675 177.124 81.0151C177.124 81.1103 177.076 81.3483 177.076 81.2055C177.028 81.4435 176.933 81.7291 176.886 81.9671C176.41 83.6331 175.791 85.2991 175.124 86.9175C173.554 91.0111 171.792 95.1047 169.984 99.1031C169.508 100.246 168.984 101.388 168.413 102.483L168.318 102.626C168.27 102.673 168.27 102.721 168.222 102.768C168.175 102.816 167.984 102.959 167.984 103.006L167.937 103.054C167.794 103.102 167.937 103.149 168.27 103.149C168.318 103.149 168.46 103.34 168.27 103.149C168.222 103.102 168.175 103.102 168.127 103.054C167.651 102.768 168.365 103.292 168.413 103.435C168.841 104.387 168.46 103.625 168.46 103.578C168.46 103.578 168.365 103.768 168.46 103.673C168.651 103.292 168.794 102.959 168.889 102.578C170.555 98.7699 172.411 95.0095 174.172 91.2491C175.124 89.2499 176.076 87.2507 177.076 85.2991C177.6 84.2043 178.171 83.1095 178.694 82.0147L178.79 81.8719C179.028 81.0151 176.933 79.9203 176.552 80.6819Z" fill="#000005"/>
<path d="M178.796 79.0635C178.796 79.0635 176.32 78.8731 176.32 80.8723C176.32 82.8715 178.034 83.2047 179.272 82.1099C180.509 81.0151 179.986 79.3491 178.796 79.0635Z" fill="white"/>
<path d="M178.414 78.0163C177.89 77.9687 177.414 78.0639 176.938 78.2067C175.986 78.4923 175.32 79.3967 175.32 80.3963C175.272 81.1579 175.462 81.8719 175.891 82.4907C176.319 83.1095 176.938 83.5855 177.7 83.7283C178.937 83.8711 180.175 83.2523 180.746 82.1099C181.079 81.3959 181.079 80.5867 180.746 79.9203C180.365 79.0159 179.604 78.3495 178.652 78.0639C178.414 78.0163 178.176 78.0639 177.985 78.2067C177.795 78.3971 177.747 78.6351 177.795 78.8731C177.89 79.4919 178.366 79.9679 178.937 80.1107L179.032 80.1583L178.794 80.0631L178.937 80.1107C178.985 80.1583 179.175 80.2535 178.937 80.1107C178.699 79.9679 178.89 80.0631 178.937 80.1107C178.985 80.1583 179.032 80.1583 179.032 80.2059L178.794 80.0155C178.89 80.0631 178.937 80.1583 178.985 80.2535L178.794 80.0155L178.89 80.1583L178.937 80.2535C179.032 80.3963 178.794 79.9679 178.842 80.1107C178.89 80.2059 178.937 80.3011 178.937 80.3963L178.89 80.1107C178.937 80.2535 178.937 80.3487 178.937 80.4915V80.2535C178.937 80.4439 178.937 80.5867 178.89 80.7771L179.032 80.5867C178.985 80.8247 178.842 81.0151 178.747 81.2055L178.89 81.0151C178.699 81.2531 178.461 81.4911 178.223 81.6339L178.414 81.5387C178.176 81.6815 177.938 81.7767 177.652 81.8719L177.89 81.8243C177.747 81.8719 177.557 81.8719 177.414 81.8719H177.652C177.557 81.8719 177.414 81.8243 177.319 81.8243L177.557 81.9195C177.462 81.8719 177.414 81.8719 177.319 81.8243C177.224 81.7767 177.557 82.0147 177.509 81.9195L177.462 81.8719C177.414 81.8719 177.414 81.8243 177.366 81.7767L177.604 81.9671C177.557 81.9195 177.462 81.8243 177.414 81.7767L177.604 82.0147L177.509 81.8719L177.462 81.8243C177.414 81.7291 177.414 81.6339 177.557 82.0147C177.509 81.9195 177.462 81.7767 177.462 81.6815L177.509 81.9671C177.462 81.7767 177.414 81.5387 177.414 81.3007V81.5863C177.414 81.3959 177.414 81.2055 177.462 81.0151L177.414 81.2531C177.462 81.0627 177.557 80.9199 177.652 80.7771L177.509 80.9675C177.604 80.8247 177.747 80.6819 177.938 80.5867L177.747 80.6819C177.985 80.5391 178.271 80.4439 178.509 80.3963L178.271 80.4439C178.604 80.3963 178.89 80.3487 179.223 80.3963C179.461 80.3963 179.651 80.2535 179.794 80.0631C179.889 79.8251 179.889 79.5395 179.794 79.3015C179.699 79.0159 179.508 78.7779 179.223 78.5875C178.985 78.1591 178.699 78.0639 178.414 78.0163Z" fill="#2E6F40"/>
<path d="M122.387 98.5318C122.387 98.5318 122.149 97.3894 122.387 97.3418C122.625 97.2942 127.147 96.0566 127.337 96.723C127.433 97.199 127.433 97.675 127.337 98.1034C127.337 98.1034 121.911 99.341 122.387 98.5318Z" fill="#2E6F40"/>
<path d="M140.809 96.1519C140.809 96.1519 140.571 95.0095 140.809 94.9619C141.047 94.9143 145.569 93.6767 145.759 94.3431C145.855 94.8191 145.855 95.2951 145.759 95.7235C145.807 95.7235 140.381 96.9611 140.809 96.1519Z" fill="#2E6F40"/>
<path d="M180.403 104.053C184.116 103.815 187.877 103.815 191.589 104.101C194.493 104.243 197.349 104.719 200.157 105.529C201.252 105.814 202.299 106.29 203.251 106.909C203.061 106.766 203.394 107.004 203.442 107.052C203.537 107.147 203.68 107.195 203.775 107.29L203.918 107.433C204.013 107.528 204.156 107.623 204.251 107.766C204.489 108.004 204.727 108.289 204.917 108.623C205.917 110.289 206.393 112.288 206.821 114.192C207.44 117.095 207.869 119.999 208.202 122.903C209.011 130.328 209.344 137.754 209.487 145.227C209.63 152.462 209.63 159.697 209.392 166.885C209.297 171.121 208.678 175.358 207.583 179.499C206.869 182.307 205.727 184.925 204.156 187.353C203.727 188.067 203.156 188.686 202.537 189.209C202.442 189.305 202.299 189.4 202.204 189.447L202.061 189.543C202.014 189.543 202.157 189.543 202.014 189.59C201.966 189.59 201.919 189.59 201.871 189.638C201.681 189.685 202.014 189.638 201.919 189.638C202.204 189.685 202.49 189.781 202.775 189.923C202.775 189.923 203.109 190.161 202.966 190.066C202.918 190.019 203.061 190.257 203.013 190.114C203.013 190.066 202.966 190.019 202.966 189.971C202.966 189.923 202.966 190.066 202.966 189.923C202.871 189.59 202.871 189.305 202.871 188.971C202.871 188.067 203.109 187.115 203.537 186.306C203.918 185.544 204.489 184.878 205.203 184.402C205.489 184.211 205.822 184.021 206.155 183.926C206.345 183.878 206.536 183.831 206.726 183.783C206.774 183.783 207.059 183.735 206.869 183.783C206.964 183.783 207.107 183.783 207.202 183.783H207.488C207.25 183.783 207.488 183.783 207.583 183.783C207.678 183.783 207.869 183.831 207.631 183.783C207.726 183.831 207.869 183.831 207.964 183.878C208.059 183.926 207.726 183.831 208.011 183.926C208.297 184.021 207.821 183.783 208.059 183.926C208.154 183.973 208.249 184.021 208.345 184.116C208.107 183.973 208.392 184.164 208.487 184.211L208.583 184.307C208.44 184.164 208.535 184.307 208.583 184.307C208.725 184.449 208.725 184.449 208.821 184.545C208.963 184.687 209.106 184.83 209.249 185.021C209.582 185.497 209.82 185.973 210.011 186.496C210.534 187.924 210.772 189.4 210.772 190.923C210.82 192.922 210.582 194.921 210.106 196.825C209.392 199.681 208.011 202.347 205.631 204.156C203.87 205.441 201.776 206.298 199.634 206.536C198.777 206.631 197.968 206.679 197.111 206.679H196.587H196.302C196.016 206.679 196.397 206.679 196.207 206.679C196.016 206.679 195.683 206.631 195.397 206.583C195.112 206.536 194.969 206.536 194.731 206.488C194.398 206.393 193.827 206.536 194.065 206.964C194.303 207.393 195.017 207.678 195.493 207.773C198.587 208.392 201.776 208.107 204.727 206.964C207.25 205.965 209.344 204.156 210.677 201.823C212.581 198.587 213.152 194.445 212.914 190.733C212.724 188.115 211.915 185.354 209.677 183.783C207.916 182.545 205.536 182.117 203.585 183.117C201.776 184.069 200.824 185.973 200.681 187.924C200.586 188.591 200.681 189.305 200.967 189.923C201.585 190.78 202.633 191.209 203.632 191.066C204.251 190.875 204.822 190.542 205.251 190.019C205.965 189.257 206.583 188.353 207.107 187.448C208.725 184.497 209.915 181.308 210.534 178.023C211.439 173.835 211.677 169.598 211.772 165.362C211.867 161.601 211.915 157.841 211.867 154.081C211.867 146.036 211.629 137.944 211.01 129.9C210.772 126.377 210.391 122.855 209.868 119.38C209.535 116.762 208.963 114.192 208.154 111.669C207.44 109.67 206.488 108.004 204.679 106.766C202.109 105.053 199.063 104.196 196.064 103.672C190.78 102.815 185.449 102.53 180.118 102.911C179.785 102.911 179.451 102.958 179.118 102.958C178.642 103.006 178.547 103.291 178.833 103.625C179.309 103.815 179.832 104.053 180.403 104.053Z" fill="#000005"/>
<path d="M100.109 124.998C100.109 124.998 97.1573 111.813 100.109 111.813C103.06 111.813 202.068 109.575 202.639 111.813C203.21 114.05 202.639 124.998 202.639 124.998H100.109Z" fill="white"/>
<path d="M101.058 125.426C100.629 123.617 100.344 121.808 100.106 120C99.9154 118.619 99.8202 117.239 99.7726 115.858C99.7726 114.954 99.725 113.716 100.296 112.955C100.439 112.717 100.725 112.574 101.01 112.622H101.819L104.866 112.574L115.576 112.384C120.669 112.288 125.715 112.193 130.76 112.098C136.663 112.003 142.517 111.908 148.372 111.86C154.417 111.765 160.415 111.717 166.46 111.67C171.934 111.622 177.408 111.622 182.882 111.67C187.119 111.67 191.355 111.717 195.591 111.86C197.924 111.86 200.209 112.05 202.493 112.336C202.303 112.288 202.731 112.384 202.493 112.336L202.684 112.384C202.779 112.384 202.874 112.479 202.684 112.384C202.493 112.288 202.731 112.431 202.446 112.241C202.16 112.05 201.875 111.812 201.684 111.527C201.494 111.289 201.637 111.432 201.637 111.622C201.684 112.193 201.732 112.717 201.779 113.288C201.875 116.334 201.779 119.381 201.684 122.427C201.684 123.094 201.637 123.76 201.589 124.379L201.875 124.188H103.581C102.248 124.188 100.915 124.188 99.5822 124.188H99.3918C98.8682 124.188 99.1538 124.712 99.3442 124.902C99.6298 125.236 100.249 125.759 100.725 125.759H199.066C200.399 125.759 201.732 125.759 203.065 125.759H203.255C203.398 125.759 203.541 125.759 203.541 125.569C203.636 123.332 203.731 121.047 203.779 118.762C203.779 117.239 203.826 115.668 203.731 114.145C203.683 113.24 203.731 112.241 203.017 111.574C202.303 110.956 201.446 110.622 200.542 110.575C199.447 110.432 198.352 110.384 197.257 110.289C193.497 110.099 189.737 110.051 186.024 110.004C180.74 109.956 175.457 109.956 170.173 109.956C164.128 109.956 158.13 110.004 152.085 110.099C145.992 110.146 139.947 110.242 133.854 110.337C128.38 110.432 122.954 110.527 117.48 110.622L105.389 110.86L99.5822 110.956C99.0586 110.908 98.5826 111.146 98.297 111.574C97.7734 112.479 97.7734 113.669 97.7734 114.668C97.8686 117.429 98.2018 120.142 98.773 122.808C98.8682 123.379 99.011 123.903 99.1062 124.474C99.2014 125.045 99.8678 125.426 100.296 125.616C100.629 125.807 101.153 125.95 101.058 125.426Z" fill="#000005"/>
<path d="M109.008 209.25C109.008 209.25 195.116 212.63 195.402 209.25C195.688 205.87 197.544 124.998 197.544 124.998H103.867C103.867 124.998 105.248 209.107 109.008 209.25Z" fill="white"/>
<path d="M108.008 209.869L110.198 209.964C112.197 210.059 114.196 210.107 116.195 210.202C119.146 210.297 122.098 210.392 125.049 210.487C128.666 210.583 132.332 210.725 135.949 210.821C139.948 210.916 143.946 211.011 147.944 211.106C152.038 211.201 156.132 211.249 160.225 211.344C164.081 211.392 167.936 211.439 171.84 211.439C175.172 211.439 178.504 211.439 181.836 211.344C184.358 211.297 186.929 211.201 189.452 211.011C190.975 210.916 192.593 210.821 194.021 210.345C194.45 210.202 194.83 210.011 195.211 209.821C195.544 209.631 196.163 209.345 196.354 208.917C196.449 208.631 196.449 208.298 196.449 208.012C196.496 206.394 196.544 204.823 196.592 203.205C196.687 200.444 196.734 197.731 196.83 194.97C196.925 191.4 197.02 187.877 197.115 184.307C197.21 180.261 197.306 176.263 197.401 172.217C197.496 168.028 197.591 163.887 197.686 159.698C197.782 155.7 197.877 151.749 197.972 147.798C198.067 144.323 198.115 140.849 198.21 137.326L198.4 129.425C198.448 127.949 198.448 126.521 198.496 125.045V124.474L198.448 124.427H108.674C107.437 124.427 106.247 124.379 105.009 124.427H104.866C104.438 124.522 104.01 124.665 103.676 124.95C103.486 125.093 102.867 125.379 102.867 125.664L102.915 127.949C102.962 129.996 103.01 132.043 103.058 134.089C103.105 137.136 103.2 140.135 103.248 143.181C103.343 146.846 103.438 150.559 103.534 154.224C103.676 158.27 103.772 162.316 103.962 166.362C104.105 170.408 104.295 174.454 104.486 178.548C104.676 182.356 104.866 186.164 105.104 189.972C105.295 193.161 105.533 196.398 105.866 199.587C106.104 201.919 106.342 204.252 106.723 206.537C106.818 207.251 107.008 207.965 107.199 208.679C107.294 209.107 107.484 209.488 107.722 209.821C107.77 209.821 107.913 209.869 108.008 209.869C108.436 209.916 109.008 209.488 109.341 209.297C109.436 209.25 110.15 208.679 109.912 208.631C109.817 208.631 109.817 208.631 109.674 208.488C109.579 208.345 109.484 208.203 109.388 208.012C109.15 207.489 109.008 206.917 108.912 206.346C108.484 204.299 108.198 202.253 108.008 200.158C107.675 197.159 107.437 194.113 107.246 191.067C107.008 187.354 106.77 183.689 106.58 179.976C106.39 175.93 106.199 171.931 106.056 167.885C105.914 163.839 105.771 159.793 105.628 155.7C105.533 151.892 105.39 148.131 105.295 144.323C105.2 141.134 105.152 137.897 105.057 134.708C105.009 132.423 104.962 130.091 104.914 127.806C104.866 126.711 104.914 125.617 104.866 124.522V124.379L102.867 125.617H195.782C195.973 125.617 196.211 125.617 196.401 125.617C196.544 125.664 196.401 125.521 196.401 125.664C196.401 126.378 196.354 127.045 196.354 127.759C196.258 131.376 196.163 135.041 196.116 138.659C195.973 144.323 195.83 149.94 195.687 155.605C195.544 162.031 195.354 168.457 195.211 174.835C195.068 180.785 194.926 186.735 194.735 192.685C194.64 196.969 194.497 201.301 194.354 205.585C194.307 206.727 194.307 207.869 194.259 209.012C194.259 209.25 194.212 209.535 194.212 209.773C194.212 209.631 194.212 209.821 194.212 209.821C194.259 209.773 194.307 209.726 194.354 209.678C194.592 209.488 194.878 209.297 195.164 209.155C195.116 209.202 195.497 209.012 195.306 209.059C195.116 209.107 195.544 208.964 195.402 209.012C195.306 209.059 195.021 209.107 195.354 209.059L195.068 209.107C194.83 209.155 194.64 209.202 194.402 209.25C193.831 209.345 193.26 209.44 192.736 209.488C191.07 209.678 189.404 209.726 187.69 209.821C182.74 210.011 177.837 210.059 172.887 210.059C166.746 210.059 160.654 209.964 154.561 209.869C148.373 209.773 142.137 209.631 135.949 209.44C130.761 209.297 125.572 209.155 120.384 208.964C117.29 208.869 114.196 208.726 111.15 208.631L109.912 208.583C109.436 208.679 108.96 208.869 108.579 209.202C108.532 209.25 107.818 209.869 108.008 209.869Z" fill="#000005"/>
<path d="M102.718 52.3128C102.147 53.0744 101.766 53.9312 101.576 54.8356C101.481 55.2164 101.623 55.6448 101.957 55.8828C102.29 56.0732 102.718 56.1684 103.099 56.1684C103.718 56.1684 104.337 56.1208 104.955 55.978C105.717 55.8352 106.431 55.502 107.05 55.1212C107.764 54.6452 108.192 53.836 108.192 52.9792C108.145 52.0748 107.573 51.2656 106.717 50.8848C106.526 50.8372 106.336 50.8372 106.145 50.9324C105.86 50.98 105.574 51.0752 105.241 51.1704C105.003 51.2656 104.813 51.3608 104.575 51.5036C104.527 51.5512 104.384 51.6464 104.527 51.694C105.669 52.17 106.193 53.5028 105.717 54.5976C105.622 54.788 105.574 54.9308 105.431 55.0736C105.336 55.1688 105.241 55.3116 105.146 55.4068L105.051 55.502C105.003 55.502 104.86 55.5972 105.003 55.5496C105.146 55.502 105.193 55.4544 105.336 55.4068C105.431 55.3592 105.527 55.3592 105.622 55.3116H105.527C105.384 55.3592 105.669 55.3116 105.527 55.3116H105.384H104.908C104.622 55.3116 104.337 55.2164 104.099 55.0736C103.813 54.8356 103.718 54.5024 103.813 54.1692C104.003 53.2648 104.384 52.4556 104.955 51.7416C105.146 51.5036 104.099 51.694 104.051 51.694C103.765 51.7892 103.48 51.8844 103.194 51.9796C103.004 52.0272 102.813 52.1224 102.718 52.3128Z" fill="#2E6F40"/>
<path d="M104.386 62.499C107.67 60.6426 110.859 58.6434 114.001 56.5014C114.953 55.8826 113.62 53.8834 112.716 54.5022C109.574 56.6442 106.385 58.5958 103.1 60.4522C102.148 61.071 103.434 63.0702 104.386 62.499Z" fill="#2E6F40"/>
<path d="M111.526 59.7856C111.002 59.5952 110.431 59.6904 110.002 60.0712C109.622 60.4996 109.384 61.0708 109.336 61.642C109.336 62.3084 109.479 62.9748 109.764 63.5936C110.05 64.3552 110.526 65.0216 111.097 65.5928C111.859 66.402 113.049 66.64 114.048 66.164C115 65.688 115.572 64.6884 115.476 63.6412C115.381 62.7368 115.048 61.9276 114.524 61.2136C114.096 60.5472 113.477 60.0712 112.763 59.7856C112.62 59.738 112.573 59.9284 112.573 60.0236C112.573 60.2616 112.668 60.4996 112.763 60.7376C112.954 61.1184 113.239 61.7372 113.715 61.88C113.858 61.9276 114.001 62.0228 114.144 62.118L114.239 62.2132C114.144 62.118 114.191 62.1656 114.239 62.2132C114.286 62.2608 114.334 62.3084 114.334 62.3084C114.239 62.2132 114.239 62.2132 114.286 62.2608L114.334 62.3084C114.239 62.2608 114.191 62.118 114.286 62.2132C114.429 62.4036 114.144 61.9752 114.239 62.118C114.334 62.2608 114.144 61.88 114.191 62.0228C114.239 62.1656 114.144 62.0704 114.191 61.9752C114.191 61.9752 114.239 62.0704 114.239 62.118C114.239 62.1656 114.191 61.9276 114.239 62.0704C114.239 62.118 114.239 62.1656 114.239 62.2132C114.191 62.0228 114.239 62.2608 114.239 62.2608C114.239 62.6416 114.144 62.9748 113.953 63.308C113.763 63.6412 113.477 63.8792 113.096 64.0696C112.763 64.26 112.382 64.3552 112.002 64.3552C111.668 64.3552 111.288 64.2124 111.002 64.022L110.859 63.9268C110.764 63.8316 110.812 63.9268 110.859 63.9268C110.812 63.8792 110.716 63.8316 110.669 63.7364C110.716 63.8316 110.764 63.8316 110.716 63.784C110.574 63.5936 110.812 63.9744 110.764 63.8316C110.716 63.6888 110.669 63.6412 110.812 63.9268C110.812 63.8792 110.716 63.6888 110.764 63.8792C110.812 64.0696 110.764 63.8316 110.764 63.8316C110.764 63.8316 110.859 64.1172 110.812 63.9268C110.812 63.8792 110.812 63.8316 110.764 63.784C110.859 63.8792 110.812 63.9268 110.764 63.8316C110.764 63.784 110.764 63.7364 110.716 63.6888C110.669 63.4984 110.716 63.784 110.716 63.6412C110.716 63.4984 110.716 63.4032 110.716 63.308C110.716 62.8796 110.907 62.4036 111.192 62.0704C111.526 61.7372 112.049 61.642 112.478 61.8324C112.62 61.88 112.668 61.642 112.668 61.5944C112.668 61.3564 112.573 61.1184 112.478 60.8804C112.335 60.4044 112.002 59.976 111.573 59.738H111.526V59.7856Z" fill="#2E6F40"/>
<path d="M141.561 28.9409L148.939 22.6577C149.32 22.3245 149.32 21.7533 148.986 21.3725C148.939 21.3249 148.891 21.2773 148.844 21.2297C148.32 20.8965 147.654 20.9441 147.178 21.3249L139.8 27.6557C139.419 27.9889 139.419 28.5601 139.752 28.9409C139.8 28.9885 139.847 29.0361 139.895 29.0837C140.371 29.4169 141.085 29.3693 141.561 28.9409Z" fill="#2E6F40"/>
<path d="M139.225 21.9917C140.987 24.2765 142.891 26.4185 144.937 28.5129C145.366 28.8937 145.842 29.1317 146.365 29.2745C146.508 29.3221 147.222 29.5125 146.889 29.1793C144.937 27.1801 143.081 25.0857 141.367 22.8485C141.034 22.4677 140.606 22.2297 140.13 22.0869C139.892 21.9917 139.654 21.9441 139.416 21.8965C139.368 21.8965 139.13 21.8965 139.225 21.9917Z" fill="#2E6F40"/>
<path d="M178.637 34.9383C176.924 34.6527 175.21 35.2239 174.068 36.5091C173.497 37.0803 173.211 37.8419 173.211 38.6511C173.306 39.3651 173.735 40.0315 174.353 40.4123C174.972 40.7931 175.639 41.1263 176.353 41.3643C176.733 41.5071 177.162 41.6499 177.543 41.7927C177.923 41.8403 178.304 41.9831 178.637 42.1735C178.685 42.2211 178.733 42.2687 178.78 42.3163C178.875 42.4115 178.828 42.5067 178.828 42.4115C178.733 42.6495 178.304 42.9827 178.114 43.0779C177.638 43.4587 177.114 43.6967 176.543 43.8395C176.067 43.9823 175.401 44.3631 175.401 44.9343C175.401 45.5055 176.115 45.6483 176.543 45.5531C178.019 45.1723 179.399 44.3631 180.399 43.2207C180.97 42.5543 181.303 41.6975 180.589 40.9359C180.065 40.3647 179.256 40.2219 178.542 40.0315C177.828 39.7935 177.162 39.5555 176.495 39.2223C176.067 38.9843 175.496 38.6511 175.401 38.1275C175.401 37.6515 175.639 37.2231 176.019 36.9375C176.4 36.6043 176.971 36.5091 177.447 36.6043C178.066 36.6995 178.637 36.4615 178.971 35.9379C179.209 35.6523 179.113 35.2239 178.828 34.9859C178.875 35.0335 178.733 34.9859 178.637 34.9383Z" fill="#2E6F40"/>
<path d="M173.977 33.1768L174.119 35.1284C174.119 35.414 174.262 35.6996 174.5 35.89C174.738 36.0804 175.024 36.1756 175.357 36.1756C175.643 36.1756 175.976 36.0328 176.166 35.8424C176.357 35.652 176.499 35.3664 176.499 35.0808L176.357 33.1292C176.357 32.8436 176.214 32.558 175.976 32.3676C175.738 32.1772 175.452 32.082 175.119 32.082C174.833 32.082 174.5 32.2248 174.31 32.4152C174.072 32.6056 173.977 32.8912 173.977 33.1768Z" fill="#2E6F40"/>
<path d="M177.832 44.8397L178.023 46.5057C178.07 46.7913 178.166 47.0769 178.356 47.3149C178.451 47.4577 178.546 47.5529 178.689 47.6481C178.784 47.7433 178.927 47.7909 179.07 47.8385C179.308 47.9337 179.546 47.8861 179.736 47.7433C179.879 47.6005 179.974 47.3625 179.974 47.1245L179.784 45.4585C179.736 45.1729 179.641 44.8873 179.451 44.6493C179.356 44.5065 179.26 44.4113 179.118 44.3161C179.022 44.2209 178.88 44.1733 178.737 44.1257C178.499 44.0305 178.261 44.0781 178.07 44.2209C177.88 44.3637 177.785 44.6017 177.832 44.8397Z" fill="#2E6F40"/>
<path d="M190.394 57.9768L193.012 61.9752C193.203 62.2132 193.441 62.4512 193.726 62.5464C193.964 62.6416 194.25 62.6892 194.488 62.6416C195.011 62.4512 195.011 61.9276 194.726 61.5468L192.108 57.5484C191.917 57.3104 191.679 57.0724 191.394 56.9772C191.156 56.8344 190.87 56.8344 190.632 56.882C190.109 57.0248 190.109 57.596 190.394 57.9768Z" fill="#2E6F40"/>
<path d="M198.11 56.5964C196.73 61.4516 196.016 66.4495 196.016 71.4951C196.016 71.9711 198.396 71.9235 198.396 71.3999C198.443 66.3543 199.157 61.3563 200.49 56.5011C200.538 56.2631 198.253 55.9776 198.11 56.5964Z" fill="#2E6F40"/>
<path d="M203.205 66.1166C203.205 66.1166 203.109 65.831 203.157 65.9738V65.8786C203.109 65.9738 203.109 65.9738 203.157 65.8786C203.157 65.831 203.205 65.7834 203.205 65.7358C203.157 65.831 203.157 65.831 203.205 65.7834C203.252 65.7358 203.252 65.7358 203.157 65.7834L203.205 65.7358C203.443 65.5454 203.062 65.7834 203.3 65.6406C203.3 65.6406 203.585 65.4978 203.49 65.5454C203.395 65.593 203.633 65.4978 203.681 65.4978C203.776 65.4502 203.919 65.4502 204.014 65.4026C204.014 65.4026 204.347 65.355 204.204 65.355C204.299 65.355 204.347 65.4026 204.252 65.355C204.157 65.3074 204.299 65.4026 204.347 65.4026C204.157 65.3074 204.299 65.4026 204.395 65.4502C204.299 65.355 204.347 65.355 204.395 65.4502C204.442 65.5454 204.49 65.593 204.49 65.6882C204.49 65.7834 204.442 65.5454 204.49 65.7358C204.49 65.831 204.537 65.9262 204.537 66.0214C204.633 66.8306 204.633 67.5922 204.49 68.4014C204.395 69.3058 204.204 70.1626 203.919 71.067C203.633 71.9238 204.347 72.3998 205.109 72.257C206.251 71.9714 207.346 71.4954 208.298 70.7338C208.726 70.4482 208.869 69.8294 208.583 69.401C208.536 69.3534 208.536 69.3058 208.488 69.3058C208.012 68.8774 207.346 69.0678 206.87 69.401C206.87 69.401 206.537 69.639 206.775 69.4962L206.489 69.6866C206.299 69.7818 206.108 69.877 205.918 69.9722C205.87 70.0198 205.68 70.0674 205.823 70.0198C205.727 70.0674 205.585 70.115 205.489 70.115C205.251 70.2102 205.061 70.2578 204.823 70.3054L206.061 71.4954C206.441 70.2578 206.727 68.9726 206.822 67.6874C206.917 66.6402 207.013 65.4026 206.441 64.4506C206.156 63.9746 205.727 63.5938 205.156 63.451C204.442 63.3082 203.728 63.4034 203.062 63.7366C201.824 64.165 200.444 65.3074 200.777 66.783C200.92 67.3066 201.491 67.5922 202.015 67.4494C202.062 67.4494 202.062 67.4494 202.062 67.4494C202.681 67.2114 203.347 66.6878 203.205 66.1166Z" fill="#2E6F40"/>
<path d="M133.182 58.786C133.991 58.2624 134.801 57.7388 135.61 57.2628C135.991 57.0248 136.419 56.7868 136.8 56.5964C136.99 56.5012 137.752 55.9776 137.895 56.0252L137.181 55.5016C136.943 54.9304 136.895 54.8352 136.895 55.1208V55.3112C136.895 55.5492 136.895 55.7872 136.895 56.0252V57.2628V59.8332L136.943 64.9264C137.038 65.4976 137.371 66.0212 137.895 66.2592C138.228 66.4496 138.799 66.5924 138.799 66.0212C138.751 62.7844 138.751 59.5476 138.704 56.3108C138.704 55.5016 138.275 54.6924 137.561 54.264C136.8 53.788 136.229 54.1688 135.562 54.502C134.182 55.216 132.801 56.0252 131.516 56.9296C130.945 57.4532 132.468 59.262 133.182 58.786Z" fill="#2E6F40"/>
<path d="M143.179 53.8359C141.989 54.2643 141.133 55.3115 140.942 56.5967C140.799 57.8819 141.418 59.1195 142.513 59.7859C143.275 60.2143 144.084 60.4523 144.941 60.5475C145.797 60.6903 146.654 60.6427 147.511 60.4047C148.749 59.9287 149.605 58.8339 149.748 57.5011C149.891 55.8351 148.653 54.4547 147.463 53.5027C147.321 53.4075 147.13 53.3599 146.94 53.3123C146.654 53.2647 146.321 53.2171 146.035 53.1695C145.797 53.1219 145.559 53.1219 145.321 53.1695C145.274 53.1695 145.083 53.2171 145.179 53.3123C146.131 54.1215 147.083 55.0735 147.321 56.3587C147.511 57.5011 147.13 58.6435 146.226 59.4051C145.845 59.7859 145.321 60.0239 144.798 60.1191C145.179 60.0715 144.512 60.1667 144.655 60.1191C144.465 60.1667 144.988 60.1667 145.036 60.1667C145.083 60.1667 145.512 60.2619 145.274 60.1667C145.036 60.0715 144.798 59.9763 144.607 59.7859C143.655 59.1671 143.179 58.0723 143.322 56.9299C143.465 55.6923 144.274 54.6451 145.464 54.1691C145.607 54.1215 145.369 54.0263 145.369 54.0263C145.131 53.9311 144.893 53.8835 144.655 53.8359C144.179 53.6931 143.655 53.6931 143.179 53.7883V53.8359Z" fill="#2E6F40"/>
<path d="M151.888 49.7422C150.698 50.361 150.365 51.8366 150.603 53.0742C150.984 54.645 152.079 55.9302 153.602 56.549C154.935 57.1202 156.553 57.2154 157.791 56.3586C158.314 55.9778 158.695 55.4542 158.886 54.883C159.076 54.2166 158.933 53.455 158.6 52.8838C157.696 51.1702 155.839 50.5514 154.268 49.7422C153.983 49.5994 153.221 49.3614 153.174 49.885C153.126 50.4086 153.792 50.837 154.173 51.0274C154.697 51.313 155.268 51.551 155.839 51.789L155.982 51.8842C156.03 51.8842 156.22 52.027 156.077 51.9318L156.172 51.9794L156.315 52.0746L156.458 52.2174C156.506 52.265 156.601 52.3602 156.458 52.2174C156.506 52.265 156.553 52.3602 156.601 52.4078C156.648 52.4554 156.744 52.5982 156.648 52.503C156.553 52.4078 156.696 52.5506 156.696 52.5506C156.696 52.5506 156.744 52.6458 156.791 52.741C156.886 52.9314 156.839 52.8362 156.839 52.7886C156.934 52.979 156.934 53.217 156.934 53.455C156.886 53.8834 156.696 54.3118 156.363 54.645C156.077 54.9306 155.649 55.1686 155.268 55.2638C155.03 55.3114 154.792 55.359 154.554 55.359C154.459 55.359 154.364 55.359 154.268 55.359H154.126C154.078 55.359 153.888 55.3114 154.03 55.359C153.888 55.3114 153.792 55.3114 153.65 55.2638C153.84 55.359 153.554 55.2162 153.507 55.1686C153.364 55.0734 153.65 55.2638 153.507 55.1686C153.459 55.1686 153.269 55.0258 153.412 55.121C153.554 55.2162 153.412 55.121 153.364 55.0734C153.316 55.0258 153.126 54.8354 153.269 55.0258C153.174 54.9306 153.126 54.8354 153.031 54.7878C152.936 54.7402 153.078 54.883 153.031 54.7402L152.936 54.5974C152.793 54.407 152.745 54.169 152.65 53.9786C152.412 53.0266 152.602 51.789 153.554 51.313C154.364 50.9322 152.602 49.409 151.888 49.7422Z" fill="#2E6F40"/>
<path d="M134.898 176.596L135.422 158.984L198.064 157.128V168.98L178.405 176.93L134.898 176.596Z" fill="white"/>
<path d="M136.037 176.596L136.513 161.173L136.561 158.984L135.514 159.936L141.749 159.745L156.696 159.317L174.831 158.793L190.444 158.317L195.585 158.175C196.394 158.175 197.203 158.175 198.013 158.127H198.108L196.823 157.175V168.98L197.346 168.171L190.73 170.836L180.163 175.12L177.735 176.072L178.306 175.977L173.975 175.929L163.55 175.834L150.984 175.739L140.131 175.644C138.37 175.644 136.609 175.596 134.847 175.596H134.752C134.229 175.596 133.61 175.882 133.705 176.501C133.8 177.119 134.419 177.453 134.99 177.453L143.939 177.548L162.122 177.691L176.64 177.833C177.402 177.833 178.401 178.024 179.163 177.738C180.829 177.119 182.447 176.405 184.113 175.739L198.441 169.932L198.774 169.789C199.107 169.646 199.298 169.361 199.298 168.98V157.127C199.298 156.556 198.489 156.128 198.013 156.175L191.777 156.366L176.831 156.794L158.695 157.318L143.082 157.794C140.559 157.841 138.037 157.889 135.514 158.032H135.419C134.847 158.032 134.371 158.317 134.371 158.936L133.895 174.359L133.848 176.548C133.657 177.691 135.99 177.929 136.037 176.596Z" fill="#000005"/>
<path d="M176.881 161.268L176.548 174.692L176.5 176.643C176.5 177.262 177.262 177.548 177.785 177.452C178.404 177.357 178.832 176.786 178.832 176.215L179.166 162.792L179.213 160.888C179.213 160.269 178.452 159.983 177.928 160.078C177.309 160.126 176.881 160.65 176.881 161.268Z" fill="#000005"/>
<path d="M129.664 182.166L131.187 216.009L199.16 215.771L199.446 175.978L174.789 171.932L129.664 182.166Z" fill="#2E6F40"/>
<path d="M129 181.356L129.524 192.78L130.38 211.011L130.571 215.2C130.571 215.676 131.237 217.056 131.761 217.056H138.52L154.799 217.009L174.41 216.914L191.356 216.866H196.973H198.734C199.02 216.914 199.353 216.914 199.638 216.866C199.686 216.866 199.734 216.866 199.734 216.866L199.781 216.818L199.876 203.3L200.019 181.88L200.067 176.977C200.019 176.596 199.924 176.216 199.686 175.882C199.543 175.644 199.258 175.026 198.972 174.978L184.502 172.598L176.076 171.218C175.267 171.075 174.553 170.884 173.744 171.027L160.797 173.931L140.995 178.405L133.189 180.166L130.618 180.738C130.142 180.833 129.666 180.928 129.238 181.071C129.19 181.071 129.095 181.118 129.048 181.118C128.857 181.166 129.619 183.308 130.19 183.213L140.043 180.976L159.559 176.549L174.125 173.264C174.506 173.169 174.886 173.074 175.315 173.026C175.505 172.979 175.22 173.026 175.362 173.026C175.505 173.026 175.791 173.074 175.981 173.122L183.074 174.264L199.591 176.977L199.924 177.025L198.829 175.026L198.782 181.928L198.686 196.588L198.591 210.392V214.153C198.591 214.296 198.639 214.676 198.591 214.772C198.639 214.676 198.544 214.724 198.401 214.724C197.687 214.676 196.973 214.724 196.306 214.724H192.26L180.075 214.772L164.843 214.819L149.563 214.867L137.282 214.914H130.952H130.666L131.856 216.771L131.332 205.347L130.476 187.116L130.285 182.927C130.19 182.404 129.952 181.88 129.571 181.452C129.428 181.356 129 180.833 129 181.356Z" fill="#2E6F40"/>
<path d="M174.5 173.55L174.167 186.212L173.596 206.204L173.453 210.773C173.453 211.678 175.738 211.202 175.738 210.44L176.071 197.778L176.642 177.786L176.785 173.217C176.785 172.312 174.5 172.788 174.5 173.55Z" fill="#000005"/>
<path d="M142.846 200.349L155.031 199.444L156.745 199.301C156.935 199.301 156.935 199.206 156.983 199.063C157.221 197.683 157.316 196.303 157.221 194.875C157.126 194.113 156.697 192.828 155.84 192.59C155.507 192.542 155.174 192.495 154.793 192.495C151.556 192.352 148.32 192.399 145.035 192.447C144.036 192.447 143.084 192.447 142.084 192.447C141.941 192.447 141.846 192.542 141.846 192.685L141.703 198.397C141.751 198.968 141.941 199.492 142.322 199.92C142.465 200.111 142.988 200.587 143.036 200.015L143.179 194.303L142.941 194.541C145.13 194.541 147.368 194.494 149.557 194.494C151.128 194.494 152.699 194.494 154.317 194.541C154.841 194.541 155.364 194.541 155.936 194.589C156.126 194.589 156.269 194.589 156.459 194.637C156.507 194.637 156.554 194.637 156.65 194.637C156.888 194.637 156.602 194.637 156.65 194.589C156.221 194.875 155.936 193.494 155.936 193.447C155.936 193.542 155.983 193.637 155.983 193.732C155.983 193.827 155.983 194.113 155.983 194.256C155.983 194.684 155.936 195.113 155.936 195.541C155.888 196.112 155.84 196.731 155.745 197.302L155.983 197.064L143.798 197.969L142.084 198.111C141.37 198.254 142.227 200.396 142.846 200.349Z" fill="white"/>
<path d="M130.184 169.361L119.664 184.831L164.932 187.211L174.785 171.931L184.162 185.545L207.629 182.26L199.918 168.885L174.785 171.931L130.184 169.361Z" fill="#2E6F40"/>
<path d="M129.187 169.694L119.953 183.26L118.667 185.164C118.525 185.355 118.667 185.498 118.858 185.545L123.332 185.783L134.137 186.354L147.275 187.021L158.556 187.592C160.365 187.687 162.221 187.878 164.078 187.878H164.173C164.887 187.83 165.553 187.449 165.982 186.878L174.645 173.502L175.835 171.646L173.788 172.598L182.023 184.498L183.213 186.164C183.308 186.307 183.546 186.259 183.641 186.259L191.543 185.164L204.157 183.403L207.061 182.975C207.394 182.927 208.965 182.213 208.679 181.737L201.92 170.028L200.968 168.362C200.873 168.219 200.635 168.266 200.539 168.266L186.45 169.98L177.787 171.027L175.645 171.265C175.359 171.313 175.502 171.218 175.597 171.265C175.502 171.265 175.407 171.265 175.311 171.265L162.84 170.551L143.086 169.409C139.135 169.171 135.137 168.838 131.186 168.695H130.996C130.425 168.742 129.901 168.98 129.52 169.361C129.33 169.552 128.901 170.028 129.425 170.075L139.421 170.646L159.032 171.789L173.122 172.598C173.836 172.646 174.502 172.598 175.216 172.503L182.737 171.598L198.969 169.647L199.254 169.599L198.826 169.504L205.585 181.214L206.537 182.88L208.155 181.642L200.254 182.737L187.64 184.498L184.736 184.926L185.165 185.022L176.93 173.122L175.787 171.408C175.597 171.17 175.026 171.408 174.835 171.503C174.407 171.694 174.026 171.979 173.741 172.312L165.125 185.64L163.935 187.544L165.744 186.545L161.269 186.307L150.464 185.736L137.327 185.069L126.045 184.498L122.285 184.308L121.143 184.26C120.952 184.212 120.714 184.212 120.524 184.212C120.524 184.212 120.476 184.212 120.429 184.212L120.619 184.593L129.901 171.027L131.186 169.123C131.472 168.695 130.758 168.79 130.52 168.838C130.044 168.933 129.568 169.266 129.187 169.694Z" fill="#2E6F40"/>
<path d="M135.422 158.984L152.32 155.843C152.32 155.843 180.309 160.46 190.114 148.988C190.114 148.988 189.353 154.367 178.071 161.031L135.422 158.984Z" fill="white"/>
<path d="M135.993 159.984L145.418 158.223L151.225 157.128C151.701 157.033 152.225 156.985 152.701 156.842C153.034 156.747 152.463 156.795 152.844 156.842C155.604 157.271 158.365 157.556 161.174 157.651C166.172 157.937 171.17 157.699 176.072 156.937C180.88 156.128 185.973 154.557 189.638 151.13C190.067 150.749 190.448 150.321 190.828 149.893L189.21 148.369C189.21 148.417 189.21 148.465 189.162 148.512C189.067 148.655 189.21 148.417 189.162 148.512C189.115 148.607 189.115 148.703 189.067 148.75C188.877 149.321 188.591 149.845 188.306 150.369C187.068 152.558 185.212 154.367 183.26 155.938C181.404 157.461 179.404 158.841 177.31 160.031L177.691 159.936L173.454 159.746L163.268 159.27L150.94 158.699L140.277 158.175C138.564 158.08 136.85 157.985 135.089 157.937H134.994C133.804 157.889 134.898 159.936 135.708 159.984L142.657 160.317L157.889 161.031L172.598 161.745L177.12 161.983L178.167 162.031C178.214 162.031 178.262 162.031 178.357 162.031C178.786 161.935 179.166 161.745 179.547 161.459C180.118 161.126 180.69 160.745 181.213 160.412C184.117 158.508 186.878 156.271 189.02 153.463C189.829 152.415 190.686 151.083 190.924 149.75C190.924 149.702 190.924 149.655 190.971 149.559C190.971 149.083 190.781 148.607 190.4 148.322C190.21 148.131 189.638 147.703 189.353 148.036C186.116 151.797 181.308 153.605 176.596 154.605C171.693 155.557 166.695 155.938 161.697 155.7C158.603 155.605 155.509 155.319 152.463 154.891C151.987 154.843 151.511 154.843 151.035 154.938L145.942 155.89C142.372 156.557 138.706 157.128 135.136 157.889L134.898 157.937C133.946 158.127 135.136 160.174 135.993 159.984Z" fill="#000005"/>
<path d="M141.137 166.458L149.61 166.6L163.033 166.791L166.127 166.838C166.556 166.838 167.127 166.41 167.46 166.22C167.555 166.172 168.222 165.648 168.126 165.648L159.654 165.506L146.23 165.315L143.136 165.268C142.708 165.268 142.184 165.696 141.804 165.886C141.661 165.982 140.994 166.458 141.137 166.458Z" fill="#000005"/>
<path d="M178.023 161.031C178.595 160.841 197.73 157.651 197.73 157.651L178.023 161.031Z" fill="white"/>
<path d="M177.928 161.935C178.642 161.745 179.356 161.602 180.117 161.507C181.688 161.221 183.307 160.936 184.877 160.698L195.254 158.936L197.634 158.556C198.205 158.46 198.681 157.984 198.824 157.413C198.872 156.842 198.348 156.699 197.872 156.747C192.208 157.699 186.543 158.651 180.879 159.65C179.975 159.746 179.07 159.888 178.213 160.126C177.69 160.269 177.071 160.65 177.023 161.269C177.023 161.65 177.309 161.983 177.69 161.983C177.737 161.935 177.833 161.935 177.928 161.935Z" fill="#000005"/>
<path d="M183.925 165.695C185.829 165.172 187.828 164.886 189.779 164.743C189.922 164.743 190.16 164.743 190.208 164.553C190.255 164.363 190.113 164.22 190.017 164.125C189.589 163.744 189.018 163.506 188.447 163.506C186.305 163.649 184.21 163.934 182.163 164.505C181.687 164.648 182.068 165.077 182.354 165.267C182.83 165.6 183.401 165.743 183.925 165.695Z" fill="#000005"/>
<path d="M193.783 164.506L195.306 164.22C195.449 164.173 195.591 164.125 195.734 163.982C195.877 163.887 195.972 163.792 196.067 163.649C196.163 163.554 196.21 163.411 196.21 163.268C196.258 163.126 196.258 162.983 196.21 162.84C196.163 162.554 195.972 162.364 195.734 162.221L195.449 162.126C195.258 162.078 195.068 162.078 194.877 162.174L193.354 162.459C193.211 162.507 193.069 162.554 192.926 162.697C192.783 162.792 192.688 162.888 192.593 163.03C192.497 163.126 192.45 163.268 192.45 163.411C192.402 163.554 192.402 163.697 192.45 163.84C192.497 164.125 192.688 164.316 192.926 164.458L193.211 164.554C193.402 164.554 193.592 164.554 193.783 164.506Z" fill="#000005"/>
<path d="M189.781 168.456L193.065 167.837C193.208 167.79 193.256 167.742 193.208 167.552C193.161 167.314 193.065 167.076 192.923 166.885C192.78 166.6 192.589 166.362 192.351 166.171L192.161 166.029C192.066 165.933 191.971 165.886 191.828 165.886L188.543 166.505C188.401 166.552 188.353 166.6 188.401 166.79C188.448 167.028 188.543 167.266 188.686 167.457C188.829 167.742 189.019 167.98 189.257 168.171L189.448 168.313C189.543 168.409 189.686 168.456 189.781 168.456Z" fill="#000005"/>
<path d="M129.714 186.592L137.187 186.925L152.372 187.591L164.224 188.115C164.605 188.115 165.033 188.163 165.414 188.163C165.652 188.163 165.605 188.21 165.7 188.067C166.081 187.591 166.366 187.115 166.652 186.592L168.318 183.974L175.315 173.121L175.458 172.883L174.696 171.979L182.931 183.879L184.073 185.545C184.169 185.687 184.597 186.497 184.835 186.449L199.258 184.593L201.257 184.355C201.114 183.974 200.924 183.641 200.733 183.307C200.638 183.117 200.21 182.355 199.972 182.403L185.549 184.259L183.55 184.497L184.311 185.402L176.077 173.502L174.934 171.836C174.887 171.788 174.22 170.836 174.173 170.931L168.032 180.451L164.748 185.497C164.653 185.64 164.462 186.068 164.319 186.163C164.081 186.211 163.843 186.163 163.605 186.116L152.895 185.64L137.616 184.973L131.618 184.688L129.667 184.593C129.333 184.545 128.953 184.497 128.619 184.545C128.572 184.545 128.524 184.545 128.477 184.545C128.619 184.926 128.81 185.259 129 185.592C129.048 185.878 129.381 186.592 129.714 186.592Z" fill="#000005"/>
</svg>
