<svg width="500" height="500" viewBox="0 0 500 500" fill="none" xmlns="http://www.w3.org/2000/svg">
<path d="M294.5 118.5C306.595 118.5 316.4 108.695 316.4 96.6002C316.4 84.5052 306.595 74.7002 294.5 74.7002C282.405 74.7002 272.6 84.5052 272.6 96.6002C272.6 108.695 282.405 118.5 294.5 118.5Z" fill="#68BA7F"/>
<path d="M313.899 96.9999C313.799 105.4 308.799 113.6 300.799 116.6C293.099 119.5 284.499 115.8 279.599 109.6C274.199 102.7 273.599 93.1999 277.899 85.5999C281.999 78.5999 289.899 74.3999 297.999 76.2999C307.399 78.4999 313.799 87.3999 313.899 96.9999C313.899 98.1999 318.899 97.7999 318.899 96.2999C318.799 86.5999 312.499 78.0999 303.299 74.9999C293.799 71.7999 282.099 74.5999 275.499 82.2999C269.099 89.7999 268.299 100.5 273.399 108.8C278.799 117.4 289.299 121 298.999 119.1C310.099 116.9 318.699 107.8 318.799 96.2999C318.899 95.0999 313.899 95.4999 313.899 96.9999Z" fill="#68BA7F"/>
<path d="M291.901 64.0002V66.5002C292.001 66.7002 292.101 66.8002 292.201 66.9002C292.401 67.1002 292.501 67.3002 292.701 67.4002C292.901 67.6002 293.201 67.8002 293.501 67.9002C293.801 68.1002 294.101 68.2002 294.401 68.4002L295.001 68.6002C295.301 68.7002 295.601 68.8002 295.901 68.8002H296.201C296.301 68.8002 296.401 68.7002 296.401 68.5002C296.401 68.5002 296.401 68.5002 296.401 68.4002V66.0002C296.301 65.8002 296.301 65.7002 296.101 65.6002C295.901 65.4002 295.801 65.2002 295.601 65.1002C295.401 64.9002 295.101 64.7002 294.801 64.6002C294.501 64.4002 294.201 64.3002 293.901 64.1002L293.301 63.9002C293.001 63.8002 292.701 63.7002 292.401 63.7002H292.101C291.901 63.7002 291.801 63.9002 291.901 64.0002Z" fill="#68BA7F"/>
<path d="M291.1 122.6V125.5C291.1 126 291.3 126.6 291.6 127.1C291.8 127.4 292 127.7 292.2 127.9C292.4 128.1 292.6 128.3 292.9 128.5L293.4 128.8C293.7 128.9 294 129 294.3 128.9L294.6 128.8C294.8 128.6 294.9 128.4 294.9 128.1V125.2C294.9 124.7 294.7 124.1 294.4 123.7C294.2 123.4 294 123.1 293.8 122.9C293.6 122.7 293.4 122.5 293.1 122.3L292.6 122C292.3 121.9 292 121.8 291.7 121.9L291.4 122.1C291.3 122.1 291.1 122.3 291.1 122.6Z" fill="#68BA7F"/>
<path d="M264.6 96.2998H267.1C267.3 96.2998 267.6 96.2998 267.8 96.2998C268 96.2998 268.1 96.2998 268.3 96.1998C268.4 96.0998 268.4 95.9998 268.4 95.9998C268.4 95.8998 268.3 95.7998 268.2 95.6998C267.8 95.3998 267.3 95.1998 266.8 95.0998C266.2 94.8998 265.5 94.7998 264.9 94.7998H262.4C262.2 94.7998 261.9 94.7998 261.7 94.7998C261.5 94.7998 261.4 94.8998 261.2 94.8998C261.1 94.9998 261.1 95.0998 261.1 95.0998C261.1 95.1998 261.2 95.2998 261.3 95.3998C261.7 95.6998 262.2 95.8998 262.7 95.9998C263.4 96.1998 264 96.2998 264.6 96.2998Z" fill="#68BA7F"/>
<path d="M323.9 98.2H326.8C327 98.2 327.1 98.1 327.3 98C327.4 97.9 327.5 97.8 327.5 97.6C327.5 97.4 327.4 97.2 327.3 97C327.2 96.8 327 96.6 326.8 96.4C326.3 95.9 325.8 95.6 325.2 95.3L324.6 95.1C324.3 95 323.9 95 323.6 95H320.7C320.5 95 320.4 95.1 320.2 95.2C320.1 95.3 320 95.4 320 95.6C320 95.8 320.1 96 320.2 96.2C320.3 96.4 320.5 96.6 320.7 96.8C321.2 97.3 321.7 97.6 322.3 97.9L322.9 98.1C323.3 98.2 323.6 98.2 323.9 98.2Z" fill="#68BA7F"/>
<path d="M314.999 71.8998L313.199 73.6998C313.099 73.7998 312.999 73.8998 312.999 73.9998C312.899 74.1998 312.899 74.3998 312.999 74.5998C312.999 74.8998 313.099 75.0998 313.199 75.3998C313.299 75.6998 313.399 75.9998 313.499 76.2998L313.799 76.8998C313.999 77.1998 314.199 77.4998 314.499 77.7998L314.799 78.0998C314.899 78.1998 315.199 78.2998 315.299 78.1998L317.099 76.3998C317.199 76.2998 317.299 76.1998 317.299 76.0998C317.399 75.8998 317.399 75.6998 317.299 75.4998C317.299 75.1998 317.199 74.9998 317.099 74.6998C316.999 74.3998 316.899 74.0998 316.799 73.7998L316.499 73.1998C316.299 72.8998 316.099 72.5998 315.799 72.2998L315.499 71.9998C315.399 71.8998 315.199 71.7998 314.999 71.8998Z" fill="#68BA7F"/>
<path d="M271.3 115.1L269.3 117.2C269.2 117.3 269.2 117.3 269.3 117.4C269.4 117.5 269.5 117.6 269.6 117.5C269.8 117.5 270 117.6 270.2 117.6C270.5 117.6 270.8 117.6 271.1 117.6C271.7 117.6 272.4 117.5 273 117.4L273.5 117.3C273.7 117.3 273.9 117.2 274.1 117.1L276.1 115.1C276.2 115 276.2 115 276.1 114.9C276 114.8 275.9 114.8 275.8 114.8C275.6 114.8 275.4 114.7 275.2 114.7C274.9 114.7 274.6 114.7 274.3 114.7C273.7 114.7 273 114.8 272.4 114.9L271.9 115C271.7 115 271.5 115 271.3 115.1Z" fill="#68BA7F"/>
<path d="M269.399 73.1004L271.199 74.9004C271.299 75.0004 271.499 75.1004 271.599 75.2004C271.799 75.3004 272.099 75.4004 272.299 75.4004C272.599 75.5004 272.899 75.5004 273.199 75.6004C273.499 75.6004 273.899 75.7004 274.199 75.7004H274.799C275.099 75.7004 275.399 75.6004 275.699 75.5004L275.999 75.3004C276.099 75.2004 276.099 75.1004 275.999 75.0004L274.199 73.2004C274.099 73.1004 273.899 73.0004 273.799 72.9004C273.599 72.8004 273.299 72.7004 273.099 72.7004C272.799 72.6004 272.499 72.6004 272.199 72.5004C271.899 72.4004 271.499 72.4004 271.199 72.4004H270.599C270.299 72.4004 269.999 72.5004 269.699 72.6004L269.399 72.8004C269.299 72.8004 269.299 73.0004 269.399 73.1004Z" fill="#68BA7F"/>
<path d="M313.899 117.301L315.999 119.401C316.399 119.801 316.899 120.201 317.399 120.501C317.599 120.601 317.799 120.601 317.999 120.601C318.199 120.601 318.299 120.601 318.499 120.501L318.699 120.201C318.699 119.901 318.699 119.601 318.599 119.401C318.399 118.801 317.999 118.301 317.599 117.901L315.599 115.901C315.199 115.401 314.699 115.101 314.199 114.801C313.999 114.701 313.799 114.601 313.599 114.701C313.399 114.701 313.299 114.701 313.099 114.801L312.899 115.101C312.799 115.401 312.899 115.601 312.999 115.901C313.099 116.401 313.399 116.901 313.899 117.301Z" fill="#68BA7F"/>
<path d="M100.5 74.4999C100.5 74.4999 105.9 68.4999 113.6 70.2999C115.3 70.6999 116.8 71.6999 117.9 72.9999C121.1 77.0999 117.4 82.5999 111.5 82.5999L45.0003 82.4999C40.2003 82.4999 38.0003 77.2999 41.9003 74.8999C46.5003 72.0999 52.4003 74.4999 52.4003 74.4999C52.4003 74.4999 41.9003 61.8999 54.2003 48.9999C66.5003 36.0999 84.4003 48.4999 82.5003 61.8999C82.5003 61.8999 102.1 51.9999 100.5 74.4999Z" fill="#FFFFFE"/>
<path d="M102.1 76.2998C103 75.2998 104.1 74.4998 105.3 73.8998C107.9 72.2998 111 71.8998 114 72.6998C115.2 72.9998 116.3 73.7998 116.9 74.8998C117 75.1998 117.1 75.4998 117.1 75.7998C117.1 76.2998 116.9 76.8998 116.6 77.2998C115.4 79.3998 113 80.1998 110.7 80.1998C106.1 80.2998 101.6 80.1998 97.0002 80.1998H69.9002H47.8002C46.6002 80.1998 45.3002 80.1998 44.1002 80.1998C44.6002 80.1998 43.8002 80.0998 43.6002 80.0998C43.3002 80.0998 43.1002 79.9998 42.8002 79.8998C42.4002 79.7998 42.0002 79.4998 41.8002 79.0998C42.1002 79.3998 41.7002 78.7998 41.9002 79.1998C41.8002 78.8998 41.8002 79.1998 41.8002 78.7998C41.8002 78.6998 41.8002 78.6998 41.8002 78.5998C41.9002 78.3998 42.0002 78.0998 42.1002 77.8998C43.7002 75.4998 47.9002 75.5998 50.4002 76.1998L51.2002 76.3998L51.5002 76.4998C51.4002 76.4998 51.1002 76.3998 51.5002 76.4998C51.7002 76.4998 51.8002 76.5998 52.0002 76.6998C54.5002 77.6998 54.6002 74.3998 53.5002 73.0998C53.4002 72.9998 53.3002 72.7998 53.2002 72.6998C53.6002 73.2998 52.8002 72.2998 53.2002 72.6998L52.8002 71.9998C52.5002 71.3998 52.1002 70.7998 51.8002 70.1998C51.7002 69.9998 51.6002 69.8998 51.6002 69.6998C51.4002 69.2998 51.8002 70.2998 51.6002 69.5998C51.4002 69.1998 51.3002 68.6998 51.1002 68.1998C49.7002 63.9998 50.2002 59.3998 52.4002 55.4998C54.9002 50.8998 59.4002 46.8998 64.6002 46.0998C68.7002 45.5998 72.8002 46.7998 75.9002 49.5998C79.3002 52.3998 81.0002 56.5998 80.5002 60.9998C80.3002 62.5998 82.0002 64.9998 83.7002 64.0998C84.3002 63.7998 84.9002 63.5998 85.4002 63.3998L85.8002 63.1998C86.3002 62.9998 85.6002 63.2998 85.9002 63.1998L87.0002 62.8998C87.7002 62.6998 88.5002 62.4998 89.3002 62.3998C90.2002 62.1998 91.1002 62.1998 92.0002 62.1998C91.6002 62.1998 92.2002 62.1998 92.3002 62.1998L92.9002 62.2998C93.3002 62.3998 93.8002 62.3998 94.2002 62.4998C94.7002 62.5998 94.0002 62.3998 94.4002 62.5998L94.9002 62.7998C95.1002 62.8998 95.3002 62.9998 95.5002 63.0998C95.9002 63.2998 95.5002 63.0998 95.4002 62.9998C95.5002 63.0998 95.7002 63.1998 95.8002 63.2998C95.9002 63.3998 96.1002 63.5998 96.3002 63.6998C96.5002 63.7998 96.0002 63.3998 96.5002 63.8998L97.0002 64.3998C97.1002 64.4998 97.3002 64.7998 96.9002 64.2998C97.0002 64.3998 97.1002 64.5998 97.1002 64.6998C97.1002 64.7998 97.4002 65.1998 97.5002 65.4998C97.2002 64.9998 97.7002 65.8998 97.7002 66.0998C97.7002 66.2998 97.9002 66.7998 98.0002 67.0998C98.1002 67.3998 98.1002 67.5998 98.2002 67.8998C98.5002 69.7998 98.6002 71.7998 98.4002 73.6998C98.3002 74.9998 99.0002 76.1998 100.1 76.7998C100.9 77.1998 101.8 76.8998 102.2 76.0998C102.3 75.8998 102.4 75.6998 102.4 75.4998C102.8 69.2998 102 61.4998 95.6002 58.4998C92.0002 56.7998 87.8002 57.3998 84.2002 58.5998C83.2002 58.8998 82.2002 59.2998 81.2002 59.7998L84.4002 62.8998C85.8002 52.2998 76.7002 41.6998 66.0002 41.2998C53.5002 40.9998 44.0002 54.4998 46.5002 66.2998C47.2002 69.8998 48.7002 73.1998 51.0002 76.0998L52.5002 72.4998C47.7002 70.5998 37.5002 70.6998 37.7002 77.9998C37.9002 81.4998 40.6002 84.4998 44.1002 84.9998C44.9002 85.0998 45.6002 85.0998 46.4002 85.0998H66.6002H96.3002C101.5 85.0998 106.8 85.1998 112 85.0998C115.1 85.0998 118 83.5998 119.7 80.9998C121.6 77.7998 121 73.7998 118.4 71.1998C113.3 65.7998 104.9 67.3998 99.7002 71.6998C99.3002 71.9998 99.0002 72.2998 98.6002 72.6998C97.3002 74.3998 100.3 78.2998 102.1 76.2998Z" fill="#68BA7F"/>
<path d="M313.4 222.799C313.4 222.799 367.7 223.199 373.1 221.999C378.5 220.799 385 211.399 379 200.299C373 189.199 363.8 192.499 363.8 192.499C363.8 192.499 364.6 176.999 345.7 177.799C326.8 178.599 327.5 196.299 327.5 196.299C327.5 196.299 313.3 196.899 315 208.399C315 208.399 308.4 205.999 304.9 214.399C301.4 222.799 313.4 222.799 313.4 222.799Z" fill="#FFFFFE"/>
<path d="M313.799 225.2C325.999 225.3 338.299 225.3 350.499 225.2C357.199 225.1 363.999 225.1 370.699 224.7C373.399 224.5 375.799 224.1 377.899 222.3C382.399 218.6 384.099 212.5 383.299 206.9C382.299 200.1 377.799 193 371.199 190.5C368.499 189.4 365.499 189.3 362.699 190.1L365.899 193C366.099 185.8 361.699 179.3 354.999 176.7C348.699 174.5 341.899 174.8 335.799 177.5C331.399 179.6 328.099 183.4 326.499 187.9C325.599 190.4 325.099 193 325.099 195.7L326.899 193.9C324.199 194 321.499 194.7 319.099 195.9C316.999 196.8 315.299 198.3 313.999 200.3C312.599 202.8 312.099 205.6 312.599 208.4L314.899 206.1C310.299 204.5 305.599 207.4 303.399 211.3C301.799 214.2 300.899 217.7 302.899 220.7C304.399 222.7 306.499 224.1 308.899 224.6C310.599 225 312.199 225.2 313.799 225.2C316.799 225.3 315.499 220.5 312.899 220.5C312.599 220.5 312.399 220.5 312.099 220.5C311.799 220.5 311.599 220.5 311.299 220.4C311.399 220.4 310.899 220.4 311.299 220.4L310.699 220.3C309.899 220.2 309.099 220 308.299 219.7C307.899 219.6 308.499 219.8 308.099 219.6L307.499 219.3C307.299 219.2 307.199 219.1 306.999 219C307.399 219.3 306.999 218.9 306.799 218.8C306.599 218.7 306.499 218.4 306.799 218.8C306.799 218.7 306.399 218.2 306.599 218.5C306.799 218.8 306.499 218.2 306.499 218.1C306.699 218.5 306.499 218.1 306.499 217.9C306.499 218.3 306.499 217.7 306.499 217.9C306.499 217.8 306.499 217.7 306.499 217.6C306.499 217.5 306.499 217 306.499 217.2C306.699 216.4 306.899 215.7 307.299 215C308.199 212.8 309.999 211.2 312.199 210.5L312.499 210.4C312.799 210.3 312.199 210.4 312.499 210.4C312.799 210.4 312.999 210.4 313.199 210.4C313.399 210.4 314.499 210.5 313.899 210.4C314.299 210.5 314.599 210.5 314.999 210.6C316.499 211.1 317.499 209.6 317.299 208.3C316.899 206.4 317.299 204.5 318.399 203C319.399 201.8 320.599 200.8 322.099 200.1C323.499 199.5 324.999 199.1 326.499 198.8L326.899 198.7C326.299 198.8 326.699 198.7 326.799 198.7L327.499 198.6L327.999 198.5C328.999 198.5 329.799 197.7 329.799 196.7C329.799 196.2 329.799 195.7 329.799 195.1C329.799 194.5 329.899 194 329.999 193.4C329.999 193.2 330.099 193.1 330.099 192.9C330.199 192.5 329.999 193.3 330.099 192.8C330.199 192.3 330.299 192 330.399 191.6C330.599 190.8 330.899 190 331.199 189.3C331.399 188.9 331.599 188.5 331.699 188.1C331.499 188.4 331.799 188 331.799 187.9C331.799 187.8 332.099 187.4 332.199 187.2C333.199 185.5 334.599 184 336.199 182.9C340.599 179.9 346.999 179.2 352.199 180.4C353.299 180.6 354.499 181 355.499 181.5C355.999 181.7 356.399 182 356.799 182.2C356.899 182.3 357.099 182.4 357.199 182.4L357.099 182.3C357.299 182.5 357.599 182.7 357.799 182.8C358.199 183.1 358.499 183.4 358.799 183.8L358.699 183.7L358.899 184C359.099 184.2 359.199 184.4 359.399 184.6C359.599 184.9 359.899 185.3 359.999 185.6C360.199 185.9 359.799 185.2 359.899 185.5L359.999 185.7L360.299 186.3C360.499 186.7 360.599 187.1 360.799 187.5C360.899 187.7 360.899 187.9 360.999 188.1C360.799 187.6 360.999 187.9 360.999 188.2C361.199 188.9 361.299 189.5 361.399 190.2C361.399 190.4 361.399 190.7 361.499 191C361.599 191.4 361.499 190.4 361.499 190.8C361.499 190.9 361.499 191 361.499 191.1C361.499 191.2 361.499 191.5 361.499 191.6C361.399 193.1 362.999 195 364.699 194.5L365.199 194.4L365.699 194.3C365.799 194.3 366.199 194.2 365.599 194.3L366.099 194.2C367.399 194 368.799 194.1 370.099 194.6C370.399 194.7 370.699 194.8 370.999 194.9C371.399 195.1 371.899 195.3 372.299 195.6C373.199 196.2 374.099 196.9 374.799 197.7C376.799 199.9 378.199 202.6 378.799 205.5C379.799 210.2 378.399 215.6 374.399 218.4C373.799 218.9 373.099 219.2 372.299 219.4L371.799 219.5C370.999 219.6 370.099 219.7 369.299 219.7C362.799 220.1 356.299 220.1 349.799 220.2C341.999 220.3 334.099 220.3 326.299 220.3L312.899 220.2C309.899 220.5 311.199 225.2 313.799 225.2Z" fill="#68BA7F"/>
<path d="M356.5 197.4C356.5 197.4 360.5 188.7 372 193.6Z" fill="#FFFFFE"/>
<path d="M358.9 197.1C359 196.8 358.7 197.5 358.9 197.2C359.1 196.9 359.1 196.8 359.2 196.7C359.3 196.6 359.6 196.2 359.8 195.9L360.2 195.5L360.4 195.3C360.8 195 361.1 194.7 361.5 194.4C361.9 194.1 361.2 194.6 361.5 194.4L361.8 194.2L362.1 194C362.2 193.9 362.7 193.8 362.3 193.9L362.5 193.8C362.6 193.7 362.8 193.7 362.9 193.7C363.4 193.5 362.7 193.7 362.8 193.7C362.9 193.7 363.1 193.6 363.3 193.6L363.5 193.5C363.8 193.4 363 193.6 363.3 193.5L363.8 193.4C364 193.4 364.1 193.4 364.3 193.4C364.5 193.4 364.1 193.4 364.1 193.4H364.5C364.9 193.4 365.4 193.4 365.8 193.5C365.5 193.5 366 193.6 366.2 193.6L366.9 193.7C368 193.9 369.1 194.3 370.1 194.7C371.2 195.1 372.5 194.9 373.5 194.3C374.1 194 375 193 374 192.5C370 190.6 365.4 190.4 361.1 191.8C358.6 192.7 356.5 194.2 355 196.3C354.7 196.8 354.4 197.2 354.1 197.7C353.6 198.7 355.7 198.7 356.1 198.7C357.3 198.6 358.3 198 358.9 197.1Z" fill="#68BA7F"/>
<path d="M270.6 419.7L278.7 414.2C278.7 414.2 304 404.7 304.9 411.1C305.8 417.5 295.4 428.3 279.6 439.2C263.8 450.1 254.9 448.7 253 432.4L270.6 419.7Z" fill="#101013"/>
<path d="M272.4 421.5L276.3 418.9C277.7 417.9 279.1 416.9 280.5 416C281.1 415.7 281.7 415.5 282.3 415.3C283.9 414.7 285.6 414.2 287.2 413.7C291.4 412.3 295.7 411.3 300.1 410.8C301.7 410.5 303.4 410.6 305 411.1C305.1 411.1 305.2 411.2 305.3 411.2L305.4 411.3L305 411L303.2 408.9C303.2 409 303.3 409.4 303.4 409.6C303.5 410.5 303.4 411.4 303.1 412.2C302.3 414.5 301.2 416.6 299.7 418.4C297.7 421 295.4 423.4 293 425.6C287 431.2 280.4 436.2 273.3 440.4C269.3 442.7 263.8 445.5 259 444C258.6 443.9 258.2 443.7 257.8 443.5C257.6 443.4 257.4 443.3 257.2 443.1C257 442.9 256.9 442.8 257.1 443.1C257.3 443.4 257.9 444.1 257.4 443.4C257.1 442.9 256.9 442.5 256.6 442C256.1 440.8 255.7 439.5 255.4 438.2C255.3 437.5 255.1 436.8 255 436.2C254.9 435.8 254.6 434.7 254.8 434.4C255 434.1 255.4 433.9 255.6 433.8L257.3 432.6L262.4 428.9L271.7 422.1L272.4 421.5C272.7 421.2 269.6 417.4 269 417.8L253.7 429L251.5 430.6V430.7C252.1 435.6 253.5 440.1 256.9 443.8C259.7 446.8 262.8 448.5 267 447.9C272 447.2 276.7 444.3 280.9 441.5C286.9 437.5 292.5 433.1 297.7 428.1C301 424.9 304.6 421.2 306.2 416.8C306.8 415.5 307 414 306.8 412.6C306.5 411.8 306 411 305.4 410.4C304.6 409.4 303.7 408.6 302.6 407.9C300.2 406.5 296.6 407.2 294 407.6C290.2 408.3 286.5 409.3 282.8 410.5C280.8 411 278.9 411.7 277 412.5C275.5 413.3 274.1 414.4 272.7 415.4L269 418C268.7 418 271.7 421.9 272.4 421.5Z" fill="#101013"/>
<path d="M259.1 395.6C259.1 395.6 263.2 414.1 265.7 415.8C268.2 417.5 291.5 409.8 289.4 411.8C287.8 413.3 286.3 420.2 272 429.1C257.5 438.1 256.9 435.8 254.1 433.4C251.3 431 239.1 412.5 239.1 412.5L259.1 395.6Z" fill="#FFFFFE"/>
<path d="M257.3 395.1C258.1 398.4 258.9 401.8 259.8 405.1C260.4 407.4 261.1 409.8 262 412.1C262.7 413.9 263.5 416.1 265 417.4C266.2 418.4 267.7 418.4 269.2 418.2C271.1 418 273.1 417.6 275 417.1C279.3 416.1 283.5 414.9 287.7 414C288.3 413.9 288.9 413.7 289.6 413.7C289.7 413.7 290.1 413.7 290.1 413.7C289.3 414.2 288.5 411.5 288.6 411.8C288.8 412.4 287.4 410.1 288 409.7C288 409.7 288 409.8 287.9 409.8C287.2 410.3 286.7 411.6 286.3 412.3C283.6 416.6 280.1 420.3 276 423.3C272.6 425.8 269 428.1 265.3 430.1C263.3 431.3 261.1 432.3 258.8 433C258.5 433.1 258.1 433.1 257.8 433.2H257.3C257.2 433.2 256.7 433.2 257 433.2C257.3 433.2 256.6 433.1 256.5 433.1C256.1 433 256.8 433.3 256.6 433.1C256.5 433 256.4 433 256.3 432.9C255.7 432.6 256.4 433 256.2 432.8L255.6 432.3C255.2 432 254.9 431.6 254.5 431.3C254.1 431 254.7 431.5 254.6 431.4L254.3 431C254 430.7 253.8 430.4 253.5 430.1C252.9 429.3 252.3 428.5 251.7 427.7C250.2 425.7 248.8 423.7 247.4 421.6C245.1 418.3 242.8 414.9 240.6 411.5L240.2 410.9L240.7 414.1L258.1 399.4L260.6 397.3C261.5 396.6 260.7 394.7 260.1 394.1C259.4 393.3 258.4 392.7 257.5 393.5L240.1 408.2L237.6 410.3C236.7 411.1 237.6 412.9 238.1 413.5C242.5 420.1 246.8 427 251.8 433.1C253.3 434.9 255.4 437.2 257.8 437.6C259.5 437.8 261.2 437.5 262.8 436.7C265.8 435.4 268.8 433.9 271.6 432.1C277.5 428.5 283.3 424.4 287.5 418.8C288.5 417.5 289.3 416.1 290.1 414.7C290.9 413.3 291.9 412.6 291.1 410.9C290.2 408.9 288.7 408.8 286.9 409.1C285.1 409.4 283.1 409.9 281.3 410.4C276.9 411.7 272.5 412.7 268 413.4C267.3 413.5 266.6 413.5 265.9 413.5C265.6 413.5 266 413.5 266 413.5H265.8C265.8 413.5 265.5 413.2 265.7 413.5C265.7 413.5 266.4 414 266.1 413.7C265.8 413.4 266.5 414.2 266.2 413.8C266 413.5 266.5 414.4 266.2 413.9C266.1 413.7 266 413.6 265.9 413.4L265.6 412.8C265.7 413.2 265.5 412.6 265.5 412.6C265.1 411.5 264.7 410.5 264.3 409.4C263.5 407 262.8 404.5 262.2 402C261.9 400.9 261.6 399.8 261.4 398.7L261.1 397.5C261.1 397.3 261 397.1 261 397C261.1 397.5 260.9 396.6 261 397C260.9 396.7 260.9 396.4 260.8 396.1C260.6 395 259.9 393.6 258.7 393.3C257.5 393 257 394.1 257.3 395.1Z" fill="#101013"/>
<path d="M145.6 240.8C145.6 240.8 138.7 256.8 144.2 279.2C149.7 301.6 220.4 427.9 243.8 427.3C267.2 426.7 273.7 403.3 261.7 382.5C249.7 361.7 186.5 238.8 186.5 238.8L145.6 240.8Z" fill="#FFFFFE"/>
<path d="M143.8 239.2C143.1 241 142.5 242.9 142.1 244.8C140.9 249.8 140.3 255 140.3 260.1C140.1 268.3 141.5 276.5 144.4 284.2C146.5 289.5 148.9 294.7 151.4 299.9C154.7 306.7 158.2 313.4 161.8 320.1C166 328 170.4 335.8 174.9 343.6C179.6 351.6 184.4 359.5 189.3 367.4C194.1 375 199.1 382.5 204.3 389.9C208.9 396.5 213.8 403 218.9 409.1C222.9 414.1 227.3 418.7 232.1 422.9C235.3 425.6 239.2 428.7 243.4 429.4C244.9 429.6 246.4 429.6 247.9 429.4C250.5 429.1 253 428.5 255.4 427.5C259.6 425.7 263.2 422.7 265.7 418.8C271.1 410.2 270.1 398.9 266.6 389.8C264.5 384.4 261.4 379.5 258.6 374.4C255.5 368.7 252.5 363.1 249.5 357.4C245.7 350.2 241.9 343 238.1 335.8C233.9 327.8 229.7 319.8 225.6 311.8C221.5 303.8 217.3 295.9 213.2 288C209.5 280.8 205.8 273.7 202.1 266.5L193.6 250L188.8 240.6L188.2 239.4C187.7 238.4 186.6 237 185.3 237L149.4 238.8L144.3 239C143.2 239.1 144.1 240.9 144.4 241.2C144.9 242 145.9 243.1 147 243L182.9 241.2L187.9 241L185 238.6L194.2 256.5C201.4 270.4 208.5 284.2 215.7 298.1C223.8 313.7 231.9 329.2 240 344.8C246 356.2 251.9 367.5 258.1 378.8C259.3 381 260.7 383.2 261.8 385.5C264.2 390.3 265.5 395.5 265.7 400.8C266 410 261.9 418.9 253.4 423C251.1 424.1 248.6 424.8 246.1 425.1C244.8 425.3 243.6 425.4 242.3 425.4C241.8 425.4 242.5 425.4 242.1 425.4L241.5 425.3C241.1 425.2 240.8 425.2 240.4 425.1L239.9 425C239.8 425 239.5 424.8 240 425C239.9 425 239.7 424.9 239.6 424.9C238.7 424.6 237.9 424.2 237.1 423.7C237.7 424.1 237 423.6 236.8 423.5L236.2 423.1C235.7 422.8 235.3 422.5 234.8 422.1L234.1 421.6L233.8 421.4L232.4 420.3C231.4 419.4 230.4 418.5 229.4 417.5C228.9 417 228.4 416.5 227.9 416C227.8 415.9 227.6 415.8 227.5 415.6C227.9 416 227.1 415.1 227.5 415.6L226.6 414.7C224.3 412.3 222.2 409.8 220 407.2C218.8 405.8 217.6 404.3 216.5 402.9C215.9 402.2 215.4 401.4 214.8 400.7C214.5 400.3 214.2 400 213.9 399.6C214.2 400 213.8 399.4 213.7 399.4L213.1 398.6C208 391.9 203.3 385 198.6 378C188.6 362.9 179.2 347.4 170.5 331.7C163.3 318.8 156.3 305.8 150.3 292.3C149.8 291.1 149.3 290 148.8 288.8C148.6 288.3 148.4 287.7 148.1 287.2C148 286.9 147.9 286.7 147.8 286.4C147.7 286.1 147.6 285.9 147.8 286.4C147.7 286.2 147.7 286.1 147.6 285.9C146.9 284.3 146.4 282.6 145.9 280.9C143 270.1 142.9 258.7 145.5 247.8C145.9 246 146.5 244.3 147.1 242.6C148 241 144.5 237.6 143.8 239.2Z" fill="#101013"/>
<path d="M94.1987 418.7L100.499 426.5C100.499 426.5 113.499 452.2 107.999 454.3C102.499 456.4 90.7987 447.1 78.2987 432.1C65.7987 417.1 65.2987 407.1 79.5987 402.2L94.1987 418.7Z" fill="#101013"/>
<path d="M91.9996 420C94.5996 423.1 97.4996 426.1 99.2996 429.7C102.1 435.5 104.8 441.5 106.4 447.7C106.8 449 107 450.4 107 451.8C107 451.3 107 452.2 107 452.3C107 452.4 106.9 452.7 106.9 452.9C107 452.2 106.9 452.9 106.8 453C107.1 452.8 107 452.6 106.9 452.9C106.8 453.2 106.8 453 107.1 452.7C106.9 452.9 107 452.8 107.4 452.5C107.2 452.6 107.1 452.6 107.7 452.4C107.6 452.5 107.5 452.5 107.3 452.5C107.8 452.6 107.6 452.5 107.3 452.5C107.2 452.5 107.1 452.5 107 452.5C106.5 452.6 107.5 452.5 106.9 452.5H106.4H106C105.7 452.5 106.1 452.5 105.6 452.4C104 452 102.4 451.3 101 450.4C96.4996 447.4 92.2996 443.9 88.6996 440C83.8996 435.3 79.4996 430.1 75.6996 424.6C73.1996 420.8 70.2996 415.9 71.1996 411.2C71.3996 410.5 71.5996 409.8 71.8996 409.2C72.0996 408.8 72.3996 408.4 72.6996 408.1C73.1996 407.5 72.3996 408.4 72.8996 407.8C73.0996 407.6 73.2996 407.4 73.4996 407.2C74.2996 406.5 75.0996 405.9 75.9996 405.5C77.1996 404.9 78.3996 404.4 79.6996 404L77.1996 403.5L89.9996 418L91.9996 420C92.7996 420.8 94.0996 420.9 95.0996 420.2C95.7996 419.8 97.0996 418.3 96.2996 417.4L83.4996 402.8L81.6996 400.7C81.0996 400 80.0996 399.8 79.1996 400.2C74.4996 401.8 69.6996 404.5 67.4996 409.1C65.5996 413.2 66.5996 417.8 68.3996 421.7C71.1996 427.9 75.7996 433.1 80.2996 438.1C84.4996 443 89.1996 447.5 94.3996 451.5C97.4996 453.8 101.4 456.4 105.4 456.4C108.9 456.4 111.6 454.3 111.7 450.6C111.7 447.1 110.5 443.7 109.4 440.5C108.1 436.9 106.6 433.4 105 429.9C104.3 428.1 103.5 426.4 102.5 424.8C100.6 422.2 98.3996 419.7 96.2996 417.2C95.4996 416.4 94.1996 416.3 93.1996 417C92.4996 417.6 91.1996 419 91.9996 420Z" fill="#101013"/>
<path d="M113.7 401.9C113.7 401.9 97.8996 409.7 96.7996 412.6C95.6996 415.5 106.8 439.4 104.6 437.5C102.9 436.1 96.4996 435.6 85.9996 421.8C75.2996 407.8 77.2996 406.7 78.9996 403.3C80.6996 399.9 94.9996 383.4 94.9996 383.4L113.7 401.9Z" fill="#FFFFFE"/>
<path d="M112.199 399.9C109.099 401.4 105.999 403.1 102.999 404.8C100.899 405.9 98.8994 407.2 96.9994 408.7C95.6994 409.7 94.3994 410.9 94.2994 412.6C94.2994 414.3 94.6994 416 95.2994 417.6C95.9994 419.7 96.6994 421.8 97.4994 423.8C98.9994 427.8 100.699 431.8 102.099 435.8C102.199 436 102.399 436.9 102.299 436.5C102.199 436.1 102.399 436.8 102.399 437C102.499 437.5 102.399 437.1 102.399 436.9L102.499 436.4L104.799 435.4C105.099 435.5 105.299 435.6 105.599 435.8C106.099 436 105.799 435.9 105.599 435.8C104.599 435.2 103.599 434.6 102.499 434.2C101.799 433.9 101.099 433.5 100.399 433.1C99.9994 432.9 99.5994 432.6 99.1994 432.4C98.7994 432.2 99.2994 432.4 99.2994 432.5L98.8994 432.2L98.0994 431.7C95.6994 429.9 93.4994 427.9 91.4994 425.7C88.7994 422.5 86.1994 419.2 83.8994 415.6C82.3994 413.7 81.1994 411.6 80.2994 409.4C80.1994 409.2 80.1994 409 80.0994 408.9C79.8994 408.4 80.1994 409.2 80.0994 408.8C79.9994 408.4 79.9994 408.2 79.8994 407.8C79.7994 407.4 79.8994 407.6 79.8994 407.9C79.8994 407.8 79.8994 407.7 79.8994 407.5C79.8994 407.2 80.0994 406.6 79.8994 407.2C80.1994 406.3 80.5994 405.4 81.0994 404.6L81.2994 404.2C81.1994 404.5 81.0994 404.6 81.2994 404.3C81.4994 404 81.6994 403.6 81.9994 403.3C82.5994 402.5 83.1994 401.7 83.6994 401C85.1994 399 86.7994 397.1 88.3994 395.2C91.0994 392 93.7994 388.9 96.4994 385.7L96.9994 385.1H93.6994L109.999 401.3L112.299 403.6C113.199 404.5 114.699 404.5 115.599 403.6C116.499 402.5 115.899 401.2 114.999 400.4L98.6994 384L96.3994 381.7C95.4994 380.8 93.9994 380.8 93.0994 381.7C90.8994 384.2 88.7994 386.7 86.5994 389.2C83.3994 392.8 80.4994 396.5 77.6994 400.4C76.2994 402.5 74.9994 404.9 75.2994 407.6C75.5994 409.5 76.2994 411.3 77.2994 413C79.1994 416.2 81.1994 419.2 83.4994 422.1C87.6994 427.7 92.3994 433 98.3994 436.7C99.6994 437.4 100.999 438.1 102.399 438.7L102.999 439C103.099 439.1 103.199 439.1 103.199 439.1C103.599 439.2 102.599 438.7 102.999 439C103.799 439.8 105.099 440.1 106.199 439.5C107.799 438.5 106.899 436.4 106.499 435.1C105.899 433.3 105.199 431.6 104.499 429.8C103.599 427.5 102.699 425.2 101.899 422.9C101.499 421.7 100.999 420.6 100.599 419.4L100.099 417.9C99.9994 417.7 99.8994 417.4 99.8994 417.2C99.8994 417 99.5994 416.3 99.6994 416.5C99.7994 416.7 99.5994 416.2 99.5994 416.1C99.5994 416 99.4994 415.7 99.3994 415.5C99.2994 415.1 99.1994 414.7 99.0994 414.3C98.9994 413.9 98.9994 413.7 98.9994 413.4C98.9994 413.1 98.9994 414 98.9994 413.5C98.9994 413 98.9994 413.4 98.9994 413.4C98.7994 413.9 98.7994 413.7 98.9994 413.4C99.1994 413.1 99.1994 413.2 99.2994 413C99.3994 412.8 99.7994 412.5 99.5994 412.7C99.3994 412.9 99.8994 412.5 99.8994 412.4L100.599 411.9C101.099 411.5 101.599 411.2 102.099 410.9C105.999 408.4 109.999 406.1 114.199 404.1L115.099 403.7C116.299 403.1 116.099 401.4 115.399 400.6C114.599 399.7 113.299 399.4 112.199 399.9Z" fill="#101013"/>
<path d="M197.599 254.7C197.599 254.7 173.199 332 155.699 370.6C138.199 409.2 124.999 417.6 103.999 410.2C82.9989 402.8 80.2989 387 90.4989 367.4C103.299 342.7 138.499 285.1 146.799 243.9C155.099 202.7 197.599 254.7 197.599 254.7Z" fill="#FFFFFE"/>
<path d="M195.299 255.6C192.899 263.1 190.399 270.7 187.899 278.2C182.399 294.7 176.799 311.1 170.899 327.4C164.699 344.4 158.399 361.4 150.599 377.7C146.399 386.5 141.599 395.4 135.099 402.8C132.899 405.3 130.399 407.6 127.599 409.4C127.099 409.7 126.499 410 125.999 410.3C125.899 410.3 125.599 410.5 125.999 410.3L125.399 410.6C125.899 410.4 125.499 410.6 125.399 410.6L124.999 410.7L125.199 410.6C124.799 410.8 124.399 410.9 123.899 411C123.299 411.1 122.699 411.3 121.999 411.4C115.399 412.3 108.399 410.4 102.399 407.7C94.999 404.3 88.799 398.6 87.399 390.3C85.999 381.6 89.499 372.9 93.399 365.3C96.799 358.8 100.399 352.3 103.999 345.9C113.599 328.4 123.099 310.8 131.499 292.7C135.799 283.4 139.799 273.9 143.099 264.2C144.699 259.7 146.099 255.1 147.299 250.5C148.399 246.5 148.899 242.3 150.299 238.3C151.099 235.4 152.699 232.7 154.699 230.5C155.099 230.1 155.499 229.8 155.899 229.5C156.099 229.4 156.199 229.3 156.399 229.2C156.799 228.9 155.999 229.4 156.499 229.1C156.999 228.8 156.099 229.3 156.499 229.1L155.899 229.3C156.199 229.2 155.299 229.4 155.899 229.3C156.499 229.2 155.599 229.4 155.899 229.3L156.299 229.2L156.799 229.1C157.099 229.1 157.399 229 157.699 229C162.699 228.8 167.699 231.4 171.799 234.1C180.199 239.5 187.499 246.7 193.999 254.2C194.499 254.7 194.899 255.2 195.299 255.6C195.999 256.4 199.999 253.8 199.999 253.8C194.899 247.5 189.099 241.8 182.799 236.7C178.399 233.1 173.499 229.7 167.999 227.9C162.499 226.1 156.399 227.2 151.799 230.7C146.099 235 145.199 242.6 143.599 249.1C141.199 258.8 138.099 268.3 134.199 277.5C126.299 297.2 116.599 316.1 106.499 334.7C102.299 342.5 97.899 350.3 93.699 358.1C89.799 365.2 85.499 372.4 83.599 380.3C81.699 388.2 82.399 396.5 88.099 402.7C93.499 408.6 101.999 412 109.799 413.2C116.399 414.2 123.199 413 128.999 409.8C135.799 406.3 140.899 400.4 145.199 394.1C151.199 385.2 155.799 375.4 159.999 365.6C163.499 357.6 166.699 349.4 169.899 341.2C176.499 323.7 182.699 306.1 188.699 288.4C192.399 277.4 195.999 266.4 199.599 255.4C199.799 254.8 199.999 254.3 200.099 253.8C199.299 253.9 198.399 254.1 197.599 254.4C196.899 254.6 195.499 255 195.299 255.6Z" fill="#101013"/>
<path d="M206.099 254.1C204.099 254.1 144.999 263.5 139.099 252.2C133.199 240.9 146.399 151.4 173.599 158.9C200.799 166.4 206.099 254.1 206.099 254.1Z" fill="#101013"/>
<path d="M204.6 253C202.2 253.1 199.8 253.4 197.4 253.9C192.4 254.5 187.4 255.1 182.4 255.6C176.4 256.2 170.3 256.6 164.3 256.7C158.9 256.9 153.5 256.7 148.1 255.9L147.3 255.8C147.2 255.8 147 255.8 146.9 255.7C146.3 255.6 145.8 255.5 145.2 255.3C144.6 255.1 145.7 255.5 145 255.2L144.4 255C143.7 254.8 144.8 255.2 144.2 254.9L143.7 254.7L143.3 254.5C142.9 254.3 143.4 254.6 143.2 254.4L142.8 254.1C142.4 253.9 142.9 254.2 142.6 253.9C142.1 253.5 141.8 253.1 141.5 252.5C140.3 250.2 140.3 247.3 140.2 244.8C139.8 234.9 141.2 225 142.9 215.3C144.8 203.7 147.9 192.4 152.1 181.5C153.9 176.9 156.2 172.5 158.9 168.3C161.1 165.2 163.8 162.2 167.3 160.5C168.7 159.8 170.2 159.4 171.8 159.3H172.2H172.8C173.1 159.3 172.4 159.2 173 159.3C173.2 159.3 174 159.5 173.3 159.3L173.9 159.4C174.2 159.4 173.4 159.2 174.1 159.5C174.8 159.8 174 159.4 174.3 159.5C174.6 159.6 174.8 159.7 175 159.8C174.5 159.6 175 159.8 175.1 159.9L175.7 160.2C175.3 160 175.9 160.3 176 160.4C176.1 160.5 176.4 160.7 176.7 160.8C177.4 161.3 178.1 161.9 178.8 162.5C180.4 164 181.8 165.6 183 167.4C189.2 176.3 192.6 187.1 195.3 197.5C198.1 208.7 200.3 220 201.7 231.5C202.6 238.3 203.3 245.1 203.8 252L203.9 253C204 254.4 208.7 255 208.7 254.5C208.4 249.4 207.8 244.3 207.3 239.2C206.1 227.9 204.2 216.8 201.8 205.7C199.3 194.4 196.1 182.8 190.4 172.6C186 164.7 178.7 157 168.9 157.1C160.3 157.2 154.7 165.4 151.1 172.2C145.7 182.5 142.4 194 140 205.3C137.5 216.1 136.1 227.1 135.7 238.2C135.5 241.7 135.7 245.3 136.3 248.8C136.5 249.9 136.8 250.9 137.4 251.8C138.6 253.3 140.3 254.5 142.1 255.2C146.9 257.3 152.2 257.9 157.3 258.2C163.5 258.5 169.7 258.4 175.9 258C186 257.4 196.1 256.2 206.1 254.9C206.6 254.8 207.1 254.8 207.6 254.7C207.8 254.7 208.7 254.6 208 254.6C208.9 254.6 209.1 254.2 208.3 253.7C206.9 253.3 205.8 253 204.6 253Z" fill="#101013"/>
<path d="M162.5 159.2C162.5 159.2 134.1 156.1 140.6 127.2C143.5 112.9 155.7 102.4 170.2 101.5C182.9 100.9 191.2 105.7 193.5 110.7C195.2 114.5 185.4 136.2 185.4 136.2L162.5 159.2Z" fill="#101013"/>
<path d="M161.9 157.1L161.4 157L160.9 156.9C161.6 157 160.9 156.9 160.6 156.8C159 156.5 157.5 156 156 155.5L155.4 155.3C155.3 155.2 154.4 154.9 155.1 155.2C154.6 155 154.1 154.7 153.6 154.5C152.6 154 151.7 153.5 150.7 152.9L150.3 152.7C150.4 152.7 150.8 153 150.4 152.8C150.2 152.6 149.9 152.5 149.7 152.3C149.2 151.9 148.7 151.5 148.2 151.1L147.5 150.5C147.2 150.2 147.5 150.5 147.5 150.6C147.4 150.5 147.3 150.4 147.1 150.2C146.7 149.7 146.2 149.2 145.8 148.7C145.6 148.4 145.4 148.1 145.2 147.9C145.1 147.8 144.9 147.5 145.2 147.9C145.1 147.8 145 147.7 145 147.5C144.6 146.9 144.2 146.3 143.9 145.6C143.3 144.4 142.8 143.1 142.5 141.8C141.7 138.4 141.6 134.9 142.1 131.4C143.3 122.9 147.5 114.8 154.5 109.6C161.2 104.7 169.4 102.6 177.6 103.8C179.8 104.1 182 104.6 184.2 105.4C185.7 106 187.2 106.7 188.5 107.6C188.8 107.8 189.1 108.1 189.4 108.3C189.6 108.5 189.8 108.6 190 108.9C190.2 109.1 190.4 109.4 190.6 109.6C190.6 109.6 191 110.2 190.8 109.9C190.6 109.6 191 110.2 191 110.3C191.1 110.6 191.3 110.8 191.4 111.1C191.1 110.4 191.2 110.7 191.3 110.8C191.4 110.9 191.3 111.1 191.3 110.8C191.3 110.5 191.3 111 191.3 111.1C191.3 111.2 191.3 111.6 191.3 111.8C191.2 112.9 190.9 114 190.6 115C190.2 116.5 189.7 118 189.2 119.4C188.1 122.5 187 125.5 185.7 128.5C184.9 130.4 184.1 132.4 183.2 134.3C183.2 134.4 183 134.6 183 134.7C183 134.3 183.4 134.3 183.1 134.4C182.8 134.5 182.4 135.1 182.1 135.4L161.1 157L160.5 157.6C158.9 159.2 162.7 162.4 164.4 160.7L185.3 139.7C186.2 139 187 138.1 187.6 137.2C188.3 135.7 189 134.1 189.6 132.6C190.9 129.5 192.1 126.4 193.2 123.3C194.3 120.4 195.2 117.5 195.7 114.5C195.9 113.4 195.9 112.2 195.7 111.1C195.2 109.6 194.4 108.3 193.3 107.2C190.4 104.2 186.7 102 182.6 100.9C173.7 98.2 164 99 155.7 103.2C147.7 107.5 141.7 114.9 139.1 123.6C136.9 131.1 136.5 139.5 140.2 146.6C144.5 154.9 153.6 159.8 162.5 161.2L163 161.3C163.8 161.4 164.5 160.9 164.6 160.1C164.6 159.9 164.6 159.6 164.5 159.4C164.2 158.1 163.2 157.2 161.9 157.1Z" fill="#101013"/>
<path d="M180.8 168.9C180.8 168.9 180.2 167 179.7 164.6C179.2 162.2 179.7 160.8 186.9 158.1C201.1 152.8 198.8 139.4 198.8 139.4C200.6 139.4 202.5 139.1 204.1 138.3C207 137.2 210 132.1 201.6 129.7C199.2 129.2 197.2 127.5 196.4 125.2C195 121.4 194.7 118.1 192.2 111.2L190.9 114.2C187.6 122.1 181 128.1 172.8 130.7L172 130.5C172.2 144.6 163.6 152.1 163.6 152.1C163.4 154.5 163 156.9 162.4 159.2C162.5 159.1 171.6 173.2 180.8 168.9Z" fill="#FFFFFE"/>
<path d="M183.1 168.5C182.6 167 182.3 165.5 181.9 163.9C181.8 163.3 181.9 164.1 181.9 163.8C181.9 163.7 181.9 163.6 181.9 163.5C181.9 163.1 181.9 163.7 181.9 163.7C181.8 163.5 182.3 163 181.9 163.5C182 163.4 182 163.3 182 163.3C182.3 162.9 181.9 163.4 182 163.3C182.1 163.2 182.4 163 182.6 162.8C182.8 162.6 183 162.5 183.2 162.4C184.1 161.9 185 161.5 185.9 161.1C188 160.3 190 159.4 192 158.3C197.3 155.1 200.8 149.4 201.2 143.2C201.3 141.8 201.3 140.4 201.1 139L198.8 141.7C203.3 142.1 210 139.4 209.4 133.9C209 130.5 205.8 128.5 202.8 127.6C201.4 127.2 200.2 126.9 199.4 126C198.6 124.9 198.1 123.6 197.8 122.2C196.7 118.4 195.8 114.5 194.4 110.8C193.6 108.7 190.8 107.9 189.8 110.3C188.5 113.8 186.7 117.1 184.3 120C180.9 123.9 176.5 126.8 171.5 128.4L172.7 128.2C173.5 128.3 173 128.2 172.6 128.1C171.5 127.6 170.3 128.1 169.8 129.2C169.7 129.5 169.6 129.8 169.6 130C169.7 135.1 168.4 140.2 165.9 144.7C165.5 145.5 165 146.2 164.5 146.9C164.3 147.2 164 147.5 163.8 147.9C163.7 148.1 163 148.9 163.4 148.4C162.9 149 162.4 149.5 161.9 150C160.9 151.1 161 153.3 160.8 154.7C160.5 156.4 159.5 158.6 160.4 160.2C162.2 163 164.5 165.6 167.1 167.7C171.2 171.1 176.6 173.3 181.7 170.9C184.4 169.6 182 165.3 179.4 166.5C175.6 168.2 171.9 166 169.1 163.5C167.8 162.3 166.6 161 165.5 159.6C165.1 159.1 164.7 158.6 164.4 158.1C163.9 157.4 164.7 158.6 164.3 158L164.5 159.8C165.2 157.3 165.6 154.7 165.8 152L165.1 153.6C167 151.8 168.6 149.8 169.8 147.5C172.8 142.3 174.3 136.4 174.2 130.4L171.2 132.3C171.6 132.5 172.1 132.6 172.6 132.7C173.5 132.7 174.4 132.5 175.2 132.1C176.6 131.6 177.9 131 179.2 130.3C184.8 127.2 189.3 122.6 192.1 116.9C192.9 115.3 193.6 113.5 194.3 111.9L189.7 111.4C190.8 114.6 191.8 117.8 192.6 121.1C193.3 123.9 194 127.1 196.2 129.2C197.3 130.3 198.7 131.1 200.1 131.6C201.5 131.9 202.9 132.5 204.1 133.3C204.2 133.4 204.3 133.5 204.3 133.6C204.7 134.1 204.3 133.5 204.4 133.8C204.2 133.5 204.4 133.8 204.4 133.9C204.3 134.1 204.5 134 204.4 133.8C204.4 133.9 204.4 134 204.4 134.2C204.6 133.8 204.4 134.1 204.3 134.4C204.2 134.8 204.3 134.4 204.3 134.5C204.3 134.6 204.1 134.9 204 135C203.9 135.1 203.8 135.3 204 135.1C204.2 134.9 203.9 135.2 203.8 135.3L203.3 135.7L203.1 135.8C203.4 135.7 202.7 136.1 203.1 135.8C202.5 136.1 201.8 136.4 201.1 136.6C200.3 136.8 199.6 136.9 198.8 137C198.1 137.1 199 137.1 198.4 137C197.2 136.9 196.2 137.7 196 138.9C196 139.2 196 139.4 196.1 139.7C196.1 139.8 196.1 139.8 196.1 139.9C196.1 139.2 196.1 139.6 196.1 140C196.1 140.8 196.1 141.5 196.1 142.3C196.1 142.5 196.1 142.7 196 142.9C195.9 143.1 195.9 143.8 196 143.3C195.9 143.9 195.8 144.5 195.7 145C195.4 146.2 195 147.3 194.5 148.3C193 151.1 190.6 153.4 187.7 154.8C184.5 156.4 179.9 157.1 177.6 160.3C175.7 162.8 177.2 166.5 178.1 169.2C178.4 170.5 179.6 171.3 181 171.2C182.2 171 183 169.9 182.8 168.7C183.1 168.7 183.1 168.6 183.1 168.5Z" fill="#101013"/>
<path d="M192.199 125.1C195.299 124.6 197.899 122.4 198.799 119.3C199.799 115.7 197.999 111.6 195.499 109.1C194.599 108.2 193.499 107.8 192.199 107.8C191.299 107.8 190.899 108.5 191.599 109.2C193.599 111.2 194.999 114.7 194.099 117.5C193.299 120 191.199 121.9 188.599 122.3C187.499 122.5 188.399 123.7 188.799 124C189.899 124.9 191.099 125.2 192.199 125.1Z" fill="#101013"/>
<path d="M174.8 136.8C174.8 136.8 174 127.9 167.7 131.2C161.5 134.5 166.1 144 171.5 145.6" fill="#FFFFFE"/>
<path d="M177.1 137.2C176.7 133.5 174.6 129.2 170.5 128.6C167.5 128.2 164.6 129.7 163.2 132.3C162.1 134.9 162.3 137.8 163.6 140.3C165.1 143.4 167.8 146.3 171.2 147.4C172.1 147.7 173.6 147.8 173.8 146.6C174 145.4 172.8 144.2 171.9 143.9L171.2 143.7C171.1 143.6 170.9 143.6 170.8 143.5C171.2 143.6 171.2 143.7 171 143.6C170.8 143.5 170.6 143.3 170.4 143.2C170.2 143.1 170.1 142.8 170.4 143.2C170.3 143.1 170.2 143 170 142.9C169.8 142.7 169.6 142.5 169.4 142.3C169.3 142.2 169.1 142.1 169.1 141.9C169.1 141.7 169.5 142.3 169.2 142C168.9 141.7 168.5 141 168.2 140.5C168.3 140.8 167.9 140 168.2 140.5C168.1 140.4 168.1 140.3 168 140.1C167.9 139.9 167.8 139.6 167.7 139.3C167.6 139 167.5 138.8 167.4 138.5C167.5 138.8 167.2 138 167.4 138.5L167.3 138C167.2 137.5 167.2 137 167.2 136.5C167.2 136.9 167.2 136.2 167.2 136.1C167.2 135.8 167.3 135.5 167.4 135.2L167.5 134.9C167.4 135.3 167.5 134.9 167.6 134.8C167.7 134.6 167.8 134.4 168 134.2C168.1 134 168.3 133.8 168.5 133.6C168.4 133.7 168.3 133.8 168.5 133.6L168.9 133.2C169.1 133 169.3 132.9 169.5 132.8C169.5 132.8 170 132.5 169.7 132.7L170 132.6C170.2 132.5 170.5 132.4 170.7 132.4C171.3 132.3 170.9 132.4 170.7 132.4H171.1C171.2 132.4 171.4 132.4 171.5 132.4C171.6 132.4 170.9 132.3 171.3 132.4C171.9 132.5 170.8 132.2 171.3 132.4C171.8 132.6 170.8 132.1 171.3 132.4C171.8 132.7 170.8 131.9 171.4 132.4C172 132.9 171.1 131.9 171.4 132.4L171.7 132.8C172 133.3 171.5 132.4 171.7 132.9C171.8 133.1 171.9 133.3 172 133.5C172.1 133.7 172.2 133.9 172.2 134.1C172.2 134.3 172.4 134.8 172.3 134.4C172.2 134 172.3 134.6 172.4 134.7C172.5 134.8 172.5 135 172.5 135.2C172.6 135.5 172.6 135.9 172.6 136.2C172.9 137.4 173.9 138.4 175.1 138.6C176.1 138.8 177.2 138.3 177.1 137.1V137.2Z" fill="#101013"/>
<path d="M186.2 142.4C186.1 142.4 185.9 142.4 185.8 142.4H186.4C186.2 142.4 186.1 142.4 185.9 142.3L186.5 142.4C186.4 142.4 186.2 142.3 186.1 142.3L186.7 142.6C186.5 142.5 186.3 142.5 186.2 142.4L186.8 142.7C186.7 142.6 186.5 142.5 186.4 142.4L186.9 142.8C186.8 142.7 186.6 142.6 186.5 142.4L186.9 142.8C186.8 142.6 186.6 142.4 186.5 142.2L186.7 142.6C186.6 142.3 186.5 142 186.4 141.7L186.5 142.1C186.4 141.6 186.4 141.1 186.6 140.6L186.5 141C186.6 140.8 186.6 140.6 186.7 140.4C186.8 140 186.8 139.5 186.5 139.2C185.8 138.2 184.6 137.6 183.4 137.6C183 137.6 182.5 137.7 182.3 138.2C182 139 181.9 139.8 182 140.6C182.1 141.4 182.4 142.2 182.9 142.9C183.6 143.8 184.4 144.4 185.4 144.9C186.4 145.4 187.5 145.6 188.6 145.5C189.1 145.6 189.7 145.3 189.8 144.8C189.9 144.4 189.8 144 189.5 143.8C189.1 143.3 188.7 142.9 188.1 142.6C187.4 142.5 186.8 142.3 186.2 142.4Z" fill="#101013"/>
<path d="M191.1 128.3C191.9 128.5 192.399 129.4 192.199 130.2C192.199 130.3 192.2 130.3 192.1 130.4C191.4 132 189.5 131.2 189.6 129.6C189.6 128.9 190.099 128.3 190.899 128.2C190.899 128.2 191 128.2 191.1 128.3Z" fill="#101013"/>
<path d="M180.4 111.6C177.6 116.8 173.1 120.8 167.7 122.9C164.7 124.1 161.4 124.9 158.2 125.2C155.7 125.4 152.3 125.9 150 124.6C149.1 124.1 147.7 123.4 146.7 123.8C145.7 124.2 146.6 124.9 147.2 125.2C150.7 127 154.6 127.9 158.5 127.6C162.3 127.5 166.1 126.9 169.8 125.7C176.3 123.5 182.1 119.3 185.2 113.1C185.7 112.2 181.1 110.3 180.4 111.6Z" fill="#FFFFFE"/>
<path d="M130.199 122.3C130.599 123.4 129.599 124.3 128.899 125C127.899 126.1 126.699 127 125.499 127.8C124.499 128.5 123.299 128.7 122.199 128.3C120.999 127.7 119.899 127 118.899 126C117.699 125 115.299 122.7 116.999 121C118.499 119.6 120.299 122.3 120.799 123.4C122.599 128.2 119.299 133.2 114.999 135.3C112.699 136.5 110.099 136.9 107.599 136.3C106.999 136.2 106.499 135.9 105.999 135.5C105.999 135.7 105.699 135.2 105.999 135.5C105.999 135.3 106.199 135 106.199 135.1C106.799 134.1 107.799 133.3 108.899 133C109.699 132.8 110.899 133 111.099 133.8C111.399 134.9 110.199 136.2 109.499 136.9C107.299 139 104.499 140.3 101.499 140.5C98.3986 140.7 99.7986 145.4 102.599 145.2C106.999 144.9 111.099 142.8 113.999 139.4C115.499 137.7 116.199 135.4 115.699 133.2C115.099 131 113.399 129.3 111.299 128.6C107.299 127.3 101.699 130.2 101.499 134.8C101.299 140.1 108.199 141.7 112.299 141.2C120.699 140.1 127.999 132.2 125.499 123.5C124.399 119.5 120.699 115.1 116.099 116.1C111.499 117.1 111.199 122.9 113.299 126.3C114.699 128.3 116.499 130 118.499 131.3C120.799 132.9 123.299 133.7 125.999 132.9C128.299 132 130.399 130.6 132.099 128.7C133.899 126.9 135.499 124.5 134.499 121.8C134.199 120.5 132.999 119.6 131.699 119.7C130.599 119.8 129.799 120.9 129.899 122C130.199 122.1 130.199 122.2 130.199 122.3Z" fill="#101013"/>
<path d="M108.2 455.1H71.4C70.2 455.1 69 455.6 68.1 456.3C67.4 456.9 67.6 457.6 68.6 457.6H105.4C106.6 457.6 107.8 457.1 108.7 456.3C109.4 455.8 109.2 455.1 108.2 455.1Z" fill="#101013"/>
<path d="M255.299 450.2H228.999C227.999 450.2 226.699 450.9 226.999 452.1C227.299 453.3 228.899 453.7 229.899 453.7H256.199C257.199 453.7 258.399 453 258.199 451.8C257.999 450.6 256.399 450.2 255.299 450.2Z" fill="#101013"/>
<path d="M401.099 431C401.099 431 412.799 450.7 409.099 452C405.399 453.3 392.799 439.6 392.799 438.4C392.799 437.2 401.099 431 401.099 431Z" fill="#101013"/>
<path d="M398.9 431.4C400.4 433.9 401.8 436.5 403.1 439.1C404.1 441.2 405.1 443.1 405.9 445.2C406.3 446.1 406.6 447.1 406.9 448.1C407 448.5 407.1 448.9 407.2 449.2C407.2 449.4 407.3 449.6 407.3 449.8C407.3 449.9 407.4 450.5 407.3 450.2C407.2 449.9 407.3 450.4 407.3 450.4C407.3 450.4 407.2 450.7 407.2 450.8C407.3 450.7 407.2 451.1 407.2 450.8C407.3 450.7 407 451.2 407.2 450.8C407.4 450.7 407.6 450.6 407.8 450.6C407.5 450.7 408.5 450.6 407.9 450.6C408.8 450.6 408.3 450.6 408 450.6C408.9 450.8 408.1 450.6 407.9 450.5C407.3 450.3 408.2 450.7 407.7 450.4C407.5 450.3 407.3 450.2 407.1 450.1C406.6 449.8 406.2 449.5 405.7 449.2C405.4 449 406.1 449.5 405.6 449.1L405.3 448.9L404.7 448.4C404.2 448 403.7 447.6 403.2 447.2C401.3 445.6 399.5 443.8 397.8 441.9L396.8 440.8C397 441.1 396.7 440.6 396.6 440.5L396.1 439.9C395.7 439.4 395.4 438.9 395 438.4C394.8 438.1 395.1 438.7 395 438.5C395 438.5 395.1 438.9 394.9 439C395.1 438.9 395.4 438.3 395.6 438.1C395.4 438.3 395.9 437.8 396 437.7C396.1 437.6 396.5 437.3 396.7 437.1C397.2 436.7 397.7 436.2 398.2 435.8C399.7 434.6 401.2 433.4 402.8 432.3C403.7 431.6 403.1 430.5 402.3 430.1C401.2 429.5 399.9 429.5 398.8 430.1C397.3 431.2 395.9 432.3 394.5 433.4C393.5 434.2 392.5 435 391.6 435.9C391 436.5 390.1 437.2 390 438.1C390 438.8 390.3 439.4 390.8 439.9C391.4 440.7 392.1 441.5 392.8 442.3C394.5 444.3 396.4 446.2 398.4 447.9C400.3 449.7 402.4 451.3 404.7 452.6C406.5 453.6 410 454.8 411.6 452.7C412.6 451.4 412 449.5 411.6 448.1C410.8 445.8 409.9 443.5 408.8 441.4C407.1 437.8 405.2 434.3 403.1 430.8C402.3 429.8 401 429.4 399.8 429.7C399.1 429.6 398.3 430.4 398.9 431.4Z" fill="#101013"/>
<path d="M335.6 432C335.6 434.2 344.1 451 340.7 452.2C337.3 453.4 324.4 443 324.4 435.6C324.4 428.2 335.6 432 335.6 432Z" fill="#101013"/>
<path d="M333.999 430.8C334.199 432.4 334.599 433.9 335.299 435.4C336.099 437.5 336.999 439.5 337.799 441.6C338.199 442.7 338.599 443.8 338.999 444.9C339.199 445.4 339.299 445.9 339.499 446.4C339.599 446.6 339.599 446.9 339.699 447.1L339.799 447.5C339.899 447.9 339.699 447.2 339.799 447.5C339.899 447.8 339.999 448.4 339.999 448.8C339.999 449 339.999 449.2 339.999 449.3C339.999 448.8 339.999 449.2 339.999 449.4C339.999 449.6 339.999 449.6 339.999 449.4C339.999 449.5 339.899 449.7 339.899 449.8C340.099 449.3 339.999 449.8 339.899 449.8C340.199 449.7 339.799 449.8 339.899 449.8C339.599 449.9 339.799 449.8 339.799 449.8H339.399H338.899C338.799 449.8 338.699 449.7 338.599 449.7C338.199 449.6 337.799 449.4 337.399 449.2C336.999 449 336.399 448.7 336.299 448.6C334.199 447.3 332.199 445.7 330.499 444C329.599 443.1 328.799 442.2 328.099 441.2C327.699 440.7 327.399 440.2 327.099 439.7C327.399 440.2 326.999 439.5 326.899 439.3C326.699 439 326.599 438.6 326.499 438.3C326.699 438.8 326.499 438.1 326.399 438C326.299 437.9 326.199 437.2 326.299 437.7C326.299 437.5 326.199 437.2 326.199 437C326.199 436.9 326.199 436.6 326.199 437C326.199 436.8 326.199 436.6 326.199 436.4C326.199 436 326.299 435.6 326.499 435.3C326.399 435.5 326.699 435 326.699 435C326.799 434.8 326.999 434.6 327.199 434.4C328.499 433.3 330.799 433.3 332.599 433.5C333.799 433.6 334.899 433.8 336.099 434.2C337.199 434.6 337.499 433.5 337.299 432.6C337.199 431.6 336.399 430.1 335.399 429.7C332.499 428.7 328.399 428 325.499 429.5C323.099 430.8 322.599 433.6 322.999 436C323.599 439 324.899 441.9 326.899 444.3C328.799 446.8 331.099 449.1 333.599 451C335.499 452.6 337.699 453.8 339.999 454.4C344.999 455.4 342.699 447.9 341.999 445.5C341.099 442.7 339.999 440.1 338.999 437.4C338.599 436.3 338.099 435.2 337.699 434.1C337.599 433.7 337.399 433.3 337.299 432.9C337.199 432.5 337.199 432.5 337.299 433C337.299 432.8 337.299 432.3 337.299 433.1C337.299 431.9 336.699 430.7 335.799 429.9C334.899 429.4 333.999 429.7 333.999 430.8Z" fill="#101013"/>
<path d="M439.399 406.1C435.899 403.4 433.399 399.6 432.399 395.2C432.399 395.2 445.299 400.5 451.499 398.4C457.699 396.3 458.499 385.5 456.199 384C453.899 382.5 412.999 383.4 409.199 382.8C405.399 382.2 395.999 374.6 393.099 376.6C390.199 378.6 395.999 391.9 393.999 395.1C391.999 398.3 363.199 403.3 344.099 402.7C324.999 402.1 320.899 400.9 318.799 411.8C317.499 418.2 317.899 424.7 319.999 430.9C319.999 430.9 310.899 440.9 308.499 442.9C306.099 444.9 304.299 451.8 306.999 452.3C309.699 452.8 315.799 446.4 316.699 446C317.599 445.6 335.699 437.7 339.299 437.7C342.899 437.7 387.299 431.6 387.299 431.6C387.299 431.6 378.999 442.3 378.299 445.5C377.599 448.7 377.599 454.5 380.499 453.5C383.399 452.5 406.099 431.1 416.499 420.1C426.899 409.1 443.599 411.3 439.399 406.1Z" fill="#101013"/>
<path d="M439.4 404L439.2 403.9C439.9 404.4 439.2 403.9 439 403.7C438.4 403.2 437.9 402.7 437.4 402.1C435.8 400.3 434.6 398.1 434.1 395.7L432.9 397.4C435.7 398.5 438.6 399.5 441.6 400.2C445.5 401.1 451 402.3 454.6 399.7C457.9 397.3 459.4 392.6 459.2 388.6C459.1 385.8 458 382.1 454.8 381.6C452.3 381.3 449.8 381.1 447.3 381.1C443.5 381 439.7 381 435.9 380.9C428.4 380.9 420.9 380.9 413.4 380.8C412.2 380.8 411.1 380.8 409.9 380.7L408.9 380.6C408.7 380.6 408.3 380.5 408.9 380.6C408.6 380.5 408.3 380.5 408 380.4C406.1 379.7 404.3 378.8 402.6 377.7C400.7 376.6 398.6 375.5 396.6 374.7C395.2 374.2 393.2 373.6 391.9 374.6C390.6 375.6 390.6 377.4 390.7 378.8C390.9 383 392.5 387 392.8 391.2C392.8 390.8 392.8 391.6 392.8 391.5C392.8 391.7 392.8 391.9 392.8 392.1C392.8 392.3 392.8 392.4 392.8 392.5C392.8 393.1 392.9 392.2 392.8 392.7C392.8 392.9 392.7 393.1 392.6 393.3C392.6 393.4 392.5 393.4 392.5 393.5C392.8 393.3 392.3 393.7 392.5 393.5C391.6 394.1 390.6 394.6 389.5 394.9C385.6 396.2 381.6 397.1 377.6 397.7C366.7 399.7 355.6 400.7 344.5 400.6C339.4 400.5 334.2 400.1 329 400.2C326.2 400.3 323 400.6 320.8 402.5C318.3 404.7 317.6 408.2 317.1 411.3C316.1 416.9 316.4 422.6 317.7 428.2C317.9 429.2 318.2 430.2 318.6 431.1V429.1C316.1 431.9 313.5 434.6 310.9 437.4C310.1 438.2 309.3 439.1 308.5 439.9C307.7 440.7 307.4 440.9 306.8 441.6C305.1 443.7 304.1 446.3 304.1 449.1C304.1 451.6 305.7 455.3 308.7 454.8C311.1 454.4 313.2 452.5 314.9 451C315.9 449.9 317.1 449 318.4 448.2C319.8 447.6 321.2 447 322.6 446.4C327.1 444.5 331.7 442.6 336.3 441.1C338.5 440.5 340.7 440.1 342.9 440C351.2 439.1 359.4 438 367.7 436.9L380.7 435C383.1 434.7 385.5 434.5 387.9 434H388.3L385.9 429.8C384.3 431.9 382.7 434.1 381.2 436.2C379.3 438.9 377 441.9 376.5 445.3C376.1 447.5 376.2 449.9 376.8 452.1C377.4 453.9 379 456.4 381.2 456C382 455.8 382.7 455.4 383.3 454.9C384.3 454.1 385.3 453.3 386.3 452.5C392.9 446.9 399.2 440.9 405.4 434.9C408.7 431.7 412 428.5 415.2 425.2C416.7 423.7 418.1 422.1 419.7 420.7C421.7 419.1 423.8 417.7 426.1 416.6C430.1 414.6 434.5 413.6 438.6 412.1C439.8 411.8 440.8 411.1 441.5 410.1C442.5 408.4 441.4 406.2 440.3 404.9C439.8 404.3 438.7 403.4 437.9 404.2C437.1 405 438 406.7 438.5 407.4C438.9 407.9 438.5 407.3 438.4 407.1C438.5 407.4 438.3 406.5 438.3 406.7C438.3 405.6 438.3 406.6 438.3 406.5C438.4 406.6 438.4 406.3 438.3 406.5C438.3 406.6 438.2 406.6 438.2 406.7C438.4 406.6 437.9 406.9 438.2 406.7C437.2 407.4 436.2 407.8 435 408.1C431.4 409.1 427.9 410.4 424.4 411.9C420.4 413.8 416.7 416.5 413.7 419.8C410.9 422.7 408.1 425.5 405.3 428.2C399.3 434.1 393.2 439.9 387 445.4C385 447.2 383 449 380.8 450.6C380.5 450.8 380.2 451.1 379.9 451.2L379.3 451.5C378.9 451.7 379.1 451.4 379.4 451.7L379.8 452.3C379.7 452.1 379.7 452.1 379.8 452.3C379.8 452.3 379.7 451.8 379.8 452.2C379.7 451.3 379.6 450.4 379.7 449.6C379.7 448.1 380.1 446.7 380.8 445.4C381.8 443.7 382.8 442.1 383.9 440.5C385.5 438.2 387.1 435.9 388.9 433.7C389.9 432.5 388.1 429.3 386.5 429.5L370.4 431.7C361.8 432.8 353.2 434 344.5 435C342.4 435.2 340.3 435.5 338.2 435.6C336.5 435.8 334.9 436.2 333.3 436.8C331 437.6 328.8 438.4 326.6 439.3C323 440.7 319.4 442.2 315.8 443.8C314.7 444.4 313.6 445.3 312.8 446.2C311.2 447.6 309.1 449.7 306.9 450.2C306.8 450.2 306.7 450.2 306.5 450.2C306.1 450.3 306.3 450.1 306.3 450.2C306.5 450.4 306.7 450.5 306.8 450.7C306.9 450.9 307.1 451.5 307.2 451.6C307.1 451.5 307.2 451.4 307.2 451.1C307.2 449.9 307.5 448.7 308 447.7C308.8 445.8 310.1 444.8 311.5 443.4C314.6 440.3 317.6 437 320.6 433.8C320.8 433.6 321.1 433.3 321.3 433.1C321.7 432.6 321.5 431.6 321.3 431.1L321.1 430.5C321 430.2 320.9 430 320.9 429.7C321.1 430.3 320.8 429.1 320.7 429C320.2 426.9 319.9 424.8 319.8 422.6C319.6 418.3 319.8 412.8 321.7 409.1C322.7 407 324.7 405.6 326.9 405.3C330.9 404.6 335 405 339 405.1C344.5 405.3 349.9 405.4 355.4 405.1C360.9 404.8 366.4 404.3 371.8 403.5C376.6 402.8 381.3 402 386 400.9C388.7 400.3 392 399.7 394.3 398.1C396.9 396.4 395.9 392.3 395.4 389.8C395 387.8 394.5 385.8 394.2 383.9C394.1 383.2 393.8 381.9 393.8 381.5C393.8 381.1 393.8 380.8 393.8 380.4C393.8 380.1 393.8 379.8 393.9 379.5C394 379.2 394 378.9 394.4 378.9C394.9 378.8 395.5 378.9 396 379C397.9 379.6 399.8 380.5 401.5 381.5C404.3 383 407.2 385.1 410.5 385.4C416.2 385.8 422 385.6 427.8 385.6C435.3 385.6 442.7 385.6 450.2 385.8C451.4 385.8 452.7 385.9 453.9 386C454.4 386 454.8 386.1 455.3 386.1C455.8 386.1 454.9 386 455.3 386.1H455.5L456 386.2C456.1 386.2 456.2 386.3 456.3 386.3C456.4 386.3 456.7 386.7 456 386.2C456.1 386.3 455.5 385.7 455.5 385.7C455.7 386 455.1 385 455.3 385.4C455.5 385.8 455.2 385 455.3 385.5C455.3 385.7 455.4 385.9 455.4 386.1C455.5 386.7 455.4 385.7 455.4 386.4C455.4 386.6 455.4 386.9 455.4 387.1C455.4 387.5 455.4 387.9 455.3 388.3C455.2 389.2 455 390.2 454.7 391.1C454.2 392.9 453.2 394.4 451.8 395.6C450.2 396.7 448.2 397.1 446.3 396.9C442.1 396.6 438 395.6 434.1 394.1C433.3 393.8 432.6 393.6 431.8 393.2C430.7 392.7 430.4 394.2 430.6 394.9C431.8 400.3 434.9 405.1 439.3 408.3C440.2 408.9 441 408.3 441.1 407.3C441.1 405.8 440.4 404.7 439.4 404Z" fill="#101013"/>
<path d="M455.1 390.8C457.917 390.8 460.2 388.696 460.2 386.1C460.2 383.505 457.917 381.4 455.1 381.4C452.283 381.4 450 383.505 450 386.1C450 388.696 452.283 390.8 455.1 390.8Z" fill="#101013"/>
<path d="M448.2 385.1C448.4 388.3 450.4 391.1 453.3 392.3C455.7 393.4 458.5 392.9 460.4 391.1C462.5 388.8 462.2 385.6 460.6 383.1C459.1 380.5 456.2 379 453.2 379.3C450.4 379.6 448.3 381.9 448.1 384.7C448.1 385.9 448.7 387.1 449.6 387.8C450 388.1 450.4 388.3 450.9 388.3C451.3 388.2 451.6 387.9 451.6 387.5C451.6 387.3 451.6 387.1 451.6 386.8C451.6 386.7 451.6 386.6 451.7 386.5C451.8 386.4 451.8 386.1 451.7 386.5C451.8 386.1 452.1 385.7 452.3 385.4L452.5 385.1C452.5 385.2 452.3 385.3 452.5 385.1C452.7 384.9 452.8 384.8 453 384.7C453.4 384.4 453.8 384.2 454.2 384C454.6 383.8 454.1 384 454.3 384L454.6 383.9C454.8 383.9 455.1 383.8 455.3 383.8H456C456.1 383.8 456.4 383.8 456.1 383.8L456.5 383.9C456.7 383.9 457 384 457.2 384.1L457.6 384.3L457.8 384.4L458 384.6C458.2 384.8 458.2 384.9 458 384.5C458.1 384.6 458.1 384.7 458.2 384.7C458.4 384.9 458.3 385 458.1 384.5C458.1 384.6 458.2 384.6 458.2 384.7C458.5 385.1 457.9 384.1 458.1 384.6C458.1 384.7 458.2 384.8 458.2 384.8C457.9 384.4 458.1 384.4 458.1 384.7C458.1 385 458 384.8 458.1 384.6C458.1 384.7 458.1 384.9 458.1 385C458.1 385 458.1 385.5 458.1 385.2C458.1 384.9 458.1 385.3 458.1 385.4C458.1 385.6 458 385.8 458 386C458 386.2 457.9 386.4 458 386L457.9 386.2C457.8 386.4 457.7 386.7 457.5 386.9C457.4 387.1 457.3 387.3 457.1 387.4C457.3 387.2 456.9 387.6 456.8 387.6C456.4 387.9 456 388.2 455.6 388.4L455.4 388.5C455 388.7 455.6 388.5 455.2 388.6C455 388.7 454.8 388.7 454.6 388.7C454.4 388.7 454.2 388.8 454 388.8H453.5C453.2 388.8 453.7 388.8 453.3 388.8C452.9 388.8 452.8 388.7 452.5 388.6C452.2 388.5 452.3 388.5 452.2 388.5C452.6 388.6 452.2 388.5 452.1 388.5L451.9 388.4L451.7 388.3L451.8 388.4L451.6 388.2C451.4 388 451.4 387.9 451.7 388.3C451.6 388.2 451.6 388.1 451.5 388.1C451.1 387.7 451.8 388.6 451.5 388.2C451.5 388.1 451.4 388 451.4 388C451.9 388.6 451.6 388.3 451.5 388.1C451.3 387.7 451.6 388.6 451.5 388.2V388.1C451.4 387.9 451.5 387.9 451.5 388.3C451.5 388 451.5 387.8 451.4 387.5C451.3 386.9 451.1 386.3 450.7 385.8C450.4 385.3 449.9 384.9 449.4 384.6C449 384.4 448.6 384.3 448.2 384.5C448.2 384.3 448.2 384.8 448.2 385.1Z" fill="#101013"/>
<path d="M313.1 391.5C313.3 400.9 318.3 409.5 326.3 414.4C327.4 414.9 328.7 414.7 329.7 414C330.4 413.5 331.1 412.5 330.1 411.9C322.8 407.5 318.2 399.6 318 391C318 389.9 316.8 389.7 315.9 389.8C315.1 389.8 313.1 390.4 313.1 391.5Z" fill="#101013"/>
<path d="M422.5 387.6C423.3 387.8 423.8 388.7 423.6 389.5C423.6 389.6 423.6 389.6 423.5 389.7C422.8 391.3 420.9 390.5 421 388.9C421 388.2 421.5 387.6 422.3 387.5C422.3 387.6 422.4 387.6 422.5 387.6Z" fill="#FFFFFE"/>
<path d="M448.099 384.5C447.699 385 447.399 385.6 447.299 386.3C447.199 386.8 447.299 387.3 447.399 387.7C447.599 388.3 447.899 388.9 448.299 389.5C448.599 389.9 448.999 390.3 449.399 390.6C450.199 391.1 450.999 391.5 451.899 391.7C452.799 391.9 453.599 392.1 454.499 392.3C455.099 392.5 455.799 392.4 456.399 392.2C456.999 392 457.399 391.5 457.699 391C457.899 390.5 457.899 389.9 457.699 389.3C457.399 388.8 456.899 388.4 456.399 388.2L454.299 387.7C453.699 387.6 453.099 387.4 452.599 387.1L453.099 387.4C452.799 387.3 452.499 387.1 452.199 386.9L452.699 387.3C452.499 387.1 452.299 387 452.199 386.7L452.499 387.2C452.399 387 452.199 386.8 452.199 386.5L452.399 387.1C452.299 386.9 452.299 386.7 452.299 386.5V387.1C452.299 386.9 452.299 386.7 452.399 386.5L452.199 387C452.199 386.9 452.299 386.7 452.399 386.6L452.099 387.1V387C452.499 386.5 452.699 386 452.599 385.4C452.499 384.8 452.099 384.3 451.599 384C451.099 383.7 450.399 383.5 449.799 383.6C449.099 383.7 448.499 384.1 448.099 384.5Z" fill="#FFFFFE"/>
<path d="M400.2 442.5C401.2 442 402.1 441.3 403 440.6C403.9 439.9 404.6 439.1 405.4 438.3C405.8 437.9 406 437.5 406.1 436.9C406.1 436.4 405.8 436 405.3 435.8C404.8 435.6 404.2 435.6 403.6 435.7C403 435.9 402.4 436.2 401.9 436.7C401.3 437.4 400.7 438 400 438.6L400.5 438.2C399.8 438.8 399.1 439.3 398.3 439.7L398.9 439.4H398.8C398.2 439.7 397.8 440.1 397.4 440.6C397.1 441 397 441.5 397.2 442C397.4 442.4 397.9 442.7 398.4 442.8C399 442.9 399.7 442.8 400.2 442.5Z" fill="#FFFFFE"/>
<path d="M326.3 443.8C330.7 443.9 335.1 443.2 339.3 441.7C339.6 441.6 339 441.5 339 441.5C338.5 441.5 338 441.5 337.5 441.5C336.5 441.5 335.5 441.7 334.5 442C333.9 442.2 333.3 442.4 332.7 442.6C332.4 442.7 332.1 442.8 331.8 442.8C331.7 442.8 331.7 442.8 331.8 442.8L331.6 442.9L331.1 443L330.7 443.1C331.1 443 330.7 443.1 330.6 443.1C330 443.2 331.1 443 330.5 443.1C330.3 443.1 329.8 443.1 330.5 443.1C330.5 443.1 329.7 443.2 330.4 443.1H329.7C329.9 443.1 329.9 443.1 329.7 443.1C328.5 443.1 327.3 443.2 326.2 443.4C326.1 443.4 325.5 443.5 325.5 443.7C325.5 443.9 326.4 443.8 326.3 443.8Z" fill="#FFFFFE"/>
<path d="M421.799 418.8C421.899 418.6 421.699 419 421.599 419.2C421.299 419.6 420.999 419.9 420.699 420.3C420.599 420.4 420.499 420.5 420.399 420.6C420.199 420.7 420.099 420.8 420.199 420.8L419.699 421.1L419.499 421.2C419.899 421.1 419.299 421.3 419.499 421.2C419.299 421.3 418.999 421.4 419.599 421.2C419.399 421.3 418.999 421.4 419.799 421.2C419.199 421.4 420.799 421 420.299 421.1C419.799 421.2 420.999 421 420.499 421.1C420.399 421.1 420.099 421.1 420.699 421.1H420.499C420.499 421 420.299 421.1 419.999 421.1C416.999 420.9 413.899 419.2 411.299 417.4C405.999 413.8 401.499 409 397.299 404.2C393.099 399.4 389.399 394.1 385.199 389.2C381.799 385.2 378.199 381.4 374.599 377.6C365.999 368.7 356.899 360.5 347.099 352.9C342.499 349.3 337.599 345.9 332.499 342.9C328.299 340.3 323.799 338.2 319.099 336.7C314.999 335.4 310.599 335.2 306.399 336C304.299 336.4 302.299 337.2 300.499 338.3C298.499 339.7 296.899 341.5 295.699 343.6C292.999 347.8 290.899 353.5 292.799 358.4C293.399 360 294.499 361.4 295.899 362.3C297.899 363.4 300.299 363 302.399 362.5C304.599 362.1 306.499 360.8 307.799 359.1C309.399 356.8 310.299 354.1 310.699 351.3C311.499 346 310.899 340.6 309.099 335.6C304.899 322.9 296.299 311.6 286.899 302.3C276.699 292.3 264.299 283.7 250.399 279.8C247.299 278.9 244.099 278.3 240.799 278C239.599 278 238.499 278.2 237.399 278.5C237.099 278.6 235.599 279.2 236.599 279.3C250.399 280.6 263.299 287.6 273.999 296.2C284.699 304.8 294.299 315.8 300.599 328.1C303.199 333 304.999 338.4 305.899 343.9C306.599 349 306.099 355.2 303.199 359.5C302.699 360.3 301.999 361 301.199 361.6C301.099 361.7 300.899 361.8 300.799 361.9C300.699 362 300.599 362 300.699 361.9C301.299 361.8 301.899 361.7 302.399 361.5C302.599 361.6 302.399 361.5 302.299 361.5C300.899 361.2 299.599 360.4 298.699 359.2C295.899 355.4 296.699 350.2 298.499 346.2C299.699 343.4 301.399 340.8 303.599 338.7C304.099 338.2 304.699 337.7 305.399 337.4C305.599 337.3 305.799 337.2 305.899 337.1L306.099 337C306.199 337 306.799 336.7 306.299 336.9L306.599 336.8C306.999 336.7 306.499 336.8 306.499 336.8L306.799 336.7C306.199 336.9 306.399 336.8 306.599 336.7C306.799 336.6 307.099 336.6 306.399 336.7C306.499 336.7 306.599 336.7 306.699 336.7C306.399 336.6 306.499 336.7 306.799 336.7C307.099 336.7 306.499 336.7 306.799 336.7H307.199C307.999 336.7 308.799 336.7 309.599 336.8C311.599 337 313.499 337.5 315.399 338.2C325.499 341.6 334.599 348.1 342.899 354.6C352.499 362.1 361.499 370.3 369.899 379.1C373.399 382.7 376.899 386.5 380.199 390.4C384.199 395.2 387.899 400.2 391.899 405C395.899 409.9 400.499 414.3 405.599 418.2C408.299 420.3 411.399 421.7 414.699 422.4C417.699 422.8 420.799 422.3 423.499 420.9C424.499 420.4 425.399 419.6 425.999 418.7C426.099 418.5 426.199 418.3 426.299 418.2C426.399 418 423.899 418.3 423.799 418.3C423.599 418 422.099 418.1 421.799 418.8Z" fill="#68BA7F"/>
<path d="M176.8 265.2L205.7 273.1C205.7 273.1 204.5 275 207.9 279.4C210 282 213.2 283.5 216.6 283.4C217.9 290.7 228.5 287.8 233.6 283.5C238.7 279.2 238.3 275.3 238.3 275.3C238.3 275.3 244.7 280.3 246.9 285.8C249.1 291.3 254.7 292.5 256.9 287.6C259.1 282.7 254 271.4 239.9 263.9C239.9 263.9 190.2 242.8 183.6 237.2C177 231.6 180.9 165.4 159 172.8C143.2 178.2 143.9 217.9 152.8 242.8C156.7 253.8 165.7 262.1 176.8 265.2Z" fill="#FFFFFE"/>
<path d="M175.6 266.3L200.8 273.2L204.4 274.2L203.3 272.8C203 273.5 202.9 274.3 203.1 275.1C203.7 277.5 205 279.6 206.8 281.2C209.5 283.6 213 284.9 216.6 284.7L214.1 283.4C215.1 288.8 221 289.7 225.7 288.8C231.1 287.8 236.6 284.8 239.5 280C240.4 278.6 240.9 277 240.9 275.3L236.3 275.9C238.2 277.4 239.8 279 241.4 280.9C242.7 282.4 243.8 284.1 244.6 285.9C245.2 287.6 246.3 289 247.6 290.2C250.4 292.4 254.8 292.8 257.6 290.5C259.4 288.9 260.3 286.6 260 284.2C259.4 278.2 254.9 272.8 250.6 269C247.4 266.2 243.8 263.9 240 262.3C231.6 258.7 223.2 255 214.9 251.3C209.7 249 204.6 246.6 199.5 244.1C195.7 242.2 191.8 240.4 188.1 238.2L187.2 237.6C186.9 237.4 187.5 237.8 187.1 237.5L186.7 237.3C186.5 237.2 186.3 237 186.1 236.9C185.9 236.8 185.6 236.4 185.8 236.6C186 236.8 185.7 236.4 185.6 236.3C185.5 236.1 185.3 235.8 185.2 235.6C185 235.1 184.8 234.5 184.6 234C184.2 232.6 183.9 231.1 183.6 229.7C183.2 227.8 183 225.8 182.7 223.8C181.4 214 180.6 204.2 178.7 194.5C177.9 190 176.6 185.5 174.9 181.2C173.5 178 171.6 174.8 168.6 172.8C165.2 170.9 161.1 170.6 157.4 172.1C152.7 173.9 149.7 178 147.8 182.5C145.4 188.3 144.6 194.6 144.3 200.8C144 208.1 144.4 215.3 145.5 222.5C146.5 229.7 148.2 236.7 150.6 243.5C153.3 250.9 158.4 257.3 165.1 261.6C168.3 263.6 171.9 265.2 175.6 266.3C176.6 266.6 178.3 266.6 179.1 265.8C179.9 265 179 264.3 178.2 264.1C171 262.1 164.7 257.7 160.2 251.7C156 245.9 153.9 238.9 152.3 232C149.2 218.8 147.9 204.5 150.3 191.1C151.2 186.2 152.7 181 156 177.1C156.7 176.3 157.5 175.6 158.3 175C158.6 174.8 159 174.6 159.3 174.4L159.9 174.1C160 174 160.2 173.9 160.4 173.9L160.9 173.7C161 173.7 161.7 173.5 161.3 173.6C160.9 173.7 161.5 173.6 161.6 173.6L162.2 173.5C162.3 173.5 161.6 173.5 162.2 173.5H162.8C161.8 173.5 163.7 173.7 162.9 173.5C163.2 173.6 163.5 173.7 163.8 173.8C164 173.9 164.2 174 164.3 174.1L164.7 174.4L164.8 174.5C165.1 174.7 165.4 174.9 165.7 175.2C166.8 176.2 167.8 177.4 168.5 178.8C170.4 182.4 171.8 186.2 172.6 190.1C174.9 199.5 175.8 209.1 177 218.6C177.5 222.5 177.9 226.5 178.7 230.4C179.1 232.7 179.6 235.5 181 237.4C181.8 238.3 182.8 239.1 183.9 239.6C185.3 240.5 186.8 241.3 188.3 242.1C192.5 244.3 196.8 246.4 201.2 248.4C210.6 252.8 220.2 257.1 229.8 261.2C232.4 262.3 235 263.5 237.7 264.6C242.5 266.8 246.7 270.1 250.1 274.1C252.7 277.2 256.2 282.7 254.9 286.9C254.6 288 253.8 288.9 252.8 289.5C252.9 289.5 253 289.5 253.1 289.5C253 289.4 252.9 289.4 253 289.5C253.1 289.6 253.4 289.6 253.1 289.5C252.8 289.4 253.3 289.6 252.9 289.4C252.3 289.1 251.7 288.7 251.3 288.2C250.1 286.9 249.6 285.1 248.8 283.6C247.8 282 246.7 280.5 245.5 279.1C244.1 277.5 242.6 276 240.9 274.7C240.1 274.1 239.1 273.9 238.1 274.1C237.5 274.2 236.2 274.5 236.3 275.3C236.3 276.7 235.9 278.1 235.1 279.3C233.5 281.7 231.3 283.7 228.7 284.9C227.6 285.5 226.5 285.9 225.3 286.2C224.4 286.5 223.5 286.6 222.6 286.5C223.1 286.5 222.4 286.5 222.3 286.5H222.2L221.8 286.4C222.1 286.5 221.5 286.3 221.5 286.3C221.1 286 221.6 286.4 221.2 286.1C220.4 285.4 219.9 284.5 219.7 283.5C219.5 282.5 218.1 282.2 217.2 282.3H216C215.5 282.3 216.4 282.4 215.8 282.3C215.6 282.3 214.9 282.2 215.2 282.2C213.6 281.9 212 281 210.9 279.8C209.5 278.5 208.6 276.9 208.1 275C208 274.6 208 274.1 208.1 273.7C208.1 273.5 208.1 274 208.1 273.6C208.1 273.6 208.1 273.5 208.2 273.5C208.6 272.8 207.6 272.2 207 272.1L181.8 265.2L178.2 264.2C177.2 263.9 175.6 263.8 174.8 264.7C174 265.6 174.8 266.1 175.6 266.3Z" fill="#101013"/>
<path d="M228.2 277.4C225.5 281.1 221.2 283.3 216.6 283.4Z" fill="#FFFFFE"/>
<path d="M226.3 275.7C225.6 276.8 224.7 277.7 223.6 278.5L223.3 278.7C223.7 278.4 223.2 278.7 223.2 278.8C222.9 279 222.6 279.2 222.3 279.3C221.7 279.7 221 280 220.4 280.3C220 280.4 219.7 280.6 219.3 280.7L218.7 280.9L218.4 281C217.5 281.2 216.5 281.3 215.6 281.4C214.4 281.5 214.4 282.8 214.8 283.6C215.4 284.7 216.5 285.4 217.7 285.5C222.2 285.3 226.5 283.3 229.5 279.9C229.7 279.7 229.9 279.4 230.1 279.2C230.6 278.2 230.2 277 229.3 276.3C228.9 275.9 228.3 275.6 227.7 275.5C227.2 275.4 226.6 275.4 226.3 275.7Z" fill="#101013"/>
<path d="M205.699 273.1C205.699 273.1 204.899 263.9 212.599 265.5C217.999 266.6 214.399 274.2 214.399 274.2" fill="#FFFFFE"/>
<path d="M206.8 275.3C206.7 273.7 206.9 272.2 207.4 270.7L207.3 270.8C207.7 269.7 208.5 268.8 209.5 268.2C210.9 267.5 212.6 267.4 214.1 268H214C214.4 268.1 214.8 268.3 215.1 268.6L215.3 268.8C215.5 268.9 215.2 268.6 215.3 268.8C215.6 269.2 215.4 269 215.3 268.8C215.4 269 215.4 268.9 215.2 268.6C215 268.3 214.9 268 214.7 267.7C214.6 267.5 214.5 267.2 214.4 267L214.3 266.9C214.2 266.5 214.1 266.4 214.2 266.6C214.3 266.8 214.2 266.7 214.2 266.4C214.2 266.5 214.3 266.8 214.3 266.9C214.3 266.6 214.3 266.9 214.3 267C214.3 267.1 214.3 267.2 214.3 267.3C214.3 267.5 214.3 267.7 214.3 267.8C214.2 269.1 213.9 270.4 213.4 271.6V271.5C213.3 271.7 213.3 271.9 213.2 272.1C213.1 272.4 213.2 272.6 213.3 272.9C213.5 273.5 213.7 274 214 274.5C214.3 275 214.6 275.5 214.9 276C214.9 276.1 215.4 276.7 215.5 276.5C216 275.4 216.4 274.2 216.6 273C216.8 272 216.8 271 216.5 270C216.2 268.8 215.7 267.6 215.1 266.5C214.7 265.6 214.1 264.9 213.4 264.2C212.4 263.5 211.3 263.1 210.1 263.2C209.1 263.1 208.1 263.3 207.2 263.8C205.8 264.8 204.9 266.2 204.7 267.9C204.5 268.9 204.4 270 204.5 271.1C204.7 272.1 205.1 273.1 205.6 274C205.8 274.4 206.1 274.9 206.4 275.3C206.5 275.2 206.9 275.6 206.8 275.3Z" fill="#101013"/>
<path d="M216.5 268C210.2 267.3 204.2 271 200.9 276.1C197.7 281 196.4 287.2 195.7 292.9C194.4 303.9 196.4 315.5 204.6 323.4C206.9 325.6 209.6 327.7 211.2 330.6C212.5 333.1 213.3 336.6 211.3 338.9C210.7 339.7 211.1 340.3 212 340.4C213.2 340.3 214.4 339.8 215.2 338.9C218.7 334.6 216.7 329.1 213.4 325.4C211.5 323.2 209.1 321.5 207.2 319.3C205.6 317.4 204.2 315.4 203.1 313.1C198.6 303.6 199.2 292.1 202.1 282.3C203.5 277.4 206.8 270.2 213.1 270.9C214.3 271 215.5 270.6 216.4 269.8C216.8 269.4 217.7 268.1 216.5 268Z" fill="#68BA7F"/>
<path d="M338.9 456.6H380.1C381.1 456.6 381.2 455.9 380.6 455.3C379.6 454.5 378.5 454.1 377.2 454.1H336C335 454.1 334.9 454.8 335.6 455.4C336.5 456.2 337.7 456.6 338.9 456.6Z" fill="#101013"/>
</svg>
