<svg width="500" height="500" viewBox="0 0 500 500" fill="none" xmlns="http://www.w3.org/2000/svg">
<path d="M406.099 321.6C354.399 294 282.599 335 282.599 335C271.499 314.5 184.999 274.4 121.699 301.1C58.3988 327.8 37.8988 377.8 88.6988 422.6C139.499 467.4 227.999 416.5 227.999 416.5C227.999 416.5 303.599 471.3 377.599 435.7C451.599 400.1 457.799 349.3 406.099 321.6ZM135.099 387.3C98.5988 368.9 145.799 331 179.699 330.8C213.599 330.6 260.799 350.1 260.799 350.1C260.799 350.1 171.599 405.7 135.099 387.3ZM382.899 387.3C361.499 412.6 291.099 387.3 291.099 387.3C291.099 387.3 334.199 355.2 360.099 353.5C385.999 351.8 404.299 362 382.899 387.3Z" fill="#68BA7F"/>
<path d="M406.299 320.1C386.299 309.5 362.999 308.5 341.099 312.2C323.599 315.3 306.499 320.8 290.499 328.5C287.199 330 283.999 331.6 280.899 333.4L284.799 335.1C282.499 330.9 278.899 327.5 275.199 324.6C269.799 320.4 264.099 316.7 257.999 313.5C242.399 305.2 225.799 299.1 208.599 295.2C189.399 290.8 169.299 289 149.599 291.6C128.999 294.3 109.299 302.7 92.2991 314.5C78.1991 324.3 65.4991 337.4 60.2991 354.1C55.3991 369.8 58.8991 386.4 67.3991 400.2C72.9991 409 79.7991 416.9 87.7991 423.7C94.4991 429.5 102.199 434.1 110.499 437.3C126.499 443.3 143.799 444 160.599 441.7C175.799 439.5 190.599 435.5 204.799 429.8C212.999 426.6 220.999 423 228.799 418.8L229.899 418.2L227.299 417.8C236.499 424.5 246.999 429.8 257.299 434.3C279.599 444.1 303.999 450.2 328.499 449.6C342.999 449.2 357.399 446.4 370.899 441.1C384.899 435.6 397.999 428.2 409.999 419.1C425.699 407.2 441.599 390.1 442.199 369.3C442.799 349.9 429.399 334.4 413.899 324.4C411.399 322.9 408.899 321.5 406.299 320.1C405.599 319.7 404.099 319.6 403.899 320.7C403.699 321.8 405.099 322.8 405.899 323.2C421.399 331.5 436.099 345 437.599 363.5C439.099 382.9 425.499 400 411.499 411.8C400.699 420.8 388.499 428.1 375.799 434.1C362.799 440.3 348.799 444.2 334.399 445.5C310.199 447.7 285.699 442.7 263.399 433.6C251.499 428.9 240.099 422.9 229.399 415.7L228.899 415.4C228.199 414.8 227.199 414.6 226.299 415C221.099 417.9 215.799 420.5 210.399 422.9C197.999 428.5 184.999 432.8 171.699 435.8C156.099 439.3 139.799 440.8 123.999 437.9C115.999 436.5 108.399 433.8 101.299 429.9C93.0991 425.2 86.0991 418.8 79.8991 411.8C69.0991 399.4 61.1991 383.8 62.5991 367C63.9991 351 73.2991 337 85.0991 326.4C92.4991 319.9 100.599 314.3 109.299 309.7C118.299 304.7 127.799 300.9 137.699 298.1C156.299 293.2 175.899 293.2 194.899 296C212.599 298.7 229.799 303.7 246.099 311C252.699 313.9 259.099 317.3 265.299 321.2C269.899 323.9 274.099 327.3 277.799 331.1C278.099 331.4 277.899 331.2 277.799 331.1L278.099 331.4L278.599 332C278.899 332.4 279.199 332.7 279.499 333.1C279.799 333.5 279.999 333.8 280.299 334.2C280.599 334.6 280.099 333.9 280.399 334.4C280.499 334.6 280.599 334.8 280.699 334.9C281.299 336 283.199 337.4 284.599 336.6C293.199 331.9 302.099 327.8 311.299 324.6C330.199 317.7 350.399 313.1 370.699 314C382.999 314.4 395.099 317.5 406.099 323.2C406.899 323.6 408.299 323.7 408.599 322.7C408.899 321.7 407.099 320.5 406.299 320.1Z" fill="#68BA7F"/>
<path d="M135.299 385.8C130.599 383.4 126.499 380.3 124.799 375.5C123.399 371.4 124.299 366.8 126.199 362.9C128.799 358 132.299 353.8 136.599 350.3C141.499 346.2 146.999 342.6 152.799 339.9C158.699 337 164.999 334.9 171.399 333.6C177.999 332.5 184.799 332.4 191.499 333.2C206.499 334.6 221.299 338.4 235.699 342.9C241.299 344.6 246.599 346.4 251.899 348.4C254.599 349.4 257.299 350.6 260.099 351.5L260.499 351.6L258.899 348.4C255.899 350.3 252.899 352 249.899 353.8C242.399 358.1 234.699 362.2 226.899 366C216.999 371 206.799 375.4 196.499 379.3C186.099 383.4 175.299 386.3 164.299 388.2C159.599 389 154.699 389.3 149.899 389.1C147.799 389 145.699 388.8 143.599 388.4C142.499 388.2 141.499 388 140.499 387.7C139.999 387.6 139.499 387.4 139.099 387.3L138.599 387.1L137.999 386.9C137.099 386.6 136.199 386.2 135.299 385.8C134.499 385.4 133.099 385.3 132.899 386.4C132.699 387.5 134.099 388.5 134.899 388.9C143.299 393.1 153.099 393.4 162.299 392.5C173.299 391.4 184.099 388.4 194.499 384.7C205.399 380.9 215.999 376.4 226.299 371.4C234.699 367.4 242.899 363.1 250.999 358.5C253.599 357 256.099 355.6 258.699 354.1C259.899 353.4 261.199 352.7 262.299 351.9L262.499 351.8C263.999 350.9 261.799 348.9 260.899 348.6C253.699 345.6 246.199 343.1 238.799 340.7C223.899 335.9 208.699 331.9 193.199 330C185.999 329.1 178.699 328.6 171.499 329.6C164.699 330.6 158.199 332.5 151.899 335.3C145.699 338 139.899 341.5 134.599 345.7C129.899 349.3 125.799 353.7 122.699 358.8C120.299 363 118.799 368 119.799 372.9C120.999 378.6 125.199 383 129.899 386.2C131.399 387.2 132.999 388.2 134.699 389C135.499 389.4 136.899 389.5 137.099 388.4C137.299 387.3 136.099 386.2 135.299 385.8Z" fill="#68BA7F"/>
<path d="M380.799 385.9C376.499 390.9 370.299 393.7 363.899 395.1C356.499 396.6 348.799 397 341.299 396.4C327.199 395.5 313.199 392.4 299.599 388.4C297.399 387.7 295.299 387.1 293.099 386.4L291.299 385.8C290.499 385.5 291.799 386 291.199 385.8L292.799 389C296.399 386.3 300.199 383.7 303.999 381.2C312.299 375.6 320.999 370.5 329.899 365.8C338.799 361.3 348.299 357 358.299 355.5C363.599 354.8 368.999 354.8 374.399 355.5C376.699 355.8 378.999 356.3 381.199 357C382.099 357.3 382.999 357.7 383.899 358.1L384.499 358.4C384.899 358.6 384.299 358.3 384.699 358.5C385.099 358.7 385.599 359.1 385.999 359.4C386.099 359.5 386.499 359.8 386.199 359.5L386.699 359.9L387.199 360.3C387.299 360.4 387.799 360.9 387.499 360.6C387.799 360.9 387.999 361.2 388.299 361.6C388.399 361.7 388.599 362.1 388.399 361.8C388.499 362 388.599 362.2 388.799 362.4C389.599 363.9 389.999 365.5 389.899 367.2C389.799 372.4 386.999 377.2 384.099 381.3C383.199 383.1 381.999 384.5 380.799 385.9C379.599 387.3 383.599 390.2 384.999 388.7C391.099 381.5 398.799 369.8 391.599 360.7C388.599 356.9 384.099 354.7 379.599 353.4C374.199 351.9 368.599 351.3 362.999 351.5C357.899 351.6 352.699 352.3 347.799 353.7C342.599 355.3 337.499 357.2 332.599 359.5C322.799 364.1 313.299 369.4 304.199 375.4C299.199 378.6 294.099 381.8 289.399 385.5L289.199 385.7C287.899 386.7 289.799 388.5 290.799 388.9C299.299 391.9 307.899 394.3 316.699 396.2C324.599 398 332.599 399.3 340.699 400C348.599 400.8 356.599 400.6 364.499 399.3C372.199 397.9 379.799 394.8 384.999 388.8C386.199 387.2 382.199 384.4 380.799 385.9Z" fill="#68BA7F"/>
<path d="M227.999 421.6C234.299 419.6 240.499 417.3 246.599 414.9C258.999 410.2 270.999 404.6 282.599 398C288.799 394.5 294.599 390.4 299.799 385.6C300.499 384.9 298.6 384.3 298.2 384.2C297.3 384 295.799 383.8 295.099 384.5C285.699 393.3 273.799 399.4 262.299 404.8C251.999 409.6 241.499 413.8 230.799 417.6C228.999 418.2 226.699 419 224.699 419.7C223.799 420 223.699 420.6 224.499 421.1C225.599 421.7 226.799 421.8 227.999 421.6Z" fill="white"/>
<path d="M256.4 352.2L281.9 335.6L285.5 333.2C286.1 332.8 287.1 331.7 286.3 331.1C285.5 330.5 283.9 331.5 283.2 331.9L257.7 348.5L254.1 350.8C253.5 351.2 252.5 352.3 253.3 352.9C254.1 353.5 255.8 352.6 256.4 352.2Z" fill="white"/>
<path d="M96.6003 149.9L93.4003 148.5C97.7003 138.4 97.8003 135.6 97.7003 134.9C96.7003 134.9 93.9003 136.4 92.1003 137.4C88.4003 139.3 84.2003 141.5 80.7003 141.3C79.0003 141.3 77.5003 140.3 76.8003 138.8C74.6003 133.4 84.5003 121.1 87.6003 117.4L90.3003 119.6C84.6003 126.4 79.1003 135.1 80.1003 137.4C80.2003 137.6 80.5003 137.7 81.1003 137.8C83.6003 138 87.5003 136 90.6003 134.3C94.8003 132.1 98.1003 130.3 100.3 132.3C102.5 134.6 100.7 140.5 96.6003 149.9Z" fill="#68BA7F"/>
<path d="M96.8004 150.6L92.7003 148.8L92.9004 148.3C96.5004 139.9 97.1003 136.6 97.2003 135.5C95.5003 136.1 93.9004 136.9 92.3004 137.8C88.5004 139.8 84.3003 142 80.6003 141.7C78.7003 141.7 77.0004 140.6 76.3004 138.9C74.1004 133.4 83.1003 121.8 87.1003 117L87.4004 116.6L90.8004 119.5L90.5004 119.9C84.4004 127.1 79.6004 135.3 80.4004 137.1C80.4004 137.1 80.5004 137.2 81.0004 137.2C83.3004 137.4 87.1003 135.4 90.1003 133.8L90.2003 133.7C94.6003 131.4 98.0004 129.6 100.4 131.8C103.1 134.3 101.3 140.1 97.1003 150L96.8004 150.6ZM94.0004 148.3L96.3004 149.3C100 140.5 101.9 134.7 99.7003 132.7C97.8003 131 94.7003 132.7 90.6003 134.8L90.5004 134.9C87.4004 136.6 83.5004 138.6 80.8004 138.4C80.3004 138.4 79.6004 138.2 79.4004 137.7C78.2004 134.9 84.4004 125.7 89.4004 119.8L87.5004 118.2C81.3004 125.6 75.5003 134.7 77.2003 138.7C77.8003 140.1 79.2003 141 80.7003 140.9C84.0003 141.2 88.1004 139 91.8004 137.1C94.3004 135.8 96.6003 134.6 97.7003 134.6H98.1003L98.2003 135C98.3003 135.8 98.1004 138.8 94.0004 148.3Z" fill="#68BA7F"/>
<path d="M372.801 87.7998L370.601 85.0998C372.901 83.2998 373.301 82.2998 373.401 81.9998C373.101 81.7998 372.201 81.3998 369.301 81.4998C365.501 81.5998 363.301 80.5998 362.701 78.5998C361.701 75.2998 366.001 71.8998 368.601 70.1998C369.601 69.5998 370.001 68.9998 369.901 68.7998C369.801 67.9998 367.801 66.6998 366.201 66.0998L367.401 62.7998C368.301 63.0998 373.001 65.0998 373.401 68.3998C373.601 70.1998 372.601 71.7998 370.501 73.1998C367.201 75.3998 366.101 77.0998 366.001 77.5998C366.201 77.6998 366.901 78.0998 369.201 78.0998C370.801 78.0998 375.601 77.8998 376.701 80.8998C377.501 82.7998 376.201 85.0998 372.801 87.7998Z" fill="#68BA7F"/>
<path d="M372.7 88.5L369.9 85L370.3 84.7C371.3 84 372.1 83.2 372.8 82.2C371.7 81.9 370.5 81.8 369.4 81.9C365.4 82 363 80.9 362.3 78.7C361.2 75.1 365.6 71.5 368.4 69.7C368.8 69.5 369.2 69.1 369.5 68.7C369.5 68.4 367.9 67.1 366.1 66.5L365.6 66.3L367.2 62L367.7 62.2C368.7 62.6 373.6 64.6 374 68.2C374.2 70.2 373.2 71.9 370.9 73.4C369.3 74.3 367.9 75.6 366.8 77.2C367.6 77.4 368.5 77.5 369.3 77.4C371 77.4 376.1 77.2 377.3 80.6C378.1 82.9 376.8 85.4 373.2 88.3L372.7 88.5ZM371.3 85.1L372.9 87.1C375.8 84.7 376.9 82.6 376.3 80.9C375.3 78.2 370.8 78.4 369.3 78.4C367.1 78.4 366.2 78.1 365.8 77.8L365.6 77.6V77.3C365.7 76.4 367.2 74.5 370.3 72.5C372.2 71.2 373.1 69.8 373 68.2C372.7 65.5 369.1 63.8 367.8 63.2L366.9 65.5C368.2 66.1 370.4 67.3 370.5 68.4C370.6 69.1 369.6 69.9 369 70.3C367 71.6 362.3 75.1 363.3 78.2C363.8 80 365.9 80.8 369.4 80.7C372.3 80.6 373.4 81.1 373.8 81.3L374.1 81.5L374 81.9C373.7 82.5 373.2 83.5 371.3 85.1Z" fill="#68BA7F"/>
<path d="M124.5 72.5002C124.3 71.8002 120.7 55.8002 130.5 52.2002L131.7 55.5002C124.9 58.0002 127.9 71.6002 127.9 71.7002L124.5 72.5002Z" fill="#68BA7F"/>
<path d="M124.1 73.1L124 72.6C123.8 71.9 120.1 55.4 130.3 51.7L130.8 51.5L132.3 55.7L131.8 55.9C125.5 58.2 128.3 71.4 128.3 71.5L128.4 72L124.1 73.1ZM130.2 52.8C122.2 56.2 124.3 69.1 124.9 71.8L127.3 71.2C126.8 68.7 125.1 57.8 131 55.1L130.2 52.8Z" fill="#68BA7F"/>
<path d="M343.799 183.4L343.299 179.9C350.099 178.9 352.199 177.9 352.799 177.5C352.099 176.6 349.499 175.2 347.699 174.1C344.299 172.2 340.499 170 338.499 167.3C336.799 165.1 337.199 163.5 337.799 162.5C340.199 158.6 351.899 160.2 356.899 161.1L356.299 164.5C349.199 163.3 341.999 163.1 340.799 164.3C340.899 164.6 341.099 164.9 341.299 165.2C342.899 167.3 346.399 169.3 349.399 171.1C353.799 173.6 356.899 175.4 356.399 178.1C355.799 180.7 352.399 182.1 343.799 183.4Z" fill="#68BA7F"/>
<path d="M343.4 184L342.7 179.6L343.2 179.5C348.6 178.7 350.9 177.9 351.9 177.5C350.5 176.5 348.9 175.5 347.4 174.7C344 172.7 340.1 170.5 338 167.7C336.2 165.2 336.6 163.4 337.3 162.3C339.8 158.3 350.7 159.6 356.9 160.7L357.4 160.8L356.6 165.2L356.1 165.1C349.4 163.9 342.9 163.9 341.3 164.5C341.4 164.6 341.5 164.8 341.6 164.9C343.1 166.9 346.6 168.9 349.6 170.6C354.1 173.2 357.4 175 356.8 178.2C356.3 181 352.9 182.5 343.8 183.8L343.4 184ZM343.8 180.4L344.2 182.9C352.2 181.7 355.4 180.3 355.8 178.1C356.2 175.7 353.2 174 349.1 171.6C346 169.8 342.4 167.8 340.8 165.6C340.5 165.3 340.3 164.9 340.2 164.5L340.1 164.2L340.3 164C341.7 162.6 349.3 162.9 355.7 164L356.1 161.5C346.3 159.8 339.5 160.3 338 162.8C337.3 164 337.5 165.4 338.7 167C340.6 169.6 344.4 171.8 347.8 173.7C349.7 174.8 352.3 176.2 353 177.2L353.4 177.6L353 178C352.3 178.4 350.2 179.4 343.8 180.4Z" fill="#68BA7F"/>
<path d="M169.8 210.6C168.9 210.2 164.2 208.4 163.8 205C163.6 203.2 164.6 201.6 166.7 200.2C170 198 171.1 196.3 171.2 195.8C171 195.7 170.3 195.3 168 195.3C166.4 195.3 161.6 195.5 160.5 192.5C159.8 190.5 161 188.1 164.4 185.4L166.6 188.1C164.3 189.9 163.9 190.9 163.8 191.2C164.1 191.4 165 191.8 167.9 191.7C171.7 191.6 173.9 192.6 174.5 194.6C175.5 197.9 171.2 201.3 168.6 203C167.6 203.6 167.2 204.2 167.3 204.4C167.4 205.2 169.4 206.5 171 207.1L169.8 210.6Z" fill="#68BA7F"/>
<path d="M170.101 211.3L169.601 211.1C168.601 210.7 163.701 208.7 163.301 205.1C163.101 203.1 164.101 201.4 166.401 199.9C168.001 199 169.401 197.7 170.501 196.1C169.701 195.9 168.801 195.8 168.001 195.9C166.301 195.9 161.201 196.1 160.001 192.8C159.201 190.5 160.501 188 164.101 185.2L164.501 184.9L167.301 188.4L166.901 188.7C165.901 189.4 165.101 190.2 164.401 191.2C165.501 191.5 166.701 191.6 167.801 191.5C171.801 191.4 174.201 192.5 174.901 194.7C176.001 198.3 171.501 201.9 168.801 203.7C168.001 204.3 167.701 204.6 167.701 204.7C167.801 205 169.301 206.3 171.101 206.9L171.601 207.1L170.101 211.3ZM168.401 194.9C169.401 194.8 170.501 195 171.501 195.5L171.701 195.7V196C171.601 196.9 170.101 198.8 167.001 200.8C165.101 202.1 164.201 203.5 164.301 205.1C164.601 207.8 168.201 209.5 169.501 210.1L170.401 207.7C169.101 207.1 166.901 205.9 166.801 204.8C166.701 204.1 167.701 203.3 168.401 202.9C170.401 201.6 175.101 198.1 174.101 195C173.501 193.2 171.501 192.4 168.001 192.5C165.101 192.6 164.001 192.1 163.601 191.9L163.301 191.7L163.401 191.3C163.501 190.9 164.101 189.9 166.001 188.2L164.401 186.3C161.501 188.7 160.401 190.8 161.001 192.5C162.001 195.1 166.501 195 168.001 195L168.401 194.9Z" fill="#68BA7F"/>
<path d="M404 139.4L403.4 136C405.4 135.6 406.6 134.9 407.2 133.8C408 132.2 407.3 130 407 129.3L410.2 127.8C410.3 128 412.1 131.9 410.3 135.3C409.2 137.5 407.1 138.9 404 139.4Z" fill="#68BA7F"/>
<path d="M403.601 140L402.801 135.6L403.301 135.5C405.101 135.2 406.301 134.5 406.801 133.6C407.501 132.2 406.901 130.2 406.601 129.6L406.401 129.2L410.501 127.3L410.701 127.7C410.801 127.9 412.701 132.1 410.801 135.7C409.601 138 407.401 139.4 404.201 140H403.601ZM404.001 136.4L404.501 138.9C407.201 138.3 409.001 137.1 410.001 135.2C411.301 132.6 410.501 129.7 410.001 128.6L407.701 129.7C408.301 131.1 408.301 132.7 407.701 134.2C406.801 135.3 405.501 136.2 404.001 136.4Z" fill="#68BA7F"/>
<path d="M88.7003 251.2C84.4003 245.3 83.4003 242.6 84.7003 240.8C86.2003 238.7 89.5003 239.7 94.1003 241.1C97.2003 242.1 100.8 243.2 103.3 243.1C103.5 243.1 103.8 243.1 104 243C103.3 241.4 99.3003 237.7 94.8003 234.6L96.8003 231.7C102.2 235.5 108.4 240.7 107.4 244.1C107.1 245.1 106.2 246.4 103.4 246.5C100.3 246.6 96.4003 245.4 93.0003 244.4C91.3003 243.8 89.5003 243.3 87.7003 243C87.9003 243.8 88.8003 245.5 91.4003 249.1L88.7003 251.2Z" fill="#68BA7F"/>
<path d="M88.6006 252L88.3006 251.6C83.9006 245.5 82.9006 242.6 84.3006 240.6C86.1006 238.2 89.5006 239.2 94.3006 240.7H94.4006C97.4006 241.6 100.801 242.7 103.201 242.6C100.701 239.7 97.8006 237.1 94.6006 235L94.2006 234.7L96.8006 231L97.2006 231.3C105.201 236.9 108.901 241.3 108.001 244.3C107.701 245.5 106.601 246.9 103.501 247.1C100.401 247.3 96.3006 246 93.0006 245C91.7006 244.6 89.9006 244 88.6006 243.8C89.6006 245.6 90.7006 247.3 92.0006 248.9L92.3006 249.3L88.6006 252ZM87.5006 240.1C86.6006 240 85.7006 240.4 85.1006 241.1C84.0006 242.7 85.0006 245.3 88.8006 250.6L90.8006 249.1C89.4006 247.3 88.2006 245.3 87.3006 243.2L87.1006 242.5L87.9006 242.6C89.7006 242.9 91.6006 243.4 93.3006 244C96.5006 245 100.401 246.2 103.501 246.1C105.501 246 106.701 245.3 107.101 244.1C107.801 241.7 104.201 237.6 97.1006 232.5L95.7006 234.6C100.001 237.7 103.901 241.3 104.601 242.9L104.901 243.5L104.301 243.6C104.001 243.7 103.801 243.7 103.501 243.7C100.901 243.8 97.4006 242.7 94.3006 241.7H94.2006C92.0006 240.8 89.8006 240.3 87.5006 240.1Z" fill="#68BA7F"/>
<path d="M321.8 250L318.5 248.7C318.9 247.8 319.6 245 318.5 243.1C317.8 241.9 316.5 241.1 315.1 240.9L315.8 237.5C318.2 237.9 320.3 239.3 321.5 241.4C323.7 245.2 321.9 249.8 321.8 250Z" fill="#68BA7F"/>
<path d="M322.101 250.6L317.901 249L318.101 248.5C318.401 247.7 319.101 245 318.201 243.3C317.501 242.3 316.401 241.6 315.201 241.4L314.701 241.3L315.601 236.9L316.101 237C318.601 237.4 320.901 238.9 322.101 241.2C324.201 245.1 322.301 250 322.201 250.1L322.101 250.6ZM319.201 248.4L321.501 249.3C321.901 248.1 322.801 244.6 321.201 241.7C320.201 239.9 318.401 238.6 316.301 238.1L315.801 240.5C317.101 240.8 318.301 241.6 319.001 242.8C320.101 244.8 319.501 247.4 319.201 248.4Z" fill="#68BA7F"/>
<path d="M412.101 265.4L410.101 262.5C410.101 262.5 413.001 260.5 413.401 257.8C413.501 256.4 413.001 255.1 412.101 254.1C408.901 250.3 406.101 245 407.801 241.6C408.301 240.6 409.701 238.8 413.301 239C414.901 239.1 415.901 238.8 416.301 238.2C416.801 237.4 416.401 235.1 413.901 231.4L416.801 229.4C419.801 233.8 420.801 237.4 419.401 239.8C418.701 241.1 417.001 242.6 413.201 242.4C412.401 242.4 411.301 242.5 411.001 243.1C410.401 244.4 411.501 247.9 414.801 251.8C416.401 253.5 417.201 255.9 416.901 258.3C416.201 262.5 412.201 265.2 412.101 265.4Z" fill="#68BA7F"/>
<path d="M411.9 266L409.4 262.3L409.8 262C409.9 261.9 412.5 260.1 412.9 257.7C413 256.5 412.6 255.2 411.7 254.3C408.4 250.4 405.5 244.9 407.3 241.2C407.9 240 409.4 238.1 413.2 238.3C414.9 238.4 415.6 238 415.7 237.8C416 237.3 415.8 235.3 413.3 231.6L413 231.2L416.7 228.6L417 229C420.2 233.6 421.1 237.4 419.6 240C418.8 241.4 417.1 243 413 242.8C411.9 242.8 411.4 243 411.3 243.2C410.8 244.1 411.7 247.4 415.1 251.4C416.8 253.3 417.6 255.8 417.3 258.3C416.7 262.7 412.5 265.6 412.3 265.7L411.9 266ZM410.8 262.6L412.2 264.7C413.2 263.9 415.9 261.5 416.3 258.3C416.6 256.1 415.8 253.8 414.3 252.2C411.2 248.5 409.5 244.6 410.4 242.9C410.7 242.2 411.6 241.9 413 241.9C416.5 242.1 418.1 240.7 418.7 239.6C419.9 237.5 419.1 234.2 416.4 230.1L414.3 231.5C416.3 234.6 417.2 237.1 416.5 238.4C416 239.4 414.4 239.5 413.1 239.4C409.8 239.2 408.6 240.8 408.1 241.7C406.5 244.9 409.2 250 412.3 253.7C413.4 254.8 413.9 256.3 413.7 257.8C413.6 260.1 411.6 261.9 410.8 262.6Z" fill="#68BA7F"/>
<path d="M283.6 380.7C283.6 380.7 286.4 408.4 287.1 408.4C287.8 408.4 298.4 408 298.4 408V397.4L303.6 409.1L339 407C339 407 340.1 403.1 332.2 398.9C324.3 394.7 311.4 388.6 311.4 388.6L306.9 372.3L283.6 380.7Z" fill="#000005"/>
<path d="M212.4 381.4C212.4 381.4 209.5 409.2 208.8 409.2C208.1 409.2 197.5 408.8 197.5 408.8V398.2L192.3 409.9L156.9 407.8C156.9 407.8 155.8 403.9 163.7 399.7C171.6 395.5 184.5 389.4 184.5 389.4L189 373.1L212.4 381.4Z" fill="#000005"/>
<path d="M275.2 218.8H220.9C220.9 218.8 177.6 383.9 177.6 385.8C177.6 387.7 209.1 390 212.5 388.5C215.2 387.4 238.4 315.9 248.5 284.7C259.5 320.5 280.4 387.4 282.9 388.5C286.3 390 318.6 387.7 318.6 385.8C318.6 383.9 275.2 218.8 275.2 218.8Z" fill="#000005"/>
<path d="M276.899 218.1H222.599C221.699 218.1 220.799 218.2 219.899 218.5C219.499 218.6 218.599 218.8 218.499 219.3L215.499 230.7C212.999 240.3 210.499 249.8 207.999 259.4C204.699 271.9 201.399 284.5 198.199 297C194.799 310 191.399 323 187.999 336C185.199 346.7 182.499 357.4 179.699 368.1C178.199 373.8 176.699 379.5 175.399 385.2C175.299 385.5 175.199 385.9 175.199 386.2C175.399 387.2 178.099 387.4 178.899 387.6C185.399 388.7 191.899 389.3 198.399 389.5C201.499 389.6 204.599 389.7 207.699 389.6C208.899 389.6 210.099 389.5 211.299 389.3C212.499 389.2 213.699 388.9 214.699 388.3C215.399 387.7 215.899 386.9 216.199 386.1C216.999 384.4 217.699 382.7 218.299 380.9C223.399 367.8 227.799 354.4 232.299 341C237.599 325.2 242.799 309.4 247.899 293.5C248.899 290.4 249.899 287.4 250.899 284.3L245.999 285.2C251.099 301.7 256.199 318.2 261.399 334.7C266.099 349.5 270.799 364.2 275.999 378.8C276.799 380.9 277.499 383 278.399 385.1C278.799 386.3 279.399 387.5 279.999 388.6C280.699 389.6 281.999 389.6 283.099 389.6C285.699 389.8 288.399 389.8 291.099 389.7C297.899 389.5 304.699 389 311.499 388.1C314.099 387.8 316.599 387.4 319.099 386.6C319.799 386.4 321.099 386.1 321.099 385.1C320.899 383.6 320.499 382 319.999 380.6C319.199 377.5 318.399 374.3 317.599 371.2C315.099 361.3 312.499 351.4 309.899 341.5C306.599 328.9 303.399 316.4 300.099 303.8C296.799 291.1 293.499 278.4 290.199 265.7C287.499 255.4 284.799 245.1 282.099 234.8C280.699 229.6 279.299 224.3 277.899 219L277.699 218.3C277.499 217.4 272.599 218.5 272.799 219.2C273.699 222.8 274.699 226.3 275.599 229.9L282.699 257.1C285.899 269.2 288.999 281.3 292.199 293.5C295.499 306.2 298.799 318.9 302.099 331.6C304.899 342.4 307.699 353.3 310.499 364.1C312.199 370.6 313.899 377.1 315.499 383.6C315.699 384.3 315.799 384.9 315.999 385.6C315.999 385.8 316.099 385.9 316.099 386.1C316.199 386.3 316.099 386.2 316.099 386.2C315.999 386.2 316.599 386 315.999 386.2C316.899 385.9 314.699 386.4 315.699 386.3L314.099 386.6L313.299 386.7C313.999 386.6 312.699 386.8 312.599 386.8C309.399 387.2 306.299 387.5 303.299 387.7C299.999 387.9 296.699 388.1 293.399 388.2C291.899 388.2 290.899 388.3 289.399 388.2H287.599H286.899H286.399C286.099 388.2 285.699 388.1 285.399 388.1C285.099 388 285.299 388.2 285.099 388C284.899 387.8 285.099 388 284.999 387.8C284.899 387.6 284.799 387.5 284.699 387.3C283.999 386 283.499 384.7 282.999 383.4C278.099 370.9 274.099 358 269.999 345.3C264.599 328.6 259.399 311.8 254.199 295.1L250.899 284.4C250.599 283.5 246.199 284.5 245.999 285.3C241.299 300 236.499 314.7 231.599 329.4C226.699 344.2 221.799 359 216.499 373.7C214.899 378 213.399 382.4 211.499 386.6C211.299 387.1 210.999 387.6 210.699 388.1C210.599 388.2 210.099 388.8 210.099 388.9C210.099 388.6 211.399 388.4 211.599 388.4C210.999 388.5 212.199 388.4 211.699 388.4C211.499 388.4 210.699 388.5 211.499 388.4C210.399 388.5 209.099 388.5 208.399 388.5C201.799 388.5 195.099 388.1 188.499 387.3C185.999 387.1 183.599 386.7 181.199 386.1C180.699 386 179.899 385.9 179.999 385.3C180.299 383.8 180.599 382.3 181.099 380.9C181.899 377.8 182.699 374.6 183.499 371.5C185.999 361.6 188.599 351.8 191.099 341.9C194.399 329.2 197.699 316.6 200.999 304C204.299 291.4 207.599 278.7 210.999 265.9C213.699 255.6 216.399 245.3 219.099 235C220.499 229.7 221.899 224.5 223.199 219.2L223.399 218.5L219.299 219.6H273.599C274.799 219.6 275.999 219.4 277.099 219C277.799 218.5 277.899 218.1 276.899 218.1Z" fill="#000005"/>
<path d="M274 157.199C274 157.199 308.3 115.499 310.9 111.699C310.9 111.699 309.7 92.5994 314.9 93.1994C320.1 93.7994 320.3 103.599 320.3 103.599C320.3 103.599 334.6 87.1994 338.1 88.9994C341.6 90.7994 332.6 105.899 332.6 105.899C332.6 105.899 345.8 91.8994 347.8 96.2994C349.8 100.699 339.5 110.799 339.5 110.799C339.5 110.799 348.6 104.199 349.6 107.799C350.6 111.399 328.7 127.799 328.7 127.799L290.5 186.999L274 157.199Z" fill="white"/>
<path d="M276.2 157.599C283.9 148.299 291.5 138.899 299.2 129.599C303.3 124.499 307.5 119.499 311.6 114.299C312.1 113.699 312.6 113.099 313 112.499C313.4 111.999 313.5 111.299 313.4 110.699C313.2 107.499 313.3 104.199 313.6 100.999C313.7 99.0994 314.1 97.2994 314.8 95.5994C314.9 95.2994 315 95.0994 315.2 94.7994C315.3 94.6994 315.4 94.5994 315.5 94.4994C315.6 94.2994 315.2 94.4994 315.6 94.3994C314.6 94.6994 316.3 94.2994 315.1 94.5994C314.8 94.6994 314.5 94.6994 314.3 94.6994C313.9 94.6994 313.8 94.6994 314.2 94.6994C313.9 94.4994 314.5 94.7994 314.5 94.7994C314.5 94.7994 314.9 94.9994 315 95.0994C317.4 96.9994 317.9 101.199 318 104.099C318 104.899 319.4 105.099 320 105.099C321 105.099 322 104.799 322.7 104.099C326.2 99.8994 330.1 96.0994 334.3 92.5994C334.9 92.1994 335.4 91.6994 336 91.2994C336.3 91.0994 336.6 90.8994 337 90.6994C336.6 90.8994 337.4 90.4994 337.6 90.3994C338.2 90.0994 337.2 90.4994 337.8 90.2994C338.1 90.1994 337 90.3994 337.3 90.3994C337.4 90.3994 336.2 90.1994 336.6 90.2994C336 90.1994 336.5 90.0994 336.5 90.2994C336.4 89.9994 336.5 90.4994 336.5 90.3994C336.7 91.5994 336.5 92.7994 336 93.9994C335.5 95.5994 334.8 97.1994 334.1 98.7994C333.3 100.499 332.5 102.099 331.6 103.699C331.3 104.199 331 104.799 330.7 105.299L330.5 105.599C330.3 105.899 330.7 105.299 330.5 105.499L330.4 105.699C329.8 106.599 330.6 107.199 331.5 107.399C332.7 107.599 333.9 107.199 334.8 106.399C337.7 103.199 340.9 100.299 344.5 97.8994C344.9 97.5994 345.3 97.3994 345.7 97.1994L346 96.9994C346.1 96.9994 346.2 96.8994 346.3 96.8994C346.8 96.7994 345.7 96.9994 346.2 96.8994C346.7 96.7994 345.7 96.8994 346 96.8994C346.3 96.8994 345.6 96.7994 345.5 96.7994C345.4 96.7994 345.2 96.4994 345.4 96.7994C345.2 96.3994 345.5 96.9994 345.5 96.9994C345.6 97.1994 345.6 97.4994 345.6 97.6994C345.8 100.399 343.5 103.299 342 105.199C340.6 107.099 339 108.799 337.4 110.499C336.7 111.199 337.6 111.899 338.3 112.099C339.4 112.399 340.6 112.199 341.5 111.499C342.7 110.599 344 109.799 345.4 109.099C345.9 108.799 346.4 108.599 347 108.399C346.6 108.499 347.3 108.299 347.5 108.199L347.9 108.099C347.6 108.199 347.6 108.199 347.9 108.099C347.8 108.099 347.8 108.099 347.5 108.099C346.9 107.999 347.3 108.099 347.4 108.099C346.8 108.099 347.4 107.999 347.3 108.099C347.3 107.799 347.2 108.199 347.3 108.099C347.3 108.099 347.4 108.299 347.3 108.199C347.3 108.299 347.3 108.399 347.3 108.499C347.3 108.099 347.2 108.699 347.1 108.899C347.1 108.999 347 109.099 346.9 109.299C347 109.099 346.8 109.499 346.9 109.299C346.8 109.499 346.8 109.499 346.7 109.599C346.2 110.299 345.7 110.999 345.1 111.599C343.5 113.299 341.9 114.899 340.1 116.399C336.5 119.599 332.8 122.599 329 125.499C327.8 126.199 326.8 127.199 326 128.299L314.8 145.599L298.2 171.299L291.7 181.399C290.6 183.099 289.4 184.799 288.4 186.499L288.3 186.699L292.9 186.399L278.3 160.199L276.3 156.499C275.5 154.999 270.6 156.099 271.6 157.899L286.2 184.099L288.2 187.699C288.9 188.999 292.1 188.499 292.8 187.399L301.4 173.999L318.4 147.699L330.4 129.199C330.6 128.999 330.7 128.699 330.9 128.399C331.2 127.899 331 128.499 330.7 128.499C330.8 128.499 331.2 128.099 331.3 127.999L332.9 126.799C336.9 123.799 340.8 120.599 344.5 117.299C346.4 115.699 348.2 113.899 349.8 111.999C350.7 110.899 352.2 109.399 352.1 107.799C351.9 104.999 347.9 105.299 346 105.699C343.5 106.499 341.1 107.699 338.9 109.199C338.5 109.499 338 109.799 337.6 110.099L341.7 111.199C343.4 109.499 344.9 107.799 346.3 105.899C348.1 103.499 350.8 99.9994 350.4 96.7994C349.9 93.1994 345.4 93.9994 343 94.9994C340.1 96.4994 337.5 98.3994 335.2 100.699C333.5 102.299 331.8 103.899 330.2 105.599L334.7 106.299C336.1 103.999 337.3 101.699 338.5 99.2994C339.3 97.5994 340.1 95.7994 340.7 93.9994C341.3 92.5994 341.4 91.1994 341.2 89.6994C340.2 85.7994 334.6 88.1994 332.5 89.4994C329.3 91.6994 326.3 94.2994 323.7 97.1994C321.7 99.1994 319.8 101.199 318 103.299H322.7C322.6 98.3994 320.5 90.9994 314.1 91.8994C311.1 92.2994 309.7 94.6994 309.1 97.3994C308.5 100.299 308.2 103.199 308.2 106.199C308.2 108.199 308.2 110.099 308.3 112.099L308.5 111.399C307 113.399 305.4 115.399 303.8 117.299C300.8 120.999 297.8 124.699 294.8 128.399C288.5 136.199 282.1 143.899 275.8 151.599C274.4 153.299 272.9 155.099 271.5 156.799C270.8 157.699 271.9 158.399 272.6 158.499C274.1 158.799 275.3 158.499 276.2 157.599Z" fill="#000005"/>
<path d="M318.6 105.4C319 106 319.5 106.6 320 107.1L320.6 107.8L320.9 108.2C320.8 108.1 320.8 108.1 321 108.3C321.6 109.1 322.1 110.1 322.3 111.1C322.4 111.7 322.5 112.2 322.6 112.8C322.6 113 322.6 113.1 322.6 113.2C322.6 113 322.6 113 322.6 113.3C322.6 113.6 322.6 113.9 322.6 114.2C322.6 115.4 322.5 116.7 322.4 117.9C322.1 120.8 327.1 120.8 327.4 118C327.8 115.3 327.7 112.6 327.3 110C327 108.7 326.5 107.4 325.7 106.3C325.3 105.7 324.8 105.1 324.3 104.6L323.6 103.8L323.3 103.4C323 103.1 323.6 103.8 323.2 103.2C322.5 102.1 321 101.8 319.9 102.4C318.8 102.9 317.8 104.3 318.6 105.4Z" fill="#000005"/>
<path d="M227.899 155.6C227.899 155.6 193.599 113.9 190.999 110.1C190.999 110.1 192.199 90.9997 186.999 91.5997C181.799 92.1997 181.599 102 181.599 102C181.599 102 167.299 85.6997 163.799 87.3997C160.299 89.0997 169.299 104.3 169.299 104.3C169.299 104.3 156.099 90.2997 154.099 94.6997C152.099 99.0997 162.399 109.2 162.399 109.2C162.399 109.2 153.299 102.6 152.299 106.2C151.299 109.8 173.199 126.2 173.199 126.2L211.399 185.5L227.899 155.6Z" fill="white"/>
<path d="M230 156.4L221.9 146.5C216.6 140 211.2 133.4 205.8 126.9C201.8 122 197.7 117.1 193.8 112C193.6 111.7 193.4 111.4 193.2 111.2C193 111 193.1 111.3 193.2 111C193.3 109.9 193.4 108.8 193.3 107.7C193.5 103.9 193.1 100.1 192.3 96.3996C192 94.7996 191.1 93.2996 189.9 92.1996C188.3 90.8996 186 89.5996 183.9 90.4996C180.6 91.9996 179.8 96.6996 179.5 99.8996C179.5 100.2 179.4 100.6 179.4 100.9L183.3 102.5C179.2 97.5996 174.5 93.0996 169.5 89.0996C168 87.8996 166.3 86.9996 164.6 86.2996C163.6 85.8996 162 85.3996 161.2 86.3996C160.4 87.3996 160.8 88.8996 161 89.8996C161.5 91.6996 162.1 93.3996 162.9 95.0996C164.2 97.8996 165.6 100.7 167.2 103.4L171 104.7C167.3 100.8 163.2 96.8996 158.6 94.1996C157.1 93.3996 152.9 90.8996 151.8 93.4996C150.7 96.2996 153.4 100.1 155 102.2C156.7 104.5 158.5 106.7 160.6 108.7L163.3 109C160.6 106.9 157.5 105.3 154.3 104.2C153.2 103.8 151.1 103.3 150.3 104.6C149.8 105.4 150.3 106.4 150.7 107.2C152.3 109.9 154.9 112.1 157.2 114.2C160.2 116.9 163.3 119.5 166.4 122C168.3 123.5 170.2 125 172.2 126.5L171.1 125.5L184.1 145.6L204.6 177.4L209.3 184.7C209.7 185.2 213 187.7 213.5 186.8L228.1 160.6L230.1 156.9C230.6 156 226.3 153.5 225.8 154.4L211.1 180.7L209.1 184.4L213.3 186.5L205.1 173.8L188.7 148.4L176.2 129.1C175.8 128.5 175.5 128 175.1 127.4C174.7 126.9 174.3 126.5 173.8 126.2L173.7 126.1C170.4 123.6 167.1 121 164 118.3C160.9 115.6 156.9 112.6 154.6 109C154.1 108.2 153.9 106.7 155.5 106.7C156.3 106.7 157.1 107 157.8 107.5C157.9 107.6 158.6 107.9 158.2 107.7C158.5 107.8 158.7 108 159 108.1L159.7 108.5L160 108.7C159.8 108.5 159.7 108.5 160 108.7C160.3 108.9 160.8 109.2 161.2 109.5C161.8 109.9 163 110.8 163.8 110.7C164.6 110.6 164.3 110.2 163.9 109.8C162.5 108.5 161.3 107 160.1 105.5C158.3 103.3 156.1 100.6 155.8 97.5996C155.7 96.7996 155.8 95.7996 156.6 95.3996C156.7 95.3996 156.9 95.2996 157 95.2996C156.9 95.2996 157.6 95.2996 157.2 95.2996C157.7 95.3996 157.1 95.1996 157.5 95.3996C156.9 95.1996 158.2 95.7996 157.6 95.3996L158.3 95.7996C157.8 95.4996 158.7 96.0996 158.8 96.0996C159.5 96.5996 159.5 96.5996 160.2 97.0996C161.3 97.9996 162.4 98.9996 163.4 99.7996C164.8 101.1 166.1 102.4 167.4 103.8C168.2 104.6 169.1 105.2 170.2 105.5C170.6 105.6 171.7 105.9 171.2 105.1C170.1 103.2 169.1 101.3 168.1 99.2996C167.3 97.6996 166.6 95.9996 166 94.2996C165.4 92.9996 165.1 91.5996 165 90.0996C165 89.6996 165.1 89.1996 165.4 88.8996C165.6 88.6996 165.8 88.5996 166.1 88.5996C166.3 88.5996 166.4 88.6996 166.2 88.5996C166.8 88.7996 165.9 88.4996 166.5 88.6996C165.7 88.4996 167.1 89.0996 166.4 88.6996C166.7 88.8996 167.1 89.0996 167.4 89.3996C168 89.7996 167 89.0996 167.6 89.5996L168.1 89.9996L169 90.7996C169.6 91.3996 170.2 91.8996 170.9 92.3996C172.3 93.6996 173.5 94.9996 174.8 96.2996C176.4 97.9996 178.1 99.6996 179.6 101.5C180 101.9 183.5 104.2 183.5 103.1C183.6 100.3 184.2 97.0996 185.9 94.7996C186.4 94.0996 187.1 93.4996 187.9 93.1996C188.2 93.0996 188.7 93.0996 188.9 92.9996H189C188.5 92.8996 188 92.6996 187.6 92.3996C187.3 92.1996 186.9 91.9996 186.7 91.6996C186.9 92.1996 187.3 92.6996 187.5 93.1996C187.8 93.9996 188 94.8996 188.1 95.7996C188.7 99.3996 188.9 103 188.7 106.6C188.6 107.4 188.6 108.2 188.6 109.1C188.8 109.6 189.2 110.1 189.6 110.5C198.3 121.7 207.5 132.6 216.5 143.6L225.7 154.8C226.5 155.7 227.4 156.3 228.5 156.7C229 156.9 230.7 157.2 230 156.4Z" fill="#000005"/>
<path d="M179.399 100.8C178.599 101.8 177.699 102.8 176.999 103.8C176.199 104.9 175.699 106.1 175.399 107.4C174.899 110 174.899 112.6 175.199 115.2C175.399 116.4 176.099 117.4 177.099 118.1C177.599 118.5 178.999 118.9 178.899 117.7C178.599 115.4 178.599 113 178.999 110.6C179.199 109.5 179.699 108.4 180.299 107.5C180.999 106.5 181.899 105.6 182.699 104.6C183.299 103.8 182.499 102.6 181.899 101.9C181.599 101.5 179.999 99.9997 179.399 100.8Z" fill="#000005"/>
<path d="M307.199 170L283.899 144L259.499 163.6C253.999 158.3 247.999 156.3 241.899 159.6C241.399 159.9 240.899 160.2 240.399 160.5L217.999 142.3L194.699 168.3L215.599 203.1C208.199 228.3 205.999 254.5 205.999 254.5C205.999 254.5 281.499 258.1 289.399 254.5C292.799 252.9 289.899 232 283.099 210.1L307.199 170Z" fill="white"/>
<path d="M307.5 168.4L287.1 145.6L284.2 142.4C283.9 142.1 283.1 141.5 282.7 141.8L261.4 158.9L258.4 161.3L259.9 161.9C257 159.2 253.7 156.8 249.8 155.9C246 155.1 242.5 156.1 239.3 158.1L240.4 158.3L220.7 142.5L217.9 140.2C217.6 139.8 217 139.8 216.6 140.1C216.6 140.1 216.6 140.1 216.5 140.2L196.1 163L193.2 166.2C192.7 166.8 193.3 168.2 193.6 168.7L211.8 199.1L214.4 203.5L213.9 201.3C209.4 217 206.3 233 204.7 249.2C204.6 250.4 204.5 251.5 204.4 252.7C204.3 253.9 205.3 256.5 206.8 256.6C211 256.8 215.1 257 219.3 257.1C228.6 257.5 237.9 257.8 247.1 258C256.6 258.2 266.2 258.4 275.7 258.1C279.1 258 282.5 257.9 285.8 257.5C287.5 257.3 290.4 257.3 291.3 255.7C292.2 254.1 292.2 252.1 292.3 250.4C292.3 247.6 292.1 244.8 291.7 242C290.6 233.7 288.8 225.5 286.5 217.4C285.9 215.1 285.2 212.8 284.5 210.5L284.4 211.9L292.5 198.4L305.4 176.8L308.4 171.8C309.2 170.4 306.4 166.4 305.5 167.9L290 194.3L282.3 207.1C282.1 207.4 281.9 207.7 281.7 208C281.3 208.9 281.8 209.9 282 210.8C282.5 212.5 283 214.3 283.5 216C285.2 222.1 286.6 228.2 287.7 234.4C288.6 238.9 289.1 243.4 289.1 248C289.1 249.2 289 250.4 288.6 251.6C288.7 251.4 288.1 252.3 288.3 252.1C288.1 252.3 287.9 252.4 287.6 252.4C287.1 252.6 286.5 252.7 286 252.8C285.1 252.9 284.2 253 283.3 253.1C280.9 253.3 278.6 253.5 276.2 253.5C262.3 254 248.3 253.6 234.3 253.2C228 253 221.7 252.8 215.4 252.6C212 252.5 208.7 252.2 205.3 252.2H204.8L207.3 256.1C207.7 250.8 208.4 245.5 209.2 240.2C210.9 228.7 213.3 217.3 216.4 206.1C216.9 204.9 216.8 203.6 216.3 202.5C216.2 202.4 216.2 202.3 216.1 202.2C215.8 201.7 215.5 201.2 215.2 200.8L211.8 195L201.9 178.5L195.4 167.7L195.8 170.2L216.2 147.4L219.1 144.2H217.8L237.5 160L240.3 162.3C240.5 162.5 241.1 162.7 241.4 162.5C244.2 160.8 247.2 159.7 250.5 160.3C253.8 160.9 256.6 162.9 259 165.1C259.3 165.4 260 166 260.5 165.7L281.8 148.6L284.8 146.2L283.3 145.6L303.7 168.5L306.6 171.7C307.1 172.3 308.2 172.7 308.5 171.7C308.8 170.7 308.2 169.1 307.5 168.4Z" fill="#000005"/>
<path d="M274.9 164.2C274.9 164.2 284.2 173.3 288.8 170.1C293.4 166.9 285.8 163.4 285.8 163.4C285.8 163.4 299.6 159.7 289.7 151C289.7 151 303.2 150.2 300.1 139.2C297 128.2 280.2 123 280.2 123C280.2 123 286.9 113.6 275 107.5C263.1 101.4 262 109.1 262 109.1C262 109.1 254.4 105.2 252 108.4C249.6 111.6 254.1 116.4 254.1 116.4C254.1 116.4 249.9 127.2 260.5 132.2L262 150.3C258.3 151.7 256.1 155.4 256.5 159.3C257.2 166.2 271.4 170.8 274.9 164.2Z" fill="#000005"/>
<path d="M272.999 165.8C275.599 168.4 278.699 170.5 282.099 172C284.499 173 287.199 172.9 289.399 171.7C291.699 170.4 293.699 167.7 291.899 165.2C290.699 163.7 289.099 162.5 287.399 161.8L285.999 165.2C288.799 164.5 291.299 163 293.399 161.1C294.799 159.8 295.599 158 295.599 156.1C295.499 153.5 293.499 151.3 291.599 149.6L289.199 153C294.599 152.7 301.099 149.7 302.599 144.1C303.699 139.8 301.599 135.2 298.799 132C295.899 128.8 292.399 126.2 288.599 124.4C286.399 123.2 284.099 122.2 281.699 121.5L281.999 123.9C284.599 120.2 285.399 115.1 282.799 111.2C280.299 107.5 275.699 105.1 271.399 104.1C268.299 103.3 264.799 103.4 262.199 105.6C260.899 106.6 259.999 108.1 259.599 109.7L263.399 107.6C259.999 105.9 255.399 104.5 251.899 106.5C249.399 107.9 248.299 111 249.399 113.7C249.999 115.3 250.999 116.8 252.199 118.1L251.799 116.9C250.999 119 250.799 121.3 250.999 123.6C251.499 128.5 254.599 132 258.999 134.1L258.199 133.1L259.699 151.2L261.899 148.7C257.099 150.5 253.199 155.6 254.299 160.8C255.499 166.4 262.699 169.4 267.799 169.3C271.399 169.2 274.999 167.8 276.899 164.5C277.299 163.9 277.099 163.1 276.599 162.7C276.399 162.5 276.099 162.5 275.799 162.5C274.499 162.5 273.399 163.1 272.699 164.2C272.699 164.3 272.299 164.7 272.499 164.5C272.399 164.6 272.299 164.7 272.199 164.8C272.099 164.9 272.399 164.6 272.199 164.7C271.999 164.8 271.599 165.1 271.899 165C272.199 164.9 271.499 165.2 271.399 165.2C271.799 165 271.199 165.3 271.099 165.3L270.799 165.4C271.099 165.3 270.899 165.4 270.799 165.4C270.299 165.5 269.899 165.5 269.399 165.5C267.199 165.5 265.099 164.9 263.199 163.9C261.299 163 259.899 161.5 258.999 159.6C258.699 158.5 258.599 157.4 258.799 156.4C258.899 155.9 258.999 155.4 259.199 155C259.399 154.6 259.599 154.1 259.899 153.8C260.099 153.6 260.299 153.3 260.499 153.1C260.199 153.4 260.699 153 260.799 152.9L261.299 152.5C261.599 152.3 260.899 152.7 261.399 152.4C261.699 152.3 261.899 152.1 262.199 152C262.499 151.9 261.499 152.3 261.999 152.1C262.999 151.7 264.199 150.8 264.099 149.6L262.899 135.1L262.599 132.1C262.599 131.9 262.599 131.7 262.599 131.6C262.399 130.6 261.099 130.3 260.299 129.8C257.399 128 255.599 125 255.399 121.6C255.299 119.8 255.499 117.9 256.199 116.2C256.299 115.8 256.099 115.3 255.699 115.1C255.599 115 255.599 114.9 255.699 115.1C255.499 114.9 255.299 114.7 255.199 114.4C254.699 113.7 254.299 113.1 253.899 112.3C253.499 111.5 253.299 110.7 253.299 109.8C253.299 109.6 253.599 109.1 253.599 108.9C253.599 109 253.299 109.2 253.299 109.2C253.699 108.9 253.199 109.2 253.399 109.2C253.599 109.2 252.899 109.2 253.599 109.2C253.699 109.2 253.799 109.2 253.899 109.2C254.299 109.2 254.799 109.2 255.199 109.3C255.999 109.4 256.699 109.6 257.399 109.9C258.299 110.2 259.299 110.6 260.199 111.1C261.399 111.8 263.799 110.4 263.999 109C263.999 108.8 264.099 108.5 264.199 108.3C264.299 108.1 263.899 108.8 264.199 108.4C264.299 108.3 264.299 108.2 264.399 108.1C264.499 108 264.699 107.6 264.499 107.9C264.299 108.2 264.699 107.7 264.699 107.7C264.899 107.4 264.299 108 264.699 107.7C264.799 107.6 264.799 107.5 264.899 107.5C265.199 107.4 264.399 107.8 264.699 107.6C265.199 107.4 264.999 107.4 264.699 107.6C264.899 107.5 265.699 107.3 265.099 107.4C265.499 107.3 265.899 107.3 266.199 107.3C266.899 107.3 267.599 107.4 268.299 107.6C273.799 109 280.699 113.2 279.299 119.6C279.199 120.1 278.999 120.6 278.899 121.1C278.799 121.4 278.999 120.9 278.799 121.3C278.699 121.5 278.599 121.7 278.499 121.9C278.399 122.1 277.499 123.5 278.199 122.5C277.699 123.2 277.299 124.5 278.499 124.9C283.599 126.5 288.399 129.1 292.499 132.6C295.399 135.1 297.799 138.5 298.099 142.5C298.199 143.3 298.099 144.1 297.899 144.8C297.799 145.1 297.799 145.3 297.599 145.5C297.499 145.6 297.399 145.8 297.399 146C297.399 146.2 297.299 146.2 297.199 146.3C297.299 146.1 297.299 146.1 297.199 146.2C297.099 146.3 296.599 146.9 296.699 146.8C296.799 146.7 296.199 147.2 296.099 147.3C295.999 147.4 295.799 147.5 295.699 147.6C296.199 147.3 295.799 147.5 295.699 147.6L294.699 148.1C295.299 147.9 294.299 148.3 294.699 148.1L294.199 148.3L293.199 148.6C292.999 148.6 291.999 148.9 292.699 148.7L291.799 148.9C291.199 149 290.599 149.1 289.999 149.1C288.699 149.2 286.199 151.1 287.599 152.5C288.999 153.9 290.599 155.4 290.699 157.4C290.799 157.9 290.599 158.4 290.399 158.8C290.399 158.9 290.099 159.3 290.299 159C290.499 158.7 290.199 159.1 290.099 159.2C289.999 159.3 289.899 159.5 289.699 159.6C290.099 159.2 289.699 159.6 289.599 159.7L289.199 160C289.099 160.1 288.599 160.4 288.999 160.2C289.399 160 288.899 160.3 288.799 160.3L288.299 160.6C287.999 160.8 287.699 160.9 287.499 161C286.799 161.4 287.799 160.9 287.199 161.1C286.599 161.3 285.999 161.6 285.399 161.7C284.099 162.1 282.099 164.3 284.099 165.1C284.299 165.2 284.399 165.3 284.599 165.3C284.299 165.1 284.599 165.3 284.699 165.4L285.299 165.8C286.099 166.3 286.799 166.9 287.399 167.6C287.499 167.8 287.599 167.9 287.699 168.1C287.699 168.1 287.699 168.6 287.799 168.4C287.799 168.7 287.799 168.6 287.499 168.8C287.899 168.6 287.599 168.8 287.399 168.8C288.099 168.7 286.799 168.8 287.299 168.8C286.899 168.8 286.399 168.8 285.999 168.6C282.499 167.7 279.199 165 276.599 162.5C275.399 161.3 271.299 164.1 272.999 165.8Z" fill="#000005"/>
<path d="M231.2 146.8C230.9 134.5 253.8 118.6 253.8 118.6C260.2 125.4 277.6 126.3 277.6 126.3C269 130.8 266.6 148.3 266.6 148.3C274.1 144.2 280.7 149.2 275.6 155C270.5 160.8 264.2 157 264.2 157C264.2 157 258.6 169.2 256.2 171.2C253.8 173.2 231.9 175.5 236.8 160.7C236.9 160.7 231.5 157.6 231.2 146.8Z" fill="white"/>
<path d="M233.6 147.199C233.5 141.699 237.7 136.499 241.2 132.599C244.9 128.599 248.9 124.899 253.2 121.699C254.1 120.999 255 120.299 256 119.699L251.9 118.999C256 123.299 262.4 125.099 268 126.299C271.5 127.099 275 127.499 278.5 127.699L275.7 125.199C270.9 127.799 268.3 133.099 266.6 138.099C265.5 141.199 264.7 144.399 264.2 147.699C264 149.299 267.4 150.199 268.5 149.599C269.8 148.799 271.2 148.399 272.6 148.199C272.9 148.199 273.3 148.199 273.6 148.199C274 148.299 273.9 148.199 274.1 148.499C275.7 149.999 274.6 152.499 273.5 153.899C272.1 155.799 269.8 156.999 267.3 156.899C267.1 156.799 266.8 156.799 266.5 156.799C266.8 156.899 265.4 156.399 266.1 156.699C265.9 156.599 265.6 156.499 265.3 156.399C264.8 156.199 265.8 156.699 265.5 156.499C264.7 155.999 262.2 155.099 261.6 156.399C260.5 158.899 259.2 161.399 258 163.799C257.2 165.499 256.2 167.099 255.2 168.599C254.8 169.099 254.4 169.599 254 170.099C253.9 170.199 253.8 170.299 253.7 170.399C254.1 170.099 253.7 170.399 253.5 170.499C253.1 170.599 252.7 170.799 252.3 170.899C252.7 170.799 252 170.999 251.9 170.999C251.6 171.099 251.3 171.099 251 171.199C250.4 171.299 249.7 171.399 249.1 171.399C249 171.399 248.1 171.499 248.5 171.499C248.1 171.499 247.7 171.499 247.3 171.499C246.6 171.499 245.9 171.499 245.2 171.399C245.1 171.399 244.5 171.299 245 171.399H244.6C244.1 171.299 243.7 171.299 243.2 171.199L242.8 171.099C243.4 171.199 242.8 171.099 242.7 171.099C242.4 170.999 242.1 170.899 241.8 170.799C242.4 170.999 241.4 170.599 241.2 170.499C241 170.399 240.8 170.299 241.3 170.499L240.7 170.099C240.3 169.799 239.9 169.499 239.6 169.099C239.2 168.499 238.8 167.899 238.7 167.199C238.3 165.299 238.5 163.399 239.2 161.599C239.4 160.999 238.7 160.499 238.3 160.299C238.2 160.299 238.2 160.199 238.1 160.199C238.6 160.499 238.2 160.299 237.9 159.999C237.6 159.699 237.6 159.699 237.5 159.599C237.4 159.499 237.6 159.699 237.3 159.399C236.9 158.999 236.6 158.499 236.3 157.999C234.3 154.699 233.7 150.899 233.6 147.199C233.5 145.699 228.7 144.599 228.8 146.399C229 151.499 230.5 158.399 235.3 161.199L234.4 159.899C233.2 163.499 233.4 167.199 236.3 169.899C239.2 172.599 243.2 173.499 247 173.799C250.1 174.099 253.2 173.799 256.3 173.099C257.2 172.899 258 172.499 258.7 171.999C259.9 170.699 260.9 169.199 261.7 167.599C263.5 164.399 265.1 161.099 266.7 157.799L262.8 157.699C268.1 160.799 275.4 160.299 278.9 154.799C280.7 151.899 279.8 148.799 276.9 147.099C273.1 145.099 268.6 145.099 264.8 147.199L269.1 149.099C269.6 145.999 270.3 142.999 271.3 139.999C272.8 135.399 275.2 129.899 279.6 127.499C280.3 127.099 280.2 126.499 279.6 125.999C278.8 125.299 277.8 124.999 276.7 124.899H275.9L275.2 124.799L274.7 124.699H274.9H274.5C272.4 124.499 270.3 124.099 268.2 123.699C263.9 122.799 259 121.599 255.7 118.199C254.8 117.299 252.7 116.699 251.6 117.499C248.9 119.399 246.3 121.499 243.8 123.699C239.1 127.799 234.6 132.299 231.4 137.699C229.7 140.299 228.8 143.299 228.8 146.299C228.9 147.899 233.7 149.099 233.6 147.199Z" fill="#000005"/>
<path d="M258.699 136.8C258.399 137.4 257.599 137.7 256.899 137.3C256.799 137.3 256.799 137.2 256.699 137.2C255.599 136.3 256.599 134.9 257.799 135.3C258.399 135.4 258.799 136 258.699 136.6C258.699 136.7 258.699 136.8 258.699 136.8Z" fill="#000005"/>
<path d="M250.4 134.3C250.1 134.9 249.3 135.2 248.6 134.8C248.5 134.8 248.5 134.7 248.4 134.7C247.3 133.8 248.3 132.4 249.5 132.8C250.1 132.9 250.5 133.5 250.4 134.1C250.5 134.2 250.4 134.3 250.4 134.3Z" fill="#000005"/>
<path d="M244.099 147.6C244.099 147.6 225.799 146.3 224.599 136.4C223.399 126.5 237.099 124.8 245.399 134.7" fill="white"/>
<path d="M244.399 145.4C243.899 145.4 243.499 145.3 242.999 145.3L241.499 145.1L240.899 145H240.699L240.099 144.9C238.599 144.6 236.999 144.2 235.599 143.7L234.499 143.3L233.899 143.1L233.399 142.9C233.599 143 233.099 142.8 232.999 142.7L232.499 142.4C232.099 142.2 231.699 142 231.399 141.8C231.099 141.6 230.699 141.4 230.399 141.2L229.899 140.8C230.299 141.1 229.799 140.7 229.699 140.6C229.399 140.4 229.099 140.1 228.899 139.8C228.799 139.7 228.599 139.5 228.499 139.4C228.399 139.3 228.099 138.8 228.299 139.2C228.099 138.9 227.899 138.5 227.699 138.2L227.499 137.7C227.299 137.2 227.499 137.8 227.399 137.5C227.299 137.1 227.199 136.8 227.199 136.4C227.099 136 227.099 135.6 227.099 135.3C227.099 134.9 227.199 134.5 227.199 134C227.199 133.9 227.199 133.8 227.299 133.7C227.399 133.6 227.199 134 227.299 133.8C227.399 133.6 227.399 133.4 227.499 133.2C227.599 133 227.699 132.9 227.699 132.7C227.499 133.1 227.699 132.7 227.799 132.6L228.199 132.2L228.399 132C228.599 131.8 228.099 132.2 228.399 132C228.699 131.8 228.999 131.6 229.299 131.3C229.599 131 229.199 131.4 229.199 131.4L229.499 131.3L230.099 131L230.699 130.8C230.299 130.9 230.599 130.8 230.799 130.8C231.199 130.7 231.699 130.7 232.199 130.6C232.499 130.6 232.099 130.6 232.099 130.6H232.499C232.799 130.6 232.999 130.6 233.299 130.6C233.599 130.6 233.799 130.6 234.099 130.7H234.499C234.899 130.8 234.199 130.6 234.599 130.7C235.699 130.9 236.799 131.3 237.799 131.7C240.099 132.8 242.199 134.5 243.899 136.5C245.699 138.6 249.799 135.9 247.799 133.6C244.299 129.6 239.299 126.5 233.899 126.3C229.599 126.1 224.699 127.9 223.099 132.2C221.699 136.3 222.799 140.8 226.099 143.7C229.199 146.2 232.799 148 236.699 148.8C239.199 149.4 241.699 149.9 244.199 150.1C245.499 150.2 246.699 149.4 246.999 148.1C247.099 146.9 246.199 145.8 244.899 145.8C244.499 145.4 244.499 145.4 244.399 145.4Z" fill="#000005"/>
<path d="M253.299 149.3C253.299 149.4 253.199 149.5 253.099 149.7L253.299 149.3C253.099 149.7 252.899 150 252.699 150.3L252.999 150C252.899 150.1 252.799 150.2 252.699 150.3L252.599 150.4C252.399 150.6 252.999 150.1 252.799 150.2L252.699 150.3C252.399 150.5 253.299 149.9 252.999 150.1L252.799 150.2C252.499 150.4 253.499 149.8 253.099 150C252.999 150.1 252.699 150.2 253.199 150H253.299C253.199 150 252.899 150.1 253.399 150C253.899 149.9 253.599 149.9 253.499 150C253.399 150.1 253.099 150.1 253.499 150C253.899 149.9 253.599 150 253.499 150H252.999H253.399C253.199 150 252.999 150 252.799 150C252.299 150 251.799 150.1 251.299 150.3C250.699 150.5 250.099 150.8 249.599 151.2L249.199 151.5C248.999 151.7 248.899 151.9 248.799 152.1C248.799 152.4 248.999 152.5 249.299 152.6C250.099 152.7 250.899 152.6 251.599 152.4C252.699 152.1 253.699 151.7 254.699 151.2C256.099 150.5 257.199 149.3 257.899 147.8C257.999 147.5 257.599 147.4 257.399 147.3C256.899 147.3 256.399 147.4 255.899 147.6C255.299 147.8 254.699 148.1 254.199 148.5C253.799 148.7 253.599 149.1 253.399 149.4L253.299 149.3Z" fill="#000005"/>
</svg>
