<svg width="500" height="500" viewBox="0 0 500 500" fill="none" xmlns="http://www.w3.org/2000/svg">
<path d="M137.799 157.4C140.099 156.3 142.199 154.7 143.999 152.9C152.999 143.3 143.199 121.7 123.899 125.9C123.899 125.9 110.099 128 112.799 145.9C113.999 153.6 118.299 157.8 123.499 159.2C119.199 176.1 117.199 204.8 117.199 204.8C117.199 204.8 151.099 208.7 151.099 204.8C151.199 202 144.699 173.2 137.799 157.4Z" fill="#000005"/>
<path d="M139.599 159C143.299 157.1 146.899 154.4 148.499 150.4C149.499 147.6 149.699 144.5 149.099 141.6C147.599 134.5 142.099 128.5 135.599 125.6C130.699 123.4 125.099 123.1 119.999 124.9C115.099 126.8 111.599 131.1 110.799 136.3C109.899 141.4 110.599 146.7 112.999 151.3C115.499 155.9 119.799 159.2 124.799 160.7L121.599 157.8C118.199 171.5 116.799 185.8 115.599 199.8C115.499 201.1 115.399 202.4 115.299 203.6C115.299 204.2 116.299 205 116.699 205.3C117.299 205.9 118.099 206.3 118.899 206.4C128.199 207.5 137.699 208.5 147.099 208.1C148.799 208 150.899 208 152.499 207.2C153.699 206.6 153.399 205.5 153.199 204.4C152.199 198.1 150.499 191.8 148.899 185.6C146.599 176.3 143.599 167.2 139.899 158.4C139.299 157.4 138.399 156.6 137.299 156.2C136.899 156 135.499 155.6 135.999 156.6C139.199 164.3 141.899 172.2 143.899 180.2C145.699 186.8 147.499 193.6 148.799 200.3C148.999 201.1 149.099 202 149.199 202.8C149.199 203 149.299 203.2 149.299 203.5C149.299 203.7 149.399 203.6 149.199 203.9C148.399 204.7 146.299 204.8 145.099 204.9C139.499 205.2 133.799 205 128.199 204.4C124.099 204.1 120.099 203.7 115.999 203.3L119.599 206.1C120.399 195.1 121.599 184.1 123.299 173.2C123.999 169 124.799 164.8 125.799 160.7C126.099 159.5 123.599 158 122.599 157.8C121.299 157.5 120.099 156.9 119.099 156C117.899 154.8 116.999 153.4 116.299 151.8C114.699 147.9 114.199 143.6 114.899 139.4C115.499 134.6 118.599 130.5 122.899 128.5C126.599 126.9 130.799 126.5 134.699 127.5C135.999 127.8 137.299 128.4 138.499 129C138.599 129.1 139.099 129.4 138.699 129.1L139.099 129.4L139.499 129.7C139.399 129.6 139.199 129.4 139.599 129.8C140.099 130.2 140.599 130.6 140.999 131.1C142.799 133.1 144.099 135.6 144.799 138.2C145.599 141.1 145.599 144.2 144.699 147.1C143.299 151.1 139.799 154 136.099 155.9C134.999 156.3 138.499 159.6 139.599 159Z" fill="#000005"/>
<path d="M282.801 158.9C282.001 157.8 279.001 146.6 269.601 142.5C260.201 138.4 257.601 147.1 263.901 150.7C270.201 154.3 272.001 161.9 272.001 161.9L279.501 165.7L282.801 158.9Z" fill="white"/>
<path d="M284.798 159.1C284.598 158.8 284.998 159.5 284.698 159L284.298 158.1C283.898 157.3 283.598 156.4 283.198 155.6C282.098 153.2 280.798 151 279.298 148.9C277.298 146.2 274.798 144 271.898 142.3C269.098 140.7 265.598 139.2 262.298 139.9C260.198 140.2 258.598 141.8 258.198 143.8C257.798 146.1 259.198 148.4 260.798 149.9C261.898 151 263.398 151.7 264.598 152.6C265.598 153.5 266.598 154.5 267.298 155.6C268.298 157.2 269.198 159 269.698 160.8C270.298 162.7 272.598 163.4 274.198 164.3L279.498 167C279.998 167.2 281.298 167.6 281.698 166.9L284.998 160.1C285.798 158.5 281.398 156.1 280.698 157.5L277.398 164.3L279.598 164.2L272.098 160.4L274.198 162.3C272.798 157 269.498 152.5 264.898 149.6C264.698 149.5 264.398 149.3 264.198 149.2C264.598 149.4 264.098 149.1 264.098 149.1C263.798 148.8 264.498 149.5 263.898 149C263.898 149 263.398 148.5 263.698 148.8C263.298 148.3 262.998 147.7 262.898 147.1C262.698 145.9 262.998 144.7 263.898 143.9C265.198 143 266.898 142.8 268.398 143.3C272.198 144.4 275.098 147.4 277.198 150.9C278.098 152.4 278.998 154 279.698 155.7C280.098 156.8 280.498 157.8 281.098 158.8C281.798 159.8 282.898 160.5 284.098 160.6C284.898 160.6 285.398 160 284.798 159.1Z" fill="#000005"/>
<path d="M381.601 114.4C362.001 125.7 354.801 160.5 354.801 160.5C351.301 160.5 347.801 160.7 344.301 161.3C339.101 162.2 338.001 168.6 338.001 168.6C338.001 168.6 149.901 149 141.401 152.4C132.901 155.8 133.801 168.3 136.101 170.5C138.401 172.7 161.301 171.7 161.301 171.7C161.301 171.7 158.001 192.4 159.101 194.3C160.201 196.2 165.801 198.8 170.001 196.9C174.201 195 179.301 174.9 179.301 174.9L194.201 177.3C194.201 177.3 194.001 191.5 195.901 195.7C197.801 199.9 201.201 199.5 204.001 198.9C206.801 198.3 210.001 179.3 210.001 179.3L339.401 186.5C339.401 186.5 336.901 192.1 340.701 195.2C344.501 198.3 356.801 193.3 356.801 193.3C357.701 215.8 380.701 256.8 422.401 251.2C464.101 245.6 477.101 186.4 459.101 146.7C441.101 107 401.201 103.2 381.601 114.4ZM452.701 173.9C460.301 226.4 417.601 251.7 385.101 222.6C352.601 193.5 376.201 144.2 376.201 144.2C390.701 111.3 445.001 121.4 452.701 173.9Z" fill="#59BE4C"/>
<path d="M380.5 112.201C372.3 117.001 366.5 125.001 362.2 133.301C358.7 140.201 355.9 147.501 353.9 155.101C353.5 156.701 353.1 158.201 352.7 159.801L354.8 158.301C352.9 158.301 351 158.301 349.2 158.401C346.4 158.601 343.1 158.701 340.7 160.301C338.2 162.101 336.5 164.801 336 167.801L338.1 166.301L330.7 165.501L311.1 163.501L283 160.701C272 159.601 261 158.601 250 157.501C238.7 156.401 227.4 155.401 216.1 154.401C205.6 153.501 195.1 152.601 184.6 151.801C176.2 151.101 167.8 150.501 159.3 150.101C154.1 149.701 148.8 149.601 143.5 149.701C134.7 150.101 131.2 160.101 132.7 167.701C133.1 169.801 134 172.101 136.1 173.101C138 173.801 140.1 174.201 142.1 174.201C147.6 174.501 153.2 174.601 158.7 174.301C159.8 174.301 160.9 174.201 162 174.201L159.3 170.901C158.8 174.101 158.3 177.301 157.9 180.501C157.4 184.701 156.5 189.201 156.9 193.501C157.5 199.401 167 201.801 171.5 199.301C173.2 198.301 174.2 196.401 175.1 194.801C176.3 192.501 177.3 190.101 178.1 187.601C179.4 183.801 180.6 180.001 181.6 176.101L179.5 177.601L194.4 180.001L192.2 177.301C192.2 180.401 192.2 183.501 192.4 186.601C192.7 190.901 192.8 196.401 196 199.701C198.6 202.301 204.7 203.301 207 199.801C208.9 196.901 209.6 192.901 210.4 189.501C211.1 186.501 211.7 183.601 212.2 180.601L210 182.101L222.9 182.801L253.8 184.501L291.2 186.601L323.5 188.401L334.1 189.001C335.8 189.201 337.5 189.301 339.2 189.301C339.3 189.301 339.3 189.301 339.4 189.301L337.5 185.401C335.2 190.801 337 198.401 343.8 198.901C348.6 199.301 353.6 197.601 358 195.901L354.7 193.301C355.1 202.301 358.1 211.201 362.2 219.101C367 228.701 374 237.101 382.6 243.601C400.8 257.101 427.3 258.901 445.5 244.401C462.7 230.701 469.3 206.801 469.3 185.601C469.3 161.501 460.8 135.901 441.6 120.301C426.4 107.901 404.3 102.901 385.6 110.101C383.8 110.501 382.1 111.301 380.5 112.201C378.1 113.601 380.3 118.101 382.7 116.701C397.9 108.101 418.2 110.401 432.7 119.201C452.5 131.101 462.6 154.101 464.4 176.401C466.1 196.601 461.9 219.501 447.9 234.901C441.5 242.101 432.9 246.901 423.5 248.601C412.4 250.601 400.9 248.701 391 243.401C374.7 234.601 362.8 216.701 359.6 198.601C359.3 196.901 359.1 195.301 359.1 193.601C359 191.901 357.5 190.301 355.8 191.001C352.5 192.401 349.1 193.301 345.5 193.701C343.7 193.901 341.8 193.901 341.1 192.301C340.8 191.401 340.7 190.401 341 189.401C341.1 189.001 341.2 188.601 341.3 188.201C341.3 188.001 341.4 187.901 341.5 187.701C341.6 187.501 341.3 188.201 341.4 188.001C342 186.601 341.4 184.201 339.5 184.101L326.6 183.401L295.7 181.701L258.3 179.601L226 177.801C220.8 177.501 215.5 177.101 210.3 176.901H210C209 176.801 208.1 177.401 207.9 178.401C207.1 183.901 205.9 189.301 204.1 194.601C203.9 195.101 203.7 195.601 203.5 196.001C203.4 196.201 203.3 196.401 203.1 196.601C203.5 196.101 203.2 196.501 203.2 196.501L203.1 196.601C203 196.701 203 196.701 203.3 196.501C203.2 196.701 202.6 196.301 203.6 196.401C203.4 196.401 203.2 196.501 202.9 196.501C202.5 196.601 202 196.601 201.5 196.701C200.7 196.801 199.9 196.701 199.2 196.401C198.6 195.901 198.1 195.301 197.8 194.601C197.9 194.801 197.6 194.001 197.6 193.801C197.5 193.401 197.4 192.901 197.3 192.501C197 190.601 196.8 188.701 196.7 186.801C196.5 183.701 196.5 180.601 196.5 177.501C196.5 176.201 195.6 175.001 194.3 174.801L179.4 172.401C178.4 172.301 177.5 172.901 177.3 173.901C176.6 176.601 175.8 179.301 175 182.001C173.7 185.901 172.4 190.401 170 193.801C169.9 194.001 169.7 194.201 169.6 194.301C169.5 194.401 169.4 194.501 169.3 194.501C168.9 194.901 169.7 194.301 169.2 194.501C167.8 195.101 166.3 195.201 164.9 194.901C163.7 194.701 162.6 194.201 161.6 193.501C161.3 193.301 160.9 192.601 161.2 193.201C161.7 194.101 161.4 193.601 161.3 193.401C161.1 193.101 161.3 194.001 161.3 193.501C161.2 189.801 161.5 186.001 162.2 182.401C162.6 179.101 163.1 175.801 163.6 172.501C163.9 171.001 163 169.601 161.6 169.201C161.4 169.101 161.2 169.101 160.9 169.101C157.3 169.301 153.6 169.401 150 169.401C147.3 169.401 144.6 169.401 141.9 169.201C140.8 169.101 139.8 169.001 138.7 168.801L138.1 168.701C138 168.701 137.4 168.501 137.7 168.601C138 168.701 137.5 168.501 137.5 168.501C137.2 168.201 137.1 168.401 137.5 168.501C137.3 168.201 138 168.901 137.6 168.601C137.8 169.001 137.2 168.301 137.6 168.601L137.4 168.101C137.3 167.701 137.4 168.301 137.3 167.801C137 166.701 136.9 165.701 136.9 164.601C136.8 162.001 137.6 159.301 139.1 157.201C139.9 156.101 141 155.301 142.2 154.801C142.8 154.601 143.1 154.601 142.4 154.701C142.5 154.701 142.6 154.601 142.7 154.601C143.2 154.501 143.8 154.501 144.3 154.401C145.1 154.301 145.9 154.301 146.7 154.301H147.8H149.6C152.4 154.401 155.2 154.501 158.1 154.601C166.1 155.001 174.1 155.601 182.1 156.201C192.2 157.001 202.3 157.801 212.4 158.701C223.5 159.701 234.5 160.701 245.6 161.701C256.5 162.701 267.3 163.701 278.2 164.801C287.7 165.701 297.2 166.701 306.6 167.601L327.7 169.701C331.1 170.001 334.5 170.501 337.9 170.701H338.4C339.4 170.801 340.3 170.201 340.5 169.201C340.8 167.201 341.9 165.301 343.5 164.101C345.4 162.801 348.4 162.901 350.6 162.801C351.7 162.701 352.8 162.701 353.9 162.701H355.1C356.1 162.801 357 162.201 357.2 161.201C358.1 157.101 359.2 153.001 360.7 149.101C363.5 141.101 367.1 133.201 372.2 126.401C375.1 122.401 378.7 119.001 383 116.401C385.1 115.301 382.9 110.801 380.5 112.201Z" fill="#59BE4C"/>
<path d="M450.498 174.2C452.298 186.5 451.498 199.7 445.998 211C441.698 219.8 434.598 227 425.398 230.4C421.198 231.9 416.698 232.6 412.198 232.4C407.198 232.1 402.398 230.8 397.898 228.7C386.898 223.4 378.198 214.1 373.698 202.8C369.698 192.7 369.298 181 370.898 170.4C371.598 165.8 372.598 161.3 373.898 156.9C374.398 155.2 374.998 153.4 375.598 151.7C375.798 151 376.098 150.3 376.398 149.6L376.598 149.2C376.698 148.9 376.798 148.6 376.898 148.4C379.198 142.8 381.998 138.1 386.698 134.3C388.198 133.1 389.798 132.1 391.398 131.2C392.298 130.7 393.198 130.3 394.098 130L395.498 129.5C396.198 129.3 396.098 129.3 396.598 129.1C398.598 128.5 400.598 128.2 402.598 128C403.598 127.9 404.598 127.8 405.698 127.8C406.098 127.8 406.198 127.8 406.798 127.8C407.398 127.8 407.898 127.8 408.398 127.9C417.198 128.7 425.498 132.3 432.098 138.1C439.998 144.9 445.598 154.6 448.498 164.9C449.398 167.9 450.098 171 450.498 174.2C450.798 175.5 451.898 176.4 453.198 176.3C454.598 176.1 454.898 174.7 454.798 173.6C452.998 161.3 448.298 149.3 440.098 139.9C433.498 132.1 424.698 126.6 414.798 124.1C406.198 121.9 397.098 122.8 389.098 126.7C382.298 130.3 376.998 136.2 373.898 143.2C371.198 149.3 369.098 155.7 367.798 162.2C365.298 173.5 364.698 185.3 367.298 196.6C370.398 209.8 378.398 221.3 389.598 229C398.598 235.2 409.598 238.6 420.598 236.8C430.898 235.1 439.798 228.9 445.798 220.5C453.098 210.3 455.898 197.3 455.598 184.9C455.498 181.1 455.198 177.4 454.598 173.7C454.398 172.4 453.198 171.5 451.898 171.6C450.798 171.7 450.398 173 450.498 174.2Z" fill="#59BE4C"/>
<path d="M353.499 166.4C350.699 152 305.499 152.4 305.499 152.4C296.299 146.8 290.399 149.6 290.399 149.6C290.399 149.6 287.999 144.9 281.699 147.6C275.399 150.3 275.299 162.2 279.799 169C284.299 175.8 287.399 167 287.399 167C287.399 167 287.599 172.5 290.899 173.6C294.199 174.7 297.999 173.8 298.099 167.9C298.199 162 303.899 162.4 303.899 162.4" fill="white"/>
<path d="M355.8 165.7C355.1 162.4 352.7 160 349.8 158.4C346.1 156.4 342.1 154.9 338 154.1C329.6 152.3 321.1 151.3 312.5 151.1C310.6 151 308.7 151 306.7 151L307.5 151.2C302.5 148.2 295.6 145.9 289.9 148.6H292.7C291.4 146.4 288.9 145.1 286.4 145.3C281.6 145.4 277.3 148.3 275.5 152.7C274.1 156.8 274.1 161.2 275.4 165.3C276.4 168.7 278.8 174 283.2 173.2C286.4 172.6 288.7 169.7 289.7 166.8L285.2 167.9C285.2 169.5 285.6 171.1 286.3 172.5C287.4 174.6 289.7 175.9 292.1 175.8C295 175.9 297.7 174.4 299.3 172C300 170.7 300.4 169.2 300.5 167.7C300.5 166.6 300.8 165.5 301.3 164.5C301.3 164.5 301.3 164.5 301.4 164.4C301.7 164.2 301.5 164.3 301.4 164.4C301.1 164.6 301.5 164.3 301.5 164.3C301.5 164.3 301.5 164.3 301.3 164.4L301.6 164.3C302 164.2 301.7 164.3 301.6 164.3C301.2 164.4 301.7 164.3 301.8 164.3L302.3 164.2C302.4 164.2 301.8 164.2 302.3 164.2C302.4 164.2 302.6 164.2 302.7 164.2C303.9 164.2 305.1 163.6 305.9 162.6C306.5 161.7 306.1 161 305.1 161C303.1 161 301.1 161.5 299.3 162.6C298 163.4 297 164.5 296.3 165.9C295.6 167.5 295.9 169.2 295.5 170.9C295.3 171.5 295.1 172.1 294.7 172.6C294.8 172.5 294.7 172.5 294.6 172.7C294.7 172.6 294.8 172.5 294.9 172.5C294.6 172.6 294.6 172.6 294.9 172.5C294.6 172.6 294.6 172.6 294.8 172.5C294.3 172.5 293.9 172.5 293.4 172.4C292.8 172.3 292.2 172 291.7 171.6C290.2 170.4 289.7 168 289.7 166.2C289.6 164.1 285.6 166.3 285.2 167.3C285 167.8 284.8 168.3 284.6 168.8C284.5 169 284.3 169.3 284 169.7C283.7 170.1 284 169.8 283.8 170C283.6 170.2 283.6 170.2 283.5 170.3C283.9 169.9 283.4 170.3 283.7 170.2C283.9 170.1 284.1 170 284.2 170C284.4 169.9 284.4 169.9 284.4 169.9C284.3 169.9 284.1 169.9 284 169.8C283.3 169.4 282.8 168.8 282.3 168.2C281.3 166.8 280.6 165.3 280.1 163.7C279 160.5 278.7 157 279.4 153.6C279.7 152.2 280.2 150.9 281 149.8C281.2 149.5 281.6 149.2 281.9 149C282.3 148.8 281.6 149.1 282 149C282.1 148.9 282.2 148.9 282.3 148.9C282.7 148.7 283.2 148.6 283.7 148.5C285.6 148.3 287.4 149.2 288.3 150.8C288.8 151.8 290.5 151.2 291.1 150.8C291.4 150.7 290.2 151.1 290.8 150.9L291.2 150.8C291.7 150.6 290.7 150.9 291.4 150.7C291.6 150.7 291.8 150.6 292 150.6C292.2 150.6 292.7 150.5 292.4 150.5C293.1 150.5 293.7 150.5 294.4 150.5C296.2 150.7 297.9 151.1 299.5 151.7C300.7 152.2 301.8 152.7 302.9 153.3C303.3 153.6 303.9 153.8 304.4 153.9C306.8 154 309.2 154 311.6 154.1C321.6 154.5 332.2 155.4 341.7 159C345.5 160.4 350.3 162.9 351.2 167C351.4 168.1 352.7 167.9 353.5 167.6C354.3 167.3 356 166.7 355.8 165.7Z" fill="#000005"/>
<path d="M370.398 410.101C370.398 410.101 370.798 439.001 369.998 439.001C369.198 439.001 357.698 438.201 357.698 438.201L358.098 426.701L352.098 439.201L313.798 435.701C313.798 435.701 312.698 431.501 321.498 427.101C330.298 422.701 344.398 416.701 344.398 416.701L345.198 399.601L370.398 410.101Z" fill="#000005"/>
<path d="M416.499 380.9L437.299 398.7L434.499 408.6L427.399 408L433.399 415.1C433.399 415.1 430.399 439.6 428.599 440.1C426.799 440.6 406.399 443.5 404.899 440.6C403.399 437.7 416.999 430.9 416.999 430.9L410.699 410L392.199 400.8L416.499 380.9Z" fill="#000005"/>
<path d="M396.901 258.5C396.901 258.5 379.301 416.7 377.701 416.7C376.101 416.7 337.801 414.1 337.801 414.1L337.901 259.1L396.901 258.5Z" fill="white"/>
<path d="M394.601 258.1C394.401 260.2 394.101 262.3 393.901 264.4C393.301 270 392.601 275.6 392.001 281.3C391.101 289.3 390.201 297.3 389.301 305.2C388.201 314.5 387.201 323.8 386.101 333.1C385.001 342.5 383.901 351.9 382.801 361.3C381.801 369.8 380.801 378.2 379.701 386.7C378.901 393.1 378.101 399.6 377.201 406C377.301 405.6 377.201 406.1 377.201 406V406.4C377.201 406.7 377.101 407 377.101 407.4C377.001 407.9 377.001 408.5 376.901 409C376.801 409.9 376.601 410.9 376.501 411.8C376.301 412.9 376.101 414.1 375.901 415.2C375.901 415.3 375.801 415.4 375.801 415.6C375.801 415.8 376.001 415.2 376.001 415.2C376.001 415.2 377.201 414.2 377.301 414.6C376.601 414.5 375.801 414.5 375.101 414.5C371.401 414.3 367.601 414 363.901 413.8C355.601 413.3 347.301 412.7 339.001 412.1L337.401 412L340.301 414.6V399.1V362V317.4V278.6V265.8C340.401 263.8 340.401 261.8 340.301 259.8C340.301 259.7 340.301 259.6 340.301 259.5L338.601 261.2L358.601 261L390.401 260.7L397.701 260.6C398.701 260.6 399.401 259.8 399.401 258.8C399.401 258.6 399.401 258.5 399.301 258.3C398.901 257.1 397.701 256.2 396.401 256.2L376.401 256.4L344.601 256.7L337.301 256.8C336.401 256.8 335.601 257.6 335.601 258.5V274V311.1V355.7V394.5C335.601 400.8 335.401 407.1 335.601 413.3C335.601 413.4 335.601 413.5 335.601 413.6C335.601 415.2 337.101 416.1 338.501 416.2L358.101 417.5C362.701 417.8 367.301 418.1 371.901 418.4L376.501 418.7C377.301 418.8 378.201 418.8 379.001 418.7C380.201 418.3 380.401 417.1 380.601 416C380.901 414.5 381.101 412.9 381.401 411.3C382.301 405.6 383.001 399.8 383.701 394C384.701 385.9 385.701 377.9 386.701 369.8C387.801 360.5 388.901 351.1 390.001 341.8C391.101 332.3 392.201 322.8 393.301 313.3C394.301 304.8 395.201 296.2 396.201 287.7L398.401 268.6C398.701 265.5 399.201 262.4 399.401 259.2C399.401 259.1 399.401 258.9 399.401 258.8C399.501 256.5 394.901 255.1 394.601 258.1Z" fill="#000005"/>
<path d="M349.301 106.601C349.301 106.601 341.601 114.701 333.501 114.201C325.401 113.701 310.001 110.301 308.001 118.101C306.001 125.901 316.601 129.101 323.501 128.001C323.501 128.001 320.901 148.701 333.101 154.801C345.301 160.901 351.201 157.701 351.801 166.201C351.801 166.201 368.801 171.901 371.001 156.001C371.301 153.501 376.501 132.401 357.701 121.901C357.701 121.901 347.001 116.701 349.301 106.601Z" fill="white"/>
<path d="M347.602 104.801L347.402 105.001C347.302 105.101 346.802 105.601 347.002 105.401C346.302 106.001 345.602 106.601 344.902 107.201C342.802 108.901 340.402 110.301 337.902 111.201C333.102 112.801 327.702 111.401 322.802 111.001C318.402 110.701 312.602 110.201 308.802 112.901C304.602 116.001 305.102 122.201 308.402 125.701C312.302 129.901 318.902 131.101 324.402 130.301L321.602 127.101C321.002 132.701 321.402 138.401 323.002 143.801C324.102 148.101 326.502 151.901 329.802 154.901C333.702 158.201 339.102 159.701 343.902 161.001C344.902 161.301 345.902 161.501 346.702 161.801C347.102 161.901 347.502 162.101 347.902 162.301L348.302 162.501L348.602 162.701C348.402 162.601 348.402 162.601 348.602 162.701C348.802 162.801 348.902 162.901 349.002 163.001C349.502 163.401 348.602 162.701 349.002 163.001C349.402 163.601 349.102 163.101 349.002 163.001C349.102 163.101 349.402 163.801 349.102 163.201C349.402 163.901 349.602 164.601 349.602 165.401C349.602 166.701 350.302 167.801 351.502 168.401C355.102 169.601 358.902 169.901 362.602 169.201C365.502 168.601 368.102 167.001 369.902 164.701C371.002 163.201 371.802 161.501 372.202 159.701C372.502 158.801 372.602 157.901 372.702 156.901C372.702 156.501 372.602 157.501 372.702 157.101C372.702 157.001 372.702 156.801 372.802 156.701C373.802 151.701 373.902 146.501 373.102 141.401C371.702 133.201 367.002 126.001 360.202 121.401C359.402 120.801 358.502 120.301 357.602 119.801C357.302 119.601 356.802 119.301 357.302 119.601C356.802 119.301 356.302 119.001 355.902 118.701C355.602 118.501 355.302 118.301 355.102 118.001L354.802 117.701L354.502 117.401C354.702 117.601 354.702 117.601 354.502 117.401C353.902 116.801 353.302 116.201 352.702 115.501C352.402 115.101 353.002 116.001 352.602 115.301L352.202 114.601C352.002 114.301 351.702 113.701 351.702 113.701C350.902 111.901 350.702 109.801 351.102 107.901C351.302 106.701 350.802 105.401 349.802 104.701C349.102 104.201 347.602 103.901 347.302 105.201C345.802 112.501 349.902 119.301 356.002 123.101C358.402 124.401 360.602 126.001 362.702 127.801C365.202 130.201 367.102 133.201 368.302 136.601C369.202 139.401 369.702 142.301 369.802 145.301C369.902 147.701 369.702 150.001 369.402 152.401C369.402 152.601 369.202 153.801 369.302 153.201C369.302 153.501 369.202 153.801 369.102 154.101C368.902 155.401 368.602 156.601 368.302 157.901C367.502 160.701 365.502 162.901 362.802 164.001C360.402 164.901 357.902 165.201 355.402 164.801C354.402 164.701 353.502 164.501 352.502 164.301L351.602 164.101C351.102 164.001 352.102 164.301 351.702 164.101L353.602 167.101C353.302 163.001 351.702 159.501 347.702 157.901C345.902 157.201 344.002 156.701 342.102 156.201C339.502 155.501 337.002 154.601 334.602 153.501C332.702 152.701 330.902 151.501 329.502 150.001C328.402 148.701 327.502 147.101 326.902 145.501C325.702 142.201 325.102 138.801 325.002 135.301C324.902 133.201 325.002 131.001 325.202 128.901C325.402 127.501 323.902 125.501 322.402 125.701C320.202 126.001 318.002 125.901 315.802 125.401C314.802 125.201 313.902 124.901 313.002 124.501C312.102 124.101 311.302 123.701 310.602 123.101C310.502 123.001 309.802 122.201 310.002 122.501C309.902 122.301 309.702 122.101 309.602 121.901C309.802 122.401 309.502 121.701 309.502 121.601C309.402 121.301 309.402 121.101 309.402 120.801C309.402 120.301 309.402 119.801 309.602 119.401C310.102 117.901 311.202 116.701 312.802 116.201C316.702 114.601 321.602 115.201 325.702 115.601C328.002 115.801 330.202 116.101 332.502 116.301C335.202 116.601 337.902 116.201 340.402 115.301C344.302 113.801 347.802 111.401 350.702 108.301C352.402 106.901 349.402 103.001 347.602 104.801Z" fill="#000005"/>
<path d="M376.802 149.1C376.802 149.1 386.702 154.6 390.002 149.4C393.302 144.2 386.002 143.7 386.002 143.7C386.002 143.7 397.002 134.1 386.702 129.2C386.702 129.2 398.102 122.7 393.202 112.6C388.302 102.5 372.702 104.2 372.702 104.2C372.702 104.2 376.502 91.5999 365.002 90.3999C353.502 89.1999 354.202 97.4999 354.202 97.4999C354.202 97.4999 346.902 96.5999 345.502 100.9C344.102 105.2 349.002 108.3 349.002 108.3C349.002 108.3 347.702 121.3 357.802 122L363.002 140.1C360.102 143.2 359.102 147.6 360.202 151.7C362.102 158.4 375.102 157.3 376.802 149.1Z" fill="#000005"/>
<path d="M374.699 148.7C375.999 149.4 377.399 150 378.899 150.5C381.699 151.6 384.599 152.2 387.599 152.3C390.099 152.2 392.199 151.2 393.099 148.7C393.899 146.6 392.499 145.3 390.699 144.5C388.599 143.6 386.399 143.1 384.099 142.9L388.599 144.2C390.399 142.6 391.899 140.7 392.899 138.6C393.699 137.1 393.899 135.4 393.499 133.8C392.899 131.7 390.899 130.4 388.999 129.4L389.199 129.7C393.999 127 397.999 121.6 396.799 115.9C394.899 107.1 384.899 104.2 377.199 103.4C374.999 103.1 372.799 103.1 370.599 103.3L375.299 104.6C376.399 101 376.299 96.2003 373.499 93.3003C372.299 92.1003 370.799 91.2003 369.099 90.7003C366.599 89.8003 363.999 89.4003 361.399 89.3003C358.399 89.2003 354.899 89.8003 353.099 92.4003C352.299 93.6003 351.799 95.1003 351.899 96.6003H352.699C350.299 96.2003 347.799 96.5003 345.499 97.5003C341.899 99.4003 342.799 103.7 345.199 106.2C345.599 106.6 345.999 107 346.399 107.3C346.499 107.4 346.699 107.5 346.799 107.5C346.799 107.6 346.699 107.3 346.799 107.5C346.799 108.1 346.799 108.7 346.799 109.4C346.799 112 347.399 114.6 348.699 116.9C350.999 120.9 355.899 122.1 360.199 122.4L355.699 121.1L357.999 129.2L359.699 135.2C360.199 136.4 360.499 137.7 360.799 138.9C360.799 139.6 359.999 140.2 359.599 140.9C358.099 143.2 357.399 145.8 357.599 148.5C357.599 150.7 358.699 152.8 360.499 154.1C362.899 155.4 365.599 156.2 368.299 156.3C373.099 156.8 378.499 154.4 379.599 149.3C379.699 148.8 374.799 147.6 374.699 148.1C373.799 152.2 369.999 154.8 365.999 155C365.599 155 365.199 155 364.799 155C363.999 155 365.899 155.1 365.799 155.3C365.699 155.5 363.899 153.9 363.799 153.7C362.299 151.8 362.199 148.9 362.499 146.7C362.799 144.6 363.699 142.7 364.999 141C365.499 140.3 365.699 140.4 365.499 139.6L362.899 130.5L360.499 122.1C360.399 121.7 359.099 121.4 358.799 121.3C357.899 121 356.999 120.8 355.999 120.7C355.699 120.7 354.699 120.6 356.499 120.9C356.899 121.1 356.799 120.9 356.499 120.9C356.199 120.7 355.799 120.5 355.499 120.3C354.899 119.8 354.299 119.2 353.799 118.5C352.899 117.1 352.299 115.6 351.899 114C351.499 112.2 351.399 110.3 351.499 108.4L351.399 108.3C348.799 106.6 346.399 102.9 348.499 99.9003C349.499 98.4003 351.499 97.9003 353.199 97.7003C353.899 97.6003 354.499 97.6003 355.199 97.6003H355.899C355.799 97.6003 355.399 97.6003 355.899 97.6003C355.799 97.6003 356.699 97.7003 356.699 97.6003C356.599 94.3003 358.899 91.3003 362.199 90.7003C362.999 90.5003 363.799 90.4003 364.599 90.4003C365.099 90.4003 365.699 90.4003 366.199 90.4003C366.499 90.4003 367.699 90.7003 366.899 90.4003C366.099 90.1003 366.799 90.4003 366.999 90.5003C367.299 90.6003 367.499 90.8003 367.799 91.0003C368.299 91.4003 368.799 91.9003 369.199 92.5003C370.499 94.4003 371.199 96.7003 370.999 99.0003C370.999 100.4 370.799 101.8 370.399 103.1C370.199 103.7 374.599 104.5 375.099 104.4C376.499 104.3 377.899 104.3 379.299 104.4C380.499 104.5 381.599 104.6 382.699 104.8H382.899C383.399 104.9 382.299 104.6 383.099 104.9L383.499 105.1C384.299 105.4 384.999 105.8 385.799 106.2C388.999 108.1 391.299 111.3 391.899 115C392.299 118.3 391.199 121.7 388.999 124.2C388.099 125.2 387.099 126.2 385.999 127C385.599 127.3 385.299 127.5 384.899 127.8C384.799 127.9 384.299 128.2 384.499 128.1C384.299 128.2 384.499 128.3 384.699 128.4C386.599 129.3 388.299 130.7 388.699 132.8C388.899 134.4 388.599 136 387.799 137.4C386.799 139.4 385.399 141.1 383.699 142.6C383.599 142.7 385.399 143.4 385.399 143.4C386.299 143.7 387.199 143.9 388.199 144C387.999 144.1 387.599 144 388.199 144C388.399 143.9 387.799 143.9 388.199 144L387.699 143.9L386.999 143.7C387.099 143.7 387.199 143.8 387.299 143.9C387.599 144.1 387.899 144.3 388.099 144.6C389.299 146.2 387.899 148.8 386.399 149.8C385.499 150.4 384.499 150.7 383.399 150.6C383.099 150.6 382.499 150.5 382.299 150.5C382.099 150.5 381.999 150.4 382.399 150.5C382.299 150.5 382.099 150.4 381.999 150.4C380.999 150.1 379.999 149.6 378.999 149.1C377.999 148.6 376.899 148.3 375.699 148.1C375.399 148.4 373.799 148.2 374.699 148.7Z" fill="#000005"/>
<path d="M353.5 123.9C353.5 123.9 359.3 115.7 365 119.1C370.7 122.5 368 142.2 357 138.8" fill="white"/>
<path d="M355.8 124.4L355.9 124.3C355.8 124.5 355.4 125 355.9 124.3C356.3 123.9 356.6 123.5 357 123C357.9 122 358.9 121.2 360.1 120.5C359.8 120.7 360.4 120.3 360.4 120.4C360.6 120.3 360.8 120.2 361 120.2C361.6 120 360.5 120.2 361.2 120.2L361.6 120.1C362.2 120 361.1 120 361.8 120.1C361.8 120.1 362.6 120.2 362.1 120.1C362.3 120.1 362.5 120.2 362.6 120.2C362.7 120.2 362.7 120.2 362.6 120.2L363.1 120.4C363.2 120.5 363.9 120.9 363.3 120.5L363.5 120.7C363.7 120.9 363.8 121 364 121.1C363.6 120.7 364 121.2 364.1 121.3C364.3 121.6 364.4 121.8 364.6 122.1C364.6 122.2 364.9 122.9 364.8 122.4C364.9 122.6 365 122.9 365 123.2C365.2 123.8 365.3 124.4 365.4 125C365.5 125.6 365.5 126.2 365.5 126.8C365.5 127.4 365.5 126.4 365.5 127C365.5 127.2 365.5 127.3 365.5 127.4C365.5 127.8 365.5 128.2 365.4 128.5C365.3 129.8 365 131.1 364.6 132.3C364.6 132.3 364.4 132.9 364.5 132.5C364.4 132.7 364.4 132.8 364.3 133C364.2 133.2 364.1 133.5 363.9 133.8C363.6 134.4 363.3 135 362.9 135.5C363.2 135.1 362.6 135.8 362.5 135.9C362.3 136.2 362 136.4 361.7 136.7C362.2 136.3 361.4 136.8 361.3 137C361.2 137.2 360.7 137.3 361.3 137L360.9 137.2L360.5 137.3C361.2 137 360.7 137.3 360.5 137.3L360.1 137.4C359.7 137.5 360.7 137.4 360 137.4H359.5C359 137.4 359.9 137.5 359.4 137.4C358.9 137.3 358.5 137.2 358.1 137.1C356.9 136.8 355.6 137.3 354.9 138.3C354.3 139.4 355.2 140.2 356.2 140.5C359.8 141.6 363.6 140.7 366.3 138.1C368.5 135.7 369.9 132.8 370.3 129.6C370.9 126.6 370.6 123.5 369.4 120.6C367.7 116.9 363.3 115.9 359.6 117C356.2 118.2 353.3 120.5 351.3 123.5C350.6 124.5 351.7 125.5 352.6 125.7C353.8 126 355.1 125.5 355.8 124.5V124.4Z" fill="#000005"/>
<path d="M332.901 132.801C332.901 132.901 332.801 132.901 332.801 133.001C332.801 133.101 332.701 133.101 332.701 133.201C332.601 133.501 332.901 132.901 332.801 133.001L332.701 133.201C332.401 133.801 332.001 134.401 331.601 134.901C331.301 135.201 331.001 135.601 330.701 135.901C330.501 136.101 330.401 136.201 330.201 136.401C330.501 136.201 330.001 136.601 330.201 136.401L329.901 136.601C329.501 136.901 329.101 137.201 328.701 137.401C328.501 137.501 328.201 137.601 328.001 137.701C328.401 137.601 327.701 137.801 328.001 137.701L327.601 137.801C327.301 137.901 327.001 138.001 326.701 138.001C326.601 138.001 326.101 138.101 326.401 138.001C326.701 137.901 326.201 138.001 326.101 138.001C325.801 138.001 325.401 138.001 325.101 138.001H324.901C324.401 137.901 325.301 138.101 325.001 138.001L324.401 137.901C323.401 137.701 322.101 138.001 322.201 139.301C322.401 140.601 323.301 141.601 324.501 141.901C327.301 142.701 330.401 142.301 332.901 140.701C334.501 139.601 335.801 138.201 336.801 136.501C337.101 136.001 337.301 135.601 337.501 135.101C337.601 134.601 337.501 134.001 337.301 133.501C337.001 132.901 336.501 132.501 335.901 132.201C334.601 131.701 333.401 131.701 332.901 132.801Z" fill="#000005"/>
<path d="M341.682 120.692C342.614 120.583 343.287 119.783 343.184 118.906C343.081 118.028 342.242 117.405 341.31 117.514C340.377 117.623 339.704 118.423 339.807 119.301C339.91 120.179 340.749 120.802 341.682 120.692Z" fill="#000005"/>
<path d="M225.399 211.6C217.399 202.8 199.199 207.4 197.199 202.5C195.199 197.6 205.199 194.9 209.099 196.2C209.099 196.2 201.499 191.4 207.999 183.7C207.999 183.7 205.999 181.5 204.399 174.8C202.799 168.1 206.499 165.7 206.499 165.7C210.199 163.8 212.699 165.6 214.899 171.7C217.099 177.8 229.399 185.4 229.399 185.4C235.599 181.8 234.499 178.2 230.999 175.5C227.499 172.8 224.599 173.6 224.799 169.1C224.999 164.6 230.299 164.7 238.499 168.1C246.699 171.5 250.699 187.1 247.499 190.8C247.499 190.8 263.199 204.6 270.599 204.6C277.999 204.6 315.099 182.4 315.099 182.4L326.499 216.6C326.499 216.6 295.699 236 272.899 237.1C250.099 238.2 225.399 211.6 225.399 211.6Z" fill="white"/>
<path d="M227.202 210C222.402 204.8 214.602 204.1 208.002 203.5C205.402 203.3 202.802 203.3 200.402 202.3C200.302 202.3 200.102 202.2 200.402 202.3L200.102 202.2C199.902 202.1 199.802 202 199.602 201.9C199.202 201.6 199.602 201.9 199.402 201.7C199.302 201.6 199.202 201.4 199.102 201.2C199.002 200.9 199.002 200.7 199.002 200.4C199.002 200.4 199.102 200 199.102 200.1C199.102 200 199.302 199.7 199.202 199.9C199.102 200.1 199.302 199.8 199.302 199.7C199.302 199.6 199.702 199.3 199.402 199.6C199.502 199.5 199.702 199.4 199.802 199.2C200.102 199 199.502 199.4 199.802 199.2L200.402 198.8C200.802 198.6 200.102 198.9 200.502 198.7C200.702 198.6 200.902 198.5 201.102 198.5C201.802 198.2 202.602 198 203.302 197.9C204.602 197.6 206.002 197.6 207.302 197.9C208.402 198.1 209.502 197.7 210.302 196.9C210.802 196.3 211.502 195.1 210.602 194.5C209.502 193.8 208.702 192.9 208.102 191.8C206.602 189.1 207.702 186.4 209.502 184.2C210.102 183.6 210.102 182.6 209.602 182C210.202 182.7 209.702 182.1 209.502 181.9C209.202 181.4 208.902 180.9 208.602 180.3C207.602 178.2 206.902 176.1 206.402 173.9C205.802 172 205.902 170 206.502 168.1C206.602 168 207.002 167.1 206.702 167.6C206.802 167.4 207.002 167.2 207.202 167C207.402 166.8 206.802 167.4 207.202 167C207.602 166.6 207.102 166.9 206.902 167.2C206.702 167.5 207.202 167.1 207.402 167C207.302 167 208.002 166.9 207.702 166.9C208.402 166.9 209.002 167.2 209.402 167.7C211.002 169.2 211.602 171.5 212.402 173.4C213.902 176.9 217.202 179.7 220.202 182.1C222.402 183.9 224.702 185.5 227.102 187C228.002 187.4 229.002 187.4 229.802 186.8C232.202 185.4 235.002 183.3 235.602 180.4C235.902 178.4 235.202 176.4 233.702 175C232.102 173.3 230.002 172.6 228.002 171.4C226.802 170.5 226.302 168.9 226.902 167.5C227.002 167.2 226.702 167.5 227.002 167.4L226.802 167.6C227.002 167.4 227.002 167.4 226.702 167.7C227.002 167.1 226.602 167.9 226.602 167.7C226.602 167.5 226.702 167.7 226.802 167.6C227.702 167.5 228.702 167.5 229.602 167.7C232.302 168.1 234.902 169 237.202 170.3C240.802 172.3 243.002 176.4 244.402 180.1C245.202 182.1 245.602 184.3 245.802 186.5C245.902 187.3 245.802 188.2 245.702 189C245.702 189.2 245.402 190 245.502 189.7C245.402 189.8 245.402 190 245.302 190.1C245.102 190.5 245.602 189.8 245.202 190.2C244.602 190.8 244.602 191.7 245.102 192.4C248.902 195.7 252.902 198.8 257.102 201.5C259.902 203.5 262.902 205 266.202 206.1C268.402 206.7 270.802 206.6 272.902 205.9C278.302 204.3 283.402 201.6 288.302 199C294.102 196 299.902 192.8 305.602 189.5C308.902 187.6 312.102 185.7 315.402 183.8L312.302 183.2L322.302 213.1L323.702 217.4L325.202 215.2C321.402 217.6 317.502 219.7 313.602 221.8C305.502 226.1 297.002 229.6 288.302 232.4C283.902 233.8 279.402 234.7 274.802 235.2C270.402 235.6 266.102 235 261.902 233.7C253.402 231.1 245.702 226.1 238.702 220.6C234.802 217.4 230.802 213.9 227.202 210C226.402 209.2 224.602 210 224.002 210.6C223.202 211.3 222.702 212.3 223.502 213.2C226.602 216.5 230.002 219.6 233.502 222.5C240.402 228.2 248.102 233.4 256.602 236.5C260.902 238.2 265.502 239.1 270.202 239.2C275.002 239.1 279.802 238.5 284.402 237.2C294.102 234.6 303.502 230.9 312.402 226.3C317.402 223.8 322.402 221.2 327.202 218.2C327.802 217.8 329.002 216.8 328.702 216L318.702 186.1L317.302 181.8C316.802 180.4 315.202 180.6 314.202 181.2C306.302 185.9 298.302 190.4 290.202 194.7C287.402 196.2 284.602 197.6 281.702 199L281.302 199.2L281.202 199.3L280.302 199.7L278.402 200.6C277.302 201.1 276.202 201.5 275.002 202C274.502 202.2 274.102 202.3 273.602 202.5L273.002 202.7C272.302 202.9 273.202 202.7 272.802 202.7L271.802 202.9C271.602 202.9 271.102 202.9 271.802 202.9C271.602 202.9 271.302 202.9 271.102 202.9C268.702 202.7 265.602 201 263.302 199.6C258.402 196.6 253.802 193.2 249.502 189.4L249.402 191.6C251.802 188.7 251.102 184 250.202 180.6C249.002 176.1 246.802 171.5 243.202 168.5C240.902 166.8 238.302 165.6 235.502 164.9C233.102 164 230.502 163.8 227.902 164.1C225.502 164.5 223.502 166.2 222.702 168.5C222.102 170.7 222.602 173.3 224.502 174.6C226.602 176 229.202 176.6 230.802 178.8C232.502 181.2 230.702 182.8 228.602 184L231.302 183.8C228.902 182.3 226.602 180.7 224.402 178.9C222.702 177.6 221.102 176.1 219.702 174.5C218.302 172.8 217.202 170.9 216.502 168.8C215.602 166.7 214.302 164.4 212.102 163.4C210.002 162.7 207.602 163 205.702 164.2C202.702 166 201.602 169.8 201.802 173.1C202.102 176.2 203.002 179.3 204.402 182.1C204.902 183.2 205.502 184.2 206.302 185.1L206.402 182.9C203.902 185.9 202.302 189.8 204.002 193.5C204.702 195.1 205.902 196.5 207.402 197.5L210.702 194.1C207.502 193.1 203.502 193.9 200.402 195.2C197.302 196.5 193.402 199.7 195.302 203.5C196.402 205.8 199.702 206.2 202.002 206.6C205.602 207.1 209.202 207.2 212.802 207.8C216.902 208.5 220.902 209.9 223.902 213C224.902 214.7 228.902 211.8 227.202 210Z" fill="#000005"/>
<path d="M215.2 198.201L211 196.001L210.4 195.701C209.8 195.401 209.2 195.201 208.6 195.001C208.1 194.901 207.6 194.901 207 195.001C206.7 195.101 206.4 195.301 206.5 195.701C206.7 196.101 207 196.401 207.4 196.601L211.6 198.801L212.2 199.101C212.8 199.401 213.4 199.601 214 199.801C214.5 199.901 215.1 199.901 215.6 199.801C215.9 199.701 216.2 199.501 216.1 199.201C215.9 198.701 215.6 198.401 215.2 198.201Z" fill="#000005"/>
<path d="M217.302 190.6C218.602 191.2 217.302 190.6 217.002 190.4C216.702 190.2 216.202 189.9 217.002 190.4L216.402 190.1C216.002 189.8 215.602 189.6 215.202 189.3L214.902 189.1L214.202 188.6C213.702 188.2 213.202 187.8 212.702 187.3L212.302 186.9C212.302 186.9 211.902 186.5 212.202 186.8C211.902 186.5 211.702 186.2 211.402 185.9C210.902 185.3 210.402 184.8 210.002 184.1C209.702 183.7 209.202 183.4 208.802 183.2C208.202 182.9 207.602 182.7 207.002 182.5C206.502 182.4 205.102 182.3 205.802 183.1C208.702 186.9 212.502 190 216.802 192C217.302 192.3 217.902 192.4 218.502 192.5C218.702 192.5 219.302 192.6 219.402 192.3C219.702 191.6 217.702 190.8 217.302 190.6Z" fill="#000005"/>
<path d="M316.298 226.2L332.698 220.6L333.298 258.1C333.298 258.1 391.398 260.8 399.198 259.2C399.198 259.2 398.698 170.4 373.698 158.9C348.698 147.4 322.498 173.4 310.398 184.2L316.298 226.2Z" fill="#000005"/>
<path d="M317.198 228L333.598 222.5L330.198 221L330.698 253.8L330.798 258.4C330.798 259.4 331.998 260 332.898 260.1C339.598 260.4 346.298 260.7 353.098 260.9C364.598 261.3 376.098 261.7 387.698 261.7C391.598 261.7 395.698 261.9 399.498 261.2C400.698 261 401.698 260.3 401.698 258.9C401.698 256.3 401.598 253.6 401.498 251C401.298 244.4 400.898 237.8 400.298 231.2C399.598 222.7 398.598 214.3 397.198 205.9C395.898 197.4 393.898 188.9 391.298 180.7C389.098 174.2 386.298 167.5 381.698 162.2C375.498 155.3 365.398 153.3 356.498 154.3C344.698 155.7 333.998 162.1 324.698 169.2C320.498 172.4 316.498 175.9 312.498 179.5L310.098 181.6C309.198 182.4 307.898 183.2 307.898 184.6C307.898 185 307.998 185.4 308.098 185.8L310.898 205.7L313.698 225.4L313.898 226.5C314.298 229.1 319.198 228.5 318.898 225.9L313.698 189.2L312.998 184L312.398 185.5C323.898 175.2 335.898 163.9 351.198 159.5C358.398 157.4 366.998 157.5 373.398 161.2C373.798 161.4 374.198 161.7 374.498 161.9L374.998 162.3L375.298 162.5C375.398 162.6 374.998 162.2 375.298 162.6C376.098 163.3 376.798 164 377.498 164.7C378.998 166.3 380.198 168.1 381.198 170C386.998 180.1 389.498 191.8 391.598 203.2C393.698 215.3 395.098 227.5 395.798 239.7C396.098 244.1 396.298 248.5 396.398 252.8C396.498 254.9 396.398 257.1 396.498 259.2C396.498 259.3 396.498 259.4 396.498 259.5L398.698 257.2C397.498 257.4 396.298 257.5 395.098 257.5C394.198 257.5 393.298 257.6 392.398 257.6H391.698H391.498H389.698C384.298 257.6 378.898 257.5 373.498 257.4C362.598 257.2 351.598 256.8 340.698 256.3L333.498 256L335.498 257.7L335.098 224.9L334.998 220.3C334.998 218.7 332.698 218.4 331.598 218.8L315.198 224.4C314.098 224.6 313.398 225.7 313.698 226.8C313.698 226.9 313.698 227 313.798 227.1C314.698 228.1 315.998 228.5 317.198 228Z" fill="#000005"/>
<path d="M348.2 211C348.2 211 337.8 219.3 330.5 221.4Z" fill="#000005"/>
<path d="M346.001 209.801C344.101 211.301 342.001 212.801 340.001 214.201C336.501 216.501 332.701 219.001 328.701 220.101C327.701 220.401 328.501 221.201 329.001 221.601C329.701 222.101 331.301 223.001 332.301 222.701C336.501 221.301 340.501 219.301 344.101 216.701C346.201 215.301 348.301 213.801 350.301 212.201C351.201 211.401 347.101 209.001 346.001 209.801Z" fill="white"/>
<path d="M337.901 259.101C337.901 259.101 327.201 360.301 401.301 416.401L434.101 385.701C434.101 385.701 381.001 348.601 399.101 259.201L337.901 259.101Z" fill="white"/>
<path d="M335.402 258.6C335.002 262.1 334.902 265.7 334.902 269.2C334.802 278.3 335.202 287.4 336.202 296.4C337.602 309.1 340.102 321.6 343.702 333.9C347.902 348.2 353.902 361.9 361.502 374.6C370.202 389 381.302 401.8 394.202 412.6C395.902 414 397.602 415.4 399.402 416.7C400.302 417.4 402.602 418 403.602 417.1L414.702 406.7L432.302 390.2L436.402 386.4C436.802 386 436.302 385.5 436.002 385.3C435.502 385 435.102 384.6 434.602 384.2C434.302 384 434.102 383.8 433.802 383.6C433.502 383.4 434.202 383.9 433.902 383.7L433.702 383.5L433.202 383.1C432.502 382.5 431.802 381.9 431.102 381.2C426.802 377.1 422.902 372.6 419.402 367.7C414.302 360.5 410.002 352.8 406.802 344.6C402.502 333.8 399.702 322.4 398.502 310.8C397.102 295.9 397.702 280.8 400.302 266C400.702 263.9 401.102 261.8 401.502 259.6C401.802 258.3 398.702 258 398.002 258H377.202L344.402 257.9H336.802C336.102 257.9 335.002 258.3 335.602 259.1C336.202 259.9 337.902 260.1 338.902 260.1H359.702L392.502 260.2H400.102L396.602 258.6C393.402 273.9 392.202 289.7 393.202 305.3C394.002 317.4 396.502 329.3 400.602 340.7C403.802 349.4 408.002 357.7 413.202 365.4C416.802 370.7 420.902 375.7 425.402 380.2C426.802 381.6 428.302 383 429.902 384.3C430.502 384.9 431.202 385.5 432.002 385.9L432.102 386L431.702 384.9L420.602 395.3L403.002 411.8L398.902 415.7L403.102 416.1C389.702 405.9 378.102 393.5 369.002 379.4C360.902 366.8 354.402 353.1 349.902 338.8C346.002 326.5 343.202 313.9 341.502 301.2C340.302 291.8 339.702 282.3 339.702 272.7C339.702 269.8 339.802 266.8 339.902 263.9C340.002 262.6 340.202 261.2 340.202 259.9C340.202 259.8 340.202 259.8 340.202 259.7C340.502 258 335.602 257.2 335.402 258.6Z" fill="#000005"/>
<path d="M258.898 184.3L229.698 182L218.398 168.2V159.9L246.398 159.4L259.798 181.5" fill="#59BE4C"/>
<path d="M258.798 184.8L229.398 182.4L217.898 168.3V159.4L246.698 158.9L260.198 181.2L259.398 181.8L246.098 159.9L218.898 160.4V168L229.898 181.5L258.898 183.8L258.798 184.8Z" fill="#59BE4C"/>
<path d="M289.001 166.6C289.001 165.5 289.101 164.3 289.301 163.2C289.601 161.5 290.001 159.8 290.501 158.1C291.001 156.4 291.401 154.8 292.001 153.1C292.301 152 292.801 150.9 293.401 150C293.801 149.4 291.601 149.9 291.501 150C290.701 150.2 289.201 150.6 288.701 151.4C288.101 152.4 287.601 153.6 287.301 154.7C286.701 156.3 286.201 158 285.801 159.7C285.401 161.4 285.001 163.1 284.701 164.7C284.401 165.9 284.301 167.1 284.301 168.3C284.301 168.8 286.601 168 286.801 167.9C287.201 167.7 289.101 167.2 289.001 166.6Z" fill="#000005"/>
<path d="M212 222.499C210 225.999 207.7 229.399 205.1 232.399C198.8 239.999 191.2 246.299 182.7 251.199C170.3 258.099 156.4 261.899 142.3 262.299C125.8 262.799 109.5 259.599 94.4999 252.799C82.0999 247.199 70.7999 239.399 60.9999 229.999C53.9999 223.299 47.1999 215.599 43.0999 206.799C42.0999 204.599 40.8999 201.799 41.2999 199.399C41.7999 196.099 46.9999 195.699 49.5999 195.699C52.5999 195.699 55.5999 196.199 58.3999 197.199C58.9999 197.399 59.6999 197.599 60.1999 197.799C60.8999 198.099 61.7999 198.399 62.0999 198.599C62.3999 198.799 62.7999 198.899 63.0999 199.099L63.5999 199.299C63.2999 199.099 63.6999 199.399 63.6999 199.399C64.2999 199.699 64.7999 200.099 65.2999 200.499C67.2999 201.799 68.7999 203.799 69.5999 205.999C70.2999 208.399 69.3999 210.799 68.2999 212.899C65.1999 218.799 59.4999 223.599 53.9999 227.199C51.1999 228.999 48.2999 230.499 45.1999 231.599C43.8999 232.099 42.4999 232.399 41.0999 232.599C40.4999 232.699 39.9999 232.699 39.3999 232.699C39.0999 232.699 38.8999 232.699 38.5999 232.599C38.6999 232.599 38.3999 232.599 38.4999 232.599C38.0999 232.499 38.2999 232.499 38.2999 232.599C38.2999 232.699 37.5999 232.299 38.3999 232.699C38.5999 232.799 38.7999 232.899 38.9999 232.999C38.5999 232.799 39.0999 233.099 39.0999 233.099C39.0999 232.999 38.7999 232.999 39.0999 233.099C38.7999 232.699 38.5999 232.599 38.2999 232.199C37.6999 231.299 37.1999 230.299 36.8999 229.299C36.0999 226.799 35.5999 224.099 35.4999 221.499C35.1999 216.499 35.2999 211.399 35.8999 206.399C35.9999 205.499 36.0999 204.599 36.1999 203.699C36.3999 202.399 31.7999 200.899 31.7999 201.399C31.2999 204.799 31.0999 208.299 30.9999 211.799C30.7999 217.299 30.7999 223.499 32.9999 228.699C35.2999 234.099 41.2999 236.299 46.7999 235.099C53.4999 233.599 59.7999 229.399 64.7999 224.899C67.4999 222.599 69.7999 219.999 71.6999 217.099C73.0999 214.899 74.3999 212.299 74.0999 209.599C73.7999 206.899 72.1999 204.799 70.3999 202.999C67.6999 200.599 64.6999 198.599 61.3999 197.199C55.5999 194.499 48.4999 192.599 42.0999 193.699C40.4999 193.999 38.1999 194.599 37.1999 196.099C36.6999 196.899 36.5999 197.899 36.6999 198.799C36.8999 201.899 38.3999 204.899 39.7999 207.599C42.1999 211.899 44.9999 215.899 48.1999 219.699C56.9999 230.199 67.4999 239.299 79.2999 246.399C93.4999 255.399 109.4 261.299 126 263.999C142.5 266.399 159.6 265.399 175.3 259.499C186.3 255.299 196.2 248.899 204.5 240.599C209.1 236.199 213 231.299 216.3 225.799C216.4 225.499 216.6 225.299 216.7 224.999C216.9 223.899 212.4 221.599 212 222.499Z" fill="#59BE4C"/>
<path d="M50.2998 99.0999C52.2998 95.5999 54.5998 92.1999 57.1998 89.1999C63.4998 81.6999 71.0998 75.2999 79.5998 70.3999C91.9998 63.4999 105.9 59.6999 120.1 59.2999C136.6 58.7999 152.9 62.0999 167.9 68.7999C180.3 74.4999 191.6 82.1999 201.4 91.5999C208.3 98.2999 215.2 106 219.3 114.8C220.3 117 221.5 119.8 221.1 122.1C220.6 125.4 215.5 125.8 212.8 125.8C209.8 125.8 206.8 125.3 203.9 124.3C203.3 124.1 202.6 123.9 202.1 123.7C201.4 123.4 200.5 123 200.2 122.9L199.2 122.4L198.7 122.1C199 122.3 198.6 122.1 198.6 122C197.9 121.6 197.5 121.3 197 120.9C195 119.6 193.5 117.6 192.8 115.4C192.1 113 193 110.6 194.1 108.5C197.2 102.6 202.9 97.7999 208.4 94.2999C211.1 92.4999 214.1 90.9999 217.1 89.8999C218.4 89.3999 219.8 89.0999 221.2 88.8999C221.8 88.8999 222.3 88.8999 222.9 88.8999C223.2 88.8999 223.4 88.8999 223.7 88.9999C223.6 88.9999 223.8 88.9999 223.8 88.9999C224.2 89.0999 224 89.0999 224 88.9999C224 88.8999 224.6 89.2999 223.9 88.9999C223.7 88.8999 223.5 88.7999 223.3 88.6999C223.7 88.8999 223.2 88.6999 223.2 88.5999C223.5 88.6999 223.2 88.6999 223.2 88.5999C223.5 88.9999 223.7 89.0999 224 89.4999C224.6 90.3999 225.1 91.3999 225.4 92.3999C226.2 94.8999 226.7 97.5999 226.8 100.2C227.1 105.2 227 110.3 226.4 115.3C226.3 116.2 226.2 117.1 226.1 118C225.9 119.3 230.5 120.8 230.5 120.3C231 116.9 231.2 113.4 231.3 109.9C231.5 104.4 231.5 98.1999 229.3 93.0999C226.9 87.6999 221 85.4999 215.5 86.6999C208.8 88.1999 202.5 92.4999 197.5 96.8999C194.9 99.1999 192.5 101.8 190.6 104.7C189.2 106.9 187.9 109.5 188.2 112.2C188.5 114.9 190.1 117 191.9 118.8C194.6 121.2 197.6 123.2 200.9 124.6C206.7 127.3 213.8 129.2 220.2 128.1C221.8 127.8 224.1 127.2 225.1 125.8C225.6 125 225.7 124 225.6 123.1C225.4 120 223.9 116.9 222.5 114.3C220.1 110 217.3 106 214.1 102.2C205.2 91.6999 194.8 82.6999 183 75.4999C168.8 66.4999 152.9 60.5999 136.3 57.9999C119.9 55.4999 102.7 56.5999 87.0998 62.4999C76.0998 66.6999 66.0998 73.0999 57.7998 81.2999C53.2998 85.6999 49.3998 90.5999 46.1998 95.9999C45.9998 96.2999 45.8998 96.4999 45.7998 96.7999C45.4998 97.5999 49.8998 99.9999 50.2998 99.0999Z" fill="#59BE4C"/>
</svg>
