<svg width="500" height="500" viewBox="0 0 500 500" fill="none" xmlns="http://www.w3.org/2000/svg">
<path d="M99.6013 417.899C99.6013 417.899 82.3013 403.399 88.1013 340.899C93.9013 278.399 167.801 249.199 200.901 250.099C234.001 250.999 275.401 292.199 248.301 330.099C221.201 367.999 198.701 387.599 198.701 387.599C198.701 387.599 194.101 405.699 199.101 418.599" fill="white"/>
<path d="M101.699 417C100.899 416.3 100.299 415.5 99.6995 414.7C99.5995 414.6 99.5995 414.5 99.4995 414.4C99.7995 414.8 99.2995 414.1 99.4995 414.4C99.2995 414.1 99.1995 413.9 98.9995 413.6C98.5995 413 98.2995 412.4 97.8995 411.7C96.9995 410.1 96.2995 408.4 95.5995 406.7C90.2995 393.5 89.3995 378.6 89.3995 364.5C89.3995 358.8 89.5995 353.1 90.0995 347.4C90.3995 342.3 90.9995 337.2 91.8995 332.2C93.5995 324 96.5995 316.2 100.699 308.9C108.499 294.9 120.3 283.5 133.5 274.6C146 266.2 159.7 259.9 174.1 255.8C176.7 255.1 180.299 254.2 183.299 253.6C186.299 253 189.199 252.5 192.199 252.2H192.699H192.999L193.799 252.1L195.799 252C197.099 251.9 198.4 251.9 199.6 251.9C203.3 251.9 206.899 252.3 210.399 253.2C226.799 257.4 242.099 269.6 249.799 284.8C253.799 292.6 255.399 301.4 254.299 310.1C253.599 314.8 252.099 319.4 249.799 323.6C246.999 328.9 243.199 333.6 239.699 338.4C228.599 353.4 216.399 367.5 203.199 380.8C201.699 382.3 200.2 383.7 198.6 385.2C198 385.8 197.199 386.3 196.699 387C196.499 387.3 196.299 387.6 196.299 388C195.999 389.2 195.8 390.4 195.6 391.7C194.8 396 194.399 400.3 194.399 404.6C194.299 409.6 195.199 414.5 196.799 419.2C197.499 421.1 202.5 420.5 201.6 418.3C198.3 409.6 198.999 399.5 200.699 390.5C200.799 390 200.799 389.8 200.999 389.2C200.999 389 201.299 388.4 201.199 388.3C201.099 388.2 200.999 388.5 200.999 388.5L201.199 388.3C202.099 387.6 202.999 386.8 203.799 385.9C215.299 374.8 226.099 362.9 235.999 350.2C239.999 345.2 243.9 340.1 247.6 335C250.9 330.4 254.199 325.8 256.299 320.6C259.799 312 260.399 302.4 257.999 293.4C253.399 275.9 238.899 261.8 222.899 254.3C215.399 250.7 207.299 248.8 198.999 248.8C193.099 248.9 187.199 249.6 181.499 250.8C166.899 253.9 152.8 259.2 139.8 266.5C125.6 274.4 112.499 284.9 102.599 297.9C97.5995 304.5 93.4995 311.8 90.4995 319.6C87.0995 328.6 85.6995 337.9 84.9995 347.5C83.6995 365.2 83.6995 383.7 88.3995 401C90.0995 407 92.3995 413.8 96.7995 418.5C96.9995 418.7 97.0995 418.9 97.2995 419C98.2995 419.8 99.5995 420 100.699 419.5C101.599 418.9 102.699 417.8 101.699 417Z" fill="#000005"/>
<path d="M184.301 96.0993C184.301 96.0993 290.701 103.799 303.101 114.099C315.501 124.399 322.001 156.699 302.801 189.699C283.601 222.699 266.301 331.899 260.401 348.799C254.501 365.699 247.901 366.399 239.801 365.599C231.701 364.799 144.401 356.499 141.601 341.799C138.801 327.099 168.001 144.599 169.501 124.799C171.001 104.999 178.401 95.6993 184.301 96.0993Z" fill="#68BA7F"/>
<path d="M182.2 96.6C188.2 97 194.2 97.5 200.1 98.1C213.3 99.3 226.6 100.6 239.8 102.1C253.4 103.7 267.1 105.5 280.6 108.2C285.5 109.1 290.2 110.3 294.9 111.8C296.5 112.3 298 112.9 299.4 113.7C301.3 114.9 303 116.5 304.3 118.4C309.2 124.8 311.4 133.1 312.2 141C313.2 151.9 311.8 162.8 308.2 173.1C306.1 179.1 303.5 184.8 300.3 190.3C299 192.6 297.8 194.9 296.7 197.4C294.1 203.4 291.8 209.5 289.8 215.7C284.7 231.2 280.8 247.1 277.1 263C273.4 279 270 295.2 266.6 311.3C264.3 322.5 262.2 333.7 259.3 344.8C257.8 350.7 255.6 357 251.5 361.7C250.5 362.9 249.2 363.9 247.9 364.7C247.4 365 246.8 365.2 246.2 365.4C246 365.5 245.7 365.4 245.9 365.5C246.5 365.6 245.7 365.5 246 365.5C246.3 365.5 246.3 365.5 246 365.5C244.2 365.5 242.5 365.4 240.7 365.2C230.9 364.3 221.2 363.1 211.5 361.8C197.4 360 183.4 357.5 169.6 354.2C163.9 352.9 158.4 351.1 153 348.9C150 347.6 145.9 345.8 144.4 342.6C143.6 340.9 143.8 338.7 143.9 336.8C144 333.4 144.3 330.1 144.6 326.7C145.5 316.2 146.8 305.8 148.2 295.3C150 281.5 151.8 267.7 153.8 253.9C155.9 239 158 224.2 160.2 209.3C162.2 195.6 164.2 182 166.2 168.3C167.7 158 169.2 147.7 170.6 137.3C171 134.1 171.5 130.8 171.8 127.6C172.5 121.6 172.9 115.6 174.7 109.8C175.7 106.2 177.4 102.8 179.7 99.8C180.5 98.8 181.4 97.9 182.5 97.2C182.9 96.9 183.4 96.7 183.8 96.5C184.1 96.4 184.2 96.4 184 96.4C184.1 96.4 182.4 96.6 182.1 96.7C182.4 96.5 181.9 96.6 182.2 96.6C183.4 96.6 184.5 96.5 185.6 96.2C185.8 96.1 187.4 95.7 186.4 95.6C170.3 94.6 168.1 115.4 166.8 127C166 134.5 164.9 141.9 163.9 149.3C162.2 161.5 160.4 173.7 158.6 185.9C156.5 200.6 154.3 215.2 152.2 229.9C150 244.7 148 259.5 146 274.4C144.3 287.1 142.6 299.8 141.1 312.5C140.2 320.7 139.1 329 138.9 337.3C138.8 339.2 138.6 341.4 139.5 343.2C141.1 346.4 145.1 348.2 148.2 349.5C153.6 351.8 159.3 353.6 165 354.9C172 356.6 179.1 358 186.1 359.3C199.3 361.6 212.6 363.4 225.9 364.8C229.5 365.2 233.2 365.6 236.8 365.9C242.4 366.4 248.9 366.5 253.7 363.2C257 360.9 259.1 357.3 260.8 353.7C262 351.1 263 348.4 263.8 345.7C265 341.4 266 337.1 266.9 332.7C270 318.6 272.8 304.5 275.8 290.4C279.4 273.5 283.2 256.7 287.5 240C291.2 225.7 295.2 211.3 301.1 197.7C302.2 195.2 303.4 192.7 304.7 190.3C307.7 185.2 310.2 179.8 312.4 174.3C316.4 163.8 318 152.6 317.2 141.5C316.5 133.4 314.4 124.8 309.6 118.1C308.2 116.1 306.5 114.3 304.5 112.9C303.1 112.1 301.7 111.4 300.1 110.9C295.4 109.3 290.7 108.1 285.8 107.2C279.3 105.9 272.8 104.9 266.3 103.9C251.9 101.8 237.3 100.1 222.8 98.7C212.2 97.7 201.6 96.7 191 95.9L186.3 95.5C185.2 95.5 184 95.6 182.9 95.9C182.8 96.1 181.2 96.5 182.2 96.6Z" fill="#68BA7F"/>
<path d="M162 321.6L220.6 332.4C225.2 333.3 229.7 330.2 230.5 325.5L245.2 245.7C246.1 241.1 243 236.6 238.4 235.7C238.3 235.7 238.3 235.7 238.2 235.7L175.5 225.7C170.8 225 166.5 228.1 165.7 232.8C165.7 232.9 165.7 232.9 165.7 233L155.1 312C154.5 316.6 157.5 320.7 162 321.6Z" fill="white"/>
<path d="M215.9 282.399L237.7 286.799L229 333.899L208.4 330.199L215.9 282.399Z" fill="#000005"/>
<path d="M208.4 106.1C208.4 106.1 217 54.1998 237.1 32.7998L250.2 35.5998C250.2 35.5998 244 43.3998 251.3 43.3998C258.7 43.3998 259.1 39.0998 259.1 39.0998L274.8 42.0998C274.8 42.0998 274.8 49.4998 279.7 50.3998C284.6 51.2998 290.3 46.6998 290.3 46.6998L307.8 51.4998C307.8 51.4998 273.3 89.5998 276.6 116.1L208.4 106.1Z" fill="white"/>
<path d="M210.801 106C210.901 105.5 211.001 105.1 211.001 104.6L211.101 104.2C211.101 104.1 211.001 104.8 211.101 104.4C211.201 104 211.201 103.7 211.301 103.4C211.401 102.7 211.601 101.9 211.701 101.2C212.601 96.6996 213.601 92.2996 214.801 87.8996C218.001 75.4996 221.901 63.0996 227.501 51.6996C230.501 45.4996 234.201 39.2996 238.801 34.3996L236.401 35.0996L249.501 37.8996L248.201 34.5996C246.401 36.7996 244.401 40.3996 245.801 43.1996C247.001 45.6996 250.201 45.8996 252.701 45.5996C255.301 45.4996 257.801 44.4996 259.801 42.6996C260.801 41.6996 261.501 40.3996 261.701 38.8996L258.501 41.2996L274.201 44.2996L272.501 42.0996C272.501 45.7996 273.801 50.2996 277.401 51.9996C282.201 54.2996 288.301 51.1996 292.101 48.1996L289.701 48.8996L307.201 53.6996L306.301 49.8996C302.001 54.6996 298.001 59.6996 294.301 64.8996C287.201 74.7996 280.701 85.4996 276.801 97.1996C274.701 103.5 273.501 110.1 274.301 116.8L277.401 113.8L254.301 110.4L217.501 105L209.101 103.8C207.801 103.6 206.501 104.3 206.001 105.6C205.601 106.7 206.201 107.9 207.301 108.3C207.401 108.3 207.501 108.4 207.601 108.4L230.701 111.8L267.501 117.2L275.901 118.4C277.301 118.7 278.701 117.7 279.001 116.3C279.101 116 279.101 115.7 279.001 115.4C278.401 110.3 279.401 104.8 280.901 99.7997C282.701 94.0997 285.101 88.5996 288.001 83.3996C290.801 78.2996 294.001 73.2996 297.401 68.4996C298.801 66.4996 300.301 64.3996 301.801 62.3996C302.501 61.4996 303.201 60.5996 303.801 59.7996L304.701 58.6996L305.201 58.0996L305.301 57.8996C306.701 56.1996 308.001 54.5996 309.401 52.9996C310.601 51.6996 310.301 49.6996 308.501 49.1996L294.401 45.2996L291.501 44.4996C291.301 44.4996 291.201 44.3996 291.001 44.3996C290.401 44.2996 289.701 44.3996 289.101 44.6996C288.501 45.0996 288.701 44.9996 288.501 45.0996C288.301 45.1996 289.201 44.5996 288.801 44.8996C287.501 45.7996 286.201 46.5996 284.801 47.1996C283.301 47.7996 281.101 48.3996 279.701 47.7996C279.101 47.4996 278.701 47.0996 278.401 46.4996C278.001 45.8996 277.701 45.1996 277.601 44.4996C277.401 43.7996 277.301 43.0996 277.201 42.2996C277.201 41.9996 277.201 42.8996 277.201 42.3996C277.201 42.2996 277.201 42.1996 277.201 42.0996C277.201 41.9996 277.201 41.8996 277.201 41.8996C277.201 40.8996 276.501 39.9996 275.501 39.6996L259.801 36.6996C258.301 36.3996 256.901 37.3996 256.701 38.8996C256.701 38.9996 256.701 38.9996 256.701 39.0996C256.701 39.3996 257.001 38.3996 256.801 38.7996C256.701 38.9996 256.701 39.0996 256.601 39.2996C256.501 39.5996 256.901 38.8996 256.701 39.1996C256.601 39.2996 256.501 39.4996 256.401 39.5996C256.701 39.2996 256.101 40.0996 256.401 39.5996L256.001 39.9996C255.601 40.3996 256.501 39.7996 255.901 40.0996C255.701 40.1996 255.501 40.2996 255.301 40.3996C255.101 40.4996 255.001 40.4996 255.201 40.3996L254.801 40.4996C254.501 40.5996 254.101 40.6996 253.801 40.7996C252.701 40.9996 251.601 40.9996 250.501 40.8996C250.801 40.9996 249.901 40.6996 250.301 40.7996C250.401 40.8996 250.401 40.8996 250.201 40.7996C250.001 40.6996 250.001 40.5996 250.301 40.8996L250.201 40.7996C250.301 41.0996 250.301 41.1996 250.301 40.8996C250.301 40.1996 250.201 40.8996 250.301 40.8996C250.301 40.6996 250.301 40.5996 250.301 40.3996C250.201 40.9996 250.301 40.2996 250.401 40.1996C250.501 40.0996 250.501 39.7996 250.601 39.5996C250.701 39.3996 250.901 38.9996 250.601 39.4996C251.101 38.4996 251.701 37.5996 252.301 36.7996C253.001 35.7996 252.701 34.4996 251.701 33.7996C251.501 33.5996 251.201 33.4996 250.901 33.4996L244.101 31.9996L239.601 30.9996C238.601 30.6996 237.601 30.4996 236.501 30.6996C235.401 30.9996 234.601 32.0996 233.901 32.8996C233.201 33.6996 232.601 34.4996 231.901 35.2996C230.701 36.8996 229.501 38.4996 228.501 40.1996C226.301 43.6996 224.301 47.2996 222.601 50.9996C216.001 65.1996 211.401 80.3996 208.001 95.6996C207.201 99.1996 206.501 102.8 205.901 106.3C205.701 107.6 207.101 108.5 208.201 108.5C209.601 108.4 210.701 107.3 210.801 106Z" fill="#000005"/>
<path d="M156.601 286.599L175.201 290.699L204.801 297.199L211.601 298.699C212.801 298.799 213.901 298.599 215.001 298.099C215.401 297.999 216.701 297.399 215.701 297.199L197.101 293.099L167.501 286.599L160.701 285.099C159.501 284.999 158.401 285.199 157.301 285.699C157.001 285.899 155.601 286.399 156.601 286.599Z" fill="#68BA7F"/>
<path d="M165.1 256.3L184.2 260.2L214.3 266.4L221.3 267.8C221.9 267.9 220.5 266.3 220.4 266.2C219.7 265.4 218.9 264.8 217.9 264.4L198.8 260.5L168.7 254.3L161.7 252.9C161.1 252.8 162.5 254.5 162.6 254.5C163.2 255.3 164.1 255.9 165.1 256.3Z" fill="#68BA7F"/>
<path d="M222.701 233.099L221.001 242.899L216.801 266.399L211.701 294.899L207.301 319.499L205.901 327.699L205.501 330.199C205.401 330.599 205.301 331.099 205.301 331.499C205.301 331.599 205.301 331.599 205.301 331.699C205.301 331.899 210.201 332.299 210.301 331.499L212.001 321.699L216.201 298.199L221.201 269.699L225.601 245.099L227.001 236.899L227.401 234.399C227.501 233.999 227.601 233.499 227.601 233.099C227.601 233.099 227.601 232.999 227.601 232.899C227.601 232.799 222.801 232.299 222.701 233.099Z" fill="#68BA7F"/>
<path d="M170.8 323.3L172.3 313.7L175.9 290.6L180.2 262.8L183.9 238.7L185.1 230.8L185.5 228.3C185.6 227.9 185.7 227.4 185.7 227C185.7 226.9 185.7 226.9 185.7 226.8C185.7 226.6 183.4 227 183.2 227C182.8 227.1 180.9 227.3 180.8 227.9L179.3 237.5L175.7 260.6L171.4 288.4L167.7 312.5L166.5 320.4L166.1 322.9C166 323.3 165.9 323.8 165.9 324.2C165.9 324.2 165.9 324.3 165.9 324.4C165.9 324.6 168.2 324.2 168.4 324.2C168.8 324.1 170.7 323.8 170.8 323.3Z" fill="#68BA7F"/>
<path d="M200.6 229.6L199 239.4L195.2 263L190.6 291.5L186.6 316C186 320 185.1 324 184.6 328V328.2C184.2 330.7 188.9 332.4 189.3 329.7L190.9 319.9L194.7 296.4L199.3 267.9L203.3 243.4C203.9 239.4 204.8 235.4 205.2 231.4C205.2 231.3 205.2 231.3 205.2 231.2C205.7 228.7 201 227 200.6 229.6Z" fill="#68BA7F"/>
<path d="M170.8 197L178.1 154C178.9 149.4 183.2 146.3 187.7 147L252.8 156.4C257.5 157.1 260.7 161.4 260 166.1C260 166.2 260 166.2 260 166.3L252.3 211.8C251.5 216.4 247.1 219.6 242.5 218.8C242.4 218.8 242.4 218.8 242.3 218.8L177.6 206.9C173.1 206 170 201.6 170.8 197Z" fill="#000005"/>
<path d="M237.7 364.699C239.9 355.699 242 346.799 244.1 337.799C249 316.899 253.6 295.899 258.2 274.899C263.3 250.999 268.2 226.999 272.4 202.899C276.1 181.499 280.5 159.699 288.3 139.299C288.6 138.599 288.9 137.899 289.2 137.199C289.3 136.899 289.5 136.499 289.6 136.199C289.7 135.999 289.7 135.899 289.8 135.699L289.9 135.399C290.4 134.299 290.9 133.099 291.4 131.999C292.2 130.299 293.1 128.599 294 126.899C294.6 125.899 295.2 124.799 295.9 123.899C296.1 123.599 296.3 123.299 296.5 123.099C296.7 122.899 297 122.699 296.5 122.999L296.6 122.799C297.4 121.899 297.4 120.499 296.6 119.599C295.9 118.799 294.3 118.099 293.4 118.999C292.5 119.999 291.7 120.999 291 122.099C289 125.399 287.3 128.799 285.8 132.399C278.2 150.299 273.8 169.699 270.1 188.799C267.6 201.399 265.6 213.999 263.1 226.599C260.7 238.899 258.2 251.299 255.6 263.599C251 285.499 246.2 307.299 241.1 329.099C238.5 340.099 235.8 351.099 233.3 362.199L233.2 362.699C232.6 365.399 236.9 367.699 237.7 364.699Z" fill="#000005"/>
<path d="M201.2 106.799L228 111.099L270.4 117.899L280.1 119.499C280.7 119.599 286.8 120.699 285.7 118.699C285.2 117.699 283.5 117.099 282.7 116.699C280.9 115.899 279.1 115.399 277.2 114.999L250.4 110.699L208.1 103.999L198.4 102.399C197.8 102.299 191.7 101.199 192.8 103.199C193.3 104.199 195 104.799 195.8 105.199C197.5 105.899 199.3 106.499 201.2 106.799Z" fill="#000005"/>
<path d="M218.4 283.7C218.6 283.6 217.6 283.8 217.9 283.8C218.2 283.8 217.2 283.7 217.5 283.8C217.8 283.9 217.9 283.8 218.1 283.9H218.5C218.9 283.9 218 283.8 218.4 283.9L219.5 284.1C221.3 284.4 223 284.8 224.8 285.2C228.6 286 232.3 286.9 236.1 287.7C237.2 287.9 238.2 288.2 239.3 288.4C240.4 288.6 241.9 288.5 242.7 287.6C243.5 286.7 242.5 285.9 241.6 285.7C238.9 285.3 236.2 284.5 233.5 283.9C229.6 283 225.7 282.1 221.8 281.4C220.3 281.1 218.5 280.7 217 281.1C216.2 281.3 214.9 282 215.4 283C215.9 284 217.6 283.9 218.4 283.7Z" fill="#68BA7F"/>
<path d="M231.2 62.2996C230.8 63.8996 233.7 64.4996 234.8 64.6996C236.9 65.0996 239.1 64.9996 241.3 64.4996C243.1 64.1996 245.2 63.9996 246.5 62.6996C247.7 61.6996 247.9 59.8996 247 58.5996C246.6 58.0996 245.6 57.8996 245.1 57.6996C244.3 57.3996 243.5 57.2996 242.6 57.3996C239.2 58.1996 236.3 61.7996 238.7 65.0996C240 66.9996 242.7 67.5996 244.9 67.8996C247.1 68.0996 249.4 68.0996 251.6 67.8996C255.6 67.5996 259.9 66.6996 262.8 63.7996C264.1 62.4996 265 60.5996 264.1 58.7996C263.2 56.9996 260.3 56.2996 258.4 56.0996C254.4 55.7996 253.5 60.4996 253.3 63.5996C253.1 65.2996 253.6 66.9996 254.6 68.3996C256 70.0996 258.5 70.7996 260.7 71.1996C264.2 71.7996 268.5 71.5996 271.5 69.3996C272.9 68.4996 273.8 67.0996 273.9 65.4996C274 63.1996 270.1 62.5996 268.4 62.7996C266.3 62.9996 265.5 65.1996 265.7 66.9996C266 68.9996 267 70.7996 268.6 72.0996C270.4 73.5996 272.5 74.5996 274.7 75.0996C276.9 75.6996 279.5 75.8996 281.5 74.5996C282.1 74.1996 280.1 73.5996 280 73.5996C279.3 73.3996 277.6 72.7996 276.9 73.1996C276.3 73.5996 275.7 73.7996 275 73.9996H274.7C274.4 73.9996 274.6 73.9996 275.2 74.0996C275.3 73.9996 274.9 73.9996 274.8 73.8996C273.6 73.1996 272.6 72.2996 271.8 71.0996C271.1 69.9996 270.6 68.7996 270.6 67.3996C270.6 66.7996 270.7 66.1996 271 65.5996C271.1 65.2996 271.3 64.9996 271.5 64.7996C271.7 64.5996 272.5 64.2996 272 64.1996L269.1 63.3996C269.5 63.5996 269 65.2996 268.8 65.6996C268.4 66.5996 267.8 67.2996 267 67.8996C265.5 68.8996 263.9 69.4996 262.1 69.6996C261.7 69.6996 261.3 69.7996 260.9 69.7996C260.6 69.7996 260.4 69.7996 260.1 69.7996C259.2 69.9996 260.5 69.6996 260.5 69.9996C260.5 69.9996 259.6 69.1996 259.5 69.0996C259.1 68.5996 258.9 68.0996 258.7 67.5996C258.3 65.7996 258.3 63.9996 258.7 62.1996C258.9 61.2996 259.1 60.4996 259.5 59.6996C259.7 59.2996 259.9 58.8996 260.1 58.5996C260.2 58.3996 260.4 58.1996 260.6 58.0996C260.7 57.9996 261.3 57.7996 261.4 57.6996L260.2 57.3996C259 56.8996 258.7 56.8996 259.2 57.3996C259.3 57.5996 259.5 57.7996 259.6 57.8996C259.8 58.2996 259.9 58.7996 259.9 59.2996C259.8 60.3996 259.3 61.3996 258.6 62.0996C255.6 65.4996 250.6 66.0996 246.4 66.3996C245.8 66.3996 245.2 66.4996 244.6 66.4996C244.3 66.4996 244 66.4996 243.7 66.4996C243.1 66.4996 243.1 66.4996 243.8 66.5996C244.5 66.6996 244.5 66.7996 244.1 66.4996C243.5 65.6996 243.1 64.6996 242.9 63.6996C243 61.3996 244.6 59.3996 246.9 58.8996L242.5 57.6996C244.1 59.7996 241.7 61.8996 239.9 62.3996C238.7 62.6996 237.5 62.8996 236.3 62.9996C235.6 63.0996 234.9 63.1996 234.2 63.2996C233.2 63.5996 236.2 64.4996 236.3 63.8996C236.3 63.7996 236.2 63.4996 236.2 63.2996C236.2 62.6996 231.3 61.5996 231.2 62.2996Z" fill="#000005"/>
<path d="M228.401 87.8996C230.701 87.9996 232.901 87.4996 235.001 86.6996C237.001 85.8996 238.701 84.5996 240.001 82.8996C241.601 80.3996 238.101 79.2996 236.201 79.0996C234.301 78.8996 232.401 79.9996 231.601 81.7996C230.801 83.2996 230.501 85.2996 231.401 86.7996C232.701 88.8996 235.701 89.3996 237.801 89.6996C242.101 90.3996 246.501 89.6996 250.401 87.7996C253.001 86.4996 259.101 82.3996 256.301 78.7996C255.001 77.0996 251.701 76.3996 249.701 76.9996C247.701 77.5996 246.601 80.0996 246.201 81.9996C245.201 86.1996 247.301 90.5996 251.301 92.3996C255.101 94.2996 260.601 94.6996 263.501 91.0996C264.201 90.2996 264.701 89.2996 264.801 88.1996C264.901 86.9996 264.001 86.3996 263.001 85.9996C260.701 85.0996 257.001 84.8996 257.601 88.3996C258.601 93.3996 264.701 95.5996 269.201 95.1996C270.101 95.0996 270.201 94.6996 269.401 94.1996C268.301 93.5996 267.201 93.2996 265.901 93.3996C265.501 93.3996 265.101 93.2996 265.601 93.4996C265.401 93.3996 265.201 93.2996 265.101 93.1996C264.401 92.7996 263.801 92.1996 263.401 91.4996C262.901 90.7996 262.601 89.9996 262.401 89.0996C262.301 88.6996 262.301 88.3996 262.401 87.9996C262.401 87.6996 262.601 87.4996 262.801 87.2996C263.201 87.0996 263.101 87.0996 262.701 87.1996L260.201 86.5996C259.701 86.3996 259.801 87.1996 259.801 87.4996C259.701 87.8996 259.601 88.2996 259.401 88.6996C259.001 89.5996 258.301 90.2996 257.501 90.8996C256.801 91.3996 256.101 91.6996 255.301 91.8996C255.101 91.8996 254.801 91.9996 254.601 91.9996C254.701 91.9996 255.001 92.1996 254.801 91.9996C254.601 91.7996 254.301 91.7996 254.101 91.5996C250.701 89.2996 250.201 84.5996 251.801 81.1996C252.201 80.2996 252.901 79.3996 253.701 78.7996C254.101 78.3996 255.101 78.7996 252.901 78.3996C250.401 77.8996 251.901 77.8996 252.001 78.5996C252.001 78.9996 252.301 79.3996 252.301 79.8996C252.201 81.7996 250.401 83.3996 249.001 84.4996C246.101 86.8996 242.401 88.1996 238.701 88.2996C238.201 88.2996 237.701 88.2996 237.201 88.1996C237.001 88.1996 236.801 88.1996 236.601 88.0996C236.201 87.8996 236.801 88.2996 236.601 87.8996C236.001 87.1996 235.801 86.2996 235.901 85.3996C236.001 84.0996 237.001 80.8996 238.701 80.8996L236.901 80.6996L237.201 80.7996L235.501 80.1996C236.401 80.5996 234.601 82.4996 234.301 82.7996C233.601 83.4996 232.801 84.0996 231.901 84.5996C230.201 85.5996 228.201 86.1996 226.201 86.2996C225.701 86.2996 224.401 86.2996 225.101 87.0996C226.001 87.4996 227.201 87.8996 228.401 87.8996Z" fill="#000005"/>
<path d="M190.4 191.2L192.5 190.7L189.2 188.1C189.2 192.2 188.5 196.4 187.1 200.3C186.8 201.4 187.4 202.6 188.5 203C189.3 203.4 191.1 203.8 191.5 202.6C193 198.4 193.8 194 193.8 189.5C193.6 187.9 192.1 186.7 190.5 186.9L188.4 187.4C187.9 187.5 187.4 187.7 187.2 188.2C187 188.7 187 189.2 187.3 189.6C187.9 190.6 189.1 191.3 190.4 191.2Z" fill="white"/>
<path d="M202 187.199C198.9 187.299 196.2 188.999 194.7 191.699C193.9 193.199 193.4 194.799 193.2 196.399C192.9 197.799 192.9 199.299 193.2 200.699C194.2 204.499 198.6 205.899 202.1 204.599C203.6 203.999 205 202.999 206.2 201.799C207.2 200.799 208.1 199.699 208.8 198.399C209.7 196.799 210 194.899 209.7 193.099C209.3 191.199 208.2 189.599 206.6 188.499C205.7 187.899 204.1 187.499 203.4 188.599C202.8 189.699 203.1 190.999 204.2 191.699L204.5 191.899C204.6 191.899 204.8 192.199 204.6 191.899C204.4 191.599 204.8 192.199 204.9 192.299C204.8 192.099 204.6 191.999 204.9 192.299L205.1 192.699C205.1 192.699 205.2 192.999 205.1 192.799C205 192.599 205.2 192.999 205.2 193.099C205.2 193.199 205.2 193.299 205.3 193.499C205.3 193.499 205.3 193.199 205.3 193.399C205.3 193.599 205.3 193.899 205.3 194.099C205.3 194.499 205.3 194.299 205.3 194.199C205.3 194.299 205.2 194.399 205.2 194.499C205.1 194.799 205 195.099 204.9 195.399C204.9 195.399 204.8 195.699 204.8 195.499L204.7 195.699C204.6 195.899 204.4 196.099 204.3 196.299C204 196.799 203.6 197.299 203.2 197.699C203 197.899 202.8 198.099 202.7 198.299L202.5 198.499L202.4 198.599C202 198.999 201.5 199.299 201 199.699C200.6 199.999 200.2 200.199 199.7 200.299L199.4 200.399C199.4 200.399 198.9 200.499 199.1 200.499C199.3 200.499 198.9 200.499 198.9 200.499C198.9 200.499 198.3 200.499 198.5 200.499C198.7 200.499 198.3 200.499 198.2 200.499L197.9 200.399C198.3 200.599 198 200.399 197.9 200.399C197.8 200.399 197.6 200.199 197.8 200.399C198 200.599 197.6 200.099 197.9 200.399C198.2 200.699 197.9 200.399 197.9 200.299C198 200.299 198 200.599 197.9 200.199C197.9 200.099 197.8 199.499 197.8 199.899C197.8 199.699 197.8 199.399 197.8 199.199C197.8 198.599 197.9 198.099 197.9 197.599C197.9 197.399 198 197.199 198 196.999C198.1 196.699 198.1 196.499 198.2 196.199C198.4 195.699 198.5 195.099 198.8 194.599C199 194.199 198.9 194.399 198.8 194.499C198.9 194.299 199 194.199 199.1 193.999C199.3 193.799 199.4 193.499 199.6 193.299C199.8 193.099 200 192.899 200.2 192.699C200.4 192.499 200 192.899 200.3 192.599L200.7 192.299C200.9 192.099 201.2 191.999 201.4 191.899C201.5 191.899 201.8 191.699 201.5 191.899L201.9 191.699L202.3 191.599C202.4 191.599 202.9 191.499 202.6 191.499C202.3 191.499 202.7 191.499 202.7 191.499C202.9 191.499 203.1 191.499 203.3 191.499C204.3 191.499 205.1 190.699 205.1 189.699C205.1 189.499 205.1 189.399 205 189.199C204.4 188.099 203.3 187.299 202 187.199Z" fill="white"/>
<path d="M217.301 190C214.101 190 211.301 191.8 209.901 194.7C209.201 196.1 208.701 197.6 208.501 199.1C208.201 200.7 208.201 202.3 208.601 203.9C209.101 205.7 210.401 207.2 212.201 207.8C213.901 208.4 215.701 208.3 217.401 207.6C218.801 206.9 220.101 206 221.101 204.9C222.201 203.8 223.101 202.6 223.801 201.2C225.501 197.7 224.401 193.5 221.201 191.2C220.501 190.6 219.401 190.7 218.701 191.4C218.601 191.5 218.501 191.7 218.401 191.8C218.001 193 218.501 194.4 219.601 195.1L219.901 195.3C219.901 195.3 219.601 195 219.801 195.2C219.901 195.3 220.001 195.4 220.101 195.5C220.301 195.7 220.001 195.4 220.001 195.4C220.101 195.5 220.201 195.6 220.201 195.7C220.401 196 220.201 195.6 220.201 195.6C220.201 195.6 220.501 196.6 220.301 195.9C220.401 196.1 220.401 196.3 220.401 196.6C220.401 196.9 220.401 196.5 220.401 196.5C220.401 196.6 220.401 196.8 220.401 196.9C220.401 197 220.401 197.2 220.301 197.3C220.401 197.1 220.301 197.2 220.301 197.3C220.201 197.6 220.101 197.8 220.001 198.1C219.801 198.5 219.601 198.9 219.301 199.3C219.001 199.8 218.601 200.2 218.201 200.6C217.601 201.4 216.801 202.1 215.901 202.6C215.501 202.9 215.101 203.1 214.601 203.2C214.101 203.3 213.701 203.4 213.201 203.4L212.801 203.3C212.601 203.2 212.601 203.2 212.401 203.2C212.101 203.1 212.501 203.2 212.501 203.3C212.501 203.3 212.201 202.9 212.401 203.3C212.601 203.7 212.301 202.9 212.401 203.4C212.501 203.9 212.301 203.2 212.301 203.2C212.401 203.6 212.301 203.1 212.301 202.9C212.301 202.7 212.301 202.7 212.301 202.6C212.301 203 212.301 202.7 212.301 202.6C212.301 202 212.401 201.5 212.501 200.9C212.501 200.6 212.601 200.4 212.601 200.1C212.601 199.8 212.701 199.8 212.701 199.7C212.701 199.8 212.601 199.9 212.701 199.7C212.901 199.1 213.101 198.5 213.301 198C213.501 197.6 213.801 197.1 214.101 196.8C214.401 196.4 214.701 196.1 215.101 195.8C215.301 195.6 215.601 195.5 215.801 195.4C215.901 195.3 216.501 195.1 216.201 195.2C216.501 195.1 216.801 195 217.101 195H217.401C218.001 194.9 217.101 195 217.701 195C218.701 195 219.501 194.3 219.501 193.3C219.501 193.2 219.501 193 219.501 192.9C219.301 191.8 218.401 190.3 217.101 190.3L217.301 190Z" fill="white"/>
<path d="M236.701 195C233.301 194.9 230.201 196.4 228.201 199.2C227.401 200.4 226.901 201.8 226.701 203.3C226.401 204.6 226.301 206 226.501 207.3C227.301 211.1 232.601 210.8 235.401 209.9C238.301 208.8 240.801 206.7 242.301 204C243.101 202.7 243.501 201.2 243.301 199.7C243.001 198.2 242.101 196.8 240.901 196C240.401 195.8 239.901 195.7 239.401 195.7C238.801 195.7 238.101 195.8 237.501 196C236.801 196.2 235.901 196.8 236.701 197.4C238.301 198.6 238.801 200.8 238.101 202.6C237.201 204.6 235.901 206.4 234.101 207.7C233.901 207.8 233.801 207.9 233.601 208L233.201 208.2C233.201 208.2 232.801 208.4 233.101 208.3C233.001 208.3 232.901 208.4 232.801 208.4C232.501 208.5 233.101 208.4 232.701 208.4C232.301 208.4 232.701 208.4 232.801 208.4C233.401 208.3 232.601 208.4 232.901 208.4C233.201 208.4 232.801 208.3 232.701 208.3C232.801 208.3 232.401 208.1 232.301 208.1C231.901 207.8 231.601 207.4 231.501 207C231.301 206 231.201 205 231.401 204C231.501 202.9 231.801 201.8 232.201 200.7C232.601 199.6 233.301 198.6 234.201 197.8C234.601 197.5 235.001 197.2 235.401 197C235.101 197.1 235.401 197 235.501 197C235.901 196.8 235.401 197 235.601 197C235.801 197 235.501 197 235.501 197C236.201 197 235.001 197 235.601 197C236.201 197 238.201 196.9 238.601 196C239.001 195.1 237.101 195 236.701 195Z" fill="white"/>
<path d="M222.301 208.399C223.301 208.399 224.901 207.999 225.501 207.099C226.101 206.199 225.001 205.899 224.201 205.899C223.201 205.899 221.601 206.299 221.001 207.199C220.401 208.099 221.601 208.399 222.301 208.399Z" fill="white"/>
<path d="M269.7 284.9L272.2 274.8L278.1 250.6L285.3 221.1L291.5 195.7L293.5 187.3C293.9 186 294.3 184.7 294.5 183.3C294.5 183.2 294.5 183.2 294.5 183.1C294.7 182.3 293.4 181 292.9 180.5C292.7 180.3 291.3 178.9 291.1 179.7L288.6 189.8L282.7 214L275.5 243.4L269.3 268.8L267.2 277.2C266.8 278.5 266.4 279.8 266.2 281.2C266.2 281.3 266.2 281.3 266.2 281.4C266 282.2 267.3 283.5 267.8 284C268.1 284.2 269.5 285.6 269.7 284.9Z" fill="#000005"/>
<path d="M168.601 355C168.601 355 177.101 313.5 139.301 312.2C139.301 312.2 173.501 278.7 157.301 267.5C141.101 256.3 47.8009 306.9 101.101 427.6" fill="white"/>
<path d="M170.9 356C171.8 351.1 172 346.1 171.5 341.2C170.6 332 166.9 323.1 159 317.8C152.6 313.6 145.2 311.3 137.5 311.1L141.7 313.2C145.9 309.1 149.7 304.7 153.3 300C156.2 296.3 158.8 292.2 161 288C162.8 284.4 164.4 280.3 164.1 276.2C163.7 269.8 157.5 265.8 151.6 265.1C147.4 264.6 143 265.6 139 266.9C133.4 268.9 128.1 271.6 123.2 275.1C117.1 279.3 111.6 284.2 106.8 289.8C101.2 296.2 96.5005 303.4 92.8005 311.1C88.6005 320 85.7005 329.5 84.2005 339.2C82.4005 350.7 82.3005 362.4 83.8005 374C85.6005 388.3 89.2005 402.2 94.4005 415.6C95.8005 419.4 97.4005 423.1 99.0005 426.8C99.3005 427.6 101 428.1 101.7 428.3C101.9 428.4 103.7 429 103.5 428.5C97.3005 414.8 92.7005 400.4 89.8005 385.6C87.5005 373.8 86.8005 361.8 87.7005 349.8C88.5005 339.8 90.7005 329.9 94.2005 320.4C97.3005 312.3 101.5 304.6 106.6 297.6C111.1 291.5 116.3 285.9 122.2 281.1C127.1 277.1 132.5 273.6 138.2 271C142.5 268.9 147.1 267.5 151.9 267C152.7 266.9 153.6 266.9 154.4 267C154.8 267 155.2 267.1 155.6 267.1C155.8 267.1 156.2 267.2 155.8 267.1L156.4 267.2C157 267.3 156 267.1 156.5 267.2C157 267.3 155.9 267 156.5 267.2C156.6 267.2 155.8 266.9 156.2 267.1C156.6 267.3 155.5 266.8 155.9 267C156.3 267.2 155.3 266.7 155.9 267C155.3 266.6 155.9 267 156.1 267.2C156.4 267.5 156.7 267.7 157 268C157.6 268.6 158.1 269.3 158.5 270C160.2 273.3 159.7 277.2 158.6 280.6C157.1 284.9 155 289 152.4 292.7C148.2 298.9 143.5 304.7 138.2 310L137.3 310.9C136.9 311.2 141 313 141.5 313C144.6 313.1 147.7 313.5 150.7 314.3C151.3 314.5 151.8 314.7 152.3 314.8L152.9 315C153 315.1 153.9 315.5 153.5 315.3C154.4 315.7 155.3 316.3 156.2 316.9C159.7 319.5 162.5 323 164.2 327C167.3 333.8 167.9 341.5 167.3 348.8C167.2 350.4 167 352.1 166.7 353.7C166.5 354.6 171.2 356.1 171.3 355.7L170.9 356Z" fill="#000005"/>
<path d="M373.001 186.9L380.901 179.4C381.701 178.7 381.801 177.5 381.101 176.7C381.001 176.6 380.901 176.5 380.801 176.4C379.701 175.6 378.301 175.7 377.301 176.6L369.401 184C368.601 184.8 368.601 186 369.401 186.8C369.501 186.9 369.501 186.9 369.601 187C370.601 187.8 372.101 187.7 373.001 186.9Z" fill="#68BA7F"/>
<path d="M389.1 172.299C397.8 160.899 402.1 146.699 401.2 132.299C400.4 119.099 394.8 105.299 383.4 97.7993C373.4 91.2993 358.9 91.9993 350.6 101.099C347.4 104.599 343 113.799 349.9 115.899C353.5 116.999 357 114.799 358.5 111.599C359.9 108.599 360.1 105.099 359.3 101.899C357.7 95.1993 352.8 89.4993 347.4 85.4993C340.3 80.0993 331.6 77.2993 322.7 77.4993C321.8 77.4993 320.5 77.9993 320.7 79.1993C320.9 80.3993 322.6 80.7993 323.6 80.7993C335.2 80.5993 347.2 87.0993 352.7 97.4993C354.1 99.9993 354.9 102.899 354.9 105.799C354.8 108.299 354 111.599 351.6 112.899C350.4 113.499 351.8 113.099 351.7 113.199C351.5 112.699 351.4 112.199 351.3 111.699C351.3 110.399 351.5 109.199 352 107.999C352.8 105.899 354 103.999 355.6 102.499C359 99.1993 363.4 97.1993 368 96.7993C372.9 96.3993 377.7 97.8993 381.6 100.899C391 107.899 395.4 119.899 396.3 131.199C397.4 145.399 393.2 159.399 384.5 170.699C383.1 172.499 387.9 173.899 389.1 172.299Z" fill="#68BA7F"/>
<path d="M258.201 315.7L326.901 332.4C329.401 333 331.901 331.5 332.601 329L364.801 198.8C365.401 196.3 363.901 193.8 361.401 193.1L292.701 176.4L258.201 315.7Z" fill="#000005"/>
<path d="M256.4 316.9L279.9 322.6L317 331.6C319.7 332.2 322.4 333 325 333.6C328.8 334.4 333.8 332.4 335 328.4C335.1 328 335.2 327.6 335.3 327.2L340.5 306L349.701 268.9L359.4 229.9L366.1 202.8C366.5 201.2 366.901 199.7 367.201 198.1C367.901 195.3 366.101 192.4 363.201 191.8C362.401 191.6 361.501 191.4 360.701 191.2L327.9 183.2L296.4 175.6L294.6 175.2C293.5 174.9 290.7 175.6 290.4 177L287 190.8L278.8 224L268.8 264.2L260.201 299L257.4 310.5C256.9 312.3 256.4 314.1 256 316L255.9 316.2C255.6 317.4 260.3 316.4 260.6 315.1L264 301.3L272.201 268.1L282.201 227.9L290.8 193.1L293.6 181.6C294.1 179.8 294.6 178 295 176.1L295.1 175.9L290.9 177.7L313.9 183.3L350.8 192.3C353.7 193 356.5 193.7 359.4 194.4C361.7 195 363.1 197.3 362.5 199.5C362.4 200 362.301 200.4 362.201 200.9L356.9 222.4L347.8 259.1L338.3 297.5L331.6 324.6C331.2 326.3 330.8 328 330.4 329.6V329.7C330.4 329.8 330.3 329.9 330.3 330C330.1 330.7 329.5 331 329.3 331.6C329.2 331.8 329.3 331.6 329.4 331.5C330.1 331.4 329.3 331.4 329.3 331.4L328.9 331.3H328.701C327.701 331.1 326.701 330.8 325.701 330.6L292.8 322.6L261.9 315.2L260.201 314.8C259.001 314.7 257.8 315 256.9 315.6C256.3 315.7 255.3 316.7 256.4 316.9Z" fill="#000005"/>
<path d="M336.701 239.301C341.948 239.301 346.201 235.047 346.201 229.801C346.201 224.554 341.948 220.301 336.701 220.301C331.454 220.301 327.201 224.554 327.201 229.801C327.201 235.047 331.454 239.301 336.701 239.301Z" fill="white"/>
<path d="M333.8 237.4C333.5 237.3 333.2 237.2 332.9 237.1C333.4 237.3 332.1 236.6 332.5 236.9C331.9 236.5 331.4 236 331 235.5C330.1 234.2 329.5 232.7 329.5 231.1C329.4 227.6 331.3 224.3 334.5 222.7C335.9 222 337.5 221.8 339 222C339.1 222 339.9 222.2 339.7 222.1C340 222.2 340.2 222.3 340.4 222.4H340.5C340.5 222.4 341.2 222.8 340.8 222.6L341.2 222.9C341.5 223.1 341.8 223.4 342 223.7C344 226.3 344.4 229.8 342.9 232.8C341.3 236.2 337.6 238.1 333.8 237.4C333.1 237.2 331.8 237.3 332.2 238.4C332.8 239.4 333.8 240.2 335 240.4C339.4 241.6 344.1 239.9 346.8 236.1C349.2 232.2 348.9 227.2 345.9 223.7C342.7 219.9 337.2 217.6 332.4 219.1C328.1 220.4 325.1 224.3 325 228.7C324.9 234.5 329.8 239 335.1 240.4C335.8 240.6 337.1 240.5 336.7 239.4C336 238.4 335 237.7 333.8 237.4Z" fill="white"/>
<path d="M294.7 232.801C294.9 230.701 294.8 228.201 293.5 226.501C292.1 224.701 289.7 224.101 287.7 225.101C283.8 226.701 282.9 232.601 282.9 236.301C282.8 240.001 283.9 243.601 286 246.601C287.1 248.101 288.7 249.201 290.5 249.601C292.9 249.901 295 248.201 295.3 245.801C295.3 245.601 295.3 245.401 295.3 245.201C295.3 243.001 293.7 241.201 292 240.001C290.1 238.501 287.5 238.201 285.2 239.201C281.1 241.101 279.8 246.301 279.5 250.401C279.3 252.801 279.5 255.201 280.1 257.501C280.6 259.501 281.4 261.601 283.1 262.901C285 264.101 287.6 263.901 289.3 262.401C291 261.001 291.7 258.701 291.1 256.501C290.5 254.201 288.7 252.501 286.4 252.101C284 251.701 281.5 252.401 279.6 254.001C276 256.901 274.4 262.201 275 266.601C275.1 267.801 276.2 268.601 277.3 268.401H277.4C278.4 268.301 280 267.301 279.8 266.001C279.3 263.001 280 260.001 281.8 257.501C282.4 256.601 283.3 256.101 284.4 256.001C285.4 256.201 286.1 256.901 286.3 257.901C286.4 258.301 286.3 258.601 286.2 258.901C286.2 259.001 285.9 259.401 285.9 259.401C285.9 259.401 286 259.301 286.1 259.301C286.2 259.301 286.5 259.301 286.5 259.301C286.4 259.201 286.3 259.101 286.2 259.001C285.3 257.701 284.8 256.201 284.6 254.601C283.9 251.201 284.3 247.701 285.7 244.501C286.2 243.501 286.8 242.201 288 242.701C288.7 243.101 289.4 243.601 289.9 244.301C290.1 244.501 290.3 244.801 290.4 245.101C290.4 245.201 290.4 245.401 290.4 245.501C290.4 245.601 290.1 245.701 290.5 245.501L291.8 245.101C292.1 245.101 292.1 245.301 291.9 245.101C291.7 244.901 291.5 244.901 291.3 244.701C291 244.501 290.7 244.201 290.5 243.901C289.9 243.201 289.4 242.501 289.1 241.701C288.2 239.701 287.8 237.501 287.9 235.301C287.9 233.001 288.4 230.801 289.4 228.801C289.7 228.301 289.7 228.501 289.6 228.501C289.5 228.501 289.1 228.601 289.1 228.601C289.1 228.601 289.7 229.401 289.6 229.301C290 230.501 290.1 231.801 289.9 233.101C289.8 234.401 291.3 235.001 292.4 234.901C293.5 235.001 294.5 234.101 294.7 232.801Z" fill="white"/>
<path d="M271.2 283C271.6 286.4 275.1 289.7 278.7 288.3C281.5 287.2 281 283.2 278.8 281.8C275.3 279.7 271.7 282.3 270 285.4C268.3 288.4 267.9 292 268.9 295.3C269.4 297.1 270.7 298.6 272.3 299.5C274.2 300.6 276.6 300.3 278.1 298.9C278.6 298.4 278.2 297.7 277.8 297.3C275.3 295.1 271.5 295.3 269.3 297.7C269.2 297.8 269.1 297.9 269 298C266.8 300.7 266.7 304.7 267.3 307.9C267.7 309.8 272.6 310.4 272.2 308.2C271.7 306.1 271.8 303.9 272.4 301.8C272.7 300.9 273.2 300 273.9 299.3C274.1 299.1 274.5 299 274.7 298.8C275.1 298.7 275.1 298.7 274.6 298.8C274.3 298.5 274 298.4 273.7 298.5L273.4 296.9C272.8 297.3 273.2 297.4 274.6 297.2C274.5 297.1 274.4 297.1 274.4 297C274.2 296.6 273.9 296.2 273.7 295.7C273.3 294.7 273.1 293.6 273.1 292.5C273.1 290.4 273.6 288.4 274.7 286.6C275.2 285.7 275.8 285 276.6 284.4C276.7 284.3 276.9 284.2 277 284.1C277.6 283.8 277.1 283.6 275.5 283.4C275.5 283.6 275.7 284 275.7 284.2C275.7 284.5 275.6 284.9 275.5 285.2C275.4 285.3 275.4 285.4 275.3 285.5C275.8 285.6 276.3 285.6 276.8 285.5C276.8 285.3 276.4 284.9 276.3 284.7C276.1 284.2 276 283.8 276 283.3C275.9 281.5 271 280.8 271.2 283Z" fill="white"/>
<path d="M292 201.601C291.1 204.101 290.7 206.801 291 209.401C291.1 210.801 291.9 212.001 293.1 212.701C294.7 213.601 296.8 213.301 298 211.801C299.5 209.801 299.3 206.901 297.4 205.201C295.1 203.301 291.8 204.101 290 206.301C288.4 208.601 287.6 211.401 287.7 214.201C287.8 215.401 288.8 216.401 290 216.401C291 216.501 292.7 216.001 292.7 214.701C292.5 212.701 293 210.701 293.9 208.901C293.7 209.201 294 208.701 294 208.701C294.2 208.501 294.3 208.301 294.5 208.201C294.7 208.101 294.7 208.001 294.5 208.201L294.8 208.001C295.2 207.701 294.4 208.101 294.8 208.001C295 207.901 295 207.901 294.6 208.001C294.9 208.001 294.8 208.001 294.4 208.001C294 208.001 293.9 207.901 294.1 207.901C293.7 207.701 293.7 207.701 293.9 207.801C293.6 207.601 293.6 207.601 293.7 207.701C293.8 207.801 293.8 207.801 293.6 207.501C293.7 207.501 293.9 207.901 293.9 208.001C293.7 207.501 293.9 208.201 293.9 208.301C294 208.701 294 208.101 293.9 208.501C293.9 208.701 293.9 209.001 293.8 209.201C293.9 208.801 293.7 209.501 293.6 209.601L293.7 209.501C293.5 209.701 293.6 209.701 293.8 209.501C294.3 209.301 294.8 209.201 295.3 209.401C295.5 209.501 295.6 209.501 295.8 209.601C296 209.801 296 209.801 295.8 209.601C295.9 209.801 295.9 209.801 295.8 209.501C295.7 209.201 295.7 209.101 295.7 208.901C295.7 208.701 295.7 208.601 295.7 208.501C295.7 208.701 295.7 208.601 295.7 208.401C295.7 208.201 295.7 207.801 295.7 207.501C295.7 207.001 295.8 206.501 295.8 205.901C295.8 205.301 296 204.901 296.1 204.301C296.2 203.801 296.4 203.301 296.5 202.901C296.8 201.801 296.2 200.701 295.2 200.401C295.1 200.401 295.1 200.401 295 200.401C294.2 200.201 292.5 200.401 292 201.601Z" fill="white"/>
<path d="M310 311.1L315.2 290.2C315.7 288.3 317.6 287.1 319.5 287.6L327.6 289.6C329.5 290.1 330.7 292 330.2 293.9L325 314.8C324.5 316.7 322.6 317.9 320.7 317.4L312.6 315.4C310.7 315 309.5 313.1 310 311.1Z" fill="#68BA7F"/>
<path d="M312.3 310.301L315.7 296.501C316.2 294.301 316.8 292.001 317.3 289.801C317.3 289.701 317.4 289.501 317.4 289.301C317.5 289.001 317.6 288.701 317.7 288.501C318.4 287.401 317.7 289.301 316.7 288.701C316.9 288.701 317.1 288.801 317.3 288.701C318.3 288.901 319.3 289.201 320.4 289.501L324.6 290.501C326 290.901 327.2 291.401 327.7 292.901C328.2 294.401 327.2 296.801 326.9 298.301L322.9 314.601C322.8 314.901 322.8 315.201 322.7 315.501V315.601C322.6 315.801 322.6 316.001 322.5 316.201C322.4 316.401 322.3 316.601 322.1 316.801L323.3 316.201C322.9 316.201 322.4 316.101 322 316.001L319.7 315.401L315.1 314.301C313.3 313.901 311.9 312.401 312.3 310.301C312.5 309.501 310.7 310.101 310.4 310.201C309.7 310.401 308 311.101 307.9 312.001C307.4 314.101 308.7 316.201 310.8 316.701C312.1 317.101 313.4 317.301 314.8 317.701C316.2 318.101 317.4 318.401 318.8 318.701C321.4 319.301 324.4 318.001 326.3 316.201C327.8 314.701 328.1 312.101 328.6 310.001L331.1 299.801C331.6 297.601 332.3 295.401 332.7 293.201C333.2 291.401 332.3 289.501 330.6 288.701C329.5 288.301 328.3 288.001 327.1 287.801L322.4 286.601C320.3 286.101 318.1 286.501 316.3 287.601C314.8 288.401 313.6 289.701 313.1 291.401C312.9 292.301 312.6 293.201 312.4 294.101L307.9 312.001C307.7 312.801 309.6 312.201 309.9 312.101C310.4 311.801 312 311.201 312.3 310.301Z" fill="#68BA7F"/>
<path d="M335.101 298L304.301 290.4C303.301 290.3 302.301 290.5 301.301 290.9C301.001 291 299.401 291.5 299.701 291.6L330.501 299.201C331.501 299.301 332.501 299.101 333.501 298.701C333.701 298.601 335.301 298.1 335.101 298Z" fill="#000005"/>
<path d="M318.4 296.201L311.3 324.801C311.2 325.101 316.1 325.801 316.3 324.801L323.4 296.201C323.4 295.901 318.6 295.201 318.4 296.201Z" fill="#000005"/>
<path d="M330.5 308.9L320.2 306.4C319 306.2 317.7 306.7 317 307.7C316.5 308.4 316.1 309.7 317.3 310L327.6 312.5C328.8 312.7 330.1 312.2 330.8 311.2C331.3 310.4 331.6 309.1 330.5 308.9Z" fill="#000005"/>
<g opacity="0.59">
<path d="M340.5 224.7C345.747 224.7 350 220.447 350 215.2C350 209.953 345.747 205.7 340.5 205.7C335.253 205.7 331 209.953 331 215.2C331 220.447 335.253 224.7 340.5 224.7Z" fill="#68BA7F"/>
<path d="M337.001 222.301C336.201 222.101 335.301 221.701 334.601 221.301C334.201 221.101 333.901 220.901 333.601 220.601C333.401 220.501 333.301 220.401 333.201 220.201C333.101 220.001 333.001 219.901 333.101 220.101C333.201 220.301 333.501 220.701 333.201 220.301C333.101 220.001 332.901 219.601 332.801 219.301C332.601 218.501 332.501 217.601 332.501 216.701C332.701 213.101 334.901 209.901 338.201 208.501C341.501 207.101 345.201 207.701 347.801 210.101C348.201 210.501 347.801 210.001 347.701 209.901C347.601 209.801 347.801 210.201 347.901 210.301C348.201 211.201 348.401 212.101 348.401 213.001C348.401 214.801 348.001 216.501 347.101 218.001C345.101 221.501 341.001 223.301 337.001 222.301C336.401 222.201 337.401 223.901 337.501 224.101C337.801 224.701 338.201 225.201 338.601 225.701C338.801 226.001 339.101 226.401 339.501 226.501C343.701 227.501 348.101 225.601 350.201 221.901C352.701 217.301 350.901 212.401 347.901 208.601C345.101 205.001 340.701 202.701 336.101 204.301C332.001 205.701 329.301 209.701 329.601 214.101C330.001 217.001 331.201 219.701 333.001 222.001C334.601 224.201 336.901 225.901 339.501 226.601C340.101 226.801 339.001 225.001 339.001 224.801C338.701 224.201 338.301 223.701 337.901 223.201C337.601 222.901 337.301 222.401 337.001 222.301Z" fill="#68BA7F"/>
</g>
<path d="M305.4 452.6C305.4 452.6 319.4 403.1 307.8 386.9C296.2 370.7 272.8 348.4 277.8 321.2L319.2 328.3C332.4 317.1 345.3 280.4 330.5 261.1C315.7 241.8 304.5 232.1 314.1 224.3C323.7 216.5 347.3 228.6 356.7 252.2C356.7 252.2 374.4 237.2 380.6 261C380.6 261 388.5 250.5 402.7 267C416.9 283.5 422.8 363 398.8 467.2" fill="white"/>
<path d="M306.8 454.6C308.7 447.8 310.2 440.8 311.4 433.8C312.5 427.7 313.3 421.5 313.6 415.2C314.1 409.3 313.8 403.3 312.7 397.5C312.2 394.8 311.3 392.2 310.1 389.7C308.7 387 307 384.4 305 382C300.6 376.2 295.9 370.6 291.6 364.7C287.3 358.8 283.3 352.3 280.9 345.3C279.6 341.6 278.8 337.8 278.5 333.9C278.4 331.9 278.4 329.8 278.5 327.8C278.6 326.8 278.7 325.8 278.8 324.8C278.8 324.6 279 323.2 278.9 323.3C279 323.2 279.6 323.4 279.7 323.4L281.3 323.7L286.7 324.6L302.2 327.3L316.1 329.7L319.7 330.3C319.9 330.3 320 330.4 320.2 330.4C320.7 330.3 321.2 329.7 321.5 329.4C322 328.9 322.5 328.4 323 327.9C327.1 323.1 330.4 317.6 332.7 311.8C335.6 305 337.4 297.9 338.1 290.6C338.9 283.5 338 276.3 335.6 269.5C332.5 261.3 326.2 254.7 320.7 247.9C318.4 245 316 242.1 314 238.9C313.4 238 312.8 237 312.4 236C312 235.1 311.8 234.1 311.7 233.2C311.5 228.7 315.8 225.3 319.9 224.5C325.1 223.5 330.6 225.5 335 228C341.1 231.4 346.3 236.2 350.3 241.9C352.4 244.9 354.1 248.1 355.5 251.5C355.6 251.8 357.2 255 357.8 254.5C362.3 250.7 369.8 247.7 375 251.7C375.5 252.1 376 252.6 376.4 253.1C376.7 253.5 377 253.8 377.2 254.3C378.1 256 378.7 257.9 379.2 259.8C379.3 260.2 381.3 263.8 381.7 263.3C383.5 261.1 386.2 259.9 389.1 260C392.4 260.1 395.5 261.8 398 263.8C399.9 265.4 401.7 267.1 403.3 269C403.6 269.3 403 268.6 403.3 269L403.6 269.4C404.1 270.1 403.7 269.5 403.6 269.4C403.7 269.5 403.8 269.7 403.9 269.9L404.2 270.4C404.1 270.2 404 270 404.2 270.4L404.5 270.9C404.6 271.1 405 271.9 404.6 271C404.8 271.4 405 271.7 405.1 272.1L405.3 272.6C405.5 273 405.3 272.5 405.2 272.4C405.3 272.5 405.3 272.7 405.4 272.8C405.8 273.7 406.1 274.6 406.5 275.5L406.6 275.9L406.8 276.6C407 277.1 407.1 277.6 407.3 278.1C408.7 282.8 409.8 287.6 410.6 292.5C412.7 306.3 413.7 320.2 413.6 334.1C413.6 352.7 412.5 371.3 410.3 389.8C407.8 412.3 404 434.6 399.2 456.7C398.6 459.6 397.9 462.5 397.3 465.4C397.1 466.3 398.1 467.6 398.5 468.3C398.6 468.5 399.8 470.1 400 469.5C405.3 446.4 409.5 423 412.4 399.5C414.8 380.2 416.1 360.8 416.3 341.3C416.4 326.7 415.8 312 413.5 297.6C412 288.2 410 278.4 405.2 270.1C404.2 268.3 403 266.6 401.7 265.1C398.7 261.7 395.2 258.3 390.9 256.6C387.1 255.1 382.6 255.4 379.7 258.4C379.5 258.6 379.4 258.7 379.2 258.9L381.7 262.4C380.6 258.1 378.7 254 376 250.4C374.4 248.2 372.1 246.5 369.4 245.7C365.4 244.7 361.2 246.3 357.8 248.3C356.9 248.8 356.1 249.4 355.3 250.1L357.6 253.1C353.9 243.6 347.9 235.2 340.2 228.6C334.8 224.2 327.9 220.2 320.6 220C315.3 219.9 309 223.2 309.1 229.2C309.1 232.8 311 236.2 312.8 239.2C315.4 243.3 318.3 247.2 321.4 251C323.3 253.4 325.2 255.7 327.1 258.1C328.7 260 330.3 262 331.7 264.1C333.7 267.6 334.9 271.4 335.3 275.4C336.5 284.4 335 293.8 332.1 302.4C329.6 310 325.9 317.8 320.5 323.8C320 324.4 319.4 325 318.8 325.5C318.5 325.8 318.2 326.1 317.9 326.4C317.5 326.4 317.1 326.3 316.7 326.2L310.7 325.2L277.4 319.5L276.7 319.4C276.6 319.3 276.5 319.4 276.5 319.5C274.2 332.1 278.1 344.5 284.2 355.5C290 365.9 297.7 375 304.9 384.4C305.7 385.4 306.4 386.4 307.1 387.3L307.7 388.1C307.8 388.2 308.2 388.8 307.9 388.4C308 388.6 308.1 388.7 308.2 388.9C307.9 388.5 308.2 388.9 308.3 389.1C308.1 388.7 308.6 389.6 308.6 389.6C308.6 389.6 309 390.5 309 390.7C309.3 391.5 309.6 392.4 309.8 393.3C310.8 397.6 311.2 401.9 311.1 406.3C310.9 415.8 309.9 425.4 307.9 434.7C307.2 438.3 306.5 441.8 305.6 445.4C305.2 447.2 304.6 449 304.2 450.8C304.2 450.9 304.2 451 304.1 451.1C303.9 451.9 304.9 453.3 305.3 454C305.4 453.7 306.6 455.3 306.8 454.6Z" fill="#000005"/>
<path d="M364.701 267.7L359.001 251.4C358.601 250.3 357.101 250.1 356.101 250.4C355.101 250.7 353.801 251.6 354.201 252.8L360.001 269.1C360.401 270.2 361.901 270.5 362.901 270.1C363.901 269.7 365.201 268.8 364.701 267.7Z" fill="#000005"/>
<path d="M386 272.5C384.7 267.3 383.1 262.2 381.4 257.2C381 256.1 380.1 254.9 378.8 255.1C377.8 255.4 377.2 256.4 377.4 257.5C377.4 257.6 377.4 257.7 377.5 257.7C379.3 262.7 380.8 267.8 382.1 273C382.4 274.2 383.4 275.1 384.7 275.1C386 275 386.2 273.6 386 272.5Z" fill="#000005"/>
</svg>
