<svg width="500" height="500" viewBox="0 0 500 500" fill="none" xmlns="http://www.w3.org/2000/svg">
<path d="M396.401 222.5C396.301 304.3 329.801 370.6 248.001 370.5C234.601 370.5 221.301 368.6 208.401 365.1C149.101 348.6 106.501 296.8 101.801 235.5C100.601 219.9 101.901 204.2 105.601 188.9C120.301 128.9 170.601 84.3003 232.001 77.0003C247.601 75.2003 263.301 75.8003 278.701 78.8003C293.501 81.7003 307.701 87.0003 320.901 94.3003C333.801 101.5 345.501 110.5 355.801 121.1C376.601 142.7 390.201 170.2 394.801 199.9C395.801 207.3 396.401 214.9 396.401 222.5C396.401 223.8 397.201 224.9 398.401 225.4C399.101 225.7 400.001 225.3 400.301 224.6C400.401 224.4 400.401 224.2 400.401 224C400.401 192.5 390.601 161.7 372.401 136C363.501 123.5 352.801 112.4 340.601 103C274.201 52.2003 179.301 65.0003 128.601 131.5C80.6013 194.5 89.2013 283.8 148.401 336.4C159.801 346.6 172.701 355 186.701 361.4C200.901 367.9 216.001 372.1 231.501 374C247.401 375.9 263.601 375.3 279.301 372.1C341.301 359.6 389.001 309.8 398.701 247.2C399.901 239.5 400.501 231.7 400.501 223.9C400.401 222.6 399.601 221.5 398.401 221C397.701 220.7 396.801 221 396.501 221.8C396.501 222 396.401 222.2 396.401 222.5Z" fill="#000005"/>
<path d="M250.002 100.1V84.5001C250.002 83.4001 248.102 83.2001 247.402 83.3001C246.502 83.4001 245.102 83.9001 245.102 85.0001V100.6C245.102 101.7 247.002 101.9 247.702 101.8C248.602 101.7 250.002 101.3 250.002 100.1Z" fill="#000005"/>
<path d="M243.301 342V367.2C243.201 368.3 244.101 369.2 245.101 369.2C245.201 369.2 245.301 369.2 245.401 369.2C246.501 369.2 248.101 368.2 248.101 367V341.9C248.201 340.9 247.401 340 246.301 339.9C246.201 339.9 246.101 339.9 246.001 339.9C244.901 339.8 243.301 340.8 243.301 342Z" fill="#000005"/>
<path d="M306.202 332.8C306.802 333.2 307.302 333.5 307.902 333.9C308.602 334.4 308.102 334 307.902 333.9L308.302 334.2L309.102 334.8C309.602 335.2 310.102 335.6 310.602 336L311.002 336.3L311.702 337C312.102 337.5 312.702 337.9 313.302 338.1C313.702 338.3 314.202 338.4 314.602 338.3C315.502 337.8 314.602 336.5 314.102 336.1C311.902 333.8 309.402 331.8 306.702 330.2C306.302 329.9 305.702 329.7 305.202 329.7C304.902 329.7 304.502 329.9 304.402 330.2C304.402 330.7 304.602 331.1 304.902 331.5C305.202 332 305.702 332.5 306.202 332.8Z" fill="#000005"/>
<path d="M350.8 291.6C352.6 294.3 355 296.6 357.8 298.3C358.4 298.6 359 298.8 359.7 298.8C360.3 298.8 360.8 298.6 361.2 298.2C362 297.2 361.2 296.1 360.3 295.5C359.8 295.2 359.4 294.9 358.9 294.6L359.4 295C358.2 294.1 357.1 293 356 291.8L356.4 292.2C355.9 291.6 355.5 291 355 290.4C354.6 289.9 354.1 289.5 353.5 289.3C352.9 289.1 352.3 289 351.7 289.2C351.2 289.3 350.8 289.7 350.6 290.2C350.4 290.7 350.5 291.2 350.8 291.6Z" fill="#000005"/>
<path d="M365.4 221C371 220.7 376.6 220.8 382.2 221.2C382.9 221.3 384.5 221.1 384.2 220.1C383.9 219.1 382.2 218.7 381.4 218.6C375.4 218.2 369.4 218.1 363.4 218.4C362.6 218.4 361.5 219 362.2 219.9C363 220.7 364.2 221.1 365.4 221Z" fill="#000005"/>
<path d="M358.102 168.3C359.902 166.1 362.102 164.2 364.702 162.9C365.002 162.8 364.802 162.1 364.702 162C364.202 160.9 363.502 159.9 362.502 159.2C362.202 159 361.902 158.8 361.602 159C359.102 160.3 356.802 162.2 355.002 164.4C354.802 164.7 354.802 165 355.002 165.3C355.202 165.9 355.502 166.4 355.902 166.9C356.302 167.4 356.702 167.8 357.202 168.1C357.402 168.2 357.902 168.5 358.102 168.3Z" fill="#000005"/>
<path d="M318.802 123.101C320.802 119.601 323.002 116.301 325.502 113.201C325.902 112.701 324.002 112.501 323.802 112.501C323.202 112.401 322.502 112.401 321.902 112.501C321.602 112.501 320.902 112.501 320.802 112.801C318.302 116.001 316.002 119.501 313.902 123.001C313.702 123.401 316.202 123.601 316.402 123.601C317.002 123.601 317.602 123.601 318.202 123.501C318.302 123.401 318.602 123.401 318.802 123.101Z" fill="#000005"/>
<path d="M182.501 115.501C181.101 114.501 179.801 113.501 178.601 112.301L178.801 112.501C177.901 111.601 177.001 110.601 176.201 109.601C176.001 109.401 175.601 109.301 175.301 109.401C174.701 109.501 174.101 109.601 173.601 109.901C173.001 110.101 172.501 110.401 172.001 110.801C171.901 110.901 171.301 111.401 171.501 111.601C173.401 114.001 175.701 116.101 178.201 117.801C178.501 118.001 179.201 117.801 179.401 117.801C180.001 117.701 180.601 117.401 181.201 117.101C181.601 116.901 183.201 116.001 182.501 115.501Z" fill="#000005"/>
<path d="M136.703 164.3L130.103 159.5C129.603 159.1 129.003 158.8 128.403 158.7C127.903 158.6 127.303 158.8 127.003 159.2C126.303 160.2 126.603 161.6 127.603 162.3L134.203 167.1C134.703 167.5 135.303 167.8 135.903 167.9C136.403 168 137.003 167.8 137.403 167.4C137.903 166.4 137.703 165 136.703 164.3Z" fill="#000005"/>
<path d="M107.801 224.4H130.001C131.301 224.3 132.401 223.2 132.401 221.8C132.301 220.6 131.301 219.7 130.101 219.7C130.001 219.7 130.001 219.7 129.901 219.7H107.701C106.401 219.8 105.301 220.9 105.301 222.3C105.301 223.5 106.401 224.4 107.601 224.4C107.701 224.4 107.801 224.4 107.801 224.4Z" fill="#000005"/>
<path d="M143.8 304.3L148.6 299.5C148.8 299.3 148.5 298.9 148.3 298.8C147.8 298.6 147.3 298.5 146.8 298.5C145.7 298.4 144.7 298.7 143.8 299.3L139 304.1C138.8 304.3 139.1 304.7 139.3 304.8C139.8 305 140.3 305.1 140.8 305.1C141.9 305.2 143 304.9 143.8 304.3Z" fill="#000005"/>
<path d="M180.302 344.7C181.402 342 182.802 339.5 184.602 337.2L184.402 337.5C184.602 337.2 184.802 336.9 185.002 336.7C185.302 336.4 185.402 335.9 185.302 335.5C185.202 334.9 184.902 334.3 184.502 333.9C184.102 333.4 183.602 333 183.102 332.8C182.702 332.7 182.102 332.5 181.902 332.9C179.802 335.5 178.102 338.4 176.802 341.5C176.402 342.5 177.202 343.9 178.002 344.5C178.402 344.9 179.902 345.8 180.302 344.7Z" fill="#000005"/>
<path d="M247.5 233.4C254.127 233.4 259.5 228.028 259.5 221.4C259.5 214.773 254.127 209.4 247.5 209.4C240.873 209.4 235.5 214.773 235.5 221.4C235.5 228.028 240.873 233.4 247.5 233.4Z" fill="#000005"/>
<path d="M293.201 153.9C293.201 153.9 232.501 209.6 247.501 221.4C262.501 233.2 296.901 154.4 293.201 153.9Z" fill="#000005"/>
<path d="M291 153.901C288.8 155.901 286.7 157.901 284.6 160.001C279.6 164.801 274.8 169.801 270.1 174.801C264.5 180.801 259.1 186.901 254.2 193.401C250.2 198.701 246.1 204.501 243.8 210.801C242.5 214.601 241.7 219.701 245.5 222.301C249.9 225.301 255.9 222.701 259.6 219.801C264.6 215.801 268.6 210.301 272.1 205.001C276.4 198.301 280.4 191.401 283.9 184.201C287.1 177.801 290.1 171.401 292.7 164.801C293.6 162.501 294.4 160.301 295.1 157.901C295.4 156.801 296.1 155.101 295.9 153.901C295.8 153.301 295.4 153.101 294.8 153.001C293.6 152.801 292.4 153.001 291.3 153.601C290.5 154.101 290.6 154.601 291.5 154.701C291.4 154.701 290.9 154.601 291 154.501C291 154.201 290.8 154.601 291 154.501C291 154.701 291 154.801 291 155.001C291 155.501 290.9 156.001 290.8 156.501C290.3 158.401 289.7 160.301 289 162.201C286.8 168.201 284.2 174.101 281.4 179.801C278.1 186.801 274.5 193.601 270.5 200.201C267 206.001 263.3 211.801 258.6 216.601C257.7 217.601 256.7 218.501 255.7 219.301C255.3 219.701 254.8 220.001 254.3 220.401L253.9 220.601C254.1 220.501 253.5 220.801 253.9 220.601C253.7 220.701 253.4 220.901 253.2 221.001L252.5 221.301C252.9 221.101 252.1 221.501 252.5 221.301L252.2 221.401L251.9 221.501C251.5 221.701 252.5 221.301 252 221.401C251.2 221.601 252.6 221.301 251.8 221.501C252.5 221.501 251.6 221.501 251.8 221.501C251.4 221.501 252.4 221.501 252 221.501C251.9 221.501 251.8 221.501 251.7 221.501C251.8 221.601 252.1 221.701 251.8 221.501C251.7 221.501 251.6 221.501 251.5 221.401C251.9 221.501 251.1 221.301 251.5 221.401C251.4 221.401 251.2 221.301 251.1 221.301C249.6 220.701 248.4 219.401 247.9 217.901C247.4 215.901 247.4 213.801 248 211.901C249.6 206.001 253.3 200.501 256.8 195.601C261.4 189.301 266.4 183.201 271.7 177.501C279.1 169.301 286.8 161.501 294.9 154.001L295.3 153.601C296.1 152.901 294.8 152.701 294.2 152.601C293.1 152.901 292 153.201 291 153.901Z" fill="#000005"/>
<path d="M378.501 130.9C388.901 141.3 397.001 153.7 402.301 167.4C403.801 171.3 405.101 175.3 406.101 179.3C406.701 181.6 411.501 181.9 410.801 179.1C406.901 164.3 400.101 150.5 390.601 138.5C387.901 135.1 385.101 131.9 382.001 128.9C381.101 128 379.701 127.7 378.601 128.3C377.801 128.8 377.601 129.9 378.101 130.7C378.201 130.7 378.301 130.8 378.501 130.9Z" fill="#68BA7F"/>
<path d="M412.302 156.701C413.302 166.201 413.602 175.701 413.302 185.301C413.202 187.401 417.702 189.501 417.702 186.701C418.002 177.201 417.702 167.601 416.702 158.101C416.502 156.901 415.602 155.801 414.402 155.501C413.602 155.201 412.202 155.501 412.302 156.701Z" fill="#68BA7F"/>
<path d="M297.602 188C297.402 197.8 297.602 207.7 298.202 217.5C298.302 219.7 303.002 221.2 302.802 218.4C302.202 208.6 302.002 198.7 302.202 188.9C302.202 186.7 297.702 185.2 297.602 188Z" fill="#68BA7F"/>
<path d="M309.602 182.7V214.1C309.602 215 310.802 216 311.502 216.6C311.702 216.8 313.402 217.9 313.402 217.1V185.7C313.402 184.8 312.202 183.8 311.502 183.3C311.302 183 309.602 181.8 309.602 182.7Z" fill="#68BA7F"/>
<path d="M298.803 227.6C298.503 228.5 298.703 229.4 299.403 230C299.503 230.1 299.603 230.2 299.803 230.2C300.003 230.3 300.203 230.4 300.403 230.5C300.903 230.7 301.403 230.9 301.903 231.1C302.403 231.3 302.803 231.4 303.303 231.5L303.703 231.6C303.803 231.7 304.003 231.7 304.103 231.6C304.603 231.2 304.803 230.5 304.703 229.8C304.703 229.7 304.603 229.7 304.503 229.6C304.403 229.5 304.203 229.4 304.003 229.4C303.503 229.1 302.903 228.9 302.403 228.7C301.803 228.5 301.303 228.3 300.703 228.2C300.603 228.2 299.903 228 299.903 228.1C300.003 228.8 299.803 229.4 299.303 229.9L304.003 231.5C303.903 231.4 303.803 231.2 303.703 231.1L303.803 231.2C303.403 230.6 303.403 229.9 303.603 229.2C303.603 229.1 302.903 228.8 303.003 228.8C302.503 228.5 301.903 228.3 301.403 228.1C300.803 227.9 300.303 227.7 299.703 227.6L299.303 227.5C299.103 227.5 298.903 227.5 298.803 227.6Z" fill="#68BA7F"/>
<path d="M307.603 226C307.403 226.8 307.403 227.7 307.603 228.5C307.703 228.9 307.903 229.4 308.103 229.7C308.203 229.9 308.403 230.1 308.503 230.4C308.803 230.8 309.203 231.1 309.603 231.3C310.103 231.6 310.703 231.7 311.303 231.7C311.503 231.7 311.703 231.7 311.903 231.7C312.203 231.6 312.403 231.6 312.703 231.5C313.103 231.4 313.403 231.1 313.703 230.9C313.903 230.8 314.003 230.6 314.203 230.4C314.303 230.2 314.403 230 314.503 229.9V229.8C314.603 229.5 314.603 229.3 314.503 229C314.503 228.7 314.403 228.4 314.203 228.2V228.1C314.103 227.9 313.903 227.6 313.803 227.4C313.703 227.2 313.603 227.2 313.503 227.1C313.303 226.8 313.003 226.6 312.703 226.4C312.203 226 311.503 225.6 310.903 225.4C310.403 225.2 309.903 225.2 309.403 225.4C309.203 225.5 309.003 225.7 308.903 225.9C308.803 226.1 308.703 226.3 308.703 226.6C308.703 227.2 308.903 227.7 309.303 228.2C309.703 228.7 310.303 229.1 310.903 229.3C311.003 229.3 311.103 229.4 311.203 229.4L310.603 229.1C310.703 229.2 310.903 229.2 311.003 229.3L310.503 228.9C310.603 229 310.703 229.1 310.803 229.2L310.303 228.7C310.403 228.8 310.503 228.9 310.603 229L310.303 228.5C310.403 228.6 310.403 228.7 310.503 228.8L310.303 227.3C310.303 227.4 310.203 227.4 310.203 227.5L310.403 227.1C310.303 227.3 310.103 227.5 309.903 227.7L310.303 227.4C310.103 227.6 309.903 227.7 309.603 227.8L310.103 227.7C309.903 227.8 309.703 227.8 309.603 227.8H310.203H309.903L312.003 229L311.903 228.8L312.203 229.3C312.103 229.1 312.003 229 311.903 228.8L312.103 229.3C312.003 229.1 311.903 228.8 311.903 228.6L312.003 229.1C312.003 228.8 312.003 228.5 312.003 228.3L311.903 228.8C311.903 228.7 311.903 228.6 311.903 228.6C312.003 228.4 312.003 228.1 311.903 227.9C311.903 227.6 311.803 227.3 311.703 227.1C311.603 226.8 311.403 226.6 311.103 226.3C310.903 226 310.603 225.8 310.303 225.7C309.803 225.4 309.203 225.3 308.703 225.3C308.103 225.3 307.703 225.6 307.603 226Z" fill="#68BA7F"/>
<path d="M366.602 383.8H76.6016V399.7H366.602V383.8Z" fill="#000005"/>
<path d="M368.699 383.1H90.3992C86.5992 383.1 82.8992 383.1 79.0992 383.1H78.5992C77.9992 383.1 74.1992 383.7 74.1992 384.5V400.4C74.2992 400.5 74.3992 400.5 74.5992 400.5H352.799C356.599 400.5 360.299 400.5 364.099 400.5H364.599C365.199 400.5 368.999 399.9 368.999 399.1V383.2C368.999 383.1 364.199 383.6 364.199 384.5V400.4L368.599 399H90.3992C86.6992 399 82.8992 398.8 79.0992 399H78.5992L78.9992 399.1V383.2L74.5992 384.6H352.799C356.599 384.6 360.299 384.6 364.099 384.6H364.599C365.699 384.5 366.899 384.3 367.899 383.8C368.199 383.7 369.699 383.1 368.699 383.1Z" fill="#000005"/>
<path d="M50.7998 391.6C50.7998 387.2 42.3998 351 46.8998 346.6C51.3998 342.2 129.7 329.3 129.7 329.3C129.7 329.3 148.9 273.8 152.4 271.9C155.9 270 296.8 262.9 304 265.4C311.2 267.9 339.6 328.2 339.6 328.2C339.6 328.2 387.2 333 388.4 338.4C389.6 343.8 390.8 386.5 389 390.7L50.7998 391.6Z" fill="#68BA7F"/>
<path d="M52.6007 393.2C52.6007 389.5 51.5007 385.6 50.9007 382C49.9007 376 48.8007 370 48.1007 363.9C47.6007 359.5 46.6007 354.2 47.9007 349.8C48.5007 347.8 50.4007 347.4 52.2007 346.8C60.9007 344 70.0007 342.4 78.9007 340.6C89.9007 338.4 101.001 336.4 112.001 334.5C118.401 333.4 124.801 332.3 131.201 331.2C131.401 331.2 131.501 331 131.601 330.8C135.601 319.3 139.701 307.8 144.001 296.4C146.501 289.8 148.901 283.1 152.101 276.8C152.501 276 152.901 275.3 153.301 274.5C153.501 274.3 153.601 274 153.801 273.8C154.001 273.6 154.301 273.4 153.901 273.6C154.701 273.4 155.401 273.2 156.201 273.2C166.601 271.9 177.201 271.5 187.701 270.9C204.601 269.9 221.401 269 238.301 268.3C253.901 267.6 269.401 267 284.901 266.7C289.901 266.6 294.901 266.5 299.901 266.7C301.301 266.7 302.801 266.8 303.901 266.9C304.301 266.9 304.601 267 305.001 267.1C305.001 267.1 304.801 267 304.901 267.1C304.201 266.8 305.501 267.7 305.001 267.1C305.301 267.4 305.601 267.8 306.001 268.1C305.501 267.5 306.201 268.3 306.301 268.4L306.901 269.2C307.801 270.4 308.501 271.4 309.101 272.4C311.101 275.4 312.901 278.6 314.701 281.8C319.001 289.3 322.901 297 326.801 304.7C329.801 310.7 332.801 316.8 335.801 322.9C336.401 324.2 337.001 325.5 337.701 326.9C338.401 328.6 340.001 329.8 341.801 330C348.101 330.7 354.401 331.5 360.701 332.4C368.501 333.5 376.401 334.6 383.901 337C385.001 337.3 386.101 337.8 387.201 338.3C387.701 338.6 387.101 338.3 387.501 338.4C387.901 338.5 387.501 338.4 387.601 338.4C387.301 338.1 387.001 337.8 386.801 337.5C386.701 337.3 386.601 336.8 386.701 337.2C386.801 339.7 387.201 342.1 387.401 344.6C387.901 353.4 388.201 362.2 388.201 371C388.201 374.9 388.201 378.8 388.001 382.8C387.901 384.1 387.901 385.5 387.701 386.8C387.601 387.2 387.601 387.6 387.501 388C387.401 388.2 387.401 388.4 387.401 388.5C387.501 389 387.201 388.4 387.701 388.5C386.801 388.5 386.001 388.5 385.101 388.5H366.801L334.301 388.6L291.801 388.7L243.001 389L192.401 389.1L144.001 389.3L101.601 389.4L69.5007 389.5H51.7007H49.4007C48.4007 389.5 49.6007 391.3 49.7007 391.6C50.3007 392.5 51.2007 393.2 52.3007 393.4H61.4007L86.1007 393.3L122.401 393.2L166.701 393.1L215.401 393L264.601 392.9L310.301 392.8L348.901 392.7L376.801 392.6C381.201 392.6 385.601 392.8 390.001 392.6H390.601C390.801 392.6 390.901 392.4 391.001 392.2C391.901 390.1 391.701 387.3 391.801 385C392.001 380.6 392.001 376.2 391.901 371.8C391.801 362.8 391.601 353.7 390.901 344.7C390.701 342.4 390.801 339.6 389.401 337.6C387.601 335.2 384.701 334.1 381.901 333.3C373.901 330.8 365.401 329.6 357.101 328.5C350.901 327.6 344.801 326.9 338.601 326.2L341.401 328.9C335.601 316.6 329.501 304.4 323.101 292.3C319.101 284.8 315.101 277.3 310.101 270.3C307.701 267 305.101 263.4 300.901 263.1C296.301 262.7 291.701 262.8 287.001 262.9C279.501 263 271.901 263.2 264.401 263.4C245.501 264 226.501 264.9 207.601 265.8C192.001 266.6 176.501 267.4 161.001 268.7C158.901 268.9 156.701 269.1 154.601 269.3C153.501 269.4 152.401 269.5 151.301 269.8C150.101 270.2 149.501 271.6 149.001 272.7C147.501 275.6 146.301 278.6 145.101 281.5C139.001 296.3 133.701 311.4 128.401 326.5C128.201 326.9 128.101 327.3 128.001 327.7C128.001 327.2 128.601 327.4 127.701 327.5C125.801 327.6 123.901 328.1 122.001 328.5C114.501 329.8 106.901 331.1 99.4007 332.4C90.0007 334.1 80.5007 335.9 71.2007 337.8C64.0007 339.1 56.9007 340.8 49.8007 342.9C48.4007 343.3 46.4007 343.8 45.3007 344.8C43.4007 346.7 43.8007 350.8 43.9007 353.2C44.2007 362.8 46.2007 372.5 47.9007 382C48.2007 383.7 48.5007 385.5 48.8007 387.2C48.9007 387.8 49.0007 388.4 49.0007 389C49.0007 389.3 49.1007 390.3 49.1007 390C49.2007 391.1 49.8007 392.1 50.7007 392.7C50.8007 392.9 52.6007 394.1 52.6007 393.2Z" fill="#68BA7F"/>
<path d="M157.2 329C153.3 329.1 150.1 326.1 150 322.3C150 321.8 150 321.2 150.1 320.7C154.1 299.9 164.3 285.6 167.2 284.7C170.1 283.8 203.8 283.2 218.7 283C222.6 282.9 225.7 286 225.8 289.9L226.8 320C226.9 323.8 223.8 327 220 327.1L157.2 329Z" fill="white"/>
<path d="M157.801 328.6C155.501 328.6 153.201 325.8 152.601 323.6C152.301 322.2 152.401 320.7 152.801 319.2C153.201 317.5 153.601 315.7 154.001 314.1C155.601 308.2 157.701 302.4 160.501 297C162.201 293.3 164.501 289.8 167.101 286.7C167.501 286.3 167.801 285.9 168.201 285.5C168.501 285.2 169.001 285 169.301 284.7L169.101 284.8C169.601 284.7 168.601 284.9 169.101 284.8C169.801 284.7 168.601 284.8 169.201 284.8L170.101 284.7H170.401L171.401 284.6L174.001 284.5C176.001 284.4 177.901 284.3 179.901 284.3C184.601 284.1 189.301 284 194.201 283.9C199.201 283.8 204.301 283.7 209.301 283.6L215.801 283.5H217.201C217.401 283.5 217.701 283.5 217.901 283.5C217.501 283.5 218.101 283.6 218.101 283.6C219.601 284 220.901 284.8 221.801 286.1C223.301 288.2 223.201 290.7 223.301 293.1L223.601 303.2C223.801 308.9 224.101 314.6 224.201 320.2C224.201 322.6 223.001 324.9 221.001 326.2C220.701 326.4 220.401 326.5 220.101 326.7C219.501 326.9 218.901 326.8 220.601 326.8H220.001L215.201 326.9L195.601 327.5L158.301 328.6H157.801C157.301 328.6 154.901 328.5 154.701 329C154.501 329.5 156.201 329.4 156.501 329.4L167.501 329.1L190.901 328.4L212.701 327.7L218.501 327.5C221.801 327.4 225.401 327.2 227.701 324.4C229.501 322.1 229.301 319.6 229.201 316.9L228.801 306.2L228.401 294.5C228.501 292.4 228.401 290.3 228.101 288.3C227.501 285.6 225.501 283.5 222.801 282.8C220.401 282.2 217.801 282.4 215.401 282.5C210.401 282.6 205.301 282.7 200.301 282.8C190.701 283 181.101 283.1 171.501 283.7C169.901 283.8 168.401 283.9 166.801 284.1C165.801 284.2 164.901 284.4 164.101 284.9C163.101 285.6 162.301 286.5 161.601 287.4C160.401 288.9 159.301 290.5 158.301 292.1C155.401 297 153.001 302.1 151.101 307.5C149.901 310.9 148.901 314.3 148.101 317.9C147.401 320.9 146.801 323.9 148.901 326.5C150.801 328.8 153.601 329.4 156.401 329.4C156.901 329.4 159.301 329.5 159.501 328.9C159.701 328.3 158.101 328.6 157.801 328.6Z" fill="white"/>
<path d="M245.802 326.8C242.002 326.8 238.802 323.8 238.702 319.9C238.302 300.6 237.402 284.5 238.802 284C240.602 283.4 291.102 283.4 294.102 283.4C296.502 283.4 308.402 296.4 313.802 317.6C314.802 321.3 312.502 325.2 308.802 326.1C308.202 326.2 307.702 326.3 307.102 326.3L245.802 326.8Z" fill="white"/>
<path d="M247.603 325.5C244.803 325.5 242.303 323.7 241.403 321C241.003 319.4 240.903 317.8 241.003 316.1C241.003 314.1 240.903 312.1 240.903 310.2C240.703 303.9 240.503 297.7 240.503 291.4C240.503 289.5 240.503 287.6 240.603 285.7C240.603 285.2 240.703 284.6 240.803 284.1C240.903 283.9 240.903 283.7 241.003 283.6C241.003 283.7 241.003 283.4 241.003 283.6C241.203 283.9 235.603 285.8 238.303 285.2C238.103 285.2 237.403 285.4 238.303 285.2L239.403 285.1H239.603H240.303L242.203 285C256.903 284.6 271.503 284.7 286.203 284.7H292.603C293.003 284.7 292.403 284.6 292.703 284.7C292.903 284.8 293.103 284.9 293.203 285C294.103 285.6 295.003 286.3 295.703 287.2C298.603 290.3 301.103 293.7 303.103 297.3C306.203 302.6 308.603 308.2 310.403 314C311.303 316.8 312.703 320 311.303 322.9C310.803 324.1 310.103 324.9 308.903 325C307.703 325.1 306.403 325 305.203 325L286.303 325.1L248.503 325.4L247.603 325.5C246.503 325.5 245.303 325.9 244.403 326.7C244.103 326.9 242.903 328.1 244.103 328.1L255.303 328L279.103 327.8L300.203 327.6C301.803 327.6 303.403 327.6 305.103 327.6C309.403 327.6 314.203 325.3 315.903 321.1C317.103 318.1 315.803 314.9 314.903 312.1C313.903 308.8 312.603 305.6 311.203 302.4C309.003 297.5 306.303 292.9 303.103 288.6C302.003 287.1 300.803 285.8 299.503 284.5C298.803 283.7 297.903 283 296.903 282.4C295.703 281.8 293.903 282.1 292.603 282.1C285.403 282.1 278.203 282.1 271.103 282.1C263.203 282.1 255.303 282.2 247.303 282.3C245.103 282.3 242.903 282.3 240.703 282.5C239.203 282.6 237.703 283.3 236.603 284.4C236.003 285.3 235.703 286.4 235.803 287.5C235.403 292.6 235.703 297.8 235.903 302.9C236.003 306.6 236.103 310.2 236.203 313.9C236.303 316 236.303 318.1 236.303 320.2C236.303 321.6 236.603 323 237.303 324.3C238.703 326.6 241.203 328 243.903 328C245.103 327.9 246.203 327.5 247.103 326.8C247.603 326.7 248.703 325.6 247.603 325.5Z" fill="white"/>
<path d="M233.799 335.4C233.999 342.2 234.299 349 234.299 355.8C234.299 362.6 234.199 369.4 233.799 376.2C233.699 377.2 234.899 378.2 235.699 378.7C236.099 378.9 237.799 379.9 237.899 378.8C238.199 372 238.399 365.2 238.399 358.4C238.399 351.6 238.099 344.8 237.899 338C237.699 336.9 236.999 336 235.999 335.5C235.599 335.4 233.699 334.4 233.799 335.4Z" fill="white"/>
<path d="M313.902 338.5V348C313.902 348.2 314.402 348.5 314.502 348.5C315.002 348.8 315.602 349 316.102 349.2C316.302 349.3 318.602 350 318.602 349.6V340.1C318.602 339.9 318.102 339.6 318.002 339.6C317.502 339.3 316.902 339.1 316.402 338.9C316.202 338.9 313.902 338.2 313.902 338.5Z" fill="white"/>
<path d="M78.6008 387.8H47.3008V403.3H78.6008V387.8Z" fill="white"/>
<path d="M77.9023 401.1H46.5023L49.2023 404.5V389L48.1023 389.9H79.4023L76.7023 386.5V402C76.7023 403.2 77.4023 404.4 78.4023 405C79.1023 405.4 80.5023 405.7 80.5023 404.5V389C80.5023 387.7 79.3023 385.6 77.8023 385.6H46.5023C45.9023 385.6 45.4023 385.8 45.4023 386.5V402C45.4023 403.3 46.6023 405.4 48.1023 405.4H79.4023C82.0023 405.4 79.7023 401.1 77.9023 401.1Z" fill="#000005"/>
<path d="M392.3 385.3H361V400.8H392.3V385.3Z" fill="white"/>
<path d="M391.2 399.7H359.9L363.4 401.2V385.7L362 386.3H393.3L389.8 384.8V400.3C389.8 401.9 394.7 402.5 394.7 401.2V385.7C394.7 384.3 392.1 384.2 391.2 384.2H359.9C359.6 384.2 358.5 384.3 358.5 384.9V400.4C358.5 401.8 361.1 401.9 362 401.9H393.3C394.1 401.9 395.1 401.5 394.4 400.7C393.7 399.9 392.2 399.7 391.2 399.7Z" fill="#000005"/>
<path d="M56.0009 346C54.8009 350.9 56.3009 355.6 56.5009 360.6C56.6009 364.6 55.3009 369.3 51.1009 370.7C50.1009 371 51.601 372.5 51.901 372.7C52.701 373.3 53.901 374 54.901 373.7C58.901 372.3 60.701 368.1 60.901 364.1C61.101 358.9 59.0009 353.8 60.3009 348.6C60.7009 347 56.3009 344.9 56.0009 346Z" fill="white"/>
<path d="M379.902 336.2C379.302 340.1 379.502 344 380.402 347.8C380.702 349.6 381.402 351.2 382.402 352.7C383.802 354.4 386.202 355 388.202 354.1C389.202 353.6 390.302 352.5 389.802 351.3C389.202 350.2 387.902 349.8 386.702 350.3C386.202 350.5 386.802 350.3 387.002 350.3C386.802 350.2 386.702 350.2 386.902 350.3C386.802 350.2 386.602 350.1 386.502 350C386.302 349.7 386.102 349.4 386.002 349C385.502 347.7 385.102 346.4 384.902 345.1C384.402 342.3 384.302 339.4 384.702 336.6C384.902 335.6 384.202 334.5 383.202 334.3C383.102 334.3 383.002 334.3 382.902 334.3C381.702 334.2 380.102 334.9 379.902 336.2Z" fill="white"/>
<path d="M182.5 316.6C188.4 308.8 194.6 301.2 200.5 293.5C201 292.8 201.4 291.7 200.3 291.5C199.1 291.5 197.9 292.1 197.2 293C191.3 300.8 185.1 308.4 179.1 316.1C178.6 316.8 178.2 317.9 179.3 318.1C180.6 318.1 181.7 317.5 182.5 316.6Z" fill="#68BA7F"/>
<path d="M200.402 319L211.102 305.5C211.302 305 211.302 304.4 211.102 303.9C210.802 303.3 210.402 302.8 209.802 302.5C208.802 301.8 207.402 302.1 206.702 303L196.002 316.6C195.802 317.1 195.802 317.7 196.002 318.2C196.302 318.8 196.702 319.3 197.302 319.6C198.302 320.2 199.702 319.9 200.402 319Z" fill="#68BA7F"/>
<path d="M256.601 315.1C259.201 310.6 261.701 306.1 264.601 301.7C267.501 297.3 270.801 293.4 274.101 289.4C274.601 288.8 272.401 288.9 272.201 288.9C271.301 289 269.801 289.1 269.201 289.9C266.001 293.9 262.601 297.9 259.701 302.2C256.801 306.5 254.301 311.1 251.701 315.6C251.301 316.3 253.301 316.1 253.601 316.1C254.401 316 256.201 315.9 256.601 315.1Z" fill="#68BA7F"/>
<path d="M270.102 320.8C271.602 317.4 273.602 314.2 276.302 311.6C277.002 310.8 275.802 309.9 275.202 309.6C274.602 309.3 274.002 309.1 273.402 309C272.902 308.9 272.502 309 272.102 309.2C269.302 312 267.102 315.3 265.502 319C265.302 319.4 265.602 319.8 265.902 320.1C266.302 320.5 266.802 320.9 267.402 321.1C268.002 321.3 268.602 321.4 269.202 321.4C269.502 321.4 269.902 321.2 270.102 320.8Z" fill="#68BA7F"/>
<path d="M284.1 301.1L288.2 295.6C288.3 295.5 287.9 294.9 287.9 294.9C287.6 294.4 287.2 293.9 286.9 293.5C286.8 293.4 285.2 291.5 285.1 291.7L281 297.2C280.9 297.3 281.3 297.9 281.3 297.9C281.6 298.4 281.9 298.9 282.3 299.3C282.4 299.5 284 301.3 284.1 301.1Z" fill="#68BA7F"/>
<path d="M156.902 327.7C156.602 324.4 156.802 321 157.302 317.8C157.402 316.4 157.802 315.1 158.502 313.9C159.102 313 160.002 312.4 161.002 312C161.302 311.9 161.502 311.8 161.802 311.8L162.302 311.7C162.602 311.7 162.902 311.6 163.102 311.6C163.302 311.6 163.102 311.6 163.002 311.6C163.202 311.6 163.402 311.6 163.602 311.6C163.802 311.6 164.202 311.6 164.402 311.7C164.002 311.6 164.702 311.8 164.802 311.8C164.902 311.8 165.302 312 165.602 312C165.202 311.9 166.002 312.2 166.102 312.2C166.202 312.2 166.802 312.6 166.602 312.5C166.802 312.6 167.002 312.8 167.202 312.9C167.602 313.3 168.002 313.7 168.202 314.2C168.802 315.4 169.202 316.8 169.402 318.1C169.802 320.7 170.202 324 168.502 326.3C166.802 328.6 171.302 330.4 172.602 328.5C174.702 325.6 174.802 322.2 174.402 318.7C174.002 315.2 173.002 312 170.102 309.9C167.302 308 163.902 307.3 160.602 307.9C157.202 308.5 153.802 310.5 152.802 314C151.702 318.3 151.302 322.7 151.702 327.1C151.802 328.3 152.802 329.2 154.002 329.2C155.102 329.5 157.002 329 156.902 327.7Z" fill="#000005"/>
<path d="M113.702 424.6C128.116 424.6 139.802 412.691 139.802 398C139.802 383.31 128.116 371.4 113.702 371.4C99.2869 371.4 87.6016 383.31 87.6016 398C87.6016 412.691 99.2869 424.6 113.702 424.6Z" fill="#000005"/>
<path d="M137.499 397.4C137.399 407.7 131.199 417.5 121.599 421.4C112.399 425.2 101.799 422.5 95.5994 414.8C89.0994 406.4 88.2994 394.9 93.4994 385.7C98.4994 376.9 108.799 371.5 118.999 373.3C130.199 375.4 137.399 386.3 137.499 397.4C137.499 399.1 142.299 400.7 142.299 398.7C142.099 386.7 134.599 376.1 123.399 371.9C112.299 367.7 99.3994 370.4 91.6994 379.7C84.1994 388.9 83.2994 401.8 89.3994 411.9C95.5994 422.1 107.999 428 119.899 425.8C131.299 423.6 140.099 414.5 141.899 403C142.099 401.6 142.199 400.1 142.299 398.6C142.199 396.9 137.499 395.4 137.499 397.4Z" fill="#000005"/>
<path d="M324.202 423C338.616 423 350.302 411.091 350.302 396.4C350.302 381.709 338.616 369.8 324.202 369.8C309.787 369.8 298.102 381.709 298.102 396.4C298.102 411.091 309.787 423 324.202 423Z" fill="#000005"/>
<path d="M347.9 396C347.8 406.4 341.5 415.8 331.9 419.8C322.7 423.5 312.1 420.6 306 412.8C299.4 404.6 298.8 392.8 304 383.8C309 375 319.2 369.8 329.2 371.7C340.5 373.8 347.8 384.9 347.9 396C347.9 397.8 352.7 399 352.7 396.8C352.5 384.8 344.9 374.2 333.7 370.1C322.6 365.9 309.6 369 302 378.2C294.5 387.4 293.6 400.3 299.7 410.5C306.1 420.9 318.3 426.3 330.3 424.1C341.7 421.9 350.5 412.7 352.3 401.2C352.5 399.7 352.6 398.3 352.6 396.8C352.7 395 347.9 393.8 347.9 396Z" fill="#000005"/>
<path d="M108.2 390.7C105.1 389.9 101.9 392.3 101.2 395.3C100.3 399.2 102.7 402.7 105.4 405.3C108.1 407.9 112.3 411 116 408.3C118.4 406.4 119.6 403.1 119.6 400.1C119.7 398.5 119.3 396.9 118.5 395.5C117.2 393.3 115.3 391.6 113 390.4C112.1 389.9 113.2 391.3 113.3 391.4C114.1 392.3 115 393 116 393.5C116.7 393.9 114.8 392.4 114.9 392.4C114.8 392.4 114.7 392.2 114.9 392.4C115.1 392.6 115 392.6 115.1 392.7C115.3 393.2 115.5 393.6 115.7 394.1C116 395.3 116.1 396.5 116 397.7C115.8 400.2 114.7 402.6 112.9 404.4C112 405.3 110.7 405.9 109.4 405.9C108.7 405.9 108 405.8 107.4 405.5C107.1 405.4 106.9 405.2 106.6 405.1C105.9 404.7 106.9 405.2 106.9 405.4C106.9 405.3 106.6 405.1 106.5 405C106.3 404.7 106.1 404.4 106 404.2C105.6 403.6 105.4 402.9 105.2 402.2C104.8 400.9 104.8 399.4 105.2 398.1C106.1 395.5 108.9 393.4 111.8 394.1C112.3 394.2 110.9 392.6 110.8 392.6C110 391.8 109.1 391.2 108.2 390.7Z" fill="white"/>
<path d="M318.399 385.9C316.499 386.4 314.699 387.4 313.299 388.7C311.999 390.2 311.599 392.2 311.299 394.1C310.699 397.9 311.299 402 314.299 404.6C317.399 407 321.699 407.3 325.099 405.4C326.699 404.5 327.999 403.3 329.099 401.9C330.299 400.4 331.199 398.7 331.699 396.9C332.299 394.4 331.199 392 329.799 390C328.499 388 326.499 386.6 324.199 386.1C323.199 385.8 322.099 386.4 321.899 387.4C321.899 387.5 321.799 387.6 321.799 387.7C321.899 389 322.799 390.1 324.099 390.3L324.599 390.4C324.599 390.4 325.199 390.7 324.899 390.5C324.599 390.3 324.999 390.6 325.099 390.6L325.499 390.9C325.799 391.2 325.299 390.6 325.499 390.9C325.699 391.2 325.999 391.4 326.199 391.7C326.699 392.3 326.099 391.5 326.299 391.9L326.499 392.3C326.699 392.6 326.799 392.9 326.899 393.2C327.199 393.7 327.199 394.2 327.099 394.7C326.799 396 326.199 397.1 325.399 398.1C324.699 399.2 323.799 400.1 322.699 400.9C322.299 401.2 321.799 401.4 321.299 401.6C320.999 401.7 320.699 401.8 320.399 401.9L319.999 402C320.399 402 319.699 402 319.699 402C319.399 402 319.099 402 318.799 402C319.199 402 318.399 401.9 318.299 401.9L317.899 401.8C318.299 401.9 317.999 401.8 317.899 401.8L317.499 401.6C317.399 401.5 316.899 401.2 317.299 401.5C317.199 401.4 316.599 400.9 316.899 401.3C316.699 401.1 316.499 400.8 316.299 400.6C316.499 401 316.199 400.3 316.099 400.1C315.899 399.7 315.999 399.9 316.099 400C315.999 399.8 315.999 399.6 315.899 399.4C315.799 398.9 315.699 398.4 315.699 397.9C315.699 397.2 315.699 396.5 315.799 395.8C315.899 394.4 316.299 393.1 316.999 391.9C317.399 391.4 317.999 391 318.599 390.7C318.499 390.7 318.299 390.8 318.699 390.6L319.399 390.3L320.499 389.9C323.499 389.1 320.899 385 318.399 385.9Z" fill="white"/>
<path d="M83.1025 427.2H145.202C146.402 427.2 146.802 425.8 146.502 424.8C146.102 423.6 145.002 422.8 143.702 422.7H81.6025C80.4025 422.7 80.0025 424.1 80.3025 425.1C80.7025 426.4 81.8025 427.2 83.1025 427.2Z" fill="#000005"/>
<path d="M288.999 428.6H351.099C353.899 428.6 352.099 424.1 349.899 424.1H287.799C284.999 424.1 286.799 428.6 288.999 428.6Z" fill="#000005"/>
<path d="M83.3988 379.1C84.2988 377.1 85.5988 375.2 87.1988 373.6C91.1988 369.4 96.0988 366.3 101.599 364.6C108.999 362.2 117.699 361.2 125.199 363.6C127.999 364.5 130.699 365.9 132.999 367.7C133.999 368.5 134.999 369.4 135.799 370.4C136.599 371.3 137.299 372.2 137.999 373.2C140.399 376.5 142.099 380.3 142.999 384.3C143.599 385.8 144.899 386.8 146.499 386.9H285.999C287.899 386.9 289.799 387 291.699 386.9H291.899C292.299 386.9 292.599 386.7 292.699 386.3C292.999 384.5 293.599 382.8 294.599 381.3C297.399 376.6 301.199 372.6 305.799 369.6C312.599 364.9 320.699 360.6 329.099 360.4C334.999 360.2 340.699 362.3 344.999 366.3C349.199 370.2 351.899 375.4 352.799 381C352.999 382.5 357.299 384.8 356.999 382.6C355.299 370.2 343.999 359.1 331.699 357.1C322.799 355.7 314.399 358.9 306.799 363.3C300.999 366.6 295.399 370.9 291.699 376.5C290.299 378.6 288.799 381.3 288.599 383.9L289.399 383.3H149.599C147.699 383.3 145.799 383.2 143.899 383.3H143.699L147.199 385.9C145.099 375.6 137.299 366.3 127.899 361.9C120.199 358.3 111.399 358.3 103.199 359.9C96.3988 361.2 90.1988 364.2 84.9988 368.8C82.5988 370.8 80.6988 373.3 79.3988 376.2C78.6988 377.7 82.8988 380.4 83.3988 379.1Z" fill="#000005"/>
<path d="M213.102 340.5H222.502C223.002 340.5 223.602 340.4 224.102 340.1C224.402 339.9 224.602 339.5 224.502 339.2C224.102 338.2 222.502 337.8 221.602 337.8H212.202C211.702 337.8 211.102 337.9 210.602 338.2C210.302 338.4 210.102 338.8 210.202 339.1C210.602 340.1 212.202 340.5 213.102 340.5Z" fill="white"/>
<path d="M296.802 339.1H306.002C306.902 339.1 305.602 337.4 305.502 337.2C305.102 336.7 304.602 336.2 304.102 335.8C303.802 335.5 303.402 335.3 303.002 335.3H293.902C293.002 335.3 294.302 337 294.402 337.2C294.802 337.7 295.302 338.2 295.802 338.6C296.102 338.8 296.502 339 296.802 339.1Z" fill="white"/>
<path d="M411.102 379.3C413.802 376.1 417.302 373.6 421.302 372.1C422.802 371.5 425.302 370.6 427.002 371.3C428.202 372 428.802 373.5 428.402 374.9C428.202 375.5 427.802 376 427.202 376.2C427.202 376.2 426.502 376.5 426.502 376.3C426.502 376.1 426.702 376.2 426.602 376.3C426.702 376.2 426.802 376.7 426.802 376.4C426.802 376.2 426.402 375.7 426.402 375.5C426.302 375 426.302 374.5 426.402 374C426.602 373 427.202 372 427.902 371.2C429.402 369.6 431.202 368.2 433.102 367C434.802 365.8 436.802 365.1 438.902 365.1C440.702 365.2 442.202 366.6 442.502 368.4C442.902 370.6 441.902 372.8 440.002 374L444.202 376C444.302 374 445.902 372.4 447.802 372.1C449.702 371.8 451.402 373.3 452.602 374.6C453.502 375.5 454.702 375.8 456.002 375.6C457.002 375.4 457.302 374.6 456.502 373.8C453.902 371.1 450.102 368.9 446.202 369.1C443.202 369.2 439.602 371.1 439.402 374.5C439.302 376.1 442.402 377.3 443.602 376.5C446.102 375.1 447.602 372.4 447.202 369.5C446.702 366.3 444.102 364 441.202 362.9C434.802 360.6 428.202 364.2 423.702 368.8C421.602 370.9 420.402 374.2 422.602 376.7C424.702 378.9 427.802 379.6 430.602 378.7C432.702 377.9 433.802 375.6 433.102 373.4C433.102 373.3 433.102 373.3 433.002 373.2C431.902 370.2 428.702 368.6 425.702 368.2C421.902 367.7 418.102 369 414.802 370.7C411.702 372.3 409.002 374.5 406.702 377.1C405.402 378.7 410.002 380.7 411.102 379.3Z" fill="#68BA7F"/>
<path d="M415.401 354.9C418.401 351.3 422.201 347.6 427.201 347.3C427.701 347.3 428.101 347.3 428.601 347.3C428.301 347.3 428.301 347.1 428.501 347.3C428.701 347.5 428.901 347.5 429.101 347.7C430.001 348.3 430.801 349.1 431.501 349.9C432.201 350.7 432.801 351.6 433.301 352.6C433.701 353.2 433.801 353.9 433.701 354.6C433.601 354.8 433.501 355 433.301 355.2C432.601 355.9 432.301 355.1 434.401 355.7L436.401 356.6C435.501 356 435.701 354.3 435.801 353.4C435.901 352.1 436.101 350.9 436.601 349.7C437.501 347.4 439.301 345.6 441.601 344.6C442.601 344.1 443.701 344 444.701 344.1C444.401 344 445.301 344.5 445.501 344.6C446.001 344.9 446.501 345.3 446.901 345.7C448.701 347.6 450.101 349.9 450.901 352.4C451.201 353.2 453.101 353.5 453.801 353.6C454.101 353.7 455.901 354 455.701 353.4C454.901 350.8 453.501 348.5 451.601 346.5C449.401 344.5 446.701 343.1 443.801 342.6C438.501 341.5 433.101 343.8 431.501 349.2C430.901 351.1 430.301 354.7 432.201 356C433.701 357.1 439.201 358.5 438.601 355C438.201 352.8 436.001 350.4 434.401 349C432.001 347.1 429.201 346 426.201 345.7C419.601 344.9 414.601 348.9 410.601 353.7C410.301 354.1 412.601 354.9 412.801 354.9C413.501 355 415.001 355.5 415.401 354.9Z" fill="#68BA7F"/>
</svg>
